<svg width="17" height="17" viewBox="0 0 17 17" fill="none" xmlns="http://www.w3.org/2000/svg">
<path fill-rule="evenodd" clip-rule="evenodd" d="M8.61573 0.832306C10.8101 0.832306 11.0859 0.840679 11.9473 0.878356C12.6177 0.890428 13.281 1.00982 13.9089 1.23141C14.4454 1.42719 14.9328 1.72612 15.3397 2.10912C15.7466 2.49211 16.0642 2.95075 16.2723 3.45577C16.5072 4.04535 16.634 4.66821 16.6474 5.29777C16.6874 6.10853 16.6963 6.36809 16.6963 8.43336C16.6963 10.4986 16.6874 10.7582 16.6474 11.569C16.6345 12.1999 16.5077 12.8242 16.2723 13.4151C16.0642 13.9202 15.7466 14.3788 15.3397 14.7618C14.9328 15.1448 14.4454 15.4437 13.9089 15.6395C13.2827 15.8621 12.6209 15.9829 11.9517 15.9967C11.0903 16.0344 10.8145 16.0428 8.62017 16.0428C6.42582 16.0428 6.15004 16.0344 5.28861 15.9967C4.6182 15.9847 3.95486 15.8653 3.32703 15.6437C2.79045 15.4479 2.30314 15.149 1.89621 14.766C1.48928 14.383 1.17167 13.9243 0.963651 13.4193C0.727188 12.83 0.598836 12.2071 0.584082 11.5773C0.54405 10.7666 0.535156 10.507 0.535156 8.44173C0.535156 6.37646 0.54405 6.1169 0.584082 5.30614C0.596909 4.67517 0.723759 4.05086 0.959199 3.45995C1.1667 2.95417 1.48408 2.49471 1.89104 2.11097C2.298 1.72723 2.78557 1.42765 3.32258 1.23141C3.94901 1.01028 4.6108 0.890902 5.27971 0.878356C6.14559 0.840679 6.42137 0.832306 8.61573 0.832306ZM11.8776 2.2473C11.0266 2.21102 10.7701 2.20265 8.61573 2.20265C6.4614 2.20265 6.20193 2.21102 5.35385 2.2473C4.84062 2.25224 4.33209 2.34004 3.85041 2.50685C3.50132 2.63353 3.18429 2.82761 2.91973 3.07661C2.65517 3.3256 2.44895 3.62399 2.31436 3.95255C2.13695 4.40493 2.04317 4.88257 2.03711 5.36475C1.99856 6.16574 1.98966 6.40716 1.98966 8.43476C1.98966 10.4624 1.99856 10.7066 2.03711 11.5048C2.0425 11.9888 2.13628 12.4684 2.31436 12.9225C2.44895 13.2511 2.65517 13.5495 2.91973 13.7985C3.18429 14.0475 3.50132 14.2416 3.85041 14.3682C4.33107 14.5352 4.83856 14.6235 5.35088 14.6292C6.20194 14.6655 6.45844 14.6738 8.61276 14.6738C10.7671 14.6738 11.0266 14.6655 11.8746 14.6292C12.389 14.6241 12.8985 14.5359 13.381 14.3682C13.7301 14.2416 14.0472 14.0475 14.3117 13.7985C14.5763 13.5495 14.7825 13.2511 14.9171 12.9225C15.0945 12.4702 15.1883 11.9925 15.1943 11.5103C15.2329 10.7094 15.2418 10.4679 15.2418 8.44034C15.2418 6.41274 15.2329 6.16853 15.1943 5.37033C15.189 4.88627 15.0952 4.40669 14.9171 3.95255C14.7825 3.62399 14.5763 3.3256 14.3117 3.07661C14.0472 2.82761 13.7301 2.63353 13.381 2.50685C12.9003 2.34035 12.3928 2.25256 11.8806 2.2473H11.8776ZM8.61573 10.9731C9.14855 10.9731 9.66941 10.8244 10.1124 10.5458C10.5555 10.2672 10.9008 9.87117 11.1047 9.40786C11.3086 8.94455 11.3619 8.43474 11.258 7.94289C11.154 7.45104 10.8975 6.99925 10.5207 6.64465C10.1439 6.29004 9.66389 6.04856 9.1413 5.95072C8.61872 5.85289 8.07704 5.9031 7.58477 6.09501C7.0925 6.28692 6.67176 6.61191 6.37573 7.02887C6.07971 7.44584 5.92171 7.93607 5.92171 8.43755C5.9221 9.1099 6.20606 9.75462 6.7112 10.23C7.21634 10.7055 7.90135 10.9727 8.61573 10.9731ZM8.61573 4.53166C9.43681 4.53166 10.2395 4.76082 10.9222 5.19016C11.6049 5.6195 12.137 6.22973 12.4512 6.94369C12.7654 7.65765 12.8476 8.44328 12.6874 9.20122C12.5273 9.95916 12.1319 10.6554 11.5513 11.2018C10.9707 11.7483 10.2309 12.1204 9.42564 12.2711C8.62033 12.4219 7.7856 12.3445 7.02702 12.0488C6.26844 11.7531 5.62006 11.2523 5.16389 10.6097C4.70772 9.96716 4.46424 9.21173 4.46424 8.43894C4.46424 7.40267 4.90163 6.40884 5.68018 5.67608C6.45874 4.94332 7.51468 4.53166 8.61573 4.53166ZM13.8985 4.37816C13.8985 4.55866 13.8416 4.73511 13.7351 4.88519C13.6285 5.03527 13.4771 5.15225 13.2999 5.22132C13.1227 5.2904 12.9277 5.30847 12.7397 5.27326C12.5516 5.23804 12.3788 5.15112 12.2432 5.02349C12.1076 4.89586 12.0152 4.73324 11.9778 4.55621C11.9404 4.37918 11.9596 4.19568 12.033 4.02891C12.1064 3.86215 12.2306 3.71962 12.3901 3.61934C12.5496 3.51906 12.737 3.46553 12.9288 3.46553C13.186 3.46553 13.4326 3.56169 13.6145 3.73284C13.7963 3.90399 13.8985 4.13612 13.8985 4.37816Z" fill="#DFDFDF"/>
</svg>
