<svg width="182" height="40" viewBox="0 0 182 40" fill="none" xmlns="http://www.w3.org/2000/svg">
<path d="M36.2591 12.2578C36.1005 12.2578 35.821 12.3746 35.6875 12.9087C35.4121 14.2146 34.8614 15.3494 33.9686 16.3632C32.9339 17.5189 31.9242 18.7163 31.4194 20.2392C31.265 20.7273 31.1148 21.374 30.368 21.278C29.9674 21.2238 29.7463 20.5396 29.9424 19.7761C30.1635 18.9416 30.5015 18.1531 30.7518 17.3353C30.9187 16.8055 31.1315 16.2422 31.1273 15.6998C31.1315 14.4232 30.4848 13.9851 29.2832 14.3689C28.1692 14.7236 27.0553 15.1157 25.9538 15.5288C24.1264 16.2297 19.5662 18.103 18.4731 18.3575C17.9182 18.4869 17.597 18.3074 17.4551 18.0154C17.3049 17.7108 17.5553 17.2185 18.1394 16.9557C18.6275 16.7345 24.6813 14.0059 25.0067 13.7598C25.1778 13.6388 25.2738 13.4093 25.1736 13.255C25.0276 13.0297 24.2766 13.2174 23.9011 13.3509C22.1738 14.0226 17.7472 15.6665 16.9628 15.85C16.5748 15.9418 16.1743 15.9043 15.9824 15.5163C15.8614 15.2659 15.9365 14.9822 16.241 14.7528C16.4914 14.565 21.8735 12.2954 23.4881 11.5485C23.9178 11.3483 24.2474 10.9436 24.1181 10.6432C23.9846 10.3261 23.5048 10.5723 23.2461 10.6599C22.1446 11.0145 18.4857 12.4164 17.6971 12.6583C17.3049 12.7793 16.6499 12.8753 16.4705 12.3287C16.3245 11.8823 16.8627 11.6695 17.2423 11.4651C17.7931 11.1689 21.4729 9.60014 22.8164 9.10366C23.1877 8.95763 23.5507 8.48201 23.4505 8.10234C23.3421 7.68095 22.0695 8.02724 21.0557 8.28591C20.6427 8.39022 19.7832 8.70313 19.366 8.72399C19.0572 8.75737 18.8486 8.57797 18.786 8.43611C18.615 8.02724 19.0322 7.69347 19.7081 7.40976C20.8846 6.91745 21.8651 6.63791 22.9666 6.29579C24.3517 5.87023 25.2779 5.72421 26.6339 5.24024C27.6978 4.8564 28.236 4.45587 28.3194 3.02065C28.3194 2.23628 28.3194 1.53953 28.3194 1.01383C28.3153 0.50483 28.3111 0.0876154 28.3111 0H13.2037V12.2495H0.537011C0.532838 17.1309 0.537011 26.852 0.537011 27.3652C0.549527 27.3652 0.570388 27.3652 0.582905 27.3652C2.29349 27.361 3.81216 27.3652 5.75221 27.3652C5.91076 27.3652 6.19029 27.2484 6.3238 26.7144C6.59916 25.4085 7.14989 24.2736 8.04273 23.2598C9.07743 22.1041 10.0871 20.9067 10.5919 19.3839C10.7463 18.8957 10.8965 18.249 11.6433 18.345C12.0438 18.3992 12.265 19.0835 12.0689 19.847C11.8477 20.6814 11.5098 21.4699 11.2553 22.2877C11.0884 22.8176 10.8756 23.3808 10.8798 23.9232C10.8756 25.1999 11.5223 25.6379 12.7239 25.2541C13.8379 24.8995 14.9518 24.5073 16.0533 24.0942C17.8807 23.3933 22.4409 21.52 23.534 21.2655C24.0889 21.1362 24.4101 21.3156 24.552 21.6076C24.7022 21.9122 24.4518 22.4045 23.8677 22.6674C23.3796 22.8885 17.3258 25.6171 17.0004 25.8632C16.8293 25.9842 16.7333 26.2137 16.8335 26.3681C16.9795 26.5934 17.7305 26.4056 18.106 26.2721C19.8333 25.6004 24.2599 23.9566 25.0443 23.773C25.4323 23.6812 25.8328 23.7187 26.0248 24.1068C26.1457 24.3571 26.0706 24.6408 25.7661 24.8703C25.5157 25.058 20.1337 27.3277 18.519 28.0745C18.0893 28.2747 17.7597 28.6794 17.889 28.9798C18.0225 29.2969 18.5023 29.0508 18.761 28.9632C19.8625 28.6085 23.5215 27.2067 24.31 26.9647C24.7022 26.8437 25.3572 26.7477 25.5366 27.2943C25.6826 27.7407 25.1444 27.9535 24.7648 28.1579C24.214 28.4541 20.5342 30.0229 19.1908 30.5194C18.8194 30.6654 18.4564 31.141 18.5566 31.5207C18.6651 31.9421 19.9376 31.5958 20.9514 31.3371C21.3644 31.2328 22.2239 30.9199 22.6411 30.899C22.9499 30.8657 23.1585 31.0451 23.2211 31.1869C23.3921 31.5958 22.9749 31.9296 22.299 32.2133C21.1225 32.7056 20.142 32.9851 19.0406 33.3272C17.6554 33.7528 16.2535 34.1366 14.8976 34.6206C13.7252 35.0462 13.187 35.4842 13.2037 37.3158C13.212 38.2379 13.2246 39.6856 13.2246 39.865H28.3194C28.3194 39.5771 28.3194 31.8586 28.3194 27.361H41.4826V12.2578C41.4743 12.2578 41.4576 12.2578 41.4492 12.2578C39.7261 12.262 38.2075 12.2578 36.2591 12.2578Z" fill="white" fill-opacity="0.8"/>
<path d="M125.589 27.4694C124.897 27.7698 124.121 27.9158 123.249 27.9158C122.565 27.9158 121.922 27.8157 121.317 27.6154C120.712 27.4152 120.187 27.1189 119.748 26.7309C119.306 26.3387 118.956 25.8631 118.701 25.2999C118.447 24.7366 118.317 24.0941 118.317 23.3682C118.317 22.8258 118.409 22.3335 118.597 21.8829C118.78 21.4365 119.035 21.0276 119.356 20.6646C119.678 20.3016 120.045 19.9762 120.458 19.6925C120.871 19.4088 121.296 19.1585 121.739 18.9457C121.326 18.4492 120.979 17.9485 120.704 17.452C120.424 16.9556 120.287 16.3714 120.287 15.6997C120.287 15.174 120.395 14.6942 120.616 14.2687C120.837 13.8431 121.134 13.476 121.501 13.1672C121.872 12.8627 122.293 12.6248 122.773 12.4621C123.249 12.2994 123.745 12.216 124.259 12.216C124.843 12.216 125.385 12.2952 125.894 12.4496C126.399 12.6082 126.841 12.8376 127.217 13.1422C127.592 13.4468 127.892 13.8306 128.114 14.2854C128.335 14.7401 128.443 15.2658 128.443 15.8666C128.443 16.7636 128.185 17.5188 127.663 18.1321C127.142 18.7454 126.499 19.2586 125.731 19.6716L127.696 22.0873C127.855 21.8036 127.976 21.5074 128.059 21.2028C128.143 20.8982 128.21 20.5853 128.251 20.2724H130.88C130.809 20.9567 130.65 21.62 130.408 22.2584C130.166 22.9009 129.833 23.4892 129.403 24.0315L132.499 27.6405H128.781L127.542 26.1218C126.933 26.7184 126.282 27.169 125.589 27.4694ZM122.548 21.3155C122.293 21.474 122.064 21.6576 121.864 21.8704C121.663 22.0831 121.505 22.3168 121.384 22.5755C121.263 22.83 121.2 23.1178 121.2 23.4307C121.2 23.7019 121.263 23.9606 121.384 24.2109C121.505 24.4613 121.663 24.6741 121.864 24.8535C122.064 25.0329 122.293 25.1747 122.556 25.279C122.819 25.3875 123.095 25.4376 123.378 25.4376C123.921 25.4376 124.392 25.3124 124.797 25.0621C125.201 24.8117 125.585 24.4905 125.94 24.09L123.332 20.9066C123.065 21.0234 122.802 21.1611 122.548 21.3155ZM125.377 14.6734C125.097 14.3897 124.776 14.2478 124.405 14.2478C124.033 14.2478 123.712 14.373 123.445 14.6233C123.174 14.8736 123.04 15.1949 123.04 15.5954C123.04 16.0794 123.17 16.4924 123.424 16.8346C123.679 17.1767 123.95 17.5271 124.238 17.8818C124.663 17.6106 125.03 17.3185 125.339 17.0056C125.644 16.6927 125.798 16.2588 125.798 15.7039C125.794 15.2992 125.656 14.9571 125.377 14.6734Z" fill="white" fill-opacity="0.8"/>
<path d="M59.8194 18.4952H52.9436V12.1702H50.0356V27.5529H52.9436V21.2071H59.8194V27.5529H62.7274V12.1702H59.8194V18.4952Z" fill="white" fill-opacity="0.8"/>
<path d="M87.276 17.7901C86.8713 17.0225 86.2705 16.4801 85.482 16.1672C84.6934 15.8543 83.7881 15.6957 82.7701 15.6957C81.3807 15.6957 80.2834 15.9961 79.4824 16.5927C78.6772 17.1893 78.1306 17.9654 77.8386 18.9208L80.5087 19.6384C80.6923 19.1127 80.976 18.8582 81.4391 18.6538C81.9022 18.4493 82.3487 18.345 82.7742 18.345C83.5419 18.345 84.0926 18.5036 84.4181 18.8248C84.6726 19.0752 84.8269 19.4423 84.8812 19.9138C84.393 19.9889 83.9257 20.0556 83.4877 20.1224C82.7409 20.2309 82.0691 20.3477 81.4809 20.4687C80.8884 20.5897 80.3794 20.7273 79.9538 20.8859C79.3364 21.1153 78.8399 21.3949 78.4727 21.737C78.1056 22.0749 77.8386 22.4671 77.6758 22.9052C77.5131 23.3475 77.4297 23.8356 77.4297 24.3696C77.4297 25.0121 77.5757 25.5963 77.8719 26.1261C78.1682 26.656 78.6021 27.0815 79.1736 27.3986C79.7452 27.7157 80.4462 27.8743 81.2722 27.8743C82.2694 27.8743 83.0913 27.7032 83.7463 27.3569C84.2595 27.0857 84.7435 26.6727 85.2024 26.1303V27.553H87.7433V20.502C87.7433 19.9763 87.7224 19.4965 87.6807 19.071C87.639 18.6454 87.5055 18.2157 87.276 17.7901ZM84.5641 24.0484C84.4848 24.2111 84.3388 24.4155 84.1218 24.6575C83.9049 24.8995 83.6128 25.1165 83.2457 25.3042C82.8785 25.4919 82.4279 25.5879 81.8939 25.5879C81.5601 25.5879 81.2723 25.5378 81.0303 25.4377C80.7883 25.3376 80.6005 25.1957 80.4712 25.0038C80.3377 24.8161 80.2751 24.5908 80.2751 24.3237C80.2751 24.1318 80.3168 23.9566 80.3961 23.8022C80.4795 23.6437 80.6047 23.5018 80.7799 23.3683C80.9552 23.2348 81.1846 23.1138 81.4683 23.0012C81.7187 22.9094 82.0065 22.8218 82.332 22.7467C82.6616 22.6674 83.0913 22.5798 83.6253 22.4838C83.9675 22.4212 84.3847 22.3503 84.8561 22.271C84.852 22.4755 84.8394 22.7008 84.8269 22.9553C84.8019 23.3725 84.7143 23.7355 84.5641 24.0484Z" fill="white" fill-opacity="0.8"/>
<path d="M92.9966 11.9907H90.0928V27.5528H92.9966V11.9907Z" fill="white" fill-opacity="0.8"/>
<path d="M98.9915 11.853H96.0877V16.1378H94.1226V18.3824H96.0877V22.784C96.0877 23.4766 96.096 24.0941 96.1085 24.6365C96.121 25.183 96.2712 25.7171 96.5591 26.2428C96.872 26.806 97.3309 27.2149 97.9317 27.4652C98.5325 27.7197 99.1959 27.7906 99.9594 27.8073C100.723 27.824 101.666 27.6905 102.325 27.5528V25.1371C101.666 25.2873 101.019 25.3791 100.456 25.3416C99.8927 25.304 99.4838 25.0871 99.2293 24.6782C99.0958 24.4654 99.0207 24.1775 99.0123 23.8187C98.9998 23.4599 98.9956 23.0552 98.9956 22.6046V18.3741H100.698V16.1294H98.9956V11.853H98.9915Z" fill="white" fill-opacity="0.8"/>
<path d="M112.864 18.7662C112.731 18.2572 112.501 17.7691 112.184 17.2976C111.867 16.8262 111.425 16.4382 110.853 16.1336C110.282 15.829 109.547 15.6747 108.642 15.6747C107.511 15.6747 106.769 15.7498 105.838 16.2212C105.463 16.4131 105.171 16.58 104.904 16.8763V11.853H102.317V27.5528L105.267 27.0647V21.6993C105.267 20.9817 105.346 20.4017 105.509 19.9678C105.667 19.5339 105.876 19.2043 106.122 18.979C106.372 18.7537 106.639 18.6035 106.923 18.5243C107.207 18.445 107.474 18.4074 107.724 18.4074C108.341 18.4074 108.821 18.5451 109.159 18.8246C109.497 19.1042 109.743 19.4463 109.889 19.8593C110.04 20.2724 110.127 20.6854 110.156 21.0943C110.186 21.5032 110.198 21.8411 110.198 22.104V27.5528H113.148V21.0818C113.148 20.8899 113.135 20.5853 113.106 20.1639C113.081 19.7425 113.002 19.2752 112.864 18.7662Z" fill="white" fill-opacity="0.8"/>
<path d="M146.997 18.4784H140.117V12.1534H137.213V27.5362H140.117V21.1903H146.997V27.5362H149.9V12.1534H146.997V18.4784Z" fill="white" fill-opacity="0.8"/>
<path d="M168.128 11.8572H165.225V27.5571H168.128V11.8572Z" fill="white" fill-opacity="0.8"/>
<path d="M180.708 18.6538C180.257 17.7401 179.619 17.0183 178.801 16.4926C177.983 15.9669 177.019 15.704 175.918 15.704C174.821 15.704 173.899 15.9711 173.152 16.5051C173.081 16.5552 173.018 16.6177 172.947 16.672V15.704H170.386V32.6847H173.31V27.1525C174.057 27.6364 174.975 27.8784 176.064 27.8784C177.124 27.8784 178.054 27.6114 178.851 27.0774C179.648 26.5433 180.27 25.8174 180.716 24.8995C181.162 23.9816 181.384 22.9469 181.384 21.7912C181.388 20.6147 181.158 19.5716 180.708 18.6538ZM178.021 23.5561C177.829 24.0859 177.533 24.5073 177.136 24.8202C176.736 25.1331 176.227 25.2917 175.597 25.2917C174.95 25.2917 174.429 25.1456 174.041 24.8536C173.653 24.5615 173.373 24.1527 173.202 23.627C173.031 23.1013 172.947 22.488 172.947 21.7912C172.947 21.0945 173.031 20.4812 173.202 19.9555C173.373 19.4298 173.644 19.0209 174.02 18.7289C174.395 18.4368 174.883 18.2908 175.488 18.2908C176.135 18.2908 176.669 18.4493 177.086 18.7664C177.503 19.0835 177.812 19.5091 178.008 20.0389C178.209 20.5688 178.309 21.1529 178.309 21.7954C178.309 22.4379 178.213 23.0262 178.021 23.5561Z" fill="white" fill-opacity="0.8"/>
<path d="M155.069 22.5964C155.332 24.5573 156.354 25.1456 157.819 25.1456C158.603 25.1456 159.158 24.6992 159.554 23.9899H163.051C162.346 26.585 160.581 27.8784 157.756 27.8784C156.888 27.8784 156.1 27.7365 155.378 27.4486C154.661 27.1607 154.043 26.7519 153.53 26.222C153.017 25.6921 152.62 25.058 152.341 24.3237C152.061 23.5852 151.919 22.7633 151.919 21.8496C151.919 20.9067 152.053 20.0556 152.32 19.2962C152.587 18.5369 152.967 17.8944 153.459 17.3645C153.951 16.8346 154.548 16.4258 155.245 16.1379C155.946 15.85 156.734 15.7082 157.61 15.7082C158.474 15.7082 159.262 15.825 159.955 16.1087C160.648 16.3966 161.278 16.8388 161.757 17.3854C162.237 17.9319 162.617 18.6162 162.871 19.4047C163.126 20.1932 163.222 21.061 163.188 22.0498C163.184 22.1875 163.147 22.6089 163.147 22.6089L155.069 22.5964ZM160.23 20.4436C160.051 19.4297 159.834 19.0501 159.446 18.7246C158.916 18.2824 158.328 18.2198 157.798 18.2198C157.31 18.2198 156.521 18.3783 156.158 18.6913C155.482 19.2754 155.345 19.6091 155.132 20.4185L160.23 20.4436Z" fill="white" fill-opacity="0.8"/>
<path d="M67.9049 22.5923C68.1677 24.5532 69.1899 25.1415 70.6543 25.1415C71.4387 25.1415 71.9936 24.6951 72.3899 23.9858H75.8862C75.1811 26.5809 73.4163 27.8742 70.5917 27.8742C69.7239 27.8742 68.9354 27.7324 68.2136 27.4445C67.496 27.1566 66.8785 26.7478 66.3653 26.2179C65.8522 25.688 65.4558 25.0539 65.1763 24.3196C64.8967 23.5811 64.7549 22.7592 64.7549 21.8455C64.7549 20.9026 64.8884 20.0514 65.1554 19.2921C65.4224 18.5328 65.8021 17.8903 66.2944 17.3604C66.7867 16.8305 67.3833 16.4217 68.0801 16.1338C68.781 15.8459 69.5696 15.704 70.4457 15.704C71.3094 15.704 72.0979 15.8209 72.7905 16.1046C73.4831 16.3924 74.113 16.8347 74.5928 17.3813C75.0726 17.9278 75.4523 18.612 75.7068 19.4006C75.9613 20.1891 76.0573 21.0569 76.0239 22.0457C76.0197 22.1834 75.9822 22.6048 75.9822 22.6048L67.9049 22.5923ZM73.07 20.4394C72.8906 19.4256 72.6736 19.0459 72.2856 18.7205C71.7558 18.2783 71.1675 18.2157 70.6376 18.2157C70.1495 18.2157 69.3609 18.3742 68.998 18.6871C68.3221 19.2712 68.1844 19.605 67.9716 20.4144L73.07 20.4394Z" fill="white" fill-opacity="0.8"/>
</svg>
