<svg width="15" height="19" viewBox="0 0 15 19" fill="none" xmlns="http://www.w3.org/2000/svg">
<path d="M7.60179 11.099C7.30946 10.8523 6.99355 10.6806 6.63048 10.5984C5.53422 10.3541 4.44975 11.1014 4.21635 12.2743C4.00181 13.3554 4.74916 14.4921 5.81241 14.6952C7.11378 14.9443 8.25484 13.9842 8.25719 12.6274C8.25955 8.7168 8.25955 4.80373 8.25719 0.893083C8.25719 0.643982 8.25719 0.643982 8.49766 0.643982C9.48076 0.643982 10.4662 0.643982 11.4493 0.643982C11.5106 0.643982 11.5719 0.643982 11.6639 0.643982C11.6639 0.731046 11.6615 0.8036 11.6639 0.876154C11.6756 1.2486 11.6497 1.63071 11.7063 1.9959C11.8595 2.9657 12.6894 3.67431 13.6442 3.69124C13.953 3.69608 14.2595 3.69124 14.5731 3.69124C14.5731 4.86419 14.5731 6.01538 14.5731 7.17382C13.5758 7.22219 12.6116 7.18108 11.6639 6.77719C11.6639 6.89812 11.6639 6.98276 11.6639 7.06983C11.6639 8.88609 11.6686 10.7024 11.6615 12.5186C11.6544 14.5743 10.8316 16.2043 9.15542 17.3386C5.9963 19.4765 1.62304 17.5732 0.894559 13.7593C0.324031 10.7676 2.1087 7.91629 5.00141 7.21252C5.82656 7.01178 6.65642 7.01904 7.48392 7.21977C7.5735 7.24154 7.62537 7.26088 7.62537 7.37455C7.62301 8.59346 7.62301 9.81236 7.62301 11.0313C7.62301 11.0482 7.61358 11.0651 7.60179 11.099Z" fill="#DFDFDF"/>
</svg>
