<svg width="70" height="46" viewBox="0 0 70 46" fill="none" xmlns="http://www.w3.org/2000/svg">
<path id="Quotation marks" d="M26.8459 22.0103C29.0203 24.4834 30.1075 27.4511 30.1075 30.9135C30.1075 35.0354 28.6021 38.5802 25.5914 41.5479C22.7479 44.5156 19.2354 45.9995 15.0538 45.9995C10.8722 45.9995 7.27598 44.5981 4.26523 41.7952C1.42174 38.8275 0 35.2002 0 30.9135C0 19.3723 6.94146 9.06761 20.8244 -0.000488281L25.8423 4.20382C24.1697 5.68769 22.5806 7.66618 21.0753 10.1393C19.7372 12.4475 18.9008 14.6733 18.5663 16.8167C21.9116 17.6411 24.6714 19.3723 26.8459 22.0103ZM66.7383 22.0103C68.9128 24.4834 70 27.4511 70 30.9135C70 35.0354 68.4946 38.5802 65.4839 41.5479C62.4731 44.5156 58.9606 45.9995 54.9462 45.9995C50.7646 45.9995 47.1685 44.5156 44.1577 41.5479C41.1469 38.5802 39.6416 35.0354 39.6416 30.9135C39.6416 19.702 46.6667 9.39736 60.7168 -0.000488281L65.9857 4.20382C64.313 5.68769 62.724 7.58375 61.2186 9.89199C59.8805 12.2002 58.9606 14.5085 58.4588 16.8167C61.8041 17.6411 64.5639 19.3723 66.7383 22.0103Z" fill="currentColor" fill-opacity="0.5"/>
</svg>
