<svg width="19" height="19" viewBox="0 0 19 19" fill="none" xmlns="http://www.w3.org/2000/svg">
<path d="M7.13464 6.51742C8.32886 6.51742 9.49429 6.51742 10.6995 6.51742C10.6995 7.0141 10.6995 7.49095 10.6995 8.07358C10.8486 7.89011 10.9341 7.79259 11.0121 7.68929C12.6315 5.5315 16.4072 5.96372 17.5972 7.33062C18.2994 8.13721 18.6255 9.08099 18.6831 10.0942C18.7686 11.5908 18.7644 13.0924 18.7821 14.5916C18.7957 15.7874 18.7847 16.9841 18.7847 18.213C17.5363 18.213 16.3183 18.213 15.0377 18.213C15.0377 18.0675 15.0377 17.9221 15.0377 17.7766C15.0369 15.918 15.0453 14.0594 15.0301 12.2007C15.0258 11.7495 14.986 11.29 14.8869 10.8512C14.6727 9.89667 14.1289 9.46032 13.193 9.41651C12.1733 9.36941 11.3695 9.81816 11.1145 10.6991C10.9485 11.2727 10.8833 11.8883 10.8732 12.4875C10.8427 14.2494 10.8621 16.0122 10.8621 17.7741C10.8621 17.9212 10.8621 18.0683 10.8621 18.232C9.59169 18.232 8.38137 18.232 7.13379 18.232C7.13464 14.3313 7.13464 10.4446 7.13464 6.51742Z" fill="currentColor"/>
<path d="M1.02881 18.2152C1.02881 14.3104 1.02881 10.4345 1.02881 6.52713C2.26454 6.52713 3.48417 6.52713 4.74107 6.52713C4.74107 10.4121 4.74107 14.298 4.74107 18.2152C3.5189 18.2152 2.29926 18.2152 1.02881 18.2152Z" fill="currentColor"/>
<path d="M5.06406 2.76211C5.06915 3.94142 4.09767 4.89511 2.89074 4.89511C1.7016 4.89511 0.735207 3.95795 0.727585 2.796C0.719962 1.60595 1.67111 0.652252 2.87634 0.643162C4.07989 0.634071 5.05814 1.58198 5.06406 2.76211Z" fill="currentColor"/>
</svg>
