<svg width="22" height="15" viewBox="0 0 22 15" fill="none" xmlns="http://www.w3.org/2000/svg">
<path d="M21.0503 2.69779C20.9314 2.28046 20.6979 1.89994 20.3734 1.5944C20.049 1.28886 19.6448 1.06906 19.2016 0.957054C17.5724 0.545286 11.0314 0.545288 11.0314 0.545288C11.0314 0.545288 4.49034 0.545286 2.85931 0.957054C2.4166 1.07004 2.01301 1.29017 1.68867 1.59555C1.36433 1.90094 1.13055 2.28095 1.01055 2.69779C0.573234 4.23352 0.573242 7.43754 0.573242 7.43754C0.573242 7.43754 0.573234 10.6416 1.01055 12.1773C1.13055 12.5941 1.36433 12.9741 1.68867 13.2795C2.01301 13.5849 2.4166 13.805 2.85931 13.918C4.49034 14.3298 11.0314 14.3298 11.0314 14.3298C11.0314 14.3298 17.5706 14.3298 19.2016 13.918C19.6448 13.806 20.049 13.5862 20.3734 13.2807C20.6979 12.9751 20.9314 12.5946 21.0503 12.1773C21.4877 10.6416 21.4877 7.43754 21.4877 7.43754C21.4877 7.43754 21.4877 4.23352 21.0503 2.69779ZM8.93863 10.3906V4.48448L14.3817 7.43754L8.93863 10.3906Z" fill="currentColor"/>
</svg>
