<svg width="332" height="324" viewBox="0 0 332 324" fill="none" xmlns="http://www.w3.org/2000/svg">
    <path d="M289.648 99.6245C288.362 99.6245 286.096 100.574 285.013 104.914C282.781 115.528 278.315 124.751 271.076 132.991C262.687 142.384 254.501 152.116 250.408 164.492C249.156 168.46 247.938 173.716 241.883 172.936C238.636 172.495 236.843 166.934 238.433 160.728C240.225 153.947 242.966 147.538 244.995 140.892C246.348 136.585 248.074 132.008 248.04 127.599C248.074 117.223 242.83 113.663 233.088 116.782C224.056 119.665 215.024 122.852 206.093 126.209C191.277 131.906 154.303 147.131 145.44 149.199C140.941 150.251 138.336 148.792 137.186 146.419C135.969 143.943 137.998 139.942 142.734 137.806C146.692 136.009 195.776 113.832 198.414 111.832C199.801 110.848 200.579 108.983 199.768 107.729C198.584 105.898 192.495 107.424 189.45 108.509C175.445 113.968 139.554 127.328 133.195 128.82C130.049 129.566 126.801 129.261 125.245 126.107C124.264 124.073 124.873 121.767 127.342 119.902C129.372 118.376 173.01 99.9297 186.101 93.86C189.585 92.2323 192.258 88.9432 191.209 86.5017C190.127 83.9247 186.236 85.9253 184.139 86.6374C175.209 89.5196 145.542 100.913 139.148 102.88C135.969 103.863 130.658 104.643 129.203 100.201C128.019 96.5727 132.383 94.8433 135.461 93.1818C139.926 90.7743 169.762 78.0245 180.655 73.9893C183.666 72.8025 186.609 68.9369 185.797 65.8512C184.917 62.4264 174.6 65.2408 166.38 67.3432C163.031 68.1909 156.062 70.7341 152.679 70.9036C150.176 71.1749 148.485 69.7168 147.977 68.5639C146.59 65.2408 149.973 62.5281 155.453 60.2223C164.993 56.221 172.942 53.9491 181.873 51.1686C193.104 47.7099 200.613 46.5231 211.607 42.5896C220.233 39.47 224.597 36.2148 225.274 24.5501C225.274 18.1752 225.274 12.5124 225.274 8.23986C225.24 4.10297 225.206 0.712088 225.206 0H102.716V99.5567H0.0150345C-0.0187932 139.23 0.0150345 218.238 0.0150345 222.409C0.116518 222.409 0.285658 222.409 0.387141 222.409C14.2565 222.375 26.5698 222.409 42.2996 222.409C43.5851 222.409 45.8516 221.459 46.934 217.119C49.1667 206.506 53.6319 197.282 60.8711 189.042C69.2603 179.65 77.4466 169.918 81.5398 157.541C82.7914 153.574 84.0092 148.318 90.0643 149.098C93.3118 149.538 95.1047 155.1 93.5148 161.305C91.7219 168.087 88.9819 174.495 86.9184 181.142C85.5653 185.448 83.8401 190.026 83.8739 194.434C83.8401 204.81 89.0833 208.37 98.8257 205.251C107.858 202.369 116.89 199.181 125.82 195.824C140.637 190.127 177.61 174.902 186.473 172.834C190.972 171.783 193.577 173.241 194.727 175.614C195.945 178.09 193.915 182.091 189.179 184.227C185.222 186.025 136.138 208.201 133.499 210.202C132.112 211.185 131.334 213.05 132.146 214.305C133.33 216.136 139.419 214.61 142.463 213.525C156.468 208.065 192.359 194.705 198.719 193.213C201.865 192.467 205.112 192.772 206.668 195.926C207.649 197.96 207.041 200.266 204.571 202.131C202.541 203.657 158.904 222.104 145.812 228.173C142.328 229.801 139.656 233.09 140.704 235.532C141.787 238.109 145.677 236.108 147.774 235.396C156.705 232.514 186.372 221.12 192.765 219.154C195.945 218.17 201.256 217.39 202.711 221.832C203.895 225.461 199.531 227.19 196.452 228.852C191.987 231.259 162.151 244.009 151.259 248.044C148.248 249.231 145.305 253.096 146.117 256.182C146.996 259.607 157.314 256.793 165.534 254.69C168.883 253.842 175.851 251.299 179.234 251.13C181.737 250.858 183.429 252.317 183.936 253.469C185.323 256.793 181.94 259.505 176.46 261.811C166.921 265.812 158.971 268.084 150.041 270.865C138.81 274.323 127.444 277.443 116.45 281.376C106.944 284.835 102.581 288.396 102.716 303.282C102.784 310.776 102.885 322.542 102.885 324H225.274C225.274 321.66 225.274 258.929 225.274 222.375H332V99.6245C331.932 99.6245 331.797 99.6245 331.729 99.6245C317.759 99.6584 305.445 99.6245 289.648 99.6245Z" fill="#D35357" fill-opacity="0.3"/>
</svg>
