<svg width="362" height="476" viewBox="0 0 362 476" fill="none" xmlns="http://www.w3.org/2000/svg">
<path d="M193.801 397.836C193.801 397.836 199.187 393.083 198.237 356.014C196.969 298.035 186.514 224.53 186.514 224.53H186.197L98.1187 225.798C98.1187 225.798 95.2673 235.619 91.7821 255.263L91.4653 255.58C92.7326 257.797 93.3663 260.332 93.0495 263.817H93.3663C100.02 266.035 104.772 269.52 107.94 273.639V273.322C113.327 268.886 119.346 264.768 126 261.282C126.317 253.679 128.534 245.758 132.019 237.52C135.821 244.491 139.307 246.075 138.99 251.778C144.059 249.56 148.495 253.995 155.148 255.58C148.811 261.916 140.257 263.817 132.97 266.352C132.336 269.837 131.386 273.639 130.435 277.758L132.019 276.49C132.019 276.49 135.188 274.589 136.138 276.49C137.089 278.391 132.336 283.777 128.851 283.461H128.534C126 290.431 122.831 297.084 117.762 303.104C117.762 303.104 118.079 303.104 118.396 303.104L104.138 391.816C96.2177 393.083 87.9802 393.717 80.0594 394.034L80.3763 400.371V401.004C79.7426 401.004 79.4258 401.004 79.4258 401.004C79.4258 401.004 77.8416 403.222 78.4753 405.757C79.109 407.974 80.3763 411.143 79.7426 412.093C79.109 413.044 81.3268 414.945 88.6138 413.677C95.9009 412.093 107.624 414.628 109.208 416.529C110.792 418.43 114.277 413.677 114.277 411.46C113.96 409.242 114.277 407.341 115.544 406.39C115.861 406.073 115.228 405.44 114.277 404.806L113.96 404.489C113.96 404.489 144.376 324.648 139.623 267.302L145.96 267.936C144.376 340.173 160.217 397.202 160.217 397.202L160.534 397.836C159.584 397.836 158.95 397.836 158.633 397.836C156.098 397.836 160.217 404.489 160.217 406.073C160.217 407.974 159.584 412.41 162.752 411.46C165.92 410.509 177.326 412.093 181.128 410.826C184.93 409.559 190.95 412.41 192.851 411.143C194.752 410.192 196.336 400.371 193.801 397.836Z" fill="#1E1E1E"/>
<path d="M304.374 202.671C304.374 202.671 306.591 197.919 303.423 190.315C302.156 187.147 300.572 184.929 296.77 183.662C294.869 183.028 291.067 183.028 291.067 183.028C291.067 183.028 287.265 181.444 284.097 181.761C278.077 182.394 272.057 185.563 268.255 190.632C262.869 198.236 265.404 203.939 267.305 209.325C267.305 209.325 271.423 208.374 272.691 212.176C272.691 212.176 275.859 214.711 275.225 211.543C275.225 211.543 273.958 202.671 274.908 201.404C275.859 200.137 291.7 198.236 292.651 193.8C292.651 193.8 296.77 198.553 299.304 199.186C303.423 200.137 304.374 201.404 304.374 202.671Z" fill="#1E1E1E"/>
<path d="M273.008 220.729C276.493 230.55 286.315 231.501 291.068 231.818C293.602 231.818 298.038 232.134 303.424 216.61C305.008 212.491 302.157 208.689 304.374 202.353" stroke="#1E1E1E" stroke-miterlimit="10" stroke-linecap="round" stroke-linejoin="round"/>
<path d="M285.364 369.323L285.047 374.075C283.146 398.154 279.027 411.778 277.443 431.738C276.809 443.777 287.582 450.431 291.383 453.282C291.383 453.282 293.918 453.916 295.502 454.233C297.086 454.55 298.987 455.183 299.621 456.134C300.255 457.401 299.304 458.352 298.354 458.035C298.354 458.035 298.987 458.985 298.354 459.619C297.72 460.253 296.453 459.619 296.453 459.619C296.453 459.619 297.086 460.886 296.453 461.203C295.819 461.52 295.185 461.52 294.869 461.203C294.869 461.203 295.185 461.837 294.552 462.154C293.918 462.47 292.017 462.47 291.383 462.154C290.433 461.837 288.532 461.837 288.532 461.837C283.146 461.52 278.077 459.619 272.057 456.134C259.384 452.966 260.968 449.164 263.502 439.342C267.621 423.5 264.136 379.461 263.819 368.372" stroke="#1E1E1E" stroke-miterlimit="10" stroke-linecap="round" stroke-linejoin="round"/>
<path d="M293.92 456.451C293.92 456.451 297.722 457.085 298.672 458.352" stroke="#1E1E1E" stroke-miterlimit="10" stroke-linecap="round" stroke-linejoin="round"/>
<path d="M292.335 458.354C292.335 458.354 297.087 459.304 297.087 460.254" stroke="#1E1E1E" stroke-miterlimit="10" stroke-linecap="round" stroke-linejoin="round"/>
<path d="M290.117 459.938C290.117 459.938 294.87 460.888 295.186 461.838" stroke="#1E1E1E" stroke-miterlimit="10" stroke-linecap="round" stroke-linejoin="round"/>
<path d="M317.048 366.788C318.315 391.818 315.464 409.56 316.414 428.887C317.365 440.926 329.087 445.995 333.206 448.53C333.206 448.53 335.424 449.797 337.008 450.114C339.543 451.065 339.543 452.332 338.909 452.649C338.909 452.649 340.493 454.867 338.275 454.867C338.275 454.867 339.226 457.718 336.374 457.084C336.374 457.084 337.959 459.936 334.79 459.619C332.889 459.619 330.672 457.718 329.721 457.718C325.285 457.718 321.8 452.966 314.513 452.332C301.523 450.748 303.107 448.53 304.375 438.708C306.593 422.233 304.692 421.6 298.355 381.679C297.088 375.343 297.721 376.293 295.82 369.006" stroke="#1E1E1E" stroke-miterlimit="10" stroke-linecap="round" stroke-linejoin="round"/>
<path d="M255.265 368.373C265.404 370.591 278.711 369.324 287.899 368.373L289.8 337.958L291.701 369.007C304.374 369.324 311.027 368.056 321.166 364.571C320.215 353.165 314.512 322.75 312.611 311.978C294.869 315.779 279.344 314.195 261.919 312.611L259.384 325.918C259.384 325.918 254.315 358.551 255.265 368.373Z" fill="#1E1E1E"/>
<path d="M261.919 306.591C261.919 311.66 262.236 309.759 261.919 312.611" stroke="#1E1E1E" stroke-miterlimit="10" stroke-linecap="round" stroke-linejoin="round"/>
<path d="M313.563 311.661C312.929 305.641 311.028 292.334 310.077 275.859C310.711 260.968 304.058 245.126 307.86 236.572C307.86 236.572 303.424 234.988 295.82 234.988C294.553 234.988 293.286 234.037 292.652 233.087" stroke="#1E1E1E" stroke-miterlimit="10" stroke-linecap="round" stroke-linejoin="round"/>
<path d="M293.603 233.721C293.603 233.721 290.118 240.374 286.633 241.008C283.147 241.641 275.227 237.523 273.326 233.721" stroke="#1E1E1E" stroke-miterlimit="10" stroke-linecap="round" stroke-linejoin="round"/>
<path d="M286.631 241.323C286.631 241.323 285.364 241.006 285.047 242.907C285.047 244.808 286.948 244.808 287.265 244.174C287.581 243.54 287.265 242.907 287.265 242.907" stroke="#1E1E1E" stroke-miterlimit="10" stroke-linecap="round" stroke-linejoin="round"/>
<path d="M301.523 279.025C305.959 284.411 310.394 289.798 314.196 294.867C314.196 294.867 352.216 342.708 355.701 349.361" stroke="#1E1E1E" stroke-miterlimit="10" stroke-linecap="round" stroke-linejoin="round"/>
<path d="M183.662 166.552C227.701 199.502 264.453 235.937 292.334 268.254" stroke="#1E1E1E" stroke-miterlimit="10" stroke-linecap="round" stroke-linejoin="round"/>
<path d="M9.09033 79.7432C33.1694 86.0798 55.9811 94.3173 77.8423 103.822" stroke="#1E1E1E" stroke-miterlimit="10" stroke-linecap="round" stroke-linejoin="round"/>
<path d="M73.7235 118.396C68.0206 113.961 62.9513 106.99 58.5157 96.5351C58.5157 96.5351 26.1991 113.327 9.09033 79.7432" stroke="#1E1E1E" stroke-miterlimit="10" stroke-linecap="round" stroke-linejoin="round"/>
<path d="M224.534 210.593C224.534 210.593 201.722 208.058 184.93 188.415" stroke="#1E1E1E" stroke-miterlimit="10" stroke-linecap="round" stroke-linejoin="round"/>
<path d="M260.335 237.204C254.632 239.422 246.711 250.511 247.345 267.303C247.028 290.115 245.444 291.065 246.077 305.006C246.077 305.006 248.929 316.095 268.572 302.788C288.216 289.481 287.265 287.263 296.136 283.778C300.572 282.194 303.107 278.075 302.156 275.224C300.255 268.887 301.839 266.669 294.869 266.669C292.651 266.669 291.701 269.204 290.433 270.471C290.433 269.838 290.117 268.887 290.433 267.62C292.018 261.283 288.216 261.283 288.216 261.283C288.216 261.283 285.681 264.768 285.047 268.887C284.414 271.105 285.047 276.174 284.731 277.758C280.929 281.56 264.77 289.164 258.117 292.016" stroke="#1E1E1E" stroke-miterlimit="10" stroke-linecap="round" stroke-linejoin="round"/>
<path d="M298.355 234.988C297.088 257.483 279.979 258.116 271.425 234.671L260.652 236.889C264.137 244.493 266.989 255.898 263.821 259.384C263.504 264.77 262.236 272.69 262.236 281.562C262.236 281.562 261.92 285.68 261.92 290.75" stroke="#1E1E1E" stroke-miterlimit="10" stroke-linecap="round" stroke-linejoin="round"/>
<path d="M288.849 184.294C288.849 184.294 284.097 183.978 280.929 185.562" stroke="white" stroke-miterlimit="10" stroke-linecap="round" stroke-linejoin="round"/>
<path d="M288.849 186.196C288.849 186.196 286.632 186.513 285.681 187.147" stroke="white" stroke-miterlimit="10" stroke-linecap="round" stroke-linejoin="round"/>
<path d="M292.967 185.562C292.967 185.562 296.452 185.879 297.403 187.463" stroke="white" stroke-miterlimit="10" stroke-linecap="round" stroke-linejoin="round"/>
<path d="M355.068 220.414C355.068 220.414 352.216 229.285 350.949 232.137" stroke="#1E1E1E" stroke-miterlimit="10" stroke-linecap="round" stroke-linejoin="round"/>
<path d="M357.601 221.681C357.601 221.681 354.75 230.552 353.482 233.403" stroke="#1E1E1E" stroke-miterlimit="10" stroke-linecap="round" stroke-linejoin="round"/>
<path d="M359.503 224.215C359.503 224.215 358.553 228.334 356.018 234.67" stroke="#1E1E1E" stroke-miterlimit="10" stroke-linecap="round" stroke-linejoin="round"/>
<path d="M290.117 218.514C290.751 219.147 291.701 218.514 292.335 218.514C293.285 218.514 294.236 218.197 294.553 217.246C294.87 215.979 291.701 214.078 292.335 209.009" stroke="#1E1E1E" stroke-miterlimit="10" stroke-linecap="round" stroke-linejoin="round"/>
<path d="M279.028 206.157C279.028 206.157 282.83 203.623 287.899 205.84" stroke="#1E1E1E" stroke-miterlimit="10" stroke-linecap="round" stroke-linejoin="round"/>
<path d="M293.285 205.841C293.285 205.841 297.404 203.623 301.206 205.524" stroke="#1E1E1E" stroke-miterlimit="10" stroke-linecap="round" stroke-linejoin="round"/>
<path d="M308.493 433.639C308.493 433.639 307.859 436.49 307.226 438.391C306.592 440.292 309.127 440.609 309.444 442.51" stroke="#1E1E1E" stroke-miterlimit="10" stroke-linecap="round" stroke-linejoin="round"/>
<path d="M268.889 437.126C268.889 437.126 268.255 441.245 267.305 441.878C266.038 442.829 266.671 445.364 268.572 445.997" stroke="#1E1E1E" stroke-miterlimit="10" stroke-linecap="round" stroke-linejoin="round"/>
<path d="M189.365 411.46L189.682 433.638C190.95 449.796 209.643 453.281 213.444 455.816C214.395 456.45 215.345 457.4 215.979 458.034C215.979 458.034 220.098 459.935 221.365 460.252C222.633 460.568 222.949 462.469 221.999 463.42C221.999 463.42 223.266 465.321 222.633 466.271C221.999 467.222 221.365 467.539 221.365 467.539C221.365 467.539 221.048 470.073 219.147 470.073C219.147 470.073 219.464 471.974 217.246 472.608C214.712 473.242 208.375 470.073 206.791 469.44C201.088 469.123 195.385 467.856 188.098 464.687C170.673 462.469 170.673 460.252 172.573 446.945C174.158 436.489 171.94 425.717 169.088 411.777" stroke="#1E1E1E" stroke-miterlimit="10" stroke-linecap="round" stroke-linejoin="round"/>
<path d="M218.198 461.521C219.782 462.155 222 462.789 222.317 464.056" stroke="#1E1E1E" stroke-miterlimit="10" stroke-linecap="round" stroke-linejoin="round"/>
<path d="M215.029 464.056C215.029 464.056 220.732 465.323 221.049 466.907" stroke="#1E1E1E" stroke-miterlimit="10" stroke-linecap="round" stroke-linejoin="round"/>
<path d="M213.127 466.59C213.127 466.59 218.197 467.857 219.147 469.441" stroke="#1E1E1E" stroke-miterlimit="10" stroke-linecap="round" stroke-linejoin="round"/>
<path d="M86.712 414.312C86.3952 420.332 87.3457 427.303 87.0289 433.005C85.7616 449.164 66.435 455.5 62.633 458.035C61.6825 458.669 60.732 459.302 59.7816 459.619C59.7816 459.619 56.2964 461.203 55.3459 461.52C54.0786 461.837 52.4945 463.421 53.7618 465.322C53.7618 465.322 52.8113 466.589 53.1281 467.54C53.7618 468.807 55.0291 468.49 55.0291 468.49C55.0291 468.49 54.3955 470.074 55.6628 470.708C56.9301 471.659 59.4647 471.025 59.4647 471.025C59.4647 471.025 58.1974 471.975 59.1479 473.876C60.0984 475.777 63.5835 474.827 65.4845 474.193C67.3855 473.243 71.5042 469.758 74.0389 469.758C78.1577 468.49 82.9101 466.589 87.9794 464.372C105.405 462.154 107.306 459.302 105.405 445.995C104.138 436.807 106.672 426.669 108.573 415.58" stroke="#1E1E1E" stroke-miterlimit="10" stroke-linecap="round" stroke-linejoin="round"/>
<path d="M53.7612 465.323C53.7612 465.323 56.9295 463.105 59.1473 463.105" stroke="#1E1E1E" stroke-miterlimit="10" stroke-linecap="round" stroke-linejoin="round"/>
<path d="M55.0303 468.174C55.0303 468.174 57.8817 465.64 60.7332 465.006" stroke="#1E1E1E" stroke-miterlimit="10" stroke-linecap="round" stroke-linejoin="round"/>
<path d="M58.8311 471.027C58.8311 471.027 61.6825 468.492 64.534 467.858" stroke="#1E1E1E" stroke-miterlimit="10" stroke-linecap="round" stroke-linejoin="round"/>
<path d="M119.98 39.8192C118.712 39.1855 115.861 41.0865 115.227 42.6706C114.277 45.5221 116.811 53.126 122.831 55.027C136.138 77.8387 149.445 76.8882 153.563 75.6209C161.484 73.4031 164.969 68.3338 167.187 57.5616C169.088 48.6904 169.405 42.3538 167.187 40.136C166.237 39.1855 165.603 28.0965 163.702 22.3936" stroke="#1E1E1E" stroke-miterlimit="10" stroke-linecap="round" stroke-linejoin="round"/>
<path d="M166.236 33.8008C173.523 30.9494 180.493 27.1474 181.761 23.9791C182.711 21.7613 182.078 20.1772 181.761 19.8604C181.761 19.5435 181.761 19.5435 181.761 19.2267C181.444 18.2762 180.494 17.6425 179.543 17.6425C178.593 17.6425 177.325 17.6425 175.424 17.6425C172.573 17.6425 163.702 17.9594 163.702 17.9594L155.464 3.38522C154.514 1.80108 152.929 0.850586 151.028 0.850586C146.593 0.850586 138.672 1.16742 134.553 1.80108C130.751 2.75157 126.633 4.01888 121.563 5.91986C117.444 7.504 110.791 10.9891 108.256 12.8901C106.355 14.4743 105.405 17.0089 106.039 19.5435L108.89 36.3355C104.138 39.8206 100.653 47.4245 99.0684 52.8106C97.4842 59.1472 99.3852 59.1472 99.3852 59.1472" stroke="#1E1E1E" stroke-miterlimit="10" stroke-linecap="round" stroke-linejoin="round"/>
<path d="M228.336 97.7986C233.405 99.3828 237.207 100.967 241.643 101.917L268.573 60.7296C266.989 49.9574 270.791 41.7198 269.523 33.7991C269.523 32.2149 272.058 29.9971 274.276 31.8981L276.811 40.7693L287.9 24.9279C292.335 21.1259 298.672 21.4427 298.355 32.2149C298.355 38.8684 297.088 48.6901 281.563 65.1652L254.949 123.145C250.831 131.383 236.89 125.363 222.316 122.511" stroke="#1E1E1E" stroke-miterlimit="10" stroke-linecap="round" stroke-linejoin="round"/>
<path d="M99.7029 118.393L94 225.481L186.831 224.214C186.831 224.214 183.98 173.521 183.029 155.462C182.712 147.541 181.128 119.977 181.128 119.977C181.128 119.977 196.653 123.146 202.039 124.096C206.474 125.047 217.88 129.482 217.88 129.482C217.88 129.482 221.999 124.73 225.801 113.957C229.603 102.868 228.969 97.4824 228.969 97.4824C186.197 82.2746 163.702 80.6904 152.93 81.0072" stroke="#1E1E1E" stroke-miterlimit="10" stroke-linecap="round" stroke-linejoin="round"/>
<path d="M118.395 79.1074C118.395 79.1074 101.286 80.6916 84.1776 91.7806C76.2569 96.8499 68.653 142.156 67.0688 157.364C67.0688 157.364 75.6232 159.582 82.9103 160.533C91.7815 161.483 97.4845 159.265 97.4845 159.265" stroke="#1E1E1E" stroke-miterlimit="10" stroke-linecap="round" stroke-linejoin="round"/>
<path d="M194.117 397.521C194.117 397.521 199.503 392.768 198.552 355.699C197.285 297.719 186.83 224.215 186.83 224.215" stroke="#1E1E1E" stroke-miterlimit="10" stroke-linecap="round" stroke-linejoin="round"/>
<path d="M114.276 404.174C114.276 404.174 144.691 324.333 139.939 266.987L146.276 267.621C144.375 339.541 160.216 396.571 160.216 396.571" stroke="#1E1E1E" stroke-miterlimit="10" stroke-linecap="round" stroke-linejoin="round"/>
<path d="M80.3765 393.719C80.6933 398.788 81.0101 400.055 81.0101 400.055" stroke="#1E1E1E" stroke-miterlimit="10" stroke-linecap="round" stroke-linejoin="round"/>
<path d="M88.6134 274.272C87.0293 283.461 85.7619 293.599 84.4946 305.005" stroke="#1E1E1E" stroke-miterlimit="10" stroke-linecap="round" stroke-linejoin="round"/>
<path d="M98.4342 225.483C98.4342 225.483 95.5828 235.305 92.0977 254.949" stroke="#1E1E1E" stroke-miterlimit="10" stroke-linecap="round" stroke-linejoin="round"/>
<path d="M105.406 275.858C96.5343 284.096 90.5145 293.601 87.6631 304.373" stroke="#1E1E1E" stroke-miterlimit="10" stroke-linecap="round" stroke-linejoin="round"/>
<path d="M132.019 276.493C133.286 272.375 132.97 270.157 133.603 266.355C140.89 263.82 149.445 261.919 155.781 255.583C149.128 253.999 144.692 249.563 139.623 251.781C139.94 246.078 136.455 244.494 132.653 237.523C129.168 245.444 126.95 253.365 126.633 261.286C119.98 264.771 113.96 268.89 108.574 273.325" stroke="#1E1E1E" stroke-miterlimit="10" stroke-linecap="round" stroke-linejoin="round"/>
<path d="M118.396 303.106C123.465 297.086 126.95 291.7 129.168 284.413" stroke="#1E1E1E" stroke-miterlimit="10" stroke-linecap="round" stroke-linejoin="round"/>
<path d="M118.079 302.789C116.495 288.215 113.643 266.988 87.0297 261.602C87.0297 261.602 84.1783 262.552 86.0792 265.087C86.0792 265.087 101.287 268.572 107.307 278.077C109.841 282.512 113.327 287.898 114.911 302.789" stroke="#1E1E1E" stroke-miterlimit="10" stroke-linecap="round" stroke-linejoin="round"/>
<path d="M40.1387 279.347C43.6238 274.278 47.7426 270.159 54.396 267.308" stroke="#1E1E1E" stroke-miterlimit="10" stroke-linecap="round" stroke-linejoin="round"/>
<path d="M30.6339 302.474C23.6637 290.435 17.3271 278.395 15.4261 269.524C8.45589 266.356 3.38662 262.87 0.535156 258.752C4.65394 258.118 9.08955 259.069 14.4756 261.603C14.1588 257.484 15.743 252.732 18.2776 247.979C21.1291 253.999 22.0795 259.385 20.8122 264.138C35.3864 273.643 48.0596 287.583 59.4654 304.692C57.5644 292.652 56.6139 281.563 58.1981 272.375C54.3961 267.623 51.2278 262.237 49.01 256.217C53.1288 257.484 57.2476 260.019 61.6832 263.187C62.3169 259.702 64.8515 255.267 68.0198 250.514C68.9703 257.484 69.2871 263.821 68.6535 269.524C79.1088 281.88 81.0098 295.821 82.2771 304.692" stroke="#1E1E1E" stroke-miterlimit="10" stroke-linecap="round" stroke-linejoin="round"/>
<path d="M29.9995 303.107L45.2073 391.82C64.8507 394.671 84.811 394.671 104.771 391.82L119.029 303.107C89.5634 305.642 59.7815 305.642 29.9995 303.107Z" stroke="#1E1E1E" stroke-miterlimit="10" stroke-linecap="round" stroke-linejoin="round"/>
<path d="M44.8916 383.58C64.535 386.432 84.4953 386.432 104.456 383.58" stroke="#1E1E1E" stroke-miterlimit="10" stroke-linecap="round" stroke-linejoin="round"/>
<path d="M93.3658 263.503C94.3162 253.998 87.6628 252.097 86.3955 245.76L93.9994 177.325L95.2667 159.899" stroke="#1E1E1E" stroke-miterlimit="10" stroke-linecap="round" stroke-linejoin="round"/>
<path d="M72.4557 158.315L70.8715 176.058C67.7033 202.672 74.3567 243.859 72.1389 251.78C69.2874 261.919 69.6042 268.572 69.6042 268.572C69.6042 268.572 69.9211 273.324 73.723 274.275C73.723 274.275 75.624 274.592 75.9408 273.958C75.9408 273.958 76.5745 275.225 79.1091 275.225C81.6437 275.225 82.5942 274.275 82.5942 274.275C82.5942 274.275 88.9308 276.176 89.8813 273.008C89.8813 273.008 96.2179 275.859 94.3169 268.889" stroke="#1E1E1E" stroke-miterlimit="10" stroke-linecap="round" stroke-linejoin="round"/>
<path d="M83.8604 269.205C83.8604 269.205 83.8603 271.106 89.5633 272.373" stroke="#1E1E1E" stroke-miterlimit="10" stroke-linecap="round" stroke-linejoin="round"/>
<path d="M82.593 273.959C79.4247 272.374 79.1079 269.84 79.1079 269.84" stroke="#1E1E1E" stroke-miterlimit="10" stroke-linecap="round" stroke-linejoin="round"/>
<path d="M74.3555 269.521C74.3555 269.521 74.3555 271.738 75.9396 273.639" stroke="#1E1E1E" stroke-miterlimit="10" stroke-linecap="round" stroke-linejoin="round"/>
<path d="M292.334 23.0283C292.334 23.0283 288.532 32.85 283.463 39.1866" stroke="#1E1E1E" stroke-miterlimit="10"/>
<path d="M296.136 25.2461C296.136 25.2461 292.334 35.0678 287.265 41.4044" stroke="#1E1E1E" stroke-miterlimit="10"/>
<path d="M298.038 29.999C298.038 29.999 294.553 39.1871 289.484 45.5237" stroke="#1E1E1E" stroke-miterlimit="10"/>
<path d="M154.197 53.4458C157.682 53.129 158.316 53.129 158.316 49.6439C158.316 47.4261 155.465 45.2083 155.148 43.3073C154.831 39.1885 154.197 36.9707 154.197 36.9707" stroke="#1E1E1E" stroke-miterlimit="10" stroke-linecap="round" stroke-linejoin="round"/>
<path d="M145.01 61.6818C149.129 62.6323 155.782 62.3155 159.267 60.0977" stroke="#1E1E1E" stroke-miterlimit="10" stroke-linecap="round" stroke-linejoin="round"/>
<path d="M333.523 452.967C333.523 452.967 336.691 453.6 337.959 454.551" stroke="#1E1E1E" stroke-miterlimit="10" stroke-linecap="round" stroke-linejoin="round"/>
<path d="M334.79 451.063C334.79 451.063 337.008 451.697 338.592 452.648" stroke="#1E1E1E" stroke-miterlimit="10" stroke-linecap="round" stroke-linejoin="round"/>
<path d="M331.938 454.867C331.938 454.867 335.74 456.134 336.057 457.085" stroke="#1E1E1E" stroke-miterlimit="10" stroke-linecap="round" stroke-linejoin="round"/>
<path d="M308.176 236.573C308.176 236.573 316.097 237.524 325.602 270.157" stroke="#1E1E1E" stroke-miterlimit="10" stroke-linecap="round" stroke-linejoin="round"/>
<path d="M310.393 268.571C310.393 268.571 317.363 288.532 325.601 290.116C330.353 291.066 344.611 267.304 351.898 246.71C351.898 246.71 354.116 243.859 355.7 241.958C359.502 237.839 360.135 229.918 360.135 229.918C360.769 227.384 361.086 223.582 357.601 220.73C357.601 220.73 355.066 219.463 353.165 221.364C350.947 223.265 346.828 233.72 346.828 233.72L345.878 226.433C345.878 226.433 344.294 222.948 343.026 227.067C343.026 227.067 343.343 240.69 343.026 243.225C342.076 248.294 325.601 266.987 323.7 275.225" stroke="#1E1E1E" stroke-miterlimit="10" stroke-linecap="round" stroke-linejoin="round"/>
<path d="M273.96 219.147C273.96 219.147 273.009 221.682 270.158 220.098C267.306 218.514 263.821 209.959 266.989 209.009" stroke="#1E1E1E" stroke-miterlimit="10" stroke-linecap="round" stroke-linejoin="round"/>
<path d="M268.255 211.858C268.255 211.858 268.889 210.274 270.79 212.175C272.691 214.076 270.156 214.71 271.424 216.294" stroke="#1E1E1E" stroke-miterlimit="10" stroke-linecap="round" stroke-linejoin="round"/>
<path d="M271.423 234.67C271.423 234.67 274.908 234.67 275.542 226.115" stroke="#1E1E1E" stroke-miterlimit="10" stroke-linecap="round" stroke-linejoin="round"/>
<path d="M280.294 209.641C280.294 209.641 284.096 207.106 287.265 209.958" stroke="#1E1E1E" stroke-miterlimit="10" stroke-linecap="round" stroke-linejoin="round"/>
<path d="M283.462 208.689C283.462 208.689 282.512 209.957 283.462 210.59C284.413 211.224 285.047 210.274 284.73 209.006" stroke="#1E1E1E" stroke-miterlimit="10" stroke-linecap="round" stroke-linejoin="round"/>
<path d="M138.99 43.6226C138.99 43.6226 143.742 38.8702 148.811 41.7217" stroke="#1E1E1E" stroke-miterlimit="10" stroke-linecap="round" stroke-linejoin="round"/>
<path d="M143.109 41.4057C143.109 41.4057 142.475 43.6235 143.742 43.9403C145.01 44.2572 145.96 42.673 145.01 41.0889" stroke="#1E1E1E" stroke-miterlimit="10" stroke-linecap="round" stroke-linejoin="round"/>
<path d="M294.552 209.007C294.552 209.007 297.721 206.156 300.572 208.69" stroke="#1E1E1E" stroke-miterlimit="10" stroke-linecap="round" stroke-linejoin="round"/>
<path d="M297.088 208.059C297.088 208.059 296.454 209.326 297.405 209.643C298.355 209.96 298.672 208.375 298.355 208.375" stroke="#1E1E1E" stroke-miterlimit="10" stroke-linecap="round" stroke-linejoin="round"/>
<path d="M285.999 223.265C285.999 223.265 293.919 225.483 297.088 221.681" stroke="#1E1E1E" stroke-miterlimit="10" stroke-linecap="round" stroke-linejoin="round"/>
<path d="M287.266 220.414C287.266 220.414 285.048 223.582 284.415 223.899" stroke="#1E1E1E" stroke-miterlimit="10" stroke-linecap="round" stroke-linejoin="round"/>
<path d="M296.136 220.414C296.136 220.414 297.087 222.315 298.037 222.315" stroke="#1E1E1E" stroke-miterlimit="10" stroke-linecap="round" stroke-linejoin="round"/>
<path d="M289.167 225.165C289.167 225.165 293.286 227.7 295.504 224.215" stroke="#1E1E1E" stroke-miterlimit="10" stroke-linecap="round" stroke-linejoin="round"/>
<path d="M267.305 313.243C267.305 313.243 265.088 337.322 263.187 344.926C261.286 352.53 259.068 368.055 259.068 368.055" stroke="white" stroke-miterlimit="10" stroke-linecap="round" stroke-linejoin="round"/>
<path d="M272.057 313.562C272.057 313.562 269.206 342.393 268.255 347.462C267.305 352.532 263.503 368.69 263.503 368.69" stroke="white" stroke-miterlimit="10" stroke-linecap="round" stroke-linejoin="round"/>
<path d="M279.345 314.512C279.345 314.512 277.444 349.046 276.493 353.799C275.86 358.234 274.592 368.69 274.592 368.69" stroke="white" stroke-miterlimit="10" stroke-linecap="round" stroke-linejoin="round"/>
<path d="M285.048 314.512C285.048 314.512 283.147 348.729 282.513 353.482C281.88 358.234 281.246 368.69 281.246 368.69" stroke="white" stroke-miterlimit="10" stroke-linecap="round" stroke-linejoin="round"/>
<path d="M282.197 314.512C282.197 314.512 280.296 347.462 279.662 349.997C279.029 352.531 278.078 368.69 278.078 368.69" stroke="white" stroke-miterlimit="10" stroke-linecap="round" stroke-linejoin="round"/>
<path d="M269.84 313.562C269.84 313.562 266.988 338.274 266.671 340.809C266.038 343.343 264.454 353.165 263.82 355.066C263.186 356.967 261.602 368.69 261.602 368.69" stroke="white" stroke-miterlimit="10" stroke-linecap="round" stroke-linejoin="round"/>
<path d="M293.285 314.827C293.285 314.827 293.602 338.906 294.552 346.193C295.503 353.48 297.404 368.688 297.404 368.688" stroke="white" stroke-miterlimit="10" stroke-linecap="round" stroke-linejoin="round"/>
<path d="M298.354 314.512C298.354 314.512 298.354 337.323 299.622 344.927C300.889 352.848 302.156 368.373 302.156 368.373" stroke="white" stroke-miterlimit="10" stroke-linecap="round" stroke-linejoin="round"/>
<path d="M295.82 314.196C295.82 314.196 296.137 332.572 296.454 336.057C296.771 339.543 297.088 350.948 298.672 358.236C300.256 365.839 299.939 368.691 299.939 368.691" stroke="white" stroke-miterlimit="10" stroke-linecap="round" stroke-linejoin="round"/>
<path d="M305.008 313.243C305.008 313.243 306.592 334.154 307.543 338.906C308.493 343.659 311.345 366.787 311.345 366.787" stroke="white" stroke-miterlimit="10" stroke-linecap="round" stroke-linejoin="round"/>
<path d="M310.71 312.612C310.71 312.612 313.245 334.79 313.561 337.642C314.195 340.176 315.146 350.632 315.779 353.483C316.413 356.335 317.997 365.84 317.997 365.84" stroke="white" stroke-miterlimit="10" stroke-linecap="round" stroke-linejoin="round"/>
<path d="M308.176 312.928C308.176 312.928 308.81 330.353 310.077 334.472C311.028 338.591 312.612 350.947 312.612 353.482C312.612 356.017 314.513 366.155 314.513 366.155" stroke="white" stroke-miterlimit="10" stroke-linecap="round" stroke-linejoin="round"/>
<path d="M228.969 206.789C228.969 206.789 225.484 205.205 225.167 209.323C224.533 213.442 227.068 218.195 227.701 218.195C228.335 218.511 229.602 218.828 229.919 216.61C230.236 214.393 231.82 209.323 228.969 206.789Z" stroke="#1E1E1E" stroke-miterlimit="10" stroke-linecap="round" stroke-linejoin="round"/>
<path d="M230.871 211.225C230.871 211.225 234.039 211.542 235.623 209.958C235.623 209.958 233.405 214.71 238.791 213.126" stroke="#1E1E1E" stroke-miterlimit="10" stroke-linecap="round" stroke-linejoin="round"/>
<path d="M238.156 212.811C238.156 212.811 234.988 221.365 238.473 231.187C241.958 241.008 236.255 249.246 236.255 249.246" stroke="#1E1E1E" stroke-miterlimit="10" stroke-linecap="round" stroke-linejoin="round"/>
<path d="M225.801 213.759C225.801 213.759 228.019 212.809 230.236 214.076" stroke="#1E1E1E" stroke-miterlimit="10" stroke-linecap="round" stroke-linejoin="round"/>
<path d="M228.652 218.512C228.652 218.512 234.989 229.918 230.237 234.67C230.237 234.67 230.237 229.284 228.652 225.482C226.751 221.046 227.702 218.512 227.702 218.512" stroke="#1E1E1E" stroke-miterlimit="10" stroke-linecap="round" stroke-linejoin="round"/>
<path d="M226.751 217.878C226.751 217.878 225.167 221.046 226.118 225.165C227.385 230.868 223.9 235.937 223.9 235.937C223.9 235.937 228.652 234.987 229.286 228.967" stroke="#1E1E1E" stroke-miterlimit="10" stroke-linecap="round" stroke-linejoin="round"/>
<path d="M108.891 36.6539C108.891 36.6539 137.723 19.8619 163.069 17.9609" stroke="#1E1E1E" stroke-miterlimit="10" stroke-linecap="round" stroke-linejoin="round"/>
<path d="M108.257 30.6322C108.257 30.6322 134.87 13.5234 160.851 13.5234" stroke="#1E1E1E" stroke-miterlimit="10" stroke-linecap="round" stroke-linejoin="round"/>
<path d="M121.564 54.7119C122.514 56.6129 122.197 76.5731 118.079 79.1078" stroke="#1E1E1E" stroke-miterlimit="10" stroke-linecap="round" stroke-linejoin="round"/>
<path d="M153.247 75.9395C153.247 75.9395 152.297 83.8602 151.663 84.8107" stroke="#1E1E1E" stroke-miterlimit="10" stroke-linecap="round" stroke-linejoin="round"/>
<path d="M118.078 45.5228C118.078 45.5228 117.128 42.3545 119.979 42.3545C122.831 42.3545 121.563 45.8396 121.88 47.4238C122.197 49.0079 122.514 49.6416 122.514 49.6416" stroke="#1E1E1E" stroke-miterlimit="10" stroke-linecap="round" stroke-linejoin="round"/>
<path d="M182.079 22.3952C182.079 22.3952 181.762 19.2269 161.485 23.3457C141.208 27.1476 113.01 38.5535 105.406 48.0584C97.4855 57.5632 99.7033 59.781 99.7033 59.781C99.7033 59.781 106.357 64.8503 120.614 58.1969" stroke="#1E1E1E" stroke-miterlimit="10" stroke-linecap="round" stroke-linejoin="round"/>
<path d="M132.97 31.583C131.703 33.1672 132.02 33.8008 131.386 36.0186C130.119 42.9889 132.97 44.8898 131.069 46.474C129.168 48.0581 126 42.672 122.832 41.0879" stroke="#1E1E1E" stroke-miterlimit="10" stroke-linecap="round" stroke-linejoin="round"/>
<path d="M149.445 35.3847C149.445 35.3847 140.574 34.751 137.406 38.8698" stroke="#1E1E1E" stroke-miterlimit="10" stroke-linecap="round" stroke-linejoin="round"/>
<path d="M156.099 33.7991C158 32.5318 161.168 31.2645 164.336 32.8486" stroke="#1E1E1E" stroke-miterlimit="10" stroke-linecap="round" stroke-linejoin="round"/>
<path d="M148.495 64.2157C148.495 64.2157 154.832 66.1167 157.366 63.582" stroke="#1E1E1E" stroke-miterlimit="10" stroke-linecap="round" stroke-linejoin="round"/>
<path d="M141.523 43.9399C141.523 43.9399 144.058 44.8904 146.593 43.623" stroke="#1E1E1E" stroke-miterlimit="10" stroke-linecap="round" stroke-linejoin="round"/>
<path d="M156.416 40.453C157.049 39.1857 161.168 36.9679 164.336 39.5025" stroke="#1E1E1E" stroke-miterlimit="10" stroke-linecap="round" stroke-linejoin="round"/>
<path d="M159.265 39.1869C159.265 39.1869 158.632 41.4047 159.899 41.7216C161.166 42.0384 162.117 40.4543 161.166 38.8701" stroke="#1E1E1E" stroke-miterlimit="10" stroke-linecap="round" stroke-linejoin="round"/>
<path d="M158 41.7225C158 41.7225 160.851 42.673 163.069 41.0889" stroke="#1E1E1E" stroke-miterlimit="10" stroke-linecap="round" stroke-linejoin="round"/>
<path d="M114.91 79.7432C114.91 79.7432 131.068 91.149 145.009 107.307C145.009 107.307 157.365 89.8817 156.732 81.0105" stroke="#1E1E1E" stroke-miterlimit="10" stroke-linecap="round" stroke-linejoin="round"/>
<path d="M106.039 81.6415C106.039 81.6415 140.89 107.305 145.009 112.374C145.009 112.374 158.315 100.018 161.167 81.0078" stroke="#1E1E1E" stroke-miterlimit="10" stroke-linecap="round" stroke-linejoin="round"/>
<path d="M180.811 119.662C180.811 119.662 175.742 114.91 173.524 114.593" stroke="#1E1E1E" stroke-miterlimit="10" stroke-linecap="round" stroke-linejoin="round"/>
<path d="M179.861 111.106C179.861 111.106 181.762 117.443 182.079 119.344" stroke="#1E1E1E" stroke-miterlimit="10" stroke-linecap="round" stroke-linejoin="round"/>
<path d="M222.316 95.584C222.316 95.584 217.88 119.663 211.227 126.633" stroke="#1E1E1E" stroke-miterlimit="10" stroke-linecap="round" stroke-linejoin="round"/>
<path d="M286.631 264.452C286.631 264.452 287.898 264.768 288.849 264.135" stroke="#1E1E1E" stroke-miterlimit="10" stroke-linecap="round" stroke-linejoin="round"/>
<path d="M177.326 396.888C177.326 396.888 161.484 397.522 158.949 397.522C156.415 397.522 160.534 404.175 160.534 405.759C160.534 407.66 159.9 412.096 163.068 411.145C166.236 410.512 177.642 411.779 181.444 410.512C185.563 409.245 191.266 412.096 193.167 410.829C195.068 409.561 196.652 397.839 193.484 396.571C190.316 395.304 183.662 395.938 183.662 395.938" stroke="#1E1E1E" stroke-miterlimit="10" stroke-linecap="round" stroke-linejoin="round"/>
<path d="M94.6332 401.008C88.9303 399.424 80.0591 401.008 80.0591 401.008C80.0591 401.008 78.4749 403.226 79.1086 405.76C79.7423 408.295 81.0096 411.146 80.3759 412.097C79.7423 413.364 81.9601 414.948 89.2471 413.681C96.5342 412.097 108.257 414.631 109.841 416.532C111.425 418.433 114.91 413.681 114.91 411.463C114.593 409.245 114.91 407.344 116.178 406.394C117.445 405.443 110.475 402.275 105.722 401.958" stroke="#1E1E1E" stroke-miterlimit="10" stroke-linecap="round" stroke-linejoin="round"/>
<path d="M165.92 229.919C165.92 229.919 172.891 243.543 185.247 249.246" stroke="white" stroke-miterlimit="10" stroke-linecap="round" stroke-linejoin="round"/>
<path d="M122.832 230.236C122.832 230.236 118.079 248.612 99.0693 248.612" stroke="white" stroke-miterlimit="10" stroke-linecap="round" stroke-linejoin="round"/>
<path d="M91.1479 266.987C91.1479 266.987 91.4648 268.571 91.4648 269.522" stroke="#1E1E1E" stroke-miterlimit="10" stroke-linecap="round" stroke-linejoin="round"/>
<path d="M241.642 101.92C241.642 101.92 239.741 105.405 239.424 107.623" stroke="#1E1E1E" stroke-miterlimit="10" stroke-linecap="round" stroke-linejoin="round"/>
<path d="M179.86 442.194C179.86 442.194 179.543 446.63 178.276 447.897C176.692 449.481 179.86 451.699 179.86 452.65" stroke="#1E1E1E" stroke-miterlimit="10" stroke-linecap="round" stroke-linejoin="round"/>
<path d="M99.7026 439.659C99.7026 439.659 98.7521 444.412 99.7026 445.679C100.653 446.946 97.168 449.164 97.168 450.115" stroke="#1E1E1E" stroke-miterlimit="10" stroke-linecap="round" stroke-linejoin="round"/>
<path d="M41.7222 282.196C41.7222 282.196 49.6429 271.424 55.6627 269.84" stroke="#1E1E1E" stroke-miterlimit="10" stroke-linecap="round" stroke-linejoin="round"/>
<path d="M43.9415 300.255C43.9415 300.255 41.0901 297.403 41.7237 293.285C42.3574 289.166 48.694 297.403 49.0108 299.621" stroke="#1E1E1E" stroke-miterlimit="10" stroke-linecap="round" stroke-linejoin="round"/>
<path d="M28.0989 298.036C28.0989 298.036 22.396 294.551 19.5445 293.6C16.6931 292.65 21.4455 289.798 23.6633 290.432" stroke="#1E1E1E" stroke-miterlimit="10" stroke-linecap="round" stroke-linejoin="round"/>
<path d="M61.0498 287.265C61.0498 287.265 62.0003 284.097 65.1686 286.314" stroke="#1E1E1E" stroke-miterlimit="10" stroke-linecap="round" stroke-linejoin="round"/>
<path d="M66.7524 279.344C66.7524 279.344 67.7029 276.176 70.8712 278.393" stroke="#1E1E1E" stroke-miterlimit="10" stroke-linecap="round" stroke-linejoin="round"/>
<path d="M69.2876 289.482C69.2876 289.482 70.5549 286.313 73.4064 288.848" stroke="#1E1E1E" stroke-miterlimit="10" stroke-linecap="round" stroke-linejoin="round"/>
<path d="M63.2661 298.036C63.2661 298.036 63.5829 294.55 67.0681 296.135" stroke="#1E1E1E" stroke-miterlimit="10" stroke-linecap="round" stroke-linejoin="round"/>
<path d="M54.0791 258.432C54.0791 258.432 56.6137 266.036 59.1484 268.57" stroke="#1E1E1E" stroke-miterlimit="10" stroke-linecap="round" stroke-linejoin="round"/>
<path d="M58.8311 261.284C58.8311 261.284 60.0984 268.254 61.6825 268.888" stroke="#1E1E1E" stroke-miterlimit="10" stroke-linecap="round" stroke-linejoin="round"/>
<path d="M62.6338 260.016C62.6338 260.016 64.8516 265.402 64.8516 266.669" stroke="#1E1E1E" stroke-miterlimit="10" stroke-linecap="round" stroke-linejoin="round"/>
<path d="M64.8501 255.264C64.8501 255.264 66.4342 260.65 66.4342 263.818" stroke="#1E1E1E" stroke-miterlimit="10" stroke-linecap="round" stroke-linejoin="round"/>
<path d="M16.377 251.779C16.377 251.779 18.5948 255.264 18.5948 256.849" stroke="#1E1E1E" stroke-miterlimit="10" stroke-linecap="round" stroke-linejoin="round"/>
<path d="M6.87158 259.066C6.87158 259.066 8.45573 262.235 10.0399 262.868" stroke="#1E1E1E" stroke-miterlimit="10" stroke-linecap="round" stroke-linejoin="round"/>
<path d="M8.45475 272.056C8.45475 272.056 4.96963 280.927 6.87061 281.561C8.77158 281.877 8.77158 276.491 8.45475 272.056Z" stroke="#1E1E1E" stroke-miterlimit="10" stroke-linecap="round" stroke-linejoin="round"/>
<path d="M4.65311 269.205C4.65311 269.205 0.851155 272.057 1.48481 273.324C1.48481 274.591 3.70262 272.373 4.65311 269.205Z" stroke="#1E1E1E" stroke-miterlimit="10" stroke-linecap="round" stroke-linejoin="round"/>
<path d="M135.187 241.642C135.187 241.642 131.702 252.414 131.385 256.533L135.187 241.642Z" fill="white"/>
<path d="M135.187 241.642C135.187 241.642 131.702 252.414 131.385 256.533" stroke="#1E1E1E" stroke-miterlimit="10" stroke-linecap="round" stroke-linejoin="round"/>
<path d="M138.039 246.078C138.039 246.078 135.821 251.464 135.504 252.415L138.039 246.078Z" fill="white"/>
<path d="M138.039 246.078C138.039 246.078 135.821 251.464 135.504 252.415" stroke="#1E1E1E" stroke-miterlimit="10" stroke-linecap="round" stroke-linejoin="round"/>
<path d="M145.643 252.095C145.643 252.095 142.158 255.897 140.574 256.214L145.643 252.095Z" fill="white"/>
<path d="M145.643 252.095C145.643 252.095 142.158 255.897 140.574 256.214" stroke="#1E1E1E" stroke-miterlimit="10" stroke-linecap="round" stroke-linejoin="round"/>
<path d="M137.088 260.652C137.088 260.652 148.177 258.118 151.029 253.999" stroke="#1E1E1E" stroke-miterlimit="10" stroke-linecap="round" stroke-linejoin="round"/>
<path d="M94.3158 288.531C94.3158 288.531 94.6326 278.71 94.3158 277.759C93.999 276.492 100.019 278.076 100.019 280.927" stroke="#1E1E1E" stroke-miterlimit="10" stroke-linecap="round" stroke-linejoin="round"/>
<path d="M105.722 275.86C102.554 272.375 98.4352 269.84 94.6332 268.256V268.573C96.5342 275.543 90.1976 272.691 90.1976 272.691C89.8808 273.642 88.9303 274.276 88.9303 274.276C87.3462 283.464 86.0788 293.602 84.8115 305.008H87.663V304.374C89.2471 298.988 91.4649 293.602 94.6332 288.85V288.533C94.6332 288.533 94.9501 278.711 94.6332 277.761C94.3164 276.493 100.336 278.078 100.336 280.929L100.653 281.246C101.92 279.345 103.821 277.761 105.722 275.86Z" fill="#1E1E1E"/>
<path d="M95.9009 298.987C95.9009 298.987 103.822 295.185 107.624 300.888" stroke="#1E1E1E" stroke-miterlimit="10" stroke-linecap="round" stroke-linejoin="round"/>
<path d="M98.7524 294.233C98.7524 294.233 105.406 292.649 107.624 295.817" stroke="#1E1E1E" stroke-miterlimit="10" stroke-linecap="round" stroke-linejoin="round"/>
<path d="M68.6533 262.869H69.9206" stroke="#1E1E1E" stroke-miterlimit="10" stroke-linecap="round" stroke-linejoin="round"/>
<path d="M68.6533 266.989L69.6038 266.672" stroke="#1E1E1E" stroke-miterlimit="10" stroke-linecap="round" stroke-linejoin="round"/>
<path d="M68.019 149.76C68.019 149.76 90.8308 156.096 97.801 151.661" stroke="#1E1E1E" stroke-miterlimit="10" stroke-linecap="round" stroke-linejoin="round"/>
</svg>
