<svg width="414" height="269" viewBox="0 0 414 269" fill="none" xmlns="http://www.w3.org/2000/svg">
    <g id="dish">
        <g id="Plate for Gods">
            <path id="Vector" d="M60.0192 127.791C33.5569 140.206 17.0179 156.761 17.0179 174.971C17.0179 213.046 91.4432 244.5 182.407 244.5C273.372 244.5 347.797 213.046 347.797 174.971C347.797 156.761 331.258 140.206 303.969 127.791" stroke="white" stroke-miterlimit="10" stroke-linecap="round" stroke-linejoin="round"/>
            <path id="Vector_2" d="M50.0953 153.45C46.7875 157.588 45.1336 161.727 45.1336 166.693C45.1336 193.181 106.328 214.701 182.407 214.701C258.486 214.701 319.68 193.181 319.68 166.693C319.68 160.072 315.545 153.45 308.93 147.656" stroke="white" stroke-miterlimit="10" stroke-linecap="round" stroke-linejoin="round"/>
            <path id="Vector_3" d="M126.175 218.84C119.559 218.84 112.117 218.012 105.501 216.357" stroke="white" stroke-miterlimit="10" stroke-linecap="round" stroke-linejoin="round"/>
            <path id="Vector_4" d="M121.213 226.289C114.598 227.117 107.982 225.462 102.194 222.979" stroke="white" stroke-miterlimit="10" stroke-linecap="round" stroke-linejoin="round"/>
            <path id="Vector_5" d="M84.0005 207.252C83.1735 211.391 81.5197 214.701 79.0388 218.012" stroke="white" stroke-miterlimit="10" stroke-linecap="round" stroke-linejoin="round"/>
            <path id="Vector_6" d="M56.7111 195.664C60.0189 198.147 63.3267 199.802 67.4614 201.458" stroke="white" stroke-miterlimit="10" stroke-linecap="round" stroke-linejoin="round"/>
            <path id="Vector_7" d="M49.2683 199.802C52.5761 203.113 57.5378 206.424 62.4995 207.252" stroke="white" stroke-miterlimit="10" stroke-linecap="round" stroke-linejoin="round"/>
            <path id="Vector_8" d="M45.9609 185.731C41.8262 186.559 37.6915 188.214 34.3837 189.042" stroke="white" stroke-miterlimit="10" stroke-linecap="round" stroke-linejoin="round"/>
            <path id="Vector_9" d="M37.6915 165.038C37.6915 168.349 38.5185 172.488 40.1724 175.799C38.5185 175.799 36.8646 174.971 35.2107 174.971" stroke="white" stroke-miterlimit="10" stroke-linecap="round" stroke-linejoin="round"/>
            <path id="Vector_10" d="M140.233 218.84C140.233 222.979 140.233 227.118 140.233 231.256" stroke="white" stroke-miterlimit="10" stroke-linecap="round" stroke-linejoin="round"/>
            <path id="Vector_11" d="M152.638 221.323C160.08 221.323 166.696 222.151 174.138 222.151" stroke="white" stroke-miterlimit="10" stroke-linecap="round" stroke-linejoin="round"/>
            <path id="Vector_12" d="M153.464 232.084C160.08 232.084 166.695 231.256 173.311 231.256" stroke="white" stroke-miterlimit="10" stroke-linecap="round" stroke-linejoin="round"/>
            <path id="Vector_13" d="M193.158 220.496C193.985 224.634 194.812 229.601 195.639 233.739" stroke="white" stroke-miterlimit="10" stroke-linecap="round" stroke-linejoin="round"/>
            <path id="Vector_14" d="M226.236 228.772C220.447 230.428 215.486 230.428 209.697 230.428" stroke="white" stroke-miterlimit="10" stroke-linecap="round" stroke-linejoin="round"/>
            <path id="Vector_15" d="M222.928 221.323C217.966 222.151 213.004 222.979 208.043 222.979" stroke="white" stroke-miterlimit="10" stroke-linecap="round" stroke-linejoin="round"/>
            <path id="Vector_16" d="M235.332 218.84C236.986 222.979 238.64 227.118 240.294 231.256" stroke="white" stroke-miterlimit="10" stroke-linecap="round" stroke-linejoin="round"/>
            <path id="Vector_17" d="M265.929 223.806C260.141 226.289 253.525 227.117 246.909 227.945" stroke="white" stroke-miterlimit="10" stroke-linecap="round" stroke-linejoin="round"/>
            <path id="Vector_18" d="M261.794 213.874C257.66 216.357 252.698 218.013 246.909 218.013" stroke="white" stroke-miterlimit="10" stroke-linecap="round" stroke-linejoin="round"/>
            <path id="Vector_19" d="M276.679 208.908C278.333 213.046 280.814 216.357 284.122 219.668" stroke="white" stroke-miterlimit="10" stroke-linecap="round" stroke-linejoin="round"/>
            <path id="Vector_20" d="M303.969 206.424C301.488 209.735 297.353 212.218 293.218 212.218" stroke="white" stroke-miterlimit="10" stroke-linecap="round" stroke-linejoin="round"/>
            <path id="Vector_21" d="M299.007 198.975C295.699 201.458 292.391 203.941 288.257 205.596" stroke="white" stroke-miterlimit="10" stroke-linecap="round" stroke-linejoin="round"/>
            <path id="Vector_22" d="M307.276 194.008C310.584 196.491 313.892 198.975 315.546 202.286" stroke="white" stroke-miterlimit="10" stroke-linecap="round" stroke-linejoin="round"/>
            <path id="Vector_23" d="M332.085 188.214C330.431 191.525 327.123 194.008 323.815 195.664" stroke="white" stroke-miterlimit="10" stroke-linecap="round" stroke-linejoin="round"/>
            <path id="Vector_24" d="M326.296 184.076C324.642 187.387 322.161 190.697 318.853 192.353" stroke="white" stroke-miterlimit="10" stroke-linecap="round" stroke-linejoin="round"/>
            <path id="Vector_25" d="M325.47 174.143C329.604 174.143 334.566 174.97 338.701 176.626" stroke="white" stroke-miterlimit="10" stroke-linecap="round" stroke-linejoin="round"/>
            <path id="Vector_26" d="M327.123 154.278C330.431 156.761 332.085 160.9 332.085 165.038C329.604 165.038 327.123 163.383 325.469 160.9" stroke="white" stroke-miterlimit="10" stroke-linecap="round" stroke-linejoin="round"/>
            <g id="Group">
                <path id="Vector_27" d="M273.372 178.281C278.333 179.937 283.295 180.764 288.257 181.592C318.027 185.731 313.065 146 303.142 129.446C294.872 115.374 280.814 104.614 265.102 100.475C252.698 97.1643 237.813 98.8198 229.543 107.925C222.928 115.374 222.101 126.962 224.582 136.067" stroke="white" stroke-miterlimit="10" stroke-linecap="round" stroke-linejoin="round"/>
                <g id="Group_2">
                    <path id="Vector_28" d="M84.4904 174.067C85.327 160.639 77.7976 155.603 77.7976 155.603C74.4512 157.282 59.4149 176.59 79.4933 184.143C79.4933 184.983 83.6538 178.264 84.4904 174.067Z" fill="white"/>
                    <path id="Vector_29" d="M97.4742 170.443C97.4742 170.443 89.9448 174.639 89.9448 179.675C89.9448 184.711 91.618 187.229 94.1278 187.229C97.4742 187.229 95.801 190.586 99.1474 192.264C102.494 193.104 105.004 192.264 105.004 192.264C105.004 192.264 103.33 186.389 103.33 183.871C104.167 181.354 97.4742 170.443 97.4742 170.443Z" fill="white"/>
                    <path id="Vector_30" d="M74.5361 139.135C74.5361 139.135 65.3335 138.296 61.9871 141.653C59.4773 145.85 56.1309 145.85 56.1309 150.885C56.1309 155.921 61.7889 161.994 61.7889 161.994L64.1269 157.768L65.206 152.732L61.1505 149.207L76.2093 140.814L74.5361 139.135Z" fill="white"/>
                    <path id="Vector_31" d="M224.572 137.978C224.572 137.978 219.552 123.71 224.572 114.478C230.428 105.246 231.265 102.728 239.631 100.21C247.997 97.6925 264.729 96.0139 280.624 106.085C296.519 116.157 309.905 129.585 310.742 153.925C311.578 178.264 301.539 180.782 298.193 182.46C294.846 184.139 273.095 177.425 273.095 177.425C273.095 177.425 275.604 169.871 272.258 159.8C268.912 149.728 264.729 143.853 257.199 140.496C249.67 137.139 241.304 136.3 235.448 137.139C228.755 137.978 224.572 137.978 224.572 137.978Z" fill="white"/>
                </g>
            </g>
            <g id="Group_3">
                <path id="Vector_32" d="M273.401 165.21C273.401 174.245 266.208 183.71 257.839 186.996C255.328 187.817 251.98 187.817 249.469 189.46C247.795 190.282 246.121 191.925 244.448 192.746C239.426 196.032 233.567 196.853 227.708 196.032C221.85 195.21 216.828 192.746 212.643 188.639C207.621 185.353 203.437 180.425 200.089 174.675C198.415 171.389 197.578 166.46 197.578 161.532L196.741 163.175C193.393 186.996 208.458 207.532 235.241 207.532C251.98 207.532 250.306 201.782 264.534 193.567C278.763 185.353 273.401 166.031 273.401 165.21Z" fill="white"/>
                <path id="Vector_33" d="M197.335 162.594C197.335 160.732 198.278 159.801 198.278 157.939C200.164 152.353 204.878 147.698 210.535 143.974C215.25 141.181 221.85 139.319 228.45 137.457" stroke="white" stroke-miterlimit="10" stroke-linecap="round" stroke-linejoin="round"/>
                <path id="Vector_34" d="M273.553 163.544C273.553 163.544 277.507 185.731 264.275 193.181C250.217 200.63 252.698 207.252 235.332 207.252C208.87 207.252 194.812 186.559 197.293 162.555" stroke="white" stroke-miterlimit="10" stroke-linecap="round" stroke-linejoin="round"/>
                <path id="Vector_35" d="M240.294 143.518C236.986 143.518 234.505 146.828 234.505 150.139C234.505 153.45 236.159 156.761 238.64 159.244C241.121 161.728 242.775 164.211 243.602 167.522C244.429 170.005 244.429 173.316 245.256 175.799C246.91 179.11 251.871 180.765 256.006 178.282C259.314 176.627 261.795 172.488 260.968 168.349" stroke="white" stroke-miterlimit="10" stroke-linecap="round" stroke-linejoin="round"/>
                <path id="Vector_36" d="M210.523 152.622C212.177 151.795 213.831 150.139 215.485 150.139C217.139 149.312 219.62 150.139 221.274 150.967C222.928 152.622 223.754 155.106 223.754 157.589C224.581 164.211 228.716 170.005 233.678 173.316C236.159 174.971 238.64 176.626 238.64 179.11C239.466 182.42 236.986 185.731 233.678 186.559C230.37 187.387 227.062 186.559 224.581 186.559" stroke="white" stroke-miterlimit="10" stroke-linecap="round" stroke-linejoin="round"/>
                <path id="Vector 105" d="M272.755 162.959C273.948 164.634 275.907 170.527 274.202 180.699" stroke="#1E1E1E" stroke-linecap="round" stroke-linejoin="round"/>
                <path id="Vector_37" d="M218.793 183.248C214.658 180.765 211.35 176.626 210.523 171.66" stroke="white" stroke-miterlimit="10" stroke-linecap="round" stroke-linejoin="round"/>
            </g>
            <path id="Vector_38" d="M354.412 221.323C356.893 221.323 357.72 223.807 357.72 226.29C356.893 231.256 351.932 234.567 346.97 237.05C342.835 238.706 338.7 240.361 334.566 241.189C322.988 243.672 323.815 232.084 331.258 227.118C336.22 224.634 349.451 220.496 354.412 221.323Z" fill="white" stroke="white" stroke-miterlimit="10" stroke-linecap="round" stroke-linejoin="round"/>
            <path id="Vector_39" d="M318.026 251.121C313.892 248.638 308.103 249.466 303.141 251.121C300.66 251.949 297.353 253.605 295.699 255.26C294.045 257.743 292.391 261.054 294.045 263.537C295.699 267.676 300.66 267.676 304.795 267.676C308.93 267.676 319.68 267.676 322.161 263.537C325.469 259.399 322.161 252.777 318.026 251.121Z" fill="white" stroke="white" stroke-miterlimit="10" stroke-linecap="round" stroke-linejoin="round"/>
            <g id="Vector_40">
                <path d="M344.489 254.432C346.97 254.432 348.624 253.604 351.105 253.604C353.586 253.604 355.24 256.088 355.24 257.743C355.24 259.399 353.586 261.054 351.105 261.882C348.624 263.537 345.316 264.365 342.836 264.365C342.009 264.365 340.355 264.365 339.528 263.537C337.874 262.709 337.874 259.399 339.528 258.571C341.182 256.915 342.836 256.915 344.489 256.088" fill="white"/>
                <path d="M344.489 254.432C346.97 254.432 348.624 253.604 351.105 253.604C353.586 253.604 355.24 256.088 355.24 257.743C355.24 259.399 353.586 261.054 351.105 261.882C348.624 263.537 345.316 264.365 342.836 264.365C342.009 264.365 340.355 264.365 339.528 263.537C337.874 262.709 337.874 259.399 339.528 258.571C341.182 256.915 342.836 256.915 344.489 256.088" stroke="white" stroke-miterlimit="10" stroke-linecap="round" stroke-linejoin="round"/>
            </g>
            <g id="Vector_41">
                <path d="M193.158 207.252C194.811 208.08 197.292 208.08 199.773 206.424C200.6 202.285 198.946 198.147 195.638 195.664C192.331 193.18 187.369 193.18 184.061 195.664C181.58 197.319 179.926 199.802 180.753 202.285C181.58 204.769 183.234 206.424 185.715 206.424C188.196 206.424 190.677 206.424 193.158 205.596" fill="white"/>
                <path d="M193.158 207.252C194.811 208.08 197.292 208.08 199.773 206.424C200.6 202.285 198.946 198.147 195.638 195.664C192.331 193.18 187.369 193.18 184.061 195.664C181.58 197.319 179.926 199.802 180.753 202.285C181.58 204.769 183.234 206.424 185.715 206.424C188.196 206.424 190.677 206.424 193.158 205.596" stroke="white" stroke-miterlimit="10" stroke-linecap="round" stroke-linejoin="round"/>
            </g>
            <g id="Group_4">
                <path id="Vector_42" d="M93.0972 126.963C84.0007 116.202 72.4235 107.097 59.1923 101.303" stroke="white" stroke-width="3" stroke-miterlimit="10" stroke-linecap="round" stroke-linejoin="round"/>
                <g id="Vector_43">
                    <path d="M59.1924 99.6479C58.3654 95.5093 60.8463 91.3707 64.1541 90.543C68.2888 89.7153 72.4235 92.1984 73.2505 95.5093C72.4235 92.1984 70.7697 89.7153 68.2888 87.2321C65.808 84.7489 61.6732 86.4044 59.1924 88.0598C56.7115 89.7153 51.7499 97.9925 55.0576 99.6479" fill="white"/>
                    <path d="M59.1924 99.6479C58.3654 95.5093 60.8463 91.3707 64.1541 90.543C68.2888 89.7153 72.4235 92.1984 73.2505 95.5093C72.4235 92.1984 70.7697 89.7153 68.2888 87.2321C65.808 84.7489 61.6732 86.4044 59.1924 88.0598C56.7115 89.7153 51.7499 97.9925 55.0576 99.6479" stroke="white" stroke-miterlimit="10" stroke-linecap="round" stroke-linejoin="round"/>
                </g>
                <path id="Vector_44" d="M46.7881 105.442C44.3072 110.408 38.5186 112.064 33.5569 112.064C28.5953 112.064 22.8066 111.236 17.8449 111.236C16.191 111.236 13.7102 111.236 12.0563 112.891C10.4024 114.547 9.57546 117.03 11.2294 117.858C8.74851 116.202 8.74851 112.064 11.2294 109.58C12.8832 107.097 16.1911 106.269 18.6719 105.442C18.6719 102.959 16.191 101.303 13.7102 100.475C11.2293 100.475 8.74851 101.303 7.09462 103.786C5.44072 106.269 3.78683 107.925 2.95988 110.408C2.13293 107.925 1.30598 104.614 1.30598 102.131C1.30598 99.6477 2.13292 96.3368 3.78681 93.8536C5.44071 92.1982 8.74851 91.3705 11.2294 90.5427C14.5371 89.715 19.4988 88.0596 23.6336 88.0596C27.7683 88.0596 32.73 89.715 36.0378 93.0259" stroke="white" stroke-miterlimit="10" stroke-linecap="round" stroke-linejoin="round"/>
                <path id="Vector_45" d="M31.0765 88.8875C26.9417 83.9211 22.807 79.7825 18.6723 74.8162C19.4992 73.9884 21.1531 73.9884 21.98 73.1607C21.98 73.9884 23.6339 74.8162 24.4609 74.8162C25.2878 73.9884 26.1148 73.1607 25.2878 71.5053C24.4609 69.8498 24.4609 69.0221 23.6339 68.1944C21.1531 65.7112 18.6722 64.0557 17.8453 61.5726C15.3644 59.0894 17.0183 54.9508 19.4992 54.9508C21.1531 54.9508 21.98 54.9508 23.6339 54.9508C26.1148 54.1231 26.1148 51.6399 27.7687 49.9844C29.4226 46.6735 31.9034 45.8458 34.3842 46.6735C36.8651 46.6735 39.3459 49.1567 40.1729 51.6399C36.8651 54.1231 36.8651 59.0894 39.3459 62.4003C41.8268 65.7112 45.9615 67.3666 48.4423 69.8498C54.231 73.9884 57.5388 80.6102 58.3657 88.0597" stroke="white" stroke-miterlimit="10" stroke-linecap="round" stroke-linejoin="round"/>
                <path id="Vector_46" d="M10.4025 90.5429C7.92165 88.8875 5.4408 87.232 2.95995 84.7488C2.13301 83.9211 1.30605 83.0934 1.30605 82.2657C1.30605 81.4379 2.13301 80.6102 2.95995 79.7825C3.7869 78.9548 4.61386 78.9548 6.26776 78.9548C7.92165 78.1271 9.57553 77.2993 9.57553 75.6439C9.57553 73.1607 6.26776 71.5053 6.26776 69.0221C5.44081 66.5389 7.92165 64.8835 10.4025 64.0557C12.8833 63.228 15.3642 64.0557 17.0181 64.8835" stroke="white" stroke-miterlimit="10" stroke-linecap="round" stroke-linejoin="round"/>
                <g id="Vector_47">
                    <path d="M57.5386 102.131C54.2308 105.442 51.75 109.58 51.75 113.719C50.0961 112.064 48.4422 109.58 48.4422 107.097C48.4422 104.614 50.0961 102.131 52.5769 101.303" fill="white"/>
                    <path d="M57.5386 102.131C54.2308 105.442 51.75 109.58 51.75 113.719C50.0961 112.064 48.4422 109.58 48.4422 107.097C48.4422 104.614 50.0961 102.131 52.5769 101.303" stroke="white" stroke-miterlimit="10" stroke-linecap="round" stroke-linejoin="round"/>
                </g>
            </g>
            <g id="Group_5">
                <path id="Vector_48" d="M131.137 108.753C122.04 102.131 114.598 93.8539 107.155 85.5767C105.501 83.0935 103.847 81.4381 103.02 78.9549C102.194 76.4717 103.021 73.1608 104.674 71.5054" stroke="white" stroke-width="3" stroke-miterlimit="10" stroke-linecap="round" stroke-linejoin="round"/>
                <g id="Vector_49">
                    <path d="M104.674 71.5055C108.809 69.0223 113.77 69.0223 118.732 69.8501C116.251 68.1946 113.77 65.7114 111.289 64.8837C107.982 64.056 104.674 64.056 103.02 66.5392C100.539 68.1946 100.539 72.3332 102.193 74.8164C96.4044 71.5055 88.1349 72.3332 83.1732 77.2996C88.9618 74.8164 96.4043 76.4718 100.539 81.4382" fill="white"/>
                    <path d="M104.674 71.5055C108.809 69.0223 113.77 69.0223 118.732 69.8501C116.251 68.1946 113.77 65.7114 111.289 64.8837C107.982 64.056 104.674 64.056 103.02 66.5392C100.539 68.1946 100.539 72.3332 102.193 74.8164C96.4044 71.5055 88.1349 72.3332 83.1732 77.2996C88.9618 74.8164 96.4043 76.4718 100.539 81.4382" stroke="white" stroke-miterlimit="10" stroke-linecap="round" stroke-linejoin="round"/>
                </g>
                <path id="Vector_50" d="M110.463 64.0556C113.77 60.7447 115.424 56.606 116.251 51.6397C117.078 46.6734 116.251 42.5347 115.424 37.5684C114.597 33.4298 114.597 29.2912 113.77 25.1525C113.77 24.3248 113.77 24.3248 112.943 23.4971C112.116 21.8416 109.636 22.6694 108.809 24.3248C107.982 25.9803 107.982 27.6357 107.982 30.1189C107.982 32.602 106.328 34.2575 104.674 33.4298C103.02 34.2575 101.366 31.7743 101.366 29.2912C101.366 26.808 102.193 25.1525 100.539 23.4971C99.7123 22.6694 98.0584 22.6694 96.4045 23.4971C95.5775 24.3248 94.7506 25.1525 93.9236 26.808C89.7889 35.9129 88.962 46.6734 93.0967 54.9506C92.2698 54.9506 91.4428 54.1229 90.6158 54.1229C88.9619 56.606 88.135 60.7447 88.962 63.2278C89.7889 66.5387 92.2697 69.0219 95.5775 69.8496" stroke="white" stroke-miterlimit="10" stroke-linecap="round" stroke-linejoin="round"/>
                <path id="Vector_51" d="M88.9619 54.9505C84.8272 49.1564 80.6924 44.1901 75.7307 38.396C74.0768 41.7069 73.2499 45.8455 71.596 49.1564C69.1152 49.1564 66.6343 47.501 64.9804 45.8455C63.3265 44.1901 61.6726 42.5346 59.1918 41.7069C56.711 40.8792 53.4032 40.8792 52.5762 43.3623C50.9223 45.8455 51.7493 48.3287 53.4032 49.9841C55.057 51.6396 57.5379 52.4673 60.0188 54.1228C69.1152 58.2614 75.7308 65.7109 80.6924 74.8158" stroke="white" stroke-miterlimit="10" stroke-linecap="round" stroke-linejoin="round"/>
                <path id="Vector_52" d="M89.7894 35.913C90.6163 34.2576 88.1355 31.7744 86.4816 31.7744C84.0007 31.7744 83.1738 34.2576 82.3468 35.913C81.5199 37.5685 81.5199 40.0517 81.5199 42.5348" stroke="white" stroke-miterlimit="10" stroke-linecap="round" stroke-linejoin="round"/>
            </g>
            <path id="Vector_53" d="M234.505 101.303C235.332 91.3706 236.159 81.4379 235.332 71.5052C235.332 64.8834 233.678 57.4339 227.889 55.7785C224.581 54.123 220.447 55.7785 217.139 57.4339C213.831 59.0894 212.177 63.228 209.696 65.7112C202.254 76.4716 194.811 87.232 188.196 97.9924C183.234 104.614 178.272 112.064 175.792 120.341C173.311 128.618 172.484 137.723 176.619 145.173C180.753 152.622 189.023 158.416 197.292 155.933" stroke="white" stroke-miterlimit="10" stroke-linecap="round" stroke-linejoin="round"/>
            <g id="Frame" clip-path="url(#clip0_704_1477)">
                <g id="Group_6">
                    <path id="Vector_54" d="M235.204 101.849C236.057 91.5906 236.741 82.8866 235.888 72.6285C235.888 65.7898 234.181 58.0963 228.208 56.3866C224.795 54.6769 219.215 55.217 216.655 57.7815C213.242 60.346 211.167 62.9058 209.461 66.3252C201.781 77.4381 194.959 86.6725 187.248 99.9834C177.872 112.079 177.861 115.37 175.301 123.064C172.741 130.758 171.888 141.016 176.155 148.709C180.421 156.403 188.955 161.532 197.488 159.822L198.675 158.872C198.675 158.872 205.622 145.151 225.248 139.167C225.248 139.167 218.821 125.629 223.941 115.37C229.061 105.112 235.204 101.849 235.204 101.849Z" fill="white"/>
                    <path id="Vector_55" d="M235.599 101.282C235.599 101.282 214.07 110.867 224.029 138.076C224.029 138.076 201.405 145.452 196.878 159.963" stroke="#1E1E1E" stroke-miterlimit="10" stroke-linecap="round" stroke-linejoin="round"/>
                    <path id="Vector 259" d="M216.381 82.6345C216.148 79.5958 214.593 74.1144 210.246 76.4988C204.811 79.4792 204.285 94.9059 200.253 100.691C196.221 106.476 181.32 117.871 183.599 136.103C185.422 150.688 196.163 147.323 201.305 143.816" stroke="#1E1E1E" stroke-linecap="round"/>
                    <path id="Vector 260" d="M219.712 81.9331C220.764 79.7128 223.639 75.6927 226.724 77.3755C230.581 79.479 224.796 97.3602 226.549 102.97" stroke="#1E1E1E" stroke-linecap="round"/>
                    <path id="Vector 261" d="M200.078 118.572C199.026 119.098 197.238 120.711 198.5 122.955C200.078 125.76 202.532 121.903 202.181 120.851" stroke="#1E1E1E" stroke-linecap="round"/>
                    <path id="Vector 262" d="M210.596 110.508C209.428 109.573 207.721 107.388 210.246 106.126C212.77 104.863 212.466 107.353 211.999 108.755" stroke="#1E1E1E" stroke-linecap="round"/>
                    <path id="Vector 263" d="M211.648 124.533C211.414 123.539 211.367 121.588 213.05 121.728C215.154 121.903 214.628 124.357 213.576 124.883" stroke="#1E1E1E" stroke-linecap="round"/>
                    <path id="Vector 264" d="M217.608 93.5034C216.557 93.737 214.699 94.5549 215.68 95.9575C216.662 97.3602 217.608 96.1915 217.959 95.4318" stroke="#1E1E1E" stroke-linecap="round"/>
                    <path id="Vector 265" d="M203.759 134.876C203.175 133.24 202.672 130.038 205.337 130.318C208.002 130.598 206.915 132.655 206.038 133.649" stroke="#1E1E1E" stroke-linecap="round"/>
                </g>
            </g>
            <path id="Vector_56" d="M226.723 55.3336C227.55 53.6782 227.063 49.1569 226.236 47.5015" stroke="white" stroke-miterlimit="10" stroke-linecap="round" stroke-linejoin="round"/>
            <path id="Vector_57" d="M238.64 85.5765C246.909 83.921 255.179 88.8874 256.833 97.1646" stroke="white" stroke-miterlimit="10" stroke-linecap="round" stroke-linejoin="round"/>
            <g id="Group_7">
                <path id="Vector_58" d="M194.812 82.2659C193.158 79.7827 191.504 76.4718 189.023 73.9886C187.369 71.5055 186.542 68.1946 184.061 67.3668C182.407 66.5391 174.138 73.1609 172.484 73.9886C168.349 75.6441 164.214 76.4718 159.253 78.1273C160.907 81.4382 164.214 83.9213 166.695 85.5768C174.138 91.3708 178.273 95.5095 184.061 102.131C177.446 99.6481 173.311 105.442 168.349 108.753C161.734 112.064 155.118 115.375 148.502 120.341C136.098 129.446 122.867 136.068 111.29 145.173C104.674 150.139 97.2317 157.589 88.9623 160.072C93.097 163.383 96.4048 169.177 98.8856 173.316C100.54 175.799 102.193 178.282 103.02 180.765C103.847 183.248 103.847 186.559 104.674 189.87C105.501 192.353 110.463 196.492 106.328 198.147" stroke="white" stroke-miterlimit="10" stroke-linecap="round" stroke-linejoin="round"/>
                <path id="Vector_59" d="M93.1563 165.185C90.6754 166.84 88.9622 167.521 87.3083 169.177C83.1736 173.315 79.8658 181.593 82.3466 186.559C84.8274 190.698 88.1352 189.042 90.6161 193.181C93.0969 197.319 103.171 198.891 106.479 198.064" stroke="white" stroke-miterlimit="10" stroke-linecap="round" stroke-linejoin="round"/>
                <path id="Vector_60" d="M175.792 93.0259C161.734 94.6813 150.984 100.475 138.579 107.097C121.213 116.202 103.021 124.479 86.4817 135.24C78.2122 140.206 69.9427 144.345 61.6732 149.311L64.981 152.622C66.6349 154.277 68.2888 154.277 69.9427 154.277C73.2505 154.277 75.7313 154.277 78.2122 156.761C83.1739 160.899 85.6547 168.349 84.8278 174.143C84.0008 176.626 83.1739 179.109 81.52 181.592C78.2122 187.386 72.4236 190.697 66.6349 185.731C62.5002 182.42 59.1924 175.798 60.0194 170.004C60.0194 165.038 64.981 158.416 64.981 153.45" stroke="white" stroke-miterlimit="10" stroke-linecap="round" stroke-linejoin="round"/>
                <path id="Vector_61" d="M78.895 183.972C59.0483 175.695 73.963 157.333 77.2708 155.678" stroke="white" stroke-miterlimit="10" stroke-linecap="round" stroke-linejoin="round"/>
                <path id="Vector_62" d="M168.349 87.2322C146.848 85.5767 127.829 93.854 107.982 101.303C90.6161 107.925 87.3083 101.303 48.4417 123.652C55.0573 122.824 62.4999 126.135 68.2885 128.618C74.0771 131.102 76.558 134.412 74.9041 140.207" stroke="white" stroke-miterlimit="10" stroke-linecap="round" stroke-linejoin="round"/>
                <path id="Vector_63" d="M73.2505 132.757C68.2888 132.757 61.6732 134.412 58.3654 137.723C55.0577 141.034 41.2911 148.255 60.1697 165.591" stroke="white" stroke-miterlimit="10" stroke-linecap="round" stroke-linejoin="round"/>
            </g>
            <path id="Vector_64" d="M111.29 196.491L132.791 177.454" stroke="white" stroke-miterlimit="10" stroke-linecap="round" stroke-linejoin="round"/>
            <path id="Vector_65" d="M165.868 202.286C162.561 203.941 159.253 203.941 155.118 203.114C152.637 203.114 149.329 202.286 148.502 199.803C147.675 197.319 149.329 194.836 150.983 193.181C154.291 189.87 164.214 185.731 169.176 188.214C176.619 191.525 170.83 199.803 165.868 202.286Z" fill="white" stroke="white" stroke-miterlimit="10" stroke-linecap="round" stroke-linejoin="round"/>
            <g id="Vector_66">
                <path d="M164.214 161.727C164.214 157.588 165.041 153.45 163.387 150.139C161.733 146.828 159.252 142.689 155.945 141.862C151.81 141.034 147.675 143.517 146.848 147.656C145.194 146 141.887 145.173 139.406 146C136.925 146.828 135.271 149.311 135.271 152.622C133.617 150.139 130.309 150.139 127.828 151.794C125.348 153.45 125.348 156.761 125.348 159.244C125.348 167.521 130.309 175.798 137.752 179.937C145.194 184.076 157.599 180.765 161.733 174.143" fill="white"/>
                <path d="M164.214 161.727C164.214 157.588 165.041 153.45 163.387 150.139C161.733 146.828 159.252 142.689 155.945 141.862C151.81 141.034 147.675 143.517 146.848 147.656C145.194 146 141.887 145.173 139.406 146C136.925 146.828 135.271 149.311 135.271 152.622C133.617 150.139 130.309 150.139 127.828 151.794C125.348 153.45 125.348 156.761 125.348 159.244C125.348 167.521 130.309 175.798 137.752 179.937C145.194 184.076 157.599 180.765 161.733 174.143" stroke="#1E1E1E" stroke-miterlimit="10" stroke-linecap="round" stroke-linejoin="round"/>
            </g>
            <path id="Vector_67" d="M174.965 143.518C171.657 143.518 169.176 146.001 167.522 147.656" stroke="white" stroke-miterlimit="10" stroke-linecap="round" stroke-linejoin="round"/>
            <g id="Vector_68">
                <path d="M297.457 104.192C298.284 107.503 303.245 107.503 304.899 105.02C306.553 102.536 304.899 98.3978 302.418 97.57C299.938 95.9146 296.63 96.7423 293.322 97.57C293.322 98.3978 293.322 100.053 293.322 100.881C295.803 101.709 298.284 102.536 300.764 103.364" fill="white"/>
                <path d="M297.457 104.192C298.284 107.503 303.245 107.503 304.899 105.02C306.553 102.536 304.899 98.3978 302.418 97.57C299.938 95.9146 296.63 96.7423 293.322 97.57C293.322 98.3978 293.322 100.053 293.322 100.881C295.803 101.709 298.284 102.536 300.764 103.364" stroke="white" stroke-miterlimit="10" stroke-linecap="round" stroke-linejoin="round"/>
            </g>
            <g id="Vector_69">
                <path d="M347.969 117.732C349.623 114.421 353.758 114.421 355.412 116.076C357.893 118.559 357.066 121.87 355.412 124.353C353.758 126.837 350.45 127.664 347.142 126.837C344.661 126.009 341.354 123.526 342.181 121.043C343.008 118.559 347.142 116.904 348.796 119.387" fill="white"/>
                <path d="M347.969 117.732C349.623 114.421 353.758 114.421 355.412 116.076C357.893 118.559 357.066 121.87 355.412 124.353C353.758 126.837 350.45 127.664 347.142 126.837C344.661 126.009 341.354 123.526 342.181 121.043C343.008 118.559 347.142 116.904 348.796 119.387" stroke="white" stroke-miterlimit="10" stroke-linecap="round" stroke-linejoin="round"/>
            </g>
            <path id="Vector_70" d="M376.601 117.942C387.351 129.549 401.409 129.549 412.986 120.522C403.063 114.073 392.313 111.494 381.562 114.073C376.11 112.141 373.293 117.942 376.601 117.942Z" fill="white" stroke="white" stroke-miterlimit="10" stroke-linecap="round" stroke-linejoin="round"/>
            <path id="Vector_71" d="M185.26 178.84C186.914 176.356 187.741 173.046 187.741 170.562C187.741 168.079 186.914 164.768 185.26 163.113C183.606 160.63 180.299 160.63 176.991 159.802C173.683 158.974 169.548 158.974 166.241 159.802C162.106 161.457 158.798 165.596 157.971 169.735C157.144 173.873 159.625 178.84 162.933 181.323C169.548 185.461 180.299 185.461 185.26 178.84Z" fill="white" stroke="#1E1E1E" stroke-miterlimit="10" stroke-linecap="round" stroke-linejoin="round"/>
            <path id="Vector_72" d="M173.683 163.113C173.683 158.974 172.029 154.836 168.721 152.353" stroke="white" stroke-miterlimit="10" stroke-linecap="round" stroke-linejoin="round"/>
            <path id="Vector 106" d="M173.249 159.743C173.433 160.718 173.768 163.032 173.636 164.489" stroke="#1E1E1E" stroke-linecap="round" stroke-linejoin="round"/>
            <path id="Vector 107" d="M170.931 164.103C172.329 164.654 175.501 165.449 177.002 164.213" stroke="#1E1E1E" stroke-linecap="round" stroke-linejoin="round"/>
        </g>
        <g id="Comment papaya">
            <path id="Papaya" d="M231.151 7.35977C231.173 6.69345 231.441 6.12884 231.956 5.66596C232.493 5.18291 233.13 4.80732 233.868 4.53919C234.607 4.25023 235.374 4.04556 236.17 3.92519C236.967 3.78399 237.646 3.72241 238.209 3.74045C238.771 3.75849 239.33 3.87023 239.886 4.07567C240.463 4.28177 240.965 4.56884 241.391 4.93685C241.817 5.28404 242.136 5.732 242.348 6.28074C242.581 6.80932 242.645 7.41585 242.54 8.10032C242.402 9.15894 242.018 10.0846 241.388 10.8773C240.779 11.6707 240.028 12.3345 239.135 12.8686C238.264 13.3826 237.314 13.769 236.284 14.0278C235.276 14.2664 234.303 14.3707 233.366 14.3406C233.341 15.1111 233.348 15.8825 233.386 16.6549C233.424 17.4066 233.462 18.1686 233.5 18.941C233.559 19.7141 233.607 20.4869 233.644 21.2594C233.683 22.011 233.69 22.772 233.665 23.5424C233.658 23.7715 233.63 23.9895 233.582 24.1964C233.534 24.3824 233.342 24.5222 233.005 24.6156L232.4 24.0021C232.4 23.9813 232.378 23.6888 232.334 23.1246C232.29 22.5603 232.219 21.8285 232.123 20.9292C232.048 20.0304 231.955 19.0165 231.845 17.8874C231.757 16.7382 231.669 15.5889 231.581 14.4397C231.493 13.2904 231.403 12.1828 231.312 11.1169C231.242 10.0516 231.178 9.13237 231.119 8.35926C231.12 8.33844 231.122 8.28638 231.124 8.20309C231.127 8.1198 231.13 8.0261 231.133 7.92198C231.137 7.81787 231.14 7.71376 231.143 7.60965C231.147 7.50553 231.149 7.42224 231.151 7.35977ZM232.864 8.54031C232.85 8.97758 232.837 9.38363 232.825 9.75843C232.834 10.1339 232.854 10.4993 232.884 10.8546C232.935 11.2106 232.996 11.5773 233.068 11.9548C233.139 12.3323 233.24 12.7628 233.37 13.2464C234.019 13.163 234.796 12.9899 235.7 12.7271C236.605 12.4644 237.471 12.0961 238.3 11.6224C239.149 11.1494 239.864 10.5992 240.447 9.97169C241.031 9.32341 241.336 8.59322 241.362 7.78114C241.376 7.34387 241.284 6.95531 241.087 6.61546C240.89 6.2548 240.628 5.9546 240.303 5.71486C239.998 5.47579 239.649 5.28744 239.258 5.14982C238.866 5.01219 238.483 4.93736 238.108 4.92534C237.504 4.90596 236.888 4.95914 236.258 5.08485C235.65 5.21124 235.091 5.42259 234.581 5.71889C234.092 6.01587 233.683 6.39881 233.356 6.86771C233.049 7.33727 232.885 7.89481 232.864 8.54031ZM242.305 22.2251C242.344 21.0382 242.694 20.1844 243.357 19.6637C244.041 19.1437 244.913 18.9007 245.975 18.9348C246.392 18.9482 246.777 18.9709 247.13 19.0031C247.504 19.036 247.856 19.0994 248.187 19.1934C248.517 19.2873 248.836 19.4226 249.143 19.5992C249.471 19.7765 249.807 20.027 250.151 20.3507C250.153 20.2882 250.157 20.1633 250.163 19.9759C250.19 19.7683 250.208 19.55 250.215 19.321C250.222 19.0919 250.229 18.8837 250.235 18.6963C250.242 18.4881 250.247 18.3423 250.249 18.259C250.24 17.8835 250.245 17.4043 250.264 16.8212C250.283 16.2174 250.251 15.6014 250.167 14.9734C250.104 14.3461 249.935 13.7466 249.662 13.1751C249.409 12.6042 248.975 12.1629 248.36 11.8514C247.923 11.8373 247.514 11.8972 247.135 12.0309C246.755 12.1647 246.376 12.3088 245.995 12.4634C245.615 12.6179 245.235 12.7621 244.856 12.8958C244.477 13.0087 244.069 13.0582 243.632 13.0441C243.648 12.5236 243.818 12.1017 244.141 11.7786C244.486 11.4353 244.89 11.1773 245.354 11.0046C245.818 10.8319 246.301 10.7223 246.803 10.6759C247.305 10.6294 247.743 10.6122 248.118 10.6242C248.491 10.6987 248.832 10.7826 249.142 10.8759C249.472 10.9699 249.769 11.1462 250.031 11.4047C250.315 11.664 250.563 12.0575 250.775 12.5854C251.009 13.0932 251.195 13.8079 251.332 14.7294C251.49 15.6516 251.608 16.8227 251.688 18.2426C251.789 19.6424 251.848 21.364 251.866 23.4072C251.899 23.6793 251.798 23.9157 251.562 24.1166C251.348 24.2973 251.051 24.4546 250.671 24.5883C250.293 24.7012 249.862 24.802 249.38 24.8908C248.919 24.9594 248.449 25.0068 247.968 25.0331C247.488 25.0594 247.029 25.0759 246.591 25.0827C246.153 25.0895 245.788 25.0882 245.497 25.0789C245.122 25.0668 244.739 24.992 244.347 24.8544C243.976 24.7174 243.628 24.5291 243.302 24.2893C242.998 24.0295 242.747 23.7296 242.549 23.3897C242.373 23.0298 242.292 22.6415 242.305 22.2251ZM246.436 20.169C245.386 20.4271 244.645 20.7577 244.216 21.1608C243.786 21.543 243.587 21.9222 243.616 22.2984C243.667 22.6752 243.906 23.0268 244.333 23.3532C244.761 23.6587 245.285 23.8736 245.907 23.9977C246.529 24.101 247.207 24.0707 247.942 23.9067C248.677 23.7218 249.388 23.3486 250.073 22.7869C249.842 22.175 249.607 21.7089 249.367 21.3886C249.128 21.0474 248.865 20.7888 248.579 20.6129C248.293 20.437 247.974 20.3225 247.621 20.2695C247.268 20.2165 246.873 20.183 246.436 20.169ZM253.848 17.1863C253.763 17.2461 253.647 17.2633 253.502 17.2378C253.357 17.2123 253.223 17.1767 253.099 17.1311C252.976 17.0646 252.864 16.988 252.763 16.9014C252.683 16.7946 252.645 16.6788 252.649 16.5538C252.672 15.8459 252.911 15.2074 253.367 14.6384C253.824 14.0485 254.381 13.5557 255.04 13.16C255.7 12.7434 256.398 12.4323 257.134 12.2266C257.87 12.0002 258.541 11.8966 259.145 11.916C260.103 11.9467 260.961 12.141 261.721 12.4989C262.502 12.8366 263.155 13.2953 263.678 13.8748C264.222 14.4551 264.628 15.1247 264.895 15.8837C265.184 16.6433 265.314 17.45 265.287 18.3037C265.273 19.3871 264.991 20.3682 264.442 21.2469C263.913 22.1262 263.222 22.8753 262.369 23.4941C261.537 24.0927 260.605 24.5422 259.574 24.8426C258.565 25.1229 257.572 25.2057 256.596 25.091C256.613 25.842 256.576 26.6954 256.482 27.6512C256.389 28.6279 256.271 29.6871 256.13 30.829C255.99 31.971 255.815 33.1743 255.608 34.4392C255.421 35.7255 255.222 37.0427 255.012 38.3908C255.012 38.4117 254.949 38.4201 254.824 38.4161C254.699 38.412 254.564 38.3869 254.42 38.3406C254.296 38.3157 254.161 38.2802 254.017 38.2338C253.893 38.209 253.82 38.2067 253.798 38.2268C253.999 36.5032 254.17 34.7578 254.31 32.9905C254.45 31.2233 254.539 29.444 254.575 27.6525C254.611 25.882 254.574 24.1194 254.463 22.365C254.353 20.6105 254.148 18.8843 253.848 17.1863ZM258.714 13.653C258.317 13.6612 257.889 13.71 257.427 13.7994C256.966 13.868 256.556 13.9903 256.196 14.1663C255.836 14.3424 255.547 14.5832 255.329 14.8889C255.11 15.1945 255.025 15.5774 255.073 16.0375C255.108 16.2471 255.15 16.5507 255.2 16.9483C255.271 17.3466 255.34 17.797 255.407 18.2994C255.495 18.8025 255.572 19.3261 255.638 19.8701C255.725 20.4148 255.802 20.9384 255.869 21.4408C255.957 21.9439 256.025 22.4047 256.075 22.8231C256.145 23.2214 256.198 23.5254 256.233 23.7349C256.484 23.7013 256.839 23.671 257.299 23.6441C257.758 23.6171 258.25 23.5495 258.775 23.4413C259.299 23.3331 259.836 23.1835 260.384 22.9927C260.953 22.7816 261.484 22.486 261.976 22.1057C262.467 21.7255 262.899 21.2495 263.272 20.6778C263.666 20.086 263.94 19.3548 264.093 18.4843C264.119 17.6722 263.996 16.9699 263.723 16.3776C263.45 15.7852 263.07 15.2936 262.582 14.9027C262.095 14.4911 261.51 14.1909 260.829 14.0023C260.168 13.7935 259.463 13.6771 258.714 13.653ZM266.293 22.9946C266.331 21.8077 266.682 20.954 267.345 20.4333C268.028 19.9133 268.901 19.6703 269.963 19.7044C270.379 19.7177 270.764 19.7405 271.118 19.7727C271.492 19.8055 271.844 19.8689 272.175 19.9629C272.505 20.0569 272.824 20.1922 273.131 20.3688C273.459 20.5461 273.795 20.7965 274.138 21.1202C274.14 21.0578 274.145 20.9328 274.151 20.7454C274.178 20.5379 274.195 20.3196 274.203 20.0905C274.21 19.8615 274.217 19.6532 274.223 19.4658C274.23 19.2576 274.234 19.1119 274.237 19.0286C274.228 18.6531 274.233 18.1738 274.252 17.5908C274.271 16.9869 274.239 16.371 274.155 15.743C274.091 15.1156 273.923 14.5162 273.65 13.9446C273.397 13.3737 272.963 12.9325 272.348 12.6209C271.91 12.6069 271.502 12.6668 271.122 12.8005C270.743 12.9342 270.363 13.0784 269.983 13.2329C269.603 13.3875 269.223 13.5316 268.844 13.6654C268.465 13.7783 268.057 13.8277 267.619 13.8137C267.636 13.2931 267.806 12.8713 268.129 12.5481C268.474 12.2048 268.878 11.9468 269.342 11.7741C269.806 11.6014 270.289 11.4918 270.791 11.4454C271.292 11.399 271.731 11.3818 272.106 11.3938C272.478 11.4683 272.82 11.5522 273.129 11.6455C273.46 11.7395 273.756 11.9157 274.019 12.1743C274.303 12.4335 274.55 12.8271 274.763 13.355C274.997 13.8628 275.182 14.5774 275.319 15.499C275.477 16.4212 275.596 17.5922 275.676 19.0122C275.777 20.412 275.836 22.1335 275.854 24.1768C275.887 24.4488 275.785 24.6853 275.55 24.8862C275.335 25.0669 275.039 25.2241 274.659 25.3579C274.28 25.4708 273.85 25.5716 273.368 25.6603C272.907 25.7289 272.436 25.7764 271.956 25.8027C271.476 25.8289 271.017 25.8455 270.579 25.8523C270.141 25.8591 269.776 25.8578 269.484 25.8484C269.11 25.8364 268.726 25.7616 268.335 25.624C267.964 25.487 267.616 25.2986 267.29 25.0589C266.986 24.799 266.735 24.4992 266.537 24.1593C266.361 23.7993 266.28 23.4111 266.293 22.9946ZM270.424 20.9385C269.373 21.1966 268.633 21.5272 268.203 21.9303C267.774 22.3126 267.574 22.6918 267.604 23.068C267.654 23.4448 267.893 23.7964 268.32 24.1227C268.748 24.4283 269.273 24.6431 269.894 24.7673C270.516 24.8706 271.195 24.8403 271.93 24.6762C272.665 24.4914 273.375 24.1181 274.06 23.5565C273.83 22.9446 273.595 22.4785 273.355 22.1581C273.116 21.817 272.853 21.5584 272.567 21.3825C272.281 21.2065 271.961 21.0921 271.609 21.0391C271.256 20.9861 270.861 20.9526 270.424 20.9385ZM282.194 39.0127C282.227 37.9716 282.355 36.9022 282.578 35.8047C282.801 34.7071 283.024 33.6095 283.247 32.5119C283.49 31.415 283.692 30.3167 283.853 29.2171C284.034 28.1182 284.089 27.0361 284.019 25.9708L276.665 12.5406C277.136 12.1388 277.508 11.9215 277.78 11.8885C278.053 11.8347 278.209 11.8293 278.25 11.8723C278.389 12.0852 278.616 12.4781 278.931 13.051C279.267 13.6246 279.641 14.2932 280.055 15.0568C280.489 15.8211 280.942 16.6278 281.415 17.4767C281.888 18.3256 282.331 19.1319 282.745 19.8956C283.179 20.6599 283.543 21.3386 283.836 21.9316C284.151 22.5253 284.367 22.9387 284.484 23.1718L286.293 11.6301L287.829 12.461L283.596 39.1515L282.194 39.0127ZM288.094 23.6941C288.132 22.5072 288.483 21.6534 289.146 21.1327C289.83 20.6127 290.702 20.3697 291.764 20.4038C292.181 20.4171 292.566 20.4399 292.919 20.4721C293.293 20.5049 293.645 20.5684 293.976 20.6623C294.306 20.7563 294.625 20.8916 294.932 21.0682C295.26 21.2455 295.596 21.496 295.94 21.8197C295.942 21.7572 295.946 21.6322 295.952 21.4448C295.979 21.2373 295.997 21.019 296.004 20.7899C296.011 20.5609 296.018 20.3527 296.024 20.1653C296.031 19.957 296.035 19.8113 296.038 19.728C296.029 19.3525 296.034 18.8733 296.053 18.2902C296.072 17.6864 296.04 17.0704 295.956 16.4424C295.893 15.8151 295.724 15.2156 295.451 14.644C295.198 14.0731 294.764 13.6319 294.149 13.3204C293.712 13.3063 293.303 13.3662 292.924 13.4999C292.544 13.6336 292.164 13.7778 291.784 13.9324C291.404 14.0869 291.024 14.2311 290.645 14.3648C290.266 14.4777 289.858 14.5271 289.421 14.5131C289.437 13.9925 289.607 13.5707 289.93 13.2475C290.275 12.9043 290.679 12.6463 291.143 12.4735C291.607 12.3008 292.09 12.1913 292.592 12.1448C293.094 12.0984 293.532 12.0812 293.907 12.0932C294.28 12.1677 294.621 12.2516 294.931 12.3449C295.261 12.4389 295.558 12.6152 295.82 12.8737C296.104 13.1329 296.352 13.5265 296.564 14.0544C296.798 14.5622 296.983 15.2768 297.121 16.1984C297.279 17.1206 297.397 18.2917 297.477 19.7116C297.578 21.1114 297.637 22.8329 297.655 24.8762C297.688 25.1483 297.587 25.3847 297.351 25.5856C297.137 25.7663 296.84 25.9235 296.46 26.0573C296.082 26.1702 295.651 26.271 295.169 26.3598C294.708 26.4284 294.238 26.4758 293.757 26.5021C293.277 26.5284 292.818 26.5449 292.38 26.5517C291.942 26.5585 291.577 26.5572 291.286 26.5479C290.911 26.5358 290.528 26.461 290.136 26.3234C289.765 26.1864 289.417 25.9981 289.091 25.7583C288.787 25.4984 288.536 25.1986 288.338 24.8587C288.162 24.4987 288.081 24.1105 288.094 23.6941ZM292.225 21.6379C291.174 21.8961 290.434 22.2267 290.004 22.6298C289.575 23.012 289.376 23.3912 289.405 23.7674C289.456 24.1442 289.695 24.4958 290.122 24.8221C290.55 25.1277 291.074 25.3425 291.696 25.4667C292.318 25.57 292.996 25.5397 293.731 25.3757C294.466 25.1908 295.177 24.8176 295.862 24.2559C295.631 23.644 295.396 23.1779 295.156 22.8576C294.917 22.5164 294.654 22.2578 294.368 22.0819C294.082 21.906 293.762 21.7915 293.41 21.7385C293.057 21.6855 292.662 21.652 292.225 21.6379Z" fill="#88B1D5"/>
            <g id="draw/arrow">
                <path id="Vector 45" d="M269.308 32.1372C269.235 41.5679 265.105 63.1994 249.176 74.2792" stroke="#88B1D5"/>
                <path id="Vector 303" d="M249.449 70.1818L248.837 74.6839L253.52 74.967" stroke="#88B1D5" stroke-linecap="round"/>
            </g>
            <path id="draw:reverse/mask" d="M232.455 24.4319L231.923 6.97443C233.65 5.67176 237.576 3.28453 239.467 4.15698C241.829 5.24754 241.829 7.97412 241.193 9.79172C240.684 11.2458 236.195 13.0028 234.014 13.6996L244.192 12.0637C245.919 11.7002 249.482 11.1913 249.918 12.0637C250.354 12.9362 250.705 19.6977 250.827 22.9693C249.766 21.5153 247.173 18.807 245.283 19.6068C242.92 20.6065 242.011 22.5149 242.647 23.5146C243.156 24.3144 247.1 24.1508 249.009 23.969L253.462 41.6906C254.189 38.3887 255.625 31.3667 255.552 29.6945C255.48 28.0223 254.31 20.0309 253.735 16.2442C254.583 14.8204 256.806 12.1364 258.915 12.7908C261.55 13.6087 263.095 14.154 263.732 15.6989C264.368 17.2439 264.64 20.6973 262.914 22.0605C261.532 23.1511 258.339 24.0902 256.915 24.4234L265.095 27.3316C268.245 27.1498 274.619 26.3864 274.91 24.7869C275.273 22.7876 274.455 21.3335 272.91 20.7882C271.365 20.2429 269.457 19.6068 268.821 20.4247C268.185 21.2426 266.549 22.9693 268.276 23.969C267.7 22.0908 266.84 17.7346 268.003 15.3354C269.457 12.3364 269.548 11.7002 271.456 11.882C273.365 12.0637 274.455 13.0634 274.91 14.6992C275.273 16.0079 275.979 19.2033 275.889 20.2939L277.454 12.1546L283.362 22.7876L282.544 39.4186L286.997 12.5181L289.451 13.7904C290.662 13.2452 293.358 12.2637 294.449 12.6999C295.812 13.2452 296.267 13.9722 296.539 16.2442C296.757 18.0618 296.691 22.0302 296.63 23.7873C295.812 22.8482 293.795 20.9518 292.268 20.8791C290.359 20.7882 289.541 21.4244 289.087 22.6058C288.633 23.7873 289.36 25.6957 289.996 25.7866C290.505 25.8593 293.601 25.6957 295.085 25.6049" stroke="#1E1E1E" stroke-width="4" stroke-linecap="round"/>
        </g>
        <g id="Comment flowers">
            <path id="Flowers" d="M135.592 20.9202C135.53 20.8974 135.459 20.8326 135.379 20.7258C135.299 20.619 135.23 20.5021 135.171 20.3752C135.113 20.2482 135.065 20.1216 135.027 19.9954C134.99 19.8691 134.982 19.7751 135.005 19.7133C135.029 19.6306 135.094 19.5285 135.203 19.4069C135.311 19.2853 135.429 19.1641 135.558 19.0431C135.688 18.9014 135.817 18.7805 135.945 18.6804C136.073 18.5803 136.179 18.5315 136.262 18.5342C136.514 18.4798 136.902 18.3984 137.427 18.2902C137.973 18.1618 138.582 18.025 139.254 17.8798C139.925 17.7346 140.628 17.5904 141.362 17.4472C142.117 17.3047 142.83 17.1712 143.501 17.0468C144.194 16.9023 144.802 16.7759 145.327 16.6677C145.872 16.5601 146.271 16.4895 146.522 16.4559C146.627 16.4384 146.794 16.4229 147.023 16.4094C147.274 16.3966 147.535 16.3842 147.806 16.372C148.078 16.3599 148.328 16.3471 148.558 16.3336C148.808 16.3208 148.975 16.3157 149.059 16.3184C149.046 16.714 148.985 17.0039 148.874 17.1879C148.786 17.3518 148.647 17.462 148.457 17.5185C148.289 17.5756 148.09 17.6005 147.861 17.5931C147.632 17.5858 147.371 17.6087 147.077 17.6618C146.867 17.7176 146.52 17.8003 146.037 17.9098C145.554 18.0194 145.019 18.1481 144.43 18.296C143.843 18.4231 143.213 18.5592 142.541 18.7044C141.89 18.8503 141.26 18.9968 140.651 19.144C140.063 19.2919 139.527 19.431 139.043 19.5614C138.581 19.6717 138.235 19.7543 138.004 19.8095C137.68 20.1534 137.493 20.4705 137.442 20.7607C137.391 21.0509 137.359 21.3938 137.346 21.7894C137.317 22.6848 137.342 23.5402 137.42 24.3556C137.52 25.1508 137.637 26.0301 137.773 26.9933C137.815 26.9946 137.866 27.0067 137.928 27.0295C138.012 27.0322 138.074 27.0342 138.116 27.0355C138.678 27.0536 139.221 27.0085 139.746 26.9002C140.292 26.7718 140.828 26.6327 141.354 26.4828C141.901 26.3336 142.447 26.2052 142.992 26.0976C143.559 25.9699 144.134 25.9154 144.717 25.9341C144.8 25.9368 144.935 25.9515 145.122 25.9784C145.33 25.9851 145.527 26.0226 145.712 26.0911C145.898 26.1388 146.042 26.2059 146.144 26.2925C146.245 26.3792 146.262 26.4944 146.195 26.6381L138.059 28.8158L137.784 37.3739C137.409 37.3619 137.119 37.3005 136.914 37.1897C136.709 37.0997 136.567 36.9701 136.489 36.8009C136.412 36.6108 136.367 36.4009 136.353 36.1712C136.34 35.9207 136.328 35.6389 136.318 35.3259C136.287 34.9706 136.253 34.4171 136.215 33.6655C136.176 32.9138 136.13 32.0682 136.077 31.1285C136.045 30.1687 136.005 29.1668 135.955 28.123C135.905 27.0792 135.853 26.0875 135.8 25.1478C135.747 24.1873 135.702 23.3312 135.664 22.5796C135.625 21.828 135.601 21.2748 135.592 20.9202ZM148.532 13.2374C148.822 13.2884 149.07 13.3797 149.274 13.5113C149.5 13.6228 149.67 13.8263 149.786 14.1218C149.773 14.5175 149.766 15.0696 149.764 15.7782C149.783 16.4667 149.789 17.2694 149.78 18.1862C149.793 19.1038 149.803 20.0942 149.81 21.1575C149.818 22.2208 149.825 23.2945 149.832 24.3786C149.839 25.4627 149.836 26.5361 149.822 27.5987C149.83 28.662 149.829 29.652 149.821 30.5689C149.833 31.4864 149.838 32.2995 149.836 33.0082C149.835 33.7168 149.838 34.2589 149.847 34.6343C149.845 34.676 149.833 34.7485 149.809 34.852C149.805 34.9561 149.791 35.0807 149.765 35.2258C149.761 35.3715 149.746 35.517 149.72 35.662C149.716 35.787 149.713 35.8807 149.711 35.9431C149.686 36.0674 149.671 36.2233 149.665 36.4107C149.659 36.5772 149.633 36.7432 149.586 36.9084C149.539 37.0736 149.461 37.2275 149.353 37.3699C149.265 37.4922 149.117 37.5604 148.908 37.5745L148.398 36.9016C148.378 36.8801 148.359 36.4938 148.342 35.7429C148.346 34.9718 148.336 33.9814 148.312 32.7717C148.31 31.5418 148.312 30.1662 148.319 28.6448C148.327 27.1026 148.325 25.5496 148.312 23.9859C148.321 22.4229 148.327 20.9223 148.332 19.4842C148.336 18.0461 148.345 16.8062 148.357 15.7644C148.36 15.6811 148.365 15.5145 148.373 15.2646C148.402 15.0154 148.421 14.7659 148.429 14.516C148.458 14.246 148.477 13.9964 148.484 13.7674C148.513 13.5182 148.529 13.3415 148.532 13.2374ZM151.342 31.8996C151.357 31.4207 151.416 30.8702 151.52 30.2482C151.624 29.6054 151.78 28.9642 151.988 28.3247C152.196 27.6852 152.445 27.0575 152.736 26.4415C153.048 25.8262 153.409 25.2854 153.82 24.8192C154.231 24.3321 154.702 23.9512 155.232 23.6764C155.763 23.3807 156.351 23.2433 156.996 23.264C157.663 23.2854 158.27 23.5341 158.817 24.0102C159.385 24.4871 159.856 25.0962 160.228 25.8377C160.621 26.5798 160.907 27.4019 161.087 28.304C161.266 29.206 161.322 30.0833 161.253 30.9357C161.212 32.185 160.937 33.2913 160.427 34.2546C159.917 35.2179 159.277 35.9895 158.508 36.5693C157.76 37.1498 156.956 37.5304 156.095 37.7113C155.256 37.8928 154.466 37.8153 153.726 37.4789C153.008 37.1224 152.414 36.4884 151.943 35.577C151.492 34.6663 151.292 33.4405 151.342 31.8996ZM152.493 32.0616C152.515 33.3338 152.702 34.3195 153.055 35.0186C153.408 35.7178 153.841 36.1903 154.354 36.436C154.889 36.6616 155.472 36.6803 156.103 36.4921C156.734 36.304 157.329 35.9583 157.887 35.4551C158.446 34.931 158.925 34.2794 159.326 33.5002C159.747 32.7008 159.995 31.802 160.069 30.8039C160.134 30.0556 160.095 29.3248 159.951 28.6115C159.828 27.8988 159.63 27.2671 159.356 26.7164C159.103 26.1455 158.773 25.6972 158.367 25.3715C157.982 25.0257 157.529 24.8444 157.009 24.8277C156.509 24.8117 156.057 24.9222 155.654 25.1594C155.25 25.3966 154.875 25.7285 154.527 26.1551C154.202 26.5615 153.916 27.0317 153.669 27.5658C153.423 28.0998 153.208 28.6348 153.024 29.1709C152.86 29.7076 152.729 30.2349 152.629 30.7528C152.55 31.2505 152.505 31.6868 152.493 32.0616ZM168.037 37.7505L162.395 23.5935L163.234 22.7762L168.046 34.5616L170.665 26.9854L176.429 35.4246C176.649 34.4103 176.796 33.3937 176.871 32.3747C176.967 31.3356 177.02 30.3055 177.032 29.2845C177.066 28.2434 177.089 27.1915 177.102 26.1289C177.136 25.067 177.202 24.006 177.298 22.9461L178.625 23.4889C178.575 25.0506 178.533 26.3728 178.498 27.4556C178.463 28.5384 178.434 29.4546 178.41 30.2042C178.386 30.933 178.357 31.5261 178.321 31.9835C178.307 32.4416 178.284 32.8369 178.252 33.1694C178.241 33.5026 178.211 33.8142 178.16 34.1044C178.109 34.3738 178.047 34.6844 177.973 35.0364C177.9 35.3676 177.814 35.7817 177.715 36.2788C177.615 36.7758 177.49 37.4284 177.339 38.2365C176.71 37.716 176.105 37.0713 175.525 36.3023C174.945 35.5333 174.397 34.7653 173.88 33.9984C173.383 33.232 172.905 32.5289 172.446 31.8888C171.988 31.228 171.566 30.7454 171.18 30.4412L168.037 37.7505ZM179.754 31.1853C179.774 30.5606 179.931 29.8778 180.226 29.1369C180.522 28.3751 180.909 27.6788 181.388 27.048C181.888 26.3971 182.437 25.8623 183.034 25.4437C183.652 25.005 184.284 24.796 184.93 24.8167C185.284 24.8281 185.625 24.912 185.953 25.0684C186.303 25.2255 186.629 25.434 186.934 25.6939C187.26 25.9337 187.542 26.2137 187.782 26.5341C188.044 26.8343 188.242 27.1533 188.377 27.4911C188.512 27.829 188.575 28.1541 188.564 28.4664C188.575 28.7794 188.483 29.0474 188.289 29.2705L181.659 30.2772C181.575 30.2953 181.499 30.3971 181.43 30.5825C181.363 30.7471 181.304 30.964 181.253 31.2334C181.203 31.5027 181.152 31.8033 181.099 32.1352C181.068 32.4468 181.038 32.7585 181.007 33.0702C180.977 33.361 180.957 33.6314 180.949 33.8813C180.942 34.1103 180.936 34.2873 180.932 34.4122C180.914 34.9953 181.034 35.4785 181.292 35.862C181.573 36.2254 181.928 36.5077 182.359 36.7092C182.791 36.9106 183.276 37.0512 183.815 37.1311C184.376 37.2116 184.926 37.2605 185.468 37.2779C186.009 37.2952 186.52 37.2908 187 37.2645C187.481 37.2382 187.877 37.2301 188.189 37.2401C188.187 37.3234 188.152 37.4161 188.086 37.5182C188.021 37.6203 187.944 37.7221 187.858 37.8235C187.772 37.9042 187.686 37.9848 187.6 38.0654C187.515 38.1252 187.461 38.1652 187.44 38.1853C187.272 38.2216 187.01 38.2757 186.653 38.3477C186.318 38.3995 185.951 38.4502 185.554 38.5C185.177 38.5505 184.821 38.5912 184.487 38.6221C184.152 38.6531 183.923 38.6665 183.798 38.6625C183.148 38.7668 182.586 38.7383 182.112 38.5772C181.638 38.4161 181.24 38.1532 180.918 37.7885C180.596 37.4238 180.339 36.9883 180.147 36.4819C179.955 35.9546 179.817 35.3978 179.731 34.8114C179.646 34.2251 179.603 33.6192 179.602 32.9938C179.622 32.3692 179.673 31.7663 179.754 31.1853ZM184.454 25.9896C184.267 25.9836 184.014 26.0797 183.695 26.2779C183.397 26.4559 183.108 26.6968 182.827 27.0004C182.568 27.2839 182.339 27.5997 182.14 27.9476C181.963 28.2755 181.902 28.5653 181.956 28.8172C182.495 28.897 183.058 28.9046 183.644 28.8401C184.229 28.7755 184.764 28.6676 185.249 28.5163C185.734 28.3443 186.136 28.1488 186.456 27.9297C186.776 27.6899 186.93 27.4447 186.917 27.1942C186.925 26.9443 186.734 26.7193 186.345 26.5192C185.976 26.299 185.346 26.1224 184.454 25.9896ZM189.529 26.6526C189.783 26.5566 190.002 26.5427 190.187 26.6112C190.373 26.6797 190.525 26.7992 190.645 26.9698C190.764 27.1404 190.852 27.3412 190.907 27.5723C190.963 27.7825 191.008 27.9924 191.043 28.202C191.328 27.7526 191.725 27.4005 192.234 27.1459C192.764 26.8711 193.321 26.7014 193.907 26.6368C194.494 26.5514 195.077 26.5492 195.658 26.6304C196.24 26.6908 196.725 26.8314 197.114 27.0523C197.525 27.2531 197.808 27.5331 197.963 27.8925C198.119 28.231 198.064 28.6253 197.8 29.0753C197.268 28.7456 196.704 28.4774 196.106 28.2706C195.529 28.0645 194.958 27.9837 194.394 28.0281C193.83 28.0725 193.302 28.2745 192.811 28.6339C192.321 28.9725 191.907 29.5325 191.569 30.3137C191.232 31.0949 191 32.1401 190.875 33.4493C190.771 34.7383 190.813 36.355 191 38.2996L189.814 38.2615C189.814 38.2615 189.798 38.0942 189.767 37.7597C189.758 37.4051 189.741 36.946 189.718 36.3824C189.715 35.8196 189.693 35.1935 189.653 34.5044C189.633 33.8159 189.614 33.117 189.595 32.4077C189.576 31.6984 189.556 31.0203 189.535 30.3735C189.536 29.7065 189.523 29.1329 189.496 28.6526C189.499 28.5902 189.492 28.4649 189.477 28.2768C189.483 28.0894 189.49 27.8916 189.496 27.6834C189.504 27.4543 189.51 27.2461 189.516 27.0587C189.522 26.8713 189.527 26.7359 189.529 26.6526ZM200.12 36.6536C200.495 36.6657 200.836 36.7496 201.144 36.9053C201.473 37.0618 201.79 37.2387 202.096 37.4362C202.403 37.6128 202.711 37.7789 203.018 37.9347C203.347 38.0703 203.699 38.1442 204.074 38.1562C204.512 38.1702 204.962 38.1117 205.424 37.9806C205.909 37.8294 206.353 37.6248 206.757 37.3668C207.162 37.088 207.496 36.7548 207.759 36.3672C208.022 35.9587 208.161 35.515 208.176 35.0361C208.202 34.891 208.208 34.714 208.193 34.5052C208.2 34.2969 208.144 34.0867 208.026 33.8745C207.908 33.6414 207.707 33.4265 207.421 33.2297C207.137 33.0122 206.715 32.8423 206.156 32.7201C205.618 32.5987 204.932 32.5246 204.099 32.4978C203.267 32.4503 202.234 32.4901 201 32.6173C200.688 32.6073 200.389 32.5143 200.103 32.3384C199.817 32.1416 199.564 31.9146 199.343 31.6574C199.122 31.3793 198.944 31.0922 198.808 30.796C198.672 30.479 198.608 30.1852 198.617 29.9145C198.643 29.1024 198.831 28.4518 199.18 27.9628C199.551 27.4536 200.011 27.0619 200.562 26.7877C201.113 26.4928 201.724 26.2935 202.395 26.1899C203.065 26.0864 203.744 26.0456 204.431 26.0677C204.743 26.0777 205.096 26.1099 205.491 26.1642C205.907 26.1984 206.279 26.2937 206.607 26.4501C206.957 26.5864 207.242 26.804 207.462 27.1029C207.702 27.4024 207.814 27.8125 207.797 28.333C207.744 28.6857 207.675 28.9023 207.589 28.9829C207.524 29.0434 207.421 29.0192 207.279 28.9104C207.158 28.7815 207.007 28.6099 206.826 28.3957C206.645 28.1814 206.423 27.9763 206.158 27.7802C205.915 27.5639 205.608 27.3977 205.236 27.2816C204.885 27.1661 204.479 27.1531 204.018 27.2425C203.539 27.2272 203.058 27.2639 202.576 27.3526C202.095 27.4205 201.652 27.5627 201.249 27.779C200.867 27.9961 200.545 28.2984 200.282 28.686C200.04 29.0743 199.91 29.5703 199.891 30.1742C199.881 30.4865 200.009 30.7095 200.276 30.8431C200.564 30.9566 200.937 31.0207 201.395 31.0354C201.874 31.0507 202.405 31.0574 202.989 31.0552C203.594 31.033 204.209 31.0319 204.834 31.0519C205.458 31.0719 206.061 31.1434 206.64 31.2662C207.221 31.3682 207.725 31.5719 208.153 31.8775C208.602 32.1629 208.943 32.5699 209.177 33.0985C209.41 33.627 209.482 34.3068 209.393 35.1377C209.373 35.7415 209.178 36.3085 208.806 36.8385C208.456 37.3692 208.003 37.8341 207.449 38.2332C206.915 38.6121 206.322 38.9057 205.669 39.1141C205.017 39.3224 204.389 39.3857 203.787 39.3038C203.538 39.275 203.197 39.2015 202.763 39.0834C202.35 38.9451 201.939 38.7651 201.529 38.5435C201.14 38.3226 200.805 38.0617 200.523 37.7609C200.241 37.4392 200.107 37.0701 200.12 36.6536Z" fill="#88B1D5"/>
            <g id="draw/arrow_2">
                <path id="Vector 46" d="M146.402 42.3394C148.008 51.0318 146.2 69.2698 126.115 72.6822" stroke="#88B1D5"/>
                <path id="Vector 303_2" d="M128.313 69.0704L125.584 72.7034L129.535 75.2325" stroke="#88B1D5" stroke-linecap="round"/>
            </g>
            <path id="draw:reverse/mask_2" d="M137.145 37.2588L137.224 28.4936L146.441 26.4541L136.987 25.6511L136.197 19.6499L147.963 16.8859L149.385 13.4116L148.724 37.609C149.619 34.7663 152.085 27.8778 153.412 26.3617C155.07 24.4665 156.333 23.44 157.597 23.9927C158.86 24.5455 160.124 26.8354 160.44 28.7306C160.755 30.6257 159.808 34.3371 158.544 35.2057C157.281 36.0743 153.096 37.6536 152.385 35.4426C151.817 33.6738 151.832 32.7578 151.911 32.5209L150.727 38.2063L162.572 38.996L162.651 23.1241L168.02 36.4691L170.626 28.5727L176.311 36.627L177.97 23.6769C179.996 23.7558 184.461 24.277 186.103 25.7299C187.745 27.1829 187.682 28.4411 187.445 28.8885L181.76 29.2833L182.708 26.2037C181.576 26.3617 179.328 27.3092 179.391 29.8361C179.47 32.9947 179.944 36.5481 181.681 37.3377C183.071 37.9694 186.156 37.7589 187.524 37.5746L190.209 37.7325L190.13 26.5985L191.788 28.0989C193.289 27.5724 196.479 26.7407 197.237 27.6251C196.368 29.4149 195.121 33.3421 197.079 34.7319C199.527 36.4691 200.475 37.7325 203.08 38.2063C205.686 38.6801 209.398 35.2846 208.292 33.4685C207.187 31.6523 205.133 31.6523 203.712 31.7312C202.291 31.8102 199.132 30.3888 199.922 28.5727C200.711 26.7565 204.186 25.8089 205.844 26.5196C207.171 27.0881 207.976 28.4937 208.213 29.1254" stroke="#1E1E1E" stroke-width="4" stroke-linecap="round"/>
        </g>
        <g id="Comment guava">
            <path id="Guava" d="M314.993 86.3159C314.168 86.7063 313.438 87.0164 312.806 87.2462C312.173 87.4761 311.563 87.6545 310.975 87.7816C310.388 87.8878 309.792 87.952 309.187 87.9743C308.602 87.9973 307.925 87.9964 307.155 87.9717C306.134 87.9389 305.222 87.795 304.417 87.5399C303.613 87.264 302.927 86.8772 302.359 86.3796C301.813 85.8618 301.396 85.2231 301.108 84.4635C300.82 83.683 300.694 82.7514 300.728 81.6686C300.76 80.6899 300.887 79.6622 301.109 78.5855C301.352 77.5094 301.678 76.4464 302.086 75.3964C302.517 74.3263 303.029 73.311 303.622 72.3504C304.238 71.3696 304.942 70.5167 305.737 69.7918C306.531 69.0669 307.414 68.5012 308.386 68.0947C309.359 67.6673 310.428 67.4723 311.594 67.5097C312.032 67.5238 312.55 67.5925 313.151 67.716C313.752 67.8187 314.32 67.9932 314.854 68.2396C315.409 68.4659 315.868 68.7933 316.229 69.2217C316.591 69.6294 316.762 70.1456 316.742 70.7702C316.735 70.9993 316.617 71.1101 316.388 71.1028C316.18 71.0753 315.912 70.9833 315.584 70.8269C315.276 70.6711 314.918 70.472 314.509 70.2296C314.12 69.9878 313.742 69.7568 313.374 69.5366C313.006 69.3163 312.668 69.1283 312.36 68.9725C312.053 68.8168 311.815 68.757 311.647 68.7933C310.647 68.7613 309.735 68.93 308.91 69.2996C308.086 69.6484 307.331 70.1348 306.644 70.7589C305.978 71.3837 305.381 72.115 304.854 72.9527C304.348 73.7702 303.914 74.6317 303.551 75.5372C303.21 76.4434 302.941 77.3519 302.745 78.2628C302.57 79.1535 302.47 80.0048 302.444 80.8169C302.267 81.7909 302.292 82.6463 302.518 83.3831C302.766 84.0998 303.143 84.7059 303.648 85.2015C304.154 85.6763 304.767 86.0399 305.489 86.2924C306.21 86.5448 306.956 86.7042 307.725 86.7706C308.515 86.8168 309.298 86.7689 310.074 86.6271C310.851 86.4644 311.557 86.2161 312.193 85.8821C312.85 85.5489 313.384 85.1283 313.797 84.6204C314.23 84.1132 314.488 83.5379 314.571 82.8944C314.593 82.228 314.475 81.6615 314.219 81.1947C313.984 80.7286 313.653 80.3323 313.226 80.006C312.819 79.6803 312.338 79.4147 311.782 79.2093C311.246 79.0045 310.689 78.8407 310.109 78.7179C309.55 78.5957 308.98 78.5045 308.398 78.4441C307.837 78.3844 307.318 78.3157 306.842 78.2379L306.86 77.6756C306.861 77.634 307.134 77.5698 307.679 77.4831C308.244 77.397 308.904 77.3035 309.657 77.2026C310.432 77.1024 311.227 77.0028 312.043 76.904C312.859 76.8051 313.549 76.7334 314.114 76.689C314.114 76.689 314.166 76.6907 314.27 76.694C314.375 76.6765 314.49 76.6698 314.614 76.6738C314.739 76.6778 314.864 76.6818 314.989 76.6858C315.114 76.6898 315.218 76.6932 315.302 76.6958C315.343 76.6972 315.416 76.6995 315.52 76.7028C315.645 76.7069 315.77 76.7109 315.895 76.7149C316.02 76.7189 316.134 76.733 316.238 76.7571C316.363 76.7611 316.446 76.7638 316.487 76.7651C316.499 77.0573 316.505 77.5265 316.505 78.1727C316.526 78.7987 316.545 79.508 316.562 80.3006C316.579 81.0724 316.594 81.8962 316.607 82.7721C316.621 83.648 316.636 84.4822 316.652 85.2748C316.669 86.0466 316.678 86.7451 316.679 87.3705C316.7 87.9965 316.717 88.466 316.727 88.779C316.725 88.8623 316.72 89.0185 316.712 89.2475C316.705 89.4766 316.697 89.716 316.689 89.9659C316.701 90.2373 316.704 90.4771 316.697 90.6853C316.69 90.9143 316.685 91.0809 316.681 91.185L316.026 91.164L314.993 86.3159ZM315.204 79.7255L315.266 77.8203C314.953 77.8102 314.628 77.8832 314.289 78.0391C313.951 78.1741 313.666 78.3109 313.432 78.4493L315.204 79.7255ZM317.971 76.3437C317.974 76.2396 318.04 76.1375 318.168 76.0374C318.317 75.938 318.486 75.86 318.676 75.8036C318.886 75.7478 319.085 75.7125 319.273 75.6977C319.461 75.6829 319.596 75.7184 319.676 75.8044C319.718 78.3904 319.892 80.4595 320.196 82.0118C320.522 83.5438 320.903 84.6712 321.338 85.3939C321.794 86.1172 322.293 86.498 322.834 86.5362C323.375 86.5535 323.913 86.3415 324.449 85.9001C324.985 85.4379 325.484 84.8078 325.948 84.0097C326.432 83.2123 326.824 82.3495 327.125 81.4211C327.446 80.4935 327.654 79.5621 327.746 78.6271C327.839 77.6921 327.782 76.8565 327.576 76.1204L329.457 75.9619C329.468 76.2749 329.504 76.7971 329.563 77.5286C329.645 78.2399 329.723 79.0553 329.798 79.9748C329.894 80.8742 329.999 81.8156 330.114 82.7989C330.228 83.7823 330.323 84.7025 330.4 85.5595C330.478 86.3958 330.548 87.1172 330.612 87.7237C330.677 88.3094 330.707 88.6751 330.702 88.8209L329.359 88.7778L328.064 83.3272C327.749 84.0467 327.373 84.7329 326.935 85.3858C326.497 86.0388 326.021 86.6071 325.505 87.0908C325.01 87.5752 324.487 87.9545 323.936 88.2286C323.386 88.482 322.841 88.5791 322.301 88.5201C321.782 88.4409 321.28 88.1747 320.795 87.7214C320.309 87.2681 319.862 86.5659 319.455 85.6149C319.07 84.6437 318.745 83.4034 318.48 81.8942C318.216 80.3849 318.046 78.5348 317.971 76.3437ZM331.473 86.2193C331.511 85.0324 331.862 84.1786 332.525 83.6579C333.208 83.1379 334.081 82.8949 335.143 82.929C335.56 82.9424 335.945 82.9651 336.298 82.9973C336.672 83.0302 337.024 83.0936 337.355 83.1876C337.685 83.2815 338.004 83.4168 338.311 83.5934C338.639 83.7707 338.975 84.0212 339.319 84.3449C339.321 84.2824 339.325 84.1575 339.331 83.9701C339.358 83.7625 339.376 83.5442 339.383 83.3152C339.39 83.0861 339.397 82.8779 339.403 82.6905C339.41 82.4823 339.414 82.3365 339.417 82.2532C339.408 81.8777 339.413 81.3985 339.432 80.8154C339.451 80.2116 339.419 79.5957 339.335 78.9676C339.272 78.3403 339.103 77.7408 338.83 77.1693C338.577 76.5984 338.143 76.1571 337.528 75.8456C337.091 75.8316 336.682 75.8914 336.303 76.0251C335.923 76.1589 335.543 76.303 335.163 76.4576C334.783 76.6121 334.403 76.7563 334.024 76.89C333.645 77.0029 333.237 77.0524 332.8 77.0383C332.816 76.5178 332.986 76.0959 333.309 75.7728C333.654 75.4295 334.058 75.1715 334.522 74.9988C334.986 74.8261 335.469 74.7165 335.971 74.6701C336.473 74.6236 336.911 74.6064 337.286 74.6184C337.659 74.6929 338 74.7768 338.309 74.8701C338.64 74.9641 338.937 75.1404 339.199 75.3989C339.483 75.6582 339.731 76.0517 339.943 76.5797C340.177 77.0874 340.362 77.8021 340.5 78.7236C340.658 79.6458 340.776 80.8169 340.856 82.2368C340.957 83.6366 341.016 85.3582 341.034 87.4015C341.067 87.6735 340.966 87.9099 340.73 88.1108C340.516 88.2915 340.219 88.4488 339.839 88.5825C339.46 88.6954 339.03 88.7962 338.548 88.885C338.087 88.9536 337.616 89.001 337.136 89.0273C336.656 89.0536 336.197 89.0701 335.759 89.0769C335.321 89.0837 334.956 89.0824 334.665 89.0731C334.29 89.0611 333.907 88.9862 333.515 88.8486C333.144 88.7116 332.796 88.5233 332.47 88.2836C332.166 88.0237 331.915 87.7238 331.717 87.384C331.541 87.024 331.46 86.6357 331.473 86.2193ZM335.604 84.1632C334.553 84.4213 333.813 84.7519 333.383 85.155C332.954 85.5372 332.754 85.9165 332.784 86.2926C332.835 86.6694 333.073 87.021 333.501 87.3474C333.929 87.6529 334.453 87.8678 335.075 87.9919C335.697 88.0952 336.375 88.0649 337.11 87.9009C337.845 87.716 338.555 87.3428 339.241 86.7811C339.01 86.1693 338.775 85.7031 338.535 85.3828C338.296 85.0416 338.033 84.783 337.747 84.6071C337.461 84.4312 337.141 84.3167 336.789 84.2637C336.436 84.2107 336.041 84.1772 335.604 84.1632ZM341.856 75.4217L342.855 74.4845L349.326 87.1985L352.65 75.2051C352.794 75.2723 352.948 75.3294 353.113 75.3763C353.279 75.4025 353.424 75.4384 353.548 75.4841C353.693 75.5096 353.806 75.5445 353.888 75.5888C353.97 75.6331 354.009 75.7073 354.006 75.8114C353.693 77.1354 353.392 78.3764 353.105 79.5345C352.839 80.6932 352.552 81.82 352.246 82.9149C351.94 84.0098 351.613 85.1145 351.264 86.2289C350.917 87.3225 350.515 88.4664 350.06 89.6608L348.842 89.6217L341.856 75.4217ZM353.712 86.9327C353.75 85.7458 354.1 84.8921 354.763 84.3714C355.447 83.8514 356.32 83.6084 357.382 83.6425C357.798 83.6558 358.183 83.6786 358.536 83.7108C358.911 83.7436 359.263 83.807 359.593 83.901C359.924 83.995 360.243 84.1303 360.55 84.3069C360.877 84.4841 361.213 84.7346 361.557 85.0583C361.559 84.9959 361.563 84.8709 361.569 84.6835C361.597 84.476 361.614 84.2577 361.622 84.0286C361.629 83.7996 361.636 83.5913 361.642 83.4039C361.648 83.1957 361.653 83.0499 361.656 82.9667C361.647 82.5912 361.652 82.1119 361.67 81.5289C361.69 80.925 361.657 80.3091 361.573 79.6811C361.51 79.0537 361.342 78.4543 361.068 77.8827C360.816 77.3118 360.382 76.8706 359.766 76.559C359.329 76.545 358.921 76.6049 358.541 76.7386C358.162 76.8723 357.782 77.0165 357.402 77.171C357.022 77.3256 356.642 77.4697 356.262 77.6035C355.883 77.7164 355.475 77.7658 355.038 77.7518C355.055 77.2312 355.225 76.8094 355.548 76.4862C355.892 76.1429 356.297 75.8849 356.761 75.7122C357.225 75.5395 357.708 75.4299 358.209 75.3835C358.711 75.3371 359.15 75.3199 359.524 75.3319C359.897 75.4064 360.238 75.4903 360.548 75.5836C360.879 75.6776 361.175 75.8538 361.438 76.1124C361.721 76.3716 361.969 76.7652 362.182 77.2931C362.415 77.8009 362.601 78.5155 362.738 79.437C362.896 80.3593 363.015 81.5303 363.094 82.9503C363.195 84.3501 363.255 86.0716 363.273 88.1149C363.306 88.3869 363.204 88.6234 362.968 88.8243C362.754 89.005 362.457 89.1622 362.078 89.2959C361.699 89.4089 361.269 89.5097 360.786 89.5984C360.325 89.667 359.855 89.7145 359.375 89.7408C358.894 89.767 358.435 89.7836 357.997 89.7904C357.559 89.7972 357.195 89.7959 356.903 89.7865C356.528 89.7745 356.145 89.6997 355.754 89.562C355.383 89.4251 355.034 89.2367 354.709 88.997C354.404 88.7371 354.153 88.4372 353.956 88.0974C353.78 87.7374 353.698 87.3492 353.712 86.9327ZM357.842 84.8766C356.792 85.1347 356.052 85.4653 355.622 85.8684C355.193 86.2507 354.993 86.6299 355.023 87.006C355.073 87.3829 355.312 87.7344 355.739 88.0608C356.167 88.3664 356.692 88.5812 357.313 88.7054C357.935 88.8087 358.614 88.7783 359.348 88.6143C360.084 88.4295 360.794 88.0562 361.479 87.4946C361.249 86.8827 361.013 86.4166 360.774 86.0962C360.534 85.7551 360.272 85.4965 359.986 85.3206C359.699 85.1446 359.38 85.0302 359.027 84.9772C358.675 84.9242 358.28 84.8906 357.842 84.8766Z" fill="#88B1D5"/>
            <g id="draw/arrow_3">
                <path id="Vector 44" d="M322.446 94.771C319.78 100.938 302.64 152.479 248.558 150.663" stroke="#88B1D5"/>
                <path id="Vector 303_3" d="M252.065 147.831L248.405 150.524L251.46 154.085" stroke="#88B1D5" stroke-linecap="round"/>
            </g>
            <path id="draw:reverse/mask_3" d="M316.266 69.7424C314.966 68.9899 311.751 67.69 309.289 68.511C306.21 69.5372 302.311 73.9495 302.004 76.6172C301.696 79.2849 301.08 82.3631 302.414 84.3126C303.748 86.262 305.389 87.2881 307.749 87.2881C310.109 87.2881 312.982 87.1855 314.008 85.8516C315.034 84.5178 314.008 79.6953 310.827 79.1823C308.283 78.7719 306.484 78.1905 305.902 77.9511L316.163 76.925L316.368 91.0845L319.138 75.5912C319.309 78.6009 319.713 85.4823 321.191 86.4673C323.037 87.6985 325.192 87.0829 326.013 85.749C326.67 84.6819 327.791 78.8745 328.27 76.1042L329.707 88.622L332.99 87.6985C334.94 88.1089 338.982 88.6425 339.557 87.4933C340.275 86.0568 337.505 82.8761 335.555 83.1839C333.996 83.4302 332.511 84.723 331.964 85.3386C331.69 83.0129 331.595 77.9921 333.4 76.5146C335.658 74.6677 338.531 74.6677 338.839 75.899C339.085 76.884 340.993 82.3289 341.301 84.5178L342.327 74.5651L349.509 89.4428L353.306 75.3859L355.358 76.8224C356.521 76.07 359.093 74.8524 360.078 76.0016C361.309 77.438 362.54 82.4657 362.335 84.3126C362.13 86.1594 363.053 87.5959 361.925 88.2115C360.796 88.8272 358.539 89.3402 356.487 88.7246C354.434 88.1089 353.306 85.236 355.255 84.5178C356.815 83.9432 358.983 84.2784 359.872 84.5178" stroke="#1E1E1E" stroke-width="4" stroke-linecap="round"/>
        </g>
    </g>
    <defs>
        <clipPath id="clip0_704_1477">
            <rect width="64" height="106" fill="white" transform="translate(172.741 55.5317)"/>
        </clipPath>
    </defs>
</svg>
