<svg width="420" height="312" viewBox="0 0 420 312" fill="none" xmlns="http://www.w3.org/2000/svg">
<path d="M230.38 7.58878C230.401 6.92245 230.67 6.35785 231.185 5.89496C231.721 5.41192 232.359 5.03633 233.097 4.76819C233.836 4.47923 234.603 4.27457 235.399 4.15419C236.195 4.013 236.875 3.95142 237.437 3.96946C237.999 3.98749 238.558 4.09923 239.115 4.30467C239.692 4.51078 240.193 4.79784 240.619 5.16585C241.046 5.51304 241.365 5.96101 241.576 6.50974C241.81 7.03832 241.874 7.64485 241.768 8.32933C241.63 9.38794 241.246 10.3136 240.616 11.1063C240.007 11.8997 239.256 12.5635 238.364 13.0976C237.493 13.6116 236.542 13.998 235.512 14.2568C234.504 14.4954 233.532 14.5997 232.595 14.5696C232.57 15.3401 232.576 16.1115 232.614 16.884C232.653 17.6356 232.691 18.3976 232.728 19.17C232.787 19.9432 232.835 20.7159 232.873 21.4884C232.911 22.24 232.918 23.001 232.894 23.7714C232.886 24.0005 232.858 24.2185 232.81 24.4254C232.762 24.6114 232.57 24.7512 232.234 24.8446L231.628 24.2311C231.629 24.2103 231.607 23.9178 231.562 23.3536C231.518 22.7893 231.448 22.0575 231.352 21.1582C231.276 20.2594 231.184 19.2455 231.074 18.1164C230.986 16.9672 230.898 15.8179 230.809 14.6687C230.721 13.5194 230.632 12.4118 230.541 11.3459C230.471 10.2806 230.406 9.36137 230.348 8.58826C230.348 8.56744 230.35 8.51538 230.353 8.43209C230.356 8.3488 230.359 8.2551 230.362 8.15099C230.365 8.04688 230.369 7.94276 230.372 7.83865C230.375 7.73454 230.378 7.65125 230.38 7.58878ZM232.093 8.76931C232.079 9.20659 232.066 9.61263 232.054 9.98744C232.063 10.3629 232.082 10.7283 232.112 11.0836C232.164 11.4396 232.225 11.8064 232.296 12.1838C232.367 12.5613 232.468 12.9918 232.599 13.4754C233.247 13.392 234.024 13.2189 234.929 12.9562C235.834 12.6934 236.7 12.3251 237.528 11.8514C238.377 11.3784 239.093 10.8282 239.676 10.2007C240.26 9.55241 240.564 8.82223 240.59 8.01014C240.604 7.57287 240.513 7.18431 240.315 6.84447C240.118 6.4838 239.857 6.1836 239.531 5.94387C239.226 5.7048 238.878 5.51645 238.486 5.37882C238.095 5.24119 237.711 5.16637 237.337 5.15434C236.733 5.13497 236.116 5.18814 235.487 5.31386C234.878 5.44024 234.319 5.65159 233.809 5.9479C233.32 6.24487 232.912 6.62781 232.584 7.09671C232.277 7.56628 232.114 8.12381 232.093 8.76931ZM241.534 22.4541C241.572 21.2672 241.923 20.4134 242.585 19.8927C243.269 19.3727 244.142 19.1297 245.204 19.1638C245.62 19.1772 246.005 19.1999 246.359 19.2321C246.733 19.265 247.085 19.3284 247.415 19.4224C247.746 19.5163 248.065 19.6516 248.372 19.8282C248.699 20.0055 249.035 20.256 249.379 20.5797C249.381 20.5172 249.385 20.3923 249.391 20.2049C249.419 19.9973 249.436 19.779 249.444 19.55C249.451 19.3209 249.458 19.1127 249.464 18.9253C249.47 18.7171 249.475 18.5713 249.478 18.488C249.469 18.1125 249.474 17.6333 249.493 17.0502C249.512 16.4464 249.48 15.8304 249.396 15.2024C249.332 14.5751 249.164 13.9756 248.89 13.4041C248.638 12.8332 248.204 12.3919 247.588 12.0804C247.151 12.0664 246.743 12.1262 246.363 12.2599C245.984 12.3937 245.604 12.5378 245.224 12.6924C244.844 12.8469 244.464 12.9911 244.084 13.1248C243.706 13.2377 243.298 13.2872 242.86 13.2731C242.877 12.7526 243.047 12.3307 243.37 12.0076C243.714 11.6643 244.119 11.4063 244.583 11.2336C245.047 11.0609 245.53 10.9513 246.032 10.9049C246.533 10.8584 246.972 10.8412 247.346 10.8532C247.719 10.9277 248.06 11.0116 248.37 11.1049C248.701 11.1989 248.997 11.3752 249.26 11.6337C249.543 11.893 249.791 12.2865 250.004 12.8145C250.238 13.3222 250.423 14.0369 250.56 14.9584C250.718 15.8806 250.837 17.0517 250.916 18.4716C251.017 19.8714 251.077 21.593 251.095 23.6363C251.128 23.9083 251.026 24.1447 250.791 24.3456C250.576 24.5263 250.279 24.6836 249.9 24.8173C249.521 24.9302 249.091 25.031 248.608 25.1198C248.148 25.1884 247.677 25.2358 247.197 25.2621C246.717 25.2884 246.257 25.3049 245.82 25.3117C245.382 25.3185 245.017 25.3172 244.725 25.3079C244.351 25.2959 243.967 25.221 243.576 25.0834C243.205 24.9464 242.857 24.7581 242.531 24.5184C242.226 24.2585 241.976 23.9586 241.778 23.6188C241.602 23.2588 241.521 22.8705 241.534 22.4541ZM245.665 20.398C244.614 20.6561 243.874 20.9867 243.444 21.3898C243.015 21.772 242.815 22.1513 242.845 22.5274C242.895 22.9042 243.134 23.2558 243.561 23.5822C243.989 23.8877 244.514 24.1026 245.135 24.2267C245.757 24.33 246.436 24.2997 247.17 24.1357C247.906 23.9508 248.616 23.5776 249.301 23.0159C249.071 22.4041 248.836 21.9379 248.596 21.6176C248.356 21.2764 248.094 21.0178 247.808 20.8419C247.521 20.666 247.202 20.5515 246.849 20.4985C246.497 20.4455 246.102 20.412 245.665 20.398ZM253.076 17.4153C252.991 17.4751 252.876 17.4923 252.731 17.4668C252.586 17.4413 252.451 17.4057 252.328 17.3601C252.205 17.2936 252.093 17.217 251.991 17.1304C251.911 17.0236 251.873 16.9078 251.877 16.7828C251.9 16.0749 252.139 15.4364 252.595 14.8674C253.052 14.2775 253.61 13.7847 254.269 13.389C254.928 12.9724 255.626 12.6613 256.362 12.4557C257.099 12.2292 257.769 12.1256 258.373 12.145C259.331 12.1757 260.19 12.37 260.95 12.7279C261.731 13.0656 262.383 13.5243 262.906 14.1038C263.451 14.6841 263.856 15.3537 264.124 16.1127C264.412 16.8723 264.543 17.679 264.515 18.5327C264.501 19.6162 264.22 20.5972 263.67 21.4759C263.142 22.3552 262.451 23.1043 261.597 23.7231C260.765 24.3217 259.834 24.7712 258.803 25.0716C257.793 25.3519 256.8 25.4347 255.824 25.32C255.842 26.071 255.804 26.9244 255.711 27.8802C255.617 28.8569 255.5 29.9161 255.359 31.0581C255.218 32.2 255.044 33.4033 254.837 34.6682C254.649 35.9545 254.451 37.2717 254.241 38.6198C254.24 38.6407 254.177 38.6491 254.052 38.6451C253.928 38.6411 253.793 38.6159 253.648 38.5696C253.524 38.5447 253.39 38.5092 253.245 38.4628C253.121 38.438 253.048 38.4357 253.027 38.4558C253.228 36.7322 253.399 34.9868 253.539 33.2195C253.679 31.4523 253.767 29.673 253.804 27.8815C253.84 26.111 253.802 24.3484 253.692 22.594C253.582 20.8396 253.376 19.1133 253.076 17.4153ZM257.942 13.8821C257.546 13.8902 257.117 13.939 256.656 14.0284C256.195 14.097 255.785 14.2193 255.425 14.3953C255.065 14.5714 254.775 14.8122 254.557 15.1179C254.339 15.4236 254.254 15.8064 254.301 16.2665C254.336 16.4761 254.379 16.7797 254.429 17.1773C254.499 17.5756 254.568 18.026 254.635 18.5284C254.723 19.0315 254.8 19.5551 254.866 20.0991C254.953 20.6438 255.03 21.1674 255.097 21.6698C255.185 22.1729 255.254 22.6337 255.303 23.0521C255.374 23.4504 255.426 23.7544 255.461 23.9639C255.713 23.9303 256.068 23.9 256.527 23.8731C256.987 23.8461 257.479 23.7785 258.003 23.6703C258.528 23.5621 259.064 23.4125 259.612 23.2217C260.182 23.0106 260.713 22.715 261.204 22.3347C261.696 21.9545 262.128 21.4785 262.501 20.9068C262.895 20.315 263.168 19.5838 263.321 18.7133C263.347 17.9012 263.224 17.199 262.951 16.6066C262.678 16.0142 262.298 15.5226 261.81 15.1317C261.323 14.7201 260.739 14.4199 260.057 14.2313C259.397 14.0225 258.692 13.9061 257.942 13.8821ZM265.522 23.2236C265.56 22.0367 265.91 21.183 266.573 20.6623C267.257 20.1423 268.13 19.8993 269.192 19.9334C269.608 19.9467 269.993 19.9695 270.346 20.0017C270.72 20.0345 271.073 20.0979 271.403 20.1919C271.734 20.2859 272.052 20.4212 272.359 20.5978C272.687 20.7751 273.023 21.0255 273.367 21.3492C273.369 21.2868 273.373 21.1618 273.379 20.9744C273.407 20.7669 273.424 20.5486 273.431 20.3195C273.439 20.0905 273.445 19.8822 273.451 19.6948C273.458 19.4866 273.463 19.3409 273.465 19.2576C273.457 18.8821 273.462 18.4028 273.48 17.8198C273.5 17.2159 273.467 16.6 273.383 15.972C273.32 15.3446 273.152 14.7452 272.878 14.1736C272.625 13.6027 272.191 13.1615 271.576 12.8499C271.139 12.8359 270.73 12.8958 270.351 13.0295C269.971 13.1632 269.592 13.3074 269.212 13.4619C268.831 13.6165 268.452 13.7606 268.072 13.8944C267.693 14.0073 267.285 14.0567 266.848 14.0427C266.865 13.5221 267.035 13.1003 267.358 12.7771C267.702 12.4338 268.106 12.1758 268.57 12.0031C269.035 11.8304 269.518 11.7209 270.019 11.6744C270.521 11.628 270.959 11.6108 271.334 11.6228C271.707 11.6973 272.048 11.7812 272.358 11.8745C272.688 11.9685 272.985 12.1448 273.248 12.4033C273.531 12.6625 273.779 13.0561 273.991 13.584C274.225 14.0918 274.411 14.8064 274.548 15.728C274.706 16.6502 274.825 17.8212 274.904 19.2412C275.005 20.641 275.065 22.3625 275.082 24.4058C275.115 24.6778 275.014 24.9143 274.778 25.1152C274.564 25.2959 274.267 25.4531 273.888 25.5869C273.509 25.6998 273.078 25.8006 272.596 25.8894C272.135 25.9579 271.665 26.0054 271.184 26.0317C270.704 26.0579 270.245 26.0745 269.807 26.0813C269.369 26.0881 269.005 26.0868 268.713 26.0774C268.338 26.0654 267.955 25.9906 267.563 25.853C267.193 25.716 266.844 25.5277 266.518 25.2879C266.214 25.028 265.963 24.7282 265.766 24.3883C265.59 24.0283 265.508 23.6401 265.522 23.2236ZM269.652 21.1675C268.602 21.4256 267.862 21.7562 267.432 22.1593C267.003 22.5416 266.803 22.9208 266.832 23.297C266.883 23.6738 267.122 24.0254 267.549 24.3517C267.977 24.6573 268.502 24.8721 269.123 24.9963C269.745 25.0996 270.423 25.0693 271.158 24.9052C271.894 24.7204 272.604 24.3471 273.289 23.7855C273.058 23.1736 272.823 22.7075 272.583 22.3871C272.344 22.046 272.081 21.7874 271.795 21.6115C271.509 21.4355 271.19 21.3211 270.837 21.2681C270.484 21.2151 270.089 21.1816 269.652 21.1675ZM281.422 39.2417C281.456 38.2006 281.584 37.1312 281.807 36.0337C282.03 34.9361 282.252 33.8385 282.475 32.7409C282.719 31.644 282.921 30.5457 283.081 29.4461C283.262 28.3472 283.318 27.2651 283.248 26.1998L275.893 12.7696C276.365 12.3678 276.737 12.1505 277.009 12.1175C277.281 12.0637 277.438 12.0583 277.478 12.1013C277.617 12.3142 277.844 12.7071 278.159 13.28C278.495 13.8536 278.87 14.5222 279.283 15.2858C279.717 16.0501 280.171 16.8568 280.644 17.7057C281.117 18.5546 281.56 19.3609 281.973 20.1246C282.407 20.8889 282.771 21.5676 283.065 22.1606C283.379 22.7543 283.595 23.1677 283.713 23.4008L285.521 11.8591L287.058 12.69L282.825 39.3805L281.422 39.2417ZM287.323 23.9231C287.361 22.7362 287.711 21.8824 288.374 21.3617C289.058 20.8417 289.931 20.5987 290.993 20.6328C291.409 20.6462 291.794 20.6689 292.147 20.7011C292.522 20.7339 292.874 20.7974 293.204 20.8913C293.535 20.9853 293.854 21.1206 294.161 21.2972C294.488 21.4745 294.824 21.725 295.168 22.0487C295.17 21.9862 295.174 21.8613 295.18 21.6738C295.208 21.4663 295.225 21.248 295.233 21.0189C295.24 20.7899 295.247 20.5817 295.253 20.3943C295.259 20.186 295.264 20.0403 295.267 19.957C295.258 19.5815 295.263 19.1023 295.282 18.5192C295.301 17.9154 295.269 17.2994 295.184 16.6714C295.121 16.0441 294.953 15.4446 294.679 14.873C294.427 14.3021 293.993 13.8609 293.377 13.5494C292.94 13.5353 292.532 13.5952 292.152 13.7289C291.773 13.8627 291.393 14.0068 291.013 14.1614C290.633 14.3159 290.253 14.4601 289.873 14.5938C289.495 14.7067 289.087 14.7561 288.649 14.7421C288.666 14.2215 288.836 13.7997 289.159 13.4766C289.503 13.1333 289.908 12.8753 290.372 12.7025C290.836 12.5298 291.319 12.4203 291.821 12.3738C292.322 12.3274 292.761 12.3102 293.135 12.3222C293.508 12.3967 293.849 12.4806 294.159 12.5739C294.49 12.6679 294.786 12.8442 295.049 13.1027C295.332 13.3619 295.58 13.7555 295.793 14.2834C296.026 14.7912 296.212 15.5058 296.349 16.4274C296.507 17.3496 296.626 18.5207 296.705 19.9406C296.806 21.3404 296.866 23.0619 296.884 25.1052C296.917 25.3773 296.815 25.6137 296.58 25.8146C296.365 25.9953 296.068 26.1525 295.689 26.2863C295.31 26.3992 294.88 26.5 294.397 26.5888C293.937 26.6574 293.466 26.7048 292.986 26.7311C292.506 26.7574 292.046 26.7739 291.608 26.7807C291.171 26.7875 290.806 26.7862 290.514 26.7769C290.139 26.7648 289.756 26.69 289.365 26.5524C288.994 26.4154 288.646 26.2271 288.32 25.9873C288.015 25.7274 287.764 25.4276 287.567 25.0877C287.391 24.7277 287.31 24.3395 287.323 23.9231ZM291.453 21.8669C290.403 22.1251 289.663 22.4557 289.233 22.8588C288.804 23.241 288.604 23.6202 288.634 23.9964C288.684 24.3732 288.923 24.7248 289.35 25.0511C289.778 25.3567 290.303 25.5715 290.924 25.6957C291.546 25.799 292.225 25.7687 292.959 25.6047C293.695 25.4198 294.405 25.0466 295.09 24.4849C294.86 23.873 294.624 23.4069 294.385 23.0866C294.145 22.7454 293.883 22.4868 293.597 22.3109C293.31 22.135 292.991 22.0205 292.638 21.9675C292.286 21.9145 291.891 21.881 291.453 21.8669Z" fill="#88B1D5"/>
<path d="M248.317 75.0003C248.045 74.9515 247.864 74.6916 247.913 74.4198L248.708 69.9906C248.757 69.7188 249.017 69.5381 249.288 69.5869C249.56 69.6356 249.741 69.8955 249.692 70.1673L248.985 74.1044L252.922 74.8112C253.194 74.86 253.375 75.1199 253.326 75.3917C253.277 75.6635 253.018 75.8443 252.746 75.7955L248.317 75.0003ZM269.037 32.3701C269 37.1419 267.939 44.9666 264.884 52.9966C261.829 61.0272 256.764 69.303 248.69 74.9186L248.119 74.0977C255.975 68.6336 260.939 60.5537 263.949 52.641C266.96 44.7276 268.001 37.0212 268.037 32.3622L269.037 32.3701Z" fill="#88B1D5"/>
<path d="M134.821 21.1492C134.759 21.1264 134.688 21.0616 134.608 20.9548C134.528 20.848 134.459 20.7311 134.4 20.6042C134.342 20.4772 134.294 20.3506 134.256 20.2244C134.219 20.0981 134.211 20.0041 134.234 19.9423C134.258 19.8596 134.323 19.7575 134.432 19.6359C134.54 19.5143 134.658 19.3931 134.787 19.2722C134.917 19.1304 135.046 19.0095 135.174 18.9094C135.302 18.8093 135.408 18.7605 135.491 18.7632C135.743 18.7088 136.131 18.6274 136.656 18.5192C137.202 18.3908 137.811 18.254 138.483 18.1088C139.154 17.9636 139.857 17.8194 140.591 17.6762C141.346 17.5337 142.059 17.4002 142.73 17.2758C143.423 17.1313 144.031 17.0049 144.556 16.8967C145.101 16.7891 145.5 16.7185 145.751 16.6849C145.856 16.6674 146.023 16.6519 146.252 16.6384C146.503 16.6256 146.764 16.6132 147.035 16.601C147.307 16.5889 147.557 16.5761 147.787 16.5626C148.037 16.5498 148.204 16.5447 148.288 16.5474C148.275 16.943 148.214 17.2329 148.103 17.4169C148.015 17.5808 147.876 17.691 147.686 17.7475C147.518 17.8046 147.319 17.8295 147.09 17.8221C146.861 17.8148 146.6 17.8377 146.306 17.8908C146.096 17.9466 145.749 18.0293 145.266 18.1388C144.783 18.2484 144.248 18.3771 143.659 18.525C143.072 18.6521 142.442 18.7882 141.77 18.9334C141.12 19.0793 140.489 19.2258 139.88 19.373C139.292 19.5209 138.756 19.66 138.272 19.7904C137.81 19.9007 137.464 19.9833 137.233 20.0385C136.909 20.3824 136.722 20.6995 136.671 20.9897C136.62 21.2799 136.588 21.6228 136.575 22.0184C136.546 22.9138 136.571 23.7692 136.649 24.5846C136.749 25.3799 136.866 26.2591 137.002 27.2223C137.044 27.2236 137.095 27.2357 137.157 27.2585C137.241 27.2612 137.303 27.2632 137.345 27.2645C137.907 27.2826 138.45 27.2375 138.975 27.1292C139.521 27.0008 140.057 26.8617 140.583 26.7118C141.13 26.5626 141.676 26.4342 142.221 26.3266C142.788 26.1989 143.363 26.1444 143.946 26.1631C144.029 26.1658 144.164 26.1805 144.351 26.2074C144.559 26.2141 144.756 26.2516 144.941 26.3201C145.127 26.3678 145.271 26.4349 145.373 26.5216C145.474 26.6082 145.491 26.7234 145.424 26.8671L137.288 29.0449L137.013 37.6029C136.638 37.5909 136.348 37.5295 136.143 37.4187C135.938 37.3288 135.796 37.1991 135.718 37.0299C135.641 36.8398 135.596 36.6299 135.582 36.4002C135.569 36.1497 135.557 35.8679 135.547 35.5549C135.516 35.1996 135.482 34.6461 135.444 33.8945C135.405 33.1429 135.359 32.2972 135.306 31.3575C135.274 30.3977 135.234 29.3958 135.184 28.352C135.134 27.3082 135.082 26.3165 135.029 25.3768C134.976 24.4163 134.931 23.5602 134.893 22.8086C134.854 22.057 134.83 21.5038 134.821 21.1492ZM147.761 13.4664C148.051 13.5174 148.299 13.6087 148.503 13.7403C148.729 13.8518 148.899 14.0553 149.015 14.3508C149.002 14.7465 148.995 15.2986 148.993 16.0072C149.012 16.6957 149.018 17.4984 149.009 18.4152C149.022 19.3328 149.032 20.3232 149.039 21.3865C149.047 22.4498 149.054 23.5235 149.061 24.6076C149.068 25.6917 149.065 26.7651 149.051 27.8277C149.059 28.891 149.058 29.881 149.05 30.7979C149.062 31.7154 149.067 32.5285 149.065 33.2372C149.064 33.9458 149.067 34.4879 149.076 34.8633C149.074 34.905 149.062 34.9775 149.038 35.081C149.034 35.1851 149.02 35.3097 148.994 35.4548C148.99 35.6005 148.975 35.746 148.949 35.891C148.945 36.016 148.942 36.1097 148.94 36.1722C148.915 36.2964 148.9 36.4523 148.894 36.6397C148.888 36.8062 148.862 36.9722 148.815 37.1374C148.768 37.3026 148.69 37.4565 148.582 37.5989C148.494 37.7212 148.346 37.7894 148.137 37.8035L147.627 37.1306C147.607 37.1091 147.588 36.7228 147.571 35.9719C147.575 35.2008 147.565 34.2104 147.541 33.0007C147.539 31.7708 147.541 30.3952 147.548 28.8738C147.556 27.3316 147.554 25.7786 147.541 24.2149C147.55 22.6519 147.556 21.1513 147.561 19.7132C147.565 18.2751 147.574 17.0352 147.586 15.9934C147.589 15.9101 147.594 15.7435 147.602 15.4936C147.631 15.2444 147.65 14.9949 147.658 14.745C147.687 14.475 147.706 14.2255 147.713 13.9964C147.742 13.7472 147.758 13.5705 147.761 13.4664ZM150.571 32.1286C150.586 31.6497 150.645 31.0992 150.749 30.4772C150.853 29.8344 151.009 29.1932 151.217 28.5537C151.425 27.9142 151.674 27.2865 151.965 26.6705C152.277 26.0552 152.638 25.5144 153.049 25.0482C153.46 24.5611 153.931 24.1802 154.461 23.9054C154.992 23.6097 155.58 23.4723 156.225 23.493C156.892 23.5144 157.499 23.7631 158.046 24.2393C158.614 24.7161 159.085 25.3252 159.457 26.0667C159.85 26.8088 160.136 27.6309 160.316 28.533C160.495 29.435 160.551 30.3123 160.482 31.1647C160.441 32.414 160.166 33.5203 159.656 34.4836C159.146 35.4469 158.506 36.2185 157.737 36.7983C156.989 37.3788 156.185 37.7594 155.324 37.9403C154.485 38.1218 153.695 38.0443 152.955 37.7079C152.237 37.3514 151.643 36.7174 151.172 35.806C150.721 34.8953 150.521 33.6695 150.571 32.1286ZM151.722 32.2906C151.744 33.5628 151.931 34.5485 152.284 35.2476C152.637 35.9468 153.07 36.4193 153.583 36.665C154.118 36.8906 154.701 36.9093 155.332 36.7211C155.963 36.533 156.558 36.1873 157.116 35.6841C157.675 35.16 158.154 34.5084 158.555 33.7292C158.976 32.9298 159.224 32.031 159.298 31.0329C159.363 30.2846 159.324 29.5538 159.18 28.8405C159.057 28.1278 158.859 27.4962 158.585 26.9454C158.332 26.3745 158.002 25.9262 157.596 25.6005C157.211 25.2547 156.758 25.0734 156.238 25.0567C155.738 25.0407 155.286 25.1512 154.883 25.3884C154.479 25.6256 154.104 25.9575 153.756 26.3841C153.431 26.7905 153.145 27.2607 152.898 27.7948C152.652 28.3288 152.437 28.8638 152.253 29.3999C152.09 29.9366 151.958 30.4639 151.858 30.9818C151.779 31.4795 151.734 31.9158 151.722 32.2906ZM167.266 37.9795L161.624 23.8225L162.463 23.0052L167.275 34.7906L169.894 27.2144L175.658 35.6536C175.878 34.6393 176.025 33.6227 176.1 32.6037C176.196 31.5646 176.249 30.5345 176.261 29.5135C176.295 28.4724 176.318 27.4205 176.331 26.3579C176.365 25.296 176.431 24.235 176.527 23.1751L177.854 23.7179C177.804 25.2796 177.762 26.6018 177.727 27.6846C177.692 28.7674 177.663 29.6836 177.639 30.4332C177.615 31.162 177.586 31.7551 177.55 32.2125C177.536 32.6706 177.513 33.0659 177.481 33.3984C177.47 33.7316 177.44 34.0432 177.389 34.3334C177.338 34.6028 177.276 34.9134 177.202 35.2654C177.129 35.5966 177.043 36.0107 176.944 36.5078C176.844 37.0048 176.719 37.6574 176.568 38.4655C175.939 37.945 175.334 37.3003 174.754 36.5313C174.174 35.7623 173.626 34.9944 173.109 34.2274C172.612 33.4611 172.134 32.7579 171.675 32.1178C171.217 31.457 170.795 30.9744 170.409 30.6702L167.266 37.9795ZM178.983 31.4143C179.003 30.7896 179.16 30.1068 179.455 29.3659C179.751 28.6041 180.138 27.9078 180.617 27.277C181.117 26.6261 181.666 26.0913 182.263 25.6727C182.881 25.234 183.513 25.025 184.159 25.0457C184.513 25.0571 184.854 25.141 185.182 25.2974C185.532 25.4545 185.858 25.663 186.163 25.9229C186.489 26.1627 186.771 26.4427 187.011 26.7631C187.273 27.0633 187.471 27.3823 187.606 27.7201C187.741 28.058 187.804 28.3831 187.793 28.6954C187.804 29.0084 187.712 29.2764 187.518 29.4995L180.888 30.5062C180.804 30.5243 180.728 30.6261 180.659 30.8115C180.592 30.9761 180.533 31.193 180.482 31.4624C180.432 31.7317 180.381 32.0323 180.328 32.3642C180.297 32.6758 180.267 32.9875 180.236 33.2992C180.206 33.59 180.186 33.8604 180.178 34.1103C180.171 34.3393 180.165 34.5163 180.161 34.6412C180.143 35.2243 180.263 35.7075 180.521 36.091C180.802 36.4544 181.157 36.7367 181.588 36.9382C182.02 37.1396 182.505 37.2802 183.044 37.3601C183.605 37.4406 184.155 37.4895 184.697 37.5069C185.238 37.5243 185.749 37.5198 186.229 37.4935C186.71 37.4672 187.106 37.4591 187.418 37.4691C187.416 37.5524 187.381 37.6451 187.316 37.7472C187.25 37.8493 187.173 37.9511 187.087 38.0525C187.001 38.1332 186.915 38.2138 186.829 38.2944C186.744 38.3542 186.69 38.3942 186.669 38.4143C186.501 38.4506 186.239 38.5047 185.882 38.5767C185.547 38.6285 185.18 38.6792 184.783 38.729C184.406 38.7795 184.05 38.8202 183.716 38.8511C183.381 38.8821 183.152 38.8955 183.027 38.8915C182.377 38.9958 181.815 38.9673 181.341 38.8062C180.867 38.6451 180.469 38.3822 180.147 38.0175C179.825 37.6528 179.568 37.2173 179.376 36.7109C179.184 36.1836 179.046 35.6268 178.96 35.0404C178.875 34.4541 178.832 33.8482 178.831 33.2228C178.851 32.5982 178.902 31.9953 178.983 31.4143ZM183.683 26.2186C183.496 26.2126 183.243 26.3087 182.924 26.5069C182.626 26.6849 182.337 26.9258 182.056 27.2294C181.797 27.5129 181.568 27.8287 181.369 28.1766C181.192 28.5045 181.131 28.7943 181.185 29.0462C181.724 29.126 182.287 29.1336 182.873 29.0691C183.458 29.0045 183.993 28.8966 184.478 28.7454C184.963 28.5733 185.365 28.3778 185.685 28.1587C186.005 27.9189 186.159 27.6737 186.146 27.4232C186.154 27.1733 185.963 26.9483 185.574 26.7482C185.205 26.528 184.575 26.3514 183.683 26.2186ZM188.758 26.8817C189.012 26.7856 189.231 26.7717 189.416 26.8402C189.602 26.9087 189.754 27.0282 189.874 27.1988C189.993 27.3694 190.081 27.5702 190.136 27.8013C190.192 28.0115 190.237 28.2214 190.272 28.431C190.557 27.9816 190.954 27.6295 191.463 27.3749C191.993 27.1001 192.55 26.9304 193.136 26.8658C193.723 26.7804 194.306 26.7782 194.887 26.8594C195.469 26.9198 195.954 27.0604 196.343 27.2813C196.754 27.4821 197.037 27.7621 197.192 28.1215C197.348 28.46 197.293 28.8543 197.029 29.3043C196.497 28.9746 195.933 28.7064 195.335 28.4996C194.758 28.2935 194.187 28.2127 193.623 28.2571C193.059 28.3015 192.531 28.5035 192.04 28.8629C191.55 29.2015 191.136 29.7615 190.798 30.5427C190.461 31.3239 190.229 32.3691 190.104 33.6783C190 34.9673 190.042 36.584 190.229 38.5286L189.043 38.4905C189.043 38.4905 189.027 38.3232 188.996 37.9887C188.987 37.6341 188.97 37.175 188.947 36.6114C188.944 36.0486 188.922 35.4225 188.882 34.7334C188.862 34.0449 188.843 33.346 188.824 32.6367C188.805 31.9274 188.785 31.2493 188.764 30.6025C188.765 29.9355 188.752 29.3619 188.726 28.8816C188.728 28.8192 188.721 28.6939 188.706 28.5058C188.712 28.3184 188.719 28.1206 188.725 27.9124C188.733 27.6833 188.739 27.4751 188.745 27.2877C188.751 27.1003 188.756 26.9649 188.758 26.8817ZM199.349 36.8826C199.724 36.8947 200.065 36.9786 200.373 37.1344C200.702 37.2908 201.019 37.4677 201.325 37.6652C201.632 37.8418 201.94 38.0079 202.247 38.1637C202.576 38.2994 202.928 38.3732 203.303 38.3852C203.741 38.3992 204.191 38.3407 204.653 38.2097C205.138 38.0584 205.582 37.8538 205.986 37.5958C206.391 37.317 206.725 36.9838 206.988 36.5962C207.251 36.1877 207.39 35.7441 207.405 35.2651C207.431 35.12 207.437 34.943 207.422 34.7342C207.429 34.5259 207.373 34.3157 207.255 34.1035C207.138 33.8704 206.936 33.6555 206.65 33.4587C206.366 33.2412 205.944 33.0713 205.385 32.9492C204.847 32.8277 204.161 32.7536 203.328 32.7268C202.496 32.6793 201.463 32.7191 200.229 32.8463C199.917 32.8363 199.618 32.7433 199.332 32.5674C199.046 32.3706 198.793 32.1436 198.572 31.8864C198.351 31.6083 198.173 31.3212 198.037 31.025C197.901 30.708 197.837 30.4142 197.846 30.1435C197.872 29.3314 198.06 28.6808 198.409 28.1918C198.78 27.6826 199.24 27.2909 199.791 27.0167C200.342 26.7218 200.953 26.5225 201.624 26.4189C202.294 26.3154 202.973 26.2746 203.66 26.2967C203.972 26.3067 204.325 26.3389 204.72 26.3932C205.136 26.4274 205.508 26.5227 205.836 26.6791C206.186 26.8154 206.471 27.033 206.691 27.3319C206.931 27.6314 207.043 28.0415 207.026 28.562C206.973 28.9147 206.904 29.1313 206.818 29.2119C206.753 29.2724 206.65 29.2482 206.508 29.1394C206.387 29.0105 206.236 28.8389 206.055 28.6247C205.874 28.4104 205.652 28.2053 205.387 28.0092C205.144 27.7929 204.837 27.6267 204.465 27.5106C204.114 27.3951 203.708 27.3821 203.247 27.4715C202.768 27.4562 202.287 27.4929 201.805 27.5816C201.324 27.6495 200.881 27.7917 200.478 28.008C200.096 28.2251 199.774 28.5274 199.511 28.915C199.269 29.3033 199.139 29.7993 199.12 30.4032C199.11 30.7155 199.238 30.9385 199.505 31.0721C199.793 31.1856 200.166 31.2497 200.624 31.2644C201.103 31.2797 201.634 31.2864 202.218 31.2842C202.823 31.262 203.438 31.2609 204.063 31.2809C204.687 31.3009 205.29 31.3724 205.869 31.4952C206.45 31.5972 206.954 31.801 207.382 32.1065C207.831 32.3919 208.172 32.7989 208.406 33.3275C208.639 33.856 208.711 34.5358 208.622 35.3667C208.602 35.9705 208.407 36.5375 208.035 37.0675C207.685 37.5982 207.232 38.0631 206.678 38.4622C206.144 38.8411 205.551 39.1348 204.898 39.3431C204.246 39.5514 203.618 39.6147 203.016 39.5328C202.767 39.504 202.426 39.4305 201.992 39.3124C201.579 39.1741 201.168 38.9941 200.758 38.7725C200.369 38.5516 200.034 38.2907 199.752 37.9899C199.47 37.6682 199.336 37.2991 199.349 36.8826Z" fill="#88B1D5"/>
<path d="M124.055 73.319C123.829 73.1592 123.776 72.8471 123.936 72.6219L126.54 68.9519C126.7 68.7267 127.012 68.6736 127.237 68.8334C127.463 68.9932 127.516 69.3053 127.356 69.5306L125.041 72.7928L128.303 75.1075C128.529 75.2673 128.582 75.5794 128.422 75.8046C128.262 76.0298 127.95 76.0828 127.725 75.923L124.055 73.319ZM145.123 42.4775C145.94 46.8983 145.891 53.7394 143.077 59.9268C140.249 66.1447 134.64 71.6691 124.428 73.4042L124.26 72.4183C134.133 70.7409 139.471 65.4402 142.166 59.5128C144.876 53.555 144.929 46.9309 144.139 42.6592L145.123 42.4775Z" fill="#88B1D5"/>
<path d="M185.319 285.212C185.236 285.188 185.134 285.122 185.012 285.014C184.911 284.907 184.811 284.789 184.711 284.661C184.632 284.533 184.563 284.406 184.504 284.279C184.446 284.152 184.418 284.047 184.421 283.964C184.505 283.278 184.771 282.776 185.219 282.457C185.689 282.118 186.217 281.895 186.804 281.789C187.391 281.683 187.997 281.64 188.622 281.66C189.246 281.68 189.777 281.697 190.215 281.711C190.943 281.734 191.608 281.797 192.21 281.9C192.832 281.982 193.368 282.166 193.818 282.452C194.268 282.716 194.62 283.092 194.876 283.58C195.131 284.067 195.245 284.728 195.219 285.561C195.205 285.977 195.172 286.351 195.12 286.683C195.089 286.995 195.027 287.305 194.934 287.615C194.841 287.904 194.706 288.223 194.528 288.571C194.351 288.899 194.12 289.277 193.835 289.706C194.68 290.004 195.38 290.287 195.934 290.555C196.489 290.802 196.917 291.108 197.218 291.472C197.519 291.815 197.714 292.238 197.802 292.741C197.912 293.224 197.954 293.851 197.93 294.621C197.9 295.537 197.675 296.395 197.253 297.194C196.831 297.994 196.278 298.685 195.592 299.267C194.927 299.85 194.152 300.305 193.266 300.631C192.38 300.936 191.449 301.073 190.47 301.041C190.262 301.035 189.982 300.994 189.63 300.921C189.278 300.826 188.896 300.72 188.483 300.602C188.07 300.464 187.648 300.315 187.215 300.155C186.783 299.975 186.393 299.785 186.045 299.586C185.698 299.387 185.412 299.191 185.189 298.996C184.987 298.802 184.889 298.611 184.895 298.424L185.319 285.212ZM187.149 292.493C187.174 292.994 187.137 293.514 187.036 294.053C186.935 294.591 186.846 295.11 186.767 295.607C186.689 296.105 186.653 296.583 186.659 297.042C186.665 297.48 186.778 297.88 186.995 298.241C187.213 298.602 187.578 298.927 188.09 299.214C188.602 299.481 189.315 299.681 190.228 299.814C190.998 299.839 191.763 299.728 192.521 299.481C193.301 299.215 193.99 298.851 194.588 298.391C195.208 297.91 195.716 297.343 196.112 296.689C196.509 296.014 196.721 295.27 196.747 294.458C196.764 293.917 196.685 293.455 196.51 293.075C196.334 292.694 196.094 292.384 195.789 292.145C195.485 291.885 195.116 291.696 194.682 291.578C194.269 291.46 193.823 291.394 193.344 291.379C192.74 291.359 192.198 291.363 191.718 291.389C191.238 291.394 190.757 291.441 190.275 291.53C189.814 291.599 189.331 291.719 188.825 291.89C188.341 292.041 187.782 292.242 187.149 292.493ZM186.628 289.225C186.623 289.391 186.627 289.568 186.642 289.757C186.658 289.924 186.684 290.081 186.721 290.228C186.779 290.355 186.869 290.473 186.991 290.581C187.113 290.668 187.278 290.715 187.487 290.722C188.195 290.744 188.928 290.632 189.686 290.386C190.444 290.139 191.133 289.786 191.752 289.326C192.392 288.868 192.921 288.322 193.337 287.689C193.775 287.036 194.007 286.303 194.033 285.491C194.035 285.408 194.018 285.293 193.981 285.146C193.945 284.978 193.857 284.808 193.716 284.637C193.576 284.466 193.362 284.303 193.075 284.147C192.789 283.972 192.398 283.823 191.902 283.703C191.426 283.584 190.824 283.502 190.096 283.458C189.368 283.414 188.482 283.427 187.437 283.498C187.394 283.538 187.338 283.672 187.268 283.899C187.219 284.126 187.157 284.416 187.084 284.768C187.031 285.1 186.978 285.473 186.923 285.889C186.889 286.284 186.845 286.689 186.79 287.104C186.756 287.499 186.723 287.883 186.69 288.257C186.657 288.631 186.637 288.954 186.628 289.225ZM199.14 293.909C199.161 293.285 199.318 292.602 199.613 291.861C199.908 291.099 200.295 290.403 200.774 289.772C201.274 289.121 201.823 288.586 202.42 288.168C203.039 287.729 203.671 287.52 204.316 287.541C204.67 287.552 205.011 287.636 205.34 287.793C205.689 287.95 206.016 288.158 206.32 288.418C206.646 288.658 206.929 288.938 207.169 289.258C207.43 289.558 207.628 289.877 207.763 290.215C207.898 290.553 207.961 290.878 207.951 291.191C207.962 291.504 207.87 291.772 207.675 291.995L201.046 293.001C200.962 293.019 200.885 293.121 200.817 293.307C200.749 293.471 200.69 293.688 200.64 293.958C200.589 294.227 200.538 294.527 200.486 294.859C200.455 295.171 200.424 295.483 200.393 295.794C200.363 296.085 200.344 296.356 200.336 296.605C200.329 296.834 200.323 297.011 200.319 297.136C200.3 297.719 200.42 298.203 200.679 298.586C200.959 298.95 201.315 299.232 201.746 299.433C202.177 299.635 202.663 299.775 203.202 299.855C203.762 299.936 204.313 299.985 204.854 300.002C205.396 300.019 205.907 300.015 206.387 299.989C206.867 299.962 207.263 299.954 207.576 299.964C207.573 300.048 207.539 300.14 207.473 300.242C207.407 300.344 207.331 300.446 207.244 300.548C207.158 300.628 207.072 300.709 206.986 300.79C206.901 300.849 206.848 300.889 206.826 300.909C206.658 300.946 206.396 301 206.039 301.072C205.704 301.124 205.338 301.174 204.94 301.224C204.563 301.275 204.208 301.315 203.873 301.346C203.539 301.377 203.309 301.391 203.184 301.387C202.535 301.491 201.973 301.462 201.498 301.301C201.024 301.14 200.626 300.877 200.304 300.513C199.983 300.148 199.726 299.712 199.533 299.206C199.342 298.679 199.203 298.122 199.118 297.536C199.033 296.949 198.989 296.343 198.989 295.718C199.009 295.093 199.059 294.49 199.14 293.909ZM203.841 288.714C203.653 288.708 203.4 288.804 203.081 289.002C202.784 289.18 202.494 289.421 202.214 289.725C201.955 290.008 201.726 290.324 201.527 290.672C201.35 291 201.288 291.289 201.343 291.541C201.882 291.621 202.444 291.629 203.03 291.564C203.616 291.5 204.151 291.392 204.635 291.241C205.12 291.068 205.522 290.873 205.842 290.654C206.162 290.414 206.316 290.169 206.303 289.918C206.311 289.668 206.121 289.443 205.731 289.243C205.363 289.023 204.733 288.847 203.841 288.714ZM208.799 298.878C208.837 297.691 209.187 296.837 209.85 296.317C210.534 295.797 211.407 295.554 212.469 295.588C212.885 295.601 213.27 295.624 213.623 295.656C213.997 295.689 214.35 295.752 214.68 295.846C215.011 295.94 215.329 296.075 215.636 296.252C215.964 296.429 216.3 296.68 216.644 297.004C216.646 296.941 216.65 296.816 216.656 296.629C216.684 296.421 216.701 296.203 216.708 295.974C216.716 295.745 216.722 295.537 216.728 295.349C216.735 295.141 216.74 294.995 216.742 294.912C216.734 294.536 216.739 294.057 216.757 293.474C216.777 292.87 216.744 292.254 216.66 291.626C216.597 290.999 216.429 290.399 216.155 289.828C215.902 289.257 215.468 288.816 214.853 288.504C214.416 288.49 214.007 288.55 213.628 288.684C213.249 288.818 212.869 288.962 212.489 289.116C212.108 289.271 211.729 289.415 211.349 289.549C210.97 289.662 210.562 289.711 210.125 289.697C210.142 289.176 210.312 288.755 210.635 288.431C210.979 288.088 211.383 287.83 211.848 287.657C212.312 287.485 212.795 287.375 213.296 287.329C213.798 287.282 214.236 287.265 214.611 287.277C214.984 287.352 215.325 287.435 215.635 287.529C215.965 287.623 216.262 287.799 216.525 288.058C216.808 288.317 217.056 288.71 217.268 289.238C217.502 289.746 217.688 290.461 217.825 291.382C217.983 292.304 218.102 293.476 218.181 294.895C218.282 296.295 218.342 298.017 218.359 300.06C218.392 300.332 218.291 300.569 218.055 300.769C217.841 300.95 217.544 301.107 217.165 301.241C216.786 301.354 216.355 301.455 215.873 301.544C215.412 301.612 214.942 301.66 214.462 301.686C213.981 301.712 213.522 301.729 213.084 301.736C212.646 301.742 212.282 301.741 211.99 301.732C211.615 301.72 211.232 301.645 210.84 301.507C210.47 301.37 210.121 301.182 209.795 300.942C209.491 300.682 209.24 300.382 209.043 300.043C208.867 299.683 208.785 299.294 208.799 298.878ZM212.929 296.822C211.879 297.08 211.139 297.411 210.709 297.814C210.28 298.196 210.08 298.575 210.109 298.951C210.16 299.328 210.399 299.68 210.826 300.006C211.254 300.312 211.779 300.526 212.4 300.651C213.022 300.754 213.7 300.724 214.435 300.56C215.171 300.375 215.881 300.001 216.566 299.44C216.335 298.828 216.1 298.362 215.86 298.041C215.621 297.7 215.358 297.442 215.072 297.266C214.786 297.09 214.467 296.975 214.114 296.922C213.761 296.869 213.366 296.836 212.929 296.822ZM219.493 301.754C219.462 301.419 219.436 300.939 219.414 300.313C219.414 299.667 219.406 298.947 219.39 298.155C219.395 297.342 219.401 296.498 219.408 295.623C219.416 294.748 219.422 293.914 219.426 293.122C219.431 292.33 219.422 291.621 219.401 290.995C219.401 290.349 219.375 289.858 219.323 289.523C219.323 289.502 219.315 289.45 219.297 289.366C219.299 289.283 219.292 289.189 219.274 289.084C219.278 288.98 219.28 288.896 219.282 288.834C219.285 288.751 219.287 288.688 219.288 288.647C219.609 288.407 219.872 288.332 220.077 288.422C220.304 288.512 220.485 288.706 220.621 289.002C220.758 289.277 220.852 289.624 220.901 290.043C220.95 290.461 220.978 290.879 220.986 291.296C221.014 291.714 221.022 292.1 221.011 292.454C221 292.787 220.993 293.026 220.988 293.172C221.041 292.819 221.117 292.405 221.215 291.929C221.314 291.453 221.455 290.967 221.637 290.473C221.82 289.978 222.033 289.495 222.278 289.024C222.544 288.532 222.86 288.105 223.226 287.741C223.592 287.378 223.997 287.099 224.441 286.905C224.905 286.711 225.429 286.644 226.01 286.705C226.925 286.776 227.667 287.05 228.235 287.527C228.824 288.004 229.273 288.633 229.582 289.414C229.911 290.196 230.132 291.089 230.246 292.093C230.38 293.098 230.451 294.164 230.456 295.289C230.483 296.416 230.467 297.562 230.408 298.727C230.351 299.872 230.305 300.975 230.271 302.037C230.082 302.072 229.892 302.139 229.702 302.237C229.512 302.315 229.354 302.341 229.23 302.316C229.105 302.312 229.014 302.226 228.957 302.057C228.921 301.868 228.954 301.515 229.054 300.997C229.086 300.623 229.136 300.051 229.202 299.282C229.29 298.493 229.339 297.619 229.349 296.661C229.38 295.703 229.359 294.712 229.288 293.689C229.217 292.665 229.049 291.732 228.784 290.89C228.541 290.027 228.167 289.327 227.663 288.79C227.16 288.232 226.492 287.94 225.659 287.913C224.794 288.24 224.054 288.883 223.44 289.843C222.846 290.803 222.351 291.934 221.955 293.234C221.58 294.536 221.284 295.954 221.068 297.489C220.874 299.005 220.743 300.491 220.675 301.948C220.634 301.926 220.551 301.913 220.426 301.909C220.322 301.905 220.197 301.901 220.051 301.897C219.927 301.872 219.803 301.847 219.679 301.822C219.575 301.798 219.513 301.775 219.493 301.754ZM232.906 299.808C233.281 299.82 233.622 299.904 233.93 300.059C234.258 300.216 234.576 300.393 234.882 300.59C235.189 300.767 235.496 300.933 235.804 301.089C236.133 301.224 236.485 301.298 236.86 301.31C237.297 301.324 237.747 301.266 238.21 301.135C238.694 300.983 239.139 300.779 239.543 300.521C239.948 300.242 240.282 299.909 240.544 299.521C240.808 299.113 240.947 298.669 240.962 298.19C240.988 298.045 240.993 297.868 240.979 297.659C240.986 297.451 240.93 297.241 240.812 297.028C240.694 296.795 240.493 296.581 240.207 296.384C239.922 296.166 239.501 295.996 238.942 295.874C238.404 295.753 237.718 295.679 236.885 295.652C236.053 295.604 235.02 295.644 233.786 295.771C233.474 295.761 233.175 295.668 232.888 295.492C232.603 295.296 232.35 295.069 232.129 294.811C231.908 294.533 231.73 294.246 231.593 293.95C231.458 293.633 231.394 293.339 231.403 293.069C231.429 292.256 231.616 291.606 231.966 291.117C232.336 290.608 232.797 290.216 233.348 289.942C233.899 289.647 234.51 289.448 235.18 289.344C235.851 289.24 236.529 289.2 237.217 289.222C237.529 289.232 237.882 289.264 238.277 289.318C238.692 289.352 239.065 289.448 239.393 289.604C239.743 289.74 240.028 289.958 240.248 290.257C240.488 290.556 240.6 290.966 240.583 291.487C240.53 291.84 240.461 292.056 240.375 292.137C240.31 292.197 240.207 292.173 240.064 292.064C239.944 291.936 239.793 291.764 239.612 291.55C239.431 291.335 239.209 291.13 238.944 290.934C238.701 290.718 238.393 290.552 238.022 290.436C237.671 290.32 237.265 290.307 236.804 290.397C236.325 290.381 235.844 290.418 235.362 290.507C234.88 290.575 234.438 290.717 234.035 290.933C233.653 291.15 233.331 291.452 233.068 291.84C232.826 292.228 232.696 292.724 232.676 293.328C232.666 293.641 232.795 293.864 233.061 293.997C233.35 294.111 233.723 294.175 234.181 294.189C234.66 294.205 235.191 294.211 235.775 294.209C236.38 294.187 236.995 294.186 237.62 294.206C238.244 294.226 238.846 294.297 239.426 294.42C240.006 294.522 240.511 294.726 240.939 295.032C241.388 295.317 241.729 295.724 241.962 296.252C242.196 296.781 242.268 297.461 242.178 298.292C242.159 298.896 241.964 299.463 241.592 299.993C241.242 300.523 240.789 300.988 240.234 301.387C239.701 301.766 239.108 302.06 238.455 302.268C237.802 302.476 237.175 302.54 236.573 302.458C236.324 302.429 235.982 302.356 235.548 302.237C235.136 302.099 234.725 301.919 234.315 301.698C233.926 301.477 233.591 301.216 233.308 300.915C233.027 300.593 232.893 300.224 232.906 299.808ZM254.556 300.346C254.594 299.159 254.945 298.305 255.608 297.785C256.291 297.265 257.164 297.022 258.226 297.056C258.643 297.069 259.028 297.092 259.381 297.124C259.755 297.157 260.107 297.22 260.438 297.314C260.768 297.408 261.087 297.543 261.394 297.72C261.722 297.897 262.058 298.148 262.402 298.472C262.404 298.409 262.408 298.284 262.414 298.097C262.441 297.889 262.459 297.671 262.466 297.442C262.473 297.213 262.48 297.005 262.486 296.817C262.493 296.609 262.497 296.463 262.5 296.38C262.491 296.004 262.496 295.525 262.515 294.942C262.534 294.338 262.502 293.722 262.418 293.094C262.355 292.467 262.186 291.867 261.913 291.296C261.66 290.725 261.226 290.284 260.611 289.972C260.174 289.958 259.765 290.018 259.386 290.152C259.006 290.286 258.626 290.43 258.246 290.584C257.866 290.739 257.486 290.883 257.107 291.017C256.728 291.13 256.32 291.179 255.883 291.165C255.899 290.644 256.069 290.223 256.392 289.899C256.737 289.556 257.141 289.298 257.605 289.125C258.069 288.953 258.552 288.843 259.054 288.797C259.556 288.75 259.994 288.733 260.369 288.745C260.742 288.82 261.083 288.903 261.393 288.997C261.723 289.091 262.02 289.267 262.282 289.526C262.566 289.785 262.814 290.178 263.026 290.706C263.26 291.214 263.445 291.929 263.583 292.85C263.741 293.772 263.859 294.944 263.939 296.363C264.04 297.763 264.099 299.485 264.117 301.528C264.15 301.8 264.049 302.037 263.813 302.237C263.599 302.418 263.302 302.575 262.922 302.709C262.544 302.822 262.113 302.923 261.631 303.012C261.17 303.08 260.699 303.128 260.219 303.154C259.739 303.18 259.28 303.197 258.842 303.204C258.404 303.21 258.039 303.209 257.748 303.2C257.373 303.188 256.99 303.113 256.598 302.975C256.227 302.838 255.879 302.65 255.553 302.41C255.249 302.15 254.998 301.85 254.8 301.511C254.624 301.151 254.543 300.762 254.556 300.346ZM258.687 298.29C257.636 298.548 256.896 298.879 256.466 299.282C256.037 299.664 255.838 300.043 255.867 300.419C255.918 300.796 256.156 301.148 256.584 301.474C257.012 301.78 257.536 301.994 258.158 302.119C258.78 302.222 259.458 302.192 260.193 302.028C260.928 301.843 261.639 301.469 262.324 300.908C262.093 300.296 261.858 299.83 261.618 299.509C261.379 299.168 261.116 298.91 260.83 298.734C260.544 298.558 260.224 298.443 259.872 298.39C259.519 298.337 259.124 298.304 258.687 298.29ZM265.251 303.222C265.22 302.887 265.194 302.407 265.172 301.781C265.172 301.135 265.164 300.415 265.147 299.623C265.153 298.81 265.159 297.966 265.166 297.091C265.173 296.215 265.179 295.382 265.184 294.59C265.188 293.798 265.18 293.089 265.158 292.463C265.158 291.817 265.132 291.326 265.08 290.991C265.081 290.97 265.072 290.918 265.054 290.834C265.057 290.751 265.05 290.657 265.032 290.552C265.035 290.448 265.038 290.364 265.04 290.302C265.043 290.219 265.045 290.156 265.046 290.115C265.366 289.875 265.629 289.8 265.835 289.89C266.061 289.98 266.243 290.174 266.379 290.47C266.516 290.745 266.609 291.092 266.658 291.511C266.707 291.929 266.736 292.347 266.743 292.764C266.772 293.182 266.78 293.568 266.769 293.922C266.758 294.255 266.75 294.494 266.746 294.64C266.799 294.287 266.874 293.873 266.973 293.397C267.072 292.92 267.212 292.435 267.395 291.941C267.578 291.446 267.791 290.963 268.036 290.492C268.301 290 268.617 289.572 268.983 289.209C269.349 288.846 269.754 288.567 270.198 288.373C270.663 288.179 271.186 288.112 271.768 288.173C272.683 288.244 273.424 288.518 273.993 288.995C274.582 289.472 275.031 290.101 275.339 290.882C275.669 291.664 275.89 292.557 276.004 293.561C276.138 294.566 276.208 295.632 276.214 296.757C276.24 297.884 276.224 299.03 276.166 300.195C276.108 301.34 276.063 302.443 276.029 303.505C275.84 303.54 275.65 303.607 275.459 303.705C275.269 303.783 275.112 303.809 274.988 303.784C274.863 303.78 274.772 303.694 274.715 303.525C274.679 303.336 274.711 302.983 274.811 302.465C274.844 302.091 274.894 301.519 274.96 300.75C275.048 299.961 275.097 299.087 275.107 298.129C275.138 297.171 275.117 296.18 275.046 295.156C274.974 294.133 274.806 293.2 274.542 292.358C274.298 291.495 273.925 290.795 273.421 290.258C272.918 289.7 272.25 289.408 271.417 289.381C270.552 289.707 269.812 290.351 269.197 291.311C268.604 292.271 268.109 293.402 267.713 294.702C267.338 296.004 267.042 297.422 266.826 298.957C266.631 300.473 266.5 301.959 266.433 303.416C266.392 303.394 266.309 303.381 266.184 303.377C266.08 303.373 265.955 303.369 265.809 303.365C265.685 303.34 265.561 303.315 265.436 303.29C265.333 303.266 265.271 303.243 265.251 303.222ZM276.573 299.208C276.591 298.645 276.704 298.034 276.913 297.374C277.123 296.693 277.413 296.077 277.785 295.526C278.158 294.954 278.6 294.489 279.112 294.13C279.624 293.771 280.213 293.603 280.879 293.624C281.379 293.64 281.815 293.706 282.186 293.822C282.579 293.918 282.938 294.086 283.264 294.326C283.611 294.545 283.926 294.816 284.207 295.138C284.51 295.439 284.822 295.793 285.143 296.2L285.469 280.171C286.038 279.98 286.384 279.908 286.508 279.954C286.652 280 286.72 280.179 286.71 280.492C286.708 280.533 286.696 280.595 286.672 280.678C286.67 280.761 286.668 280.813 286.667 280.834C286.634 281.229 286.595 281.791 286.551 282.519C286.527 283.248 286.5 284.091 286.47 285.049C286.46 286.007 286.447 287.049 286.432 288.174C286.417 289.279 286.402 290.404 286.386 291.55C286.371 292.675 286.356 293.8 286.34 294.925C286.347 296.03 286.334 297.061 286.304 298.019C286.294 298.977 286.266 299.831 286.221 300.58C286.198 301.309 286.17 301.86 286.137 302.235C285.893 302.706 285.558 303.06 285.134 303.297C284.73 303.534 284.287 303.707 283.804 303.817C283.342 303.906 282.861 303.953 282.361 303.958C281.861 303.963 281.392 303.958 280.955 303.944C279.559 303.899 278.469 303.458 277.683 302.62C276.897 301.761 276.528 300.623 276.573 299.208ZM277.849 298.404C277.833 298.925 277.858 299.447 277.924 299.97C277.991 300.472 278.123 300.925 278.318 301.327C278.514 301.729 278.795 302.062 279.162 302.323C279.529 302.564 280.005 302.694 280.588 302.713C280.942 302.724 281.368 302.738 281.868 302.754C282.368 302.77 282.849 302.733 283.31 302.644C283.772 302.534 284.163 302.359 284.484 302.119C284.804 301.879 284.972 301.53 284.986 301.072C285.004 300.531 284.94 299.914 284.795 299.221C284.672 298.509 284.454 297.835 284.141 297.199C283.85 296.544 283.461 295.989 282.975 295.536C282.511 295.062 281.946 294.815 281.279 294.794C280.842 294.78 280.422 294.881 280.019 295.097C279.616 295.314 279.253 295.594 278.929 295.938C278.626 296.282 278.374 296.67 278.173 297.101C277.971 297.533 277.863 297.967 277.849 298.404ZM298.525 299.099C298.55 298.328 298.702 297.479 298.982 296.55C299.262 295.621 299.654 294.768 300.159 293.992C300.664 293.196 301.279 292.538 302.004 292.019C302.729 291.501 303.561 291.256 304.498 291.286C304.978 291.239 305.362 291.304 305.648 291.48C305.935 291.635 306.146 291.881 306.281 292.219C306.437 292.558 306.529 292.946 306.556 293.385C306.605 293.803 306.623 294.241 306.608 294.7C306.615 295.137 306.601 295.554 306.568 295.949C306.556 296.324 306.567 296.637 306.6 296.888L305.819 296.863C305.803 296.737 305.77 296.444 305.723 295.984C305.696 295.504 305.629 295.012 305.52 294.508C305.411 294.005 305.248 293.551 305.032 293.148C304.836 292.746 304.541 292.538 304.145 292.526C303.562 292.507 303.003 292.718 302.468 293.16C301.953 293.602 301.498 294.14 301.103 294.773C300.707 295.407 300.384 296.063 300.133 296.743C299.882 297.423 299.749 297.992 299.734 298.45C299.738 298.971 299.793 299.546 299.898 300.175C300.003 300.783 300.183 301.341 300.438 301.849C300.713 302.358 301.075 302.776 301.523 303.103C301.971 303.43 302.531 303.542 303.201 303.439C303.701 303.455 304.183 303.366 304.648 303.172C305.113 302.979 305.567 302.774 306.012 302.559C306.456 302.344 306.901 302.14 307.345 301.946C307.809 301.752 308.292 301.663 308.791 301.679C308.774 302.221 308.561 302.693 308.152 303.097C307.744 303.48 307.244 303.787 306.653 304.018C306.083 304.25 305.473 304.418 304.823 304.522C304.195 304.627 303.662 304.673 303.224 304.659C302.516 304.636 301.865 304.469 301.271 304.158C300.697 303.848 300.199 303.446 299.777 302.954C299.356 302.44 299.031 301.856 298.802 301.203C298.594 300.529 298.502 299.828 298.525 299.099ZM309.906 299.089C309.922 298.61 309.981 298.059 310.084 297.437C310.188 296.795 310.344 296.153 310.553 295.514C310.761 294.874 311.01 294.247 311.301 293.631C311.612 293.015 311.974 292.475 312.385 292.008C312.796 291.521 313.267 291.14 313.797 290.866C314.328 290.57 314.916 290.432 315.561 290.453C316.228 290.475 316.834 290.723 317.382 291.199C317.95 291.676 318.421 292.285 318.793 293.027C319.186 293.769 319.472 294.591 319.652 295.493C319.831 296.395 319.886 297.272 319.817 298.125C319.777 299.374 319.502 300.481 318.992 301.444C318.481 302.407 317.842 303.179 317.073 303.759C316.325 304.339 315.52 304.72 314.66 304.9C313.82 305.082 313.031 305.005 312.291 304.668C311.573 304.312 310.979 303.678 310.508 302.766C310.057 301.855 309.857 300.63 309.906 299.089ZM311.058 299.251C311.08 300.523 311.267 301.509 311.62 302.208C311.973 302.907 312.406 303.379 312.919 303.625C313.453 303.851 314.036 303.87 314.668 303.681C315.299 303.493 315.894 303.147 316.452 302.644C317.011 302.12 317.49 301.469 317.89 300.689C318.312 299.89 318.56 298.991 318.634 297.993C318.699 297.245 318.66 296.514 318.516 295.801C318.393 295.088 318.195 294.456 317.92 293.906C317.668 293.335 317.338 292.886 316.932 292.561C316.547 292.215 316.094 292.034 315.574 292.017C315.074 292.001 314.622 292.111 314.218 292.349C313.815 292.586 313.439 292.918 313.092 293.344C312.767 293.751 312.48 294.221 312.234 294.755C311.988 295.289 311.772 295.824 311.588 296.36C311.425 296.897 311.294 297.424 311.194 297.942C311.115 298.44 311.07 298.876 311.058 299.251ZM320.858 292.968C321.111 292.872 321.331 292.858 321.516 292.927C321.702 292.995 321.854 293.115 321.974 293.285C322.093 293.456 322.181 293.657 322.236 293.888C322.292 294.098 322.337 294.308 322.372 294.517C322.657 294.068 323.054 293.716 323.563 293.461C324.093 293.186 324.65 293.017 325.236 292.952C325.822 292.867 326.406 292.865 326.987 292.946C327.569 293.006 328.054 293.147 328.443 293.368C328.854 293.569 329.136 293.849 329.292 294.208C329.447 294.546 329.393 294.941 329.129 295.391C328.597 295.061 328.033 294.793 327.435 294.586C326.858 294.38 326.287 294.299 325.723 294.344C325.159 294.388 324.631 294.59 324.14 294.949C323.65 295.288 323.236 295.848 322.898 296.629C322.56 297.41 322.329 298.456 322.204 299.765C322.1 301.054 322.142 302.67 322.329 304.615L321.142 304.577C321.142 304.577 321.127 304.41 321.096 304.075C321.087 303.721 321.07 303.261 321.046 302.698C321.044 302.135 321.022 301.509 320.982 300.82C320.962 300.131 320.943 299.432 320.924 298.723C320.905 298.014 320.885 297.336 320.864 296.689C320.865 296.022 320.852 295.448 320.825 294.968C320.827 294.906 320.821 294.78 320.806 294.592C320.812 294.405 320.819 294.207 320.825 293.999C320.833 293.77 320.839 293.562 320.845 293.374C320.851 293.187 320.856 293.051 320.858 292.968ZM330.186 305.305C330.155 304.97 330.129 304.49 330.107 303.864C330.107 303.218 330.099 302.498 330.083 301.706C330.088 300.893 330.094 300.049 330.102 299.174C330.109 298.299 330.115 297.465 330.119 296.673C330.124 295.881 330.115 295.172 330.094 294.546C330.094 293.9 330.068 293.409 330.016 293.074C330.016 293.053 330.008 293.001 329.99 292.917C329.992 292.834 329.985 292.74 329.967 292.635C329.971 292.531 329.973 292.448 329.975 292.385C329.978 292.302 329.98 292.239 329.981 292.198C330.302 291.958 330.565 291.883 330.77 291.973C330.997 292.064 331.178 292.257 331.314 292.553C331.452 292.829 331.545 293.175 331.594 293.594C331.643 294.012 331.671 294.43 331.679 294.847C331.707 295.265 331.715 295.651 331.704 296.005C331.693 296.338 331.686 296.578 331.681 296.723C331.734 296.371 331.81 295.956 331.908 295.48C332.007 295.004 332.148 294.518 332.33 294.024C332.513 293.53 332.726 293.047 332.971 292.575C333.237 292.083 333.553 291.656 333.919 291.292C334.285 290.929 334.69 290.65 335.134 290.456C335.598 290.262 336.122 290.196 336.703 290.256C337.618 290.327 338.36 290.601 338.928 291.078C339.517 291.555 339.966 292.185 340.275 292.966C340.604 293.747 340.825 294.64 340.939 295.645C341.074 296.649 341.144 297.715 341.149 298.84C341.176 299.967 341.16 301.113 341.101 302.278C341.044 303.423 340.998 304.526 340.964 305.588C340.775 305.624 340.585 305.691 340.395 305.789C340.205 305.866 340.047 305.892 339.923 305.867C339.798 305.863 339.707 305.777 339.65 305.608C339.614 305.42 339.647 305.066 339.747 304.548C339.78 304.174 339.829 303.603 339.895 302.834C339.983 302.044 340.032 301.17 340.042 300.212C340.073 299.254 340.053 298.263 339.981 297.24C339.91 296.216 339.742 295.283 339.477 294.441C339.234 293.578 338.86 292.879 338.356 292.341C337.853 291.783 337.185 291.491 336.352 291.464C335.487 291.791 334.747 292.434 334.133 293.394C333.539 294.355 333.044 295.485 332.648 296.786C332.273 298.087 331.977 299.505 331.761 301.041C331.567 302.556 331.436 304.042 331.368 305.499C331.327 305.477 331.244 305.464 331.119 305.46C331.015 305.456 330.89 305.452 330.744 305.448C330.62 305.423 330.496 305.398 330.372 305.373C330.268 305.349 330.206 305.326 330.186 305.305ZM343.599 303.359C343.974 303.371 344.315 303.455 344.623 303.611C344.951 303.767 345.269 303.944 345.575 304.141C345.882 304.318 346.19 304.484 346.497 304.64C346.826 304.776 347.178 304.849 347.553 304.861C347.99 304.875 348.44 304.817 348.903 304.686C349.387 304.535 349.832 304.33 350.236 304.072C350.641 303.793 350.975 303.46 351.237 303.072C351.501 302.664 351.64 302.22 351.655 301.741C351.681 301.596 351.686 301.419 351.672 301.21C351.679 301.002 351.623 300.792 351.505 300.58C351.387 300.347 351.186 300.132 350.9 299.935C350.615 299.717 350.194 299.548 349.635 299.425C349.097 299.304 348.411 299.23 347.578 299.203C346.746 299.156 345.713 299.195 344.479 299.323C344.167 299.312 343.868 299.22 343.581 299.044C343.296 298.847 343.043 298.62 342.822 298.363C342.601 298.085 342.423 297.797 342.286 297.501C342.151 297.184 342.087 296.89 342.096 296.62C342.122 295.808 342.31 295.157 342.659 294.668C343.029 294.159 343.49 293.767 344.041 293.493C344.592 293.198 345.203 292.999 345.873 292.895C346.544 292.792 347.223 292.751 347.91 292.773C348.222 292.783 348.575 292.815 348.97 292.869C349.385 292.904 349.758 292.999 350.086 293.155C350.436 293.292 350.721 293.509 350.941 293.808C351.181 294.108 351.293 294.518 351.276 295.038C351.223 295.391 351.154 295.608 351.068 295.688C351.003 295.749 350.9 295.724 350.758 295.616C350.637 295.487 350.486 295.315 350.305 295.101C350.124 294.887 349.902 294.682 349.637 294.485C349.394 294.269 349.086 294.103 348.715 293.987C348.364 293.871 347.958 293.858 347.497 293.948C347.018 293.932 346.537 293.969 346.055 294.058C345.573 294.126 345.131 294.268 344.728 294.484C344.346 294.701 344.024 295.004 343.761 295.391C343.519 295.78 343.389 296.276 343.369 296.879C343.359 297.192 343.488 297.415 343.754 297.548C344.043 297.662 344.416 297.726 344.874 297.741C345.353 297.756 345.884 297.763 346.468 297.76C347.073 297.738 347.688 297.737 348.313 297.757C348.937 297.777 349.539 297.849 350.119 297.971C350.699 298.073 351.204 298.277 351.632 298.583C352.081 298.868 352.422 299.275 352.655 299.804C352.889 300.332 352.961 301.012 352.871 301.843C352.852 302.447 352.657 303.014 352.285 303.544C351.935 304.074 351.482 304.539 350.927 304.938C350.394 305.317 349.801 305.611 349.148 305.819C348.495 306.028 347.868 306.091 347.266 306.009C347.017 305.98 346.675 305.907 346.241 305.789C345.829 305.65 345.418 305.47 345.008 305.249C344.619 305.028 344.284 304.767 344.001 304.466C343.72 304.144 343.586 303.775 343.599 303.359Z" fill="#88B1D5"/>
<path d="M152.934 204.074C152.83 203.818 152.539 203.694 152.283 203.797L148.109 205.478C147.852 205.581 147.728 205.872 147.831 206.128C147.935 206.384 148.226 206.508 148.482 206.405L152.193 204.911L153.686 208.622C153.79 208.878 154.081 209.002 154.337 208.899C154.593 208.796 154.717 208.505 154.614 208.248L152.934 204.074ZM175.723 284.83C168.134 280.375 157.862 271 151.776 257.382C145.699 243.782 143.785 225.927 152.93 204.457L152.01 204.065C142.755 225.794 144.674 243.939 150.863 257.79C157.044 271.621 167.472 281.146 175.217 285.692L175.723 284.83Z" fill="#88B1D5"/>
<path d="M59.2477 128.02C32.7854 140.435 16.2464 156.99 16.2464 175.2C16.2464 213.275 90.6717 244.729 181.636 244.729C272.6 244.729 347.025 213.275 347.025 175.2C347.025 156.99 330.486 140.435 303.197 128.02" stroke="white" stroke-miterlimit="10" stroke-linecap="round" stroke-linejoin="round"/>
<path d="M49.3238 153.679C46.016 157.817 44.3621 161.956 44.3621 166.922C44.3621 193.41 105.556 214.93 181.635 214.93C257.715 214.93 318.909 193.41 318.909 166.922C318.909 160.301 314.774 153.679 308.158 147.885" stroke="white" stroke-miterlimit="10" stroke-linecap="round" stroke-linejoin="round"/>
<path d="M125.403 219.069C118.788 219.069 111.345 218.241 104.73 216.586" stroke="white" stroke-miterlimit="10" stroke-linecap="round" stroke-linejoin="round"/>
<path d="M120.442 226.518C113.826 227.346 107.211 225.691 101.422 223.208" stroke="white" stroke-miterlimit="10" stroke-linecap="round" stroke-linejoin="round"/>
<path d="M83.229 207.481C82.4021 211.62 80.7482 214.93 78.2673 218.241" stroke="white" stroke-miterlimit="10" stroke-linecap="round" stroke-linejoin="round"/>
<path d="M55.9396 195.893C59.2474 198.376 62.5552 200.031 66.6899 201.687" stroke="white" stroke-miterlimit="10" stroke-linecap="round" stroke-linejoin="round"/>
<path d="M48.4969 200.031C51.8046 203.342 56.7663 206.653 61.728 207.481" stroke="white" stroke-miterlimit="10" stroke-linecap="round" stroke-linejoin="round"/>
<path d="M45.1895 185.96C41.0547 186.788 36.92 188.443 33.6122 189.271" stroke="white" stroke-miterlimit="10" stroke-linecap="round" stroke-linejoin="round"/>
<path d="M36.92 165.267C36.92 168.578 37.747 172.717 39.4009 176.028C37.747 176.028 36.0931 175.2 34.4392 175.2" stroke="white" stroke-miterlimit="10" stroke-linecap="round" stroke-linejoin="round"/>
<path d="M139.461 219.069C139.461 223.208 139.461 227.347 139.461 231.485" stroke="white" stroke-miterlimit="10" stroke-linecap="round" stroke-linejoin="round"/>
<path d="M151.866 221.552C159.309 221.552 165.924 222.38 173.367 222.38" stroke="white" stroke-miterlimit="10" stroke-linecap="round" stroke-linejoin="round"/>
<path d="M152.693 232.313C159.308 232.313 165.924 231.485 172.54 231.485" stroke="white" stroke-miterlimit="10" stroke-linecap="round" stroke-linejoin="round"/>
<path d="M192.386 220.725C193.213 224.863 194.04 229.83 194.867 233.968" stroke="white" stroke-miterlimit="10" stroke-linecap="round" stroke-linejoin="round"/>
<path d="M225.464 229.001C219.676 230.657 214.714 230.657 208.925 230.657" stroke="white" stroke-miterlimit="10" stroke-linecap="round" stroke-linejoin="round"/>
<path d="M222.156 221.552C217.195 222.38 212.233 223.208 207.271 223.208" stroke="white" stroke-miterlimit="10" stroke-linecap="round" stroke-linejoin="round"/>
<path d="M234.56 219.069C236.214 223.208 237.868 227.347 239.522 231.485" stroke="white" stroke-miterlimit="10" stroke-linecap="round" stroke-linejoin="round"/>
<path d="M265.158 224.035C259.369 226.518 252.754 227.346 246.138 228.174" stroke="white" stroke-miterlimit="10" stroke-linecap="round" stroke-linejoin="round"/>
<path d="M261.023 214.103C256.888 216.586 251.927 218.242 246.138 218.242" stroke="white" stroke-miterlimit="10" stroke-linecap="round" stroke-linejoin="round"/>
<path d="M275.908 209.137C277.561 213.275 280.042 216.586 283.35 219.897" stroke="white" stroke-miterlimit="10" stroke-linecap="round" stroke-linejoin="round"/>
<path d="M303.197 206.653C300.716 209.964 296.582 212.447 292.447 212.447" stroke="white" stroke-miterlimit="10" stroke-linecap="round" stroke-linejoin="round"/>
<path d="M298.235 199.204C294.928 201.687 291.62 204.17 287.485 205.825" stroke="white" stroke-miterlimit="10" stroke-linecap="round" stroke-linejoin="round"/>
<path d="M306.505 194.237C309.813 196.72 313.121 199.204 314.774 202.515" stroke="white" stroke-miterlimit="10" stroke-linecap="round" stroke-linejoin="round"/>
<path d="M331.313 188.443C329.66 191.754 326.352 194.237 323.044 195.893" stroke="white" stroke-miterlimit="10" stroke-linecap="round" stroke-linejoin="round"/>
<path d="M325.524 184.305C323.871 187.616 321.39 190.926 318.082 192.582" stroke="white" stroke-miterlimit="10" stroke-linecap="round" stroke-linejoin="round"/>
<path d="M324.698 174.372C328.833 174.372 333.794 175.199 337.929 176.855" stroke="white" stroke-miterlimit="10" stroke-linecap="round" stroke-linejoin="round"/>
<path d="M326.352 154.507C329.66 156.99 331.313 161.129 331.313 165.267C328.833 165.267 326.352 163.612 324.698 161.129" stroke="white" stroke-miterlimit="10" stroke-linecap="round" stroke-linejoin="round"/>
<path d="M272.6 178.51C277.561 180.166 282.523 180.993 287.485 181.821C317.255 185.96 312.293 146.229 302.37 129.675C294.1 115.603 280.042 104.843 264.33 100.704C251.926 97.3933 237.041 99.0488 228.771 108.154C222.156 115.603 221.329 127.191 223.81 136.296" stroke="white" stroke-miterlimit="10" stroke-linecap="round" stroke-linejoin="round"/>
<path d="M83.7184 174.296C84.555 160.868 77.0256 155.832 77.0256 155.832C73.6792 157.511 58.6429 176.819 78.7214 184.372C78.7214 185.212 82.8818 178.493 83.7184 174.296Z" fill="white"/>
<path d="M96.7023 170.672C96.7023 170.672 89.1729 174.868 89.1729 179.904C89.1729 184.94 90.8461 187.458 93.3559 187.458C96.7023 187.458 95.0291 190.815 98.3755 192.493C101.722 193.333 104.232 192.493 104.232 192.493C104.232 192.493 102.558 186.618 102.558 184.1C103.395 181.583 96.7023 170.672 96.7023 170.672Z" fill="white"/>
<path d="M73.7641 139.364C73.7641 139.364 64.5615 138.525 61.2151 141.882C58.7053 146.079 55.3589 146.079 55.3589 151.114C55.3589 156.15 61.0169 162.223 61.0169 162.223L63.355 157.997L64.4341 152.961L60.3785 149.436L75.4373 141.043L73.7641 139.364Z" fill="white"/>
<path d="M223.8 138.207C223.8 138.207 218.78 123.939 223.8 114.707C229.656 105.475 230.493 102.957 238.859 100.439C247.225 97.9215 263.957 96.2429 279.852 106.314C295.748 116.386 309.133 129.814 309.97 154.154C310.806 178.493 300.767 181.011 297.421 182.689C294.074 184.368 272.323 177.654 272.323 177.654C272.323 177.654 274.832 170.1 271.486 160.029C268.14 149.957 263.957 144.082 256.427 140.725C248.898 137.368 240.532 136.529 234.676 137.368C227.983 138.207 223.8 138.207 223.8 138.207Z" fill="white"/>
<path d="M272.629 165.439C272.629 174.474 265.436 183.939 257.067 187.225C254.556 188.046 251.208 188.046 248.697 189.689C247.023 190.511 245.349 192.154 243.676 192.975C238.654 196.261 232.795 197.082 226.936 196.261C221.078 195.439 216.056 192.975 211.871 188.868C206.849 185.582 202.665 180.654 199.317 174.904C197.643 171.618 196.806 166.689 196.806 161.761L195.969 163.404C192.621 187.225 207.686 207.761 234.469 207.761C251.208 207.761 249.534 202.011 263.762 193.796C277.991 185.582 272.629 166.26 272.629 165.439Z" fill="white"/>
<path d="M196.563 162.823C196.563 160.961 197.506 160.03 197.506 158.168C199.392 152.582 204.106 147.927 209.763 144.203C214.478 141.41 221.078 139.548 227.678 137.686" stroke="white" stroke-miterlimit="10" stroke-linecap="round" stroke-linejoin="round"/>
<path d="M272.781 163.773C272.781 163.773 276.735 185.96 263.503 193.41C249.445 200.859 251.926 207.481 234.56 207.481C208.098 207.481 194.04 186.788 196.521 162.784" stroke="white" stroke-miterlimit="10" stroke-linecap="round" stroke-linejoin="round"/>
<path d="M239.522 143.747C236.214 143.747 233.733 147.057 233.733 150.368C233.733 153.679 235.387 156.99 237.868 159.473C240.349 161.957 242.003 164.44 242.83 167.751C243.657 170.234 243.657 173.545 244.484 176.028C246.138 179.339 251.099 180.994 255.234 178.511C258.542 176.856 261.023 172.717 260.196 168.578" stroke="white" stroke-miterlimit="10" stroke-linecap="round" stroke-linejoin="round"/>
<path d="M209.751 152.851C211.405 152.024 213.059 150.368 214.713 150.368C216.367 149.541 218.848 150.368 220.502 151.196C222.156 152.851 222.983 155.335 222.983 157.818C223.809 164.44 227.944 170.234 232.906 173.545C235.387 175.2 237.868 176.855 237.868 179.339C238.695 182.649 236.214 185.96 232.906 186.788C229.598 187.616 226.29 186.788 223.809 186.788" stroke="white" stroke-miterlimit="10" stroke-linecap="round" stroke-linejoin="round"/>
<path d="M271.983 163.188C273.176 164.863 275.135 170.756 273.43 180.928" stroke="#1E1E1E" stroke-linecap="round" stroke-linejoin="round"/>
<path d="M218.021 183.477C213.886 180.994 210.578 176.855 209.752 171.889" stroke="white" stroke-miterlimit="10" stroke-linecap="round" stroke-linejoin="round"/>
<path d="M353.641 221.552C356.122 221.552 356.949 224.036 356.949 226.519C356.122 231.485 351.16 234.796 346.198 237.279C342.064 238.935 337.929 240.59 333.794 241.418C322.217 243.901 323.044 232.313 330.486 227.347C335.448 224.863 348.679 220.725 353.641 221.552Z" fill="white" stroke="white" stroke-miterlimit="10" stroke-linecap="round" stroke-linejoin="round"/>
<path d="M317.255 251.35C313.12 248.867 307.332 249.695 302.37 251.35C299.889 252.178 296.581 253.834 294.927 255.489C293.273 257.972 291.62 261.283 293.273 263.766C294.927 267.905 299.889 267.905 304.024 267.905C308.158 267.905 318.909 267.905 321.39 263.766C324.697 259.628 321.39 253.006 317.255 251.35Z" fill="white" stroke="white" stroke-miterlimit="10" stroke-linecap="round" stroke-linejoin="round"/>
<path d="M343.718 254.661C346.199 254.661 347.853 253.833 350.334 253.833C352.814 253.833 354.468 256.317 354.468 257.972C354.468 259.628 352.814 261.283 350.334 262.111C347.853 263.766 344.545 264.594 342.064 264.594C341.237 264.594 339.583 264.594 338.756 263.766C337.102 262.938 337.102 259.628 338.756 258.8C340.41 257.144 342.064 257.144 343.718 256.317" fill="white"/>
<path d="M343.718 254.661C346.199 254.661 347.853 253.833 350.334 253.833C352.814 253.833 354.468 256.317 354.468 257.972C354.468 259.628 352.814 261.283 350.334 262.111C347.853 263.766 344.545 264.594 342.064 264.594C341.237 264.594 339.583 264.594 338.756 263.766C337.102 262.938 337.102 259.628 338.756 258.8C340.41 257.144 342.064 257.144 343.718 256.317" stroke="white" stroke-miterlimit="10" stroke-linecap="round" stroke-linejoin="round"/>
<path d="M192.386 207.481C194.04 208.309 196.521 208.309 199.002 206.653C199.829 202.514 198.175 198.376 194.867 195.893C191.559 193.409 186.597 193.409 183.29 195.893C180.809 197.548 179.155 200.031 179.982 202.514C180.809 204.998 182.463 206.653 184.944 206.653C187.424 206.653 189.905 206.653 192.386 205.825" fill="white"/>
<path d="M192.386 207.481C194.04 208.309 196.521 208.309 199.002 206.653C199.829 202.514 198.175 198.376 194.867 195.893C191.559 193.409 186.597 193.409 183.29 195.893C180.809 197.548 179.155 200.031 179.982 202.514C180.809 204.998 182.463 206.653 184.944 206.653C187.424 206.653 189.905 206.653 192.386 205.825" stroke="white" stroke-miterlimit="10" stroke-linecap="round" stroke-linejoin="round"/>
<path d="M92.3257 127.192C83.2293 116.431 71.652 107.326 58.4208 101.532" stroke="white" stroke-width="3" stroke-miterlimit="10" stroke-linecap="round" stroke-linejoin="round"/>
<path d="M58.4209 99.877C57.5939 95.7383 60.0748 91.5997 63.3826 90.772C67.5173 89.9443 71.6521 92.4274 72.479 95.7383C71.6521 92.4274 69.9982 89.9443 67.5173 87.4611C65.0365 84.9779 60.9017 86.6334 58.4209 88.2888C55.9401 89.9443 50.9784 98.2215 54.2862 99.877" fill="white"/>
<path d="M58.4209 99.877C57.5939 95.7383 60.0748 91.5997 63.3826 90.772C67.5173 89.9443 71.6521 92.4274 72.479 95.7383C71.6521 92.4274 69.9982 89.9443 67.5173 87.4611C65.0365 84.9779 60.9017 86.6334 58.4209 88.2888C55.9401 89.9443 50.9784 98.2215 54.2862 99.877" stroke="white" stroke-miterlimit="10" stroke-linecap="round" stroke-linejoin="round"/>
<path d="M46.0166 105.671C43.5358 110.637 37.7471 112.293 32.7855 112.293C27.8238 112.293 22.0351 111.465 17.0734 111.465C15.4195 111.465 12.9387 111.465 11.2848 113.12C9.63091 114.776 8.80397 117.259 10.4579 118.087C7.97703 116.431 7.97703 112.293 10.4579 109.809C12.1118 107.326 15.4196 106.499 17.9004 105.671C17.9004 103.188 15.4195 101.532 12.9387 100.704C10.4579 100.704 7.97703 101.532 6.32313 104.015C4.66924 106.498 3.01534 108.154 2.1884 110.637C1.36145 108.154 0.534494 104.843 0.534494 102.36C0.534494 99.8767 1.36144 96.5658 3.01533 94.0826C4.66923 92.4272 7.97703 91.5995 10.4579 90.7717C13.7657 89.944 18.7273 88.2886 22.8621 88.2886C26.9968 88.2886 31.9585 89.944 35.2663 93.2549" stroke="white" stroke-miterlimit="10" stroke-linecap="round" stroke-linejoin="round"/>
<path d="M30.305 89.1165C26.1702 84.1501 22.0355 80.0115 17.9008 75.0452C18.7277 74.2174 20.3816 74.2174 21.2085 73.3897C21.2085 74.2174 22.8624 75.0452 23.6894 75.0452C24.5163 74.2174 25.3433 73.3897 24.5163 71.7343C23.6894 70.0788 23.6894 69.2511 22.8624 68.4234C20.3816 65.9402 17.9008 64.2848 17.0738 61.8016C14.593 59.3184 16.2469 55.1798 18.7277 55.1798C20.3816 55.1798 21.2085 55.1798 22.8624 55.1798C25.3433 54.3521 25.3433 51.8689 26.9972 50.2134C28.6511 46.9025 31.1319 46.0748 33.6128 46.9025C36.0936 46.9025 38.5744 49.3857 39.4014 51.8689C36.0936 54.3521 36.0936 59.3184 38.5745 62.6293C41.0553 65.9402 45.19 67.5956 47.6709 70.0788C53.4595 74.2174 56.7673 80.8392 57.5942 88.2887" stroke="white" stroke-miterlimit="10" stroke-linecap="round" stroke-linejoin="round"/>
<path d="M9.63101 90.7719C7.15017 89.1165 4.66931 87.461 2.18847 84.9778C1.36152 84.1501 0.534569 83.3224 0.534569 82.4947C0.534569 81.667 1.36152 80.8392 2.18847 80.0115C3.01542 79.1838 3.84238 79.1838 5.49627 79.1838C7.15017 78.3561 8.80404 77.5283 8.80404 75.8729C8.80404 73.3897 5.49627 71.7343 5.49627 69.2511C4.66932 66.7679 7.15017 65.1125 9.63101 64.2847C12.1119 63.457 14.5927 64.2847 16.2466 65.1125" stroke="white" stroke-miterlimit="10" stroke-linecap="round" stroke-linejoin="round"/>
<path d="M56.7671 102.36C53.4593 105.671 50.9785 109.809 50.9785 113.948C49.3246 112.293 47.6707 109.809 47.6707 107.326C47.6707 104.843 49.3246 102.36 51.8054 101.532" fill="white"/>
<path d="M56.7671 102.36C53.4593 105.671 50.9785 109.809 50.9785 113.948C49.3246 112.293 47.6707 109.809 47.6707 107.326C47.6707 104.843 49.3246 102.36 51.8054 101.532" stroke="white" stroke-miterlimit="10" stroke-linecap="round" stroke-linejoin="round"/>
<path d="M130.365 108.982C121.269 102.36 113.826 94.0829 106.384 85.8057C104.73 83.3225 103.076 81.6671 102.249 79.1839C101.422 76.7007 102.249 73.3898 103.903 71.7344" stroke="white" stroke-width="3" stroke-miterlimit="10" stroke-linecap="round" stroke-linejoin="round"/>
<path d="M103.902 71.7345C108.037 69.2513 112.999 69.2513 117.96 70.0791C115.48 68.4236 112.999 65.9404 110.518 65.1127C107.21 64.285 103.902 64.285 102.248 66.7682C99.7676 68.4236 99.7676 72.5622 101.421 75.0454C95.6329 71.7345 87.3634 72.5622 82.4017 77.5286C88.1903 75.0454 95.6329 76.7009 99.7676 81.6672" fill="white"/>
<path d="M103.902 71.7345C108.037 69.2513 112.999 69.2513 117.96 70.0791C115.48 68.4236 112.999 65.9404 110.518 65.1127C107.21 64.285 103.902 64.285 102.248 66.7682C99.7676 68.4236 99.7676 72.5622 101.421 75.0454C95.6329 71.7345 87.3634 72.5622 82.4017 77.5286C88.1903 75.0454 95.6329 76.7009 99.7676 81.6672" stroke="white" stroke-miterlimit="10" stroke-linecap="round" stroke-linejoin="round"/>
<path d="M109.691 64.2846C112.999 60.9737 114.653 56.835 115.48 51.8687C116.307 46.9024 115.48 42.7637 114.653 37.7974C113.826 33.6588 113.826 29.5202 112.999 25.3815C112.999 24.5538 112.999 24.5538 112.172 23.7261C111.345 22.0706 108.864 22.8984 108.037 24.5538C107.21 26.2093 107.21 27.8647 107.21 30.3479C107.21 32.8311 105.556 34.4865 103.902 33.6588C102.249 34.4865 100.595 32.0033 100.595 29.5202C100.595 27.037 101.422 25.3815 99.7677 23.7261C98.9408 22.8984 97.2869 22.8984 95.633 23.7261C94.806 24.5538 93.9791 25.3815 93.1522 27.037C89.0174 36.1419 88.1905 46.9024 92.3252 55.1796C91.4983 55.1796 90.6713 54.3519 89.8443 54.3519C88.1905 56.835 87.3635 60.9737 88.1905 63.4568C89.0174 66.7677 91.4983 69.2509 94.8061 70.0786" stroke="white" stroke-miterlimit="10" stroke-linecap="round" stroke-linejoin="round"/>
<path d="M88.1904 55.1795C84.0557 49.3854 79.9209 44.4191 74.9593 38.625C73.3054 41.9359 72.4784 46.0745 70.8245 49.3854C68.3437 49.3854 65.8628 47.73 64.2089 46.0745C62.5551 44.4191 60.9011 42.7636 58.4203 41.9359C55.9395 41.1082 52.6317 41.1082 51.8047 43.5913C50.1508 46.0745 50.9778 48.5577 52.6317 50.2131C54.2856 51.8686 56.7664 52.6963 59.2473 54.3518C68.3437 58.4904 74.9593 65.9399 79.921 75.0449" stroke="white" stroke-miterlimit="10" stroke-linecap="round" stroke-linejoin="round"/>
<path d="M89.0179 36.142C89.8448 34.4866 87.364 32.0034 85.7101 32.0034C83.2292 32.0034 82.4023 34.4866 81.5753 36.142C80.7484 37.7975 80.7484 40.2807 80.7484 42.7638" stroke="white" stroke-miterlimit="10" stroke-linecap="round" stroke-linejoin="round"/>
<path d="M233.733 101.532C234.56 91.5996 235.387 81.6669 234.56 71.7342C234.56 65.1125 232.906 57.6629 227.118 56.0075C223.81 54.352 219.675 56.0075 216.367 57.6629C213.06 59.3184 211.406 63.457 208.925 65.9402C201.482 76.7006 194.04 87.461 187.424 98.2214C182.463 104.843 177.501 112.293 175.02 120.57C172.539 128.847 171.712 137.952 175.847 145.402C179.982 152.851 188.251 158.645 196.521 156.162" stroke="white" stroke-miterlimit="10" stroke-linecap="round" stroke-linejoin="round"/>
<g clip-path="url(#clip0_470_202)">
<path d="M234.432 102.078C235.286 91.8196 235.97 83.1156 235.116 72.8575C235.116 66.0188 233.41 58.3253 227.436 56.6156C224.023 54.9059 218.444 55.446 215.884 58.0105C212.47 60.575 210.396 63.1348 208.689 66.5542C201.009 77.6671 194.187 86.9015 186.476 100.212C177.1 112.308 177.09 115.599 174.53 123.293C171.97 130.987 171.116 141.245 175.383 148.938C179.65 156.632 188.183 161.761 196.716 160.051L197.904 159.101C197.904 159.101 204.85 145.38 224.477 139.396C224.477 139.396 218.05 125.858 223.17 115.599C228.29 105.341 234.432 102.078 234.432 102.078Z" fill="white"/>
<path d="M234.827 101.511C234.827 101.511 213.298 111.096 223.257 138.305C223.257 138.305 200.633 145.681 196.106 160.192" stroke="#1E1E1E" stroke-miterlimit="10" stroke-linecap="round" stroke-linejoin="round"/>
</g>
<path d="M226.291 53.5245C227.118 51.8691 226.291 49.3859 225.464 47.7305" stroke="white" stroke-miterlimit="10" stroke-linecap="round" stroke-linejoin="round"/>
<path d="M237.868 85.8055C246.138 84.15 254.407 89.1164 256.061 97.3936" stroke="white" stroke-miterlimit="10" stroke-linecap="round" stroke-linejoin="round"/>
<path d="M194.04 82.4949C192.386 80.0117 190.732 76.7008 188.251 74.2176C186.598 71.7345 185.771 68.4236 183.29 67.5958C181.636 66.7681 173.366 73.3899 171.712 74.2176C167.578 75.8731 163.443 76.7008 158.481 78.3563C160.135 81.6672 163.443 84.1503 165.924 85.8058C173.366 91.5998 177.501 95.7385 183.29 102.36C176.674 99.8771 172.539 105.671 167.578 108.982C160.962 112.293 154.347 115.604 147.731 120.57C135.327 129.675 122.096 136.297 110.518 145.402C103.903 150.368 96.4603 157.818 88.1908 160.301C92.3255 163.612 95.6333 169.406 98.1141 173.545C99.768 176.028 101.422 178.511 102.249 180.994C103.076 183.477 103.076 186.788 103.903 190.099C104.73 192.582 109.691 196.721 105.557 198.376" stroke="white" stroke-miterlimit="10" stroke-linecap="round" stroke-linejoin="round"/>
<path d="M92.3848 165.414C89.904 167.069 88.1907 167.75 86.5368 169.406C82.4021 173.544 79.0943 181.822 81.5751 186.788C84.056 190.927 87.3638 189.271 89.8446 193.41C92.3254 197.548 102.4 199.12 105.708 198.293" stroke="white" stroke-miterlimit="10" stroke-linecap="round" stroke-linejoin="round"/>
<path d="M175.021 93.2549C160.962 94.9103 150.212 100.704 137.808 107.326C120.442 116.431 102.249 124.708 85.7102 135.469C77.4407 140.435 69.1712 144.574 60.9018 149.54L64.2096 152.851C65.8635 154.506 67.5173 154.506 69.1712 154.506C72.479 154.506 74.9599 154.506 77.4407 156.99C82.4024 161.128 84.8833 168.578 84.0563 174.372C83.2294 176.855 82.4024 179.338 80.7485 181.821C77.4407 187.615 71.6521 190.926 65.8635 185.96C61.7287 182.649 58.4209 176.027 59.2479 170.233C59.2479 165.267 64.2096 158.645 64.2096 153.679" stroke="white" stroke-miterlimit="10" stroke-linecap="round" stroke-linejoin="round"/>
<path d="M78.1235 184.201C58.2768 175.924 73.1915 157.562 76.4993 155.907" stroke="white" stroke-miterlimit="10" stroke-linecap="round" stroke-linejoin="round"/>
<path d="M167.578 87.4612C146.077 85.8057 127.057 94.083 107.21 101.532C89.8446 108.154 86.5368 101.532 47.6703 123.881C54.2858 123.053 61.7284 126.364 67.517 128.847C73.3056 131.331 75.7865 134.641 74.1326 140.436" stroke="white" stroke-miterlimit="10" stroke-linecap="round" stroke-linejoin="round"/>
<path d="M72.479 132.986C67.5173 132.986 60.9017 134.641 57.594 137.952C54.2862 141.263 40.5197 148.484 59.3983 165.82" stroke="white" stroke-miterlimit="10" stroke-linecap="round" stroke-linejoin="round"/>
<path d="M110.518 196.72L132.019 177.683" stroke="white" stroke-miterlimit="10" stroke-linecap="round" stroke-linejoin="round"/>
<path d="M165.097 202.515C161.789 204.17 158.481 204.17 154.347 203.343C151.866 203.343 148.558 202.515 147.731 200.032C146.904 197.548 148.558 195.065 150.212 193.41C153.52 190.099 163.443 185.96 168.405 188.443C175.847 191.754 170.059 200.032 165.097 202.515Z" fill="white" stroke="white" stroke-miterlimit="10" stroke-linecap="round" stroke-linejoin="round"/>
<path d="M163.443 161.956C163.443 157.817 164.27 153.679 162.616 150.368C160.962 147.057 158.481 142.918 155.173 142.091C151.038 141.263 146.904 143.746 146.077 147.885C144.423 146.229 141.115 145.402 138.634 146.229C136.153 147.057 134.5 149.54 134.5 152.851C132.846 150.368 129.538 150.368 127.057 152.023C124.576 153.679 124.576 156.99 124.576 159.473C124.576 167.75 129.538 176.027 136.98 180.166C144.423 184.305 156.827 180.994 160.962 174.372" fill="white"/>
<path d="M163.443 161.956C163.443 157.817 164.27 153.679 162.616 150.368C160.962 147.057 158.481 142.918 155.173 142.091C151.038 141.263 146.904 143.746 146.077 147.885C144.423 146.229 141.115 145.402 138.634 146.229C136.153 147.057 134.5 149.54 134.5 152.851C132.846 150.368 129.538 150.368 127.057 152.023C124.576 153.679 124.576 156.99 124.576 159.473C124.576 167.75 129.538 176.027 136.98 180.166C144.423 184.305 156.827 180.994 160.962 174.372" stroke="#1E1E1E" stroke-miterlimit="10" stroke-linecap="round" stroke-linejoin="round"/>
<path d="M174.193 143.747C170.886 143.747 168.405 146.23 166.751 147.885" stroke="white" stroke-miterlimit="10" stroke-linecap="round" stroke-linejoin="round"/>
<path d="M296.685 104.421C297.512 107.732 302.474 107.732 304.128 105.249C305.782 102.765 304.128 98.6268 301.647 97.799C299.166 96.1436 295.858 96.9713 292.55 97.799C292.55 98.6268 292.55 100.282 292.55 101.11C295.031 101.938 297.512 102.765 299.993 103.593" fill="white"/>
<path d="M296.685 104.421C297.512 107.732 302.474 107.732 304.128 105.249C305.782 102.765 304.128 98.6268 301.647 97.799C299.166 96.1436 295.858 96.9713 292.55 97.799C292.55 98.6268 292.55 100.282 292.55 101.11C295.031 101.938 297.512 102.765 299.993 103.593" stroke="white" stroke-miterlimit="10" stroke-linecap="round" stroke-linejoin="round"/>
<path d="M347.198 117.961C348.852 114.65 352.986 114.65 354.64 116.305C357.121 118.788 356.294 122.099 354.64 124.582C352.986 127.066 349.679 127.893 346.371 127.066C343.89 126.238 340.582 123.755 341.409 121.272C342.236 118.788 346.371 117.133 348.025 119.616" fill="white"/>
<path d="M347.198 117.961C348.852 114.65 352.986 114.65 354.64 116.305C357.121 118.788 356.294 122.099 354.64 124.582C352.986 127.066 349.679 127.893 346.371 127.066C343.89 126.238 340.582 123.755 341.409 121.272C342.236 118.788 346.371 117.133 348.025 119.616" stroke="white" stroke-miterlimit="10" stroke-linecap="round" stroke-linejoin="round"/>
<path d="M382.584 116.432C393.334 123.881 407.392 123.881 418.97 118.087C409.046 113.948 398.296 112.293 387.546 113.948C388.373 117.259 390.854 119.742 394.161 119.742" fill="white"/>
<path d="M382.584 116.432C393.334 123.881 407.392 123.881 418.97 118.087C409.046 113.948 398.296 112.293 387.546 113.948C388.373 117.259 390.854 119.742 394.161 119.742" stroke="white" stroke-miterlimit="10" stroke-linecap="round" stroke-linejoin="round"/>
<path d="M184.489 179.069C186.143 176.585 186.97 173.275 186.97 170.791C186.97 168.308 186.143 164.997 184.489 163.342C182.835 160.859 179.527 160.859 176.219 160.031C172.912 159.203 168.777 159.203 165.469 160.031C161.334 161.686 158.027 165.825 157.2 169.964C156.373 174.102 158.854 179.069 162.161 181.552C168.777 185.69 179.527 185.69 184.489 179.069Z" fill="white" stroke="#1E1E1E" stroke-miterlimit="10" stroke-linecap="round" stroke-linejoin="round"/>
<path d="M172.912 163.342C172.912 159.203 171.258 155.065 167.95 152.582" stroke="white" stroke-miterlimit="10" stroke-linecap="round" stroke-linejoin="round"/>
<path d="M172.478 159.972C172.662 160.947 172.997 163.261 172.864 164.718" stroke="#1E1E1E" stroke-linecap="round" stroke-linejoin="round"/>
<path d="M170.16 164.332C171.558 164.883 174.729 165.678 176.23 164.442" stroke="#1E1E1E" stroke-linecap="round" stroke-linejoin="round"/>
<path d="M314.221 86.5449C313.396 86.9353 312.667 87.2454 312.034 87.4752C311.402 87.7051 310.791 87.8835 310.204 88.0106C309.617 88.1168 309.021 88.181 308.415 88.2033C307.831 88.2263 307.154 88.2254 306.383 88.2007C305.363 88.1679 304.45 88.024 303.646 87.7689C302.841 87.493 302.156 87.1062 301.588 86.6086C301.042 86.0908 300.625 85.4521 300.336 84.6925C300.049 83.912 299.922 82.9804 299.957 81.8976C299.988 80.9189 300.115 79.8912 300.337 78.8145C300.58 77.7384 300.906 76.6754 301.315 75.6254C301.745 74.5553 302.257 73.54 302.851 72.5794C303.466 71.5986 304.171 70.7457 304.965 70.0208C305.76 69.2959 306.643 68.7302 307.615 68.3237C308.587 67.8963 309.657 67.7013 310.823 67.7387C311.26 67.7528 311.779 67.8215 312.379 67.945C312.981 68.0477 313.548 68.2222 314.082 68.4686C314.638 68.6949 315.096 69.0223 315.458 69.4507C315.82 69.8584 315.991 70.3746 315.971 70.9992C315.964 71.2283 315.845 71.3391 315.616 71.3318C315.409 71.3043 315.141 71.2123 314.812 71.0559C314.505 70.9001 314.146 70.701 313.737 70.4586C313.349 70.2168 312.971 69.9858 312.602 69.7656C312.234 69.5453 311.896 69.3573 311.589 69.2016C311.281 69.0458 311.043 68.986 310.875 69.0223C309.876 68.9903 308.964 69.159 308.139 69.5286C307.315 69.8774 306.559 70.3638 305.872 70.9879C305.206 71.6127 304.609 72.344 304.082 73.1817C303.577 73.9992 303.143 74.8607 302.78 75.7662C302.438 76.6724 302.169 77.5809 301.973 78.4918C301.799 79.3825 301.699 80.2339 301.673 81.0459C301.495 82.0199 301.52 82.8753 301.747 83.6121C301.995 84.3288 302.371 84.9349 302.876 85.4305C303.382 85.9053 303.996 86.2689 304.717 86.5214C305.439 86.7738 306.184 86.9332 306.953 86.9996C307.744 87.0458 308.527 86.9979 309.303 86.8561C310.079 86.6934 310.785 86.4451 311.421 86.1111C312.078 85.7779 312.613 85.3573 313.025 84.8494C313.458 84.3422 313.717 83.7669 313.8 83.1234C313.821 82.457 313.704 81.8905 313.448 81.4237C313.213 80.9576 312.881 80.5613 312.454 80.235C312.048 79.9093 311.566 79.6437 311.01 79.4383C310.475 79.2335 309.917 79.0697 309.338 78.9469C308.779 78.8247 308.208 78.7335 307.627 78.6731C307.066 78.6135 306.547 78.5447 306.07 78.4669L306.088 77.9047C306.089 77.863 306.362 77.7988 306.907 77.7121C307.473 77.626 308.132 77.5325 308.886 77.4316C309.66 77.3314 310.456 77.2319 311.272 77.133C312.088 77.0341 312.778 76.9624 313.342 76.918C313.342 76.918 313.394 76.9197 313.498 76.923C313.603 76.9055 313.718 76.8988 313.843 76.9028C313.968 76.9068 314.093 76.9108 314.218 76.9148C314.343 76.9188 314.447 76.9222 314.53 76.9248C314.572 76.9262 314.645 76.9285 314.749 76.9319C314.874 76.9359 314.999 76.9399 315.124 76.9439C315.248 76.9479 315.363 76.962 315.466 76.9861C315.591 76.9901 315.674 76.9928 315.716 76.9942C315.727 77.2863 315.733 77.7555 315.733 78.4017C315.755 79.0277 315.774 79.737 315.79 80.5296C315.807 81.3014 315.822 82.1252 315.836 83.0011C315.85 83.877 315.864 84.7112 315.881 85.5038C315.898 86.2756 315.906 86.9741 315.907 87.5995C315.929 88.2255 315.945 88.695 315.956 89.008C315.953 89.0913 315.948 89.2475 315.941 89.4765C315.934 89.7056 315.926 89.945 315.918 90.1949C315.93 90.4663 315.933 90.7061 315.926 90.9143C315.919 91.1433 315.913 91.3099 315.91 91.414L315.254 91.393L314.221 86.5449ZM314.433 79.9545L314.494 78.0493C314.182 78.0392 313.856 78.1122 313.518 78.2681C313.18 78.4031 312.894 78.5399 312.66 78.6783L314.433 79.9545ZM317.199 76.5727C317.202 76.4686 317.268 76.3665 317.396 76.2664C317.546 76.167 317.715 76.089 317.904 76.0326C318.114 75.9768 318.314 75.9415 318.502 75.9267C318.69 75.9119 318.824 75.9474 318.905 76.0334C318.947 78.6194 319.12 80.6885 319.425 82.2408C319.751 83.7728 320.131 84.9002 320.567 85.6229C321.023 86.3462 321.521 86.727 322.062 86.7652C322.604 86.7825 323.142 86.5705 323.677 86.1291C324.213 85.6669 324.713 85.0368 325.176 84.2387C325.66 83.4413 326.053 82.5785 326.353 81.6501C326.675 80.7225 326.882 79.7911 326.975 78.8561C327.067 77.9211 327.011 77.0855 326.805 76.3494L328.686 76.1909C328.697 76.5039 328.732 77.0261 328.792 77.7576C328.873 78.4689 328.951 79.2843 329.026 80.2038C329.122 81.1032 329.228 82.0446 329.342 83.0279C329.456 84.0113 329.552 84.9315 329.629 85.7885C329.706 86.6248 329.777 87.3462 329.841 87.9527C329.905 88.5384 329.935 88.9041 329.93 89.0499L328.587 89.0068L327.293 83.5562C326.978 84.2757 326.602 84.9619 326.164 85.6148C325.726 86.2678 325.249 86.8361 324.733 87.3199C324.238 87.8042 323.715 88.1835 323.165 88.4576C322.615 88.711 322.07 88.8081 321.53 88.7491C321.011 88.6699 320.509 88.4037 320.023 87.9504C319.537 87.4971 319.091 86.7949 318.684 85.8439C318.298 84.8727 317.973 83.6324 317.709 82.1232C317.445 80.6139 317.275 78.7638 317.199 76.5727ZM330.702 86.4483C330.74 85.2614 331.09 84.4076 331.753 83.8869C332.437 83.3669 333.31 83.1239 334.372 83.158C334.788 83.1714 335.173 83.1941 335.526 83.2263C335.9 83.2592 336.253 83.3226 336.583 83.4166C336.914 83.5105 337.233 83.6458 337.54 83.8224C337.867 83.9997 338.203 84.2502 338.547 84.5739C338.549 84.5114 338.553 84.3865 338.559 84.1991C338.587 83.9915 338.604 83.7732 338.611 83.5442C338.619 83.3151 338.626 83.1069 338.632 82.9195C338.638 82.7113 338.643 82.5655 338.646 82.4822C338.637 82.1067 338.642 81.6275 338.66 81.0444C338.68 80.4406 338.647 79.8247 338.563 79.1966C338.5 78.5693 338.332 77.9698 338.058 77.3983C337.806 76.8274 337.372 76.3861 336.756 76.0746C336.319 76.0606 335.911 76.1204 335.531 76.2541C335.152 76.3879 334.772 76.532 334.392 76.6866C334.012 76.8411 333.632 76.9853 333.252 77.119C332.873 77.2319 332.465 77.2814 332.028 77.2673C332.045 76.7468 332.215 76.3249 332.538 76.0018C332.882 75.6585 333.287 75.4005 333.751 75.2278C334.215 75.0551 334.698 74.9455 335.199 74.8991C335.701 74.8526 336.139 74.8354 336.514 74.8474C336.887 74.9219 337.228 75.0058 337.538 75.0991C337.868 75.1931 338.165 75.3694 338.428 75.628C338.711 75.8872 338.959 76.2807 339.171 76.8087C339.405 77.3164 339.591 78.0311 339.728 78.9526C339.886 79.8748 340.005 81.0459 340.084 82.4658C340.185 83.8656 340.245 85.5872 340.263 87.6305C340.296 87.9025 340.194 88.1389 339.958 88.3398C339.744 88.5205 339.447 88.6778 339.068 88.8115C338.689 88.9244 338.258 89.0252 337.776 89.114C337.315 89.1826 336.845 89.23 336.365 89.2563C335.884 89.2826 335.425 89.2991 334.987 89.3059C334.549 89.3127 334.185 89.3114 333.893 89.3021C333.518 89.2901 333.135 89.2152 332.744 89.0776C332.373 88.9406 332.024 88.7523 331.699 88.5126C331.394 88.2527 331.143 87.9528 330.946 87.613C330.77 87.253 330.688 86.8647 330.702 86.4483ZM334.832 84.3922C333.782 84.6503 333.042 84.9809 332.612 85.384C332.183 85.7663 331.983 86.1455 332.013 86.5216C332.063 86.8984 332.302 87.25 332.729 87.5764C333.157 87.8819 333.682 88.0968 334.303 88.2209C334.925 88.3243 335.603 88.2939 336.338 88.1299C337.074 87.945 337.784 87.5718 338.469 87.0101C338.239 86.3983 338.003 85.9321 337.764 85.6118C337.524 85.2706 337.262 85.0121 336.975 84.8361C336.689 84.6602 336.37 84.5457 336.017 84.4927C335.665 84.4397 335.27 84.4062 334.832 84.3922ZM341.085 75.6507L342.084 74.7135L348.555 87.4275L351.878 75.4341C352.022 75.5013 352.177 75.5584 352.342 75.6053C352.508 75.6315 352.653 75.6674 352.776 75.7131C352.921 75.7386 353.035 75.7735 353.117 75.8178C353.199 75.8621 353.238 75.9363 353.235 76.0404C352.921 77.3644 352.621 78.6054 352.334 79.7635C352.067 80.9222 351.781 82.049 351.475 83.1439C351.169 84.2388 350.841 85.3435 350.493 86.4579C350.145 87.5515 349.744 88.6954 349.289 89.8898L348.07 89.8507L341.085 75.6507ZM352.94 87.1617C352.978 85.9748 353.329 85.1211 353.992 84.6004C354.675 84.0804 355.548 83.8374 356.61 83.8715C357.027 83.8848 357.412 83.9076 357.765 83.9398C358.139 83.9726 358.491 84.036 358.822 84.13C359.152 84.224 359.471 84.3593 359.778 84.5359C360.106 84.7132 360.442 84.9636 360.786 85.2873C360.788 85.2249 360.792 85.0999 360.798 84.9125C360.825 84.705 360.843 84.4867 360.85 84.2576C360.857 84.0286 360.864 83.8203 360.87 83.6329C360.877 83.4247 360.881 83.2789 360.884 83.1957C360.875 82.8202 360.88 82.3409 360.899 81.7579C360.918 81.154 360.886 80.5381 360.802 79.9101C360.739 79.2827 360.57 78.6833 360.297 78.1117C360.044 77.5408 359.61 77.0996 358.995 76.788C358.558 76.774 358.149 76.8339 357.77 76.9676C357.39 77.1013 357.01 77.2455 356.63 77.4C356.25 77.5546 355.87 77.6987 355.491 77.8325C355.112 77.9454 354.704 77.9948 354.267 77.9808C354.283 77.4602 354.453 77.0384 354.776 76.7152C355.121 76.3719 355.525 76.1139 355.989 75.9412C356.453 75.7685 356.936 75.6589 357.438 75.6125C357.94 75.5661 358.378 75.5489 358.753 75.5609C359.126 75.6354 359.467 75.7193 359.777 75.8126C360.107 75.9066 360.404 76.0828 360.666 76.3414C360.95 76.6006 361.198 76.9942 361.41 77.5221C361.644 78.0299 361.829 78.7445 361.967 79.6661C362.125 80.5883 362.243 81.7593 362.323 83.1793C362.424 84.5791 362.483 86.3006 362.501 88.3439C362.534 88.6159 362.433 88.8524 362.197 89.0533C361.983 89.234 361.686 89.3912 361.306 89.525C360.928 89.6379 360.497 89.7387 360.015 89.8274C359.554 89.896 359.083 89.9435 358.603 89.9698C358.123 89.996 357.664 90.0126 357.226 90.0194C356.788 90.0262 356.423 90.0249 356.132 90.0155C355.757 90.0035 355.374 89.9287 354.982 89.7911C354.611 89.6541 354.263 89.4657 353.937 89.226C353.633 88.9661 353.382 88.6662 353.184 88.3264C353.008 87.9664 352.927 87.5782 352.94 87.1617ZM357.071 85.1056C356.02 85.3637 355.28 85.6943 354.85 86.0974C354.421 86.4797 354.222 86.8589 354.251 87.235C354.302 87.6119 354.54 87.9634 354.968 88.2898C355.396 88.5954 355.92 88.8102 356.542 88.9344C357.164 89.0377 357.842 89.0074 358.577 88.8433C359.312 88.6585 360.023 88.2852 360.708 87.7236C360.477 87.1117 360.242 86.6456 360.002 86.3252C359.763 85.9841 359.5 85.7255 359.214 85.5496C358.928 85.3736 358.608 85.2592 358.256 85.2062C357.903 85.1532 357.508 85.1196 357.071 85.1056Z" fill="#88B1D5"/>
<path d="M247.445 150.527C247.243 150.716 247.232 151.032 247.421 151.234L250.494 154.521C250.683 154.722 250.999 154.733 251.201 154.544C251.403 154.356 251.413 154.039 251.225 153.838L248.493 150.916L251.415 148.184C251.616 147.995 251.627 147.679 251.438 147.477C251.25 147.276 250.933 147.265 250.732 147.454L247.445 150.527ZM321.216 94.8015C318.513 101.05 301.492 152.195 247.803 150.392L247.769 151.392C302.243 153.221 319.502 101.283 322.133 95.1985L321.216 94.8015Z" fill="#88B1D5"/>
<defs>
<clipPath id="clip0_470_202">
<rect width="64" height="106" fill="white" transform="translate(171.97 55.7607)"/>
</clipPath>
</defs>
</svg>
