<svg width="560" height="554" viewBox="0 0 560 554" fill="none" xmlns="http://www.w3.org/2000/svg">
    <path d="M54.5498 471.2L54.4745 469.502C54.4872 469.475 54.6273 469.403 54.895 469.285C55.1753 469.141 55.5439 468.965 56.0008 468.758C56.4507 468.531 56.9595 468.283 57.5271 468.014C58.0948 467.745 58.6722 467.473 59.2594 467.197C59.8663 466.914 60.4536 466.638 61.0212 466.369C61.6084 466.093 62.1466 465.835 62.6358 465.594C62.6358 465.594 62.7241 465.562 62.9007 465.499C63.0772 465.436 63.2735 465.366 63.4893 465.289C63.7051 465.212 63.9111 465.139 64.1074 465.069C64.3036 464.999 64.4311 464.953 64.49 464.932C64.9609 464.764 65.3161 464.737 65.5558 464.85C65.7954 464.964 66.0202 465.315 66.2303 465.904L61.0943 468.433C61.4962 469.683 61.978 470.971 62.5397 472.297C63.1014 473.623 63.6897 474.962 64.3046 476.313C64.9125 477.644 65.5071 478.969 66.0884 480.288C66.6893 481.6 67.2103 482.874 67.6515 484.11C67.7145 484.287 67.7012 484.435 67.6115 484.556C67.5344 484.65 67.4208 484.734 67.2709 484.81C67.1405 484.879 66.9899 484.921 66.8189 484.938C66.6549 484.975 66.5071 484.994 66.3753 484.997C66.2254 484.763 66.009 484.342 65.7261 483.736C65.4431 483.129 65.1216 482.414 64.7617 481.591C64.4017 480.769 64.0172 479.877 63.6082 478.917C63.1992 477.957 62.7902 476.997 62.3812 476.037C61.9722 475.077 61.5807 474.166 61.2067 473.304C60.8258 472.422 60.4966 471.655 60.2193 471.002C59.9349 470.329 59.7066 469.813 59.5343 469.455C59.3816 469.089 59.313 468.958 59.3284 469.064L54.5498 471.2ZM65.5563 462.527L69.7668 471.908C69.8621 471.741 69.9757 471.502 70.1075 471.189C70.2393 470.877 70.4174 470.57 70.6416 470.268C70.8589 469.948 71.1197 469.655 71.4238 469.392C71.721 469.109 72.0791 468.904 72.4981 468.776C73.3306 468.568 74.0838 468.664 74.7578 469.065C75.4514 469.459 76.063 470.026 76.5926 470.766C77.1418 471.499 77.6307 472.342 78.0593 473.295C78.4809 474.228 78.8297 475.144 79.1055 476.041C79.401 476.931 79.6321 477.733 79.7987 478.448C79.9849 479.155 80.1039 479.644 80.1557 479.913L79.0437 480.144C78.9806 479.967 78.8826 479.693 78.7496 479.32C78.6291 478.92 78.4877 478.462 78.3252 477.945C78.1558 477.408 77.9695 476.855 77.7664 476.286C77.5634 475.717 77.3743 475.187 77.1992 474.697C77.0368 474.18 76.8757 473.729 76.716 473.343C76.576 472.951 76.4681 472.679 76.3925 472.53C76.216 471.973 75.9191 471.482 75.5015 471.056C75.084 470.63 74.6335 470.359 74.1501 470.244C73.6596 470.109 73.1572 470.189 72.6428 470.483C72.1214 470.758 71.6693 471.351 71.2865 472.261C71.0313 473.282 70.9196 474.239 70.9517 475.135C70.9767 476.011 71.09 476.855 71.2917 477.668C71.4863 478.461 71.7405 479.266 72.0542 480.084C72.3609 480.881 72.6655 481.735 72.968 482.644L71.7572 482.877C71.739 482.64 71.6382 482.234 71.4547 481.658C71.2839 481.055 71.0647 480.348 70.7973 479.537C70.5228 478.706 70.2069 477.79 69.8498 476.789C69.5123 475.781 69.1447 474.751 68.7469 473.699C68.3617 472.62 67.9668 471.544 67.562 470.472C67.1572 469.4 66.7602 468.38 66.3708 467.413C66.001 466.439 65.6495 465.547 65.3161 464.737C65.0024 463.92 64.7412 463.25 64.5325 462.727L65.5563 462.527ZM78.9759 472.702C78.7659 472.114 78.6623 471.421 78.6653 470.623C78.6613 469.806 78.7665 469.017 78.9811 468.254C79.2083 467.465 79.5231 466.767 79.9254 466.159C80.3404 465.524 80.852 465.098 81.4603 464.881C81.7938 464.762 82.1421 464.715 82.505 464.74C82.8876 464.759 83.2681 464.833 83.6464 464.964C84.0374 465.067 84.4031 465.224 84.7436 465.435C85.0967 465.618 85.398 465.843 85.6474 466.108C85.8968 466.372 86.074 466.652 86.179 466.946C86.3037 467.234 86.3162 467.517 86.2167 467.796L80.4162 471.16C80.3447 471.207 80.3111 471.33 80.3152 471.528C80.3124 471.706 80.3369 471.929 80.3887 472.198C80.4405 472.467 80.5028 472.766 80.5756 473.094C80.661 473.395 80.7464 473.696 80.8318 473.998C80.9102 474.279 80.9915 474.538 81.0755 474.773C81.1525 474.989 81.212 475.156 81.2541 475.274C81.4501 475.823 81.7387 476.229 82.1199 476.491C82.5136 476.727 82.948 476.859 83.4231 476.889C83.8981 476.918 84.4012 476.871 84.9324 476.748C85.4832 476.618 86.0137 476.462 86.5238 476.28C87.034 476.098 87.5077 475.907 87.9449 475.706C88.3822 475.506 88.748 475.353 89.0423 475.248C89.0704 475.327 89.0724 475.426 89.0486 475.545C89.0247 475.664 88.9911 475.786 88.9476 475.912C88.8971 476.019 88.8467 476.125 88.7962 476.232C88.7387 476.319 88.7037 476.376 88.691 476.402C88.5481 476.497 88.3238 476.644 88.0183 476.841C87.7253 477.012 87.403 477.194 87.0512 477.386C86.719 477.571 86.403 477.739 86.103 477.89C85.8031 478.041 85.5943 478.138 85.4765 478.18C84.9103 478.515 84.377 478.694 83.8767 478.718C83.3764 478.741 82.9098 478.642 82.4768 478.421C82.0438 478.199 81.6452 477.888 81.2809 477.487C80.9096 477.067 80.5769 476.599 80.2827 476.085C79.9885 475.571 79.7266 475.023 79.4969 474.441C79.2868 473.852 79.1132 473.273 78.9759 472.702ZM81.4474 466.147C81.2708 466.21 81.0703 466.392 80.846 466.693C80.6344 466.968 80.4535 467.298 80.3035 467.683C80.1661 468.042 80.0686 468.419 80.011 468.816C79.9661 469.186 80.0151 469.478 80.158 469.693C80.6891 469.569 81.2154 469.37 81.7368 469.096C82.2582 468.821 82.7165 468.525 83.1118 468.207C83.5 467.869 83.8028 467.54 84.0201 467.219C84.2304 466.879 84.2837 466.594 84.18 466.366C84.096 466.13 83.8361 465.991 83.4003 465.947C82.977 465.877 82.3261 465.944 81.4474 466.147ZM96.6092 459.541L97.1959 458.303L107.873 467.765L106.574 455.387C106.732 455.397 106.897 455.394 107.068 455.377C107.232 455.34 107.38 455.321 107.512 455.318C107.656 455.289 107.774 455.28 107.867 455.291C107.959 455.302 108.023 455.357 108.058 455.455C108.251 456.802 108.426 458.066 108.583 459.249C108.759 460.425 108.905 461.578 109.021 462.709C109.137 463.84 109.237 464.988 109.321 466.153C109.398 467.298 109.443 468.509 109.457 469.787L108.309 470.197L96.6092 459.541ZM110.097 456.519C110.332 456.435 110.525 456.355 110.675 456.279C110.845 456.197 111.027 456.242 111.222 456.416C111.596 457.278 111.986 458.156 112.394 459.05C112.795 459.925 113.199 460.809 113.606 461.703C114.014 462.598 114.396 463.512 114.751 464.447C115.12 465.355 115.452 466.254 115.747 467.144C115.789 467.262 115.784 467.341 115.732 467.382C115.688 467.442 115.603 467.483 115.478 467.506C115.38 467.541 115.249 467.576 115.085 467.613C114.948 467.662 114.798 467.737 114.635 467.84L110.097 456.519ZM106.51 451.86C106.461 451.723 106.418 451.572 106.382 451.408C106.338 451.224 106.321 451.053 106.331 450.895C106.361 450.73 106.407 450.58 106.47 450.447C106.553 450.307 106.673 450.209 106.83 450.153C107.065 450.069 107.304 449.995 107.546 449.93C107.789 449.866 108.032 449.834 108.276 449.836C108.513 449.818 108.728 449.863 108.921 449.971C109.108 450.059 109.25 450.24 109.348 450.515C109.516 450.986 109.49 451.471 109.27 451.97C109.043 452.449 108.674 452.78 108.164 452.962C107.771 453.102 107.434 453.056 107.153 452.825C106.864 452.574 106.65 452.252 106.51 451.86ZM108.269 451.398C108.21 451.419 108.198 451.478 108.233 451.576C108.268 451.675 108.315 451.713 108.374 451.692C108.453 451.664 108.474 451.601 108.439 451.503C108.404 451.405 108.348 451.37 108.269 451.398ZM109.131 443.957C109.419 443.898 109.683 443.892 109.921 443.94C110.172 443.961 110.405 444.088 110.621 444.321C110.754 444.693 110.949 445.21 111.207 445.87C111.477 446.503 111.776 447.248 112.104 448.105C112.452 448.954 112.823 449.872 113.22 450.859C113.616 451.845 114.016 452.842 114.419 453.848C114.823 454.854 115.213 455.854 115.59 456.848C115.986 457.835 116.348 458.756 116.676 459.613C117.023 460.462 117.326 461.217 117.583 461.877C117.841 462.537 118.043 463.04 118.189 463.386C118.203 463.425 118.217 463.498 118.233 463.603C118.268 463.701 118.3 463.822 118.329 463.966C118.378 464.104 118.417 464.245 118.447 464.389C118.489 464.507 118.52 464.595 118.541 464.654C118.564 464.779 118.606 464.929 118.67 465.106C118.726 465.263 118.762 465.427 118.779 465.598C118.795 465.769 118.779 465.94 118.73 466.113C118.694 466.258 118.581 466.376 118.392 466.466L117.671 466.026C117.644 466.014 117.485 465.661 117.194 464.969C116.915 464.25 116.543 463.332 116.078 462.215C115.626 461.071 115.124 459.79 114.574 458.372C114.017 456.934 113.446 455.49 112.862 454.039C112.297 452.581 111.754 451.183 111.231 449.843C110.709 448.503 110.263 447.346 109.893 446.372C109.865 446.294 109.809 446.137 109.725 445.901C109.661 445.659 109.586 445.42 109.502 445.184C109.431 444.922 109.357 444.683 109.28 444.467C109.215 444.225 109.166 444.055 109.131 443.957ZM112.927 442.602C113.216 442.543 113.48 442.537 113.718 442.585C113.969 442.606 114.202 442.733 114.418 442.966C114.551 443.338 114.746 443.855 115.004 444.515C115.274 445.148 115.573 445.893 115.901 446.75C116.248 447.599 116.62 448.517 117.017 449.504C117.413 450.49 117.813 451.487 118.216 452.493C118.62 453.499 119.01 454.499 119.386 455.493C119.783 456.48 120.145 457.401 120.473 458.258C120.82 459.107 121.122 459.862 121.38 460.522C121.638 461.182 121.84 461.685 121.985 462.031C121.999 462.07 122.014 462.143 122.029 462.248C122.064 462.346 122.097 462.467 122.126 462.611C122.175 462.749 122.214 462.89 122.244 463.034C122.286 463.152 122.317 463.24 122.338 463.299C122.36 463.424 122.403 463.574 122.466 463.751C122.522 463.908 122.559 464.072 122.575 464.243C122.592 464.414 122.576 464.585 122.527 464.758C122.49 464.903 122.378 465.021 122.188 465.111L121.468 464.671C121.441 464.659 121.282 464.306 120.991 463.614C120.712 462.895 120.34 461.977 119.875 460.86C119.423 459.716 118.921 458.435 118.371 457.017C117.813 455.579 117.243 454.135 116.658 452.684C116.094 451.226 115.551 449.828 115.028 448.488C114.506 447.148 114.06 445.991 113.69 445.017C113.662 444.939 113.606 444.782 113.522 444.546C113.457 444.304 113.383 444.065 113.299 443.829C113.228 443.567 113.154 443.328 113.076 443.112C113.012 442.87 112.962 442.7 112.927 442.602ZM123.247 461.846C122.847 460.728 122.861 459.805 123.287 459.078C123.733 458.344 124.456 457.798 125.457 457.441C125.849 457.301 126.216 457.181 126.556 457.082C126.916 456.975 127.268 456.905 127.609 456.872C127.951 456.838 128.298 456.847 128.648 456.899C129.018 456.944 129.422 457.054 129.861 457.23C129.84 457.171 129.798 457.053 129.735 456.876C129.684 456.673 129.621 456.464 129.544 456.248C129.467 456.032 129.396 455.836 129.333 455.659C129.263 455.463 129.214 455.326 129.186 455.247C129.041 454.901 128.87 454.453 128.674 453.904C128.471 453.335 128.215 452.773 127.907 452.22C127.618 451.659 127.242 451.163 126.778 450.731C126.334 450.293 125.769 450.041 125.082 449.976C124.67 450.123 124.312 450.329 124.008 450.592C123.704 450.855 123.403 451.129 123.106 451.412C122.809 451.695 122.508 451.968 122.204 452.231C121.893 452.475 121.531 452.67 121.119 452.817C120.944 452.327 120.948 451.872 121.13 451.453C121.325 451.008 121.607 450.619 121.975 450.289C122.344 449.958 122.753 449.679 123.203 449.452C123.653 449.226 124.054 449.049 124.408 448.923C124.782 448.856 125.13 448.809 125.452 448.782C125.794 448.749 126.135 448.804 126.474 448.949C126.833 449.086 127.208 449.362 127.598 449.775C128.002 450.162 128.436 450.759 128.901 451.566C129.386 452.367 129.925 453.413 130.519 454.705C131.126 455.971 131.811 457.551 132.576 459.446C132.706 459.687 132.699 459.944 132.553 460.217C132.42 460.464 132.201 460.719 131.897 460.982C131.586 461.226 131.222 461.478 130.806 461.737C130.402 461.969 129.982 462.186 129.544 462.386C129.107 462.586 128.686 462.77 128.281 462.936C127.876 463.103 127.536 463.236 127.261 463.334C126.908 463.46 126.524 463.53 126.109 463.546C125.714 463.554 125.321 463.506 124.93 463.402C124.552 463.272 124.208 463.085 123.9 462.841C123.604 462.57 123.387 462.239 123.247 461.846ZM126.337 458.421C125.454 459.046 124.887 459.624 124.634 460.157C124.375 460.67 124.328 461.096 124.493 461.435C124.678 461.767 125.029 462.007 125.546 462.154C126.056 462.282 126.623 462.289 127.247 462.177C127.863 462.046 128.484 461.769 129.107 461.347C129.724 460.906 130.248 460.299 130.68 459.525C130.242 459.04 129.852 458.693 129.512 458.482C129.164 458.252 128.825 458.108 128.494 458.049C128.163 457.99 127.824 458.001 127.477 458.08C127.129 458.16 126.749 458.274 126.337 458.421ZM132.202 469.368C132.013 468.838 131.958 468.404 132.036 468.066C132.115 467.729 132.478 467.444 133.125 467.213C133.164 467.509 133.194 467.808 133.213 468.111C133.213 468.421 133.226 468.704 133.251 468.96C133.256 469.224 133.294 469.42 133.362 469.551C133.411 469.688 133.497 469.713 133.621 469.624C134.396 469.812 135.187 469.862 135.996 469.772C136.805 469.683 137.572 469.508 138.298 469.249C139.39 468.837 140.251 468.276 140.882 467.564C141.532 466.845 141.99 466.051 142.255 465.182C142.54 464.307 142.658 463.368 142.611 462.368C142.59 461.38 142.438 460.395 142.153 459.412C141.896 458.442 141.536 457.498 141.076 456.578C140.615 455.659 140.113 454.842 139.571 454.129C139.371 454.621 139.167 455.136 138.961 455.674C138.775 456.205 138.545 456.707 138.271 457.181C137.991 457.635 137.664 458.05 137.289 458.427C136.935 458.797 136.483 459.08 135.933 459.276C135.364 459.479 134.898 459.535 134.533 459.444C134.189 459.346 133.908 459.148 133.69 458.849C133.466 458.531 133.274 458.146 133.113 457.695C132.971 457.237 132.809 456.752 132.627 456.242C132.459 455.771 132.28 455.238 132.09 454.642C131.919 454.04 131.777 453.427 131.665 452.803C131.566 452.153 131.503 451.512 131.477 450.88C131.463 450.221 131.532 449.61 131.685 449.047C131.831 448.464 132.09 447.951 132.463 447.508C132.836 447.065 133.346 446.728 133.994 446.497C134.406 446.35 134.812 446.249 135.213 446.195C135.626 446.114 136.022 446.105 136.399 446.17C136.795 446.227 137.164 446.361 137.504 446.572C137.845 446.782 138.164 447.088 138.463 447.49C138.856 448.345 139.297 449.272 139.786 450.27C140.268 451.248 140.748 452.282 141.226 453.373C141.696 454.443 142.131 455.538 142.53 456.656C142.929 457.775 143.236 458.882 143.45 459.978C143.684 461.067 143.785 462.126 143.754 463.154C143.75 464.196 143.556 465.172 143.174 466.082C142.817 467.006 142.252 467.838 141.477 468.579C140.708 469.34 139.684 469.971 138.403 470.473C137.853 470.669 137.261 470.836 136.624 470.975C135.995 471.133 135.387 471.195 134.8 471.161C134.22 471.147 133.702 471 133.248 470.72C132.782 470.466 132.433 470.015 132.202 469.368ZM133.746 455.843C133.823 456.059 133.9 456.308 133.979 456.589C134.057 456.871 134.165 457.142 134.302 457.403C134.44 457.664 134.602 457.871 134.79 458.025C134.997 458.172 135.252 458.203 135.553 458.118C136.024 457.95 136.417 457.688 136.732 457.332C137.068 456.969 137.325 456.545 137.506 456.06C137.707 455.569 137.844 455.055 137.919 454.52C138.006 453.958 138.04 453.403 138.022 452.857C138.024 452.303 137.983 451.787 137.9 451.308C137.831 450.802 137.733 450.372 137.606 450.019C137.532 449.625 137.399 449.252 137.207 448.901C137.035 448.542 136.808 448.247 136.526 448.015C136.245 447.784 135.925 447.633 135.568 447.561C135.204 447.47 134.815 447.498 134.403 447.645C133.932 447.813 133.569 448.097 133.314 448.498C133.052 448.879 132.877 449.318 132.789 449.814C132.7 450.31 132.682 450.848 132.733 451.426C132.778 451.986 132.856 452.544 132.966 453.102C133.09 453.633 133.219 454.151 133.355 454.655C133.503 455.133 133.634 455.529 133.746 455.843ZM141.577 450.36C141.367 449.772 141.264 449.079 141.267 448.281C141.263 447.464 141.368 446.675 141.582 445.912C141.81 445.123 142.124 444.425 142.527 443.817C142.942 443.182 143.453 442.756 144.062 442.539C144.395 442.42 144.743 442.373 145.106 442.398C145.489 442.417 145.869 442.491 146.248 442.622C146.639 442.725 147.004 442.882 147.345 443.093C147.698 443.276 147.999 443.501 148.249 443.765C148.498 444.03 148.675 444.31 148.78 444.604C148.905 444.892 148.918 445.175 148.818 445.454L143.018 448.818C142.946 448.865 142.912 448.988 142.917 449.186C142.914 449.364 142.938 449.587 142.99 449.856C143.042 450.125 143.104 450.424 143.177 450.752C143.262 451.053 143.348 451.354 143.433 451.656C143.512 451.937 143.593 452.196 143.677 452.431C143.754 452.647 143.813 452.814 143.855 452.932C144.051 453.481 144.34 453.887 144.721 454.149C145.115 454.385 145.549 454.517 146.024 454.547C146.499 454.576 147.003 454.529 147.534 454.406C148.085 454.276 148.615 454.12 149.125 453.938C149.635 453.756 150.109 453.565 150.546 453.364C150.984 453.164 151.349 453.011 151.644 452.906C151.672 452.985 151.674 453.083 151.65 453.203C151.626 453.322 151.592 453.444 151.549 453.57C151.498 453.677 151.448 453.783 151.398 453.89C151.34 453.977 151.305 454.034 151.292 454.06C151.149 454.155 150.925 454.302 150.62 454.499C150.327 454.67 150.004 454.852 149.653 455.044C149.32 455.228 149.004 455.397 148.704 455.548C148.404 455.699 148.196 455.796 148.078 455.838C147.512 456.173 146.978 456.352 146.478 456.376C145.978 456.399 145.511 456.3 145.078 456.079C144.645 455.857 144.247 455.546 143.882 455.145C143.511 454.725 143.178 454.257 142.884 453.743C142.59 453.229 142.328 452.681 142.098 452.099C141.888 451.51 141.714 450.931 141.577 450.36ZM144.049 443.805C143.872 443.868 143.672 444.05 143.447 444.351C143.236 444.626 143.055 444.956 142.905 445.341C142.767 445.7 142.67 446.077 142.612 446.474C142.567 446.844 142.616 447.136 142.759 447.35C143.29 447.227 143.817 447.028 144.338 446.754C144.86 446.479 145.318 446.183 145.713 445.865C146.101 445.527 146.404 445.198 146.621 444.877C146.832 444.537 146.885 444.252 146.781 444.024C146.697 443.788 146.437 443.649 146.002 443.605C145.578 443.535 144.927 443.602 144.049 443.805ZM68.6971 508.888C68.536 508.437 68.3897 507.903 68.2581 507.286C68.1195 506.65 68.03 505.996 67.9895 505.325C67.949 504.653 67.9512 503.978 67.9962 503.298C68.0608 502.612 68.199 501.976 68.4107 501.392C68.6155 500.788 68.9141 500.261 69.3066 499.811C69.6921 499.342 70.189 498.999 70.7972 498.781C71.4251 498.557 72.0809 498.567 72.7648 498.809C73.4682 499.045 74.1289 499.439 74.7468 499.993C75.3843 500.54 75.9517 501.2 76.4491 501.974C76.9464 502.747 77.319 503.543 77.5669 504.362C77.987 505.539 78.136 506.669 78.0138 507.753C77.8917 508.836 77.579 509.788 77.0757 510.609C76.592 511.423 75.983 512.072 75.2485 512.555C74.5337 513.032 73.7706 513.249 72.9592 513.207C72.1604 513.138 71.375 512.765 70.603 512.09C69.8506 511.407 69.2153 510.34 68.6971 508.888ZM69.8281 508.617C70.3141 509.793 70.8492 510.642 71.4335 511.163C72.0178 511.684 72.5937 511.966 73.1613 512.006C73.7414 512.02 74.2908 511.824 74.8094 511.418C75.328 511.012 75.7549 510.472 76.09 509.8C76.4181 509.108 76.6256 508.326 76.7127 507.454C76.8124 506.556 76.7138 505.629 76.4169 504.673C76.2041 503.952 75.9001 503.287 75.5051 502.676C75.1296 502.057 74.7135 501.542 74.2568 501.13C73.8126 500.692 73.3418 500.395 72.8443 500.241C72.3595 500.06 71.8718 500.057 71.3813 500.232C70.9104 500.4 70.5305 500.668 70.2418 501.037C69.953 501.405 69.7252 501.852 69.5583 502.376C69.404 502.873 69.31 503.416 69.2762 504.003C69.2425 504.59 69.2381 505.167 69.2632 505.733C69.308 506.292 69.3786 506.831 69.4752 507.349C69.5844 507.841 69.702 508.264 69.8281 508.617ZM84.1348 509.284C83.8633 507.966 83.6098 506.884 83.3746 506.039C83.1393 505.193 82.9069 504.48 82.6772 503.898C82.4601 503.29 82.2612 502.764 82.0805 502.32C81.8928 501.856 81.7178 501.365 81.5553 500.848C81.3002 500.939 81.0466 501.096 80.7942 501.319C80.5419 501.542 80.2868 501.787 80.0289 502.056C79.764 502.306 79.4956 502.545 79.2237 502.775C78.9714 502.998 78.7177 503.155 78.4626 503.246C78.3645 503.281 78.2818 503.266 78.2146 503.202C78.1669 503.13 78.1123 503.039 78.0507 502.928C77.989 502.818 77.9274 502.707 77.8657 502.596C77.8167 502.459 77.7383 502.332 77.6304 502.216L80.9944 499.091C79.5712 496.28 78.5586 493.877 77.9564 491.88C77.3668 489.856 77.0841 488.165 77.1083 486.807C77.145 485.423 77.4381 484.323 77.9877 483.507C78.5498 482.665 79.2675 482.011 80.1407 481.544C80.8666 481.285 81.6059 481.187 82.3584 481.25C83.1236 481.287 83.839 481.463 84.5046 481.778C85.1898 482.087 85.7951 482.512 86.3205 483.055C86.8655 483.59 87.2676 484.221 87.5267 484.947C87.2128 485.059 86.8834 485.066 86.5387 484.968C86.2066 484.843 85.8668 484.666 85.5193 484.436C85.1718 484.206 84.8173 483.956 84.4558 483.687C84.0873 483.398 83.6999 483.15 83.2935 482.941C82.9068 482.725 82.5116 482.578 82.108 482.501C81.6974 482.404 81.2665 482.436 80.8152 482.597C80.4508 482.816 80.1179 483.123 79.8165 483.518C79.5277 483.886 79.2971 484.356 79.1246 484.926C78.9717 485.49 78.8938 486.17 78.8908 486.967C78.8808 487.745 78.9892 488.669 79.216 489.738C79.4428 490.807 79.795 492.042 80.2726 493.442C80.7628 494.816 81.4148 496.364 82.2286 498.086L85.8676 496.754C86.0175 496.988 86.1275 497.203 86.1975 497.4C86.2802 497.569 86.1953 497.765 85.943 497.988C85.7552 498.144 85.5085 498.32 85.203 498.518C84.8904 498.696 84.5681 498.877 84.2359 499.062C83.9163 499.22 83.6164 499.371 83.3361 499.516C83.0488 499.64 82.8498 499.734 82.739 499.795C83.0485 500.724 83.3735 501.604 83.7138 502.434C84.0472 503.244 84.3602 504.028 84.6529 504.786C84.9387 505.525 85.181 506.234 85.3798 506.916C85.5913 507.57 85.7172 508.233 85.7577 508.904C85.7381 508.911 85.6793 508.932 85.5812 508.967C85.5027 508.995 85.4144 509.027 85.3163 509.062C85.2182 509.097 85.1201 509.132 85.0219 509.167C84.9435 509.195 84.9042 509.209 84.9042 509.209C84.8257 509.237 84.7409 509.278 84.6498 509.333C84.5784 509.38 84.5034 509.418 84.4249 509.446C84.373 509.487 84.3205 509.495 84.2672 509.469C84.221 509.464 84.1768 509.402 84.1348 509.284ZM77.3228 534.079C77.1057 533.471 76.9229 532.773 76.7746 531.985C76.6388 531.171 76.5619 530.336 76.5439 529.48C76.5189 528.604 76.5632 527.736 76.6769 526.877C76.8032 525.992 77.0101 525.177 77.2976 524.433C77.5976 523.662 77.9986 522.988 78.5004 522.411C79.0219 521.827 79.6652 521.398 80.4304 521.125C80.9798 520.929 81.4794 520.872 81.9293 520.955C82.3987 521.031 82.8142 521.203 83.1757 521.472C83.5372 521.741 83.8475 522.084 84.1067 522.5C84.3785 522.89 84.5949 523.31 84.756 523.762C84.3243 523.916 83.955 523.904 83.6482 523.726C83.3343 523.528 83.0232 523.307 82.715 523.063C82.4193 522.793 82.0985 522.576 81.7524 522.411C81.4189 522.221 81.0069 522.213 80.5163 522.388C79.8688 522.619 79.353 523.002 78.9689 523.538C78.6044 524.066 78.3373 524.681 78.1676 525.383C77.9909 526.066 77.901 526.805 77.8981 527.603C77.9147 528.393 77.9706 529.17 78.0657 529.932C78.1805 530.687 78.3274 531.409 78.5067 532.097C78.6789 532.766 78.8455 533.326 79.0066 533.777C79.1662 534.472 79.405 535.172 79.723 535.877C80.0535 536.555 80.4549 537.153 80.9271 537.67C81.3922 538.168 81.9436 538.535 82.5812 538.772C83.2118 538.99 83.9398 538.984 84.7653 538.756C85.2754 538.574 85.8164 538.292 86.3883 537.911C86.9531 537.511 87.5012 537.094 88.0324 536.661C88.5762 536.201 89.0872 535.743 89.5651 535.284C90.0361 534.807 90.4328 534.4 90.7552 534.063L91.1648 535.211C91.1452 535.218 91.0352 535.313 90.8348 535.495C90.6469 535.65 90.3911 535.863 90.0673 536.134C89.7632 536.397 89.4037 536.691 88.9888 537.016C88.5935 537.334 88.2017 537.662 87.8135 538C87.4182 538.318 87.0328 538.632 86.6571 538.944C86.2941 539.228 85.9829 539.472 85.7236 539.675C85.704 539.682 85.6648 539.696 85.6059 539.717C85.554 539.757 85.5085 539.785 85.4692 539.799C84.3901 540.184 83.4168 540.277 82.5494 540.078C81.6946 539.852 80.9316 539.45 80.2604 538.871C79.5823 538.272 79.0037 537.55 78.5246 536.703C78.0385 535.837 77.6379 534.962 77.3228 534.079ZM86.5822 516.607L90.7927 525.987C90.888 525.82 91.0016 525.581 91.1334 525.268C91.2652 524.956 91.4433 524.649 91.6675 524.348C91.8848 524.027 92.1456 523.735 92.4497 523.471C92.7469 523.188 93.105 522.983 93.524 522.856C94.3565 522.647 95.1097 522.743 95.7837 523.144C96.4773 523.538 97.0889 524.105 97.6185 524.845C98.1677 525.578 98.6566 526.421 99.0852 527.374C99.5068 528.308 99.8556 529.223 100.131 530.12C100.427 531.01 100.658 531.812 100.825 532.527C101.011 533.235 101.13 533.723 101.182 533.992L100.07 534.223C100.007 534.046 99.9085 533.772 99.7755 533.399C99.655 533 99.5136 532.541 99.3511 532.024C99.1817 531.487 98.9954 530.934 98.7923 530.365C98.5893 529.796 98.4002 529.267 98.2251 528.776C98.0627 528.259 97.9016 527.808 97.7419 527.422C97.6019 527.03 97.494 526.759 97.4184 526.609C97.2419 526.052 96.945 525.561 96.5274 525.135C96.1099 524.709 95.6594 524.438 95.176 524.323C94.6855 524.189 94.1831 524.268 93.6687 524.562C93.1473 524.837 92.6952 525.43 92.3125 526.341C92.0572 527.361 91.9455 528.319 91.9776 529.214C92.0026 530.09 92.1159 530.934 92.3176 531.747C92.5122 532.54 92.7664 533.346 93.0801 534.163C93.3868 534.96 93.6914 535.814 93.9939 536.723L92.7831 536.956C92.7649 536.719 92.6641 536.313 92.4806 535.737C92.3098 535.134 92.0906 534.427 91.8232 533.616C91.5487 532.785 91.2329 531.869 90.8757 530.868C90.5382 529.86 90.1706 528.83 89.7728 527.778C89.3876 526.699 88.9927 525.623 88.5879 524.551C88.1832 523.479 87.7861 522.459 87.3967 521.492C87.0269 520.518 86.6754 519.626 86.342 518.816C86.0283 517.999 85.7671 517.329 85.5584 516.806L86.5822 516.607ZM98.1887 522.352C98.1537 522.254 98.1775 522.135 98.2603 521.995C98.3626 521.848 98.4916 521.713 98.6471 521.591C98.8223 521.462 98.9947 521.357 99.1643 521.274C99.3339 521.191 99.472 521.175 99.5784 521.226C100.565 523.617 101.483 525.479 102.335 526.812C103.2 528.118 103.967 529.028 104.636 529.541C105.326 530.047 105.929 530.218 106.446 530.056C106.956 529.874 107.38 529.48 107.716 528.873C108.046 528.246 108.28 527.477 108.419 526.565C108.577 525.646 108.627 524.699 108.566 523.725C108.526 522.744 108.378 521.801 108.121 520.897C107.865 519.994 107.507 519.237 107.046 518.627L108.738 517.791C108.863 518.078 109.087 518.551 109.41 519.21C109.747 519.842 110.118 520.572 110.524 521.4C110.943 522.202 111.386 523.04 111.852 523.913C112.319 524.786 112.744 525.607 113.13 526.377C113.508 527.127 113.838 527.772 114.119 528.313C114.394 528.834 114.556 529.164 114.605 529.301L113.339 529.753L110.139 525.155C110.109 525.939 110.01 526.716 109.842 527.484C109.673 528.252 109.438 528.955 109.135 529.594C108.852 530.226 108.504 530.77 108.092 531.227C107.673 531.664 107.201 531.954 106.677 532.097C106.165 532.213 105.601 532.149 104.983 531.906C104.365 531.662 103.692 531.172 102.965 530.436C102.25 529.673 101.494 528.638 100.695 527.33C99.8969 526.023 99.0613 524.363 98.1887 522.352ZM112.61 517.205C112.846 517.121 113.038 517.041 113.188 516.966C113.358 516.883 113.54 516.929 113.735 517.102C114.109 517.964 114.5 518.842 114.907 519.737C115.308 520.611 115.712 521.495 116.12 522.39C116.527 523.284 116.909 524.198 117.265 525.133C117.633 526.041 117.965 526.94 118.26 527.83C118.302 527.948 118.298 528.027 118.246 528.068C118.201 528.128 118.116 528.169 117.991 528.192C117.893 528.227 117.762 528.263 117.598 528.299C117.461 528.348 117.311 528.424 117.148 528.526L112.61 517.205ZM109.023 512.546C108.974 512.409 108.931 512.258 108.895 512.094C108.851 511.91 108.835 511.739 108.845 511.581C108.874 511.416 108.92 511.267 108.983 511.133C109.066 510.993 109.186 510.895 109.343 510.839C109.578 510.755 109.817 510.681 110.06 510.617C110.302 510.552 110.545 510.521 110.789 510.522C111.026 510.504 111.241 510.549 111.435 510.657C111.621 510.745 111.763 510.927 111.861 511.201C112.029 511.672 112.003 512.157 111.783 512.656C111.556 513.135 111.187 513.466 110.677 513.648C110.285 513.788 109.948 513.742 109.666 513.511C109.377 513.26 109.163 512.938 109.023 512.546ZM110.783 512.084C110.724 512.105 110.712 512.165 110.747 512.263C110.782 512.361 110.829 512.399 110.888 512.378C110.966 512.35 110.988 512.287 110.953 512.189C110.918 512.091 110.861 512.056 110.783 512.084ZM119.459 527.469C119.307 527.169 119.107 526.732 118.858 526.157C118.621 525.556 118.35 524.89 118.045 524.158C117.752 523.4 117.449 522.612 117.135 521.795C116.821 520.978 116.522 520.2 116.236 519.461C115.95 518.723 115.683 518.066 115.433 517.492C115.197 516.89 114.993 516.443 114.822 516.15C114.815 516.131 114.788 516.085 114.74 516.014C114.712 515.935 114.671 515.85 114.616 515.759C114.581 515.661 114.553 515.583 114.532 515.524C114.504 515.445 114.483 515.386 114.469 515.347C114.679 515.007 114.896 514.841 115.121 514.849C115.365 514.851 115.604 514.964 115.84 515.19C116.068 515.396 116.282 515.685 116.48 516.056C116.679 516.428 116.859 516.806 117.018 517.191C117.198 517.57 117.347 517.926 117.466 518.259C117.578 518.573 117.658 518.799 117.707 518.936C117.628 518.589 117.546 518.175 117.464 517.696C117.381 517.217 117.335 516.714 117.323 516.187C117.312 515.66 117.334 515.132 117.389 514.604C117.456 514.049 117.594 513.535 117.801 513.063C118.009 512.591 118.284 512.183 118.626 511.84C118.987 511.489 119.45 511.236 120.013 511.079C120.89 510.81 121.681 510.794 122.384 511.029C123.107 511.258 123.755 511.679 124.328 512.293C124.921 512.9 125.454 513.65 125.928 514.543C126.421 515.428 126.876 516.394 127.293 517.44C127.73 518.478 128.135 519.55 128.508 520.656C128.873 521.742 129.235 522.786 129.592 523.786C129.429 523.889 129.277 524.02 129.135 524.181C128.987 524.323 128.85 524.405 128.725 524.427C128.608 524.469 128.491 524.422 128.377 524.286C128.274 524.124 128.175 523.783 128.078 523.265C127.972 522.904 127.809 522.354 127.589 521.614C127.382 520.848 127.107 520.017 126.765 519.121C126.443 518.219 126.062 517.304 125.62 516.378C125.179 515.451 124.681 514.645 124.126 513.958C123.584 513.244 122.98 512.73 122.315 512.414C121.642 512.079 120.913 512.052 120.128 512.332C119.443 512.953 118.99 513.822 118.77 514.94C118.569 516.052 118.523 517.285 118.63 518.64C118.758 519.988 119.002 521.416 119.363 522.924C119.737 524.406 120.159 525.837 120.63 527.217C120.583 527.211 120.501 527.23 120.384 527.272C120.286 527.307 120.168 527.349 120.031 527.398C119.906 527.42 119.781 527.443 119.656 527.465C119.551 527.48 119.485 527.482 119.459 527.469ZM129.615 521.157C129.216 520.038 129.23 519.115 129.656 518.388C130.102 517.654 130.825 517.108 131.826 516.751C132.218 516.611 132.585 516.491 132.925 516.392C133.285 516.285 133.636 516.215 133.978 516.182C134.32 516.148 134.666 516.158 135.017 516.209C135.387 516.254 135.791 516.364 136.23 516.54C136.209 516.481 136.167 516.363 136.104 516.187C136.053 515.983 135.989 515.774 135.912 515.558C135.835 515.342 135.765 515.146 135.702 514.969C135.632 514.773 135.583 514.636 135.555 514.557C135.41 514.211 135.239 513.763 135.043 513.214C134.84 512.645 134.584 512.084 134.276 511.53C133.987 510.969 133.611 510.473 133.147 510.041C132.703 509.603 132.138 509.351 131.451 509.286C131.039 509.433 130.681 509.639 130.377 509.902C130.073 510.166 129.772 510.439 129.475 510.722C129.178 511.005 128.877 511.278 128.573 511.541C128.262 511.785 127.9 511.981 127.488 512.128C127.313 511.637 127.317 511.182 127.499 510.763C127.694 510.318 127.975 509.93 128.344 509.599C128.713 509.268 129.122 508.99 129.572 508.763C130.022 508.536 130.423 508.359 130.777 508.233C131.151 508.166 131.499 508.119 131.821 508.093C132.163 508.059 132.504 508.114 132.843 508.259C133.202 508.396 133.576 508.672 133.967 509.085C134.371 509.472 134.805 510.069 135.27 510.876C135.755 511.677 136.294 512.723 136.888 514.015C137.495 515.281 138.18 516.861 138.945 518.756C139.075 518.997 139.068 519.254 138.922 519.527C138.789 519.774 138.57 520.029 138.266 520.292C137.955 520.536 137.591 520.788 137.175 521.047C136.771 521.279 136.35 521.496 135.913 521.696C135.476 521.896 135.055 522.08 134.65 522.247C134.245 522.413 133.905 522.546 133.63 522.644C133.277 522.77 132.893 522.84 132.478 522.856C132.083 522.864 131.69 522.816 131.299 522.713C130.92 522.582 130.577 522.395 130.269 522.151C129.973 521.88 129.755 521.549 129.615 521.157ZM132.706 517.731C131.823 518.356 131.256 518.934 131.003 519.467C130.744 519.98 130.697 520.406 130.862 520.745C131.047 521.077 131.398 521.317 131.915 521.464C132.425 521.592 132.992 521.599 133.616 521.488C134.232 521.356 134.852 521.079 135.476 520.658C136.093 520.216 136.617 519.609 137.049 518.835C136.61 518.35 136.221 518.003 135.88 517.793C135.533 517.563 135.194 517.418 134.863 517.359C134.532 517.3 134.193 517.311 133.846 517.391C133.498 517.47 133.118 517.584 132.706 517.731ZM136.388 532.045C136.318 531.849 136.278 531.675 136.268 531.524C136.239 531.379 136.27 531.28 136.361 531.225C136.432 531.177 136.564 531.175 136.756 531.217C136.955 531.278 137.228 531.424 137.576 531.654C137.667 531.909 137.927 532.049 138.356 532.073C138.765 532.104 139.219 532.074 139.718 531.985C140.224 531.915 140.725 531.802 141.223 531.647C141.701 531.498 142.048 531.385 142.264 531.308C143.225 530.965 143.976 530.498 144.517 529.907C145.085 529.328 145.48 528.667 145.701 527.925C145.95 527.195 146.032 526.402 145.948 525.547C145.89 524.705 145.711 523.862 145.41 523.018C144.976 521.802 144.468 520.656 143.885 519.581C143.329 518.519 142.714 517.477 142.04 516.457C141.359 515.417 140.635 514.381 139.869 513.35C139.096 512.298 138.301 511.188 137.486 510.019C137.139 509.48 136.942 509.052 136.896 508.737C136.849 508.422 136.881 508.2 136.99 508.073C137.112 507.919 137.272 507.839 137.47 507.835C137.687 507.824 137.875 507.856 138.035 507.932C138.81 509.049 139.599 510.205 140.401 511.401C141.197 512.577 141.984 513.789 142.761 515.038C143.539 516.287 144.261 517.567 144.928 518.877C145.594 520.188 146.166 521.51 146.642 522.844C146.971 523.766 147.172 524.701 147.245 525.648C147.324 526.615 147.228 527.524 146.956 528.373C146.704 529.215 146.278 529.975 145.68 530.653C145.081 531.331 144.262 531.856 143.222 532.227C142.751 532.395 142.169 532.592 141.475 532.817C140.781 533.043 140.092 533.189 139.409 533.256C138.712 533.35 138.092 533.317 137.548 533.157C136.992 533.024 136.605 532.653 136.388 532.045ZM132.905 501.368C133.16 501.277 133.449 501.218 133.771 501.192C134.087 501.146 134.4 501.155 134.711 501.221C135.015 501.268 135.288 501.381 135.529 501.56C135.782 501.713 135.965 501.946 136.077 502.26C136.35 503.025 136.085 503.552 135.28 503.839C134.907 503.972 134.588 503.975 134.322 503.849C134.055 503.723 133.831 503.526 133.647 503.26C133.483 502.987 133.342 502.683 133.223 502.35C133.116 501.99 133.01 501.662 132.905 501.368ZM134.818 502.544C134.759 502.565 134.747 502.624 134.782 502.722C134.81 502.801 134.854 502.83 134.913 502.809C134.991 502.78 135.016 502.727 134.988 502.649C134.953 502.551 134.896 502.516 134.818 502.544ZM145.778 506.197C145.58 506.202 145.328 506.269 145.021 506.401C144.726 506.506 144.41 506.641 144.071 506.807C143.744 506.945 143.431 507.09 143.131 507.242C142.831 507.393 142.573 507.507 142.357 507.584C142.259 507.619 142.141 507.506 142.004 507.246C141.879 506.958 141.7 506.58 141.466 506.11L145.511 504.335C145.325 503.627 145.189 503.123 145.104 502.821C145.018 502.52 144.931 502.275 144.841 502.085C144.764 501.87 144.67 501.638 144.559 501.39C144.461 501.115 144.311 500.693 144.108 500.124C144.59 499.863 144.965 499.707 145.235 499.656C145.516 499.577 145.727 499.579 145.867 499.662C146.007 499.745 146.11 499.907 146.174 500.15C146.251 500.366 146.32 500.651 146.38 501.005C146.46 501.353 146.564 501.769 146.693 502.254C146.841 502.732 147.05 503.255 147.319 503.822L150.809 502.444L151.323 503.886C151.166 503.942 150.925 504.04 150.598 504.178C150.272 504.317 149.916 504.466 149.53 504.626C149.164 504.779 148.818 504.924 148.492 505.063C148.185 505.195 147.963 505.318 147.827 505.433C147.922 506.195 148.025 507.01 148.136 507.877C148.246 508.745 148.412 509.582 148.633 510.388C148.855 511.193 149.137 511.922 149.48 512.574C149.816 513.206 150.261 513.678 150.815 513.989C151.361 514.281 152.029 514.385 152.818 514.303C153.6 514.2 154.54 513.798 155.639 513.097C155.705 513.405 155.675 513.692 155.549 513.958C155.435 514.198 155.272 514.422 155.059 514.631C154.858 514.813 154.631 514.983 154.377 515.14C154.117 515.277 153.878 515.384 153.663 515.461C152.662 515.818 151.804 515.925 151.09 515.782C150.368 515.619 149.755 515.296 149.25 514.813C148.746 514.329 148.322 513.728 147.977 513.011C147.625 512.274 147.319 511.509 147.059 510.717C146.818 509.918 146.6 509.122 146.406 508.329C146.211 507.536 146.002 506.825 145.778 506.197ZM155.78 511.819C155.381 510.7 155.395 509.777 155.821 509.05C156.267 508.316 156.99 507.77 157.991 507.413C158.383 507.273 158.749 507.153 159.09 507.054C159.45 506.947 159.801 506.877 160.143 506.844C160.485 506.81 160.831 506.819 161.182 506.871C161.552 506.916 161.956 507.026 162.394 507.202C162.373 507.143 162.331 507.025 162.268 506.848C162.218 506.645 162.154 506.436 162.077 506.22C162 506.004 161.93 505.808 161.867 505.631C161.797 505.435 161.748 505.298 161.72 505.219C161.574 504.873 161.404 504.425 161.208 503.876C161.004 503.307 160.749 502.746 160.441 502.192C160.152 501.631 159.776 501.135 159.312 500.703C158.868 500.265 158.303 500.013 157.616 499.948C157.204 500.095 156.846 500.301 156.542 500.564C156.237 500.827 155.937 501.101 155.64 501.384C155.342 501.667 155.042 501.94 154.738 502.203C154.426 502.447 154.065 502.642 153.653 502.79C153.478 502.299 153.481 501.844 153.664 501.425C153.858 500.98 154.14 500.592 154.509 500.261C154.878 499.93 155.287 499.651 155.737 499.425C156.187 499.198 156.588 499.021 156.941 498.895C157.316 498.828 157.664 498.781 157.986 498.754C158.328 498.721 158.669 498.776 159.008 498.921C159.366 499.058 159.741 499.334 160.132 499.747C160.536 500.134 160.97 500.731 161.435 501.538C161.92 502.339 162.459 503.385 163.053 504.677C163.66 505.943 164.345 507.523 165.11 509.418C165.24 509.659 165.232 509.916 165.087 510.189C164.953 510.436 164.735 510.691 164.431 510.954C164.119 511.198 163.756 511.45 163.339 511.709C162.936 511.941 162.515 512.158 162.078 512.358C161.641 512.558 161.22 512.742 160.815 512.909C160.409 513.075 160.07 513.208 159.795 513.306C159.442 513.432 159.058 513.502 158.643 513.518C158.248 513.526 157.855 513.478 157.464 513.374C157.085 513.244 156.742 513.057 156.434 512.813C156.138 512.542 155.92 512.211 155.78 511.819ZM158.871 508.393C157.988 509.018 157.42 509.596 157.168 510.129C156.909 510.642 156.862 511.068 157.027 511.407C157.212 511.739 157.563 511.979 158.08 512.126C158.59 512.254 159.157 512.261 159.78 512.149C160.397 512.018 161.017 511.741 161.641 511.32C162.258 510.878 162.782 510.271 163.214 509.497C162.775 509.012 162.386 508.665 162.045 508.454C161.698 508.225 161.359 508.08 161.028 508.021C160.697 507.962 160.358 507.973 160.01 508.052C159.663 508.132 159.283 508.246 158.871 508.393ZM162.553 522.707C162.483 522.511 162.443 522.337 162.433 522.185C162.404 522.041 162.435 521.942 162.526 521.887C162.597 521.839 162.729 521.837 162.921 521.879C163.12 521.94 163.393 522.086 163.741 522.316C163.832 522.571 164.092 522.711 164.52 522.735C164.93 522.765 165.384 522.736 165.883 522.647C166.389 522.577 166.89 522.464 167.388 522.308C167.866 522.16 168.213 522.047 168.428 521.97C169.39 521.627 170.141 521.16 170.682 520.569C171.25 519.99 171.645 519.329 171.866 518.587C172.114 517.857 172.196 517.064 172.113 516.209C172.055 515.367 171.876 514.524 171.575 513.68C171.141 512.464 170.632 511.318 170.05 510.243C169.494 509.181 168.879 508.139 168.205 507.119C167.524 506.079 166.8 505.043 166.034 504.011C165.261 502.96 164.466 501.85 163.651 500.681C163.303 500.142 163.107 499.714 163.06 499.399C163.014 499.083 163.046 498.862 163.155 498.735C163.277 498.58 163.437 498.501 163.635 498.497C163.852 498.486 164.04 498.518 164.2 498.594C164.975 499.711 165.763 500.867 166.566 502.063C167.362 503.239 168.149 504.451 168.926 505.7C169.704 506.949 170.426 508.229 171.092 509.539C171.759 510.849 172.331 512.172 172.807 513.506C173.136 514.428 173.337 515.363 173.41 516.31C173.489 517.277 173.393 518.185 173.121 519.035C172.869 519.877 172.443 520.637 171.845 521.315C171.246 521.993 170.427 522.518 169.387 522.889C168.916 523.057 168.334 523.254 167.64 523.479C166.946 523.705 166.257 523.851 165.573 523.918C164.877 524.012 164.257 523.979 163.713 523.819C163.157 523.686 162.77 523.315 162.553 522.707ZM159.07 492.03C159.325 491.939 159.614 491.88 159.936 491.854C160.252 491.807 160.565 491.817 160.876 491.883C161.18 491.93 161.453 492.042 161.694 492.222C161.947 492.375 162.13 492.608 162.242 492.922C162.515 493.687 162.249 494.213 161.445 494.501C161.072 494.634 160.753 494.637 160.486 494.511C160.22 494.385 159.995 494.188 159.812 493.922C159.648 493.649 159.506 493.345 159.387 493.012C159.281 492.652 159.175 492.324 159.07 492.03ZM160.983 493.206C160.924 493.227 160.912 493.286 160.947 493.384C160.975 493.463 161.019 493.491 161.077 493.47C161.156 493.442 161.181 493.389 161.153 493.311C161.118 493.213 161.061 493.178 160.983 493.206ZM168.06 497.416C168.025 497.317 168.049 497.198 168.131 497.058C168.234 496.911 168.363 496.777 168.518 496.655C168.693 496.526 168.866 496.42 169.035 496.337C169.205 496.255 169.343 496.239 169.449 496.289C170.435 498.68 171.354 500.542 172.206 501.875C173.071 503.181 173.838 504.091 174.507 504.604C175.197 505.11 175.8 505.282 176.317 505.119C176.827 504.937 177.251 504.543 177.587 503.936C177.917 503.31 178.151 502.541 178.29 501.628C178.448 500.709 178.498 499.762 178.437 498.788C178.397 497.807 178.249 496.865 177.992 495.961C177.736 495.057 177.378 494.3 176.917 493.69L178.609 492.854C178.734 493.142 178.958 493.615 179.281 494.273C179.618 494.905 179.989 495.636 180.395 496.464C180.814 497.266 181.257 498.103 181.723 498.976C182.189 499.849 182.615 500.671 183.001 501.44C183.379 502.19 183.709 502.835 183.99 503.376C184.265 503.898 184.427 504.227 184.476 504.364L183.21 504.816L180.01 500.218C179.98 501.003 179.881 501.779 179.713 502.547C179.544 503.315 179.309 504.019 179.006 504.658C178.723 505.29 178.375 505.834 177.963 506.291C177.544 506.728 177.072 507.018 176.548 507.161C176.036 507.277 175.472 507.213 174.854 506.969C174.236 506.725 173.563 506.235 172.836 505.499C172.121 504.737 171.365 503.702 170.566 502.394C169.768 501.086 168.932 499.427 168.06 497.416ZM195.19 514.211C194.84 513.23 194.567 512.188 194.373 511.085C194.178 509.982 193.984 508.879 193.789 507.776C193.614 506.666 193.4 505.57 193.147 504.488C192.913 503.399 192.568 502.372 192.113 501.406L180.352 491.602C180.644 491.055 180.91 490.717 181.151 490.587C181.385 490.437 181.529 490.374 181.582 490.4C181.789 490.547 182.145 490.829 182.648 491.247C183.17 491.658 183.764 492.143 184.428 492.702C185.111 493.254 185.829 493.839 186.58 494.456C187.331 495.072 188.038 495.66 188.703 496.22C189.386 496.772 189.973 497.27 190.464 497.715C190.974 498.152 191.326 498.458 191.521 498.632L188.978 487.229L190.712 487.44L196.546 513.827L195.19 514.211ZM191.899 488.907C191.864 488.809 191.888 488.69 191.971 488.55C192.073 488.403 192.202 488.268 192.358 488.146C192.533 488.018 192.705 487.912 192.875 487.829C193.045 487.746 193.183 487.73 193.289 487.781C194.275 490.172 195.194 492.034 196.046 493.367C196.91 494.673 197.677 495.583 198.347 496.096C199.036 496.602 199.64 496.774 200.157 496.611C200.667 496.429 201.09 496.035 201.427 495.428C201.756 494.802 201.99 494.032 202.129 493.12C202.288 492.201 202.337 491.254 202.277 490.28C202.237 489.299 202.088 488.357 201.832 487.453C201.576 486.549 201.217 485.792 200.756 485.182L202.449 484.346C202.573 484.633 202.798 485.106 203.121 485.765C203.457 486.397 203.829 487.127 204.235 487.956C204.654 488.757 205.096 489.595 205.563 490.468C206.029 491.341 206.455 492.162 206.84 492.932C207.218 493.682 207.548 494.327 207.83 494.868C208.104 495.39 208.266 495.719 208.315 495.856L207.05 496.308L203.849 491.71C203.82 492.495 203.721 493.271 203.552 494.039C203.384 494.807 203.148 495.51 202.846 496.149C202.562 496.781 202.215 497.326 201.803 497.782C201.383 498.22 200.912 498.51 200.388 498.652C199.876 498.769 199.311 498.705 198.693 498.461C198.075 498.217 197.403 497.727 196.676 496.991C195.961 496.228 195.205 495.193 194.406 493.886C193.608 492.578 192.772 490.918 191.899 488.907ZM203.136 476.137C203.466 476.816 203.825 477.573 204.212 478.408C204.611 479.217 205.001 480.062 205.382 480.943C205.756 481.805 206.114 482.684 206.456 483.58C206.79 484.456 207.078 485.293 207.319 486.092C207.535 485.705 207.735 485.368 207.92 485.081C208.118 484.767 208.316 484.486 208.515 484.238C208.734 483.983 208.957 483.771 209.184 483.601C209.431 483.425 209.731 483.273 210.084 483.147C210.79 482.895 211.501 482.841 212.215 482.984C212.923 483.107 213.585 483.38 214.2 483.802C214.808 484.204 215.342 484.71 215.803 485.32C216.277 485.903 216.629 486.518 216.86 487.166C217.213 488.279 217.303 489.242 217.129 490.056C216.948 490.851 216.577 491.547 216.016 492.146C215.475 492.737 214.754 493.227 213.853 493.615C212.971 493.996 212.016 494.325 210.987 494.604L210.494 493.221C210.959 493.409 211.349 493.479 211.664 493.433C211.973 493.367 212.333 493.261 212.745 493.114C213.393 492.883 213.946 492.575 214.406 492.189C214.866 491.804 215.219 491.368 215.466 490.882C215.725 490.369 215.862 489.823 215.876 489.243C215.91 488.655 215.818 488.058 215.601 487.449C215.412 486.92 215.214 486.459 215.008 486.068C214.803 485.677 214.532 485.353 214.197 485.097C213.882 484.833 213.476 484.624 212.978 484.47C212.474 484.296 211.835 484.181 211.063 484.125C211.017 484.119 210.925 484.141 210.788 484.19C210.643 484.22 210.542 484.245 210.483 484.266C210.169 484.378 209.89 484.588 209.646 484.896C209.395 485.185 209.195 485.522 209.045 485.907C208.888 486.273 208.784 486.664 208.733 487.08C208.676 487.477 208.66 487.836 208.687 488.158C208.732 488.408 208.823 488.851 208.962 489.487C209.113 490.097 209.262 490.762 209.409 491.484C209.576 492.199 209.738 492.871 209.897 493.5C210.055 494.129 210.156 494.569 210.201 494.818L209.226 494.967L201.988 476.547L203.136 476.137Z" fill="#88B1D5"/>
    <path d="M261.294 520.567C261.436 520.33 261.359 520.023 261.122 519.881L257.263 517.567C257.026 517.425 256.719 517.501 256.577 517.738C256.435 517.975 256.512 518.282 256.749 518.424L260.179 520.482L258.121 523.912C257.979 524.149 258.056 524.456 258.293 524.598C258.53 524.74 258.837 524.663 258.979 524.426L261.294 520.567ZM172.868 488.128C174.961 496.772 181.894 508.724 195.869 516.621C209.853 524.524 230.838 528.337 260.986 520.795L260.743 519.825C230.782 527.32 210.073 523.499 196.361 515.751C182.639 507.997 175.871 496.281 173.84 487.893L172.868 488.128Z" fill="#88B1D5"/>
    <path fill-rule="evenodd" clip-rule="evenodd" d="M427.252 180.349C427.264 180.314 427.272 180.277 427.275 180.239C427.301 179.965 427.1 179.721 426.825 179.695C426.669 179.68 426.513 179.67 426.357 179.665C421.402 176.719 415.281 174.702 409.687 176.248C409.232 176.342 408.776 176.542 408.344 176.768C407.995 176.951 407.637 177.164 407.292 177.37C407.205 177.421 407.12 177.472 407.035 177.522C406.604 177.777 406.196 178.008 405.805 178.176C405.413 178.345 405.072 178.435 404.774 178.435C403.679 178.435 402.608 177.885 401.482 177.109C401.067 176.822 400.659 176.516 400.246 176.206C400.102 176.098 399.958 175.99 399.812 175.881C399.255 175.467 398.685 175.059 398.107 174.729C398.095 174.722 398.084 174.716 398.072 174.711C392.565 172.119 386.134 172.784 380.437 174.367C380.181 174.438 380.025 174.697 380.083 174.956C380.14 175.215 380.391 175.384 380.653 175.341C382.336 175.06 384.081 175.904 385.3 176.819C385.892 177.263 386.496 177.865 387.122 178.53C387.324 178.745 387.53 178.968 387.738 179.193C388.161 179.652 388.593 180.119 389.019 180.545C389.025 180.551 389.031 180.557 389.038 180.563C392.27 183.471 397.706 185.699 402.155 186.652L402.159 186.653C407.667 187.787 412.271 186.077 416.262 184.22C416.924 183.912 417.565 183.602 418.189 183.3C419.464 182.684 420.67 182.101 421.849 181.633C423.347 181.04 424.739 180.662 426.073 180.659C426.221 180.748 426.368 180.838 426.513 180.93C426.747 181.076 427.055 181.005 427.202 180.771C427.283 180.64 427.297 180.485 427.252 180.349Z" stroke="white" stroke-miterlimit="10" stroke-linecap="round" stroke-linejoin="round"/>
    <path d="M374.27 127.307C370.812 126.05 366.726 126.05 363.268 127.307" stroke="white" stroke-miterlimit="10" stroke-linecap="round" stroke-linejoin="round"/>
    <path d="M370.185 123.849C371.128 120.706 373.328 117.877 376.471 116.305C379.3 114.733 382.758 114.105 385.901 114.419C388.731 114.733 391.874 115.362 394.074 117.248C397.846 120.077 399.104 125.421 397.532 129.822C395.96 134.222 392.188 137.68 387.473 138.623" stroke="white" stroke-miterlimit="10" stroke-linecap="round" stroke-linejoin="round"/>
    <path d="M441.54 133.908C444.055 134.222 446.569 133.908 448.77 132.651" stroke="white" stroke-miterlimit="10" stroke-linecap="round" stroke-linejoin="round"/>
    <path d="M442.797 132.336C442.168 128.564 440.282 125.107 437.139 122.906C434.938 121.334 432.424 120.077 429.909 120.077C427.709 120.077 425.508 120.706 423.308 121.649C420.793 122.906 418.279 125.107 417.021 127.621C415.764 130.45 416.393 133.908 418.593 135.794C422.051 138.623 427.394 137.051 430.852 139.252" stroke="white" stroke-miterlimit="10" stroke-linecap="round" stroke-linejoin="round"/>
    <path d="M373.327 169.114C375.842 160.941 382.443 154.026 390.616 151.511C388.73 152.768 387.472 155.597 388.73 157.483C389.358 158.741 390.616 159.369 392.187 159.684C393.759 159.998 394.702 159.998 395.959 160.627C397.846 161.255 399.417 162.827 400.989 164.084C402.561 165.342 404.761 165.97 406.647 165.342C407.904 164.713 408.847 163.141 410.105 162.513C411.991 161.57 414.191 162.198 416.077 162.198C418.277 161.884 420.164 160.627 420.792 158.741C421.421 156.855 420.163 154.34 417.963 154.026C422.678 158.112 426.45 163.141 428.651 169.114C428.965 170.057 429.279 171 429.908 171.943C430.537 172.886 431.48 173.2 432.737 173.2" stroke="white" stroke-miterlimit="10" stroke-linecap="round" stroke-linejoin="round"/>
    <path d="M436.51 168.171C439.339 171.314 440.282 176.029 438.081 179.801" stroke="white" stroke-miterlimit="10" stroke-linecap="round" stroke-linejoin="round"/>
    <path d="M453.799 133.594C455.056 145.539 454.742 154.026 453.485 159.055C449.398 176.658 440.597 189.546 425.823 199.605C418.279 204.634 410.735 212.807 401.619 211.864C386.531 210.606 381.501 202.434 372.071 194.261C366.413 189.232 358.24 180.116 356.354 170.686C354.782 160.941 354.154 154.654 355.411 144.596C355.411 143.653 356.04 141.138 356.04 140.195" stroke="white" stroke-miterlimit="10" stroke-linecap="round" stroke-linejoin="round"/>
    <path d="M420.233 113.237C427.778 110.408 437.208 112.922 442.237 119.209" stroke="white" stroke-miterlimit="10" stroke-linecap="round" stroke-linejoin="round"/>
    <path d="M442.25 119.128C442.328 117.525 442.273 113.711 441.429 111.272" stroke="white" stroke-linecap="round"/>
    <path d="M391.561 106.561C384.331 102.789 374.622 104.793 369.907 110.451C369.673 109.083 369.649 105.972 371.432 104.471" stroke="white" stroke-miterlimit="10" stroke-linecap="round" stroke-linejoin="round"/>
    <path d="M393.76 93.6727C394.075 93.6727 394.389 93.6727 394.389 93.6727C399.733 93.987 404.448 95.2444 411.992 94.6157C418.279 93.987 422.365 98.0734 428.337 99.3308" stroke="white" stroke-miterlimit="10" stroke-linecap="round" stroke-linejoin="round"/>
    <path d="M402.248 84.8712C406.02 86.7572 410.106 87.7003 414.192 87.7003C416.393 87.7003 418.907 87.3859 420.794 88.6433" stroke="white" stroke-miterlimit="10" stroke-linecap="round" stroke-linejoin="round"/>
    <path d="M356.352 140.195C355.095 123.22 359.496 105.932 368.612 91.7867C372.698 85.1856 378.042 79.2132 384.957 76.0698C393.759 71.9834 404.132 73.2407 413.562 74.4981C423.935 75.7555 435.251 77.3271 443.11 84.5569C449.711 90.215 453.169 99.0165 454.112 107.504C455.369 115.991 454.112 124.792 453.169 133.594" stroke="white" stroke-miterlimit="10" stroke-linecap="round" stroke-linejoin="round"/>
    <path d="M455.056 127.621C456.628 126.049 456.942 124.163 457.885 122.277C458.828 120.391 460.4 118.505 462.286 118.82C463.857 118.82 465.115 120.077 465.743 121.649C467.315 124.478 467.629 127.936 467.001 131.079C466.686 134.222 465.743 137.366 465.115 140.509C464.8 143.652 464.8 146.796 464.486 149.939C464.172 153.083 463.229 156.226 461.343 158.741C459.457 161.255 455.999 162.827 453.17 162.198" stroke="white" stroke-miterlimit="10" stroke-linecap="round" stroke-linejoin="round"/>
    <path d="M463.542 133.279C463.857 132.336 463.857 131.393 463.542 130.45C463.228 129.507 462.285 128.879 461.342 129.193C460.713 129.507 460.399 130.136 460.399 130.765C459.456 133.908 458.513 137.051 457.57 140.509C458.513 140.195 459.77 139.88 460.713 139.252C461.342 143.024 460.399 147.424 458.198 150.568" stroke="white" stroke-miterlimit="10" stroke-linecap="round" stroke-linejoin="round"/>
    <path d="M357.924 116.305C357.296 114.105 356.353 112.219 355.095 110.647C353.524 109.075 351.323 108.132 349.123 108.761C346.923 109.39 345.98 111.904 345.037 114.105C342.522 122.277 342.836 131.079 343.465 139.88C343.779 143.024 344.094 146.167 345.351 148.682C346.923 151.511 351.323 153.083 354.467 152.768" stroke="white" stroke-miterlimit="10" stroke-linecap="round" stroke-linejoin="round"/>
    <path d="M347.552 124.478C347.866 123.535 347.866 122.592 348.495 121.649C349.123 120.706 350.381 120.391 351.009 120.706C351.952 121.02 352.267 122.277 352.267 123.22C352.581 124.792 352.895 126.364 353.21 127.936C353.21 128.25 353.21 128.879 353.21 129.193C352.581 129.822 351.638 129.193 350.695 129.507C349.752 129.507 349.123 130.45 348.809 131.393C347.552 134.537 347.866 138.309 349.752 141.138" stroke="white" stroke-miterlimit="10" stroke-linecap="round" stroke-linejoin="round"/>
    <path d="M467.314 123.535C471.086 108.132 468.257 90.8437 459.456 77.6415C452.855 67.897 440.596 58.7812 424.879 55.0092C419.849 53.7518 409.476 53.1231 404.761 53.7518C395.645 54.3805 379.928 58.7812 371.756 65.068C358.239 75.4411 349.438 91.7867 348.18 108.761" stroke="white" stroke-miterlimit="10" stroke-linecap="round" stroke-linejoin="round"/>
    <path d="M388.73 196.461C390.931 193.318 398.475 193.318 401.933 193.947C405.705 194.575 408.534 195.518 411.991 197.404" stroke="white" stroke-miterlimit="10" stroke-linecap="round" stroke-linejoin="round"/>
    <path d="M369.87 159.998C368.927 162.198 367.984 164.399 367.041 166.913C366.413 168.799 365.784 170.685 366.413 172.572" stroke="white" stroke-miterlimit="10" stroke-linecap="round" stroke-linejoin="round"/>
    <path d="M378.043 48.7224C390.616 41.807 404.447 38.6636 418.593 41.1783C432.738 43.693 445.626 46.522 454.741 57.2095" stroke="white" stroke-miterlimit="10" stroke-linecap="round" stroke-linejoin="round"/>
    <path d="M390.121 43.1832C389.085 39.9045 387.998 32.907 391.933 31.1469C396.851 28.9467 404.357 22.8638 404.228 20.5342" stroke="white" stroke-linecap="round"/>
    <path d="M399.957 40.5947C399.137 38.0925 398.3 32.8553 401.51 31.9234" stroke="white" stroke-linecap="round"/>
    <path d="M366.178 95.4699C364.884 93.8306 362.968 89.2058 365.66 83.8219C368.352 78.4379 370.147 75.884 370.708 75.28" stroke="white" stroke-linecap="round"/>
    <path d="M454.574 109.965C457.076 108.24 462.235 103.132 462.857 96.5053" stroke="white" stroke-linecap="round"/>
    <path d="M453.538 103.753C454.746 103.537 457.369 102.174 458.197 98.4466" stroke="white" stroke-linecap="round"/>
    <path d="M387.158 45.2646C387.473 48.7223 388.416 53.4374 389.044 56.8951" stroke="white" stroke-miterlimit="10" stroke-linecap="round" stroke-linejoin="round"/>
    <path d="M378.357 49.351C381.186 49.0367 384.33 48.408 387.159 48.0937C384.016 49.351 380.872 51.5514 378.672 54.0661C381.815 53.4374 385.273 53.1231 388.416 52.4944C384.644 54.3805 381.186 56.5808 378.357 59.7242" stroke="white" stroke-miterlimit="10" stroke-linecap="round" stroke-linejoin="round"/>
    <path d="M393.13 43.0643C393.13 46.8364 393.759 50.6084 394.388 54.3805" stroke="white" stroke-miterlimit="10" stroke-linecap="round" stroke-linejoin="round"/>
    <path d="M408.849 41.1783C408.535 44.9503 408.535 48.7224 408.535 52.8088" stroke="white" stroke-miterlimit="10" stroke-linecap="round" stroke-linejoin="round"/>
    <path d="M395.331 53.7518C395.331 49.9797 396.903 45.8933 396.903 42.1213C397.217 42.1213 397.531 42.4356 397.846 42.75C399.103 46.2077 399.417 49.9797 400.675 53.4374C400.989 49.0367 401.932 44.636 403.19 40.5496C404.761 44.3216 406.333 48.0937 407.59 51.8658" stroke="white" stroke-miterlimit="10" stroke-linecap="round" stroke-linejoin="round"/>
    <path d="M418.278 41.8069C417.964 45.8933 417.65 50.294 416.707 54.3804" stroke="white" stroke-miterlimit="10" stroke-linecap="round" stroke-linejoin="round"/>
    <path d="M431.481 44.636C431.167 48.4081 430.224 52.1802 428.966 55.6379" stroke="white" stroke-miterlimit="10" stroke-linecap="round" stroke-linejoin="round"/>
    <path d="M431.48 44.9503C427.394 44.636 423.307 44.636 419.221 45.2646C422.993 46.8363 426.765 48.408 430.223 50.2941C425.822 50.9227 421.736 51.5514 417.335 52.1801" stroke="white" stroke-miterlimit="10" stroke-linecap="round" stroke-linejoin="round"/>
    <path d="M439.338 47.1507C438.709 50.6084 437.452 54.0661 435.566 57.2095" stroke="white" stroke-miterlimit="10" stroke-linecap="round" stroke-linejoin="round"/>
    <path d="M448.768 52.4945C448.139 55.9522 446.882 59.0956 444.996 61.9246" stroke="white" stroke-miterlimit="10" stroke-linecap="round" stroke-linejoin="round"/>
    <path d="M436.51 57.2095C438.71 54.6948 440.91 51.5514 442.797 48.7224C443.111 52.4944 442.482 56.2665 441.225 59.7242C443.425 56.8952 445.626 54.0661 447.512 51.5514" stroke="white" stroke-miterlimit="10" stroke-linecap="round" stroke-linejoin="round"/>
    <path d="M352.11 188.547C342.969 205.883 350.573 212.65 327.659 222.324C304.746 231.999 253.125 316.639 243.506 371.862C222.76 489.424 281.541 500.74 316.747 508.599C313.289 465.849 329.006 426.557 355.725 392.922C343.466 385.378 329.32 377.206 330.263 349.229" stroke="white" stroke-miterlimit="10" stroke-linecap="round" stroke-linejoin="round"/>
    <path d="M365.603 188.326C365.757 193.733 366.159 205.444 366.53 209.029" stroke="white" stroke-linecap="round"/>
    <path d="M352.161 188.635C354.118 187.193 359.051 184.401 363.13 184.772" stroke="white" stroke-linecap="round"/>
    <path d="M356.039 392.922C365.783 397.952 395.331 397.637 402.875 396.066C421.107 392.294 428.022 400.152 421.107 402.667C412.62 405.81 401.932 408.639 392.188 408.325C404.761 413.04 416.077 414.926 428.022 412.726C429.594 412.411 438.081 410.211 440.596 414.297C442.482 416.812 439.967 419.956 439.967 419.956C439.967 419.956 443.425 417.441 445.939 418.698C449.397 420.27 449.083 423.728 448.14 426.557C447.197 429.386 444.368 431.586 441.853 433.472C443.739 436.93 444.053 439.759 441.853 442.902C439.653 446.046 435.566 448.246 431.48 448.875C433.68 449.818 433.68 452.961 432.423 454.847C431.166 456.733 425.822 459.248 423.621 459.876C413.248 463.02 391.245 461.762 374.899 456.733C358.553 451.389 345.351 442.273 335.292 428.757" stroke="white" stroke-miterlimit="10" stroke-linecap="round" stroke-linejoin="round"/>
    <g clip-path="url(#clip0_613_3223)">
        <path d="M492.614 480.598H491.981C488.819 480.598 485.973 480.909 482.811 480.909C482.179 480.909 481.546 480.909 480.914 480.598C480.281 480.288 479.965 479.666 479.649 479.045C478.7 476.87 477.752 474.696 476.803 472.521C481.23 472.521 485.657 472.521 490.084 472.21H491.349C491.349 472.21 484.392 439.901 474.273 422.504L472.376 426.543C469.846 433.377 460.044 452.328 432.533 453.57L431.901 455.124C430.636 456.988 425.261 459.473 423.047 460.094C412.612 463.201 390.477 461.958 374.034 456.988C357.591 452.017 344.626 442.386 334.508 428.717L332.927 427.475C325.654 441.765 319.646 464.444 319.646 464.444L320.594 464.754C323.756 465.376 326.919 465.686 330.081 466.308C327.235 469.414 321.227 474.385 317.748 476.56L317.116 476.87C315.851 486.811 315.535 497.063 316.167 507.626C316.167 507.626 327.387 512.66 367.862 517.01C408.07 519.41 432.492 518.998 465.679 513.257C480.225 509.529 491.981 505.451 491.981 505.451C492.93 496.753 492.93 488.675 492.614 480.598ZM411.031 466.618C422.415 465.065 445.498 461.337 445.498 461.337C449.293 464.444 453.403 466.929 457.83 468.793L458.147 469.104C446.131 473.764 433.166 476.56 420.201 477.492C420.201 477.492 412.296 470.968 408.817 466.929C409.45 466.618 410.399 466.308 411.031 466.618ZM368.975 514.15L345.575 511.354H345.259C345.259 510.111 345.259 506.383 345.259 505.141C343.994 505.141 338.302 504.519 337.354 504.209C337.354 506.383 337.354 508.247 337.037 510.422L331.345 509.801L321.543 508.247C321.543 505.451 321.227 503.587 321.227 500.791V500.481C320.594 500.481 320.278 500.17 319.646 500.17C322.492 493.957 328.816 484.326 330.397 483.705C332.61 482.773 335.14 483.084 337.67 483.394C347.472 484.947 357.275 486.19 367.077 487.743C369.923 489.297 372.769 490.539 375.615 492.093C375.931 492.403 376.564 492.714 376.564 493.025C376.88 493.646 376.564 494.267 376.248 494.578C376.564 497.063 376.564 502.345 376.88 504.83L368.975 514.15ZM356.01 478.113L360.121 468.482C362.967 468.172 390.793 468.793 393.323 468.482C392.058 471.9 391.11 474.074 389.845 477.492C379.726 478.424 365.813 477.492 356.01 478.113ZM429.687 506.073C414.193 505.451 398.699 504.83 383.52 505.762C384.153 499.238 384.469 497.685 384.785 493.025C400.28 493.646 414.193 493.025 429.687 492.093C429.687 497.685 430.004 499.859 429.687 506.073ZM473.957 494.578H435.696C438.858 489.607 440.439 486.811 442.968 481.53C446.447 481.22 450.241 481.22 453.72 481.22C458.463 481.22 462.574 481.22 467.633 481.53C469.846 484.015 472.06 486.19 474.273 488.675L473.957 494.578Z" fill="white"/>
    </g>
    <path d="M441.225 419.327C431.48 425.928 415.449 427.185 399.732 424.356" stroke="white" stroke-miterlimit="10" stroke-linecap="round" stroke-linejoin="round"/>
    <path d="M441.539 433.472C428.966 439.444 413.563 440.388 400.361 437.873" stroke="white" stroke-miterlimit="10" stroke-linecap="round" stroke-linejoin="round"/>
    <path d="M431.481 448.875C422.68 451.389 412.621 451.704 403.819 450.761" stroke="white" stroke-miterlimit="10" stroke-linecap="round" stroke-linejoin="round"/>
    <path d="M445.941 387.264C479.889 417.755 496.235 460.819 491.834 506.084C529.869 503.884 558.16 470.25 559.103 402.667V399.838C556.902 354.259 530.467 284.021 506.891 244.728C482.96 209.086 459.491 226.509 451.684 193.502" stroke="white" stroke-miterlimit="10" stroke-linecap="round" stroke-linejoin="round"/>
    <path d="M454.227 381.575C474.798 396.374 513.188 441.513 502.177 503.671" stroke="white" stroke-linecap="round"/>
    <path d="M469.766 359.376C490.633 360.708 537.518 371.985 558.118 406.438" stroke="white" stroke-linecap="round"/>
    <path d="M240.669 432.633C242.889 411.914 264.201 369.587 331.686 366.035" stroke="white" stroke-linecap="round"/>
    <path d="M305.047 506.335C305.047 475.7 313.572 409.013 347.67 387.347" stroke="white" stroke-linecap="round"/>
    <path d="M445.625 387.264C437.138 389.15 428.965 392.294 421.421 396.066" stroke="white" stroke-miterlimit="10" stroke-linecap="round" stroke-linejoin="round"/>
    <path d="M418.907 417.755C418.593 419.641 418.907 421.842 419.536 423.728" stroke="white" stroke-miterlimit="10" stroke-linecap="round" stroke-linejoin="round"/>
    <path d="M422.994 419.012C422.68 419.955 422.994 421.841 423.937 422.47" stroke="white" stroke-miterlimit="10" stroke-linecap="round" stroke-linejoin="round"/>
    <path d="M422.365 455.476C422.051 456.419 422.365 458.305 423.308 458.933" stroke="white" stroke-miterlimit="10" stroke-linecap="round" stroke-linejoin="round"/>
    <path d="M405.39 397.009C405.076 397.952 405.39 399.838 406.333 400.467" stroke="white" stroke-miterlimit="10" stroke-linecap="round" stroke-linejoin="round"/>
    <path d="M425.822 442.588C425.508 443.845 425.508 446.046 425.822 446.989" stroke="white" stroke-miterlimit="10" stroke-linecap="round" stroke-linejoin="round"/>
    <path d="M419.536 454.847C419.221 456.104 419.221 458.305 419.536 459.248" stroke="white" stroke-miterlimit="10" stroke-linecap="round" stroke-linejoin="round"/>
    <path d="M425.194 430.957C424.879 432.215 425.194 434.729 426.137 435.672" stroke="white" stroke-miterlimit="10" stroke-linecap="round" stroke-linejoin="round"/>
    <path d="M422.364 429.071C421.107 431.272 421.107 434.101 422.364 436.301" stroke="white" stroke-miterlimit="10" stroke-linecap="round" stroke-linejoin="round"/>
    <path d="M402.876 397.009C401.618 399.209 401.618 402.038 402.876 404.239" stroke="white" stroke-miterlimit="10" stroke-linecap="round" stroke-linejoin="round"/>
    <path d="M422.364 441.959C421.106 444.16 421.421 446.989 423.307 448.56" stroke="white" stroke-miterlimit="10" stroke-linecap="round" stroke-linejoin="round"/>
    <path d="M392.817 413.04C398.16 415.555 395.96 421.842 392.502 423.728C394.703 424.356 396.274 427.5 396.274 430.014C396.274 432.529 394.388 436.301 392.188 436.93C399.103 440.388 396.274 446.989 391.559 448.875C397.217 452.332 392.188 458.305 389.359 457.047" stroke="white" stroke-miterlimit="10" stroke-linecap="round" stroke-linejoin="round"/>
    <path d="M406.02 407.696C413.878 409.897 423.308 407.382 430.538 403.924C430.852 405.182 429.281 407.382 425.194 409.897C421.736 412.411 417.021 413.983 412.306 413.669" stroke="white" stroke-miterlimit="10" stroke-linecap="round" stroke-linejoin="round"/>
    <path d="M472.343 425.928C469.829 432.843 460.084 452.018 432.737 453.275" stroke="white" stroke-miterlimit="10" stroke-linecap="round" stroke-linejoin="round"/>
    <path d="M363.268 375.32C388.415 359.917 422.992 385.693 449.082 372.176" stroke="white" stroke-miterlimit="10" stroke-linecap="round" stroke-linejoin="round"/>
    <path d="M422.68 264.987C422.68 245.498 446.308 218.367 451.46 193.95" stroke="white" stroke-miterlimit="10" stroke-linecap="round" stroke-linejoin="round"/>
    <path d="M352.267 188.917C373.642 218.779 391.244 242.355 392.502 268.13" stroke="white" stroke-miterlimit="10" stroke-linecap="round" stroke-linejoin="round"/>
    <path d="M330.578 358.66C311.089 359.603 291.6 364.946 274.625 374.377C265.195 379.406 256.394 385.693 249.793 394.18C243.192 402.353 238.791 413.04 239.42 423.728" stroke="white" stroke-miterlimit="10" stroke-linecap="round" stroke-linejoin="round"/>
    <path d="M471.715 354.887C504.72 355.83 537.097 371.233 558.472 396.066" stroke="white" stroke-miterlimit="10" stroke-linecap="round" stroke-linejoin="round"/>
    <path d="M369.87 213.121C388.416 222.551 422.05 225.38 441.853 219.094" stroke="white" stroke-miterlimit="10" stroke-linecap="round" stroke-linejoin="round"/>
    <path d="M385.901 241.525C398.313 246.273 417.584 246.638 429.996 241.525" stroke="white" stroke-miterlimit="10" stroke-linecap="round" stroke-linejoin="round"/>
    <path d="M379.301 228.838C381.815 226.638 386.845 222.866 389.674 220.665C392.189 229.152 394.703 236.696 398.161 244.555C401.304 236.696 405.391 230.095 409.792 223.18C413.878 230.095 417.65 236.382 418.907 243.926C423.622 237.011 426.451 230.724 428.966 222.866C430.852 226.009 432.424 227.895 434.31 230.724" stroke="white" stroke-miterlimit="10" stroke-linecap="round" stroke-linejoin="round"/>
    <path d="M374.899 413.354C377.414 412.411 379.929 411.468 382.444 410.525" stroke="white" stroke-miterlimit="10" stroke-linecap="round" stroke-linejoin="round"/>
    <path d="M377.729 416.812C379.929 416.184 381.815 415.555 384.015 414.926" stroke="white" stroke-miterlimit="10" stroke-linecap="round" stroke-linejoin="round"/>
    <path d="M447.511 395.437C444.054 397.009 440.91 398.266 437.453 399.838" stroke="white" stroke-miterlimit="10" stroke-linecap="round" stroke-linejoin="round"/>
    <path d="M441.226 402.667C442.483 402.353 444.055 402.353 445.312 402.038" stroke="white" stroke-miterlimit="10" stroke-linecap="round" stroke-linejoin="round"/>
    <path d="M331.207 483.766C333.407 482.823 335.922 483.138 338.437 483.452C348.181 485.024 357.926 486.281 367.67 487.853C367.985 493.825 368.928 499.483 369.871 505.141C359.497 505.456 329.007 502.312 320.52 500.426C323.349 494.139 329.635 484.395 331.207 483.766Z" stroke="white" stroke-miterlimit="10" stroke-linecap="round" stroke-linejoin="round"/>
    <path d="M367.67 487.853C370.499 489.424 373.329 490.682 376.158 492.253C376.472 492.568 377.101 492.882 377.101 493.196C377.415 493.825 377.101 494.454 376.786 494.768C374.586 498.226 372.385 501.683 370.185 505.141" stroke="white" stroke-miterlimit="10" stroke-linecap="round" stroke-linejoin="round"/>
    <path d="M345.981 512.371L369.242 515.2C368.928 513 368.928 508.284 368.928 506.084" stroke="white" stroke-miterlimit="10" stroke-linecap="round" stroke-linejoin="round"/>
    <path d="M376.352 495.958C376.661 498.324 376.661 503.352 376.97 505.718L369.242 514.886" stroke="white" stroke-miterlimit="10" stroke-linecap="round" stroke-linejoin="round"/>
    <path d="M393.446 468.678C390.932 468.992 363.27 468.364 360.441 468.678L356.354 478.422C366.099 477.794 379.93 478.737 389.989 477.794C391.56 474.336 392.503 472.136 393.446 468.678Z" stroke="#1E1E1E" stroke-miterlimit="10" stroke-linecap="round" stroke-linejoin="round"/>
    <path d="M359.182 482.509L358.868 479.051" stroke="#1E1E1E" stroke-miterlimit="10" stroke-linecap="round" stroke-linejoin="round"/>
    <path d="M386.531 478.737V486.595" stroke="#1E1E1E" stroke-miterlimit="10" stroke-linecap="round" stroke-linejoin="round"/>
    <path d="M337.174 510.626C337.174 508.425 337.174 506.539 337.489 504.339C338.432 504.339 344.09 504.968 345.347 505.282C345.347 506.539 345.347 510.311 345.347 511.569" stroke="#1E1E1E" stroke-miterlimit="10" stroke-linecap="round" stroke-linejoin="round"/>
    <path d="M476.745 473.079C477.688 475.279 478.631 477.479 479.574 479.68C479.888 480.308 480.202 480.937 480.831 481.251C481.46 481.566 482.088 481.566 482.717 481.566C485.86 481.566 488.689 481.251 491.833 481.251" stroke="#1E1E1E" stroke-miterlimit="10" stroke-linecap="round" stroke-linejoin="round"/>
    <path d="M476.745 472.764C481.145 472.764 485.546 472.764 489.947 472.45" stroke="#1E1E1E" stroke-miterlimit="10" stroke-linecap="round" stroke-linejoin="round"/>
    <path d="M477.086 473.453C476.969 477.214 476.862 480.633 476.745 484.395" stroke="#1E1E1E" stroke-miterlimit="10" stroke-linecap="round" stroke-linejoin="round"/>
    <path d="M481.145 481.566C481.145 484.08 481.145 486.595 481.145 489.424" stroke="#1E1E1E" stroke-miterlimit="10" stroke-linecap="round" stroke-linejoin="round"/>
    <path d="M419.536 478.737V490.053" stroke="#1E1E1E" stroke-miterlimit="10" stroke-linecap="round" stroke-linejoin="round"/>
    <path d="M411.363 466.792C422.679 465.22 433.995 463.334 445.626 461.762" stroke="#1E1E1E" stroke-miterlimit="10" stroke-linecap="round" stroke-linejoin="round"/>
    <path d="M445.311 461.762C449.083 464.906 453.17 467.421 457.57 469.307" stroke="#1E1E1E" stroke-miterlimit="10" stroke-linecap="round" stroke-linejoin="round"/>
    <path d="M457.885 469.307C445.94 474.022 433.052 476.851 420.164 477.794" stroke="#1E1E1E" stroke-miterlimit="10" stroke-linecap="round" stroke-linejoin="round"/>
    <path d="M419.849 478.422C416.077 474.965 412.305 471.507 408.848 467.421C409.476 467.106 410.419 466.792 411.048 467.106" stroke="#1E1E1E" stroke-miterlimit="10" stroke-linecap="round" stroke-linejoin="round"/>
    <path d="M454.741 470.878C454.741 473.079 455.056 475.279 455.056 477.479" stroke="#1E1E1E" stroke-miterlimit="10" stroke-linecap="round" stroke-linejoin="round"/>
    <path d="M410.419 470.25C410.733 474.336 410.733 478.422 411.048 482.509" stroke="#1E1E1E" stroke-miterlimit="10" stroke-linecap="round" stroke-linejoin="round"/>
    <path d="M473.603 495.082C471.402 490.996 469.202 485.966 467.002 481.88C461.972 481.566 457.886 481.566 453.171 481.566C449.713 481.566 445.941 481.566 442.483 481.88C439.968 487.224 438.397 490.367 435.253 495.082H473.603Z" stroke="#1E1E1E" stroke-miterlimit="10" stroke-linecap="round" stroke-linejoin="round"/>
    <path d="M467.315 481.88C469.515 484.395 471.716 486.595 473.916 489.11V495.082" stroke="#1E1E1E" stroke-miterlimit="10" stroke-linecap="round" stroke-linejoin="round"/>
    <path d="M468.572 505.141L472.659 504.827V495.397" stroke="#1E1E1E" stroke-miterlimit="10" stroke-linecap="round" stroke-linejoin="round"/>
    <path d="M437.767 495.082V505.77H441.853" stroke="#1E1E1E" stroke-miterlimit="10" stroke-linecap="round" stroke-linejoin="round"/>
    <path d="M448.769 509.856C446.569 507.341 445.626 503.569 446.255 500.112C448.141 502.941 449.084 506.398 448.769 509.856C448.769 507.656 449.398 505.455 450.655 503.569C450.655 505.77 450.341 507.97 449.712 509.856C447.512 509.856 444.997 509.856 442.797 509.856" fill="white"/>
    <path d="M448.769 509.856C446.569 507.341 445.626 503.569 446.255 500.112C448.141 502.941 449.084 506.398 448.769 509.856ZM448.769 509.856C448.769 507.656 449.398 505.455 450.655 503.569C450.655 505.77 450.341 507.97 449.712 509.856C447.512 509.856 444.997 509.856 442.797 509.856" stroke="#1E1E1E" stroke-miterlimit="10" stroke-linecap="round" stroke-linejoin="round"/>
    <path d="M459.771 511.114C457.57 509.228 456.627 506.084 457.884 503.569C458.827 505.77 459.456 508.284 459.771 510.485C459.771 507.656 459.77 504.512 461.028 501.998C461.971 504.827 461.657 507.656 460.714 510.485C461.971 509.856 463.228 509.542 464.486 509.542" fill="white"/>
    <path d="M459.771 511.114C457.57 509.228 456.627 506.084 457.884 503.569C458.827 505.77 459.456 508.284 459.771 510.485C459.771 507.656 459.77 504.512 461.028 501.998C461.971 504.827 461.657 507.656 460.714 510.485C461.971 509.856 463.228 509.542 464.486 509.542" stroke="#1E1E1E" stroke-miterlimit="10" stroke-linecap="round" stroke-linejoin="round"/>
    <path d="M452.227 510.485C452.855 510.17 453.798 510.17 454.427 510.485" stroke="#1E1E1E" stroke-miterlimit="10" stroke-linecap="round" stroke-linejoin="round"/>
    <path d="M463.542 476.851C462.285 472.764 462.599 468.364 464.485 464.592C466.371 460.82 469.2 457.676 472.972 455.79" stroke="#1E1E1E" stroke-miterlimit="10" stroke-linecap="round" stroke-linejoin="round"/>
    <path d="M472.775 455.343C467.951 455.665 464.413 452.449 462.162 448.268C466.986 448.59 470.202 450.841 472.775 455.022C472.775 455.022 469.559 449.233 471.488 445.052C471.488 445.052 473.739 446.338 474.061 450.198C474.383 452.449 473.418 455.343 473.418 455.343C473.418 455.343 473.739 449.876 480.815 448.59C480.815 448.59 479.85 454.7 474.061 455.665C474.061 455.665 480.493 453.735 483.388 459.846C483.388 459.846 476.955 460.811 474.061 455.986C474.061 455.986 476.955 458.881 477.277 462.097C477.599 465.313 476.634 466.599 476.634 466.599C476.634 466.599 471.488 462.74 473.096 456.951L473.418 456.308L472.775 455.343Z" fill="#1E1E1E"/>
    <path d="M344.333 477.318C344.019 471.974 340.875 466.63 336.475 463.801" stroke="#1E1E1E" stroke-miterlimit="10" stroke-linecap="round" stroke-linejoin="round"/>
    <path d="M344.265 477.205C343.915 470.214 343.668 461.838 349.016 456.489" stroke="#1E1E1E" stroke-miterlimit="10" stroke-linecap="round" stroke-linejoin="round"/>
    <path d="M318.634 476.851C322.092 474.65 328.064 469.621 330.893 466.478C327.75 465.849 324.606 465.535 321.463 464.906" stroke="#1E1E1E" stroke-miterlimit="10" stroke-linecap="round" stroke-linejoin="round"/>
    <path d="M328.063 469.307C327.749 473.079 328.063 476.222 328.378 479.994" stroke="#1E1E1E" stroke-miterlimit="10" stroke-linecap="round" stroke-linejoin="round"/>
    <path d="M403.19 246.441C404.447 257.129 403.19 268.445 396.589 276.618C394.074 279.761 391.245 284.162 387.473 283.847C380.558 282.904 371.756 276.617 366.412 286.676C372.699 282.904 381.815 284.476 384.644 291.077C386.53 295.163 378.357 296.421 374.585 298.307C364.212 304.279 362.012 325.654 365.155 329.741C364.212 323.454 370.813 306.794 376.157 303.336C378.986 301.45 389.359 297.678 389.988 294.22C391.874 301.45 386.216 312.138 382.129 318.424C387.159 315.91 396.589 297.992 395.96 292.334C394.703 284.162 403.504 276.303 405.39 270.959C406.019 268.759 411.048 267.816 412.62 272.845C414.821 278.818 421.422 288.877 422.365 292.02C423.936 297.678 422.679 303.336 422.993 309.309C423.308 314.967 427.708 322.511 432.423 325.654C427.708 319.053 424.565 308.994 427.708 301.45C437.139 305.851 445.311 312.766 450.969 321.253C450.969 313.395 446.569 307.737 439.968 303.965C437.767 302.708 434.938 299.879 433.052 298.621C430.852 297.049 428.023 294.849 428.023 292.334C431.48 291.706 434.309 287.619 434.309 284.162C433.995 280.704 434.309 280.075 433.995 276.618C433.681 273.16 433.052 288.562 426.137 288.248C418.278 277.875 411.677 267.187 411.363 246.755V246.127H406.962L403.19 245.812V246.441Z" fill="white"/>
    <path d="M425.507 271.902C430.222 268.13 437.138 268.759 441.853 271.902C446.882 275.046 450.026 280.39 452.54 285.419C461.342 303.336 464.485 324.083 460.713 343.571C460.085 347.029 458.513 351.116 455.055 351.744C452.226 352.373 449.711 349.858 447.197 347.972C443.11 344.829 438.081 342.628 432.737 342C428.022 341.371 422.364 341.685 419.221 338.228C416.706 335.713 416.392 331.941 416.392 328.483C415.763 318.11 416.077 307.737 416.706 297.049" stroke="white" stroke-miterlimit="10" stroke-linecap="round" stroke-linejoin="round"/>
    <path d="M387.159 274.731C382.444 270.959 375.529 271.588 370.814 274.731C365.784 277.875 362.641 283.218 360.126 288.248C351.325 306.165 348.181 326.911 351.953 346.4C352.582 349.858 354.154 353.945 357.611 354.573C360.441 355.202 362.955 352.687 365.47 350.801C369.556 347.658 374.586 345.457 379.929 344.829C384.645 344.2 390.303 344.514 393.446 341.057C395.961 338.542 396.275 334.77 396.275 331.312C396.904 320.939 396.589 310.566 395.961 299.878" stroke="white" stroke-miterlimit="10" stroke-linecap="round" stroke-linejoin="round"/>
    <path d="M429.594 506.713C414.191 506.084 398.788 505.456 383.7 506.399C384.329 499.797 384.643 498.226 384.958 493.511C400.36 494.139 414.191 493.511 429.594 492.568C429.594 498.226 429.908 500.426 429.594 506.713Z" stroke="#1E1E1E" stroke-miterlimit="10" stroke-linecap="round" stroke-linejoin="round"/>
    <path d="M427.709 506.713C428.023 509.227 428.023 510.799 428.023 513.314C424.565 514.571 420.479 515.2 415.764 515.514" stroke="#1E1E1E" stroke-miterlimit="10" stroke-linecap="round" stroke-linejoin="round"/>
    <path d="M405.076 515.829C399.103 516.143 390.616 515.829 385.272 514.885" stroke="#1E1E1E" stroke-miterlimit="10" stroke-linecap="round" stroke-linejoin="round"/>
    <path d="M384.958 514.571C384.958 511.428 384.644 509.542 384.644 506.713" stroke="#1E1E1E" stroke-miterlimit="10" stroke-linecap="round" stroke-linejoin="round"/>
    <path d="M317.376 507.97C318.633 507.97 320.205 507.97 321.462 507.97" stroke="white" stroke-miterlimit="10" stroke-linecap="round" stroke-linejoin="round"/>
    <path d="M445.625 387.264C462.914 378.149 470.458 361.489 472.973 347.029C471.716 346.715 469.515 346.4 468.572 346.086C472.973 340.428 480.517 337.285 487.432 338.228" stroke="white" stroke-miterlimit="10" stroke-linecap="round" stroke-linejoin="round"/>
    <path d="M470.459 342.628C468.887 335.084 473.602 326.283 481.147 323.768" stroke="white" stroke-miterlimit="10" stroke-linecap="round" stroke-linejoin="round"/>
    <path d="M322.404 344.514C325.548 342.943 329.948 345.457 330.263 348.915C334.349 349.23 337.178 343.886 335.921 340.114C334.663 336.342 330.577 333.827 326.805 332.255" stroke="white" stroke-miterlimit="10" stroke-linecap="round" stroke-linejoin="round"/>
    <path d="M378.357 60.6672C379.3 56.8951 378.671 50.294 377.414 46.522" stroke="white" stroke-miterlimit="10" stroke-linecap="round" stroke-linejoin="round"/>
    <path d="M454.428 57.5238C453.799 57.5238 453.171 58.1525 452.856 58.7811C451.285 61.2958 450.342 64.1249 450.656 66.9539" stroke="white" stroke-miterlimit="10" stroke-linecap="round" stroke-linejoin="round"/>
    <path d="M454.427 56.8952C459.142 54.6948 461.657 47.465 461.657 42.4356C461.657 37.4062 459.456 32.3768 455.999 28.6048C454.427 26.7187 452.541 25.147 450.34 23.8897C449.397 23.5753 448.769 22.9467 448.14 22.318C447.826 21.6893 447.826 20.7463 447.826 20.1176C447.511 16.6599 444.054 14.1452 440.596 12.5735C434.938 10.0588 428.965 8.80146 422.993 8.17278C417.964 7.54411 412.934 6.91543 407.905 7.85844C405.076 8.48712 402.247 9.43013 400.046 11.3162C397.846 13.5165 396.589 16.6599 393.76 18.2316C390.616 20.1176 385.901 19.1746 383.072 21.6893C382.129 22.6323 381.186 23.8897 380.557 24.8327C378.671 28.2904 377.1 32.0625 376.471 35.8345C375.842 39.6066 376.157 43.693 377.728 47.465" stroke="white" stroke-miterlimit="10" stroke-linecap="round" stroke-linejoin="round"/>
    <path d="M65.6089 224.046C69.5862 221.659 74.6242 214.235 78.6015 212.644C82.5788 210.788 90.7986 203.364 95.8366 201.242C100.875 199.121 109.359 193.288 114.928 190.106C120.496 186.924 130.307 181.356 133.489 178.174C136.67 175.257 138.792 177.378 138.792 177.378C145.686 175.257 146.746 177.378 148.602 178.439C149.663 178.969 152.845 178.439 157.087 180.295C163.716 183.742 172.997 190.901 186.254 196.47C208.793 205.75 238.755 215.296 241.407 215.561C244.323 215.826 247.505 216.621 248.566 219.273C246.975 219.538 242.998 219.803 244.058 221.129C247.24 224.841 233.982 227.493 228.944 228.553C227.884 228.818 226.293 229.349 226.558 230.409C226.823 232.265 230.27 231.47 231.066 233.061C231.596 233.856 231.066 234.917 230.27 235.447C229.475 235.978 228.414 235.978 227.619 236.243C222.581 236.508 217.808 236.773 212.77 236.243C210.384 235.978 208.262 235.712 205.876 235.978C202.694 236.243 200.043 237.834 196.861 238.629C193.148 239.69 188.641 239.69 184.929 239.425C185.724 240.485 185.724 240.75 186.52 241.546C178.565 244.197 170.08 244.728 162.125 242.872C162.125 242.872 157.883 241.811 157.353 243.402C156.822 244.993 155.496 245.788 149.133 245.788C142.769 245.788 145.686 247.91 136.936 247.114C128.186 246.319 127.125 246.849 122.352 247.644C117.579 248.44 111.746 247.644 108.034 247.91C104.322 248.175 105.382 252.682 86.0259 251.622C66.6695 250.561 65.0786 254.008 65.0786 254.008" stroke="white" stroke-width="0.5" stroke-miterlimit="10" stroke-linecap="round" stroke-linejoin="round"/>
    <path d="M205.611 227.227C205.611 227.227 204.815 218.477 195.535 213.174C191.027 210.523 186.785 202.568 179.36 197.795C170.61 192.492 164.777 186.128 163.716 184.007" stroke="white" stroke-width="0.5" stroke-miterlimit="10" stroke-linecap="round" stroke-linejoin="round"/>
    <path d="M186.519 241.281C186.519 241.281 178.564 231.205 180.155 226.697C181.746 221.924 178.829 212.909 177.238 210.258" stroke="white" stroke-width="0.5" stroke-miterlimit="10" stroke-linecap="round" stroke-linejoin="round"/>
    <path d="M196.33 230.409C196.33 230.409 189.171 225.902 189.966 222.985C190.762 220.068 192.883 219.538 187.315 214.765C181.746 209.992 185.193 214.5 182.807 207.606C180.156 200.712 168.489 196.469 163.716 188.515C159.208 180.56 154.966 179.5 154.966 179.5" stroke="white" stroke-width="0.5" stroke-miterlimit="10" stroke-linecap="round" stroke-linejoin="round"/>
    <path d="M187.05 196.735C187.05 196.735 206.936 213.439 213.565 215.561" stroke="white" stroke-width="0.5" stroke-miterlimit="10" stroke-linecap="round" stroke-linejoin="round"/>
    <path d="M226.559 230.409C226.559 230.409 222.051 226.167 218.074 223.78" stroke="white" stroke-width="0.5" stroke-miterlimit="10" stroke-linecap="round" stroke-linejoin="round"/>
    <path d="M158.679 241.546C158.679 241.546 154.967 240.22 157.618 238.629C160.005 237.038 158.944 234.917 155.762 232.796C152.58 230.409 156.292 229.614 152.845 227.227C149.663 225.106 146.747 218.742 147.277 212.379C147.807 206.015 147.807 200.977 147.807 200.977" stroke="white" stroke-width="0.5" stroke-miterlimit="10" stroke-linecap="round" stroke-linejoin="round"/>
    <path d="M163.451 198.591C163.451 198.591 168.224 203.098 167.959 207.076C167.694 210.788 165.307 219.538 167.428 223.78C169.55 228.023 178.565 230.94 183.338 236.773" stroke="white" stroke-width="0.5" stroke-miterlimit="10" stroke-linecap="round" stroke-linejoin="round"/>
    <path d="M130.306 246.584C130.306 246.584 129.511 243.667 132.162 241.811C134.814 239.955 130.041 237.834 128.185 234.652C126.329 231.47 123.677 231.47 128.715 224.841C134.018 218.212 135.079 217.152 131.897 211.848" stroke="white" stroke-width="0.5" stroke-miterlimit="10" stroke-linecap="round" stroke-linejoin="round"/>
    <path d="M96.897 246.584C96.897 246.584 102.465 244.197 102.73 240.485C102.996 236.773 103.791 232.531 109.094 230.144" stroke="white" stroke-width="0.5" stroke-miterlimit="10" stroke-linecap="round" stroke-linejoin="round"/>
    <path d="M139.057 177.378C139.057 177.378 128.981 187.984 123.148 191.166C117.314 194.348 107.503 199.121 106.443 200.712" stroke="white" stroke-width="0.5" stroke-miterlimit="10" stroke-linecap="round" stroke-linejoin="round"/>
    <path d="M119.436 210.788C119.436 210.788 126.33 200.977 127.125 196.735C127.921 192.757 130.572 191.432 135.61 186.924" stroke="white" stroke-width="0.5" stroke-miterlimit="10" stroke-linecap="round" stroke-linejoin="round"/>
    <path d="M187.869 195.833C187.869 195.833 344.409 201.176 335.293 218.151" stroke="white" stroke-width="0.5" stroke-miterlimit="10" stroke-linecap="round" stroke-linejoin="round"/>
    <path d="M176.237 191.432C181.581 191.432 185.038 189.231 190.382 188.288C194.783 187.345 203.899 185.459 207.671 186.402C212.7 187.974 218.358 187.974 223.388 186.402C226.845 185.459 229.989 183.573 233.446 182.945C239.733 181.687 245.706 184.202 251.678 186.088C262.365 189.546 276.196 193.318 287.512 193.004" stroke="white" stroke-width="0.5" stroke-miterlimit="10" stroke-linecap="round" stroke-linejoin="round"/>
    <path d="M349.124 193.318C348.181 193.318 347.552 193.632 347.238 193.632C342.523 195.204 337.179 194.261 332.15 193.318C325.234 191.746 318.633 189.231 312.347 186.717C310.461 186.088 308.575 185.145 306.689 185.145C304.803 185.145 302.602 185.459 301.03 186.088C292.229 189.231 292.858 195.204 268.654 193.632C268.654 193.632 254.508 192.375 249.479 194.575" stroke="white" stroke-width="0.5" stroke-miterlimit="10" stroke-linecap="round" stroke-linejoin="round"/>
    <path d="M53.6772 301.317C53.6772 301.317 58.2754 298.883 65.0375 299.153C71.7995 299.424 94.2495 301.317 99.1182 299.424C104.257 297.801 124.814 294.014 135.633 294.285C146.453 294.555 161.87 288.334 174.042 280.22C186.213 272.105 201.36 256.688 217.048 255.606C232.466 254.524 235.171 255.335 256.539 268.048C277.907 280.761 280.306 280.859 280.306 280.859" stroke="white" stroke-width="0.5" stroke-miterlimit="10" stroke-linecap="round" stroke-linejoin="round"/>
    <path d="M217.858 268.048C215.695 272.105 214.883 276.433 213.801 280.76C210.014 296.448 202.982 311.595 193.515 324.579C185.13 336.209 174.581 346.217 166.737 358.118C162.41 364.61 158.623 372.183 151.59 375.159" stroke="white" stroke-width="0.5" stroke-miterlimit="10" stroke-linecap="round" stroke-linejoin="round"/>
    <path d="M210.557 268.859C204.607 271.835 200.55 277.515 196.763 282.925C185.944 298.071 174.583 312.948 160.518 325.12C146.453 337.291 129.954 347.029 111.832 350.545" stroke="white" stroke-width="0.5" stroke-miterlimit="10" stroke-linecap="round" stroke-linejoin="round"/>
    <path d="M233.276 268.589C236.793 273.999 238.956 279.949 241.661 285.9C244.366 291.58 247.612 297.531 252.751 301.317" stroke="white" stroke-width="0.5" stroke-miterlimit="10" stroke-linecap="round" stroke-linejoin="round"/>
    <path d="M233.817 261.556C242.202 264.802 246.801 273.458 251.94 281.031C255.997 286.982 260.325 292.662 266.275 296.99" stroke="white" stroke-width="0.5" stroke-miterlimit="10" stroke-linecap="round" stroke-linejoin="round"/>
    <path d="M259.784 278.326C264.652 281.843 270.603 284.547 276.554 286.17" stroke="white" stroke-width="0.5" stroke-miterlimit="10" stroke-linecap="round" stroke-linejoin="round"/>
    <path d="M194.869 273.187C186.754 278.056 183.509 288.064 176.747 294.285C172.148 298.612 166.468 301.047 160.518 302.94C155.649 304.563 150.51 305.374 145.371 306.186C139.691 306.997 134.01 306.997 128.601 308.62C124.273 309.973 120.216 312.137 116.429 314.3C109.397 318.087 102.364 322.144 95.3315 325.931" stroke="white" stroke-width="0.5" stroke-miterlimit="10" stroke-linecap="round" stroke-linejoin="round"/>
    <path d="M198.385 270.212C199.737 268.859 201.36 267.507 203.253 266.425" stroke="white" stroke-width="0.5" stroke-miterlimit="10" stroke-linecap="round" stroke-linejoin="round"/>
    <path d="M221.646 273.999C221.646 272.646 221.375 271.294 221.916 269.941C222.457 268.859 223.81 267.778 225.162 268.319C225.703 268.589 226.244 268.859 226.514 269.4C227.867 271.023 228.949 272.917 229.49 274.81" stroke="white" stroke-width="0.5" stroke-miterlimit="10" stroke-linecap="round" stroke-linejoin="round"/>
    <path d="M237.604 269.4C236.793 268.048 235.44 266.966 234.088 266.155C233.276 265.614 232.465 265.343 231.924 265.614C231.113 265.884 230.842 266.966 231.383 267.507" stroke="white" stroke-width="0.5" stroke-miterlimit="10" stroke-linecap="round" stroke-linejoin="round"/>
    <path d="M230.301 259.393C229.76 259.122 228.948 258.581 229.219 258.04C229.219 257.77 229.489 257.77 229.76 257.77C230.842 257.229 232.194 257.499 233.276 258.311C234.358 258.852 235.44 259.663 236.251 260.474" stroke="white" stroke-width="0.5" stroke-miterlimit="10" stroke-linecap="round" stroke-linejoin="round"/>
    <path d="M205.417 261.015C206.228 260.745 207.04 260.745 207.581 261.286C208.122 261.827 208.392 262.638 207.851 263.179C207.581 263.45 207.04 263.72 206.499 263.72C205.958 263.72 205.687 264.532 205.958 264.802C206.228 265.073 206.499 265.073 206.769 265.073C207.851 265.073 208.933 265.073 210.015 265.073" stroke="white" stroke-width="0.5" stroke-miterlimit="10" stroke-linecap="round" stroke-linejoin="round"/>
    <path d="M158.949 122.592C163.979 119.134 170.58 119.448 175.924 121.963C183.153 125.421 189.754 133.279 197.613 131.079C199.499 130.45 201.385 129.507 202.957 128.564C209.872 125.107 218.359 125.421 224.96 129.507C229.361 132.022 232.819 136.108 237.534 137.366C240.677 137.994 244.135 137.366 247.278 137.366C251.679 137.051 255.765 137.051 260.166 137.68C262.366 137.994 264.567 138.623 266.139 139.88C267.71 141.138 268.653 143.024 270.225 144.281C275.254 148.996 284.056 145.853 290.028 148.996C291.286 149.625 292.543 150.882 292.857 152.454C293.486 156.226 288.142 157.798 284.37 157.798C273.997 157.483 263.309 156.54 252.936 156.54C223.703 156.226 194.469 162.198 165.236 161.255C155.177 160.941 144.804 159.684 136.003 154.654C133.488 153.083 130.659 150.568 131.288 147.739C131.916 144.596 135.374 143.338 138.517 142.71C141.975 141.766 145.433 141.138 148.89 140.195C153.606 138.937 152.663 139.566 153.92 136.108C155.492 130.45 153.606 126.993 158.949 122.592Z" stroke="white" stroke-width="0.5" stroke-miterlimit="10" stroke-linecap="round" stroke-linejoin="round"/>
    <path d="M158.949 122.592C163.979 119.134 170.58 119.448 175.924 121.963C183.153 125.421 189.754 133.279 197.613 131.079C199.499 130.45 201.385 129.507 202.957 128.564C209.872 125.107 218.359 125.421 224.96 129.507C229.361 132.022 232.819 136.108 237.534 137.366C240.677 137.994 244.135 137.366 247.278 137.366C251.679 137.051 255.765 137.051 260.166 137.68C262.366 137.994 264.567 138.623 266.139 139.88C267.71 141.138 268.653 143.024 270.225 144.281C275.254 148.996 284.056 145.853 290.028 148.996C291.286 149.625 292.543 150.882 292.857 152.454C293.486 156.226 288.142 157.798 284.37 157.798C273.997 157.483 263.309 156.54 252.936 156.54C223.703 156.226 194.469 162.198 165.236 161.255C155.177 160.941 144.804 159.684 136.003 154.654C133.488 153.083 130.659 150.568 131.288 147.739C131.916 144.596 135.374 143.338 138.517 142.71C141.975 141.766 145.433 141.138 148.89 140.195C153.606 138.937 152.663 139.566 153.92 136.108C155.492 130.45 153.606 126.993 158.949 122.592Z" stroke="#1E1E1E" stroke-opacity="0.2" stroke-width="0.5" stroke-miterlimit="10" stroke-linecap="round" stroke-linejoin="round"/>
    <path d="M441.853 137.366C443.425 137.68 445.311 137.68 446.568 136.423" stroke="white" stroke-miterlimit="10" stroke-linecap="round" stroke-linejoin="round"/>
    <path d="M373.327 130.136C372.07 129.822 371.127 129.822 369.87 129.507" stroke="white" stroke-miterlimit="10" stroke-linecap="round" stroke-linejoin="round"/>
    <path d="M424.566 271.902C424.566 271.902 428.966 268.13 434.624 269.702C440.282 271.274 445.312 270.959 452.227 284.476C459.143 297.992 461.657 318.11 461.657 318.11C461.657 318.11 462.6 319.053 464.172 316.538C466.058 313.081 469.202 310.566 471.402 307.108C474.545 302.079 473.602 295.478 472.659 289.505C471.402 293.277 469.516 297.049 466.687 299.878C468.259 296.735 467.63 292.963 467.316 289.191C466.687 282.275 466.687 275.046 467.944 268.13C468.573 264.673 469.83 261.215 471.088 258.071C466.373 260.272 461.972 263.415 457.885 267.187C455.056 269.702 452.542 272.845 452.542 276.617C451.284 271.902 450.027 267.187 448.77 262.472C447.827 264.358 446.569 265.93 444.998 267.187C444.683 261.843 443.111 256.814 440.597 252.413C440.597 256.185 439.025 260.272 436.825 263.415C436.51 263.729 436.196 264.044 435.882 264.044C435.253 264.358 434.624 263.729 433.996 263.415C432.738 262.158 432.424 259.957 432.738 258.386C429.909 259.643 427.709 261.843 426.766 264.672C426.766 264.672 425.823 267.187 426.452 268.13C426.452 268.13 424.88 267.502 424.88 265.93C425.509 265.616 423.937 268.759 424.566 271.902Z" fill="white"/>
    <path d="M348.809 311.823C349.437 306.165 346.608 301.136 345.351 295.478C344.093 290.134 343.779 284.162 346.608 279.446C345.98 281.332 346.608 283.533 347.866 285.105C349.123 286.676 351.009 287.619 352.581 288.877C357.296 281.018 352.266 269.702 357.296 261.844C357.61 266.244 361.696 270.331 366.097 270.645C365.154 263.415 366.411 255.557 369.869 249.27C369.869 255.871 369.869 263.101 373.327 268.445C376.47 264.044 378.042 258.386 377.413 252.728C381.814 256.5 384.643 262.472 384.014 268.445C384.014 268.445 387.472 265.616 387.158 263.101C387.158 263.101 390.301 267.502 387.472 275.046C387.472 275.046 384.643 272.531 379.928 272.217C375.213 271.902 365.783 275.36 361.382 285.105C356.981 295.163 352.895 306.48 351.952 312.452C351.009 318.424 350.695 318.739 350.695 318.739C350.695 318.739 348.494 314.967 348.809 311.823Z" fill="white"/>
    <path d="M392.188 127.307C389.988 124.792 387.787 122.592 384.644 121.963C381.186 121.334 378.043 122.592 374.9 124.163C374.585 124.478 374.271 124.792 374.585 125.106C374.9 125.421 375.214 125.735 375.528 125.421C376.786 124.792 378.043 124.163 379.3 123.849C379.615 125.735 381.186 127.307 383.072 127.621H383.387C384.958 127.621 386.53 126.678 387.473 125.106C388.73 126.05 389.673 127.307 390.931 128.564C390.931 128.879 391.245 128.879 391.56 128.879C391.874 128.879 391.874 128.879 392.188 128.564C392.503 128.25 392.503 127.621 392.188 127.307ZM383.701 126.364C382.758 126.364 381.815 125.735 381.501 124.792C381.501 123.849 382.129 122.906 383.072 122.906C384.015 122.906 384.958 123.535 385.273 124.478C385.587 125.421 384.958 126.364 383.701 126.364Z" fill="white"/>
    <path d="M379.227 126.751C380.159 127.217 382.955 128.056 386.683 127.683" stroke="white" stroke-linecap="round"/>
    <path d="M434.938 127.621C433.052 126.993 430.851 127.307 428.965 127.621H428.651C427.708 127.936 426.451 128.564 425.508 129.193C425.193 129.507 425.193 129.822 425.193 130.136C425.508 130.45 425.822 130.45 426.136 130.45C426.765 130.136 427.079 129.822 427.708 129.507C427.708 129.822 428.022 130.45 428.022 130.765C428.651 132.022 431.166 132.965 432.737 132.965C433.052 132.965 433.68 132.965 433.995 132.651C434.938 132.336 435.881 131.393 436.195 130.45C436.195 130.136 436.195 130.136 436.195 129.822C438.081 130.765 439.339 132.336 439.967 134.222C439.967 134.537 440.282 134.851 440.596 134.851H440.91C441.225 134.537 441.539 134.222 441.225 133.908C440.596 131.079 438.081 128.564 434.938 127.621ZM433.995 131.393C433.68 131.708 433.68 131.708 433.995 131.393C433.68 131.708 433.052 132.022 432.737 132.022C431.794 132.022 430.851 131.393 430.537 130.45C430.537 129.507 431.166 128.564 432.109 128.564C433.052 128.564 433.995 129.193 434.309 130.136C434.309 130.45 434.309 131.079 433.995 131.393Z" fill="white"/>
    <path d="M427.69 131.411C429.554 132.343 433.935 133.834 436.544 132.343" stroke="white" stroke-linecap="round"/>
    <path d="M379.338 175.199C387.817 174.582 398.904 183.521 407.057 181.98C410.644 181.364 412.927 180.439 416.514 180.131C420.101 179.823 424.014 179.514 427.275 180.747" stroke="white" stroke-miterlimit="10" stroke-linecap="round" stroke-linejoin="round"/>
    <path d="M336.834 464.684C336.834 464.684 337.145 467.731 331.864 470.168C331.864 470.168 331.242 466.207 335.281 464.075C335.281 464.075 329.689 464.989 326.893 461.637C326.893 461.637 331.864 459.504 335.592 462.856C335.592 462.856 332.796 458.285 333.728 454.324C333.728 454.324 336.213 455.239 337.145 457.676C338.077 460.114 337.145 462.856 337.145 462.856C337.145 462.856 338.077 459.809 342.426 460.723C342.426 460.723 340.562 464.989 337.145 463.77L336.834 464.684Z" fill="#1E1E1E"/>
    <path d="M349.296 456.216C349.296 456.216 342.047 459.686 335.281 452.25C335.281 452.25 337.214 450.762 342.047 451.754C346.879 452.745 348.812 455.224 348.812 455.224C348.812 455.224 343.98 450.267 347.363 445.805C347.363 445.805 350.745 447.292 349.779 455.224C349.779 455.224 350.262 447.788 355.578 445.805C355.578 445.805 357.511 451.754 350.745 455.72C350.745 455.72 354.611 452.745 360.894 455.72C360.894 455.72 358.478 460.677 350.745 457.207C350.745 457.207 356.061 459.686 357.028 469.105C357.028 469.105 348.812 465.139 349.296 457.207V456.216Z" fill="#1E1E1E"/>
    <path d="M433.347 193.866C431.118 202.338 427.735 219.585 432.036 220.798" stroke="white" stroke-linecap="round"/>
    <path d="M451.301 193.642C447.867 192.76 440.146 190.991 436.741 190.974" stroke="white" stroke-linecap="round"/>
    <path d="M389.694 252.28C396.588 253.526 413.341 255.17 425.202 251.782" stroke="white" stroke-linecap="round"/>
    <path d="M391.408 260.503C398.478 261.666 414.687 263.493 422.959 261.5" stroke="white" stroke-linecap="round"/>
    <defs>
        <clipPath id="clip0_613_3223">
            <rect width="177.079" height="99.7233" fill="white" transform="translate(315.851 422.193)"/>
        </clipPath>
    </defs>
</svg>
