<svg width="168" height="195" viewBox="0 0 168 195" fill="none" xmlns="http://www.w3.org/2000/svg">
    <g id="[export] illustration_7">
        <g id="Alcohol">
            <path id="Vector" d="M166.91 133.577C156.098 138.577 161.088 141.91 158.593 156.077C156.098 169.41 140.296 174.41 132.811 176.91C125.326 179.41 129.484 191.91 129.484 191.91C101.207 197.744 90.3951 189.41 90.3951 189.41C90.3951 189.41 90.3951 188.577 90.3951 180.244C90.3951 172.744 87.0684 173.577 75.4248 166.91C62.1179 160.244 62.1179 146.077 62.9496 140.244C63.7813 134.41 57.9595 131.077 57.9595 131.077C57.9595 131.077 76.2565 135.244 111.187 137.744C146.118 140.244 166.91 133.577 166.91 133.577Z" fill="white" stroke="white" stroke-miterlimit="10" stroke-linecap="round" stroke-linejoin="round"/>
            <path id="Vector_2" d="M72.9297 130.244C75.4247 125.244 78.7515 121.911 83.7416 120.244C86.2366 119.411 89.5633 118.577 92.8901 119.411C96.2168 120.244 98.7119 122.744 101.207 125.244C103.702 127.744 104.534 131.077 106.197 134.411" stroke="white" stroke-miterlimit="10" stroke-linecap="round" stroke-linejoin="round"/>
            <path id="Vector_3" d="M110.355 135.244C113.682 130.244 119.504 127.744 125.326 127.744C131.148 127.744 136.969 130.244 140.296 134.411" stroke="white" stroke-miterlimit="10" stroke-linecap="round" stroke-linejoin="round"/>
            <path id="Vector_4" d="M101.207 121.077C102.87 121.077 103.702 119.41 104.533 117.744C105.365 116.077 105.365 114.41 106.197 113.577C107.028 111.91 109.523 111.077 111.187 111.077C112.85 111.077 115.345 111.91 117.009 112.744C121.999 115.244 126.157 119.41 127.82 124.41" stroke="white" stroke-miterlimit="10" stroke-linecap="round" stroke-linejoin="round"/>
            <path id="Vector_5" d="M156.93 135.244C156.098 131.911 155.266 128.577 153.603 125.244C151.94 121.911 149.445 119.411 146.118 117.744C140.296 115.244 133.643 117.744 127.821 120.244" stroke="white" stroke-miterlimit="10" stroke-linecap="round" stroke-linejoin="round"/>
            <path id="Vector_6" d="M1.40479 107.744C3.06815 116.911 3.06815 126.911 4.73152 136.077C6.39488 145.244 8.88993 155.244 15.5434 162.744C22.1969 170.244 31.3454 171.077 42.1573 171.911" stroke="white" stroke-miterlimit="10" stroke-linecap="round" stroke-linejoin="round"/>
            <path id="Vector_7" d="M22.1968 168.577C22.1968 171.91 22.1968 176.077 23.0285 179.41C23.0285 181.077 23.0285 182.744 23.8601 183.577C34.672 191.077 55.4641 186.91 58.7908 186.91C62.1176 186.91 66.276 186.077 67.9394 183.577C68.771 181.91 68.771 180.244 68.771 179.41C68.771 176.077 68.771 171.91 69.6027 168.577" stroke="white" stroke-miterlimit="10" stroke-linecap="round" stroke-linejoin="round"/>
            <path id="Vector_8" d="M72.0977 165.244C64.6125 170.244 52.1373 171.911 42.9888 171.911" stroke="white" stroke-miterlimit="10" stroke-linecap="round" stroke-linejoin="round"/>
            <path id="Vector_9" d="M74.5928 144.411C74.5928 153.577 80.4146 163.577 89.5631 166.911" stroke="#1E1E1E" stroke-miterlimit="10" stroke-linecap="round" stroke-linejoin="round"/>
            <path id="Vector_10" d="M95.3849 146.077C93.7215 153.577 94.5532 161.077 97.0483 167.744" stroke="#1E1E1E" stroke-miterlimit="10" stroke-linecap="round" stroke-linejoin="round"/>
            <path id="Vector_11" d="M112.85 147.744C113.682 155.244 113.682 162.744 113.682 170.244" stroke="#1E1E1E" stroke-miterlimit="10" stroke-linecap="round" stroke-linejoin="round"/>
            <path id="Vector_12" d="M134.474 149.411C134.474 157.744 131.979 166.077 126.157 171.911" stroke="#1E1E1E" stroke-miterlimit="10" stroke-linecap="round" stroke-linejoin="round"/>
            <path id="Vector_13" d="M151.939 147.744C150.276 156.077 145.286 164.411 137.801 169.411" stroke="#1E1E1E" stroke-miterlimit="10" stroke-linecap="round" stroke-linejoin="round"/>
            <path id="Vector_14" d="M90.395 175.244C103.702 176.077 116.177 176.911 129.484 177.744" stroke="#1E1E1E" stroke-miterlimit="10" stroke-linecap="round" stroke-linejoin="round"/>
            <path id="Vector_15" d="M98.7118 176.911C97.0484 181.077 95.385 185.244 93.7217 189.411" stroke="#1E1E1E" stroke-miterlimit="10" stroke-linecap="round" stroke-linejoin="round"/>
            <path id="Vector_16" d="M99.5435 176.911C102.039 182.744 104.534 187.744 106.197 193.577C107.029 188.577 108.692 183.577 111.187 178.577C113.682 182.744 116.177 187.744 118.672 191.911C120.336 187.744 121.999 183.577 124.494 178.577" stroke="#1E1E1E" stroke-miterlimit="10" stroke-linecap="round" stroke-linejoin="round"/>
            <path id="Vector_17" d="M1.40479 106.077C28.0186 111.91 55.4642 112.744 82.9097 108.577C82.0781 111.91 82.0781 116.91 81.2464 119.41" stroke="white" stroke-miterlimit="10" stroke-linecap="round" stroke-linejoin="round"/>
            <path id="draw/steam" d="M29.3305 101.748C33.3197 98.4364 35.9792 93.8 36.644 89.1637C36.644 87.1766 36.644 85.1896 35.9792 83.2026C35.3143 81.2156 33.3197 79.2286 31.3251 77.9039C26.0062 73.9299 18.6927 72.6052 12.7089 69.2935C6.72512 65.9818 0.741333 60.0208 1.4062 53.3974C2.07106 49.4234 4.06566 46.1117 7.38998 43.4624C10.7143 40.813 14.7035 40.1507 18.0278 38.826C47.9467 30.8779 81.19 40.1507 109.114 27.5663C113.103 25.5792 117.093 23.5922 119.752 20.2805C122.412 16.9689 124.406 12.3325 123.076 8.35847C122.412 4.38444 118.422 0.410414 113.768 1.07275" stroke="white" stroke-width="0.5" stroke-miterlimit="10" stroke-linecap="round" stroke-linejoin="round"/>
            <path id="Vector_18" d="M42.9888 108.577C47.9789 101.91 52.1373 94.4105 53.8007 86.0771C62.1175 90.2438 67.1076 100.244 65.4442 108.577" stroke="white" stroke-miterlimit="10" stroke-linecap="round" stroke-linejoin="round"/>
            <path id="Vector_19" d="M67.9395 108.577C71.2662 103.577 76.2563 99.4108 82.0781 97.7441C79.583 100.244 77.9197 104.411 78.7513 107.744" stroke="white" stroke-miterlimit="10" stroke-linecap="round" stroke-linejoin="round"/>
            <path id="Vector_20" d="M53.8008 109.411C57.1275 102.744 57.9592 94.4106 54.6325 86.9106" stroke="white" stroke-miterlimit="10" stroke-linecap="round" stroke-linejoin="round"/>
            <path id="Vector_21" d="M57.1274 101.911C58.7908 101.077 60.4542 100.244 62.1175 99.4106" stroke="white" stroke-miterlimit="10" stroke-linecap="round" stroke-linejoin="round"/>
        </g>
        <g id="Comment alco">
            <path id="Alcohol_2" d="M90.9397 61.1194C91.7101 61.1442 92.3691 61.3946 92.9166 61.8707C93.4856 62.3267 93.9663 62.9362 94.3587 63.6992C94.772 64.4628 95.1086 65.3386 95.3688 66.3266C95.6289 67.3147 95.8353 68.3531 95.9879 69.4418C96.1413 70.5098 96.2523 71.5973 96.321 72.7042C96.3904 73.7903 96.4305 74.813 96.4414 75.7721C96.4524 76.7313 96.4455 77.5961 96.4207 78.3666C96.4168 79.1377 96.4079 79.7419 96.3939 80.1791L95.6442 80.1551L94.6688 73.5266C94.568 73.4192 94.3306 73.349 93.9564 73.3162C93.6031 73.284 93.1759 73.2807 92.6748 73.3063C92.1946 73.3326 91.6616 73.3781 91.0759 73.4426C90.5117 73.4871 89.9686 73.5218 89.4467 73.5467C88.9463 73.5515 88.4879 73.5472 88.0714 73.5339C87.6556 73.4997 87.356 73.4171 87.1726 73.2862L86.9612 79.8765L85.3683 79.8254C85.3703 79.7629 85.374 79.6484 85.3793 79.4818C85.4061 79.2951 85.4226 79.108 85.4286 78.9206C85.4346 78.7332 85.4507 78.5566 85.4768 78.3907C85.503 78.2247 85.5171 78.1106 85.5191 78.0481C85.6828 76.8444 85.8156 75.6293 85.9174 74.4027C86.0408 73.156 86.1733 71.9513 86.3148 70.7886C86.4563 69.6259 86.6274 68.5162 86.828 67.4596C87.0495 66.4037 87.3405 65.4542 87.7011 64.6111C88.0623 63.7473 88.5025 63.0214 89.0216 62.4336C89.5414 61.825 90.1807 61.3869 90.9397 61.1194ZM91.3934 62.5722C90.852 62.5549 90.3875 62.738 90 63.1216C89.634 63.485 89.3265 63.9754 89.0774 64.5928C88.829 65.1893 88.6302 65.8603 88.4813 66.6059C88.3323 67.3515 88.2253 68.0881 88.1602 68.8155C88.0959 69.5222 88.0433 70.1875 88.0024 70.8115C87.983 71.4153 87.968 71.8839 87.9573 72.217C88.9776 72.2498 90.0211 72.2103 91.0877 72.0986C92.155 71.9661 93.1599 71.8316 94.1022 71.695C94.1257 71.6124 94.1405 71.4774 94.1465 71.29C94.1733 71.1033 94.1904 70.8954 94.1978 70.6663C94.2259 70.4379 94.2434 70.2196 94.25 70.0114C94.2775 69.8039 94.2923 69.6688 94.2943 69.6064C94.3163 68.9192 94.2957 68.262 94.2325 67.6346C94.1901 67.0079 94.0637 66.3994 93.8533 65.809C93.6645 65.1985 93.3702 64.6263 92.9704 64.0923C92.5915 63.5591 92.0658 63.0524 91.3934 62.5722ZM98.7776 56.5559C99.0677 56.6069 99.3149 56.6982 99.5192 56.8298C99.7449 56.9413 99.9155 57.1448 100.031 57.4403C100.018 57.8359 100.011 58.3881 100.009 59.0967C100.029 59.7852 100.034 60.5879 100.026 61.5047C100.038 62.4223 100.048 63.4127 100.056 64.476C100.063 65.5393 100.07 66.613 100.077 67.6971C100.084 68.7812 100.081 69.8545 100.068 70.9172C100.075 71.9805 100.075 72.9705 100.066 73.8874C100.078 74.8049 100.084 75.618 100.082 76.3267C100.08 77.0353 100.083 77.5773 100.092 77.9528C100.091 77.9945 100.078 78.067 100.054 78.1705C100.051 78.2746 100.036 78.3992 100.011 78.5443C100.006 78.69 99.9909 78.8354 99.9654 78.9805C99.9614 79.1055 99.9584 79.1992 99.9564 79.2616C99.9315 79.3859 99.9161 79.5417 99.9101 79.7291C99.9048 79.8957 99.8786 80.0616 99.8316 80.2269C99.7846 80.3921 99.7067 80.546 99.5979 80.6884C99.5106 80.8106 99.3625 80.8788 99.1536 80.893L98.6437 80.22C98.6235 80.1986 98.6047 79.8123 98.5871 79.0614C98.591 78.2903 98.5811 77.2999 98.5573 76.0901C98.5551 74.8603 98.5575 73.4847 98.5647 71.9633C98.5725 70.4211 98.5702 68.8681 98.5578 67.3044C98.5663 65.7414 98.5727 64.2408 98.5772 62.8027C98.5816 61.3646 98.5901 60.1247 98.6027 59.0829C98.6054 58.9996 98.6107 58.833 98.6187 58.5831C98.6476 58.3339 98.666 58.0844 98.674 57.8345C98.7035 57.5645 98.7219 57.3149 98.7293 57.0859C98.7581 56.8367 98.7742 56.66 98.7776 56.5559ZM101.419 75.5879C101.443 74.8175 101.596 73.9677 101.876 73.0387C102.156 72.1097 102.548 71.2573 103.052 70.4814C103.557 69.6847 104.172 69.027 104.897 68.5083C105.623 67.9896 106.454 67.7453 107.391 67.7754C107.872 67.7283 108.255 67.7927 108.542 67.9686C108.828 68.1237 109.039 68.3702 109.175 68.708C109.33 69.0465 109.422 69.4351 109.45 69.8737C109.499 70.2922 109.516 70.7305 109.501 71.1886C109.508 71.6265 109.495 72.0429 109.461 72.4379C109.449 72.8127 109.46 73.1257 109.494 73.3769L108.713 73.3519C108.696 73.2263 108.664 72.9334 108.616 72.4733C108.59 71.9931 108.522 71.5011 108.413 70.9973C108.304 70.4936 108.142 70.0402 107.925 69.6372C107.73 69.2349 107.434 69.0274 107.039 69.0147C106.456 68.996 105.896 69.2074 105.361 69.6488C104.847 70.0908 104.392 70.6286 103.996 71.2621C103.601 71.8955 103.277 72.5522 103.026 73.232C102.775 73.9118 102.642 74.4807 102.628 74.9388C102.632 75.4601 102.686 76.035 102.791 76.6637C102.897 77.2716 103.077 77.8297 103.331 78.3381C103.607 78.8472 103.969 79.2653 104.417 79.5923C104.865 79.9194 105.424 80.0311 106.094 79.9275C106.594 79.9436 107.076 79.8548 107.541 79.6613C108.006 79.4678 108.461 79.2635 108.905 79.0485C109.35 78.8335 109.794 78.6288 110.238 78.4347C110.703 78.2411 111.185 78.1524 111.685 78.1684C111.668 78.7098 111.454 79.1824 111.045 79.5861C110.637 79.9691 110.137 80.2761 109.546 80.5073C108.976 80.7391 108.366 80.9072 107.717 81.0114C107.088 81.1163 106.555 81.1617 106.118 81.1477C105.41 81.125 104.759 80.9582 104.164 80.6473C103.59 80.3371 103.093 79.9355 102.671 79.4425C102.249 78.9287 101.924 78.3451 101.695 77.6916C101.487 77.0179 101.395 76.3167 101.419 75.5879ZM112.8 75.5778C112.815 75.0989 112.875 74.5484 112.978 73.9264C113.082 73.2836 113.238 72.6424 113.446 72.003C113.654 71.3635 113.904 70.7357 114.194 70.1197C114.506 69.5044 114.867 68.9636 115.278 68.4974C115.69 68.0103 116.161 67.6294 116.691 67.3546C117.221 67.059 117.809 66.9215 118.455 66.9422C119.121 66.9636 119.728 67.2123 120.275 67.6885C120.844 68.1653 121.314 68.7744 121.686 69.5159C122.079 70.2581 122.366 71.0802 122.545 71.9822C122.725 72.8843 122.78 73.7615 122.711 74.6139C122.671 75.8632 122.396 76.9696 121.885 77.9329C121.375 78.8962 120.735 79.6677 119.966 80.2475C119.218 80.828 118.414 81.2086 117.553 81.3895C116.714 81.571 115.924 81.4935 115.185 81.1572C114.467 80.8006 113.872 80.1666 113.401 79.2552C112.951 78.3445 112.75 77.1187 112.8 75.5778ZM113.951 75.7398C113.973 77.012 114.16 77.9977 114.513 78.6969C114.866 79.396 115.299 79.8685 115.812 80.1142C116.347 80.3398 116.93 80.3585 117.561 80.1704C118.193 79.9822 118.787 79.6365 119.345 79.1333C119.904 78.6093 120.384 77.9576 120.784 77.1784C121.206 76.379 121.453 75.4802 121.527 74.4821C121.593 73.7338 121.554 73.003 121.41 72.2897C121.287 71.5771 121.088 70.9454 120.814 70.3946C120.561 69.8237 120.232 69.3754 119.825 69.0497C119.44 68.7039 118.988 68.5226 118.467 68.5059C117.967 68.4899 117.516 68.6004 117.112 68.8376C116.708 69.0748 116.333 69.4067 115.986 69.8333C115.66 70.2397 115.374 70.7099 115.127 71.244C114.881 71.778 114.666 72.3131 114.482 72.8491C114.319 73.3858 114.187 73.9131 114.087 74.431C114.009 74.9288 113.964 75.365 113.951 75.7398ZM125.516 60.259L126 70.5297C126.15 70.4095 126.343 70.2281 126.58 69.9856C126.817 69.743 127.095 69.5227 127.414 69.3245C127.734 69.1054 128.083 68.9291 128.463 68.7953C128.843 68.6408 129.251 68.5809 129.688 68.6158C130.539 68.7264 131.205 69.0917 131.685 69.7116C132.186 70.3322 132.548 71.0837 132.77 71.9663C133.012 72.8495 133.159 73.8131 133.208 74.8569C133.259 75.8798 133.248 76.8592 133.177 77.7948C133.126 78.7312 133.047 79.5624 132.94 80.2886C132.855 81.0153 132.786 81.5134 132.736 81.7828L131.617 81.5905C131.623 81.4031 131.632 81.1116 131.645 80.716C131.679 80.3002 131.715 79.8219 131.753 79.2812C131.792 78.7197 131.821 78.137 131.841 77.5331C131.86 76.9293 131.878 76.3671 131.895 75.8465C131.933 75.3058 131.948 74.8269 131.941 74.4097C131.954 73.9933 131.953 73.7014 131.938 73.5342C131.977 72.9518 131.881 72.3859 131.648 71.8365C131.416 71.2871 131.096 70.8704 130.688 70.5863C130.281 70.2815 129.784 70.1717 129.198 70.2571C128.612 70.3217 127.974 70.7077 127.285 71.4151C126.673 72.271 126.219 73.1214 125.921 73.9665C125.623 74.7907 125.42 75.6179 125.31 76.4481C125.2 77.2576 125.142 78.0999 125.135 78.9751C125.128 79.8295 125.099 80.7353 125.048 81.6924L123.835 81.466C123.905 81.2389 123.96 80.8238 124 80.2206C124.062 79.5973 124.117 78.8591 124.165 78.006C124.214 77.1321 124.256 76.1642 124.29 75.1023C124.345 74.041 124.38 72.9478 124.395 71.8227C124.432 70.6774 124.458 69.5319 124.474 68.386C124.49 67.24 124.494 66.1459 124.485 65.1034C124.498 64.0616 124.498 63.1027 124.484 62.2269C124.491 61.3516 124.493 60.6326 124.491 60.0697L125.516 60.259ZM134.164 76.2632C134.179 75.7843 134.239 75.2338 134.342 74.6118C134.446 73.969 134.602 73.3278 134.81 72.6883C135.018 72.0489 135.268 71.4211 135.558 70.8051C135.87 70.1898 136.231 69.649 136.642 69.1828C137.054 68.6957 137.525 68.3148 138.055 68.04C138.585 67.7444 139.173 67.6069 139.819 67.6276C140.485 67.649 141.092 67.8977 141.639 68.3739C142.208 68.8507 142.678 69.4598 143.05 70.2013C143.443 70.9434 143.73 71.7655 143.909 72.6676C144.089 73.5697 144.144 74.4469 144.075 75.2993C144.035 76.5486 143.76 77.6549 143.249 78.6182C142.739 79.5815 142.099 80.3531 141.33 80.9329C140.582 81.5134 139.778 81.894 138.917 82.0749C138.078 82.2564 137.288 82.1789 136.549 81.8426C135.831 81.486 135.236 80.852 134.765 79.9406C134.315 79.0299 134.114 77.8041 134.164 76.2632ZM135.315 76.4252C135.337 77.6974 135.524 78.6831 135.877 79.3823C136.23 80.0814 136.663 80.5539 137.176 80.7996C137.711 81.0252 138.294 81.0439 138.925 80.8558C139.557 80.6676 140.151 80.3219 140.709 79.8187C141.268 79.2947 141.748 78.643 142.148 77.8638C142.57 77.0644 142.817 76.1656 142.891 75.1675C142.957 74.4192 142.918 73.6884 142.774 72.9751C142.651 72.2625 142.452 71.6308 142.178 71.08C141.925 70.5091 141.596 70.0608 141.189 69.7351C140.804 69.3893 140.352 69.208 139.831 69.1913C139.331 69.1753 138.88 69.2858 138.476 69.523C138.072 69.7602 137.697 70.0921 137.35 70.5187C137.024 70.9251 136.738 71.3953 136.492 71.9294C136.245 72.4634 136.03 72.9985 135.846 73.5345C135.683 74.0712 135.551 74.5985 135.451 75.1164C135.373 75.6141 135.328 76.0504 135.315 76.4252ZM146.472 58.086C146.762 58.137 147.009 58.2283 147.213 58.3599C147.439 58.4714 147.61 58.6749 147.725 58.9704C147.713 59.366 147.705 59.9182 147.703 60.6268C147.723 61.3153 147.729 62.118 147.72 63.0348C147.732 63.9524 147.742 64.9428 147.75 66.0061C147.757 67.0694 147.765 68.1431 147.771 69.2272C147.778 70.3113 147.775 71.3847 147.762 72.4473C147.77 73.5106 147.769 74.5006 147.76 75.4175C147.773 76.335 147.778 77.1481 147.776 77.8568C147.774 78.5654 147.778 79.1074 147.786 79.4829C147.785 79.5246 147.772 79.5971 147.748 79.7006C147.745 79.8047 147.73 79.9293 147.705 80.0744C147.7 80.2201 147.685 80.3655 147.66 80.5106C147.656 80.6356 147.653 80.7293 147.651 80.7917C147.626 80.916 147.61 81.0718 147.604 81.2593C147.599 81.4258 147.573 81.5917 147.526 81.757C147.479 81.9222 147.401 82.0761 147.292 82.2185C147.205 82.3407 147.057 82.409 146.848 82.4231L146.338 81.7501C146.318 81.7287 146.299 81.3424 146.281 80.5915C146.285 79.8204 146.275 78.83 146.252 77.6203C146.249 76.3904 146.252 75.0148 146.259 73.4934C146.267 71.9512 146.264 70.3982 146.252 68.8345C146.26 67.2715 146.267 65.7709 146.271 64.3328C146.276 62.8947 146.284 61.6548 146.297 60.613C146.3 60.5297 146.305 60.3631 146.313 60.1132C146.342 59.864 146.36 59.6145 146.368 59.3646C146.398 59.0946 146.416 58.845 146.424 58.616C146.452 58.3668 146.468 58.1901 146.472 58.086Z" fill="#88B1D5"/>
            <g id="draw/arrow">
                <path id="Vector 175" d="M83.0093 63.4628C73.9893 55.681 54.2724 47.7819 47.5645 78.4395" stroke="#88B1D5" stroke-linecap="round" stroke-linejoin="round"/>
                <path id="Vector 303" d="M45.3542 75.0605L47.5038 79.0634L51.4595 76.5415" stroke="#88B1D5" stroke-linecap="round"/>
            </g>
            <path id="draw:reverse/mask" d="M86.4487 79.2905C86.8827 74.1936 88.2385 63.6744 90.1904 62.373C92.6303 60.7463 94.5077 64.702 94.8873 66.2203C95.1909 67.4349 95.2162 70.8257 95.1909 72.3693L89.4215 72.6729L95.5705 74.5708L95.8741 79.8847L99.2144 80.568L99.2903 56.8828C103.01 60.8557 110.207 69.5605 109.235 72.5971C108.501 71.433 106.684 69.1658 105.287 69.4087C103.541 69.7123 101.492 75.6336 102.251 77.911C103.01 80.1885 104.908 80.6439 107.033 80.2644C108.734 79.9607 111.437 78.6196 112.575 77.9869C114.195 72.4958 118.329 63.6696 121.913 72.2934C121.786 74.419 121.199 78.822 119.863 79.4293C118.193 80.1885 115.156 80.568 113.866 79.2775C116.244 80.7958 121.488 83.7109 123.431 83.225C125.374 82.7392 125.202 67.688 124.873 60.2231L127.378 70.3196C128.517 69.7376 130.992 68.9684 131.781 70.5474C132.571 72.1264 132.363 78.4424 132.161 81.4031L134.894 77.3796C135.02 75.5324 135.44 71.5798 136.109 70.5474C136.944 69.2568 139.828 68.1181 141.119 69.0291C142.409 69.9401 143.396 72.5211 143.624 73.7358C143.852 74.9504 143.093 79.0497 141.878 79.8089C140.663 80.568 136.644 81.1054 135.653 79.2016C136.412 81.1247 138.599 85.5935 142.182 85.0469C145.765 84.5004 146.964 82.8454 147.116 82.0863L146.964 57.642" stroke="#1E1E1E" stroke-width="4" stroke-linecap="round"/>
        </g>
    </g>
</svg>
