<svg width="359" height="493" viewBox="0 0 359 493" fill="none" xmlns="http://www.w3.org/2000/svg">
<g id="[export] illustration_4">
<g id="Vika and Karina Arrive">
<g id="Group 381">
<path id="Vector" d="M130.607 335.714C130.607 335.714 133.416 366.144 130.089 383.112C130.089 383.112 147.057 385.441 148.72 388.102L149.718 381.448C146.391 380.45 143.397 379.119 140.07 377.123C140.403 367.142 141.676 353.675 143.007 340.367L130.607 335.714Z" fill="white"/>
<path id="Vector_2" d="M141.268 285.208L142.288 276.049L130.289 260.255L128.626 254.599C128.626 254.599 119.31 250.94 118.645 251.272C117.979 251.605 120.974 273.563 122.637 274.562C123.968 275.227 141.268 285.208 141.268 285.208Z" fill="white"/>
<path id="Vector_3" d="M91.6939 201.367C91.6939 201.367 91.6939 244.951 88.0342 263.915C84.3745 282.879 81.0474 361.73 85.7053 382.025C85.7053 382.025 76.3896 380.694 71.399 386.35L76.0569 308.165L61.418 303.507C64.4123 291.862 71.7318 274.229 73.3953 262.252C75.0588 242.622 71.0663 224.324 79.7166 211.348C81.7128 208.021 88.0342 205.027 92.0266 200.702L91.6939 201.367Z" fill="white"/>
<path id="Vector_4" d="M128.626 198.04C128.626 198.04 147.443 201.597 148.774 226.549L144.263 253.601L137.233 247.608C137.233 247.608 135.817 247.21 133.82 244.548C131.824 242.219 130.585 234.241 125.28 230.203C121.931 228.496 120.572 227.778 120.572 227.778C120.572 227.778 120.633 225.454 121.216 221.303C121.907 216.375 123.48 208.775 128.626 198.04Z" fill="white"/>
<path id="Vector_5" d="M120.64 226.985C121.638 214.675 121.638 215.007 127.96 198.04" stroke="#1E1E1E" stroke-miterlimit="10" stroke-linecap="round" stroke-linejoin="round"/>
<path id="Vector_6" d="M130.607 336.348C130.607 336.348 133.29 366.055 129.963 383.022C129.963 383.022 146.931 385.351 148.594 388.013C148.594 388.013 149.542 382.459 149.542 381.793" stroke="#1E1E1E" stroke-miterlimit="10" stroke-linecap="round" stroke-linejoin="round"/>
<g id="Group">
<path id="Vector_7" d="M146.591 255.931C144.262 251.273 137.608 245.284 137.608 245.284C137.608 245.284 137.43 248.329 136.051 254.24C134.672 260.15 132.285 261.92 132.285 261.92C132.285 261.92 141.268 273.897 143.597 278.555L146.591 255.931Z" fill="white"/>
</g>
<g id="Group_2">
<path id="Vector_8" d="M250.729 305.837C250.396 303.175 244.075 259.258 241.746 241.625L241.413 240.627C237.421 248.279 231.1 256.597 228.771 259.924V260.589C230.434 286.54 228.771 324.801 229.103 368.052C229.103 368.052 228.771 379.364 228.438 383.356C228.438 383.356 236.756 381.693 239.084 379.697L237.088 309.496C242.079 307.833 244.74 306.835 250.729 305.837Z" fill="white"/>
<path id="Vector_9" d="M225.776 233.307L225.833 234.417L236.822 214.159L236.298 212.851C232.306 195.883 223.779 183.402 220.785 180.74C216.793 177.413 210.471 174.086 210.139 173.753C210.804 174.086 220.12 180.075 225.776 233.307Z" fill="white"/>
</g>
<path id="Vector_10" d="M180.195 179.409L177.866 175.083C175.204 176.414 172.21 177.412 169.881 178.743C156.24 186.728 153.911 202.365 152.248 211.348C146.259 246.282 141.601 274.562 138.939 314.153L144.928 315.484C144.263 331.454 139.605 360.066 139.272 377.034C151.582 383.355 162.894 385.019 177.866 386.017C188.845 345.427 193.17 319.809 198.493 281.216C203.151 245.284 197.495 212.346 180.195 179.409ZM182.524 220.331L177.2 221.329C177.2 221.329 176.868 218.335 176.535 215.673L170.879 217.004C170.879 217.004 170.879 213.012 170.214 211.348L175.537 210.017C175.204 207.688 174.539 206.025 174.206 204.694L179.529 203.031C179.529 203.031 180.195 205.359 180.86 209.019L186.516 208.021C186.516 208.021 187.181 213.012 187.181 214.01L181.525 214.675C181.858 216.339 182.191 219 182.524 220.331Z" fill="white"/>
<path id="Vector_11" d="M114.653 249.941C113.987 260.255 116.982 269.238 118.978 279.219C120.641 287.204 121.639 295.189 122.305 303.507C122.97 311.491 121.972 319.476 122.638 327.461C122.97 329.457 123.303 331.786 124.634 333.117C125.299 333.783 126.297 334.115 127.295 334.448C130.955 336.111 138.607 339.438 142.267 340.769" stroke="white" stroke-miterlimit="10" stroke-linecap="round" stroke-linejoin="round"/>
<path id="Vector_12" d="M123.635 197.708C116.648 214.676 116.648 221.33 115.65 233.307" stroke="white" stroke-miterlimit="10" stroke-linecap="round" stroke-linejoin="round"/>
<path id="Vector_13" d="M124.967 289.201C126.63 295.855 127.296 302.509 127.961 309.163C128.627 314.486 128.294 323.136 131.621 327.462C133.617 330.123 136.944 331.454 139.938 332.119" stroke="white" stroke-miterlimit="10" stroke-linecap="round" stroke-linejoin="round"/>
<g id="Group_3">
<path id="Vector_14" d="M62.4153 316.482C60.0864 317.148 56.4266 317.48 57.0921 321.14C57.4248 322.138 57.7575 323.469 57.4248 324.467C57.0921 325.132 55.7612 325.798 55.4285 325.132C54.7631 323.802 53.765 322.471 53.0996 320.807C52.7669 319.809 52.7669 318.811 53.0996 317.813C53.4323 316.815 54.0977 316.482 54.7631 315.817C55.4285 315.151 56.094 314.819 56.7594 314.153C58.4229 312.822 60.4191 311.492 62.4153 310.493C63.4134 308.497 64.4115 306.168 65.0769 304.172" stroke="white" stroke-miterlimit="10" stroke-linecap="round" stroke-linejoin="round"/>
<path id="Vector_15" d="M58.424 325.798C58.0913 326.464 58.0913 326.796 57.7586 327.462C57.4259 328.792 58.424 330.789 60.0875 330.789C60.7529 330.789 61.4183 330.123 61.751 329.458C62.0837 328.792 62.4164 328.127 62.4164 327.462C62.7491 326.464 62.7491 325.465 62.7491 324.135C62.7491 323.469 62.7491 322.804 62.7491 322.138C62.4164 320.808 60.7529 320.142 59.7548 321.473C59.0894 322.471 59.0894 323.469 58.7567 324.467C58.7567 324.8 58.7567 325.465 58.424 325.798Z" stroke="white" stroke-miterlimit="10" stroke-linecap="round" stroke-linejoin="round"/>
<path id="Vector_16" d="M62.082 329.79C62.7474 330.455 64.0783 330.788 65.0764 330.123C66.7399 329.125 67.0726 327.128 66.7399 325.132C66.7399 323.469 66.7399 318.478 63.7455 319.143C63.0801 319.476 62.7474 319.809 62.7474 320.474" stroke="white" stroke-miterlimit="10" stroke-linecap="round" stroke-linejoin="round"/>
<path id="Vector_17" d="M66.4069 328.127C67.7377 330.456 69.734 326.796 70.0667 325.466C70.3994 323.802 70.3994 321.473 68.7358 320.475C68.0704 320.142 66.0742 319.477 66.0742 321.473" stroke="white" stroke-miterlimit="10" stroke-linecap="round" stroke-linejoin="round"/>
<path id="Vector_18" d="M70.0664 325.798C70.7318 322.471 71.7299 319.144 72.3953 315.817C72.728 312.823 73.3934 310.161 74.3915 307.5" stroke="white" stroke-miterlimit="10" stroke-linecap="round" stroke-linejoin="round"/>
<path id="Vector_19" d="M55.0952 329.125C55.4279 329.458 56.426 329.79 56.7587 329.458C57.0914 329.125 57.4241 328.792 57.7569 328.127C58.0896 326.796 56.7587 325.465 55.7606 325.798C54.0971 326.463 54.0971 328.127 55.0952 329.125Z" stroke="white" stroke-miterlimit="10" stroke-linecap="round" stroke-linejoin="round"/>
</g>
<path id="Vector_20" d="M202.486 116.195C203.151 111.87 197.163 110.539 194.168 110.539C192.172 110.539 189.843 110.872 187.847 110.872C185.185 110.539 182.857 110.207 180.528 111.205C178.199 112.203 175.87 113.534 173.874 115.197C173.541 114.532 172.543 114.532 171.877 115.197C171.212 115.53 170.879 116.195 170.547 116.861C169.216 119.522 167.885 122.184 166.554 124.846C165.223 127.507 163.56 130.501 162.894 133.496C162.229 136.49 162.894 145.806 162.894 146.139C162.894 148.135 166.221 151.794 166.221 152.127C166.554 152.793 167.22 153.458 167.885 154.123C168.883 154.789 169.548 155.454 169.881 156.785C170.879 160.445 172.21 163.772 172.543 167.431C173.208 170.426 172.21 174.418 172.875 177.413" stroke="white" stroke-miterlimit="10" stroke-linecap="round" stroke-linejoin="round"/>
<path id="Vector_21" d="M206.478 168.762C205.813 166.433 206.478 161.443 207.809 159.447C208.807 157.783 210.803 157.783 212.8 157.45C214.13 157.118 216.127 156.452 216.792 155.121C218.123 153.125 215.128 151.794 215.794 149.798C216.127 149.133 216.792 148.8 216.792 148.135C217.125 147.137 216.459 145.806 215.461 145.473C215.794 145.14 215.794 144.142 216.127 143.81C215.794 143.144 215.128 142.479 214.796 141.481C214.463 140.483 214.796 140.15 215.461 139.484C216.127 138.819 216.459 138.819 217.125 138.154C218.123 136.49 213.132 133.496 212.134 132.498C209.473 130.169 210.803 129.171 209.473 125.844C207.476 121.519 205.147 117.193 200.822 114.532" stroke="white" stroke-miterlimit="10" stroke-linecap="round" stroke-linejoin="round"/>
<path id="Vector_22" d="M202.486 131.167C204.482 130.169 206.146 126.842 207.809 127.84" stroke="white" stroke-miterlimit="10" stroke-linecap="round" stroke-linejoin="round"/>
<path id="Vector_23" d="M191.506 140.482C187.846 134.493 183.521 135.159 181.858 137.82C180.194 141.147 182.856 144.807 188.179 146.471C190.175 147.136 193.835 150.13 193.835 147.136" stroke="white" stroke-miterlimit="10" stroke-linecap="round" stroke-linejoin="round"/>
<path id="Vector_24" d="M186.415 138.856C183.15 138.165 183.405 140.529 184.367 141.972C185.329 143.415 188.697 143.415 190.14 144.377" stroke="white" stroke-miterlimit="10" stroke-linecap="round" stroke-linejoin="round"/>
<path id="Vector_25" d="M208.807 136.823C210.803 137.821 211.801 139.817 212.134 141.481C212.466 144.475 210.47 146.804 209.805 148.8" stroke="white" stroke-miterlimit="10" stroke-linecap="round" stroke-linejoin="round"/>
<path id="Vector_26" d="M203.485 134.494C203.818 133.163 206.146 130.501 207.81 131.5" stroke="white" stroke-miterlimit="10" stroke-linecap="round" stroke-linejoin="round"/>
<path id="Vector_27" d="M212.133 146.804C214.13 147.136 215.128 146.138 215.793 145.805" stroke="white" stroke-miterlimit="10" stroke-linecap="round" stroke-linejoin="round"/>
<path id="Vector_28" d="M202.155 115.862C197.829 113.201 194.502 117.193 193.172 118.857C191.175 121.518 193.504 124.18 192.506 127.174C192.174 127.84 191.841 128.838 191.841 129.503C191.841 131.499 194.17 133.163 194.835 135.159C195.501 137.488 193.172 138.819 192.174 140.815" stroke="white" stroke-miterlimit="10" stroke-linecap="round" stroke-linejoin="round"/>
<path id="Vector_29" d="M207.636 134.24C207.999 134.007 207.972 133.316 207.576 132.698C207.179 132.079 206.563 131.766 206.199 131.999C205.836 132.232 205.863 132.923 206.259 133.542C206.656 134.16 207.272 134.473 207.636 134.24Z" stroke="white" stroke-miterlimit="10" stroke-linecap="round" stroke-linejoin="round"/>
<path id="Vector_30" d="M197.828 158.781C201.155 159.114 206.145 159.447 210.47 157.783" stroke="white" stroke-miterlimit="10" stroke-linecap="round" stroke-linejoin="round"/>
<path id="Vector_31" d="M191.507 205.36C197.163 222.328 211.802 235.636 220.785 242.956" stroke="white" stroke-miterlimit="10" stroke-linecap="round" stroke-linejoin="round"/>
<path id="Vector_32" d="M117.646 163.772C118.312 164.77 119.975 167.099 119.975 168.43C119.31 173.753 123.302 175.75 121.306 180.407C120.641 182.071 114.985 183.402 110.66 184.067C107.998 184.4 104.671 184.4 101.011 183.402" stroke="white" stroke-miterlimit="10" stroke-linecap="round" stroke-linejoin="round"/>
<path id="Vector_33" d="M101.677 146.804C101.677 146.804 106.335 148.135 110.993 153.791C115.651 159.447 114.32 158.449 114.32 160.445" stroke="white" stroke-miterlimit="10" stroke-linecap="round" stroke-linejoin="round"/>
<path id="Vector_34" d="M104.8 158.805C105.132 159.138 105.465 159.471 105.132 160.136C104.8 160.802 104.467 160.802 103.801 160.469C103.469 160.469 103.136 159.804 103.136 159.471" stroke="white" stroke-miterlimit="10" stroke-linecap="round" stroke-linejoin="round"/>
<path id="Vector_35" d="M107 159.779C106.002 159.113 105.004 158.115 104.006 158.115C103.007 158.115 102.009 159.113 101.344 159.779L101.011 160.111" stroke="white" stroke-miterlimit="10" stroke-linecap="round" stroke-linejoin="round"/>
<path id="Vector_36" d="M111.992 155.121C111.326 155.786 110.994 157.117 111.659 157.783C111.992 158.781 112.657 159.446 113.655 160.112C114.653 160.777 115.319 161.11 116.317 161.442C116.982 161.775 117.98 162.441 117.98 163.439C117.98 164.437 116.982 164.769 116.65 165.435" stroke="white" stroke-miterlimit="10" stroke-linecap="round" stroke-linejoin="round"/>
<path id="Vector_37" d="M101.674 146.471C99.3448 145.806 96.6831 146.471 95.0196 147.802C93.3561 149.466 92.0253 151.795 92.358 154.123C92.358 155.787 93.0234 157.45 92.0253 158.781C91.3599 159.779 90.3618 160.112 89.3637 161.11C88.3656 162.108 88.0328 163.772 88.0328 165.103C88.0328 166.433 88.6983 167.764 89.031 169.428C86.3693 168.097 81.3788 166.433 80.048 170.759C79.0499 174.751 83.7077 178.743 87.0347 180.074C87.7001 180.407 88.6983 180.407 89.3637 180.407C90.0291 180.074 90.6945 179.409 90.3618 178.411" stroke="white" stroke-miterlimit="10" stroke-linecap="round" stroke-linejoin="round"/>
<path id="Vector_38" d="M114.652 166.1V165.767C113.986 165.767 113.321 166.433 112.988 166.433C111.99 166.765 110.992 166.433 110.327 165.767C109.661 165.102 109.661 163.771 110.327 163.106" stroke="white" stroke-miterlimit="10" stroke-linecap="round" stroke-linejoin="round"/>
<path id="Vector_39" d="M90.6959 178.411C93.6903 184.399 96.3519 182.403 96.0192 186.063C95.6865 188.392 96.0192 189.057 95.3538 194.048C94.023 202.033 83.3765 205.692 80.3821 210.35C71.7319 223.326 75.7243 241.624 74.0608 261.254C72.3973 273.231 65.0778 290.864 62.0835 302.509L76.7224 307.167" stroke="white" stroke-miterlimit="10" stroke-linecap="round" stroke-linejoin="round"/>
<path id="Vector_40" d="M116.981 183.401C115.983 188.059 115.983 192.717 115.983 197.374C115.983 200.369 113.654 203.363 110.993 204.694C105.669 207.023 100.013 204.361 95.3555 201.7" stroke="white" stroke-miterlimit="10" stroke-linecap="round" stroke-linejoin="round"/>
<path id="Vector_41" d="M112.657 173.752C113.988 173.087 113.988 173.087 114.986 172.754C115.651 172.422 116.316 172.089 116.982 172.089C117.647 172.089 118.313 172.089 118.978 171.424" stroke="white" stroke-miterlimit="10" stroke-linecap="round" stroke-linejoin="round"/>
<path id="Vector_42" d="M108.308 165.013C110.293 162.845 109.815 159.176 107.241 156.818C104.666 154.461 100.969 154.307 98.9839 156.475C96.9986 158.643 97.4764 162.312 100.051 164.67C102.626 167.028 106.323 167.181 108.308 165.013Z" stroke="white" stroke-miterlimit="10" stroke-linecap="round" stroke-linejoin="round"/>
<path id="Vector_43" d="M110.993 155.787C110.66 153.125 112.324 151.462 114.653 152.127C116.982 152.793 119.311 155.454 119.643 158.116C119.976 160.777 118.313 162.441 115.984 161.776" stroke="white" stroke-miterlimit="10" stroke-linecap="round" stroke-linejoin="round"/>
<path id="Vector_44" d="M83.376 173.753C82.7106 172.754 83.0433 171.424 84.0414 171.091C85.0395 170.758 86.3703 171.424 86.3703 172.422C86.0376 173.087 85.7049 173.42 85.7049 174.085C85.7049 174.751 85.7049 175.416 86.3703 175.749C87.0357 176.081 87.7011 176.081 88.3665 176.414" stroke="white" stroke-miterlimit="10" stroke-linecap="round" stroke-linejoin="round"/>
<path id="Vector_45" d="M108.332 156.785C108.997 156.452 110.66 156.119 111.326 155.787" stroke="white" stroke-miterlimit="10" stroke-linecap="round" stroke-linejoin="round"/>
<path id="Vector_46" d="M99.3455 145.805C92.3588 140.815 84.0412 145.805 79.0507 151.461C76.7218 154.123 74.3928 157.45 73.7274 161.11C72.7293 166.433 75.0582 171.756 75.0582 177.079C75.0582 188.724 65.0771 196.709 78.0526 214.675" stroke="white" stroke-miterlimit="10" stroke-linecap="round" stroke-linejoin="round"/>
<path id="Vector_47" d="M119.643 238.63C118.978 238.63 118.645 239.629 118.978 240.294" stroke="white" stroke-miterlimit="10" stroke-linecap="round" stroke-linejoin="round"/>
<path id="Vector_48" d="M118.313 242.955C118.313 243.287 118.313 243.62 118.313 243.62C118.313 243.953 118.313 242.955 118.313 242.955Z" stroke="white" stroke-miterlimit="10" stroke-linecap="round" stroke-linejoin="round"/>
<path id="Vector_49" d="M130.955 261.254C130.289 260.921 129.624 259.257 129.291 255.93" stroke="#1E1E1E" stroke-miterlimit="10" stroke-linecap="round" stroke-linejoin="round"/>
<path id="Vector_50" d="M218.123 450.562C217.125 453.889 217.79 456.55 218.789 458.546" stroke="white" stroke-miterlimit="10" stroke-linecap="round" stroke-linejoin="round"/>
<path id="Vector_51" d="M205.148 450.229C205.481 453.223 205.148 455.884 204.815 458.546" stroke="white" stroke-miterlimit="10" stroke-linecap="round" stroke-linejoin="round"/>
<path id="Vector_52" d="M201.821 475.847C201.821 469.858 202.819 463.87 204.482 458.214C203.817 459.877 206.811 465.201 209.14 463.87C210.471 463.204 212.135 462.539 212.8 461.541C213.798 460.21 213.133 458.214 215.462 457.881C217.125 457.548 218.456 458.547 219.787 459.545C220.785 460.543 221.45 462.206 222.448 463.537C226.108 469.526 231.764 471.522 237.087 475.847C240.747 478.841 238.751 480.505 235.091 481.503C231.099 482.501 227.106 483.499 223.114 482.501C220.785 481.836 218.789 480.838 216.792 479.84C212.8 477.843 206.146 476.513 201.821 475.847Z" stroke="white" stroke-miterlimit="10" stroke-linecap="round" stroke-linejoin="round"/>
<path id="Vector_53" d="M189.177 459.544C189.177 460.875 189.51 462.539 189.843 463.87" stroke="white" stroke-miterlimit="10" stroke-linecap="round" stroke-linejoin="round"/>
<path id="Vector_54" d="M178.532 457.216C178.864 460.543 178.532 463.87 177.201 467.197C176.535 469.193 176.535 471.189 176.203 472.853C175.87 475.515 175.537 478.509 175.205 481.17C177.534 482.501 178.199 486.161 179.862 488.49C181.193 490.153 183.189 490.819 185.186 491.152C188.845 491.817 192.505 491.817 196.165 491.152C196.83 491.152 197.496 490.819 197.828 490.486C198.161 490.153 198.494 489.488 198.494 489.155C199.159 487.159 199.159 484.83 198.494 482.501C197.496 479.507 194.834 477.178 193.171 474.184C191.84 471.855 191.174 469.193 190.509 466.864C190.176 465.866 189.844 464.535 188.845 464.203C188.513 463.87 187.847 463.87 187.182 463.87C185.851 463.87 184.188 463.87 183.189 464.535C181.859 465.201 181.193 466.864 181.526 467.862C180.195 468.86 178.532 469.526 177.201 470.191" stroke="white" stroke-miterlimit="10" stroke-linecap="round" stroke-linejoin="round"/>
<path id="Vector_55" d="M92.6943 437.586C93.3597 442.909 94.0251 445.903 94.3578 451.227" stroke="white" stroke-miterlimit="10" stroke-linecap="round" stroke-linejoin="round"/>
<path id="Vector_56" d="M106.001 436.255C106.001 441.578 106.334 445.571 106.667 450.894" stroke="white" stroke-miterlimit="10" stroke-linecap="round" stroke-linejoin="round"/>
<path id="Vector_57" d="M111.323 469.193C110.99 463.204 109.659 457.216 107.663 451.56C108.328 453.223 105.667 458.546 103.338 457.216C102.007 456.55 100.344 456.217 99.6782 455.219C98.6801 453.889 99.0128 451.892 96.6839 451.56C95.0203 451.227 93.6895 452.225 92.6914 453.556C91.6933 454.887 91.0279 456.217 90.3625 457.548C87.0355 463.537 81.3795 465.866 76.389 470.524C72.7292 473.851 74.7255 475.182 78.3852 475.847C82.3776 476.845 86.7028 477.51 90.3625 476.18C92.6914 475.514 94.6876 474.183 96.6839 473.185C100.676 471.854 106.998 470.191 111.323 469.193Z" stroke="white" stroke-miterlimit="10" stroke-linecap="round" stroke-linejoin="round"/>
<path id="Vector_58" d="M84.3765 464.868C85.3746 465.2 86.7054 465.2 88.0362 465.2" stroke="white" stroke-miterlimit="10" stroke-linecap="round" stroke-linejoin="round"/>
<path id="Vector_59" d="M86.3735 463.204C87.7043 463.204 88.7025 463.204 90.0333 462.872" stroke="white" stroke-miterlimit="10" stroke-linecap="round" stroke-linejoin="round"/>
<path id="Vector_60" d="M88.0366 461.208C89.3674 461.208 91.031 460.875 92.3618 460.875" stroke="white" stroke-miterlimit="10" stroke-linecap="round" stroke-linejoin="round"/>
<path id="Vector_61" d="M90.0327 458.546C91.6962 458.546 93.027 458.546 94.6905 458.546" stroke="white" stroke-miterlimit="10" stroke-linecap="round" stroke-linejoin="round"/>
<path id="Vector_62" d="M92.0293 454.554C94.0255 455.22 95.689 455.885 97.3525 456.883" stroke="white" stroke-miterlimit="10" stroke-linecap="round" stroke-linejoin="round"/>
<path id="Vector_63" d="M125.964 441.911C125.964 446.236 125.964 450.561 124.633 454.554" stroke="white" stroke-miterlimit="10" stroke-linecap="round" stroke-linejoin="round"/>
<path id="Vector_64" d="M136.944 441.579C136.612 443.242 136.612 443.242 136.612 444.906C135.946 449.231 135.613 453.889 137.277 457.881C137.942 459.878 137.942 461.874 138.275 463.537C138.608 466.199 138.94 469.193 139.273 471.855C136.944 473.186 136.279 476.845 134.283 478.842C132.952 480.172 130.956 481.17 128.959 481.503C125.3 482.169 121.64 482.169 117.98 481.171C117.315 481.171 116.649 480.838 116.317 480.505C115.984 480.172 115.651 479.507 115.651 479.174C114.986 477.178 114.986 474.849 115.984 472.52C117.315 469.526 119.976 467.197 121.307 464.535C122.638 462.206 123.303 459.545 123.969 457.216C124.302 456.218 124.634 454.887 125.965 454.554C126.63 454.222 126.963 454.222 127.629 454.222C128.959 454.222 130.623 454.222 131.621 454.887C132.952 455.552 133.617 457.216 132.952 458.547C134.283 459.545 135.613 460.543 137.277 460.876" stroke="white" stroke-miterlimit="10" stroke-linecap="round" stroke-linejoin="round"/>
<path id="Vector_65" d="M123.636 458.88C126.63 458.214 130.29 459.212 132.619 461.209" stroke="white" stroke-miterlimit="10" stroke-linecap="round" stroke-linejoin="round"/>
<path id="Vector_66" d="M121.307 468.527C123.636 468.86 125.632 469.193 127.961 469.858" stroke="white" stroke-miterlimit="10" stroke-linecap="round" stroke-linejoin="round"/>
<path id="Vector_67" d="M123.303 468.195C124.967 467.862 126.298 467.529 127.961 467.529C126.298 466.198 124.967 465.2 123.303 463.87C125.632 462.871 127.961 462.539 130.29 462.871C127.961 461.208 126.63 460.875 123.636 459.544" stroke="white" stroke-miterlimit="10" stroke-linecap="round" stroke-linejoin="round"/>
<path id="Vector_68" d="M189.511 148.135C189.511 148.135 190.177 157.117 184.521 162.108C178.865 167.099 179.863 168.429 179.863 168.429" stroke="white" stroke-miterlimit="10" stroke-linecap="round" stroke-linejoin="round"/>
<path id="Vector_69" d="M145.261 315.817C144.596 331.786 139.938 360.399 139.605 377.367C151.915 383.688 163.227 385.352 178.199 386.35C189.178 345.76 193.503 320.142 198.827 281.548C203.817 245.284 197.828 212.346 180.528 179.409L177.866 175.083" stroke="#1E1E1E" stroke-miterlimit="10" stroke-linecap="round" stroke-linejoin="round"/>
<path id="Vector_70" d="M213.797 175.749C216.126 177.08 218.455 178.411 220.784 180.74C223.778 183.401 232.429 196.709 236.421 213.677" stroke="white" stroke-miterlimit="10" stroke-linecap="round" stroke-linejoin="round"/>
<path id="Vector_71" d="M206.479 168.762C207.144 172.089 210.138 173.753 213.798 176.082" stroke="white" stroke-miterlimit="10" stroke-linecap="round" stroke-linejoin="round"/>
<path id="Vector_72" d="M150.917 224.323C151.915 219.333 152.58 214.675 153.578 209.684C155.242 200.369 156.24 187.06 169.881 179.076C173.873 176.747 179.196 175.083 183.189 173.087C189.51 169.76 187.461 163.883 186.795 159.557" stroke="white" stroke-miterlimit="10" stroke-linecap="round" stroke-linejoin="round"/>
<path id="Vector_73" d="M175.205 233.639C170.88 263.249 164.226 294.191 160.899 321.472C152.914 319.144 147.258 316.482 139.273 314.153C141.602 279.885 144.596 250.607 149.587 221.662" stroke="#1E1E1E" stroke-miterlimit="10" stroke-linecap="round" stroke-linejoin="round"/>
<path id="Vector_74" d="M210.139 173.753C210.139 173.753 220.12 178.079 226.108 233.307" stroke="white" stroke-miterlimit="10" stroke-linecap="round" stroke-linejoin="round"/>
<path id="Vector_75" d="M186.516 190.388C186.516 190.388 203.151 192.051 209.472 190.72C215.461 189.39 217.124 188.059 217.124 188.059" stroke="white" stroke-miterlimit="10" stroke-linecap="round" stroke-linejoin="round"/>
<path id="Vector_76" d="M160.566 384.687C160.566 384.687 155.908 439.915 155.908 454.887C155.908 454.887 176.203 454.221 179.862 458.214C183.522 462.206 196.497 457.548 199.159 457.216C199.159 457.216 212.467 347.091 212.467 314.154" stroke="white" stroke-miterlimit="10" stroke-linecap="round" stroke-linejoin="round"/>
<path id="Vector_77" d="M232.763 382.025C232.763 382.025 228.437 436.921 226.108 451.56C226.108 451.56 216.46 449.896 212.135 450.894C207.81 451.892 201.156 448.565 201.156 448.565" stroke="white" stroke-miterlimit="10" stroke-linecap="round" stroke-linejoin="round"/>
<path id="Vector_78" d="M45.4486 361.729C45.7813 360.731 46.4467 356.073 46.4467 356.073L40.7908 355.408C41.1235 351.748 41.4562 349.419 41.4562 349.419H35.8002C35.8002 350.75 35.8002 352.414 35.4675 355.075L29.8116 354.743C29.8116 356.739 28.8135 360.399 28.8135 360.399L34.4694 361.064C34.1367 363.726 33.4713 366.72 33.4713 366.72L38.7946 367.385C39.1273 366.055 39.46 363.393 39.7927 361.729H45.4486Z" fill="white"/>
<path id="Vector_79" d="M274.684 382.358L274.351 389.344C274.351 389.344 271.024 394.335 259.379 395.333C247.735 396.331 241.413 392.339 240.415 390.01C239.417 387.681 240.083 382.025 240.083 382.025L274.684 382.358Z" stroke="white" stroke-miterlimit="10" stroke-linecap="round" stroke-linejoin="round"/>
<path id="Vector_80" d="M241.413 324.135H238.419" stroke="white" stroke-miterlimit="10" stroke-linecap="round" stroke-linejoin="round"/>
<path id="Vector_81" d="M256.051 317.48L263.038 318.146C263.038 318.146 266.365 319.476 264.369 325.132L257.049 324.467" stroke="white" stroke-miterlimit="10" stroke-linecap="round" stroke-linejoin="round"/>
<path id="Vector_82" d="M228.769 430.267C231.098 447.567 232.429 457.548 232.429 457.548C232.429 457.548 232.096 461.541 236.088 461.208C240.081 460.875 243.075 461.208 243.408 463.87C243.741 466.531 244.739 467.197 251.393 466.864C258.38 466.531 290.652 468.195 290.652 468.195C290.652 468.195 291.983 467.529 292.315 464.868C292.648 462.206 294.311 462.539 298.969 461.874C303.627 461.208 304.625 458.547 303.96 450.894C303.294 443.242 295.642 384.687 295.31 382.025" stroke="white" stroke-miterlimit="10" stroke-linecap="round" stroke-linejoin="round"/>
<path id="Vector_83" d="M281.004 383.023C281.004 383.023 288.657 381.692 289.655 389.677" stroke="white" stroke-miterlimit="10" stroke-linecap="round" stroke-linejoin="round"/>
<path id="Vector_84" d="M295.31 381.692C295.31 381.692 292.981 374.372 284.664 374.372C277.677 374.372 251.726 373.374 239.416 374.04" stroke="white" stroke-miterlimit="10" stroke-linecap="round" stroke-linejoin="round"/>
<path id="Vector_85" d="M268.363 388.346L261.708 325.465" stroke="white" stroke-miterlimit="10" stroke-linecap="round" stroke-linejoin="round"/>
<path id="Vector_86" d="M246.736 388.013L239.083 324.8" stroke="white" stroke-miterlimit="10" stroke-linecap="round" stroke-linejoin="round"/>
<path id="Vector_87" d="M292.315 413.299L296.641 447.234" stroke="white" stroke-miterlimit="10" stroke-linecap="round" stroke-linejoin="round"/>
<path id="Vector_88" d="M248.732 307.167C248.732 307.167 248.067 309.828 254.388 313.488C256.051 314.486 257.715 322.471 256.717 324.8C255.719 327.129 252.724 326.463 252.392 326.131" stroke="white" stroke-miterlimit="10" stroke-linecap="round" stroke-linejoin="round"/>
<path id="Vector_89" d="M240.414 308.165C240.414 308.165 241.412 312.822 239.083 313.155" stroke="white" stroke-miterlimit="10" stroke-linecap="round" stroke-linejoin="round"/>
<path id="Vector_90" d="M237.752 317.812C237.752 317.812 241.412 317.147 241.745 319.809C242.078 322.47 240.747 324.467 242.743 326.463C244.074 328.126 247.734 327.128 247.734 327.128C251.061 327.794 252.059 325.465 252.059 325.465" stroke="white" stroke-miterlimit="10" stroke-linecap="round" stroke-linejoin="round"/>
<path id="Vector_91" d="M236.09 461.208C236.09 461.208 232.43 464.868 236.423 470.191L243.077 470.524C243.077 470.524 244.74 470.191 244.407 465.866" stroke="white" stroke-miterlimit="10" stroke-linecap="round" stroke-linejoin="round"/>
<path id="Vector_92" d="M294.312 463.204C294.312 463.204 291.318 469.193 294.645 471.189C295.976 472.187 297.307 471.189 298.305 470.856C299.968 470.523 301.299 470.523 301.299 470.523L301.632 470.191C303.961 465.2 301.299 461.873 301.299 461.873" stroke="white" stroke-miterlimit="10" stroke-linecap="round" stroke-linejoin="round"/>
<path id="Vector_93" d="M241.412 461.873C241.412 461.873 238.418 466.198 242.41 469.525" stroke="white" stroke-miterlimit="10" stroke-linecap="round" stroke-linejoin="round"/>
<g id="Group_4">
<path id="Vector_94" d="M245.073 193.383C245.073 193.383 246.404 179.409 245.739 174.751C245.073 170.094 247.402 171.757 248.068 172.423C248.733 173.088 249.731 177.746 249.398 183.734" stroke="white" stroke-miterlimit="10" stroke-linecap="round" stroke-linejoin="round"/>
<path id="Vector_95" d="M241.746 206.358C241.746 206.358 243.077 200.369 241.413 197.375C240.083 194.381 241.081 190.388 239.75 185.398C238.752 182.071 242.079 182.736 243.41 186.063C244.075 187.726 245.073 190.721 245.073 190.721" stroke="white" stroke-miterlimit="10" stroke-linecap="round" stroke-linejoin="round"/>
<path id="Vector_96" d="M249.067 189.39C249.067 189.39 250.398 176.747 250.065 170.426C250.065 170.426 252.394 169.76 253.392 173.087C254.39 176.414 254.057 189.722 253.725 191.053" stroke="white" stroke-miterlimit="10" stroke-linecap="round" stroke-linejoin="round"/>
<path id="Vector_97" d="M253.392 190.721C253.392 190.721 256.386 178.744 256.053 174.751C256.053 173.753 258.715 174.419 259.048 177.413C259.38 180.074 257.717 192.052 257.051 194.713C257.051 194.713 259.38 188.059 260.046 185.398C260.711 182.736 263.04 185.73 262.707 188.059C262.375 190.388 260.378 197.375 258.382 202.698C257.051 206.358 251.728 207.689 250.73 211.349" stroke="white" stroke-miterlimit="10" stroke-linecap="round" stroke-linejoin="round"/>
</g>
<path id="Vector_98" d="M243.74 387.348C243.74 387.348 246.069 389.677 249.729 387.681" stroke="white" stroke-miterlimit="10" stroke-linecap="round" stroke-linejoin="round"/>
<path id="Vector_99" d="M265.035 388.013C265.035 388.013 267.696 390.009 271.023 387.68" stroke="white" stroke-miterlimit="10" stroke-linecap="round" stroke-linejoin="round"/>
<path id="Vector_100" d="M92.0263 201.034C92.0263 201.034 92.0263 244.618 88.3666 263.582C84.7069 282.546 81.3798 361.397 86.0377 381.692C86.0377 381.692 76.722 380.361 71.7314 386.017C71.7314 386.017 75.3912 300.512 80.049 278.221" stroke="white" stroke-miterlimit="10" stroke-linecap="round" stroke-linejoin="round"/>
<path id="Vector_101" d="M136.945 244.951C136.945 244.951 141.27 248.611 144.264 252.27" stroke="#1E1E1E" stroke-miterlimit="10" stroke-linecap="round" stroke-linejoin="round"/>
<path id="Vector_102" d="M131.288 261.253C131.288 261.253 137.942 269.903 141.269 275.227" stroke="#1E1E1E" stroke-miterlimit="10" stroke-linecap="round" stroke-linejoin="round"/>
<path id="Vector_103" d="M79.3833 382.025C79.3833 382.025 83.7084 425.276 85.3719 435.257C85.3719 435.257 92.3587 440.913 109.659 435.257C109.659 435.257 120.638 445.904 141.266 440.913L144.926 386.35" stroke="white" stroke-miterlimit="10" stroke-linecap="round" stroke-linejoin="round"/>
<path id="Vector_104" d="M97.0195 295.855C97.0195 295.855 106.335 298.184 110.328 296.52" stroke="white" stroke-miterlimit="10" stroke-linecap="round" stroke-linejoin="round"/>
<path id="Vector_105" d="M109.663 435.257L105.337 324.467" stroke="white" stroke-miterlimit="10" stroke-linecap="round" stroke-linejoin="round"/>
<path id="Vector_106" d="M91.0308 168.097L97.3521 159.447" stroke="white" stroke-miterlimit="10" stroke-linecap="round" stroke-linejoin="round"/>
<path id="Vector_107" d="M202.153 284.21C202.153 284.21 217.124 286.206 225.109 283.877" stroke="white" stroke-miterlimit="10" stroke-linecap="round" stroke-linejoin="round"/>
<path id="Vector_108" d="M53.432 324.134C53.432 324.134 47.4433 322.138 46.7779 329.125C46.1125 336.112 45.7798 339.439 45.7798 339.439" stroke="white" stroke-miterlimit="10" stroke-linecap="round" stroke-linejoin="round"/>
<path id="Vector_109" d="M49.106 338.108L50.4368 327.794C50.4368 327.794 51.1022 326.796 53.7638 327.461" stroke="white" stroke-miterlimit="10" stroke-linecap="round" stroke-linejoin="round"/>
<path id="Vector_110" d="M68.7378 328.127C68.7378 328.127 72.3975 327.129 72.0648 330.789C71.7321 334.116 70.734 341.435 70.734 341.435" stroke="white" stroke-miterlimit="10" stroke-linecap="round" stroke-linejoin="round"/>
<path id="Vector_111" d="M70.4014 325.132C70.4014 325.132 74.3938 324.467 74.7265 327.461" stroke="white" stroke-miterlimit="10" stroke-linecap="round" stroke-linejoin="round"/>
<path id="Vector_112" d="M73.7275 342.1L27.4818 339.438C27.4818 339.438 20.4951 337.109 19.4969 348.754C18.8315 360.398 14.5064 383.688 17.8334 389.011C21.1605 394.334 57.0924 393.669 64.4118 393.669C71.7313 393.669 80.3816 395 80.3816 395" stroke="white" stroke-miterlimit="10" stroke-linecap="round" stroke-linejoin="round"/>
<path id="Vector_113" d="M241.732 241.728C244.061 259.361 250.05 303.278 250.715 305.939C244.394 306.937 242.065 307.935 237.407 309.266" stroke="white" stroke-miterlimit="10" stroke-linecap="round" stroke-linejoin="round"/>
<path id="Vector_114" d="M218.789 246.947C225.443 236.634 235.757 214.675 241.08 207.356C248.732 209.685 246.403 210.017 253.39 213.677C248.4 228.649 232.763 265.246 221.118 264.581C218.124 264.581 212.8 262.252 201.156 251.605" stroke="white" stroke-miterlimit="10" stroke-linecap="round" stroke-linejoin="round"/>
<path id="Vector_115" d="M237.396 310.671C236.398 289.378 235.4 268.085 234.069 255.775" stroke="#1E1E1E" stroke-miterlimit="10" stroke-linecap="round" stroke-linejoin="round"/>
<path id="Vector_116" d="M229.435 260.256C231.098 286.207 229.435 324.468 229.767 367.719C229.767 367.719 229.435 379.031 229.102 383.023" stroke="white" stroke-miterlimit="10" stroke-linecap="round" stroke-linejoin="round"/>
<g id="Group_5">
<path id="Vector_117" d="M121.972 228.316C119.643 227.318 118.313 228.982 119.643 230.978C120.642 232.641 122.305 233.639 123.303 235.303C118.978 233.972 117.98 233.639 116.316 233.307C115.651 233.307 115.318 232.974 114.653 232.974C111.326 232.974 110.328 235.968 112.324 236.966C113.655 237.632 114.653 238.297 116.316 238.963" stroke="white" stroke-miterlimit="10" stroke-linecap="round" stroke-linejoin="round"/>
<path id="Vector_118" d="M136.347 247.313C133.686 245.317 132.687 242.656 131.689 239.994C130.026 235.336 127.032 230.346 122.041 228.349" stroke="white" stroke-miterlimit="10" stroke-linecap="round" stroke-linejoin="round"/>
<path id="Vector_119" d="M111.991 237.632C110.993 238.63 110.327 239.295 111.325 240.626C112.323 241.957 113.987 242.622 115.65 242.622" stroke="white" stroke-miterlimit="10" stroke-linecap="round" stroke-linejoin="round"/>
<path id="Vector_120" d="M111.658 241.957C110.66 242.955 110.327 244.286 111.325 245.284C112.323 246.282 113.987 246.615 114.985 246.948" stroke="white" stroke-miterlimit="10" stroke-linecap="round" stroke-linejoin="round"/>
<path id="Vector_121" d="M112.323 245.949C111.658 248.944 114.319 249.276 116.315 249.942C118.644 250.607 121.306 251.605 123.635 252.271C125.298 252.936 126.962 253.269 128.625 254.267C129.956 255.265 132.285 257.594 133.283 258.592" stroke="white" stroke-miterlimit="10" stroke-linecap="round" stroke-linejoin="round"/>
</g>
<path id="Vector_122" d="M136.944 244.951C138.608 248.278 133.95 263.25 131.288 261.253" stroke="#1E1E1E" stroke-miterlimit="10" stroke-linecap="round" stroke-linejoin="round"/>
<path id="Vector_123" d="M231.265 225.789C230.932 219.468 230.6 216.806 228.936 209.487" stroke="#1E1E1E" stroke-miterlimit="10" stroke-linecap="round" stroke-linejoin="round"/>
<path id="Vector 67" d="M205.647 134.981C206.381 134.941 207.987 134.717 208.531 134.14" stroke="white" stroke-width="0.75" stroke-linecap="round"/>
<path id="Vector 68" d="M103.093 161.395C103.678 161.526 105.212 161.57 106.66 160.687" stroke="white" stroke-width="0.75" stroke-linecap="round"/>
</g>
<g id="Group_6">
<g id="Group 597">
<path id="Vector_124" d="M283.194 77.4509C283.194 77.4509 334.753 70.2962 339.557 68.9987C344.361 67.7012 355.076 64.4479 355.663 61.4013C356.249 58.3548 344.832 56.0908 341.501 55.7328C338.171 55.3748 300.886 59.9178 300.886 59.9178" stroke="white" stroke-width="0.5" stroke-miterlimit="10" stroke-linecap="round" stroke-linejoin="round"/>
<path id="Vector_125" d="M296.668 58.1691C282.188 50.6523 261.586 42.2183 248.268 33.5308C248.268 33.5308 245.205 28.2779 245.086 26.9695L242.808 26.4655C242.808 26.4655 244.855 33.9413 246.254 35.3874C247.654 36.8335 265.096 52.961 265.096 52.961C265.096 52.961 263.732 53.5918 263.338 54.8451C263.201 56.126 267.437 55.2858 267.437 55.2858L275.403 63.1388C275.403 63.1388 255.612 66.453 253.251 66.7175C250.918 66.7258 248.503 67.5026 246.043 63.8694C243.583 60.2362 237.547 51.2951 237.547 51.2951L233.228 52.9039L235.438 66.0981L221.927 59.2038L220.334 59.5509L233.413 72.8771C233.413 72.8771 233.047 73.8742 234.017 74.4967C234.959 75.3754 236.185 76.0255 236.185 76.0255L242.33 83.9419L244.178 83.6223L244.812 77.7303C244.812 77.7303 256.375 81.0466 264.052 79.5397C271.729 78.0327 282.764 76.6277 284.758 77.3603C287.009 78.1205 292.022 79.696 293.138 81.3708C294.226 83.3017 296.43 86.9073 296.43 86.9073C296.43 86.9073 294.242 87.9679 294.7 88.5353C295.157 89.1028 297.975 89.4057 298.542 88.9484L303.297 97.7518L301.776 102.253L302.801 102.363C302.801 102.363 305.859 98.0272 307.817 96.683L307.574 84.4776C307.574 84.4776 310.932 84.5794 313.119 83.5189C315.874 82.0011 313.981 77.9106 312.728 77.5167C311.475 77.1229 312.298 76.6931 306.982 77.9355L306.938 73.5255" stroke="white" stroke-width="0.5" stroke-miterlimit="10" stroke-linecap="round" stroke-linejoin="round"/>
<path id="Vector_126" d="M298.46 58.3618C298.46 58.3618 300.995 58.8934 300.526 63.2483" stroke="white" stroke-width="0.5" stroke-miterlimit="10" stroke-linecap="round" stroke-linejoin="round"/>
<path id="Vector_127" d="M310.686 79.6292C310.521 81.1662 311.152 82.5297 312.634 83.2073" stroke="white" stroke-width="0.5" stroke-miterlimit="10" stroke-linecap="round" stroke-linejoin="round"/>
<path id="Vector_128" d="M296.731 59.9895C296.566 61.5265 297.197 62.89 298.679 63.5676" stroke="white" stroke-width="0.5" stroke-miterlimit="10" stroke-linecap="round" stroke-linejoin="round"/>
<path id="Vector_129" d="M298.232 58.0778C296.411 58.1412 294.819 58.4883 293.199 59.0916C291.863 59.4662 290.527 59.8409 289.191 60.2155C288.652 60.4166 288.112 60.6177 287.572 60.8188C287.032 61.0199 286.721 61.5047 286.638 62.2732C286.555 63.0417 287.04 63.353 287.553 63.4081" stroke="white" stroke-width="0.5" stroke-miterlimit="10" stroke-linecap="round" stroke-linejoin="round"/>
</g>
<path id="Vector_130" d="M230.23 81.3697C163.555 84.6022 81.9766 92.9355 -3.94849 117.671" stroke="white" stroke-width="0.5" stroke-miterlimit="10" stroke-linecap="round" stroke-linejoin="round"/>
<path id="Vector_131" d="M223.619 76.8597C164.743 74.9356 53.5821 85.838 -4.6021 94.3536" stroke="white" stroke-width="0.5" stroke-miterlimit="10" stroke-linecap="round" stroke-linejoin="round"/>
</g>
</g>
<g id="Comment Vika">
<g id="Vika">
<path d="M263.102 280.27L263.832 279.586L270.969 293.192L274.011 279.251L274.766 279.276L271.674 295.479L271.089 296.05L263.102 280.27Z" fill="#88B1D5"/>
<path d="M276.242 286.92C276.431 286.926 276.588 286.923 276.715 286.911C276.856 286.9 276.972 286.983 277.061 287.158C277.085 287.867 277.117 288.592 277.156 289.332C277.196 290.057 277.235 290.789 277.274 291.53C277.313 292.27 277.329 293.018 277.32 293.773C277.328 294.512 277.312 295.235 277.274 295.942C277.271 296.036 277.246 296.09 277.198 296.105C277.15 296.134 277.079 296.14 276.985 296.121C276.907 296.119 276.805 296.108 276.679 296.088C276.569 296.084 276.443 296.096 276.301 296.123L276.242 286.92ZM275.011 282.657C275.014 282.547 275.026 282.43 275.046 282.304C275.066 282.164 275.102 282.039 275.152 281.93C275.219 281.822 275.292 281.73 275.373 281.654C275.47 281.579 275.581 281.543 275.707 281.547C275.896 281.553 276.084 281.567 276.272 281.589C276.46 281.611 276.64 281.656 276.81 281.724C276.982 281.777 277.12 281.868 277.226 281.997C277.333 282.11 277.382 282.277 277.375 282.497C277.363 282.874 277.211 283.207 276.919 283.497C276.627 283.771 276.276 283.901 275.868 283.888C275.554 283.878 275.33 283.753 275.196 283.512C275.062 283.257 275.001 282.971 275.011 282.657ZM276.374 282.819C276.327 282.817 276.302 282.856 276.3 282.934C276.297 283.013 276.319 283.053 276.367 283.055C276.429 283.057 276.462 283.018 276.465 282.94C276.467 282.861 276.437 282.821 276.374 282.819Z" fill="#88B1D5"/>
<path d="M278.75 295.517C278.745 295.187 278.722 294.683 278.681 294.005C278.656 293.312 278.626 292.541 278.59 291.69C278.555 290.824 278.521 289.911 278.489 288.95C278.457 287.99 278.423 287.084 278.388 286.234C278.368 285.368 278.346 284.597 278.321 283.919C278.296 283.227 278.281 282.715 278.276 282.384C278.264 282.242 278.256 281.998 278.252 281.652C278.263 281.291 278.268 280.913 278.265 280.52C278.262 280.111 278.258 279.734 278.254 279.387C278.265 279.026 278.273 278.775 278.278 278.633C278.498 278.64 278.693 278.694 278.863 278.793C279.033 278.878 279.17 279.024 279.273 279.231C279.294 279.562 279.31 280.035 279.322 280.648C279.35 281.247 279.375 281.94 279.397 282.727C279.419 283.514 279.439 284.356 279.457 285.253C279.492 286.151 279.518 287.041 279.537 287.922C279.587 287.845 279.636 287.776 279.685 287.714C279.734 287.653 279.767 287.615 279.783 287.6C279.962 287.417 280.173 287.203 280.417 286.959C280.661 286.715 280.913 286.464 281.173 286.205C281.448 285.946 281.716 285.695 281.975 285.452C282.251 285.194 282.494 284.965 282.705 284.768C282.932 284.555 283.119 284.388 283.264 284.267C283.409 284.145 283.498 284.085 283.529 284.086L284.411 284.563C284.136 284.79 283.821 285.055 283.465 285.358C283.109 285.661 282.76 285.988 282.419 286.339C282.078 286.674 281.744 287.033 281.417 287.416C281.106 287.784 280.851 288.153 280.65 288.524C280.65 288.54 280.64 288.579 280.623 288.641C280.621 288.688 280.62 288.727 280.619 288.759C280.618 288.775 280.617 288.814 280.615 288.877C280.629 288.924 280.636 288.956 280.636 288.972L285.876 295.486C285.876 295.502 285.875 295.533 285.873 295.58C285.888 295.628 285.894 295.668 285.893 295.699C285.884 295.998 285.719 296.22 285.4 296.367L279.726 289.391C279.71 289.375 279.688 289.35 279.657 289.318C279.643 289.27 279.621 289.222 279.591 289.174L279.703 293.755C279.701 293.833 279.696 293.983 279.689 294.203C279.698 294.423 279.698 294.667 279.689 294.934C279.697 295.186 279.697 295.43 279.689 295.665C279.698 295.886 279.701 296.035 279.699 296.114C279.494 296.107 279.307 296.062 279.137 295.978C278.967 295.878 278.838 295.725 278.75 295.517Z" fill="#88B1D5"/>
<path d="M286.667 294.379C286.696 293.483 286.96 292.839 287.46 292.446C287.976 292.054 288.635 291.871 289.436 291.896C289.751 291.906 290.041 291.923 290.308 291.948C290.59 291.972 290.856 292.02 291.105 292.091C291.355 292.162 291.595 292.264 291.827 292.397C292.074 292.531 292.328 292.72 292.587 292.965C292.589 292.917 292.592 292.823 292.596 292.682C292.617 292.525 292.63 292.36 292.636 292.187C292.641 292.015 292.646 291.858 292.651 291.716C292.656 291.559 292.659 291.449 292.661 291.386C292.655 291.103 292.658 290.741 292.673 290.301C292.687 289.846 292.663 289.381 292.599 288.907C292.552 288.434 292.425 287.981 292.218 287.55C292.028 287.119 291.7 286.786 291.236 286.551C290.906 286.541 290.598 286.586 290.311 286.687C290.025 286.788 289.738 286.896 289.452 287.013C289.165 287.13 288.878 287.238 288.592 287.339C288.306 287.424 287.998 287.462 287.668 287.451C287.681 287.058 287.809 286.74 288.053 286.496C288.313 286.237 288.618 286.042 288.968 285.912C289.318 285.782 289.682 285.699 290.061 285.664C290.44 285.629 290.77 285.616 291.053 285.625C291.335 285.681 291.592 285.745 291.826 285.815C292.075 285.886 292.299 286.019 292.497 286.214C292.711 286.41 292.898 286.707 293.058 287.105C293.235 287.488 293.375 288.027 293.478 288.723C293.597 289.419 293.687 290.302 293.747 291.374C293.823 292.43 293.868 293.729 293.881 295.271C293.906 295.476 293.83 295.655 293.652 295.806C293.49 295.943 293.266 296.061 292.98 296.162C292.694 296.247 292.369 296.323 292.005 296.39C291.658 296.442 291.302 296.478 290.94 296.498C290.578 296.518 290.231 296.53 289.901 296.535C289.57 296.54 289.295 296.539 289.075 296.532C288.792 296.523 288.503 296.467 288.208 296.363C287.928 296.26 287.665 296.118 287.419 295.937C287.189 295.741 287 295.514 286.851 295.258C286.718 294.986 286.657 294.693 286.667 294.379ZM289.784 292.827C288.991 293.022 288.433 293.272 288.108 293.576C287.785 293.864 287.634 294.151 287.656 294.434C287.694 294.719 287.874 294.984 288.197 295.23C288.52 295.461 288.916 295.623 289.384 295.717C289.854 295.795 290.366 295.772 290.92 295.648C291.475 295.508 292.011 295.227 292.528 294.803C292.354 294.341 292.177 293.989 291.996 293.748C291.815 293.49 291.617 293.295 291.401 293.162C291.185 293.03 290.944 292.943 290.678 292.903C290.412 292.863 290.114 292.838 289.784 292.827Z" fill="#88B1D5"/>
</g>
<path id="draw:reverse/mask" d="M263.29 279.582L271.319 295.64L274.482 278.731C275.191 279.724 276.623 282.307 276.672 284.691C276.72 287.076 276.692 293.43 276.672 296.309L279.165 295.64L278.679 278.73L283.971 284.205L279.956 288.219L285.552 295.883L287.012 294.971C288.978 295.518 292.887 296.26 292.79 294.849C292.668 293.085 289.992 290.895 287.316 293.389C287.174 291.017 287.413 286.261 289.506 286.212C292.121 286.151 293.277 286.759 293.033 292.477" stroke="#1E1E1E" stroke-width="4" stroke-linecap="round"/>
<g id="draw/arrow">
<path id="Vector 41" d="M270.49 278.764C269.664 274.497 264.704 265.632 251.478 264.311" stroke="#88B1D5"/>
<path id="Vector 303" d="M254.088 262.418L251.185 264.241L253.286 267.09" stroke="#88B1D5" stroke-linecap="round"/>
</g>
</g>
<g id="Comment Karina">
<g id="Karina">
<path d="M32.1825 425.097C32.1863 424.981 32.1928 424.777 32.2022 424.485C32.212 424.179 32.2223 423.858 32.2331 423.523C32.2439 423.187 32.2539 422.874 32.2633 422.582C32.2877 422.276 32.3018 422.065 32.3056 421.948L32.8962 421.967C32.8962 421.967 32.8985 422.121 32.9033 422.427C32.9085 422.719 32.9102 423.121 32.9084 423.632C32.9216 424.128 32.9318 424.72 32.939 425.406C32.9466 426.078 32.9526 426.801 32.957 427.575C32.9764 428.334 32.9875 429.123 32.9905 429.941C33.0085 430.744 33.0196 431.533 33.024 432.307C33.0434 433.066 33.0567 433.789 33.0638 434.476C33.071 435.162 33.081 435.761 33.0937 436.272C33.0933 436.287 33.0916 436.338 33.0888 436.425C33.0865 436.498 33.0761 436.593 33.0578 436.709C33.0545 436.811 33.0442 436.905 33.0268 436.993C33.024 437.08 33.0219 437.146 33.0205 437.189C33.0163 437.321 33.0055 437.43 32.9881 437.517C32.9857 437.59 32.9545 437.654 32.8943 437.711C32.8486 437.768 32.7595 437.816 32.6268 437.856C32.5092 437.881 32.3479 437.905 32.1428 437.928C32.1343 437.738 32.1246 437.358 32.1137 436.788C32.1033 436.204 32.0888 435.517 32.0704 434.728C32.0665 433.94 32.0647 433.086 32.065 432.166C32.0654 431.247 32.065 430.349 32.0639 429.473C32.0774 428.598 32.0893 427.773 32.0996 427C32.1098 426.226 32.1375 425.592 32.1825 425.097ZM37.8602 431.717C37.4602 430.989 37.0384 430.486 36.5948 430.209C36.1516 429.918 35.7184 429.773 35.295 429.774C34.8862 429.775 34.5031 429.887 34.1456 430.109C33.7881 430.331 33.4958 430.57 33.2686 430.825L33.2981 429.907L39.4394 422.089L40.2706 422.116L35.4388 428.705C35.6848 428.772 35.9798 428.905 36.3237 429.106C36.6681 429.292 37.0042 429.507 37.3321 429.751C37.66 429.995 37.9508 430.26 38.2044 430.546C38.473 430.817 38.6471 431.078 38.7266 431.329L40.6208 437.805C40.5333 437.802 40.4453 437.814 40.3569 437.841C40.283 437.867 40.2019 437.894 40.1134 437.92C40.0401 437.933 39.9672 437.93 39.8947 437.913C39.8368 437.897 39.7945 437.852 39.7677 437.778L37.8602 431.717Z" fill="#88B1D5"/>
<path d="M41.5682 436.259C41.5949 435.428 41.8403 434.83 42.3046 434.465C42.7834 434.101 43.3947 433.931 44.1384 433.955C44.4301 433.964 44.6996 433.98 44.947 434.003C45.2091 434.026 45.4558 434.07 45.6873 434.136C45.9187 434.202 46.1419 434.296 46.3569 434.42C46.5865 434.544 46.8217 434.719 47.0626 434.946C47.064 434.902 47.0668 434.815 47.0711 434.684C47.0903 434.538 47.1025 434.385 47.1077 434.225C47.1128 434.065 47.1175 433.919 47.1217 433.788C47.1264 433.642 47.1297 433.54 47.1316 433.481C47.1254 433.218 47.1289 432.883 47.142 432.474C47.1556 432.051 47.1329 431.62 47.0741 431.18C47.0298 430.741 46.9119 430.321 46.7204 429.921C46.5434 429.521 46.2395 429.212 45.8086 428.994C45.5023 428.984 45.2163 429.026 44.9506 429.12C44.6848 429.213 44.4188 429.314 44.1526 429.423C43.8863 429.531 43.6203 429.632 43.3545 429.725C43.0892 429.804 42.8035 429.839 42.4972 429.829C42.5089 429.465 42.6279 429.169 42.8541 428.943C43.0954 428.703 43.3786 428.522 43.7036 428.401C44.0287 428.28 44.3669 428.203 44.7183 428.171C45.0697 428.138 45.3766 428.126 45.6391 428.134C45.9002 428.187 46.1392 428.245 46.356 428.311C46.5875 428.377 46.7952 428.5 46.9791 428.681C47.1777 428.863 47.3513 429.138 47.5 429.508C47.6638 429.864 47.7937 430.364 47.8897 431.009C48.0004 431.655 48.0835 432.475 48.1392 433.47C48.2099 434.45 48.2515 435.656 48.2639 437.087C48.287 437.277 48.216 437.443 48.0509 437.584C47.9008 437.71 47.6929 437.82 47.4272 437.914C47.1619 437.993 46.8603 438.064 46.5226 438.126C46.1999 438.174 45.8704 438.207 45.534 438.225C45.1977 438.244 44.8762 438.255 44.5695 438.26C44.2628 438.265 44.0073 438.264 43.8032 438.258C43.5407 438.249 43.2723 438.197 42.998 438.1C42.7384 438.004 42.4944 437.873 42.2663 437.705C42.0531 437.523 41.8774 437.313 41.7391 437.075C41.6158 436.823 41.5588 436.551 41.5682 436.259ZM44.461 434.819C43.7253 435 43.2069 435.231 42.9059 435.514C42.6054 435.781 42.4655 436.047 42.4862 436.31C42.5215 436.574 42.6888 436.82 42.988 437.049C43.2877 437.263 43.6551 437.413 44.0902 437.5C44.5259 437.573 45.001 437.551 45.5156 437.437C46.0307 437.307 46.5281 437.046 47.0078 436.652C46.8464 436.224 46.6817 435.897 46.5138 435.673C46.3463 435.434 46.1623 435.253 45.9619 435.13C45.7615 435.007 45.5378 434.927 45.2908 434.889C45.0438 434.852 44.7672 434.829 44.461 434.819Z" fill="#88B1D5"/>
<path d="M48.869 429.836C49.0463 429.769 49.1999 429.759 49.3297 429.807C49.4596 429.855 49.5664 429.939 49.6501 430.059C49.7339 430.178 49.795 430.319 49.8336 430.48C49.8727 430.628 49.9045 430.775 49.929 430.921C50.1288 430.607 50.4068 430.36 50.7629 430.182C51.134 429.989 51.5247 429.87 51.9349 429.825C52.3455 429.765 52.7543 429.764 53.1612 429.821C53.5686 429.863 53.9085 429.961 54.1809 430.116C54.4683 430.257 54.6664 430.453 54.7751 430.705C54.8843 430.942 54.8462 431.218 54.6609 431.533C54.2888 431.302 53.8934 431.114 53.4747 430.969C53.0706 430.825 52.671 430.769 52.2758 430.8C51.8807 430.831 51.5112 430.972 51.1674 431.224C50.824 431.461 50.534 431.853 50.2975 432.4C50.061 432.948 49.8988 433.679 49.811 434.596C49.7382 435.499 49.7675 436.631 49.899 437.993L49.0677 437.967C49.0677 437.967 49.0569 437.849 49.0352 437.615C49.0286 437.367 49.017 437.045 49.0005 436.651C48.9986 436.256 48.9834 435.818 48.9551 435.335C48.9414 434.853 48.928 434.364 48.9147 433.867C48.9015 433.37 48.8875 432.895 48.8729 432.442C48.8733 431.975 48.8643 431.573 48.8459 431.237C48.8473 431.193 48.8428 431.106 48.8324 430.974C48.8366 430.843 48.8411 430.704 48.8458 430.558C48.8509 430.398 48.8556 430.252 48.8598 430.121C48.864 429.99 48.8671 429.895 48.869 429.836Z" fill="#88B1D5"/>
<path d="M56.3923 430.121C56.5673 430.127 56.7133 430.124 56.8305 430.114C56.9622 430.103 57.0692 430.18 57.1516 430.343C57.1742 431 57.2037 431.673 57.2401 432.36C57.2769 433.033 57.3134 433.713 57.3497 434.4C57.3861 435.087 57.4003 435.781 57.3924 436.482C57.3995 437.168 57.3853 437.839 57.3496 438.495C57.3468 438.582 57.3233 438.633 57.2791 438.646C57.2344 438.674 57.1686 438.679 57.0815 438.661C57.0086 438.659 56.9141 438.649 56.7979 438.63C56.6958 438.627 56.5786 438.638 56.4465 438.663L56.3923 430.121ZM55.2493 426.165C55.2526 426.063 55.2634 425.954 55.2817 425.838C55.3005 425.707 55.3334 425.591 55.3805 425.491C55.4421 425.39 55.5105 425.305 55.5857 425.234C55.6756 425.164 55.7788 425.131 55.8955 425.135C56.0705 425.141 56.2453 425.153 56.4198 425.174C56.5943 425.194 56.7608 425.236 56.9194 425.299C57.0784 425.348 57.207 425.432 57.3054 425.552C57.4042 425.658 57.4503 425.812 57.4438 426.017C57.4325 426.367 57.2912 426.676 57.0198 426.945C56.7489 427.199 56.4239 427.32 56.0447 427.307C55.753 427.298 55.5451 427.182 55.4209 426.959C55.2971 426.722 55.2399 426.457 55.2493 426.165ZM56.5145 426.315C56.4707 426.314 56.4477 426.35 56.4454 426.423C56.443 426.495 56.4637 426.533 56.5075 426.534C56.5658 426.536 56.5961 426.5 56.5985 426.427C56.6008 426.355 56.5728 426.317 56.5145 426.315Z" fill="#88B1D5"/>
<path d="M58.2232 438.567C58.2015 438.332 58.1831 437.996 58.168 437.558C58.1679 437.105 58.1622 436.601 58.1509 436.046C58.1545 435.477 58.1589 434.886 58.164 434.273C58.1691 433.66 58.1732 433.076 58.1764 432.522C58.1796 431.967 58.1737 431.47 58.1586 431.032C58.1585 430.579 58.1403 430.236 58.1041 430.001C58.1046 429.987 58.0984 429.95 58.0857 429.891C58.0876 429.833 58.0824 429.767 58.0702 429.693C58.0725 429.621 58.0744 429.562 58.0758 429.518C58.0777 429.46 58.0791 429.416 58.08 429.387C58.3044 429.219 58.4885 429.167 58.6325 429.23C58.791 429.293 58.9181 429.429 59.0136 429.636C59.1096 429.829 59.1748 430.072 59.2091 430.365C59.2435 430.658 59.2633 430.951 59.2685 431.243C59.2883 431.535 59.2943 431.806 59.2863 432.053C59.2788 432.287 59.2734 432.455 59.2701 432.557C59.3073 432.31 59.3604 432.019 59.4295 431.686C59.4986 431.352 59.5971 431.012 59.725 430.666C59.8529 430.32 60.0024 429.982 60.1736 429.651C60.3598 429.307 60.5811 429.008 60.8375 428.753C61.0938 428.498 61.3774 428.303 61.6884 428.167C62.0139 428.032 62.3803 427.985 62.7877 428.027C63.4284 428.077 63.9478 428.269 64.3458 428.603C64.7584 428.937 65.0727 429.378 65.2887 429.925C65.5193 430.472 65.6743 431.098 65.7539 431.801C65.8481 432.505 65.8972 433.251 65.901 434.039C65.9195 434.828 65.9083 435.631 65.8675 436.447C65.8272 437.248 65.7951 438.021 65.7712 438.765C65.639 438.79 65.5061 438.836 65.3726 438.905C65.2394 438.959 65.1294 438.978 65.0423 438.96C64.9548 438.957 64.8911 438.897 64.8511 438.779C64.8261 438.647 64.8487 438.399 64.9187 438.037C64.9417 437.775 64.9765 437.374 65.023 436.836C65.0845 436.283 65.1188 435.671 65.1257 435C65.1473 434.329 65.133 433.635 65.0831 432.918C65.0331 432.201 64.9154 431.548 64.73 430.958C64.5596 430.354 64.298 429.864 63.9451 429.488C63.5927 429.097 63.1249 428.892 62.5415 428.873C61.9357 429.102 61.4176 429.553 60.9873 430.225C60.5715 430.898 60.225 431.689 59.9475 432.6C59.6847 433.511 59.4777 434.505 59.3263 435.58C59.1901 436.641 59.0983 437.682 59.0509 438.703C59.0222 438.687 58.9641 438.678 58.8766 438.675C58.8037 438.673 58.7162 438.67 58.6141 438.667C58.5271 438.649 58.4401 438.632 58.353 438.614C58.2806 438.598 58.2373 438.582 58.2232 438.567Z" fill="#88B1D5"/>
<path d="M66.461 437.057C66.4877 436.226 66.7332 435.628 67.1974 435.263C67.6763 434.899 68.2875 434.729 69.0313 434.753C69.3229 434.762 69.5925 434.778 69.8399 434.8C70.1019 434.823 70.3487 434.868 70.5801 434.934C70.8116 434.999 71.0348 435.094 71.2498 435.218C71.4794 435.342 71.7146 435.517 71.9555 435.744C71.9569 435.7 71.9597 435.613 71.9639 435.482C71.9832 435.336 71.9954 435.183 72.0005 435.023C72.0057 434.863 72.0104 434.717 72.0146 434.585C72.0193 434.44 72.0226 434.338 72.0244 434.279C72.0183 434.016 72.0217 433.681 72.0349 433.272C72.0484 432.849 72.0258 432.418 71.9669 431.978C71.9226 431.539 71.8047 431.119 71.6132 430.719C71.4363 430.319 71.1324 430.01 70.7014 429.792C70.3952 429.782 70.1092 429.824 69.8434 429.918C69.5777 430.011 69.3117 430.112 69.0454 430.22C68.7792 430.329 68.5132 430.43 68.2474 430.523C67.9821 430.602 67.6963 430.637 67.3901 430.627C67.4018 430.263 67.5208 429.967 67.747 429.741C67.9883 429.5 68.2715 429.32 68.5965 429.199C68.9215 429.078 69.2597 429.001 69.6111 428.969C69.9625 428.936 70.2695 428.924 70.532 428.932C70.793 428.985 71.032 429.043 71.2489 429.109C71.4803 429.174 71.6881 429.298 71.872 429.479C72.0705 429.66 72.2442 429.936 72.3929 430.306C72.5566 430.661 72.6865 431.162 72.7826 431.807C72.8932 432.453 72.9764 433.273 73.032 434.268C73.1027 435.248 73.1443 436.454 73.1568 437.885C73.1798 438.075 73.1088 438.241 72.9437 438.381C72.7937 438.508 72.5858 438.618 72.32 438.712C72.0547 438.791 71.7532 438.862 71.4155 438.924C71.0928 438.972 70.7632 439.005 70.4269 439.023C70.0906 439.042 69.769 439.053 69.4623 439.058C69.1556 439.063 68.9002 439.062 68.696 439.055C68.4335 439.047 68.1652 438.995 67.8909 438.898C67.6312 438.802 67.3873 438.67 67.1591 438.503C66.946 438.321 66.7703 438.111 66.6319 437.873C66.5086 437.62 66.4517 437.349 66.461 437.057ZM69.3539 435.617C68.6182 435.798 68.0998 436.029 67.7988 436.312C67.4982 436.579 67.3583 436.845 67.3791 437.108C67.4144 437.372 67.5817 437.618 67.8809 437.847C68.1806 438.061 68.548 438.211 68.9831 438.298C69.4187 438.371 69.8938 438.349 70.4084 438.235C70.9235 438.105 71.4209 437.844 71.9007 437.45C71.7393 437.022 71.5746 436.695 71.4066 436.471C71.2391 436.232 71.0552 436.051 70.8548 435.928C70.6543 435.805 70.4307 435.724 70.1837 435.687C69.9367 435.65 69.6601 435.627 69.3539 435.617Z" fill="#88B1D5"/>
</g>
<g id="draw/arrow_2">
<path id="Vector 42" d="M73.1974 419.856C73.9646 415.896 78.5677 407.669 90.8428 406.442" stroke="#88B1D5"/>
<path id="Vector 303_2" d="M88.9154 408.582L91.3064 406.483L88.9603 404.183" stroke="#88B1D5" stroke-linecap="round"/>
</g>
<path id="draw:reverse/mask_2" d="M32.6478 421.953L32.4502 438.331C32.4949 436.115 32.7551 430.614 33.4534 430.077C34.1517 429.54 38.3318 424.184 40.1669 421.834L34.8634 429.405C35.8705 429.204 38.0056 429.513 38.489 432.36C38.9724 435.206 39.8542 437.171 40.2346 437.798C41.0851 435.873 43.5648 432.655 46.6802 435.18L42.8531 429.741C43.0769 429.338 43.9274 428.546 45.5388 428.6C47.553 428.667 47.553 431.285 47.553 432.628C47.553 433.702 47.5978 436.254 47.6202 437.395C45.785 437.932 42.1012 438.362 42.0474 435.784C41.846 439.342 43.0411 444.727 49.433 437.798L49.1686 429.386L49.8358 431.957C50.6415 430.838 52.7094 429.083 54.5357 431.017C56.3619 432.95 56.7306 437.424 56.7083 439.08L56.7513 430.413C56.1471 428.824 55.0997 425.619 55.7442 425.511C56.5499 425.377 57.4899 426.116 56.8856 426.653C56.4022 427.082 57.7137 428.891 58.4299 429.741L58.6283 439.127C58.9416 435.86 59.9607 428.519 61.7869 428.734C64.0697 429.003 65.0768 428.801 65.3454 432.561C65.5602 435.569 65.3006 437.753 65.144 438.469L66.9568 437.127C67.0911 437.977 68.2459 439.396 71.7909 438.268C72.0371 438.156 72.5563 437.744 72.6638 436.992C72.798 436.052 72.7309 430.413 71.4552 429.875C70.1795 429.338 69.1053 429.003 67.8967 430.48L67.0911 436.59C67.6506 435.426 69.4141 433.796 71.9923 436.59" stroke="#1E1E1E" stroke-width="4" stroke-linecap="round"/>
</g>
</g>
</svg>
