<svg width="360" height="300" viewBox="0 0 360 300" fill="none" xmlns="http://www.w3.org/2000/svg">
    <g id="[export] illustration_3">
        <g id="Group">
            <path id="Vector" d="M322.031 248.163C321.375 246.632 320.5 245.32 319.407 244.008C318.751 243.133 317.439 242.477 316.564 243.133C315.908 243.571 315.908 244.445 315.908 245.32C315.908 246.195 315.908 247.069 316.127 247.944C316.564 248.819 317.22 249.475 318.095 249.475C317.657 247.944 317.22 246.413 316.127 245.32C315.033 244.227 313.284 243.789 311.972 244.664C310.441 245.757 310.66 247.944 310.879 249.694C310.879 250.131 311.097 250.568 311.535 250.787C311.972 251.006 312.628 250.787 312.847 250.131C313.065 249.475 312.847 249.038 312.628 248.6C311.753 246.195 308.911 244.664 306.505 245.32C304.1 246.195 303.007 249.475 304.756 251.443C304.975 251.662 305.412 251.88 305.631 251.88C306.287 251.88 306.943 251.443 306.943 250.568C307.161 249.912 306.724 249.256 306.505 248.6C305.631 247.069 304.1 245.757 302.35 245.32C300.601 245.101 298.633 246.195 297.977 247.944C297.321 249.694 297.977 251.88 299.289 252.974C299.726 250.787 298.852 248.382 297.102 247.069C295.353 245.757 292.51 245.976 291.198 247.726C289.886 249.475 290.761 252.536 292.948 252.974C292.948 251.224 292.729 249.475 291.854 248.163C290.98 246.632 289.449 245.539 287.7 245.757C285.294 245.976 283.764 248.163 283.108 250.35C282.889 251.224 282.452 252.099 282.889 252.755C283.108 253.63 284.201 254.067 284.857 253.411C285.076 253.192 285.076 252.974 285.294 252.536C285.732 250.35 285.076 248.163 283.326 246.851C281.577 245.539 278.953 245.757 277.422 247.069C275.891 248.6 275.891 251.443 277.422 252.755C278.734 250.568 278.078 247.288 275.891 245.757C273.705 244.227 270.643 244.664 268.894 246.632C267.145 248.6 267.363 251.88 269.331 253.63C270.643 251.88 270.206 249.038 268.675 247.726C266.926 246.195 264.083 246.413 262.553 247.944C261.022 249.475 261.022 252.318 262.334 254.067C262.553 254.504 262.99 254.723 263.646 254.504C264.083 254.286 264.302 253.63 264.302 253.192C264.302 251.443 262.99 249.912 261.459 249.038C259.929 248.163 258.179 247.944 256.43 247.726" stroke="white" stroke-miterlimit="10" stroke-linecap="round" stroke-linejoin="round"/>
            <path id="Vector_2" d="M239.594 253.411C238.063 254.941 237.407 257.128 238.063 259.096C238.063 259.315 238.282 259.752 238.5 259.971C238.938 260.19 239.156 259.752 239.375 259.534C239.594 259.315 239.375 258.878 239.375 258.44C238.938 256.254 237.407 254.285 235.439 253.192C234.783 252.755 233.908 252.536 233.034 252.536C231.503 252.755 230.41 254.067 229.754 255.597C229.316 256.691 229.098 257.784 229.535 258.659C229.972 259.752 231.066 260.408 232.159 259.971C232.378 259.096 231.94 258.003 231.284 257.347C230.628 256.691 229.754 256.035 229.098 255.597C227.348 254.504 225.162 253.629 223.412 254.504" stroke="white" stroke-miterlimit="10" stroke-linecap="round" stroke-linejoin="round"/>
            <path id="Vector_3" d="M208.323 195.463C210.073 201.805 210.729 208.146 211.822 214.706C212.697 220.391 213.79 226.077 214.883 231.544" stroke="white" stroke-miterlimit="10" stroke-linecap="round" stroke-linejoin="round"/>
            <path id="Vector_4" d="M324.875 240.947C325.531 251.005 327.936 260.845 327.936 271.123C327.936 273.31 327.718 275.715 327.062 277.902C326.406 280.088 325.094 281.838 323.782 283.806C321.814 286.648 319.846 289.491 316.784 291.022C315.472 291.678 313.723 292.115 313.504 293.646C313.067 295.177 314.598 296.489 316.128 296.926C317.659 297.363 319.19 297.363 320.502 297.801C321.158 298.019 321.814 298.457 322.47 298.894C324.875 299.769 327.28 298.019 329.03 296.27C332.966 292.553 336.683 287.96 341.931 286.211C342.369 285.992 342.806 285.992 343.025 285.774C343.243 285.555 343.462 285.118 343.681 284.68C344.337 281.838 342.369 279.214 341.494 276.371C340.182 271.56 340.182 266.75 340.619 261.72C341.057 256.909 341.931 253.629 342.369 248.819" stroke="white" stroke-miterlimit="10" stroke-linecap="round" stroke-linejoin="round"/>
            <path id="Vector_5" d="M338.432 237.01C339.525 238.323 340.181 239.416 340.618 240.291C342.368 244.883 342.805 248.163 342.805 248.163C342.805 248.163 330.559 240.291 321.594 240.072C312.629 239.853 288.575 224.984 288.575 224.984C288.575 224.984 280.703 219.954 270.207 213.394L266.708 215.362C266.708 215.362 255.337 220.61 244.841 219.298L244.622 219.517C244.622 219.517 259.71 239.853 258.398 257.347C257.086 274.84 260.585 276.808 260.585 276.808C260.585 276.808 243.748 267.624 240.686 254.941C237.844 242.259 234.345 235.48 235.438 226.514L235.657 225.858C235.438 226.733 235.219 227.389 234.782 228.264C233.689 230.669 232.377 232.856 230.846 234.824C226.254 241.603 221.006 248.819 213.134 251.443C212.697 237.448 216.851 221.485 225.598 210.551C225.598 210.551 207.448 196.775 206.355 189.778C206.355 189.778 206.574 189.122 206.792 188.903C215.102 183.655 224.505 178.188 224.505 178.188C224.505 178.188 227.347 176.876 230.627 175.346L231.939 176.22C231.939 176.22 249.652 180.812 269.113 186.061V185.842C269.113 185.842 312.629 152.823 324.874 150.199C324.874 150.199 336.026 142.108 343.898 142.545C351.77 142.983 351.333 140.796 351.333 140.796C351.333 140.796 353.082 142.764 353.738 146.7C354.394 150.636 356.581 162.444 354.613 172.722C352.426 182.999 351.77 200.711 356.581 208.146C361.392 215.581 358.986 231.544 347.834 233.949C336.245 236.792 338.213 237.01 338.432 237.01Z" fill="white"/>
            <path id="Vector_6" d="M151.906 59.888C145.783 51.7972 140.973 56.1706 142.503 65.136C143.815 74.1015 154.967 76.7255 154.967 76.7255C154.967 76.7255 157.373 83.5043 159.559 87.8777C161.746 92.251 172.242 94.4378 183.394 97.0618C194.547 99.6858 199.795 93.7817 201.544 91.3764C203.293 88.971 205.261 82.1922 207.011 75.8508C209.635 67.3227 210.072 59.6693 208.979 56.8266C208.104 53.7652 207.667 43.9251 207.667 43.9251C207.448 39.333 203.949 38.2397 201.544 41.0824C199.139 43.9251 191.923 44.1437 187.768 42.6131C183.613 40.8637 185.8 39.7704 179.896 41.301C173.992 43.0504 168.744 38.4583 168.744 38.4583C169.4 50.2665 182.301 44.5811 182.301 44.5811C182.301 44.5811 179.24 49.8292 172.242 50.2665C162.183 50.9225 163.933 38.021 163.933 38.021C163.933 38.021 161.309 40.8637 162.839 48.9545C164.37 57.0453 154.967 66.0107 154.967 66.0107C154.967 66.0107 154.53 63.168 151.906 59.888Z" stroke="white" stroke-miterlimit="10" stroke-linecap="round" stroke-linejoin="round"/>
            <path id="Vector_7" d="M207.667 44.7997C207.667 44.7997 213.353 49.8291 212.478 53.9839C212.478 53.9839 217.289 47.8611 213.353 41.5197C213.353 41.5197 216.195 41.5197 217.507 44.5811C217.507 44.5811 218.163 37.8023 215.102 35.1783C215.102 35.1783 215.102 35.1783 214.883 34.9596C214.883 34.9596 213.79 33.4289 216.195 34.0849C216.195 34.0849 217.07 27.3062 215.758 26.6502C215.758 26.6502 210.729 21.8394 209.417 18.9967C204.606 7.84457 194.547 7.18857 189.736 6.9699C184.926 6.75123 181.864 -0.0275301 166.339 0.847148C150.813 1.72183 148.189 11.7806 148.189 11.7806C148.189 11.7806 135.725 6.75123 132.226 27.9622C131.133 34.9596 140.754 56.6079 142.066 59.0133" stroke="white" stroke-miterlimit="10" stroke-linecap="round" stroke-linejoin="round"/>
            <path id="Vector_8" d="M180.771 61.4185C180.334 61.4185 180.115 61.4185 179.678 61.4185C176.835 61.6371 171.587 65.1358 170.494 65.3545" stroke="white" stroke-miterlimit="10" stroke-linecap="round" stroke-linejoin="round"/>
            <path id="Vector_9" d="M191.486 60.7625C191.486 60.7625 184.27 61.1998 180.771 61.4185" stroke="white" stroke-miterlimit="10" stroke-linecap="round" stroke-linejoin="round"/>
            <path id="Vector_10" d="M189.081 65.7922C189.081 65.7922 186.894 69.291 182.958 68.6349C179.24 67.9789 177.491 67.3229 176.179 67.5416" stroke="white" stroke-miterlimit="10" stroke-linecap="round" stroke-linejoin="round"/>
            <path id="Vector_11" d="M206.355 55.0774C206.355 55.0774 205.043 55.0774 203.294 55.7334C201.544 56.3894 198.92 60.7628 199.139 61.8562C199.139 62.9495 202.638 74.1017 203.075 75.4137C203.512 76.7257 203.512 78.0377 202.638 79.131C201.544 80.2244 199.795 80.2244 198.264 79.5684C196.515 78.9124 192.797 81.0991 191.704 79.7871C190.392 78.6937 190.173 74.1017 195.203 74.1017" stroke="white" stroke-miterlimit="10" stroke-linecap="round" stroke-linejoin="round"/>
            <path id="Vector_12" d="M153.219 68.8537C153.219 68.8537 149.72 68.4164 150.376 63.6056C150.595 61.6376 145.128 56.3895 144.691 59.8883C144.253 63.387 144.253 65.7923 145.347 66.8857" stroke="white" stroke-miterlimit="10" stroke-linecap="round" stroke-linejoin="round"/>
            <path id="Vector_13" d="M184.925 97.499C184.925 97.499 179.896 97.7177 181.645 107.12" stroke="white" stroke-miterlimit="10" stroke-linecap="round" stroke-linejoin="round"/>
            <path id="Vector_14" d="M140.755 88.0963C144.253 87.6589 149.501 89.1896 151.032 87.6589C154.749 83.7228 150.376 74.9761 150.376 74.9761" stroke="white" stroke-miterlimit="10" stroke-linecap="round" stroke-linejoin="round"/>
            <path id="Vector_15" d="M132.445 147.574C132.445 147.574 116.045 121.771 106.423 122.209C96.8017 122.865 96.3643 123.958 96.3643 123.958C99.207 115.649 105.33 108.651 112.327 102.747" stroke="white" stroke-miterlimit="10" stroke-linecap="round" stroke-linejoin="round"/>
            <path id="Vector_16" d="M177.928 125.926L176.179 111.494C176.179 111.494 152.344 106.902 147.314 88.0962" stroke="white" stroke-miterlimit="10" stroke-linecap="round" stroke-linejoin="round"/>
            <path id="Vector_17" d="M96.1463 123.958C96.1463 123.958 95.709 208.583 122.168 229.794C124.792 231.981 126.323 233.73 136.819 232.856" stroke="white" stroke-miterlimit="10" stroke-linecap="round" stroke-linejoin="round"/>
            <path id="Vector_18" d="M135.287 159.383C135.287 159.383 142.066 191.309 141.629 193.933" stroke="white" stroke-miterlimit="10" stroke-linecap="round" stroke-linejoin="round"/>
            <path id="Vector_19" d="M137.037 220.829C137.037 220.829 140.098 231.325 147.752 234.168C147.752 234.168 143.816 237.448 139.88 235.48C135.943 233.512 125.885 224.984 130.477 205.085C130.477 205.085 130.258 199.837 138.349 197.213C146.44 194.589 151.032 195.026 151.032 195.026C151.032 195.026 143.378 204.429 147.096 214.925C150.594 225.202 155.624 229.794 161.528 225.421C161.528 225.421 155.624 232.856 147.096 233.949" stroke="white" stroke-miterlimit="10" stroke-linecap="round" stroke-linejoin="round"/>
            <path id="Vector_20" d="M151.032 195.244C167.87 192.402 182.302 181.905 185.363 177.969C188.425 174.033 186.457 172.721 187.331 165.724C188.206 158.726 196.953 146.044 201.326 144.076C205.7 142.108 206.793 138.172 209.198 137.953C211.604 137.734 213.353 139.921 211.822 144.95C210.292 149.98 204.169 154.572 204.169 154.572C204.169 154.572 213.79 150.854 218.164 145.388C222.537 139.921 226.473 130.518 227.567 130.081C228.66 129.643 231.94 129.206 231.94 132.267C231.94 135.329 224.943 151.948 222.537 154.353" stroke="white" stroke-miterlimit="10" stroke-linecap="round" stroke-linejoin="round"/>
            <path id="Vector_21" d="M223.848 152.823C228.003 151.948 247.246 140.796 247.246 140.796C247.246 140.796 250.963 139.046 250.963 142.764C250.963 146.481 236.094 158.945 229.752 162.444" stroke="white" stroke-miterlimit="10" stroke-linecap="round" stroke-linejoin="round"/>
            <path id="Vector_22" d="M228.658 170.535C228.658 170.535 241.997 165.506 246.371 161.351C254.461 153.479 256.867 153.479 252.275 151.073C249.213 149.324 245.277 154.572 237.187 157.196" stroke="white" stroke-miterlimit="10" stroke-linecap="round" stroke-linejoin="round"/>
            <path id="Vector_23" d="M206.355 59.6694C205.918 60.1068 205.699 60.5441 205.262 60.9814C204.168 62.2935 202.419 62.5121 200.67 62.7308C200.232 62.7308 199.795 62.7308 199.795 63.1681" stroke="white" stroke-miterlimit="10" stroke-linecap="round" stroke-linejoin="round"/>
            <path id="Vector_24" d="M187.769 67.104C187.988 67.3227 187.988 67.5414 188.207 67.5414C187.988 67.5414 187.551 67.3227 187.332 67.3227C187.332 67.76 187.551 67.9787 187.769 68.1974C187.551 68.1974 187.332 67.9787 187.113 67.9787C186.895 67.76 186.457 67.76 186.457 67.9787C186.239 68.416 186.895 68.6347 186.895 69.072C186.676 68.6347 186.239 68.1974 185.582 68.1974H185.364C185.145 68.1974 185.145 68.416 185.145 68.6347C185.145 68.8534 185.145 69.2907 185.145 69.5094C184.926 69.2907 184.708 69.072 184.489 68.8534C184.489 68.8534 184.27 68.6347 184.052 68.6347C183.833 68.6347 183.614 68.8534 183.833 69.2907C183.833 69.5094 184.052 69.728 184.052 69.9467C183.614 69.728 183.396 69.2907 183.177 69.072C182.958 68.8534 182.302 68.6347 182.084 68.8534C182.084 69.2907 182.302 69.728 182.302 69.9467C182.084 69.5094 182.084 69.2907 181.865 68.8534C181.865 68.8534 181.865 68.6347 181.646 68.6347C181.428 68.416 181.209 68.6347 180.99 68.6347C180.772 68.8534 180.772 69.072 180.772 69.2907C180.772 68.8534 180.772 68.6347 180.553 68.416C180.334 68.1974 179.678 68.416 179.897 68.8534" stroke="white" stroke-miterlimit="10" stroke-linecap="round" stroke-linejoin="round"/>
            <path id="Vector_25" d="M205.48 60.5439C205.699 60.7626 205.918 61.2 206.136 61.4186C205.918 61.4186 205.699 61.2 205.262 61.2C205.043 61.4186 205.043 61.6373 205.262 61.6373C205.262 61.856 205.48 61.856 205.699 62.0746C205.48 62.0746 205.262 61.856 204.824 61.856H204.606C204.387 61.856 204.606 62.0746 204.606 62.2933C204.606 62.512 204.824 62.7307 204.824 62.9493C204.606 62.7307 204.168 62.512 203.731 62.2933C203.512 62.2933 203.512 62.2933 203.294 62.2933V62.512C203.294 62.7306 203.512 62.9493 203.512 63.168C203.294 62.9493 203.075 62.7306 202.856 62.7306C202.638 62.512 202.419 62.512 202.2 62.7306C201.982 62.9493 201.982 63.168 201.982 63.6053C201.763 63.3867 201.325 63.168 200.888 63.168" stroke="white" stroke-miterlimit="10" stroke-linecap="round" stroke-linejoin="round"/>
            <path id="Vector_26" d="M183.176 98.1555C183.176 98.1555 185.363 107.558 182.52 109.964L187.987 128.769" stroke="white" stroke-miterlimit="10" stroke-linecap="round" stroke-linejoin="round"/>
            <path id="Vector_27" d="M104.673 195.244C104.673 195.244 100.519 238.76 98.9879 249.693" stroke="white" stroke-miterlimit="10" stroke-linecap="round" stroke-linejoin="round"/>
            <path id="Vector_28" d="M184.051 206.834C184.051 206.834 186.893 263.251 187.768 270.686" stroke="white" stroke-miterlimit="10" stroke-linecap="round" stroke-linejoin="round"/>
            <path id="Vector_29" d="M217.289 28.6185C217.289 28.6185 228.878 24.6825 241.342 30.3679C253.588 36.272 258.18 58.1389 257.305 62.9497C257.305 62.9497 263.647 65.7924 262.116 72.1338C260.585 78.4752 256.868 88.3154 256.868 88.3154C256.868 88.3154 255.337 92.0327 251.401 93.1261" stroke="white" stroke-miterlimit="10" stroke-linecap="round" stroke-linejoin="round"/>
            <path id="Vector_30" d="M209.55 58.6794C209.55 58.6794 218.819 67.5411 227.566 69.5091C236.312 71.2585 230.846 80.88 234.126 82.848C237.406 84.816 241.779 85.9094 240.249 90.9388C240.249 90.9388 244.185 83.9413 240.467 81.7546C236.968 79.5679 244.622 74.1012 244.622 74.1012C244.622 74.1012 247.027 67.3224 251.619 68.1971C256.211 69.0718 257.523 78.2559 254.243 82.848C250.963 87.44 253.369 90.9388 249.651 91.5948C249.651 91.5948 252.713 102.31 254.462 104.059" stroke="white" stroke-miterlimit="10" stroke-linecap="round" stroke-linejoin="round"/>
            <path id="Vector_31" d="M247.246 78.2563C247.246 78.2563 247.902 70.8215 250.963 72.1335C254.024 73.4455 252.494 78.6936 252.494 78.6936" stroke="white" stroke-miterlimit="10" stroke-linecap="round" stroke-linejoin="round"/>
            <path id="Vector_32" d="M246.59 34.085C246.59 34.085 263.647 32.773 266.271 44.3625C268.895 55.952 257.743 58.576 257.743 58.576" stroke="white" stroke-miterlimit="10" stroke-linecap="round" stroke-linejoin="round"/>
            <path id="Vector_33" d="M224.067 78.912C224.067 78.912 215.757 76.9439 214.008 76.9439C212.259 76.9439 210.072 78.6933 208.979 78.256C207.885 78.0373 207.885 76.5066 207.885 76.5066" stroke="white" stroke-miterlimit="10" stroke-linecap="round" stroke-linejoin="round"/>
            <path id="Vector_34" d="M209.935 83.3384C209.935 83.3384 210.911 85.2891 213.837 85.2891C216.763 85.0941 219.104 84.7039 219.884 84.7039" stroke="white" stroke-miterlimit="10" stroke-linecap="round" stroke-linejoin="round"/>
            <path id="Vector_35" d="M210.326 84.1189C210.131 84.7041 209.545 85.2893 208.765 85.6795C209.545 85.4844 210.131 85.0943 210.521 84.509C210.716 84.7041 210.521 85.0943 210.326 85.4844C209.935 86.0697 209.524 86.3475 208.57 87.0451C209.35 86.4598 209.41 86.5637 211.075 84.7962C211.27 85.5765 210.716 86.85 209.935 87.4352C210.326 87.2401 210.716 86.85 210.911 86.2647C211.106 86.0697 211.224 85.5508 211.419 85.3557C211.614 84.9655 211.691 85.2894 211.886 85.2894C212.081 86.0697 211.886 87.0451 211.301 87.8254C211.496 87.2401 211.886 86.6549 212.081 86.0697C212.276 85.8746 212.249 85.3684 212.639 85.3684C212.834 86.1487 212.862 87.0451 212.862 87.8254C212.862 87.0451 212.652 85.9918 213.237 85.4066L213.837 85.4844C214.032 85.4844 214.14 85.6438 214.14 85.8389C214.14 86.4241 214.227 86.85 214.227 87.4352C214.227 87.045 214.227 86.85 214.227 86.4598C214.227 86.0697 214.195 85.6652 214.585 85.4701L215.144 85.4447C215.144 85.4447 215.051 85.7753 215.246 85.7753C215.441 86.1655 215.31 86.64 215.593 87.2401C215.398 86.85 215.369 86.14 215.564 85.7499C215.564 85.5548 215.788 85.4844 215.983 85.4844C215.983 85.4844 216.178 85.4844 216.178 85.6795C216.34 86.0296 216.492 86.0932 216.763 86.2647" stroke="white" stroke-miterlimit="10" stroke-linecap="round" stroke-linejoin="round"/>
            <path id="Vector_36" d="M219.257 86.3467C221.444 86.128 223.849 86.3467 226.036 87.4401" stroke="white" stroke-miterlimit="10" stroke-linecap="round" stroke-linejoin="round"/>
            <path id="Vector 75" d="M219.483 82.8006C220.355 82.6234 222.311 82.0484 223.162 81.1655" stroke="white" stroke-linecap="round"/>
            <path id="Vector_37" d="M247.221 62.5695C246.563 61.458 245.906 60.3466 245.249 59.2351C244.592 58.1236 243.716 56.7898 242.62 56.1229C241.963 55.9006 241.087 55.6783 240.43 55.6783C238.459 55.6783 236.487 55.6783 234.735 56.5675C232.982 57.4567 231.668 59.0128 231.668 61.0135C229.039 60.3466 226.411 59.6797 224.001 58.7905L223.782 57.4567C223.125 52.7884 220.496 48.3425 216.992 45.6749C216.773 45.4526 216.334 45.2303 216.115 45.4526L215.02 45.6749C214.801 44.1188 214.582 42.5627 213.487 41.0067C213.487 41.0067 216.334 41.0067 217.649 44.1188C217.649 44.1188 217.868 42.3405 217.43 40.1175H218.087C219.401 40.3398 222.249 37.4499 222.468 36.1161L220.496 34.1154L220.277 34.3377C220.496 36.1161 218.087 37.0053 217.43 37.4499L216.773 37.6722C216.334 36.5607 215.896 35.4492 215.02 34.7823C215.02 34.7823 215.02 34.7823 214.801 34.56C214.801 34.56 213.706 33.004 216.115 33.6708C216.115 33.6708 216.334 32.7817 216.334 31.6702H216.773C226.192 35.8938 227.287 44.7857 234.297 49.454C239.335 53.0107 244.592 56.3452 250.068 59.4574C252.259 60.7912 254.449 61.9026 256.859 62.5695L258.392 63.9033C254.887 63.9033 251.163 63.681 247.659 63.4587L247.221 62.5695ZM235.83 50.7878C234.297 51.677 232.544 51.8992 230.792 51.2324C229.039 50.5655 227.725 49.454 226.849 48.1202C226.411 47.0087 225.315 44.7857 227.506 42.785L226.192 40.5621C222.906 43.6742 223.782 46.7864 224.439 48.5648C225.096 50.3432 226.411 51.8992 227.944 53.233C228.382 53.6776 228.82 54.1222 229.258 54.3445C229.916 54.5668 230.573 54.7891 231.449 54.7891C233.639 54.7891 235.611 54.1222 237.363 52.7884L238.02 51.8992L235.83 50.7878Z" fill="white"/>
            <path id="Vector 76" d="M208.496 51.3547C209.676 52.0219 212.166 53.3992 212.683 53.5716" stroke="white" stroke-linecap="round"/>
            <path id="Vector_38" d="M239.629 59.3155C241.162 59.7601 242.477 60.6493 243.134 61.9831V63.0946C240.067 62.65 237 62.2054 233.934 61.5385L234.372 61.0939C234.81 60.8716 235.029 60.427 235.467 60.2047C236.781 59.3155 238.315 59.0932 239.629 59.3155Z" fill="white"/>
            <path id="Vector_39" d="M214.875 48.6448L215.532 48.8671C218.161 50.6455 220.352 53.5353 221.228 56.8698L221.447 57.759C218.599 56.6475 215.971 55.3137 213.342 53.7576L212.904 53.0907C213.561 52.4238 214.437 50.8678 214.875 48.6448Z" fill="white"/>
            <path id="Vector_40" d="M203.294 87.4404C203.294 87.4404 203.732 92.0325 202.638 93.3445C201.545 94.6565 201.982 98.1552 202.857 98.5926C203.732 99.0299 206.356 99.4673 207.23 99.4673C208.105 99.4673 208.761 97.4992 210.948 97.7179C213.134 97.9366 216.852 95.9685 215.321 94.0005" stroke="white" stroke-miterlimit="10" stroke-linecap="round" stroke-linejoin="round"/>
            <path id="Vector_41" d="M215.321 94.4377C215.321 94.4377 216.196 96.6244 219.476 97.7178C221.444 98.3738 224.505 99.0298 224.724 101.654C224.942 104.278 224.068 106.246 226.036 109.745" stroke="white" stroke-miterlimit="10" stroke-linecap="round" stroke-linejoin="round"/>
            <path id="Vector_42" d="M199.14 93.7817C199.14 93.7817 198.484 101.435 200.452 104.497C202.42 107.558 207.887 111.931 208.543 116.523C209.199 121.115 215.54 121.115 215.54 121.115" stroke="white" stroke-miterlimit="10" stroke-linecap="round" stroke-linejoin="round"/>
            <path id="Vector_43" d="M207.449 104.934C207.886 106.902 214.446 107.777 217.508 106.246" stroke="white" stroke-miterlimit="10" stroke-linecap="round" stroke-linejoin="round"/>
            <path id="Vector_44" d="M219.694 107.558C219.694 107.558 215.54 110.838 211.822 110.182C208.105 109.526 206.793 107.777 206.574 106.465C206.355 105.153 207.449 105.153 207.449 105.153C206.137 104.934 205.481 103.841 205.481 103.841C206.355 104.278 207.449 103.841 208.542 103.841C209.198 103.841 209.854 104.278 210.51 104.278C210.948 104.278 211.385 104.278 211.822 104.059C212.916 104.059 213.79 104.278 214.884 104.497C216.196 104.715 217.508 104.934 218.82 104.715" stroke="white" stroke-miterlimit="10" stroke-linecap="round" stroke-linejoin="round"/>
            <path id="Vector_45" d="M202.856 99.0295C202.856 99.0295 201.107 100.998 202.2 102.31" stroke="white" stroke-miterlimit="10" stroke-linecap="round" stroke-linejoin="round"/>
            <path id="Vector_46" d="M198.047 145.607C198.047 143.638 195.204 129.862 195.204 129.862C195.204 129.862 199.359 128.332 205.7 125.052C212.042 121.99 238.938 114.993 238.938 114.993C238.938 114.993 247.685 103.403 260.805 102.747C273.706 102.091 291.419 102.966 300.384 115.43C309.35 127.894 310.443 156.103 310.443 156.103" stroke="white" stroke-miterlimit="10" stroke-linecap="round" stroke-linejoin="round"/>
            <path id="Vector_47" d="M301.914 146.262C301.914 146.262 286.389 155.884 276.548 159.164C264.522 163.1 245.06 165.943 245.06 165.943" stroke="white" stroke-miterlimit="10" stroke-linecap="round" stroke-linejoin="round"/>
            <path id="Vector_48" d="M195.204 130.518C195.204 130.518 160.654 123.521 151.032 111.057C141.411 98.3738 141.63 92.4697 140.536 87.659C139.443 82.8482 136.381 79.7869 133.757 79.7869C131.133 79.7869 128.509 81.0989 128.509 81.0989C128.509 81.0989 123.917 78.0375 120.637 83.2856C120.637 83.2856 118.669 82.1922 116.264 83.0669C113.858 83.9416 114.296 87.2216 114.296 87.2216C114.296 87.2216 112.328 86.7843 111.234 87.4403C110.141 88.0963 108.392 90.5017 109.922 92.4697C109.922 92.4697 105.549 94.4377 106.642 97.4991C107.736 100.342 118.888 106.683 124.136 109.526C135.507 116.305 144.91 137.516 161.091 148.012C177.054 158.289 188.644 162.225 188.644 162.225" stroke="white" stroke-miterlimit="10" stroke-linecap="round" stroke-linejoin="round"/>
            <path id="Vector_49" d="M182.083 181.25C182.083 181.25 180.989 163.975 179.458 158.29" stroke="white" stroke-miterlimit="10" stroke-linecap="round" stroke-linejoin="round"/>
            <path id="Vector_50" d="M244.403 100.561C244.403 100.561 234.782 114.118 225.16 118.71" stroke="white" stroke-miterlimit="10" stroke-linecap="round" stroke-linejoin="round"/>
            <path id="Vector_51" d="M310.223 107.558C311.535 98.811 315.253 87.2215 322.906 84.3788C330.56 81.5361 342.805 81.7548 353.301 89.8456C363.797 97.9363 356.581 113.899 356.581 113.899C354.832 118.273 352.427 122.209 349.584 125.926C351.771 123.083 352.864 119.147 352.208 115.43C351.771 113.681 351.115 111.931 351.115 110.182C350.896 108.651 351.333 107.12 351.115 105.59C350.896 104.059 350.24 102.528 348.928 101.872C349.584 103.84 348.928 106.464 347.179 107.558C347.835 106.683 347.397 105.371 346.523 104.496C345.648 103.622 344.773 103.184 343.68 102.747C342.586 102.091 341.493 101.216 340.618 100.342C341.274 102.528 340.837 104.715 339.744 106.683C339.525 105.371 339.306 103.84 338.65 102.747C337.994 101.654 336.901 100.56 335.37 100.342C334.933 102.528 334.933 104.934 335.37 107.12C332.528 105.808 330.341 103.403 329.685 100.342C328.81 101.435 328.154 102.528 327.717 103.84C327.28 105.152 327.498 106.683 328.592 107.776C326.186 106.683 324.218 104.278 323.344 101.654C322.688 99.6857 322.906 97.7177 322.469 95.7497C322.032 93.7816 321.376 91.8136 319.626 90.7203C319.626 90.7203 318.97 92.9069 316.127 95.3123C312.629 98.155 310.223 107.558 310.223 107.558Z" fill="white"/>
            <path id="Vector_52" d="M345.867 133.798C343.899 138.609 335.589 143.638 332.965 143.857C330.341 144.076 325.968 146.481 323.562 146.044C321.157 145.606 316.128 144.513 315.69 142.982C315.034 141.452 309.13 135.766 308.693 132.486C308.256 129.206 308.912 115.211 309.349 113.899C309.568 112.587 310.442 107.558 310.442 107.558" stroke="white" stroke-miterlimit="10" stroke-linecap="round" stroke-linejoin="round"/>
            <path id="Vector_53" d="M352.426 122.428C352.426 122.428 355.269 120.46 356.144 121.772C357.019 123.084 356.144 124.833 353.082 128.55C350.021 132.268 351.77 133.798 346.741 134.454C346.085 134.454 346.304 134.017 346.304 134.017" stroke="white" stroke-miterlimit="10" stroke-linecap="round" stroke-linejoin="round"/>
            <path id="Vector_54" d="M321.157 115.867C319.845 114.993 318.314 114.118 316.783 113.243C315.253 112.587 313.722 112.15 311.973 112.15" stroke="white" stroke-miterlimit="10" stroke-linecap="round" stroke-linejoin="round"/>
            <path id="Vector_55" d="M330.122 119.803C334.058 119.803 338.213 120.022 341.712 121.553" stroke="white" stroke-miterlimit="10" stroke-linecap="round" stroke-linejoin="round"/>
            <path id="Vector_56" d="M318.095 130.956C317.658 130.737 317.658 130.3 317.658 129.862V129.644H317.876C318.314 129.644 318.751 129.425 319.188 129.644C319.626 130.081 319.626 130.737 320.063 131.174C320.5 131.83 321.375 131.83 322.031 132.049C322.687 132.049 323.343 132.049 323.999 132.049C324.437 132.049 324.874 132.049 325.093 132.049C325.311 132.049 325.749 132.486 325.749 132.924C325.749 133.361 325.311 133.798 324.874 133.58" stroke="white" stroke-miterlimit="10" stroke-linecap="round" stroke-linejoin="round"/>
            <path id="Vector_57" d="M326.187 139.047C325.312 139.047 324.656 138.828 324 138.391C323.126 137.735 322.688 136.86 321.595 136.641C320.939 136.641 320.283 136.86 319.846 136.641C319.408 136.423 319.408 135.985 318.971 135.767C318.534 135.548 318.315 135.548 317.878 135.767C316.784 135.767 315.472 135.548 314.598 134.892C317.003 137.297 320.502 138.172 324 138.828" stroke="white" stroke-miterlimit="10" stroke-linecap="round" stroke-linejoin="round"/>
            <path id="Vector_58" d="M320.938 139.921C320.5 139.921 319.844 139.702 319.407 139.484C318.969 139.265 318.532 139.265 318.095 139.265C317.657 139.265 317.22 138.828 317.001 138.609" stroke="white" stroke-miterlimit="10" stroke-linecap="round" stroke-linejoin="round"/>
            <path id="Vector_59" d="M336.026 123.739C336.245 124.177 336.026 124.833 335.589 125.052C335.151 125.27 334.714 125.489 334.277 125.489C333.839 125.489 333.621 125.489 333.183 125.489C332.746 125.27 332.527 124.614 332.527 124.177C332.527 123.74 332.527 123.302 332.965 123.083" stroke="white" stroke-miterlimit="10" stroke-linecap="round" stroke-linejoin="round"/>
            <path id="Vector_60" d="M318.533 118.71C318.314 119.148 318.095 119.585 317.658 119.804C317.221 120.022 316.565 120.022 316.127 119.804C315.69 119.585 315.253 119.148 315.253 118.492C315.253 118.273 315.253 118.054 315.471 117.836C315.471 117.617 315.69 117.398 315.69 117.18" stroke="white" stroke-miterlimit="10" stroke-linecap="round" stroke-linejoin="round"/>
            <path id="Vector_61" d="M319.844 120.241C319.407 118.929 318.314 117.617 317.002 117.179C315.69 116.742 314.159 116.742 312.628 117.179" stroke="white" stroke-miterlimit="10" stroke-linecap="round" stroke-linejoin="round"/>
            <path id="Vector_62" d="M317.877 120.678C316.565 120.678 315.472 120.241 314.597 119.366" stroke="white" stroke-miterlimit="10" stroke-linecap="round" stroke-linejoin="round"/>
            <path id="Vector_63" d="M331.434 123.302C331.872 123.083 332.528 123.083 332.965 122.865C333.184 122.865 333.621 122.646 333.84 122.646C334.277 122.646 334.714 122.865 335.152 122.865C336.464 123.302 337.776 123.958 338.869 124.614" stroke="white" stroke-miterlimit="10" stroke-linecap="round" stroke-linejoin="round"/>
            <path id="Vector_64" d="M335.808 125.926C334.715 125.926 333.403 125.926 332.309 125.27C332.091 125.051 331.872 125.051 331.653 124.833" stroke="white" stroke-miterlimit="10" stroke-linecap="round" stroke-linejoin="round"/>
            <g id="Group_2">
                <path id="Vector_65" d="M231.72 176.22C231.72 176.22 307.817 196.119 318.969 200.274" stroke="#1E1E1E" stroke-miterlimit="10" stroke-linecap="round" stroke-linejoin="round"/>
                <path id="Vector_66" d="M311.098 225.858C311.098 225.858 287.044 218.642 265.833 203.773C244.622 188.903 228.878 176.22 228.878 176.22C228.878 176.22 253.806 185.623 269.113 190.434C284.201 195.244 310.442 210.551 310.442 210.551" stroke="#1E1E1E" stroke-miterlimit="10" stroke-linecap="round" stroke-linejoin="round"/>
                <path id="Vector_67" d="M266.49 215.362C266.49 215.362 252.276 222.141 240.905 218.424C229.535 214.706 207.668 201.149 206.137 189.997" stroke="#1E1E1E" stroke-miterlimit="10" stroke-linecap="round" stroke-linejoin="round"/>
                <path id="Vector_68" d="M254.899 203.772C254.899 203.772 230.189 202.898 222.317 207.271" stroke="#1E1E1E" stroke-miterlimit="10" stroke-linecap="round" stroke-linejoin="round"/>
                <path id="Vector_69" d="M211.603 186.06C211.603 186.06 221.443 203.991 228.659 205.303" stroke="#1E1E1E" stroke-miterlimit="10" stroke-linecap="round" stroke-linejoin="round"/>
                <path id="Vector_70" d="M235.657 216.674C236.313 220.392 236.095 224.984 234.564 228.482C233.47 230.888 232.158 233.075 230.628 235.043C226.036 241.821 220.788 249.037 212.916 251.661C212.478 237.667 215.758 223.016 224.505 212.082" stroke="#1E1E1E" stroke-miterlimit="10" stroke-linecap="round" stroke-linejoin="round"/>
                <path id="Vector_71" d="M244.403 219.517C244.403 219.517 259.491 239.853 258.179 257.347C256.648 274.84 260.366 276.808 260.366 276.808C260.366 276.808 243.528 267.624 240.467 254.941C237.624 242.259 234.125 235.48 235.219 226.514" stroke="#1E1E1E" stroke-miterlimit="10" stroke-linecap="round" stroke-linejoin="round"/>
                <path id="Vector_72" d="M268.895 186.06C268.895 186.06 312.41 153.041 324.655 150.417C324.655 150.417 335.807 142.326 343.68 142.764C351.552 143.201 351.114 141.014 351.114 141.014C351.114 141.014 352.864 142.982 353.52 146.918C354.176 150.854 356.362 162.662 354.394 172.94C352.208 183.217 351.552 200.93 356.362 208.364C361.173 215.799 358.768 231.762 347.616 234.167C336.463 236.573 339.087 237.666 339.087 237.666" stroke="#1E1E1E" stroke-miterlimit="10" stroke-linecap="round" stroke-linejoin="round"/>
                <path id="Vector_73" d="M323.344 221.485C323.344 221.485 338.869 235.917 340.618 240.728C342.368 245.538 342.805 248.6 342.805 248.6C342.805 248.6 330.56 240.728 321.594 240.509C312.629 240.29 288.575 225.421 288.575 225.421C288.575 225.421 223.63 183.436 217.507 182.78" stroke="#1E1E1E" stroke-miterlimit="10" stroke-linecap="round" stroke-linejoin="round"/>
            </g>
            <path id="Vector_74" d="M219.257 247.944C220.788 253.411 222.756 258.877 224.724 264.125C231.065 264.563 237.407 263.907 243.529 262.157" stroke="white" stroke-miterlimit="10" stroke-linecap="round" stroke-linejoin="round"/>
            <path id="Vector_75" d="M259.273 260.845C269.988 256.909 282.015 256.909 293.385 256.472C304.975 255.816 316.127 254.941 325.53 247.944" stroke="white" stroke-miterlimit="10" stroke-linecap="round" stroke-linejoin="round"/>
            <path id="Vector_76" d="M201.763 83.9419C200.232 84.5979 199.576 84.1606 198.483 84.3792C198.264 84.3792 198.045 84.8166 197.827 85.0352C197.389 85.4726 196.733 85.2539 196.077 85.2539C195.203 85.2539 194.328 85.6913 193.672 86.1286C191.923 87.0033 190.173 87.6593 188.205 87.8779" stroke="white" stroke-miterlimit="10" stroke-linecap="round" stroke-linejoin="round"/>
            <path id="Vector_77" d="M201.107 86.1284C201.107 86.1284 199.139 88.9711 193.235 88.7524" stroke="white" stroke-miterlimit="10" stroke-linecap="round" stroke-linejoin="round"/>
            <path id="Vector_78" d="M181.427 86.1283C180.99 84.3789 180.771 82.4109 179.678 81.0989C178.803 80.0055 177.71 79.3495 176.398 78.6935C175.523 78.2562 174.43 77.8189 173.555 77.1628" stroke="white" stroke-miterlimit="10" stroke-linecap="round" stroke-linejoin="round"/>
            <path id="Vector_79" d="M177.054 118.492C177.054 118.492 148.627 114.774 142.285 95.094" stroke="white" stroke-miterlimit="10" stroke-linecap="round" stroke-linejoin="round"/>
            <path id="Vector_80" d="M184.27 115.868C184.27 115.868 192.361 115.868 189.956 97.718" stroke="white" stroke-miterlimit="10" stroke-linecap="round" stroke-linejoin="round"/>
            <path id="Vector_81" d="M172.681 116.305C173.774 115.868 174.649 114.774 174.649 113.681C174.649 113.462 174.649 113.243 174.43 113.025C174.211 112.806 173.993 112.806 173.774 112.806C173.555 113.025 173.555 113.243 173.555 113.462C173.555 113.9 173.555 114.337 173.555 114.774C173.555 115.212 173.774 115.649 174.211 115.868C174.43 116.086 174.43 116.086 174.649 116.086C174.867 116.086 175.086 116.305 175.305 116.305" stroke="white" stroke-miterlimit="10" stroke-linecap="round" stroke-linejoin="round"/>
            <path id="Vector_82" d="M169.837 115.43C169.619 114.993 169.4 114.556 169.181 114.118C168.963 113.681 168.744 113.244 168.744 112.806C168.744 112.369 168.744 111.713 169.181 111.494C169.181 111.494 169.4 111.276 169.619 111.276C169.837 111.276 169.837 111.494 170.056 111.494C170.056 111.713 170.056 111.713 170.056 111.932C170.056 112.15 170.056 112.369 170.056 112.588C170.056 112.806 170.056 113.025 170.056 113.244C170.056 113.462 169.837 113.462 169.837 113.681C169.181 114.337 168.525 114.774 167.651 114.774" stroke="white" stroke-miterlimit="10" stroke-linecap="round" stroke-linejoin="round"/>
            <path id="Vector_83" d="M165.246 113.899C165.027 113.899 165.027 113.899 165.246 113.899ZM165.246 113.899C163.934 113.243 163.278 111.931 163.059 110.619C163.059 110.182 163.059 109.744 163.278 109.307C163.496 108.87 163.934 108.651 164.371 108.651H164.59C164.59 108.651 164.59 108.87 164.808 108.87C165.027 109.526 164.808 109.963 164.59 110.619C164.371 111.056 163.934 111.494 163.496 111.931C163.059 112.15 162.84 112.368 162.403 112.368C161.966 112.368 161.528 112.368 161.31 112.15" stroke="white" stroke-miterlimit="10" stroke-linecap="round" stroke-linejoin="round"/>
            <path id="Vector_84" d="M158.685 111.057C157.592 109.963 157.154 107.995 158.029 106.465C158.248 106.246 158.466 105.809 158.685 105.809C158.904 105.809 159.341 106.027 159.341 106.246C159.56 106.902 159.341 107.558 158.904 107.995C158.466 108.433 157.81 108.651 157.154 108.87C156.498 109.089 155.624 109.089 155.186 108.433" stroke="white" stroke-miterlimit="10" stroke-linecap="round" stroke-linejoin="round"/>
            <path id="Vector_85" d="M153.218 107.339C152.781 107.339 152.344 106.683 152.344 106.027C152.125 105.152 151.906 104.278 152.125 103.403C152.344 102.966 152.562 102.528 152.781 102.31C153 102.091 153.437 102.091 153.656 102.31H153.874V102.528C153.874 102.966 154.093 103.184 153.874 103.622C153.656 103.84 153.437 104.059 153 104.059C152.562 104.278 152.125 104.496 151.906 104.496C151.469 104.715 150.813 104.934 150.376 104.715C149.938 104.496 149.72 104.278 149.72 103.84" stroke="white" stroke-miterlimit="10" stroke-linecap="round" stroke-linejoin="round"/>
            <path id="Vector_86" d="M147.533 102.091C147.533 101.654 147.315 101.217 147.315 100.779C147.315 100.123 147.533 99.2487 147.971 98.8114C148.189 98.374 148.627 98.1554 149.064 97.9367C149.283 97.9367 149.501 97.718 149.72 97.718C149.939 97.718 150.157 97.718 150.376 97.9367C150.376 98.1554 150.376 98.374 150.157 98.5927C149.939 98.8114 149.72 98.8114 149.501 99.03C148.845 99.2487 148.189 99.686 147.315 99.686C147.096 99.686 146.659 99.9047 146.44 99.686C146.221 99.4674 145.784 99.4674 145.565 99.2487C145.565 99.2487 145.565 99.2487 145.784 99.03" stroke="white" stroke-miterlimit="10" stroke-linecap="round" stroke-linejoin="round"/>
            <path id="Vector_87" d="M144.691 96.6243C144.472 96.4057 144.691 95.9684 144.909 95.7497C145.128 95.531 145.347 95.0937 145.565 94.875C145.784 94.4377 146.221 94.219 146.44 94.0003C146.877 93.7817 147.315 93.563 147.752 93.563C147.752 93.7817 147.971 94.219 147.752 94.4377C147.533 94.6563 147.315 94.875 147.096 94.875C146.44 95.0937 145.784 95.3123 145.128 95.3123C144.909 95.3123 144.691 95.3123 144.472 95.3123C144.253 95.3123 144.035 95.0937 143.816 94.875C143.597 94.4377 143.816 94.219 143.816 93.7817" stroke="white" stroke-miterlimit="10" stroke-linecap="round" stroke-linejoin="round"/>
            <path id="Vector_88" d="M143.379 91.5955C143.16 90.9395 143.379 90.2834 144.035 89.8461M144.035 89.8461C144.253 89.6274 144.691 89.6274 144.909 89.4088C145.128 89.4088 145.565 89.1901 145.784 89.1901C146.003 89.1901 146.221 89.1901 146.221 89.1901C146.44 89.1901 146.44 89.4088 146.659 89.4088C146.659 89.6274 146.659 89.8461 146.44 89.8461C146.221 89.8461 146.003 90.0648 145.784 90.0648C145.128 90.0648 144.472 90.0648 144.035 89.8461ZM144.035 89.8461C143.816 89.6274 143.816 89.6274 143.597 89.4088C143.379 88.9714 142.941 88.7528 142.723 88.3154" stroke="white" stroke-miterlimit="10" stroke-linecap="round" stroke-linejoin="round"/>
            <path id="Vector_89" d="M188.207 109.308C187.988 109.745 187.332 110.182 186.895 110.182C186.239 110.401 185.801 110.182 185.145 110.182C184.926 110.182 184.489 109.964 184.489 109.745C184.489 109.526 184.926 109.308 185.145 109.308C186.239 109.308 186.895 110.182 187.113 111.276C187.113 111.494 187.113 111.494 187.113 111.713C187.113 111.932 186.895 112.15 186.676 112.15C186.457 112.15 186.239 112.15 186.02 112.15V111.932" stroke="white" stroke-miterlimit="10" stroke-linecap="round" stroke-linejoin="round"/>
            <path id="Vector_90" d="M188.206 104.06C188.425 104.06 188.425 104.278 188.644 104.497C188.644 104.934 188.206 105.59 187.769 105.809C187.332 106.028 186.676 106.028 186.238 106.028C186.02 106.028 185.801 106.028 185.801 106.028C185.582 106.028 185.582 105.809 185.582 105.59C185.582 105.372 186.02 105.153 186.238 105.153C186.894 105.153 187.769 105.372 188.425 105.59C188.644 105.59 188.862 105.809 189.081 106.028C189.3 106.246 189.3 106.465 189.3 106.684C189.3 106.902 188.862 107.121 188.644 106.902" stroke="white" stroke-miterlimit="10" stroke-linecap="round" stroke-linejoin="round"/>
            <path id="Vector_91" d="M188.206 99.4675C188.643 99.4675 188.643 99.9049 188.643 100.342C188.643 100.78 188.206 101.217 187.768 101.436C187.331 101.654 186.894 101.654 186.238 101.873C186.019 101.873 185.8 101.873 185.582 101.873C185.363 101.873 185.144 101.654 185.363 101.436C185.363 101.217 185.582 100.998 185.8 100.998C186.456 100.78 187.112 100.78 187.768 100.998C188.424 101.217 188.862 101.654 188.862 102.31" stroke="white" stroke-miterlimit="10" stroke-linecap="round" stroke-linejoin="round"/>
            <path id="Vector_92" d="M125.885 210.989C123.917 208.802 123.698 205.085 125.229 202.679C125.448 202.242 125.666 202.023 126.104 202.023C126.541 202.023 126.979 202.679 126.979 203.117C126.979 204.429 125.667 205.522 124.354 205.741C123.042 206.178 121.512 206.178 120.418 205.303" stroke="white" stroke-miterlimit="10" stroke-linecap="round" stroke-linejoin="round"/>
            <path id="Vector_93" d="M118.451 200.274C118.232 198.962 118.013 197.431 118.451 196.119C118.669 194.807 119.544 193.495 121.075 193.058C121.731 192.839 122.387 193.058 122.605 193.714C122.605 194.151 122.387 194.37 122.168 194.588C120.856 195.682 119.325 196.557 117.576 196.775C117.139 196.775 116.701 196.775 116.264 196.556C116.045 196.338 115.827 196.119 115.827 195.901C115.389 195.026 115.171 193.932 115.389 192.839" stroke="white" stroke-miterlimit="10" stroke-linecap="round" stroke-linejoin="round"/>
            <path id="Vector_94" d="M114.952 186.279C115.17 185.186 115.389 183.874 116.045 182.999C116.264 182.562 116.482 181.906 116.92 181.687C117.357 181.468 118.013 181.25 118.45 181.687L118.669 181.906C118.669 182.124 118.45 182.343 118.232 182.343C116.92 182.999 115.608 182.999 114.077 182.999C113.858 182.999 113.421 182.999 113.202 182.78C112.984 182.562 112.984 182.343 112.984 182.124C112.765 181.468 112.765 180.812 112.546 180.375" stroke="white" stroke-miterlimit="10" stroke-linecap="round" stroke-linejoin="round"/>
            <path id="Vector_95" d="M111.453 174.033C111.672 172.94 111.89 171.847 112.546 170.753C112.984 170.097 113.421 169.441 114.077 169.004C114.733 168.567 115.826 168.567 116.482 169.223C115.826 169.879 114.952 170.316 114.077 170.535C113.202 170.753 112.109 170.753 111.234 170.316C110.36 169.879 109.922 168.785 110.141 167.692" stroke="white" stroke-miterlimit="10" stroke-linecap="round" stroke-linejoin="round"/>
            <path id="Vector_96" d="M109.047 162.006C109.484 160.694 109.922 159.164 110.796 158.07C111.671 156.977 112.983 156.102 114.514 156.321C114.732 156.321 114.951 156.321 114.951 156.54C115.17 156.977 114.732 157.414 114.514 157.414C112.983 158.07 111.234 158.289 109.922 157.414C108.391 156.758 107.516 155.009 107.735 153.478" stroke="white" stroke-miterlimit="10" stroke-linecap="round" stroke-linejoin="round"/>
            <path id="Vector_97" d="M107.953 147.575C107.516 146.481 107.953 145.388 108.609 144.513C109.265 143.639 110.359 143.201 111.452 142.764C111.889 142.545 112.545 142.327 112.983 142.327C113.42 142.327 114.076 142.764 114.076 143.42C114.076 144.295 112.983 144.513 112.108 144.513C110.796 144.513 109.484 144.295 108.391 143.639C107.297 142.983 106.423 141.671 106.86 140.359" stroke="white" stroke-miterlimit="10" stroke-linecap="round" stroke-linejoin="round"/>
            <path id="Vector_98" d="M108.39 135.548C107.734 134.454 108.39 132.924 109.484 132.268C110.577 131.612 111.889 131.83 113.201 132.268C112.764 133.142 111.889 133.58 111.014 133.361C110.14 133.142 109.265 132.486 109.046 131.612C108.828 130.737 108.609 129.862 108.39 128.769" stroke="white" stroke-miterlimit="10" stroke-linecap="round" stroke-linejoin="round"/>
            <path id="Vector_99" d="M228.004 141.015C227.129 140.796 226.473 140.359 225.599 140.14" stroke="white" stroke-miterlimit="10" stroke-linecap="round" stroke-linejoin="round"/>
            <path id="Vector_100" d="M200.888 144.95C201.326 145.606 201.982 146.044 202.856 146.262" stroke="white" stroke-miterlimit="10" stroke-linecap="round" stroke-linejoin="round"/>
            <path id="Vector_101" d="M243.529 151.511C243.311 150.198 242.436 149.105 241.561 148.23" stroke="white" stroke-miterlimit="10" stroke-linecap="round" stroke-linejoin="round"/>
            <path id="Vector_102" d="M246.372 159.382C246.809 158.07 246.591 156.758 245.716 155.665" stroke="white" stroke-miterlimit="10" stroke-linecap="round" stroke-linejoin="round"/>
            <path id="Vector_103" d="M240.906 169.66C240.469 169.004 240.032 168.348 239.376 167.692" stroke="white" stroke-miterlimit="10" stroke-linecap="round" stroke-linejoin="round"/>
            <path id="Vector_104" d="M224.068 171.847C224.506 170.972 224.943 169.879 224.943 168.785C225.162 168.129 225.162 167.255 224.943 166.599C224.724 165.943 224.068 165.287 223.412 165.068C223.194 165.068 222.975 165.068 222.756 164.849C222.538 164.631 222.538 164.412 222.538 164.193C222.538 163.1 222.538 162.225 222.1 161.132C221.663 160.257 220.788 159.383 219.695 159.601C219.258 159.601 218.602 159.82 218.383 159.383C218.383 159.164 218.383 159.164 218.383 158.945C218.383 156.759 216.415 154.572 214.009 154.791" stroke="white" stroke-miterlimit="10" stroke-linecap="round" stroke-linejoin="round"/>
            <path id="Vector_105" d="M244.623 162.444C248.34 163.756 243.967 167.911 239.156 170.753C234.345 173.815 224.286 178.188 224.286 178.188C224.286 178.188 200.014 192.183 195.422 196.775C190.83 201.367 163.496 223.89 161.31 225.202" stroke="white" stroke-miterlimit="10" stroke-linecap="round" stroke-linejoin="round"/>
            <path id="Vector_106" d="M128.29 81.0991C128.946 81.9738 129.602 82.8485 130.258 83.9418" stroke="white" stroke-miterlimit="10" stroke-linecap="round" stroke-linejoin="round"/>
            <path id="Vector_107" d="M120.2 83.2854C120.856 83.5041 121.512 83.7227 122.168 83.9414" stroke="white" stroke-miterlimit="10" stroke-linecap="round" stroke-linejoin="round"/>
            <path id="Vector_108" d="M113.857 87.0029C114.076 87.4403 114.513 87.8776 115.169 88.3149" stroke="white" stroke-miterlimit="10" stroke-linecap="round" stroke-linejoin="round"/>
            <path id="Vector_109" d="M109.484 92.0325C110.14 92.2511 110.578 92.4698 111.015 92.9072" stroke="white" stroke-miterlimit="10" stroke-linecap="round" stroke-linejoin="round"/>
            <path id="Vector_110" d="M354.177 152.823C349.366 150.855 343.462 151.511 339.307 154.791C336.246 157.196 333.841 161.132 334.059 165.068C334.278 169.004 337.339 172.94 341.275 173.378C343.462 173.596 345.867 172.94 346.961 171.191C348.054 169.441 347.398 166.599 345.43 165.724C346.305 166.817 346.086 168.785 344.774 169.441C343.462 170.535 341.275 169.879 340.182 168.567C339.089 167.255 338.651 165.505 338.433 163.756C338.214 162.881 338.214 162.225 338.433 161.351C338.651 160.476 339.526 159.601 340.182 159.164C344.337 156.103 350.459 156.103 354.396 159.383" stroke="#1E1E1E" stroke-miterlimit="10" stroke-linecap="round" stroke-linejoin="round"/>
            <path id="Vector_111" d="M306.069 160.695C305.85 161.351 305.85 162.226 305.631 162.882C305.413 165.943 305.194 169.223 306.943 172.066C308.037 174.034 310.005 175.346 311.973 176.22C314.597 177.532 317.44 178.407 320.282 177.97C323.781 177.751 327.28 175.783 329.029 172.722C330.778 169.66 331.434 165.724 329.904 162.444C329.466 161.132 328.592 160.039 327.498 159.383C325.968 158.289 323.781 158.289 321.813 158.508C323.344 158.945 324.656 160.039 325.312 161.351C325.968 162.663 325.749 164.412 324.874 165.724C324.437 166.599 323.562 167.255 322.906 168.13C322.469 168.786 322.032 169.442 321.376 169.879C320.72 170.316 319.845 170.316 318.97 170.316C316.128 170.316 313.066 169.223 311.973 166.818C311.535 165.943 311.317 165.068 311.317 164.194C311.098 162.226 311.317 160.258 311.973 158.508C312.629 156.759 314.16 155.228 316.128 154.791" stroke="#1E1E1E" stroke-miterlimit="10" stroke-linecap="round" stroke-linejoin="round"/>
            <path id="Vector_112" d="M303.882 194.807C305.194 195.026 306.725 194.588 307.818 193.714C308.912 192.839 309.786 191.527 310.442 190.434C311.098 189.34 311.754 188.247 311.754 186.935C311.754 186.279 311.536 185.842 311.317 185.186C310.224 182.562 308.693 180.156 306.506 178.407C304.32 176.876 301.04 176.22 298.634 177.751C296.229 179.282 295.354 182.999 297.322 184.967C296.229 183.655 296.885 181.468 298.416 180.594C299.946 179.938 301.914 180.594 302.789 182.124C303.664 183.655 303.664 185.404 302.789 186.935C301.914 188.466 300.602 189.559 299.072 190.215C296.01 191.527 292.73 191.308 289.45 190.871" stroke="#1E1E1E" stroke-miterlimit="10" stroke-linecap="round" stroke-linejoin="round"/>
            <path id="Vector_113" d="M284.639 191.09C285.295 191.965 285.513 193.277 284.857 194.151C284.201 195.026 283.108 195.682 282.015 195.463" stroke="#1E1E1E" stroke-miterlimit="10" stroke-linecap="round" stroke-linejoin="round"/>
            <path id="Vector_114" d="M274.58 188.029C275.236 189.122 275.017 190.653 273.924 191.309" stroke="#1E1E1E" stroke-miterlimit="10" stroke-linecap="round" stroke-linejoin="round"/>
            <path id="Vector_115" d="M270.206 191.527C269.55 192.62 268.894 193.932 268.675 195.244C268.675 195.682 268.456 196.338 268.675 196.775C268.894 197.212 269.112 197.65 269.55 198.087C270.862 199.399 272.174 200.93 274.142 201.586C275.891 202.242 278.078 202.023 279.39 200.493C278.296 200.711 277.203 200.711 276.328 200.493C275.016 200.055 273.923 199.399 273.486 198.087C273.048 196.775 273.486 195.463 274.579 194.807C275.454 194.37 276.766 194.588 277.859 194.37" stroke="#1E1E1E" stroke-miterlimit="10" stroke-linecap="round" stroke-linejoin="round"/>
            <path id="Vector_116" d="M248.558 191.746C249.214 191.746 249.433 192.621 249.652 193.277C249.87 194.37 249.87 195.463 250.089 196.557C250.089 197.213 250.089 197.869 249.87 198.306C249.652 198.962 248.996 199.399 248.34 199.181" stroke="#1E1E1E" stroke-miterlimit="10" stroke-linecap="round" stroke-linejoin="round"/>
            <path id="Vector_117" d="M244.622 189.122C245.059 188.903 245.278 189.34 245.278 189.778C245.497 191.308 245.715 192.839 245.497 194.37C245.497 195.026 244.841 196.119 244.185 195.682" stroke="#1E1E1E" stroke-miterlimit="10" stroke-linecap="round" stroke-linejoin="round"/>
            <path id="Vector_118" d="M233.251 203.991C232.595 203.335 231.939 202.679 231.72 201.804C231.064 200.492 231.283 198.743 232.158 197.431C233.032 196.119 234.782 195.682 236.312 196.338C234.344 194.588 230.846 194.807 228.878 196.556C226.91 198.524 226.472 201.586 227.566 204.21" stroke="#1E1E1E" stroke-miterlimit="10" stroke-linecap="round" stroke-linejoin="round"/>
            <path id="Vector_119" d="M231.721 233.511C231.065 227.17 226.91 221.266 221.225 218.205" stroke="#1E1E1E" stroke-miterlimit="10" stroke-linecap="round" stroke-linejoin="round"/>
            <path id="Vector_120" d="M228.441 236.792C229.097 235.042 228.879 233.074 228.223 231.325C227.567 229.575 226.473 228.045 225.38 226.514C224.505 225.202 223.631 224.109 222.975 222.797C222.756 222.359 222.537 222.141 222.1 221.922C221.444 221.485 220.351 221.703 219.913 221.047" stroke="#1E1E1E" stroke-miterlimit="10" stroke-linecap="round" stroke-linejoin="round"/>
            <path id="Vector_121" d="M235.657 233.293C236.313 234.823 237.406 236.573 238.718 237.448C240.249 238.541 242.217 238.76 243.748 237.885C244.841 237.229 245.497 235.698 245.278 234.386C245.278 233.074 244.622 231.762 243.748 230.887C244.841 230.887 245.934 231.543 246.59 232.418C247.246 233.293 247.465 234.605 247.902 235.698C248.121 236.354 248.121 236.792 248.121 237.448C248.121 238.76 247.246 240.072 246.372 240.946C244.185 243.133 240.686 244.445 237.844 243.352" stroke="#1E1E1E" stroke-miterlimit="10" stroke-linecap="round" stroke-linejoin="round"/>
            <path id="Vector_122" d="M256.649 62.7305C254.244 62.2932 252.057 60.9812 249.871 59.6691C244.623 56.6078 239.375 53.3277 234.126 49.829C227.129 45.237 226.036 36.4902 216.633 32.3354" stroke="white" stroke-miterlimit="10" stroke-linecap="round" stroke-linejoin="round"/>
            <path id="Vector_123" d="M258.18 64.0423C242.655 63.605 226.098 61.451 212.541 53.7976" stroke="white" stroke-miterlimit="10" stroke-linecap="round" stroke-linejoin="round"/>
            <path id="Vector_124" d="M215.321 49.1731C217.945 50.9225 220.132 53.7652 221.007 57.0452" stroke="white" stroke-miterlimit="10" stroke-linecap="round" stroke-linejoin="round"/>
            <path id="Vector_125" d="M215.759 45.6746C215.977 45.4559 216.415 45.6746 216.633 45.8932C220.351 48.7359 222.975 52.8907 223.412 57.4827" stroke="white" stroke-miterlimit="10" stroke-linecap="round" stroke-linejoin="round"/>
            <path id="Vector_126" d="M226.254 41.082C222.974 44.1434 223.848 47.2048 224.504 48.9541C225.16 50.7035 226.472 52.2342 228.003 53.5462C228.44 53.9835 228.878 54.4209 229.315 54.6395C229.971 54.8582 230.627 55.0769 231.502 55.0769C233.688 55.0769 235.656 54.4209 237.406 53.1089" stroke="white" stroke-miterlimit="10" stroke-linecap="round" stroke-linejoin="round"/>
            <path id="Vector_127" d="M235.875 51.1411C234.345 52.0158 232.595 52.2345 230.846 51.5785C229.315 51.1411 227.785 49.8291 226.91 48.5171C226.254 47.4238 225.161 45.2371 227.347 43.269" stroke="white" stroke-miterlimit="10" stroke-linecap="round" stroke-linejoin="round"/>
            <path id="Vector_128" d="M247.247 62.7309C246.591 61.6376 245.935 60.5442 245.279 59.4509C244.623 58.3575 243.748 57.0455 242.655 56.3895C241.999 56.1708 241.124 55.9521 240.468 55.9521C238.5 55.9521 236.532 55.9522 234.783 56.8268C233.034 57.7015 231.503 59.4509 231.722 61.4189" stroke="white" stroke-miterlimit="10" stroke-linecap="round" stroke-linejoin="round"/>
            <path id="Vector_129" d="M234.127 61.1998C234.564 60.9811 234.783 60.5438 235.22 60.3251C236.313 59.4505 238.063 59.2318 239.375 59.4505C240.905 59.6691 241.999 60.7625 242.874 62.0745" stroke="white" stroke-miterlimit="10" stroke-linecap="round" stroke-linejoin="round"/>
            <path id="Vector_130" d="M222.319 36.4905C222.101 37.8025 219.258 40.4265 217.946 40.4265" stroke="white" stroke-miterlimit="10" stroke-linecap="round" stroke-linejoin="round"/>
            <path id="Vector_131" d="M220.132 34.741C220.351 36.4903 217.945 37.365 217.289 37.8023" stroke="white" stroke-miterlimit="10" stroke-linecap="round" stroke-linejoin="round"/>
            <path id="Vector_132" d="M153 113.462C150.376 114.118 147.971 115.649 145.565 116.961C144.035 117.836 142.723 118.929 141.411 120.022C140.317 121.334 139.442 123.084 139.442 124.614" stroke="white" stroke-miterlimit="10" stroke-linecap="round" stroke-linejoin="round"/>
            <path id="Vector_133" d="M149.939 110.401C149.065 110.182 147.971 110.401 147.097 110.838C142.286 112.806 138.569 116.961 137.038 121.772" stroke="white" stroke-miterlimit="10" stroke-linecap="round" stroke-linejoin="round"/>
            <path id="Vector_134" d="M151.688 113.681C150.157 112.806 148.626 111.932 147.095 111.276C147.533 112.588 147.97 113.9 148.407 114.993C146.658 114.556 144.909 113.9 143.159 113.462C143.597 114.774 143.815 116.086 144.253 117.398C142.722 117.398 141.41 117.18 140.098 116.524C140.317 117.836 140.535 118.929 140.535 120.241C139.661 120.46 138.786 120.46 137.693 120.241C138.13 121.334 138.567 122.428 139.223 123.521" stroke="white" stroke-miterlimit="10" stroke-linecap="round" stroke-linejoin="round"/>
        </g>
        <g id="draw/sky">
            <path id="Vector_135" d="M-44.047 95.2136C-46.5793 97.3651 -46.0367 101.172 -43.8661 103.489C-41.6956 105.806 -38.259 106.799 -35.0032 107.461C-26.683 108.95 -18.0009 107.957 -9.49974 108.95C-5.52048 109.447 -0.455966 111.764 -1.54122 115.239C-1.90297 116.398 -2.80736 117.391 -2.98823 118.384C-3.34998 121.032 -0.0942253 122.687 2.79979 123.349C18.1742 126.99 35.1766 125.169 49.104 118.218" stroke="white" stroke-width="0.25" stroke-miterlimit="10" stroke-linecap="round" stroke-linejoin="round"/>
            <path id="Vector_136" d="M12.3871 69.3955C14.5576 70.554 14.3767 73.6985 12.5679 75.3536C10.7592 77.0086 8.04604 77.5051 5.69466 77.8361C-0.45512 78.8291 -6.6049 79.8221 -12.9356 80.9806C-16.3722 81.4771 -20.1706 82.3046 -21.7985 85.1181C-23.4263 87.6007 -22.522 90.9107 -20.1706 93.0622C-18.0001 95.0482 -14.7443 95.8757 -11.4885 95.8757C-8.41366 95.8757 -5.33876 95.0482 -2.26387 94.3862" stroke="white" stroke-width="0.25" stroke-miterlimit="10" stroke-linecap="round" stroke-linejoin="round"/>
            <path id="Vector_137" d="M86.0093 88.5283C83.2961 89.6868 80.4021 90.6798 77.689 91.8383C71.5392 94.3209 65.3894 96.6379 58.8779 97.1344C52.3664 97.6309 45.1313 95.8104 41.1521 91.0108" stroke="white" stroke-width="0.25" stroke-miterlimit="10" stroke-linecap="round" stroke-linejoin="round"/>
            <path id="Vector_138" d="M77.1465 77.605C77.1465 81.4115 79.8597 84.887 83.4772 86.8731C87.0947 88.8591 91.2548 89.3556 95.415 89.3556C102.469 89.3556 109.523 87.3696 115.492 83.894" stroke="white" stroke-width="0.25" stroke-miterlimit="10" stroke-linecap="round" stroke-linejoin="round"/>
            <path id="Vector_139" d="M36.0875 72.8058C37.8963 75.9503 40.2477 79.2603 43.8652 80.5843C48.2062 82.0739 53.0899 80.0878 57.0692 77.9363C59.6014 76.6123 62.3145 75.1228 64.6659 73.4678C68.8261 70.8198 73.1671 68.0062 78.2316 67.3442C83.2961 66.6822 89.2651 69.1648 90.1694 73.7988" stroke="white" stroke-width="0.25" stroke-miterlimit="10" stroke-linecap="round" stroke-linejoin="round"/>
            <path id="Vector_140" d="M16.8177 37.6838C15.1898 39.0078 13.5619 40.6629 13.0193 42.4834C12.4767 44.4694 13.2002 46.7864 15.009 47.7794C17.3603 48.9379 20.0735 47.7794 22.4249 46.7864C26.0424 45.2969 29.8408 43.9729 33.6392 42.8144C36.5332 41.9869 39.6081 41.4904 42.5021 42.3179C45.3961 43.1454 47.3857 46.2899 46.1196 48.7724" stroke="white" stroke-width="0.25" stroke-miterlimit="10" stroke-linecap="round" stroke-linejoin="round"/>
            <path id="Vector_141" d="M82.1125 46.29C85.73 46.1245 87.3579 41.4905 85.5492 38.5115C83.7404 35.698 79.942 34.3739 76.3245 33.5464C62.7588 30.4019 48.1079 31.0639 34.7231 35.2014C35.9892 31.8914 41.0537 30.0709 40.692 26.4299C40.3302 23.6164 36.5318 22.6233 33.4569 22.1268C20.9765 20.6373 8.49608 20.3063 -3.98435 19.9753C-11.4003 19.8098 -18.9971 19.6443 -26.0512 21.4648C-24.6042 20.1408 -25.1468 17.6583 -26.7747 16.4998C-28.4026 15.3413 -30.5731 15.0103 -32.5627 14.8448C-41.0639 14.1828 -49.9268 13.8518 -58.0662 16.0033" stroke="white" stroke-width="0.25" stroke-miterlimit="10" stroke-linecap="round" stroke-linejoin="round"/>
            <path id="lightning-1" d="M42.6113 121.183C45.4063 128.791 52.9289 135.263 57.7425 140.698C56.5003 141.319 54.9475 141.474 53.5501 141.164C51.5315 143.803 51.3762 147.685 53.3948 150.48C54.0159 151.257 54.637 152.033 55.2581 152.809C56.8109 155.449 56.0345 158.865 55.1028 161.815C61.4691 162.437 67.0591 167.405 68.3013 173.616C68.7671 175.48 68.7671 177.654 69.8541 179.206C70.7857 180.759 72.4938 181.691 73.8913 182.778C79.3259 186.815 82.742 193.647 82.5867 200.479" stroke="white" stroke-miterlimit="10" stroke-linecap="round" stroke-linejoin="round"/>
            <path id="lightning-3" d="M48.2119 130.775C47.7933 135.57 47.3882 140.211 46.9696 145.006C46.9291 145.47 46.8886 145.934 46.6934 146.385C46.1348 147.427 44.7291 147.46 43.7335 148.153C42.5696 148.986 42.1252 150.506 42.4677 151.939C42.6556 153.358 43.4757 154.677 44.1546 155.827C43.4278 157.01 42.5193 158.49 41.1136 158.523C40.6496 158.482 40.1855 158.442 39.735 158.247C38.2151 157.802 33.1141 160.01 31.5942 159.565C30.7127 160.735 28.0402 167.917 27.1587 169.087" stroke="white" stroke-miterlimit="10" stroke-linecap="round" stroke-linejoin="round"/>
            <path id="lightning-2" d="M56.2757 154.346C56.5423 156.216 58.0545 157.96 59.7474 158.622C61.7508 159.29 63.9387 158.72 65.7759 159.851C67.7683 160.985 68.4751 163.953 67.0341 165.783C69.1781 167.076 72.1275 167.145 74.3337 165.799C74.1382 167.503 75.0294 169.233 76.4009 170.352C77.7761 171.316 79.7905 171.519 81.3574 170.935C82.1409 170.643 82.9281 170.195 83.7006 170.369C84.9351 170.708 85.3679 172.117 85.808 173.214C86.2481 174.312 87.3055 175.579 88.4031 175.139" stroke="white" stroke-miterlimit="10" stroke-linecap="round" stroke-linejoin="round"/>
        </g>
    </g>
</svg>
