<svg width="167" height="194" viewBox="0 0 167 194" fill="none" xmlns="http://www.w3.org/2000/svg">
<path d="M90.1682 60.47C90.9387 60.4947 91.5976 60.7452 92.1451 61.2213C92.7142 61.6773 93.1949 62.2868 93.5873 63.0497C94.0005 63.8134 94.3372 64.6892 94.5973 65.6772C94.8574 66.6652 95.0638 67.7036 95.2165 68.7924C95.3698 69.8604 95.4808 70.9478 95.5495 72.0548C95.6189 73.1409 95.659 74.1635 95.67 75.1227C95.6809 76.0819 95.674 76.9467 95.6493 77.7171C95.6454 78.4883 95.6364 79.0924 95.6224 79.5297L94.8728 79.5057L93.8973 72.8772C93.7965 72.7698 93.5591 72.6996 93.1849 72.6668C92.8316 72.6346 92.4044 72.6313 91.9033 72.6569C91.4231 72.6832 90.8901 72.7286 90.3044 72.7932C89.7402 72.8377 89.1971 72.8724 88.6752 72.8973C88.1748 72.9021 87.7164 72.8978 87.2999 72.8844C86.8841 72.8503 86.5846 72.7677 86.4012 72.6367L86.1897 79.2271L84.5968 79.176C84.5988 79.1135 84.6025 78.999 84.6078 78.8324C84.6347 78.6457 84.6511 78.4586 84.6571 78.2712C84.6631 78.0838 84.6792 77.9072 84.7054 77.7412C84.7315 77.5753 84.7456 77.4611 84.7476 77.3987C84.9113 76.195 85.0441 74.9799 85.146 73.7533C85.2693 72.5066 85.4018 71.3019 85.5433 70.1392C85.6848 68.9765 85.8559 67.8668 86.0566 66.8102C86.278 65.7543 86.569 64.8048 86.9296 63.9617C87.2908 63.0979 87.731 62.372 88.2501 61.7842C88.7699 61.1756 89.4093 60.7375 90.1682 60.47ZM90.6219 61.9228C90.0805 61.9055 89.616 62.0886 89.2285 62.4722C88.8625 62.8356 88.555 63.326 88.3059 63.9433C88.0575 64.5399 87.8588 65.2109 87.7098 65.9565C87.5608 66.7021 87.4538 67.4387 87.3888 68.1661C87.3244 68.8727 87.2718 69.5381 87.2309 70.1621C87.2116 70.7659 87.1965 71.2344 87.1858 71.5676C88.2061 71.6003 89.2496 71.5609 90.3162 71.4492C91.3835 71.3167 92.3884 71.1821 93.3307 71.0456C93.3542 70.963 93.369 70.828 93.375 70.6406C93.4018 70.4538 93.4189 70.246 93.4263 70.0169C93.4544 69.7885 93.4719 69.5702 93.4786 69.362C93.5061 69.1544 93.5208 69.0194 93.5228 68.957C93.5449 68.2698 93.5243 67.6126 93.461 66.9852C93.4186 66.3585 93.2922 65.75 93.0818 65.1596C92.893 64.5491 92.5987 63.9768 92.1989 63.4429C91.82 62.9097 91.2943 62.403 90.6219 61.9228ZM98.0061 55.9065C98.2963 55.9575 98.5435 56.0488 98.7477 56.1804C98.9734 56.2919 99.144 56.4954 99.2596 56.7909C99.2469 57.1865 99.2396 57.7387 99.2377 58.4473C99.2573 59.1358 99.2629 59.9385 99.2543 60.8553C99.2665 61.7729 99.2765 62.7633 99.284 63.8266C99.2916 64.8898 99.2988 65.9635 99.3058 67.0477C99.3127 68.1318 99.3095 69.2051 99.2962 70.2678C99.3038 71.331 99.3033 72.3211 99.2948 73.238C99.307 74.1555 99.3122 74.9686 99.3103 75.6772C99.3084 76.3859 99.3119 76.9279 99.3207 77.3034C99.3193 77.3451 99.3066 77.4176 99.2824 77.521C99.2791 77.6252 99.2647 77.7498 99.2392 77.8948C99.2345 78.0406 99.2194 78.186 99.1939 78.3311C99.1899 78.4561 99.1869 78.5498 99.1849 78.6122C99.16 78.7365 99.1446 78.8923 99.1386 79.0797C99.1333 79.2463 99.1071 79.4122 99.0601 79.5775C99.0131 79.7427 98.9352 79.8965 98.8264 80.039C98.7391 80.1612 98.591 80.2294 98.3822 80.2436L97.8722 79.5706C97.8521 79.5491 97.8332 79.1629 97.8156 78.412C97.8195 77.6409 97.8096 76.6505 97.7859 75.4407C97.7836 74.2109 97.7861 72.8352 97.7932 71.3138C97.801 69.7716 97.7987 68.2187 97.7863 66.655C97.7948 65.092 97.8012 63.5914 97.8057 62.1533C97.8101 60.7152 97.8186 59.4752 97.8312 58.4334C97.8339 58.3502 97.8392 58.1836 97.8472 57.9337C97.8761 57.6845 97.8945 57.435 97.9025 57.1851C97.932 56.9151 97.9505 56.6655 97.9578 56.4365C97.9866 56.1873 98.0027 56.0106 98.0061 55.9065ZM100.647 74.9385C100.672 74.168 100.824 73.3183 101.104 72.3893C101.384 71.4603 101.776 70.6079 102.281 69.832C102.785 69.0353 103.401 68.3776 104.126 67.8589C104.851 67.3402 105.682 67.0959 106.62 67.126C107.1 67.0789 107.484 67.1433 107.77 67.3192C108.057 67.4743 108.268 67.7208 108.403 68.0586C108.559 68.3971 108.651 68.7857 108.678 69.2243C108.727 69.6428 108.745 70.081 108.73 70.5391C108.737 70.9771 108.723 71.3935 108.69 71.7885C108.678 72.1633 108.689 72.4763 108.722 72.7275L107.941 72.7025C107.925 72.5769 107.892 72.284 107.844 71.8239C107.818 71.3437 107.751 70.8516 107.642 70.3479C107.533 69.8441 107.37 69.3908 107.154 68.9878C106.958 68.5855 106.663 68.378 106.267 68.3653C105.684 68.3466 105.125 68.5579 104.59 68.9993C104.075 69.4414 103.62 69.9792 103.225 70.6127C102.829 71.2461 102.506 71.9028 102.255 72.5826C102.004 73.2624 101.871 73.8313 101.856 74.2894C101.86 74.8106 101.915 75.3856 102.02 76.0143C102.125 76.6222 102.305 77.1803 102.56 77.6887C102.835 78.1978 103.197 78.6159 103.645 78.9429C104.093 79.27 104.653 79.3817 105.323 79.2781C105.823 79.2942 106.305 79.2054 106.77 79.0119C107.234 78.8184 107.689 78.6141 108.134 78.3991C108.578 78.184 109.023 77.9794 109.467 77.7852C109.931 77.5917 110.414 77.503 110.913 77.519C110.896 78.0604 110.683 78.533 110.274 78.9367C109.866 79.3197 109.366 79.6267 108.775 79.8579C108.205 80.0897 107.595 80.2577 106.945 80.362C106.317 80.4669 105.784 80.5123 105.346 80.4983C104.638 80.4756 103.987 80.3087 103.393 79.9979C102.819 79.6876 102.321 79.2861 101.899 78.7931C101.478 78.2793 101.153 77.6957 100.924 77.0422C100.716 76.3685 100.624 75.6673 100.647 74.9385ZM112.028 74.9284C112.044 74.4495 112.103 73.899 112.206 73.277C112.31 72.6342 112.466 71.993 112.675 71.3535C112.883 70.7141 113.132 70.0863 113.423 69.4703C113.734 68.855 114.096 68.3142 114.507 67.848C114.918 67.3609 115.389 66.98 115.919 66.7052C116.45 66.4095 117.038 66.2721 117.683 66.2928C118.349 66.3142 118.956 66.5629 119.504 67.0391C120.072 67.5159 120.543 68.125 120.915 68.8665C121.308 69.6086 121.594 70.4307 121.774 71.3328C121.953 72.2348 122.008 73.1121 121.939 73.9645C121.899 75.2138 121.624 76.3201 121.114 77.2834C120.603 78.2467 119.964 79.0183 119.195 79.5981C118.447 80.1786 117.642 80.5592 116.782 80.7401C115.942 80.9216 115.153 80.8441 114.413 80.5077C113.695 80.1512 113.101 79.5172 112.629 78.6058C112.179 77.6951 111.979 76.4693 112.028 74.9284ZM113.18 75.0904C113.202 76.3626 113.389 77.3483 113.742 78.0475C114.094 78.7466 114.527 79.2191 115.041 79.4648C115.575 79.6904 116.158 79.7091 116.79 79.5209C117.421 79.3328 118.016 78.9871 118.574 78.4839C119.133 77.9599 119.612 77.3082 120.012 76.529C120.434 75.7296 120.682 74.8308 120.755 73.8327C120.821 73.0844 120.782 72.3536 120.638 71.6403C120.515 70.9276 120.317 70.296 120.042 69.7452C119.79 69.1743 119.46 68.726 119.054 68.4003C118.669 68.0545 118.216 67.8732 117.696 67.8565C117.196 67.8405 116.744 67.951 116.34 68.1882C115.937 68.4254 115.561 68.7573 115.214 69.1839C114.888 69.5903 114.602 70.0605 114.356 70.5946C114.11 71.1286 113.894 71.6636 113.71 72.1997C113.547 72.7364 113.416 73.2637 113.316 73.7816C113.237 74.2793 113.192 74.7156 113.18 75.0904ZM124.745 59.6095L125.228 69.8803C125.378 69.7601 125.571 69.5787 125.809 69.3361C126.046 69.0936 126.324 68.8733 126.643 68.6751C126.962 68.456 127.312 68.2796 127.691 68.1459C128.072 67.9914 128.48 67.9315 128.917 67.9663C129.768 68.077 130.433 68.4423 130.914 69.0622C131.415 69.6828 131.776 70.4343 131.998 71.3169C132.241 72.2001 132.387 73.1636 132.437 74.2074C132.488 75.2304 132.477 76.2098 132.405 77.1454C132.354 78.0818 132.276 78.913 132.169 79.6391C132.083 80.3659 132.015 80.864 131.965 81.1334L130.845 80.9411C130.851 80.7537 130.861 80.4622 130.873 80.0666C130.907 79.6508 130.944 79.1725 130.982 78.6318C131.021 78.0703 131.05 77.4876 131.069 76.8837C131.089 76.2799 131.107 75.7176 131.123 75.1971C131.161 74.6564 131.177 74.1774 131.169 73.7603C131.183 73.3439 131.182 73.052 131.166 72.8848C131.206 72.3024 131.109 71.7365 130.877 71.1871C130.644 70.6377 130.324 70.221 129.916 69.9369C129.509 69.632 129.013 69.5223 128.426 69.6077C127.84 69.6723 127.203 70.0583 126.513 70.7657C125.902 71.6216 125.447 72.472 125.149 73.3171C124.852 74.1413 124.648 74.9685 124.538 75.7987C124.429 76.6081 124.37 77.4505 124.363 78.3257C124.357 79.1801 124.328 80.0859 124.276 81.043L123.064 80.8165C123.134 80.5895 123.189 80.1744 123.229 79.5712C123.291 78.9479 123.346 78.2097 123.394 77.3566C123.443 76.4827 123.484 75.5148 123.518 74.4528C123.573 73.3916 123.608 72.2984 123.623 71.1733C123.66 70.028 123.687 68.8825 123.702 67.7365C123.718 66.5906 123.722 65.4964 123.714 64.454C123.727 63.4122 123.726 62.4533 123.712 61.5774C123.72 60.7022 123.722 59.9832 123.719 59.4203L124.745 59.6095ZM133.392 75.6138C133.408 75.1349 133.467 74.5844 133.57 73.9624C133.674 73.3196 133.83 72.6784 134.039 72.0389C134.247 71.3994 134.496 70.7717 134.787 70.1557C135.098 69.5404 135.46 68.9996 135.871 68.5334C136.282 68.0463 136.753 67.6654 137.283 67.3906C137.814 67.0949 138.402 66.9575 139.047 66.9782C139.713 66.9996 140.32 67.2483 140.868 67.7244C141.436 68.2012 141.907 68.8104 142.279 69.5519C142.672 70.294 142.958 71.1161 143.138 72.0182C143.317 72.9202 143.372 73.7975 143.303 74.6498C143.263 75.8992 142.988 77.0055 142.478 77.9688C141.967 78.9321 141.328 79.7037 140.559 80.2835C139.811 80.864 139.006 81.2446 138.146 81.4255C137.306 81.607 136.517 81.5295 135.777 81.1931C135.059 80.8366 134.465 80.2026 133.994 79.2912C133.543 78.3805 133.343 77.1547 133.392 75.6138ZM134.544 75.7758C134.566 77.048 134.753 78.0337 135.106 78.7328C135.458 79.432 135.891 79.9045 136.405 80.1502C136.939 80.3758 137.522 80.3945 138.154 80.2063C138.785 80.0182 139.38 79.6725 139.938 79.1693C140.497 78.6452 140.976 77.9936 141.376 77.2144C141.798 76.415 142.046 75.5162 142.119 74.5181C142.185 73.7698 142.146 73.039 142.002 72.3257C141.879 71.613 141.681 70.9813 141.406 70.4306C141.154 69.8597 140.824 69.4114 140.418 69.0857C140.033 68.7399 139.58 68.5586 139.06 68.5419C138.56 68.5258 138.108 68.6364 137.704 68.8736C137.301 69.1108 136.925 69.4427 136.578 69.8692C136.252 70.2757 135.966 70.7459 135.72 71.28C135.474 71.814 135.258 72.349 135.074 72.8851C134.911 73.4218 134.78 73.9491 134.68 74.467C134.601 74.9647 134.556 75.401 134.544 75.7758ZM145.7 57.4366C145.99 57.4876 146.238 57.5789 146.442 57.7105C146.668 57.822 146.838 58.0255 146.954 58.321C146.941 58.7166 146.934 59.2688 146.932 59.9774C146.952 60.6659 146.957 61.4686 146.948 62.3854C146.961 63.303 146.971 64.2934 146.978 65.3567C146.986 66.4199 146.993 67.4936 147 68.5778C147.007 69.6619 147.004 70.7352 146.99 71.7979C146.998 72.8611 146.998 73.8512 146.989 74.7681C147.001 75.6856 147.006 76.4987 147.005 77.2073C147.003 77.916 147.006 78.458 147.015 78.8335C147.014 78.8752 147.001 78.9477 146.977 79.0511C146.973 79.1553 146.959 79.2799 146.933 79.425C146.929 79.5707 146.914 79.7161 146.888 79.8612C146.884 79.9862 146.881 80.0799 146.879 80.1423C146.854 80.2666 146.839 80.4224 146.833 80.6098C146.827 80.7764 146.801 80.9423 146.754 81.1076C146.707 81.2728 146.629 81.4267 146.521 81.5691C146.433 81.6913 146.285 81.7595 146.076 81.7737L145.566 81.1007C145.546 81.0792 145.527 80.693 145.51 79.9421C145.514 79.171 145.504 78.1806 145.48 76.9708C145.478 75.741 145.48 74.3653 145.487 72.844C145.495 71.3017 145.493 69.7488 145.481 68.1851C145.489 66.6221 145.495 65.1215 145.5 63.6834C145.504 62.2453 145.513 61.0053 145.525 59.9635C145.528 59.8803 145.533 59.7137 145.541 59.4638C145.57 59.2146 145.589 58.9651 145.597 58.7152C145.626 58.4452 145.645 58.1956 145.652 57.9666C145.681 57.7174 145.697 57.5407 145.7 57.4366Z" fill="#88B1D5"/>
<path d="M81.9112 63.192C82.1203 63.3724 82.436 63.3491 82.6164 63.14C82.7968 62.9309 82.7735 62.6152 82.5644 62.4348L81.9112 63.192ZM46.372 78.0599C46.521 78.2924 46.8303 78.36 47.0628 78.211L50.8514 75.7827C51.0838 75.6337 51.1515 75.3244 51.0025 75.0919C50.8535 74.8595 50.5442 74.7918 50.3117 74.9408L46.9441 77.0993L44.7856 73.7317C44.6366 73.4992 44.3273 73.4315 44.0948 73.5805C43.8624 73.7295 43.7947 74.0388 43.9437 74.2713L46.372 78.0599ZM82.5644 62.4348C78.0125 58.5078 70.6884 54.4796 63.5848 55.391C56.3883 56.3144 49.6801 62.2558 46.3045 77.6832L47.2814 77.8969C50.6138 62.6667 57.118 57.2289 63.712 56.3829C70.3988 55.525 77.4431 59.3373 81.9112 63.192L82.5644 62.4348Z" fill="#88B1D5"/>
<path d="M166.138 132.928C155.327 137.928 160.317 141.261 157.822 155.428C155.327 168.761 139.525 173.761 132.039 176.261C124.554 178.761 128.713 191.261 128.713 191.261C100.436 197.094 89.6236 188.761 89.6236 188.761C89.6236 188.761 89.6236 187.928 89.6236 179.594C89.6236 172.094 86.2969 172.928 74.6533 166.261C61.3464 159.594 61.3464 145.428 62.1781 139.594C63.0098 133.761 57.188 130.428 57.188 130.428C57.188 130.428 75.485 134.594 110.416 137.094C145.346 139.594 166.138 132.928 166.138 132.928Z" fill="white" stroke="white" stroke-miterlimit="10" stroke-linecap="round" stroke-linejoin="round"/>
<path d="M72.1582 129.595C74.6533 124.595 77.98 121.261 82.9701 119.595C85.4651 118.761 88.7919 117.928 92.1186 118.761C95.4453 119.595 97.9404 122.095 100.435 124.595C102.93 127.095 103.762 130.428 105.426 133.761" stroke="white" stroke-miterlimit="10" stroke-linecap="round" stroke-linejoin="round"/>
<path d="M109.584 134.595C112.911 129.595 118.733 127.095 124.554 127.095C130.376 127.095 136.198 129.595 139.525 133.761" stroke="white" stroke-miterlimit="10" stroke-linecap="round" stroke-linejoin="round"/>
<path d="M100.435 120.428C102.098 120.428 102.93 118.761 103.762 117.094C104.593 115.428 104.593 113.761 105.425 112.928C106.257 111.261 108.752 110.428 110.415 110.428C112.079 110.428 114.574 111.261 116.237 112.094C121.227 114.594 125.386 118.761 127.049 123.761" stroke="white" stroke-miterlimit="10" stroke-linecap="round" stroke-linejoin="round"/>
<path d="M156.158 134.595C155.327 131.261 154.495 127.928 152.831 124.595C151.168 121.261 148.673 118.761 145.346 117.095C139.525 114.595 132.871 117.095 127.049 119.595" stroke="white" stroke-miterlimit="10" stroke-linecap="round" stroke-linejoin="round"/>
<path d="M0.633301 107.095C2.29667 116.261 2.29667 126.261 3.96003 135.428C5.6234 144.595 8.11845 154.595 14.7719 162.095C21.4254 169.595 30.5739 170.428 41.3858 171.261" stroke="white" stroke-miterlimit="10" stroke-linecap="round" stroke-linejoin="round"/>
<path d="M21.4253 167.928C21.4253 171.261 21.4253 175.428 22.257 178.761C22.257 180.428 22.257 182.094 23.0887 182.928C33.9005 190.428 54.6926 186.261 58.0193 186.261C61.3461 186.261 65.5045 185.428 67.1679 182.928C67.9995 181.261 67.9996 179.594 67.9996 178.761C67.9996 175.428 67.9995 171.261 68.8312 167.928" stroke="white" stroke-miterlimit="10" stroke-linecap="round" stroke-linejoin="round"/>
<path d="M71.3262 164.595C63.841 169.595 51.3658 171.261 42.2173 171.261" stroke="white" stroke-miterlimit="10" stroke-linecap="round" stroke-linejoin="round"/>
<path d="M73.8213 143.761C73.8213 152.928 79.6431 162.928 88.7916 166.261" stroke="#1E1E1E" stroke-miterlimit="10" stroke-linecap="round" stroke-linejoin="round"/>
<path d="M94.6134 145.428C92.9501 152.928 93.7817 160.428 96.2768 167.094" stroke="#1E1E1E" stroke-miterlimit="10" stroke-linecap="round" stroke-linejoin="round"/>
<path d="M112.079 147.095C112.91 154.595 112.91 162.095 112.91 169.595" stroke="#1E1E1E" stroke-miterlimit="10" stroke-linecap="round" stroke-linejoin="round"/>
<path d="M133.703 148.761C133.703 157.095 131.208 165.428 125.386 171.261" stroke="#1E1E1E" stroke-miterlimit="10" stroke-linecap="round" stroke-linejoin="round"/>
<path d="M151.168 147.095C149.505 155.428 144.514 163.761 137.029 168.761" stroke="#1E1E1E" stroke-miterlimit="10" stroke-linecap="round" stroke-linejoin="round"/>
<path d="M89.6235 174.595C102.93 175.428 115.406 176.261 128.713 177.095" stroke="#1E1E1E" stroke-miterlimit="10" stroke-linecap="round" stroke-linejoin="round"/>
<path d="M97.9403 176.261C96.2769 180.428 94.6136 184.595 92.9502 188.761" stroke="#1E1E1E" stroke-miterlimit="10" stroke-linecap="round" stroke-linejoin="round"/>
<path d="M98.772 176.261C101.267 182.095 103.762 187.095 105.425 192.928C106.257 187.928 107.92 182.928 110.416 177.928C112.911 182.095 115.406 187.095 117.901 191.261C119.564 187.095 121.227 182.928 123.722 177.928" stroke="#1E1E1E" stroke-miterlimit="10" stroke-linecap="round" stroke-linejoin="round"/>
<path d="M0.633301 105.428C27.2472 111.261 54.6927 112.094 82.1383 107.928C81.3066 111.261 81.3066 116.261 80.4749 118.761" stroke="white" stroke-miterlimit="10" stroke-linecap="round" stroke-linejoin="round"/>
<path d="M28.559 101.099C32.5482 97.787 35.2077 93.1506 35.8726 88.5142C35.8726 86.5272 35.8726 84.5402 35.2077 82.5532C34.5428 80.5662 32.5482 78.5792 30.5536 77.2545C25.2347 73.2805 17.9212 71.9558 11.9374 68.6441C5.95363 65.3324 -0.0301517 59.3714 0.634713 52.748C1.29958 48.774 3.29417 45.4623 6.6185 42.8129C9.94282 40.1636 13.932 39.5013 17.2563 38.1766C47.1753 30.2285 80.4185 39.5013 108.343 26.9168C112.332 24.9298 116.321 22.9428 118.981 19.6311C121.64 16.3194 123.635 11.6831 122.305 7.70905C121.64 3.73503 117.651 -0.239 112.997 0.423338" stroke="white" stroke-width="0.5" stroke-miterlimit="10" stroke-linecap="round" stroke-linejoin="round"/>
<path d="M42.2173 107.928C47.2074 101.261 51.3658 93.7611 53.0292 85.4277C61.346 89.5944 66.3361 99.5944 64.6727 107.928" stroke="white" stroke-miterlimit="10" stroke-linecap="round" stroke-linejoin="round"/>
<path d="M67.168 107.928C70.4947 102.928 75.4848 98.7614 81.3066 97.0947C78.8115 99.5947 77.1482 103.761 77.9799 107.095" stroke="white" stroke-miterlimit="10" stroke-linecap="round" stroke-linejoin="round"/>
<path d="M53.0293 108.761C56.356 102.095 57.1877 93.7612 53.861 86.2612" stroke="white" stroke-miterlimit="10" stroke-linecap="round" stroke-linejoin="round"/>
<path d="M56.356 101.261C58.0193 100.428 59.6827 99.5946 61.3461 98.7612" stroke="white" stroke-miterlimit="10" stroke-linecap="round" stroke-linejoin="round"/>
</svg>
