<svg width="713" height="480" viewBox="0 0 713 480" fill="none" xmlns="http://www.w3.org/2000/svg">
    <path d="M653.304 397.373C652.253 394.92 650.851 392.818 649.099 390.716C648.048 389.314 645.946 388.263 644.545 389.314C643.494 390.015 643.494 391.417 643.494 392.818C643.494 394.219 643.494 395.621 643.844 397.022C644.545 398.424 645.596 399.475 646.997 399.475C646.297 397.022 645.596 394.57 643.844 392.818C642.092 391.066 639.29 390.365 637.188 391.767C634.735 393.519 635.085 397.022 635.436 399.825C635.436 400.526 635.786 401.226 636.487 401.577C637.188 401.927 638.239 401.577 638.589 400.526C638.939 399.475 638.589 398.774 638.239 398.073C636.837 394.219 632.283 391.767 628.429 392.818C624.575 394.219 622.823 399.475 625.626 402.628C625.976 402.978 626.677 403.328 627.027 403.328C628.078 403.328 629.129 402.628 629.129 401.226C629.48 400.175 628.779 399.124 628.429 398.073C627.027 395.621 624.575 393.519 621.772 392.818C618.969 392.468 615.816 394.219 614.765 397.022C613.714 399.825 614.765 403.328 616.867 405.08C617.568 401.577 616.166 397.723 613.364 395.621C610.561 393.519 606.006 393.869 603.904 396.672C601.802 399.475 603.203 404.38 606.707 405.08C606.707 402.277 606.357 399.475 604.955 397.373C603.554 394.92 601.101 393.168 598.299 393.519C594.445 393.869 591.992 397.373 590.941 400.876C590.591 402.277 589.89 403.679 590.591 404.73C590.941 406.131 592.693 406.832 593.744 405.781C594.094 405.431 594.094 405.08 594.445 404.38C595.145 400.876 594.094 397.373 591.291 395.27C588.489 393.168 584.284 393.519 581.832 395.621C579.38 398.073 579.38 402.628 581.832 404.73C583.934 401.226 582.883 395.971 579.38 393.519C575.876 391.066 570.971 391.767 568.168 394.92C565.365 398.073 565.716 403.329 568.869 406.131C570.971 403.329 570.27 398.774 567.818 396.672C565.015 394.219 560.461 394.57 558.008 397.022C555.556 399.475 555.556 404.029 557.658 406.832C558.008 407.533 558.709 407.883 559.76 407.533C560.461 407.182 560.811 406.131 560.811 405.431C560.811 402.628 558.709 400.175 556.256 398.774C553.804 397.373 551.001 397.022 548.198 396.672" stroke="white" stroke-miterlimit="10" stroke-linecap="round" stroke-linejoin="round"/>
    <path d="M521.223 405.781C518.771 408.233 517.72 411.737 518.771 414.89C518.771 415.241 519.121 415.941 519.471 416.292C520.172 416.642 520.522 415.941 520.873 415.591C521.223 415.241 520.873 414.54 520.873 413.839C520.172 410.336 517.72 407.182 514.566 405.431C513.515 404.73 512.114 404.38 510.713 404.38C508.26 404.73 506.508 406.832 505.457 409.285C504.757 411.036 504.406 412.788 505.107 414.189C505.808 415.941 507.559 416.992 509.311 416.292C509.662 414.89 508.961 413.138 507.91 412.087C506.859 411.036 505.457 409.985 504.406 409.285C501.603 407.533 498.1 406.131 495.297 407.533" stroke="white" stroke-miterlimit="10" stroke-linecap="round" stroke-linejoin="round"/>
    <path d="M471.121 312.938C473.924 323.098 474.975 333.258 476.727 343.769C478.128 352.878 479.88 361.987 481.632 370.746" stroke="white" stroke-miterlimit="10" stroke-linecap="round" stroke-linejoin="round"/>
    <path d="M657.86 385.811C658.911 401.927 662.765 417.693 662.765 434.159C662.765 437.663 662.414 441.517 661.363 445.02C660.312 448.524 658.21 451.326 656.108 454.48C652.955 459.034 649.802 463.589 644.897 466.041C642.795 467.092 639.992 467.793 639.642 470.245C638.941 472.698 641.393 474.8 643.846 475.501C646.298 476.201 648.751 476.201 650.853 476.902C651.904 477.252 652.955 477.953 654.006 478.654C657.86 480.055 661.714 477.252 664.517 474.45C670.823 468.494 676.779 461.136 685.187 458.333C685.888 457.983 686.589 457.983 686.939 457.633C687.289 457.282 687.64 456.582 687.99 455.881C689.041 451.326 685.888 447.122 684.487 442.568C682.384 434.86 682.384 427.152 683.085 419.094C683.786 411.386 685.187 406.131 685.888 398.423" stroke="white" stroke-miterlimit="10" stroke-linecap="round" stroke-linejoin="round"/>
    <path d="M679.582 379.505C681.333 381.607 682.384 383.358 683.085 384.76C685.888 392.117 686.589 397.372 686.589 397.372C686.589 397.372 666.969 384.76 652.604 384.409C638.24 384.059 599.701 360.235 599.701 360.235C599.701 360.235 587.089 352.177 570.272 341.667L564.666 344.82C564.666 344.82 546.448 353.228 529.631 351.126L529.281 351.476C529.281 351.476 553.455 384.059 551.353 412.087C549.251 440.115 554.856 443.269 554.856 443.269C554.856 443.269 527.879 428.554 522.974 408.233C518.42 387.913 512.814 377.052 514.566 362.688L514.916 361.637C514.566 363.038 514.216 364.089 513.515 365.49C511.763 369.344 509.661 372.848 507.209 376.001C499.851 386.862 491.443 398.424 478.83 402.628C478.129 380.205 484.786 354.63 498.8 337.112C498.8 337.112 469.721 315.04 467.969 303.829C467.969 303.829 468.32 302.778 468.67 302.427C481.983 294.019 497.048 285.26 497.048 285.26C497.048 285.26 501.603 283.158 506.858 280.705L508.96 282.107C508.96 282.107 537.339 289.464 568.52 297.873V297.522C568.52 297.522 638.24 244.619 657.86 240.415C657.86 240.415 675.728 227.452 688.34 228.153C700.953 228.853 700.252 225.35 700.252 225.35C700.252 225.35 703.055 228.503 704.106 234.809C705.157 241.116 708.661 260.035 705.508 276.501C702.004 292.968 700.953 321.346 708.661 333.258C716.368 345.17 712.515 370.746 694.647 374.6C676.078 379.154 679.231 379.505 679.582 379.505Z" fill="white"/>
    <path d="M380.731 95.7197C370.921 82.7567 363.213 89.7638 365.666 104.128C367.768 118.493 385.636 122.697 385.636 122.697C385.636 122.697 389.49 133.558 392.993 140.565C396.497 147.572 413.313 151.075 431.181 155.279C449.049 159.484 457.458 150.024 460.261 146.17C463.063 142.316 466.217 131.456 469.019 121.295C473.224 107.632 473.924 95.3694 472.173 90.8148C470.771 85.9099 470.07 70.1441 470.07 70.1441C469.72 62.7867 464.114 61.0349 460.261 65.5895C456.407 70.1441 444.845 70.4944 438.188 68.0419C431.532 65.2391 435.035 63.4874 425.576 65.9398C416.116 68.7427 407.708 61.3853 407.708 61.3853C408.759 80.3042 429.43 71.1951 429.43 71.1951C429.43 71.1951 424.525 79.6035 413.313 80.3043C397.197 81.3553 400 60.6846 400 60.6846C400 60.6846 395.796 65.2391 398.248 78.2021C400.701 91.1652 385.636 105.53 385.636 105.53C385.636 105.53 384.935 100.975 380.731 95.7197Z" stroke="white" stroke-miterlimit="10" stroke-linecap="round" stroke-linejoin="round"/>
    <path d="M470.071 71.5454C470.071 71.5454 479.18 79.6035 477.778 86.2602C477.778 86.2602 485.486 76.4503 479.18 66.2901C479.18 66.2901 483.734 66.2901 485.837 71.1951C485.837 71.1951 486.888 60.3341 481.983 56.1299C481.983 56.1299 481.983 56.1299 481.632 55.7796C481.632 55.7796 479.881 53.3271 483.734 54.3782C483.734 54.3782 485.136 43.5173 483.034 42.4662C483.034 42.4662 474.976 34.7585 472.874 30.2039C465.166 12.336 449.05 11.2849 441.342 10.9346C433.634 10.5842 428.729 -0.276657 403.854 1.12475C378.979 2.52616 374.775 18.6423 374.775 18.6423C374.775 18.6423 354.805 10.5842 349.199 44.5683C347.448 55.7796 362.863 90.4644 364.965 94.3183" stroke="white" stroke-miterlimit="10" stroke-linecap="round" stroke-linejoin="round"/>
    <path d="M426.979 98.1721C426.278 98.1721 425.928 98.1721 425.227 98.1721C420.673 98.5225 412.264 104.128 410.512 104.478" stroke="white" stroke-miterlimit="10" stroke-linecap="round" stroke-linejoin="round"/>
    <path d="M444.146 97.1208C444.146 97.1208 432.584 97.8215 426.978 98.1719" stroke="white" stroke-miterlimit="10" stroke-linecap="round" stroke-linejoin="round"/>
    <path d="M440.292 105.179C440.292 105.179 436.788 110.785 430.482 109.734C424.526 108.683 421.723 107.632 419.621 107.982" stroke="white" stroke-miterlimit="10" stroke-linecap="round" stroke-linejoin="round"/>
    <path d="M467.969 88.0121C467.969 88.0121 465.867 88.0121 463.064 89.0632C460.261 90.1142 456.057 97.1212 456.407 98.873C456.407 100.625 462.013 118.493 462.713 120.595C463.414 122.697 463.414 124.799 462.013 126.551C460.261 128.303 457.458 128.303 455.006 127.251C452.203 126.2 446.247 129.704 444.495 127.602C442.393 125.85 442.043 118.493 450.101 118.493" stroke="white" stroke-miterlimit="10" stroke-linecap="round" stroke-linejoin="round"/>
    <path d="M382.833 110.084C382.833 110.084 377.227 109.384 378.278 101.676C378.629 98.5227 369.87 90.1143 369.169 95.7199C368.469 101.326 368.469 105.179 370.22 106.931" stroke="white" stroke-miterlimit="10" stroke-linecap="round" stroke-linejoin="round"/>
    <path d="M433.635 155.98C433.635 155.98 425.577 156.331 428.379 171.396" stroke="white" stroke-miterlimit="10" stroke-linecap="round" stroke-linejoin="round"/>
    <path d="M362.863 140.915C368.469 140.214 376.877 142.667 379.33 140.214C385.286 133.908 378.279 119.894 378.279 119.894" stroke="white" stroke-miterlimit="10" stroke-linecap="round" stroke-linejoin="round"/>
    <path d="M349.551 236.211C349.551 236.211 323.274 194.869 307.859 195.57C292.443 196.621 291.743 198.373 291.743 198.373C296.297 185.059 306.107 173.848 317.318 164.389" stroke="white" stroke-miterlimit="10" stroke-linecap="round" stroke-linejoin="round"/>
    <path d="M422.423 201.526L419.621 178.403C419.621 178.403 381.432 171.045 373.374 140.915" stroke="white" stroke-miterlimit="10" stroke-linecap="round" stroke-linejoin="round"/>
    <path d="M291.392 198.373C291.392 198.373 290.691 333.959 333.084 367.943C337.288 371.446 339.74 374.249 356.557 372.848" stroke="white" stroke-miterlimit="10" stroke-linecap="round" stroke-linejoin="round"/>
    <path d="M354.104 255.13C354.104 255.13 364.965 306.281 364.264 310.485" stroke="white" stroke-miterlimit="10" stroke-linecap="round" stroke-linejoin="round"/>
    <path d="M356.907 353.579C356.907 353.579 361.812 370.396 374.074 374.95C374.074 374.95 367.768 380.205 361.462 377.052C355.155 373.899 339.039 360.235 346.397 328.353C346.397 328.353 346.046 319.945 359.009 315.741C371.972 311.536 379.33 312.237 379.33 312.237C379.33 312.237 367.067 327.302 373.023 344.119C378.629 360.586 386.687 367.943 396.146 360.936C396.146 360.936 386.687 372.848 373.023 374.6" stroke="white" stroke-miterlimit="10" stroke-linecap="round" stroke-linejoin="round"/>
    <path d="M379.33 312.587C406.307 308.033 429.431 291.216 434.336 284.91C439.24 278.603 436.087 276.501 437.489 265.29C438.89 254.079 452.904 233.758 459.911 230.605C466.918 227.452 468.67 221.146 472.524 220.795C476.378 220.445 479.181 223.948 476.728 232.007C474.276 240.065 464.466 247.422 464.466 247.422C464.466 247.422 479.881 241.466 486.888 232.707C493.895 223.948 500.202 208.883 501.953 208.183C503.705 207.482 508.96 206.781 508.96 211.686C508.96 216.591 497.749 243.218 493.895 247.072" stroke="white" stroke-miterlimit="10" stroke-linecap="round" stroke-linejoin="round"/>
    <path d="M495.997 244.619C502.654 243.218 533.484 225.35 533.484 225.35C533.484 225.35 539.44 222.547 539.44 228.503C539.44 234.459 515.617 254.429 505.456 260.035" stroke="white" stroke-miterlimit="10" stroke-linecap="round" stroke-linejoin="round"/>
    <path d="M503.704 272.998C503.704 272.998 525.075 264.94 532.082 258.283C545.045 245.67 548.899 245.67 541.542 241.816C536.637 239.014 530.33 247.422 517.367 251.626" stroke="white" stroke-miterlimit="10" stroke-linecap="round" stroke-linejoin="round"/>
    <path d="M467.969 95.3693C467.268 96.07 466.918 96.7707 466.217 97.4714C464.465 99.5735 461.662 99.9238 458.86 100.274C458.159 100.274 457.458 100.274 457.458 100.975" stroke="white" stroke-miterlimit="10" stroke-linecap="round" stroke-linejoin="round"/>
    <path d="M438.19 107.281C438.54 107.632 438.54 107.982 438.891 107.982C438.54 107.982 437.84 107.632 437.489 107.632C437.489 108.332 437.84 108.683 438.19 109.033C437.84 109.033 437.489 108.683 437.139 108.683C436.789 108.332 436.088 108.332 436.088 108.683C435.737 109.383 436.788 109.734 436.788 110.434C436.438 109.734 435.737 109.033 434.686 109.033H434.336C433.986 109.033 433.986 109.383 433.986 109.734C433.986 110.084 433.986 110.785 433.986 111.135C433.635 110.785 433.285 110.434 432.935 110.084C432.935 110.084 432.584 109.734 432.234 109.734C431.884 109.734 431.533 110.084 431.884 110.785C431.884 111.135 432.234 111.485 432.234 111.836C431.533 111.485 431.183 110.785 430.833 110.434C430.482 110.084 429.431 109.734 429.081 110.084C429.081 110.785 429.431 111.485 429.431 111.836C429.081 111.135 429.081 110.785 428.73 110.084C428.73 110.084 428.73 109.734 428.38 109.734C428.03 109.383 427.679 109.734 427.329 109.734C426.979 110.084 426.979 110.434 426.979 110.785C426.979 110.084 426.979 109.734 426.628 109.383C426.278 109.033 425.227 109.383 425.577 110.084" stroke="white" stroke-miterlimit="10" stroke-linecap="round" stroke-linejoin="round"/>
    <path d="M466.567 96.7708C466.917 97.1211 467.268 97.8218 467.618 98.1722C467.268 98.1722 466.917 97.8218 466.217 97.8218C465.866 98.1722 465.866 98.5225 466.217 98.5225C466.217 98.8729 466.567 98.8729 466.917 99.2232C466.567 99.2232 466.217 98.8729 465.516 98.8729H465.166C464.815 98.8729 465.166 99.2232 465.166 99.5736C465.166 99.9239 465.516 100.274 465.516 100.625C465.166 100.274 464.465 99.9239 463.764 99.5736C463.414 99.5736 463.414 99.5736 463.064 99.5736V99.9239C463.064 100.274 463.414 100.625 463.414 100.975C463.064 100.625 462.713 100.274 462.363 100.274C462.013 99.9239 461.662 99.9239 461.312 100.274C460.961 100.625 460.961 100.975 460.961 101.676C460.611 101.325 459.91 100.975 459.21 100.975" stroke="white" stroke-miterlimit="10" stroke-linecap="round" stroke-linejoin="round"/>
    <path d="M430.832 157.031C430.832 157.031 434.335 172.096 429.781 175.95L438.54 206.081" stroke="white" stroke-miterlimit="10" stroke-linecap="round" stroke-linejoin="round"/>
    <path d="M305.055 312.587C305.055 312.587 298.398 382.307 295.946 399.825" stroke="white" stroke-miterlimit="10" stroke-linecap="round" stroke-linejoin="round"/>
    <path d="M432.233 331.156C432.233 331.156 436.787 421.547 438.188 433.459" stroke="white" stroke-miterlimit="10" stroke-linecap="round" stroke-linejoin="round"/>
    <path d="M485.486 45.6198C485.486 45.6198 504.055 39.3135 524.025 48.4226C543.644 57.8821 551.002 92.9173 549.6 100.625C549.6 100.625 559.76 105.18 557.308 115.34C554.856 125.5 548.9 141.266 548.9 141.266C548.9 141.266 546.447 147.222 540.141 148.974" stroke="white" stroke-miterlimit="10" stroke-linecap="round" stroke-linejoin="round"/>
    <path d="M473.088 93.7837C473.088 93.7837 487.939 107.982 501.953 111.135C515.967 113.938 507.208 129.353 512.464 132.506C517.719 135.66 524.726 137.411 522.273 145.469C522.273 145.469 528.58 134.258 522.624 130.755C517.018 127.251 529.28 118.492 529.28 118.492C529.28 118.492 533.134 107.631 540.492 109.033C547.849 110.434 549.951 125.149 544.696 132.506C539.441 139.864 543.295 145.469 537.339 146.52C537.339 146.52 542.244 163.688 545.046 166.491" stroke="white" stroke-miterlimit="10" stroke-linecap="round" stroke-linejoin="round"/>
    <path d="M533.484 125.149C533.484 125.149 534.535 113.237 539.44 115.339C544.345 117.441 541.892 125.85 541.892 125.85" stroke="white" stroke-miterlimit="10" stroke-linecap="round" stroke-linejoin="round"/>
    <path d="M532.434 54.3787C532.434 54.3787 559.761 52.2766 563.965 70.8452C568.17 89.4138 550.302 93.618 550.302 93.618" stroke="white" stroke-miterlimit="10" stroke-linecap="round" stroke-linejoin="round"/>
    <path d="M496.347 126.2C496.347 126.2 483.034 123.047 480.231 123.047C477.428 123.047 473.925 125.85 472.173 125.149C470.421 124.799 470.421 122.347 470.421 122.347" stroke="white" stroke-miterlimit="10" stroke-linecap="round" stroke-linejoin="round"/>
    <path d="M473.705 133.292C473.705 133.292 475.268 136.417 479.956 136.417C484.644 136.105 488.395 135.48 489.645 135.48" stroke="white" stroke-miterlimit="10" stroke-linecap="round" stroke-linejoin="round"/>
    <path d="M474.33 134.542C474.018 135.48 473.08 136.417 471.83 137.042C473.08 136.73 474.018 136.105 474.643 135.167C474.955 135.48 474.643 136.105 474.33 136.73C473.705 137.667 473.046 138.113 471.517 139.23C472.768 138.293 472.863 138.459 475.532 135.627C475.844 136.877 474.955 138.918 473.705 139.855C474.33 139.543 474.955 138.918 475.268 137.98C475.581 137.668 475.769 136.836 476.082 136.524C476.394 135.898 476.518 136.417 476.831 136.417C477.143 137.668 476.831 139.23 475.893 140.48C476.206 139.543 476.831 138.605 477.143 137.668C477.456 137.355 477.412 136.544 478.037 136.544C478.35 137.794 478.393 139.23 478.393 140.48C478.393 139.23 478.057 137.543 478.995 136.605L479.956 136.73C480.269 136.73 480.441 136.985 480.441 137.298C480.441 138.235 480.581 138.918 480.581 139.855C480.581 139.23 480.581 138.918 480.581 138.293C480.581 137.667 480.529 137.019 481.154 136.707L482.051 136.666C482.051 136.666 481.901 137.196 482.214 137.196C482.526 137.821 482.316 138.581 482.769 139.543C482.457 138.918 482.411 137.78 482.723 137.155C482.723 136.843 483.082 136.73 483.394 136.73C483.394 136.73 483.707 136.73 483.707 137.042C483.966 137.603 484.21 137.705 484.645 137.98" stroke="white" stroke-miterlimit="10" stroke-linecap="round" stroke-linejoin="round"/>
    <path d="M488.639 138.112C492.143 137.762 495.996 138.112 499.5 139.864" stroke="white" stroke-miterlimit="10" stroke-linecap="round" stroke-linejoin="round"/>
    <path d="M463.065 139.864C463.065 139.864 463.765 147.222 462.014 149.324C460.262 151.426 460.963 157.031 462.364 157.732C463.765 158.433 467.97 159.133 469.371 159.133C470.772 159.133 471.824 155.98 475.327 156.331C478.831 156.681 484.787 153.528 482.334 150.375" stroke="white" stroke-miterlimit="10" stroke-linecap="round" stroke-linejoin="round"/>
    <path d="M482.333 151.075C482.333 151.075 483.734 154.579 488.989 156.331C492.143 157.382 497.048 158.433 497.398 162.637C497.748 166.841 496.347 169.994 499.5 175.6" stroke="white" stroke-miterlimit="10" stroke-linecap="round" stroke-linejoin="round"/>
    <path d="M456.408 150.024C456.408 150.024 455.357 162.286 458.51 167.191C461.663 172.096 470.422 179.103 471.473 186.461C472.524 193.818 482.684 193.818 482.684 193.818" stroke="white" stroke-miterlimit="10" stroke-linecap="round" stroke-linejoin="round"/>
    <path d="M469.721 167.892C470.422 171.045 480.932 172.447 485.837 169.994" stroke="white" stroke-miterlimit="10" stroke-linecap="round" stroke-linejoin="round"/>
    <path d="M489.34 172.096C489.34 172.096 482.684 177.352 476.728 176.301C470.772 175.25 468.67 172.447 468.319 170.345C467.969 168.243 469.721 168.243 469.721 168.243C467.619 167.892 466.567 166.141 466.567 166.141C467.969 166.841 469.721 166.141 471.472 166.141C472.523 166.141 473.575 166.841 474.626 166.841C475.326 166.841 476.027 166.841 476.728 166.491C478.479 166.491 479.881 166.841 481.633 167.192C483.735 167.542 485.837 167.892 487.939 167.542" stroke="white" stroke-miterlimit="10" stroke-linecap="round" stroke-linejoin="round"/>
    <path d="M462.363 158.432C462.363 158.432 459.56 161.586 461.312 163.688" stroke="white" stroke-miterlimit="10" stroke-linecap="round" stroke-linejoin="round"/>
    <path d="M454.656 233.057C454.656 229.904 450.101 207.832 450.101 207.832C450.101 207.832 456.758 205.38 466.918 200.124C477.078 195.219 520.171 184.008 520.171 184.008C520.171 184.008 534.185 165.44 555.207 164.389C575.877 163.337 604.256 164.739 618.62 184.709C632.985 204.679 634.736 249.874 634.736 249.874" stroke="white" stroke-miterlimit="10" stroke-linecap="round" stroke-linejoin="round"/>
    <path d="M621.072 234.109C621.072 234.109 596.197 249.524 580.431 254.78C561.162 261.086 529.981 265.64 529.981 265.64" stroke="white" stroke-miterlimit="10" stroke-linecap="round" stroke-linejoin="round"/>
    <path d="M450.101 208.883C450.101 208.883 394.745 197.672 379.33 177.702C363.914 157.382 364.264 147.922 362.513 140.214C360.761 132.507 355.856 127.602 351.652 127.602C347.448 127.602 343.243 129.704 343.243 129.704C343.243 129.704 335.886 124.799 330.631 133.207C330.631 133.207 327.478 131.456 323.624 132.857C319.77 134.258 320.471 139.514 320.471 139.514C320.471 139.514 317.317 138.813 315.566 139.864C313.814 140.915 311.011 144.769 313.463 147.922C313.463 147.922 306.456 151.075 308.208 155.98C309.96 160.535 327.828 170.695 336.236 175.25C354.455 186.111 369.52 220.095 395.446 236.911C421.021 253.378 439.59 259.684 439.59 259.684" stroke="white" stroke-miterlimit="10" stroke-linecap="round" stroke-linejoin="round"/>
    <path d="M429.079 290.165C429.079 290.165 427.327 262.487 424.875 253.378" stroke="white" stroke-miterlimit="10" stroke-linecap="round" stroke-linejoin="round"/>
    <path d="M528.93 160.885C528.93 160.885 513.514 182.607 498.099 189.964" stroke="white" stroke-miterlimit="10" stroke-linecap="round" stroke-linejoin="round"/>
    <path d="M634.386 172.096C636.488 158.082 642.444 139.514 654.706 134.959C666.969 130.405 686.588 130.755 703.405 143.718C720.222 156.681 708.66 182.257 708.66 182.257C705.858 189.264 702.004 195.57 697.449 201.526C700.953 196.971 702.704 190.665 701.653 184.709C700.953 181.906 699.902 179.103 699.902 176.301C699.551 173.848 700.252 171.396 699.902 168.943C699.551 166.491 698.5 164.038 696.398 162.987C697.449 166.14 696.398 170.345 693.595 172.096C694.646 170.695 693.946 168.593 692.544 167.191C691.143 165.79 689.741 165.089 687.99 164.389C686.238 163.338 684.486 161.936 683.085 160.535C684.136 164.038 683.435 167.542 681.683 170.695C681.333 168.593 680.983 166.14 679.932 164.389C678.881 162.637 677.129 160.885 674.676 160.535C673.976 164.038 673.976 167.892 674.676 171.396C670.122 169.294 666.618 165.44 665.567 160.535C664.166 162.287 663.115 164.038 662.414 166.14C661.713 168.243 662.064 170.695 663.815 172.447C659.962 170.695 656.808 166.841 655.407 162.637C654.356 159.484 654.706 156.331 654.006 153.177C653.305 150.024 652.254 146.871 649.451 145.119C649.451 145.119 648.4 148.623 643.845 152.477C638.24 157.031 634.386 172.096 634.386 172.096Z" fill="white"/>
    <path d="M691.494 214.138C688.34 221.846 675.027 229.904 670.823 230.255C666.619 230.605 659.612 234.459 655.758 233.758C651.904 233.057 643.846 231.306 643.145 228.853C642.094 226.401 632.635 217.292 631.934 212.036C631.233 206.781 632.284 184.359 632.985 182.256C633.335 180.154 634.737 172.096 634.737 172.096" stroke="white" stroke-miterlimit="10" stroke-linecap="round" stroke-linejoin="round"/>
    <path d="M702.003 195.921C702.003 195.921 706.558 192.767 707.959 194.869C709.36 196.972 707.959 199.774 703.054 205.73C698.149 211.686 700.952 214.139 692.894 215.19C691.843 215.19 692.193 214.489 692.193 214.489" stroke="white" stroke-miterlimit="10" stroke-linecap="round" stroke-linejoin="round"/>
    <path d="M651.903 185.409C649.801 184.008 647.349 182.607 644.896 181.205C642.444 180.154 639.991 179.453 637.189 179.453" stroke="white" stroke-miterlimit="10" stroke-linecap="round" stroke-linejoin="round"/>
    <path d="M666.267 191.716C672.574 191.716 679.23 192.066 684.836 194.519" stroke="white" stroke-miterlimit="10" stroke-linecap="round" stroke-linejoin="round"/>
    <path d="M646.998 209.584C646.298 209.234 646.298 208.533 646.298 207.832V207.482H646.648C647.349 207.482 648.049 207.131 648.75 207.482C649.451 208.182 649.451 209.234 650.152 209.934C650.852 210.985 652.254 210.985 653.305 211.336C654.356 211.336 655.407 211.336 656.458 211.336C657.159 211.336 657.859 211.336 658.21 211.336C658.56 211.336 659.261 212.036 659.261 212.737C659.261 213.438 658.56 214.138 657.859 213.788" stroke="white" stroke-miterlimit="10" stroke-linecap="round" stroke-linejoin="round"/>
    <path d="M659.962 222.547C658.561 222.547 657.51 222.197 656.459 221.496C655.057 220.445 654.357 219.044 652.605 218.693C651.554 218.693 650.503 219.044 649.802 218.693C649.101 218.343 649.101 217.642 648.401 217.292C647.7 216.941 647.35 216.941 646.649 217.292C644.897 217.292 642.795 216.941 641.394 215.89C645.248 219.744 650.853 221.146 656.459 222.197" stroke="white" stroke-miterlimit="10" stroke-linecap="round" stroke-linejoin="round"/>
    <path d="M651.552 223.949C650.851 223.949 649.8 223.598 649.099 223.248C648.399 222.897 647.698 222.897 646.997 222.897C646.296 222.897 645.596 222.197 645.245 221.846" stroke="white" stroke-miterlimit="10" stroke-linecap="round" stroke-linejoin="round"/>
    <path d="M675.727 198.022C676.078 198.723 675.727 199.774 675.027 200.124C674.326 200.475 673.625 200.825 672.924 200.825C672.224 200.825 671.873 200.825 671.173 200.825C670.472 200.475 670.122 199.424 670.122 198.723C670.122 198.022 670.122 197.321 670.822 196.971" stroke="white" stroke-miterlimit="10" stroke-linecap="round" stroke-linejoin="round"/>
    <path d="M647.699 189.964C647.349 190.665 646.999 191.366 646.298 191.716C645.597 192.067 644.546 192.067 643.845 191.716C643.145 191.366 642.444 190.665 642.444 189.614C642.444 189.264 642.444 188.913 642.794 188.563C642.794 188.213 643.145 187.862 643.145 187.512" stroke="white" stroke-miterlimit="10" stroke-linecap="round" stroke-linejoin="round"/>
    <path d="M649.8 192.417C649.1 190.315 647.348 188.213 645.246 187.512C643.144 186.811 640.691 186.811 638.239 187.512" stroke="white" stroke-miterlimit="10" stroke-linecap="round" stroke-linejoin="round"/>
    <path d="M646.648 193.117C644.546 193.117 642.794 192.417 641.393 191.015" stroke="white" stroke-miterlimit="10" stroke-linecap="round" stroke-linejoin="round"/>
    <path d="M668.371 197.322C669.071 196.971 670.123 196.971 670.823 196.621C671.174 196.621 671.874 196.271 672.225 196.271C672.925 196.271 673.626 196.621 674.327 196.621C676.429 197.322 678.531 198.373 680.283 199.424" stroke="white" stroke-miterlimit="10" stroke-linecap="round" stroke-linejoin="round"/>
    <path d="M675.377 201.526C673.626 201.526 671.524 201.526 669.772 200.475C669.421 200.125 669.071 200.125 668.721 199.774" stroke="white" stroke-miterlimit="10" stroke-linecap="round" stroke-linejoin="round"/>
    <path d="M508.609 282.107C508.609 282.107 630.531 313.989 648.399 320.645" stroke="#1E1E1E" stroke-miterlimit="10" stroke-linecap="round" stroke-linejoin="round"/>
    <path d="M635.787 361.637C635.787 361.637 597.248 350.075 563.264 326.251C529.28 302.427 504.054 282.107 504.054 282.107C504.054 282.107 543.995 297.172 568.519 304.88C592.693 312.587 634.736 337.112 634.736 337.112" stroke="#1E1E1E" stroke-miterlimit="10" stroke-linecap="round" stroke-linejoin="round"/>
    <path d="M564.316 344.82C564.316 344.82 541.543 355.681 523.325 349.725C505.107 343.769 470.071 322.047 467.619 304.179" stroke="#1E1E1E" stroke-miterlimit="10" stroke-linecap="round" stroke-linejoin="round"/>
    <path d="M545.745 326.251C545.745 326.251 506.155 324.85 493.543 331.857" stroke="#1E1E1E" stroke-miterlimit="10" stroke-linecap="round" stroke-linejoin="round"/>
    <path d="M476.377 297.873C476.377 297.873 492.143 326.601 503.704 328.703" stroke="#1E1E1E" stroke-miterlimit="10" stroke-linecap="round" stroke-linejoin="round"/>
    <path d="M514.916 346.922C515.967 352.878 515.617 360.235 513.165 365.841C511.413 369.695 509.311 373.198 506.858 376.351C499.501 387.212 491.093 398.774 478.48 402.978C477.779 380.556 483.034 357.082 497.049 339.565" stroke="#1E1E1E" stroke-miterlimit="10" stroke-linecap="round" stroke-linejoin="round"/>
    <path d="M528.929 351.477C528.929 351.477 553.103 384.059 551.001 412.087C548.548 440.116 554.504 443.269 554.504 443.269C554.504 443.269 527.527 428.554 522.622 408.234C518.068 387.913 512.462 377.052 514.214 362.688" stroke="#1E1E1E" stroke-miterlimit="10" stroke-linecap="round" stroke-linejoin="round"/>
    <path d="M568.169 297.873C568.169 297.873 637.889 244.97 657.509 240.765C657.509 240.765 675.377 227.802 687.989 228.503C700.602 229.204 699.901 225.7 699.901 225.7C699.901 225.7 702.704 228.853 703.755 235.16C704.806 241.466 708.31 260.385 705.156 276.852C701.653 293.318 700.602 321.697 708.31 333.608C716.017 345.52 712.163 371.096 694.296 374.95C676.428 378.804 680.632 380.556 680.632 380.556" stroke="#1E1E1E" stroke-miterlimit="10" stroke-linecap="round" stroke-linejoin="round"/>
    <path d="M655.406 354.63C655.406 354.63 680.281 377.753 683.084 385.461C685.887 393.168 686.587 398.073 686.587 398.073C686.587 398.073 666.968 385.461 652.603 385.11C638.239 384.76 599.7 360.936 599.7 360.936C599.7 360.936 495.646 293.668 485.836 292.617" stroke="#1E1E1E" stroke-miterlimit="10" stroke-linecap="round" stroke-linejoin="round"/>
    <path d="M488.64 397.022C491.092 405.781 494.245 414.54 497.399 422.948C507.559 423.649 517.719 422.598 527.529 419.795" stroke="white" stroke-miterlimit="10" stroke-linecap="round" stroke-linejoin="round"/>
    <path d="M552.754 417.693C569.921 411.387 589.191 411.387 607.409 410.686C625.978 409.635 643.846 408.233 658.911 397.022" stroke="white" stroke-miterlimit="10" stroke-linecap="round" stroke-linejoin="round"/>
    <path d="M460.611 134.259C458.159 135.31 457.108 134.609 455.356 134.959C455.006 134.959 454.655 135.66 454.305 136.01C453.604 136.711 452.553 136.361 451.502 136.361C450.101 136.361 448.699 137.061 447.648 137.762C444.846 139.163 442.043 140.215 438.89 140.565" stroke="white" stroke-miterlimit="10" stroke-linecap="round" stroke-linejoin="round"/>
    <path d="M459.56 137.762C459.56 137.762 456.407 142.317 446.947 141.966" stroke="white" stroke-miterlimit="10" stroke-linecap="round" stroke-linejoin="round"/>
    <path d="M428.028 137.762C427.328 134.959 426.977 131.806 425.226 129.704C423.824 127.952 422.072 126.901 419.97 125.85C418.569 125.149 416.817 124.448 415.416 123.397" stroke="white" stroke-miterlimit="10" stroke-linecap="round" stroke-linejoin="round"/>
    <path d="M421.022 189.614C421.022 189.614 375.477 183.658 365.317 152.126" stroke="white" stroke-miterlimit="10" stroke-linecap="round" stroke-linejoin="round"/>
    <path d="M432.584 185.41C432.584 185.41 445.547 185.41 441.693 156.33" stroke="white" stroke-miterlimit="10" stroke-linecap="round" stroke-linejoin="round"/>
    <path d="M414.016 186.111C415.768 185.41 417.169 183.658 417.169 181.906C417.169 181.556 417.169 181.206 416.819 180.855C416.468 180.505 416.118 180.505 415.768 180.505C415.417 180.855 415.417 181.206 415.417 181.556C415.417 182.257 415.417 182.957 415.417 183.658C415.417 184.359 415.768 185.059 416.468 185.41C416.819 185.76 416.819 185.76 417.169 185.76C417.52 185.76 417.87 186.111 418.22 186.111" stroke="white" stroke-miterlimit="10" stroke-linecap="round" stroke-linejoin="round"/>
    <path d="M409.46 184.709C409.109 184.008 408.759 183.308 408.409 182.607C408.058 181.906 407.708 181.206 407.708 180.505C407.708 179.804 407.708 178.753 408.409 178.403C408.409 178.403 408.759 178.052 409.109 178.052C409.46 178.052 409.46 178.403 409.81 178.403C409.81 178.753 409.81 178.753 409.81 179.104C409.81 179.454 409.81 179.804 409.81 180.155C409.81 180.505 409.81 180.855 409.81 181.206C409.81 181.556 409.46 181.556 409.46 181.906C408.409 182.957 407.358 183.658 405.956 183.658" stroke="white" stroke-miterlimit="10" stroke-linecap="round" stroke-linejoin="round"/>
    <path d="M402.103 182.256C401.753 182.256 401.753 182.256 402.103 182.256ZM402.103 182.256C400.001 181.205 398.95 179.103 398.6 177.001C398.6 176.3 398.6 175.6 398.95 174.899C399.3 174.198 400.001 173.848 400.702 173.848H401.052C401.052 173.848 401.052 174.198 401.402 174.198C401.753 175.249 401.402 175.95 401.052 177.001C400.702 177.702 400.001 178.403 399.3 179.103C398.6 179.454 398.249 179.804 397.548 179.804C396.848 179.804 396.147 179.804 395.797 179.454" stroke="white" stroke-miterlimit="10" stroke-linecap="round" stroke-linejoin="round"/>
    <path d="M391.592 177.702C389.84 175.951 389.139 172.797 390.541 170.345C390.891 169.995 391.241 169.294 391.592 169.294C391.942 169.294 392.643 169.644 392.643 169.995C392.993 171.046 392.643 172.097 391.942 172.797C391.241 173.498 390.19 173.848 389.139 174.199C388.088 174.549 386.687 174.549 385.986 173.498" stroke="white" stroke-miterlimit="10" stroke-linecap="round" stroke-linejoin="round"/>
    <path d="M382.833 171.746C382.133 171.746 381.432 170.695 381.432 169.644C381.082 168.242 380.731 166.841 381.082 165.44C381.432 164.739 381.782 164.038 382.133 163.688C382.483 163.338 383.184 163.338 383.534 163.688H383.884V164.038C383.884 164.739 384.235 165.089 383.884 165.79C383.534 166.14 383.184 166.491 382.483 166.491C381.782 166.841 381.082 167.191 380.731 167.191C380.03 167.542 378.979 167.892 378.279 167.542C377.578 167.191 377.228 166.841 377.228 166.14" stroke="white" stroke-miterlimit="10" stroke-linecap="round" stroke-linejoin="round"/>
    <path d="M373.724 163.337C373.724 162.637 373.373 161.936 373.373 161.235C373.373 160.184 373.724 158.783 374.424 158.082C374.775 157.381 375.476 157.031 376.176 156.681C376.527 156.681 376.877 156.33 377.227 156.33C377.578 156.33 377.928 156.33 378.278 156.681C378.278 157.031 378.278 157.382 377.928 157.732C377.578 158.082 377.227 158.082 376.877 158.433C375.826 158.783 374.775 159.484 373.373 159.484C373.023 159.484 372.322 159.834 371.972 159.484C371.622 159.133 370.921 159.133 370.571 158.783C370.571 158.783 370.571 158.783 370.921 158.433" stroke="white" stroke-miterlimit="10" stroke-linecap="round" stroke-linejoin="round"/>
    <path d="M369.17 154.579C368.819 154.228 369.17 153.528 369.52 153.177C369.871 152.827 370.221 152.126 370.571 151.776C370.922 151.075 371.622 150.725 371.973 150.374C372.673 150.024 373.374 149.674 374.075 149.674C374.075 150.024 374.425 150.725 374.075 151.075C373.724 151.425 373.374 151.776 373.024 151.776C371.973 152.126 370.922 152.477 369.871 152.477C369.52 152.477 369.17 152.477 368.819 152.477C368.469 152.477 368.119 152.126 367.768 151.776C367.418 151.075 367.768 150.725 367.768 150.024" stroke="white" stroke-miterlimit="10" stroke-linecap="round" stroke-linejoin="round"/>
    <path d="M367.068 146.521C366.718 145.47 367.068 144.419 368.119 143.718M368.119 143.718C368.469 143.368 369.17 143.368 369.52 143.017C369.871 143.017 370.571 142.667 370.922 142.667C371.272 142.667 371.623 142.667 371.623 142.667C371.973 142.667 371.973 143.017 372.323 143.017C372.323 143.368 372.323 143.718 371.973 143.718C371.623 143.718 371.272 144.068 370.922 144.068C369.871 144.068 368.82 144.068 368.119 143.718ZM368.119 143.718C367.769 143.368 367.769 143.368 367.418 143.017C367.068 142.317 366.367 141.966 366.017 141.266" stroke="white" stroke-miterlimit="10" stroke-linecap="round" stroke-linejoin="round"/>
    <path d="M438.891 174.899C438.54 175.6 437.489 176.301 436.788 176.301C435.737 176.651 435.037 176.301 433.986 176.301C433.635 176.301 432.935 175.95 432.935 175.6C432.935 175.25 433.635 174.899 433.986 174.899C435.737 174.899 436.789 176.301 437.139 178.052C437.139 178.403 437.139 178.403 437.139 178.753C437.139 179.104 436.788 179.454 436.438 179.454C436.088 179.454 435.737 179.454 435.387 179.454V179.103" stroke="white" stroke-miterlimit="10" stroke-linecap="round" stroke-linejoin="round"/>
    <path d="M438.89 166.491C439.241 166.491 439.241 166.841 439.591 167.192C439.591 167.892 438.89 168.943 438.19 169.294C437.489 169.644 436.438 169.644 435.737 169.644C435.387 169.644 435.036 169.644 435.036 169.644C434.686 169.644 434.686 169.294 434.686 168.943C434.686 168.593 435.387 168.243 435.737 168.243C436.788 168.243 438.19 168.593 439.241 168.943C439.591 168.943 439.941 169.294 440.292 169.644C440.642 169.994 440.642 170.345 440.642 170.695C440.642 171.045 439.941 171.396 439.591 171.045" stroke="white" stroke-miterlimit="10" stroke-linecap="round" stroke-linejoin="round"/>
    <path d="M438.889 159.134C439.59 159.134 439.59 159.834 439.59 160.535C439.59 161.236 438.889 161.936 438.189 162.287C437.488 162.637 436.787 162.637 435.736 162.987C435.386 162.987 435.036 162.987 434.685 162.987C434.335 162.987 433.984 162.637 434.335 162.287C434.335 161.936 434.685 161.586 435.036 161.586C436.087 161.236 437.138 161.236 438.189 161.586C439.24 161.936 439.94 162.637 439.94 163.688" stroke="white" stroke-miterlimit="10" stroke-linecap="round" stroke-linejoin="round"/>
    <path d="M339.041 337.813C335.888 334.309 335.537 328.353 337.99 324.499C338.34 323.799 338.69 323.448 339.391 323.448C340.092 323.448 340.792 324.499 340.792 325.2C340.792 327.302 338.69 329.054 336.588 329.404C334.486 330.105 332.034 330.105 330.282 328.704" stroke="white" stroke-miterlimit="10" stroke-linecap="round" stroke-linejoin="round"/>
    <path d="M327.128 320.646C326.778 318.543 326.428 316.091 327.128 313.989C327.479 311.887 328.88 309.785 331.333 309.084C332.384 308.734 333.435 309.084 333.785 310.135C333.785 310.836 333.435 311.186 333.084 311.536C330.982 313.288 328.53 314.69 325.727 315.04C325.026 315.04 324.326 315.04 323.625 314.689C323.275 314.339 322.924 313.989 322.924 313.638C322.224 312.237 321.873 310.485 322.224 308.734" stroke="white" stroke-miterlimit="10" stroke-linecap="round" stroke-linejoin="round"/>
    <path d="M321.522 298.223C321.872 296.471 322.222 294.369 323.273 292.968C323.624 292.267 323.974 291.216 324.675 290.866C325.375 290.515 326.426 290.165 327.127 290.866L327.478 291.216C327.478 291.566 327.127 291.917 326.777 291.917C324.675 292.968 322.573 292.968 320.12 292.968C319.77 292.968 319.069 292.968 318.719 292.618C318.368 292.267 318.368 291.917 318.368 291.566C318.018 290.515 318.018 289.464 317.668 288.764" stroke="white" stroke-miterlimit="10" stroke-linecap="round" stroke-linejoin="round"/>
    <path d="M315.916 278.603C316.266 276.852 316.617 275.1 317.668 273.348C318.368 272.297 319.069 271.246 320.12 270.545C321.171 269.845 322.923 269.845 323.974 270.896C322.923 271.947 321.522 272.647 320.12 272.998C318.719 273.348 316.967 273.348 315.566 272.647C314.164 271.947 313.464 270.195 313.814 268.443" stroke="white" stroke-miterlimit="10" stroke-linecap="round" stroke-linejoin="round"/>
    <path d="M312.063 259.334C312.763 257.232 313.464 254.779 314.865 253.027C316.267 251.276 318.369 249.874 320.821 250.225C321.172 250.225 321.522 250.225 321.522 250.575C321.873 251.276 321.172 251.976 320.821 251.976C318.369 253.027 315.566 253.378 313.464 251.976C311.012 250.925 309.61 248.123 309.961 245.67" stroke="white" stroke-miterlimit="10" stroke-linecap="round" stroke-linejoin="round"/>
    <path d="M310.31 236.211C309.609 234.459 310.31 232.707 311.361 231.306C312.412 229.904 314.164 229.204 315.915 228.503C316.616 228.153 317.667 227.802 318.368 227.802C319.069 227.802 320.12 228.503 320.12 229.554C320.12 230.955 318.368 231.306 316.966 231.306C314.864 231.306 312.762 230.955 311.011 229.904C309.259 228.853 307.857 226.751 308.558 224.649" stroke="white" stroke-miterlimit="10" stroke-linecap="round" stroke-linejoin="round"/>
    <path d="M311.011 216.942C309.959 215.19 311.011 212.737 312.762 211.686C314.514 210.635 316.616 210.986 318.718 211.686C318.018 213.088 316.616 213.788 315.215 213.438C313.813 213.088 312.412 212.037 312.062 210.635C311.711 209.234 311.361 207.832 311.011 206.081" stroke="white" stroke-miterlimit="10" stroke-linecap="round" stroke-linejoin="round"/>
    <path d="M502.653 225.7C501.252 225.35 500.201 224.649 498.799 224.299" stroke="white" stroke-miterlimit="10" stroke-linecap="round" stroke-linejoin="round"/>
    <path d="M459.21 232.006C459.911 233.057 460.962 233.758 462.363 234.108" stroke="white" stroke-miterlimit="10" stroke-linecap="round" stroke-linejoin="round"/>
    <path d="M527.529 242.517C527.178 240.415 525.777 238.663 524.376 237.261" stroke="white" stroke-miterlimit="10" stroke-linecap="round" stroke-linejoin="round"/>
    <path d="M532.083 255.13C532.783 253.028 532.433 250.925 531.032 249.174" stroke="white" stroke-miterlimit="10" stroke-linecap="round" stroke-linejoin="round"/>
    <path d="M523.326 271.596C522.625 270.545 521.925 269.494 520.874 268.443" stroke="white" stroke-miterlimit="10" stroke-linecap="round" stroke-linejoin="round"/>
    <path d="M496.348 275.1C497.049 273.698 497.749 271.947 497.749 270.195C498.1 269.144 498.1 267.742 497.749 266.691C497.399 265.64 496.348 264.589 495.297 264.239C494.947 264.239 494.596 264.239 494.246 263.888C493.896 263.538 493.896 263.188 493.896 262.837C493.896 261.086 493.896 259.684 493.195 257.932C492.494 256.531 491.093 255.13 489.341 255.48C488.64 255.48 487.589 255.83 487.239 255.13C487.239 254.779 487.239 254.779 487.239 254.429C487.239 250.925 484.086 247.422 480.232 247.772" stroke="white" stroke-miterlimit="10" stroke-linecap="round" stroke-linejoin="round"/>
    <path d="M529.281 260.035C535.237 262.137 528.23 268.793 520.522 273.348C512.814 278.253 496.698 285.26 496.698 285.26C496.698 285.26 457.809 307.682 450.452 315.04C443.094 322.397 399.3 358.483 395.797 360.585" stroke="white" stroke-miterlimit="10" stroke-linecap="round" stroke-linejoin="round"/>
    <path d="M342.894 129.704C343.945 131.105 344.996 132.507 346.047 134.259" stroke="white" stroke-miterlimit="10" stroke-linecap="round" stroke-linejoin="round"/>
    <path d="M329.931 133.207C330.982 133.558 332.033 133.908 333.084 134.258" stroke="white" stroke-miterlimit="10" stroke-linecap="round" stroke-linejoin="round"/>
    <path d="M319.769 139.163C320.119 139.864 320.82 140.564 321.871 141.265" stroke="white" stroke-miterlimit="10" stroke-linecap="round" stroke-linejoin="round"/>
    <path d="M312.763 147.222C313.814 147.572 314.515 147.922 315.215 148.623" stroke="white" stroke-miterlimit="10" stroke-linecap="round" stroke-linejoin="round"/>
    <path d="M704.807 244.619C697.1 241.466 687.64 242.517 680.983 247.772C676.079 251.626 672.225 257.932 672.575 264.239C672.925 270.545 677.83 276.851 684.137 277.552C687.64 277.903 691.494 276.851 693.246 274.049C694.998 271.246 693.946 266.691 690.793 265.29C692.195 267.042 691.844 270.195 689.742 271.246C687.64 272.998 684.137 271.947 682.385 269.844C680.633 267.742 679.932 264.94 679.582 262.137C679.232 260.735 679.232 259.684 679.582 258.283C679.932 256.881 681.334 255.48 682.385 254.779C689.042 249.874 698.851 249.874 705.158 255.13" stroke="#1E1E1E" stroke-miterlimit="10" stroke-linecap="round" stroke-linejoin="round"/>
    <path d="M627.729 257.232C627.379 258.283 627.379 259.684 627.029 260.735C626.678 265.64 626.328 270.895 629.131 275.45C630.883 278.603 634.036 280.705 637.189 282.107C641.393 284.209 645.948 285.61 650.502 284.909C656.108 284.559 661.714 281.406 664.516 276.501C667.319 271.596 668.37 265.29 665.918 260.034C665.217 257.932 663.816 256.181 662.064 255.129C659.611 253.378 656.108 253.378 652.955 253.728C655.407 254.429 657.509 256.181 658.56 258.283C659.611 260.385 659.261 263.188 657.86 265.29C657.159 266.691 655.758 267.742 654.707 269.144C654.006 270.195 653.305 271.246 652.254 271.946C651.203 272.647 649.802 272.647 648.4 272.647C643.846 272.647 638.941 270.895 637.189 267.041C636.488 265.64 636.138 264.239 636.138 262.837C635.788 259.684 636.138 256.531 637.189 253.728C638.24 250.925 640.692 248.473 643.846 247.772" stroke="#1E1E1E" stroke-miterlimit="10" stroke-linecap="round" stroke-linejoin="round"/>
    <path d="M624.226 311.887C626.328 312.237 628.781 311.537 630.533 310.135C632.284 308.734 633.686 306.632 634.737 304.88C635.788 303.128 636.839 301.376 636.839 299.274C636.839 298.223 636.489 297.522 636.138 296.471C634.386 292.267 631.934 288.413 628.43 285.61C624.927 283.158 619.672 282.107 615.818 284.559C611.964 287.012 610.563 292.968 613.716 296.121C611.964 294.019 613.015 290.515 615.467 289.114C617.92 288.063 621.073 289.114 622.474 291.566C623.876 294.019 623.876 296.822 622.474 299.274C621.073 301.727 618.971 303.478 616.518 304.529C611.614 306.632 606.358 306.281 601.103 305.581" stroke="#1E1E1E" stroke-miterlimit="10" stroke-linecap="round" stroke-linejoin="round"/>
    <path d="M593.394 305.931C594.445 307.332 594.795 309.434 593.744 310.836C592.693 312.237 590.941 313.288 589.19 312.938" stroke="#1E1E1E" stroke-miterlimit="10" stroke-linecap="round" stroke-linejoin="round"/>
    <path d="M577.278 301.026C578.329 302.777 577.979 305.23 576.227 306.281" stroke="#1E1E1E" stroke-miterlimit="10" stroke-linecap="round" stroke-linejoin="round"/>
    <path d="M570.271 306.631C569.22 308.383 568.168 310.485 567.818 312.587C567.818 313.288 567.468 314.339 567.818 315.04C568.168 315.74 568.519 316.441 569.22 317.142C571.322 319.244 573.424 321.696 576.577 322.747C579.38 323.799 582.883 323.448 584.985 320.996C583.234 321.346 581.482 321.346 580.08 320.996C577.978 320.295 576.227 319.244 575.526 317.142C574.825 315.04 575.526 312.938 577.278 311.887C578.679 311.186 580.781 311.536 582.533 311.186" stroke="#1E1E1E" stroke-miterlimit="10" stroke-linecap="round" stroke-linejoin="round"/>
    <path d="M535.587 306.982C536.638 306.982 536.988 308.383 537.338 309.434C537.689 311.186 537.689 312.938 538.039 314.689C538.039 315.74 538.039 316.792 537.689 317.492C537.338 318.543 536.287 319.244 535.236 318.894" stroke="#1E1E1E" stroke-miterlimit="10" stroke-linecap="round" stroke-linejoin="round"/>
    <path d="M529.28 302.778C529.981 302.427 530.331 303.128 530.331 303.829C530.682 306.281 531.032 308.733 530.682 311.186C530.682 312.237 529.63 313.989 528.579 313.288" stroke="#1E1E1E" stroke-miterlimit="10" stroke-linecap="round" stroke-linejoin="round"/>
    <path d="M511.062 326.601C510.011 325.55 508.96 324.499 508.609 323.098C507.558 320.996 507.909 318.193 509.31 316.091C510.712 313.989 513.514 313.288 515.967 314.339C512.814 311.536 507.208 311.887 504.055 314.69C500.902 317.843 500.201 322.748 501.953 326.952" stroke="#1E1E1E" stroke-miterlimit="10" stroke-linecap="round" stroke-linejoin="round"/>
    <path d="M508.61 373.899C507.559 363.738 500.903 354.279 491.793 349.374" stroke="#1E1E1E" stroke-miterlimit="10" stroke-linecap="round" stroke-linejoin="round"/>
    <path d="M503.355 379.154C504.406 376.351 504.056 373.198 503.005 370.395C501.954 367.592 500.202 365.14 498.45 362.687C497.049 360.585 495.647 358.834 494.596 356.731C494.246 356.031 493.896 355.68 493.195 355.33C492.144 354.629 490.392 354.98 489.691 353.929" stroke="#1E1E1E" stroke-miterlimit="10" stroke-linecap="round" stroke-linejoin="round"/>
    <path d="M514.917 373.549C515.968 376.001 517.72 378.804 519.822 380.205C522.274 381.957 525.427 382.307 527.88 380.906C529.631 379.855 530.683 377.402 530.332 375.3C530.332 373.198 529.281 371.096 527.88 369.695C529.631 369.695 531.383 370.746 532.434 372.147C533.485 373.549 533.836 375.651 534.536 377.402C534.887 378.453 534.887 379.154 534.887 380.205C534.887 382.307 533.485 384.409 532.084 385.811C528.58 389.314 522.975 391.416 518.42 389.665" stroke="#1E1E1E" stroke-miterlimit="10" stroke-linecap="round" stroke-linejoin="round"/>
    <path d="M548.55 100.274C544.696 99.5733 541.193 97.4712 537.689 95.3691C529.281 90.4642 520.873 85.2089 512.464 79.6033C501.253 72.2459 499.501 58.2319 484.436 51.5752" stroke="white" stroke-miterlimit="10" stroke-linecap="round" stroke-linejoin="round"/>
    <path d="M551.002 102.376C526.127 101.676 499.601 98.2246 477.879 85.9622" stroke="white" stroke-miterlimit="10" stroke-linecap="round" stroke-linejoin="round"/>
    <path d="M482.334 78.5526C486.538 81.3554 490.042 85.91 491.443 91.1653" stroke="white" stroke-miterlimit="10" stroke-linecap="round" stroke-linejoin="round"/>
    <path d="M483.035 72.9468C483.385 72.5964 484.086 72.9468 484.436 73.2971C490.392 77.8517 494.596 84.5084 495.297 91.8657" stroke="white" stroke-miterlimit="10" stroke-linecap="round" stroke-linejoin="round"/>
    <path d="M499.85 65.5892C494.595 70.4942 495.996 75.3991 497.048 78.2019C498.099 81.0047 500.201 83.4572 502.653 85.5593C503.354 86.26 504.055 86.9607 504.755 87.311C505.806 87.6614 506.857 88.0117 508.259 88.0117C511.762 88.0117 514.915 86.9607 517.718 84.8586" stroke="white" stroke-miterlimit="10" stroke-linecap="round" stroke-linejoin="round"/>
    <path d="M515.266 81.7054C512.813 83.1068 510.01 83.4572 507.208 82.4061C504.755 81.7054 502.303 79.6033 500.901 77.5012C499.85 75.7494 498.098 72.2459 501.602 69.0928" stroke="white" stroke-miterlimit="10" stroke-linecap="round" stroke-linejoin="round"/>
    <path d="M533.485 100.274C532.434 98.5226 531.383 96.7708 530.332 95.0191C529.281 93.2673 527.88 91.1652 526.128 90.1142C525.077 89.7638 523.675 89.4135 522.624 89.4135C519.471 89.4135 516.318 89.4135 513.515 90.8149C510.712 92.2163 508.26 95.0191 508.61 98.1722" stroke="white" stroke-miterlimit="10" stroke-linecap="round" stroke-linejoin="round"/>
    <path d="M512.464 97.8218C513.165 97.4714 513.516 96.7707 514.216 96.4204C515.968 95.0189 518.771 94.6686 520.873 95.0189C523.325 95.3693 525.077 97.1211 526.479 99.2232" stroke="white" stroke-miterlimit="10" stroke-linecap="round" stroke-linejoin="round"/>
    <path d="M493.546 58.2319C493.196 60.334 488.641 64.5383 486.539 64.5383" stroke="white" stroke-miterlimit="10" stroke-linecap="round" stroke-linejoin="round"/>
    <path d="M490.042 55.4296C490.392 58.2324 486.538 59.6338 485.487 60.3345" stroke="white" stroke-miterlimit="10" stroke-linecap="round" stroke-linejoin="round"/>
    <path d="M382.483 181.556C378.279 182.607 374.425 185.06 370.571 187.162C368.119 188.563 366.017 190.315 363.915 192.067C362.163 194.169 360.762 196.971 360.762 199.424" stroke="white" stroke-miterlimit="10" stroke-linecap="round" stroke-linejoin="round"/>
    <path d="M377.579 176.651C376.178 176.301 374.426 176.651 373.025 177.352C365.317 180.505 359.361 187.162 356.908 194.869" stroke="white" stroke-miterlimit="10" stroke-linecap="round" stroke-linejoin="round"/>
    <path d="M380.381 181.906C377.928 180.505 375.476 179.104 373.023 178.052C373.724 180.155 374.425 182.257 375.126 184.008C372.323 183.308 369.52 182.257 366.717 181.556C367.418 183.658 367.768 185.76 368.469 187.862C366.016 187.862 363.914 187.512 361.812 186.461C362.163 188.563 362.513 190.315 362.513 192.417C361.112 192.767 359.71 192.767 357.958 192.417C358.659 194.169 359.36 195.92 360.411 197.672" stroke="white" stroke-miterlimit="10" stroke-linecap="round" stroke-linejoin="round"/>
    <path d="M165.452 111.397C168.62 116.905 172.739 122.703 179.075 125.022C186.679 127.631 195.233 124.152 202.203 120.384C206.638 118.065 211.39 115.456 215.509 112.557C222.796 107.919 230.399 102.991 239.27 101.831C248.141 100.672 258.596 105.02 260.18 113.137" stroke="white" stroke-width="0.25" stroke-miterlimit="10" stroke-linecap="round" stroke-linejoin="round"/>
    <path d="M237.37 119.804C237.37 126.472 242.122 132.559 248.459 136.038C254.795 139.517 262.082 140.386 269.369 140.386C281.724 140.386 294.08 136.908 304.535 130.82" stroke="white" stroke-width="0.25" stroke-miterlimit="10" stroke-linecap="round" stroke-linejoin="round"/>
    <path d="M131.699 49.8794C128.848 52.1985 125.996 55.0974 125.046 58.2861C124.095 61.7648 125.363 65.8232 128.531 67.5625C132.649 69.5917 137.402 67.5625 141.52 65.8232C147.857 63.2142 154.51 60.8951 161.163 58.8659C166.232 57.4165 171.618 56.5468 176.687 57.9962C181.756 59.4457 185.241 64.9535 183.023 69.3018" stroke="white" stroke-width="0.25" stroke-miterlimit="10" stroke-linecap="round" stroke-linejoin="round"/>
    <path d="M123.939 105.424C127.741 107.454 127.424 112.961 124.256 115.86C121.087 118.759 116.335 119.629 112.217 120.209C101.445 121.948 90.673 123.687 79.5845 125.716C73.565 126.586 66.9118 128.036 64.0605 132.964C61.2091 137.312 62.7932 143.11 66.9118 146.878C70.7136 150.357 76.4163 151.806 82.119 151.806C87.5049 151.806 92.8908 150.357 98.2767 149.197" stroke="white" stroke-width="0.25" stroke-miterlimit="10" stroke-linecap="round" stroke-linejoin="round"/>
    <path d="M25.0905 150.647C20.655 154.415 21.6055 161.083 25.4073 165.141C29.2091 169.199 35.2286 170.939 40.9313 172.098C55.5049 174.707 70.7121 172.968 85.6024 174.707C92.5724 175.577 101.443 179.635 99.5424 185.723C98.9087 187.752 97.3246 189.491 97.0078 191.231C96.3742 195.869 102.077 198.768 107.146 199.927C134.075 206.305 163.856 203.116 188.251 190.941" stroke="white" stroke-width="0.25" stroke-miterlimit="10" stroke-linecap="round" stroke-linejoin="round"/>
    <path d="M246.068 64.9536C252.404 64.6637 255.256 56.5468 252.088 51.3289C248.919 46.4008 242.266 44.0817 235.93 42.6323C212.169 37.1244 186.507 38.284 163.062 45.5311C165.28 39.7334 174.151 36.5446 173.517 30.1671C172.883 25.239 166.23 23.4997 160.844 22.6301C138.984 20.0211 117.124 19.4413 95.2634 18.8615C82.2739 18.5716 68.9676 18.2818 56.6117 21.4705C59.1463 19.1514 58.1958 14.8031 55.3445 12.7739C52.4931 10.7447 48.6913 10.1649 45.2063 9.87503C30.316 8.71549 14.792 8.13571 0.535244 11.9042" stroke="white" stroke-width="0.25" stroke-miterlimit="10" stroke-linecap="round" stroke-linejoin="round"/>
    <path d="M252.893 138.937C248.141 140.966 243.072 142.705 238.319 144.735C227.548 149.083 216.776 153.141 205.371 154.011C193.965 154.881 181.293 151.692 174.323 143.285" stroke="white" stroke-width="0.25" stroke-miterlimit="10" stroke-linecap="round" stroke-linejoin="round"/>
    <path d="M177.817 198.766C182.712 212.093 194.951 220.796 203.382 230.315C201.207 231.403 198.487 231.675 196.039 231.131C192.503 235.755 192.231 242.554 195.767 247.45C196.855 248.81 197.943 250.17 199.031 251.53C201.751 256.153 200.391 262.137 198.759 267.304C209.91 268.392 219.701 277.095 221.877 287.975C222.693 291.238 222.693 295.046 224.597 297.766C226.229 300.485 229.22 302.117 231.668 304.021C241.187 311.093 247.171 323.06 246.899 335.027" stroke="white" stroke-miterlimit="10" stroke-linecap="round" stroke-linejoin="round"/>
    <path d="M169.929 292.87C169.929 284.439 169.929 276.28 169.929 267.848C169.929 267.032 169.929 266.217 170.201 265.401C171.017 263.497 173.465 263.225 175.097 261.865C177.001 260.233 177.545 257.513 176.729 255.065C176.185 252.618 174.553 250.442 173.193 248.538C174.281 246.362 175.641 243.642 178.089 243.37C178.905 243.37 179.72 243.37 180.536 243.642C183.256 244.186 185.976 245.002 188.696 245.546C190.056 243.37 191.687 239.835 193.047 237.659" stroke="white" stroke-miterlimit="10" stroke-linecap="round" stroke-linejoin="round"/>
    <path d="M257.506 290.151C256.962 286.887 254.243 283.895 251.251 282.807C247.715 281.719 243.907 282.807 240.644 280.903C237.108 279 235.748 273.832 238.196 270.568C234.388 268.392 229.221 268.392 225.413 270.84C225.685 267.848 224.053 264.857 221.605 262.953C219.158 261.321 215.622 261.049 212.902 262.137C211.542 262.681 210.182 263.497 208.822 263.225C206.647 262.681 205.831 260.233 205.015 258.329C204.199 256.425 202.295 254.25 200.391 255.066" stroke="white" stroke-miterlimit="10" stroke-linecap="round" stroke-linejoin="round"/>
    <path d="M488.803 133.014C490.2 132.73 493.335 131.809 494.697 130.395" stroke="white" stroke-linecap="round"/>
    <path d="M471.079 82.1476C472.97 83.2164 476.96 85.4232 477.788 85.6995" stroke="white" stroke-linecap="round"/>
    <path d="M520.96 94.9015C523.417 95.6139 525.523 97.0385 526.576 99.1755V100.956C521.662 100.244 516.749 99.5317 511.835 98.4632L512.537 97.7508C513.239 97.3947 513.59 96.6824 514.292 96.3262C516.398 94.9015 518.855 94.5454 520.96 94.9015Z" fill="white"/>
    <path d="M533.244 100.6C532.191 98.8194 531.138 97.0386 530.085 95.2578C529.032 93.4769 527.628 91.34 525.873 90.2715C524.82 89.9153 523.417 89.5591 522.364 89.5591C519.205 89.5591 516.046 89.5591 513.239 90.9838C510.431 92.4084 508.325 94.9016 508.325 98.1071C504.114 97.0386 499.902 95.9701 496.042 94.5454L495.691 92.4084C494.638 84.929 490.426 77.8057 484.811 73.5317C484.46 73.1756 483.758 72.8194 483.407 73.1756L481.652 73.5317C481.301 71.0386 480.95 68.5454 479.195 66.0523C479.195 66.0523 483.758 66.0523 485.864 71.0386C485.864 71.0386 486.215 68.1893 485.513 64.6276H486.566C488.671 64.9838 493.234 60.3537 493.585 58.2167L490.426 55.0112L490.075 55.3674C490.426 58.2167 486.566 59.6413 485.513 60.3537L484.46 60.7098C483.758 58.929 483.056 57.1482 481.652 56.0797C481.652 56.0797 481.652 56.0797 481.301 55.7235C481.301 55.7235 479.546 53.2304 483.407 54.2989C483.407 54.2989 483.758 52.8742 483.758 51.0934H484.46C499.551 57.8605 501.306 72.1071 512.537 79.5865C520.609 85.2852 529.032 90.6276 537.806 95.6139C541.316 97.7509 544.825 99.5317 548.686 100.6L551.143 102.737C545.527 102.737 539.561 102.381 533.945 102.025L533.244 100.6ZM514.994 81.7235C512.537 83.1482 509.729 83.5043 506.921 82.4358C504.114 81.3674 502.008 79.5865 500.604 77.4495C499.902 75.6687 498.147 72.1071 501.657 68.9016L499.551 65.34C494.287 70.3263 495.691 75.3126 496.744 78.1619C497.796 81.0112 499.902 83.5043 502.359 85.6413C503.061 86.3537 503.763 87.066 504.465 87.4221C505.518 87.7783 506.57 88.1345 507.974 88.1345C511.484 88.1345 514.643 87.066 517.45 84.929L518.503 83.5043L514.994 81.7235Z" fill="white"/>
    <path d="M481.301 77.8057L482.354 78.1618C486.566 81.0111 490.075 85.6413 491.479 90.9837L491.83 92.4084C487.268 90.6276 483.056 88.4906 478.844 85.9974L478.143 84.929C479.195 83.8605 480.599 81.3673 481.301 77.8057Z" fill="white"/>
</svg>
