<svg width="681" height="480" viewBox="0 0 681 480" fill="none" xmlns="http://www.w3.org/2000/svg">
<path d="M620.786 396.988C619.735 394.536 618.334 392.434 616.582 390.332C615.531 388.93 613.429 387.879 612.027 388.93C610.976 389.631 610.976 391.032 610.976 392.434C610.976 393.835 610.976 395.236 611.327 396.638C612.027 398.039 613.078 399.09 614.48 399.09C613.779 396.638 613.078 394.185 611.327 392.434C609.575 390.682 606.772 389.981 604.67 391.383C602.218 393.134 602.568 396.638 602.918 399.441C602.918 400.141 603.269 400.842 603.969 401.192C604.67 401.543 605.721 401.192 606.071 400.141C606.422 399.09 606.071 398.39 605.721 397.689C604.32 393.835 599.765 391.383 595.911 392.434C592.057 393.835 590.306 399.09 593.108 402.244C593.459 402.594 594.159 402.944 594.51 402.944C595.561 402.944 596.612 402.244 596.612 400.842C596.962 399.791 596.262 398.74 595.911 397.689C594.51 395.236 592.057 393.134 589.254 392.434C586.452 392.083 583.299 393.835 582.247 396.638C581.196 399.441 582.247 402.944 584.35 404.696C585.05 401.192 583.649 397.339 580.846 395.236C578.043 393.134 573.489 393.485 571.387 396.288C569.284 399.09 570.686 403.995 574.189 404.696C574.189 401.893 573.839 399.09 572.438 396.988C571.036 394.536 568.584 392.784 565.781 393.134C561.927 393.485 559.475 396.988 558.424 400.492C558.073 401.893 557.372 403.295 558.073 404.346C558.424 405.747 560.175 406.448 561.226 405.397C561.577 405.046 561.577 404.696 561.927 403.995C562.628 400.492 561.577 396.988 558.774 394.886C555.971 392.784 551.767 393.134 549.314 395.236C546.862 397.689 546.862 402.244 549.314 404.346C551.417 400.842 550.365 395.587 546.862 393.134C543.358 390.682 538.454 391.383 535.651 394.536C532.848 397.689 533.198 402.944 536.351 405.747C538.454 402.944 537.753 398.39 535.3 396.288C532.498 393.835 527.943 394.185 525.491 396.638C523.038 399.09 523.038 403.645 525.14 406.448C525.491 407.148 526.191 407.499 527.242 407.148C527.943 406.798 528.293 405.747 528.293 405.046C528.293 402.244 526.191 399.791 523.739 398.39C521.286 396.988 518.483 396.638 515.681 396.288" stroke="white" stroke-miterlimit="10" stroke-linecap="round" stroke-linejoin="round"/>
<path d="M488.706 405.397C486.253 407.849 485.202 411.353 486.253 414.506C486.253 414.856 486.603 415.557 486.954 415.907C487.655 416.258 488.005 415.557 488.355 415.207C488.706 414.856 488.355 414.156 488.355 413.455C487.654 409.951 485.202 406.798 482.049 405.046C480.998 404.346 479.596 403.995 478.195 403.995C475.743 404.346 473.991 406.448 472.94 408.9C472.239 410.652 471.889 412.404 472.589 413.805C473.29 415.557 475.042 416.608 476.794 415.907C477.144 414.506 476.443 412.754 475.392 411.703C474.341 410.652 472.94 409.601 471.889 408.9C469.086 407.149 465.582 405.747 462.78 407.149" stroke="white" stroke-miterlimit="10" stroke-linecap="round" stroke-linejoin="round"/>
<path d="M438.604 312.554C441.407 322.714 442.458 332.874 444.209 343.385C445.611 352.494 447.363 361.603 449.114 370.362" stroke="white" stroke-miterlimit="10" stroke-linecap="round" stroke-linejoin="round"/>
<path d="M625.342 385.427C626.393 401.543 630.247 417.309 630.247 433.775C630.247 437.279 629.897 441.132 628.846 444.636C627.795 448.139 625.693 450.942 623.591 454.095C620.437 458.65 617.284 463.205 612.379 465.657C610.277 466.708 607.474 467.409 607.124 469.861C606.423 472.314 608.876 474.416 611.328 475.117C613.781 475.817 616.233 475.817 618.335 476.518C619.386 476.868 620.437 477.569 621.488 478.27C625.342 479.671 629.196 476.868 631.999 474.065C638.305 468.109 644.261 460.752 652.67 457.949C653.37 457.599 654.071 457.599 654.421 457.249C654.772 456.898 655.122 456.198 655.473 455.497C656.524 450.942 653.37 446.738 651.969 442.183C649.867 434.476 649.867 426.768 650.568 418.71C651.268 411.002 652.67 405.747 653.37 398.039" stroke="white" stroke-miterlimit="10" stroke-linecap="round" stroke-linejoin="round"/>
<path d="M647.064 379.12C648.816 381.222 649.867 382.974 650.567 384.375C653.37 391.733 654.071 396.988 654.071 396.988C654.071 396.988 634.451 384.376 620.087 384.025C605.722 383.675 567.184 359.851 567.184 359.851C567.184 359.851 554.571 351.793 537.754 341.282L532.149 344.435C532.149 344.435 513.93 352.844 497.113 350.742L496.763 351.092C496.763 351.092 520.937 383.675 518.835 411.703C516.733 439.731 522.339 442.884 522.339 442.884C522.339 442.884 495.362 428.169 490.457 407.849C485.902 387.529 480.297 376.668 482.048 362.303L482.399 361.252C482.048 362.654 481.698 363.705 480.997 365.106C479.246 368.96 477.143 372.464 474.691 375.617C467.334 386.478 458.925 398.039 446.312 402.243C445.612 379.821 452.268 354.245 466.283 336.728C466.283 336.728 437.203 314.656 435.452 303.444C435.452 303.444 435.802 302.393 436.152 302.043C449.466 293.634 464.531 284.876 464.531 284.876C464.531 284.876 469.085 282.774 474.341 280.321L476.443 281.723C476.443 281.723 504.821 289.08 536.003 297.488V297.138C536.003 297.138 605.722 244.235 625.342 240.031C625.342 240.031 643.21 227.068 655.823 227.768C668.435 228.469 667.735 224.966 667.735 224.966C667.735 224.966 670.537 228.119 671.589 234.425C672.64 240.731 676.143 259.65 672.99 276.117C669.486 292.583 668.435 320.962 676.143 332.874C683.851 344.786 679.997 370.361 662.129 374.215C643.56 378.77 646.714 379.12 647.064 379.12Z" fill="white"/>
<path d="M348.213 95.3354C338.403 82.3724 330.696 89.3795 333.148 103.744C335.25 118.108 353.118 122.313 353.118 122.313C353.118 122.313 356.972 133.173 360.475 140.18C363.979 147.187 380.796 150.691 398.664 154.895C416.532 159.099 424.94 149.64 427.743 145.786C430.546 141.932 433.699 131.071 436.502 120.911C440.706 107.247 441.407 94.9851 439.655 90.4305C438.254 85.5256 437.553 69.7598 437.553 69.7598C437.202 62.4024 431.597 60.6507 427.743 65.2052C423.889 69.7598 412.328 70.1101 405.671 67.6577C399.014 64.8549 402.518 63.1031 393.058 65.5556C383.599 68.3584 375.19 61.001 375.19 61.001C376.241 79.92 396.912 70.8108 396.912 70.8108C396.912 70.8108 392.007 79.2193 380.796 79.92C364.68 80.971 367.483 60.3003 367.483 60.3003C367.483 60.3003 363.278 64.8549 365.731 77.8179C368.183 90.7809 353.118 105.145 353.118 105.145C353.118 105.145 352.417 100.591 348.213 95.3354Z" stroke="white" stroke-miterlimit="10" stroke-linecap="round" stroke-linejoin="round"/>
<path d="M437.553 71.1611C437.553 71.1611 446.662 79.2192 445.261 85.8759C445.261 85.8759 452.969 76.066 446.662 65.9059C446.662 65.9059 451.217 65.9059 453.319 70.8108C453.319 70.8108 454.37 59.9499 449.465 55.7457C449.465 55.7457 449.465 55.7457 449.115 55.3953C449.115 55.3953 447.363 52.9428 451.217 53.9939C451.217 53.9939 452.618 43.133 450.516 42.0819C450.516 42.0819 442.458 34.3742 440.356 29.8196C432.648 11.9517 416.532 10.9007 408.824 10.5503C401.117 10.2 396.212 -0.660935 371.337 0.740472C346.462 2.14188 342.258 18.258 342.258 18.258C342.258 18.258 322.287 10.2 316.682 44.1841C314.93 55.3953 330.346 90.0801 332.448 93.934" stroke="white" stroke-miterlimit="10" stroke-linecap="round" stroke-linejoin="round"/>
<path d="M394.461 97.7878C393.761 97.7878 393.41 97.7878 392.71 97.7878C388.155 98.1382 379.747 103.744 377.995 104.094" stroke="white" stroke-miterlimit="10" stroke-linecap="round" stroke-linejoin="round"/>
<path d="M411.628 96.7366C411.628 96.7366 400.066 97.4373 394.461 97.7876" stroke="white" stroke-miterlimit="10" stroke-linecap="round" stroke-linejoin="round"/>
<path d="M407.774 104.795C407.774 104.795 404.27 110.401 397.964 109.35C392.008 108.298 389.205 107.247 387.103 107.598" stroke="white" stroke-miterlimit="10" stroke-linecap="round" stroke-linejoin="round"/>
<path d="M435.451 87.6278C435.451 87.6278 433.349 87.6278 430.546 88.6789C427.743 89.7299 423.539 96.737 423.89 98.4887C423.89 100.24 429.495 118.108 430.196 120.211C430.897 122.313 430.897 124.415 429.495 126.166C427.743 127.918 424.941 127.918 422.488 126.867C419.685 125.816 413.729 129.32 411.978 127.218C409.876 125.466 409.525 118.108 417.583 118.108" stroke="white" stroke-miterlimit="10" stroke-linecap="round" stroke-linejoin="round"/>
<path d="M350.315 109.7C350.315 109.7 344.71 108.999 345.761 101.292C346.111 98.1384 337.352 89.73 336.652 95.3356C335.951 100.941 335.951 104.795 337.703 106.547" stroke="white" stroke-miterlimit="10" stroke-linecap="round" stroke-linejoin="round"/>
<path d="M401.117 155.596C401.117 155.596 393.059 155.946 395.862 171.011" stroke="white" stroke-miterlimit="10" stroke-linecap="round" stroke-linejoin="round"/>
<path d="M330.346 140.531C335.951 139.83 344.36 142.282 346.812 139.83C352.768 133.524 345.761 119.51 345.761 119.51" stroke="white" stroke-miterlimit="10" stroke-linecap="round" stroke-linejoin="round"/>
<path d="M317.033 235.826C317.033 235.826 290.757 194.485 275.341 195.186C259.926 196.237 259.225 197.988 259.225 197.988C263.78 184.675 273.59 173.464 284.801 164.004" stroke="white" stroke-miterlimit="10" stroke-linecap="round" stroke-linejoin="round"/>
<path d="M389.906 201.141L387.103 178.018C387.103 178.018 348.915 170.661 340.857 140.531" stroke="white" stroke-miterlimit="10" stroke-linecap="round" stroke-linejoin="round"/>
<path d="M258.874 197.988C258.874 197.988 258.173 333.574 300.566 367.559C304.77 371.062 307.223 373.865 324.04 372.463" stroke="white" stroke-miterlimit="10" stroke-linecap="round" stroke-linejoin="round"/>
<path d="M321.586 254.745C321.586 254.745 332.447 305.897 331.746 310.101" stroke="white" stroke-miterlimit="10" stroke-linecap="round" stroke-linejoin="round"/>
<path d="M324.39 353.194C324.39 353.194 329.294 370.011 341.557 374.566C341.557 374.566 335.25 379.821 328.944 376.668C322.638 373.515 306.522 359.851 313.879 327.969C313.879 327.969 313.529 319.561 326.492 315.356C339.455 311.152 346.812 311.853 346.812 311.853C346.812 311.853 334.55 326.918 340.506 343.735C346.111 360.201 354.169 367.559 363.629 360.552C363.629 360.552 354.169 372.464 340.506 374.215" stroke="white" stroke-miterlimit="10" stroke-linecap="round" stroke-linejoin="round"/>
<path d="M346.813 312.203C373.79 307.649 396.913 290.832 401.818 284.525C406.723 278.219 403.57 276.117 404.971 264.906C406.373 253.694 420.387 233.374 427.394 230.221C434.401 227.068 436.152 220.761 440.006 220.411C443.86 220.061 446.663 223.564 444.211 231.622C441.758 239.68 431.948 247.038 431.948 247.038C431.948 247.038 447.364 241.082 454.371 232.323C461.378 223.564 467.684 208.499 469.436 207.798C471.188 207.098 476.443 206.397 476.443 211.302C476.443 216.207 465.232 242.833 461.378 246.687" stroke="white" stroke-miterlimit="10" stroke-linecap="round" stroke-linejoin="round"/>
<path d="M463.479 244.235C470.136 242.833 500.967 224.966 500.967 224.966C500.967 224.966 506.923 222.163 506.923 228.119C506.923 234.075 483.099 254.045 472.939 259.65" stroke="white" stroke-miterlimit="10" stroke-linecap="round" stroke-linejoin="round"/>
<path d="M471.186 272.613C471.186 272.613 492.558 264.555 499.565 257.899C512.528 245.286 516.381 245.286 509.024 241.432C504.119 238.629 497.813 247.038 484.85 251.242" stroke="white" stroke-miterlimit="10" stroke-linecap="round" stroke-linejoin="round"/>
<path d="M435.451 94.985C434.75 95.6857 434.4 96.3864 433.699 97.0871C431.948 99.1892 429.145 99.5395 426.342 99.8899C425.641 99.8899 424.941 99.8899 424.941 100.591" stroke="white" stroke-miterlimit="10" stroke-linecap="round" stroke-linejoin="round"/>
<path d="M405.672 106.897C406.023 107.247 406.023 107.598 406.373 107.598C406.023 107.598 405.322 107.247 404.972 107.247C404.972 107.948 405.322 108.298 405.672 108.649C405.322 108.649 404.972 108.298 404.621 108.298C404.271 107.948 403.57 107.948 403.57 108.298C403.22 108.999 404.271 109.349 404.271 110.05C403.921 109.349 403.22 108.649 402.169 108.649H401.818C401.468 108.649 401.468 108.999 401.468 109.349C401.468 109.7 401.468 110.401 401.468 110.751C401.118 110.401 400.767 110.05 400.417 109.7C400.417 109.7 400.067 109.349 399.716 109.349C399.366 109.349 399.016 109.7 399.366 110.4C399.366 110.751 399.716 111.101 399.716 111.452C399.016 111.101 398.665 110.4 398.315 110.05C397.965 109.7 396.914 109.349 396.563 109.7C396.563 110.4 396.914 111.101 396.914 111.452C396.563 110.751 396.563 110.4 396.213 109.7C396.213 109.7 396.213 109.349 395.863 109.349C395.512 108.999 395.162 109.349 394.811 109.349C394.461 109.7 394.461 110.05 394.461 110.4C394.461 109.7 394.461 109.349 394.111 108.999C393.76 108.649 392.709 108.999 393.06 109.7" stroke="white" stroke-miterlimit="10" stroke-linecap="round" stroke-linejoin="round"/>
<path d="M434.05 96.3865C434.4 96.7368 434.75 97.4375 435.101 97.7879C434.75 97.7879 434.4 97.4375 433.699 97.4375C433.349 97.7879 433.349 98.1382 433.699 98.1382C433.699 98.4886 434.05 98.4886 434.4 98.839C434.05 98.839 433.699 98.4886 432.998 98.4886H432.648C432.298 98.4886 432.648 98.8389 432.648 99.1893C432.648 99.5396 432.998 99.89 432.998 100.24C432.648 99.89 431.947 99.5396 431.247 99.1893C430.896 99.1893 430.896 99.1893 430.546 99.1893V99.5396C430.546 99.89 430.896 100.24 430.896 100.591C430.546 100.24 430.196 99.89 429.845 99.89C429.495 99.5396 429.145 99.5396 428.794 99.89C428.444 100.24 428.444 100.591 428.444 101.291C428.094 100.941 427.393 100.591 426.692 100.591" stroke="white" stroke-miterlimit="10" stroke-linecap="round" stroke-linejoin="round"/>
<path d="M398.314 156.647C398.314 156.647 401.818 171.712 397.263 175.566L406.022 205.696" stroke="white" stroke-miterlimit="10" stroke-linecap="round" stroke-linejoin="round"/>
<path d="M272.537 312.203C272.537 312.203 265.88 381.923 263.428 399.441" stroke="white" stroke-miterlimit="10" stroke-linecap="round" stroke-linejoin="round"/>
<path d="M399.715 330.772C399.715 330.772 404.269 421.162 405.671 433.074" stroke="white" stroke-miterlimit="10" stroke-linecap="round" stroke-linejoin="round"/>
<path d="M452.968 45.2355C452.968 45.2355 471.537 38.9292 491.507 48.0384C511.127 57.4979 518.484 92.533 517.083 100.241C517.083 100.241 527.243 104.795 524.79 114.956C522.338 125.116 516.382 140.882 516.382 140.882C516.382 140.882 513.93 146.837 507.623 148.589" stroke="white" stroke-miterlimit="10" stroke-linecap="round" stroke-linejoin="round"/>
<path d="M440.57 93.3994C440.57 93.3994 455.421 107.598 469.436 110.751C483.45 113.554 474.691 128.969 479.946 132.122C485.201 135.275 492.208 137.027 489.756 145.085C489.756 145.085 496.062 133.874 490.106 130.37C484.501 126.867 496.763 118.108 496.763 118.108C496.763 118.108 500.617 107.247 507.974 108.649C515.332 110.05 517.434 124.765 512.178 132.122C506.923 139.48 510.777 145.085 504.821 146.136C504.821 146.136 509.726 163.303 512.529 166.106" stroke="white" stroke-miterlimit="10" stroke-linecap="round" stroke-linejoin="round"/>
<path d="M500.966 124.765C500.966 124.765 502.017 112.853 506.922 114.955C511.827 117.057 509.375 125.466 509.375 125.466" stroke="white" stroke-miterlimit="10" stroke-linecap="round" stroke-linejoin="round"/>
<path d="M499.916 53.9944C499.916 53.9944 527.244 51.8923 531.448 70.4609C535.652 89.0295 517.784 93.2338 517.784 93.2338" stroke="white" stroke-miterlimit="10" stroke-linecap="round" stroke-linejoin="round"/>
<path d="M463.83 125.816C463.83 125.816 450.516 122.663 447.713 122.663C444.911 122.663 441.407 125.466 439.655 124.765C437.904 124.415 437.904 121.962 437.904 121.962" stroke="white" stroke-miterlimit="10" stroke-linecap="round" stroke-linejoin="round"/>
<path d="M441.187 132.908C441.187 132.908 442.75 136.033 447.438 136.033C452.127 135.721 455.877 135.095 457.127 135.095" stroke="white" stroke-miterlimit="10" stroke-linecap="round" stroke-linejoin="round"/>
<path d="M441.813 134.158C441.5 135.095 440.563 136.033 439.312 136.658C440.563 136.346 441.5 135.72 442.125 134.783C442.438 135.095 442.125 135.72 441.813 136.346C441.188 137.283 440.529 137.728 439 138.846C440.25 137.908 440.345 138.075 443.014 135.243C443.327 136.493 442.438 138.533 441.188 139.471C441.813 139.159 442.438 138.533 442.75 137.596C443.063 137.283 443.252 136.452 443.564 136.139C443.877 135.514 444.001 136.033 444.313 136.033C444.626 137.283 444.313 138.846 443.375 140.096C443.688 139.159 444.313 138.221 444.626 137.283C444.938 136.971 444.895 136.16 445.52 136.16C445.832 137.41 445.876 138.846 445.876 140.096C445.876 138.846 445.54 137.158 446.477 136.221L447.439 136.346C447.751 136.346 447.924 136.601 447.924 136.913C447.924 137.851 448.064 138.533 448.064 139.471C448.064 138.846 448.064 138.533 448.064 137.908C448.064 137.283 448.012 136.635 448.637 136.323L449.533 136.282C449.533 136.282 449.384 136.812 449.696 136.812C450.009 137.437 449.798 138.197 450.252 139.159C449.939 138.533 449.893 137.396 450.206 136.771C450.206 136.458 450.564 136.346 450.877 136.346C450.877 136.346 451.189 136.346 451.189 136.658C451.448 137.219 451.693 137.321 452.127 137.596" stroke="white" stroke-miterlimit="10" stroke-linecap="round" stroke-linejoin="round"/>
<path d="M456.122 137.728C459.625 137.378 463.479 137.728 466.982 139.48" stroke="white" stroke-miterlimit="10" stroke-linecap="round" stroke-linejoin="round"/>
<path d="M430.547 139.48C430.547 139.48 431.248 146.837 429.496 148.939C427.744 151.041 428.445 156.647 429.846 157.348C431.248 158.048 435.452 158.749 436.854 158.749C438.255 158.749 439.306 155.596 442.809 155.946C446.313 156.297 452.269 153.144 449.817 149.99" stroke="white" stroke-miterlimit="10" stroke-linecap="round" stroke-linejoin="round"/>
<path d="M449.815 150.691C449.815 150.691 451.217 154.195 456.472 155.946C459.625 156.997 464.53 158.048 464.88 162.253C465.231 166.457 463.829 169.61 466.982 175.216" stroke="white" stroke-miterlimit="10" stroke-linecap="round" stroke-linejoin="round"/>
<path d="M423.89 149.64C423.89 149.64 422.839 161.902 425.992 166.807C429.145 171.712 437.904 178.719 438.955 186.076C440.006 193.434 450.167 193.434 450.167 193.434" stroke="white" stroke-miterlimit="10" stroke-linecap="round" stroke-linejoin="round"/>
<path d="M437.204 167.508C437.904 170.661 448.415 172.062 453.32 169.61" stroke="white" stroke-miterlimit="10" stroke-linecap="round" stroke-linejoin="round"/>
<path d="M456.823 171.712C456.823 171.712 450.166 176.967 444.21 175.916C438.254 174.865 436.152 172.063 435.802 169.96C435.451 167.858 437.203 167.858 437.203 167.858C435.101 167.508 434.05 165.756 434.05 165.756C435.451 166.457 437.203 165.756 438.955 165.756C440.006 165.756 441.057 166.457 442.108 166.457C442.809 166.457 443.509 166.457 444.21 166.107C445.962 166.107 447.363 166.457 449.115 166.807C451.217 167.158 453.319 167.508 455.421 167.158" stroke="white" stroke-miterlimit="10" stroke-linecap="round" stroke-linejoin="round"/>
<path d="M429.846 158.048C429.846 158.048 427.043 161.201 428.795 163.303" stroke="white" stroke-miterlimit="10" stroke-linecap="round" stroke-linejoin="round"/>
<path d="M422.138 232.673C422.138 229.52 417.583 207.448 417.583 207.448C417.583 207.448 424.24 204.995 434.4 199.74C444.561 194.835 487.654 183.624 487.654 183.624C487.654 183.624 501.668 165.055 522.689 164.004C543.36 162.953 571.738 164.355 586.103 184.325C600.467 204.295 602.219 249.49 602.219 249.49" stroke="white" stroke-miterlimit="10" stroke-linecap="round" stroke-linejoin="round"/>
<path d="M588.555 233.724C588.555 233.724 563.68 249.14 547.914 254.395C528.645 260.702 497.463 265.256 497.463 265.256" stroke="white" stroke-miterlimit="10" stroke-linecap="round" stroke-linejoin="round"/>
<path d="M417.583 208.499C417.583 208.499 362.227 197.288 346.812 177.318C331.397 156.997 331.747 147.538 329.995 139.83C328.243 132.122 323.338 127.218 319.134 127.218C314.93 127.218 310.726 129.32 310.726 129.32C310.726 129.32 303.368 124.415 298.113 132.823C298.113 132.823 294.96 131.071 291.106 132.473C287.252 133.874 287.953 139.129 287.953 139.129C287.953 139.129 284.8 138.429 283.048 139.48C281.296 140.531 278.493 144.385 280.946 147.538C280.946 147.538 273.939 150.691 275.691 155.596C277.442 160.151 295.31 170.311 303.719 174.865C321.937 185.726 337.002 219.71 362.928 236.527C388.504 252.994 407.072 259.3 407.072 259.3" stroke="white" stroke-miterlimit="10" stroke-linecap="round" stroke-linejoin="round"/>
<path d="M396.562 289.781C396.562 289.781 394.81 262.103 392.357 252.994" stroke="white" stroke-miterlimit="10" stroke-linecap="round" stroke-linejoin="round"/>
<path d="M496.412 160.501C496.412 160.501 480.997 182.223 465.581 189.58" stroke="white" stroke-miterlimit="10" stroke-linecap="round" stroke-linejoin="round"/>
<path d="M601.868 171.712C603.97 157.698 609.926 139.129 622.189 134.575C634.451 130.02 654.071 130.371 670.888 143.334C687.704 156.297 676.143 181.872 676.143 181.872C673.34 188.879 669.486 195.186 664.932 201.142C668.435 196.587 670.187 190.281 669.136 184.325C668.435 181.522 667.384 178.719 667.384 175.916C667.034 173.464 667.734 171.011 667.384 168.559C667.034 166.106 665.983 163.654 663.881 162.603C664.932 165.756 663.881 169.96 661.078 171.712C662.129 170.311 661.428 168.209 660.027 166.807C658.625 165.406 657.224 164.705 655.472 164.004C653.72 162.953 651.969 161.552 650.567 160.151C651.618 163.654 650.918 167.158 649.166 170.311C648.815 168.209 648.465 165.756 647.414 164.004C646.363 162.253 644.611 160.501 642.159 160.151C641.458 163.654 641.458 167.508 642.159 171.011C637.604 168.909 634.101 165.055 633.05 160.151C631.648 161.902 630.597 163.654 629.896 165.756C629.196 167.858 629.546 170.311 631.298 172.062C627.444 170.311 624.291 166.457 622.889 162.253C621.838 159.099 622.189 155.946 621.488 152.793C620.787 149.64 619.736 146.487 616.933 144.735C616.933 144.735 615.882 148.239 611.328 152.092C605.722 156.647 601.868 171.712 601.868 171.712Z" fill="white"/>
<path d="M658.976 213.754C655.823 221.462 642.51 229.52 638.305 229.87C634.101 230.221 627.094 234.075 623.24 233.374C619.386 232.673 611.328 230.921 610.628 228.469C609.576 226.016 600.117 216.907 599.416 211.652C598.716 206.397 599.767 183.974 600.467 181.872C600.818 179.77 602.219 171.712 602.219 171.712" stroke="white" stroke-miterlimit="10" stroke-linecap="round" stroke-linejoin="round"/>
<path d="M669.486 195.536C669.486 195.536 674.04 192.383 675.441 194.485C676.843 196.587 675.441 199.39 670.537 205.346C665.632 211.302 668.434 213.755 660.376 214.806C659.325 214.806 659.676 214.105 659.676 214.105" stroke="white" stroke-miterlimit="10" stroke-linecap="round" stroke-linejoin="round"/>
<path d="M619.386 185.025C617.284 183.624 614.831 182.222 612.379 180.821C609.926 179.77 607.474 179.069 604.671 179.069" stroke="white" stroke-miterlimit="10" stroke-linecap="round" stroke-linejoin="round"/>
<path d="M633.75 191.332C640.056 191.332 646.713 191.682 652.318 194.134" stroke="white" stroke-miterlimit="10" stroke-linecap="round" stroke-linejoin="round"/>
<path d="M614.481 209.2C613.78 208.849 613.78 208.149 613.78 207.448V207.097H614.13C614.831 207.097 615.532 206.747 616.233 207.097C616.933 207.798 616.933 208.849 617.634 209.55C618.335 210.601 619.736 210.601 620.787 210.951C621.838 210.951 622.889 210.951 623.94 210.951C624.641 210.951 625.342 210.951 625.692 210.951C626.042 210.951 626.743 211.652 626.743 212.353C626.743 213.053 626.042 213.754 625.342 213.404" stroke="white" stroke-miterlimit="10" stroke-linecap="round" stroke-linejoin="round"/>
<path d="M627.445 222.163C626.043 222.163 624.992 221.812 623.941 221.112C622.54 220.061 621.839 218.659 620.087 218.309C619.036 218.309 617.985 218.659 617.285 218.309C616.584 217.959 616.584 217.258 615.883 216.908C615.183 216.557 614.832 216.557 614.131 216.908C612.38 216.908 610.278 216.557 608.876 215.506C612.73 219.36 618.336 220.761 623.941 221.812" stroke="white" stroke-miterlimit="10" stroke-linecap="round" stroke-linejoin="round"/>
<path d="M619.034 223.564C618.333 223.564 617.282 223.214 616.582 222.864C615.881 222.513 615.18 222.513 614.48 222.513C613.779 222.513 613.078 221.813 612.728 221.462" stroke="white" stroke-miterlimit="10" stroke-linecap="round" stroke-linejoin="round"/>
<path d="M643.21 197.638C643.56 198.339 643.21 199.39 642.509 199.74C641.808 200.09 641.108 200.441 640.407 200.441C639.706 200.441 639.356 200.441 638.655 200.441C637.954 200.09 637.604 199.039 637.604 198.339C637.604 197.638 637.604 196.937 638.305 196.587" stroke="white" stroke-miterlimit="10" stroke-linecap="round" stroke-linejoin="round"/>
<path d="M615.182 189.58C614.831 190.281 614.481 190.982 613.78 191.332C613.08 191.682 612.028 191.682 611.328 191.332C610.627 190.982 609.926 190.281 609.926 189.23C609.926 188.879 609.926 188.529 610.277 188.179C610.277 187.828 610.627 187.478 610.627 187.128" stroke="white" stroke-miterlimit="10" stroke-linecap="round" stroke-linejoin="round"/>
<path d="M617.283 192.033C616.582 189.93 614.83 187.828 612.728 187.128C610.626 186.427 608.174 186.427 605.721 187.128" stroke="white" stroke-miterlimit="10" stroke-linecap="round" stroke-linejoin="round"/>
<path d="M614.13 192.733C612.028 192.733 610.277 192.033 608.875 190.631" stroke="white" stroke-miterlimit="10" stroke-linecap="round" stroke-linejoin="round"/>
<path d="M635.853 196.938C636.554 196.587 637.605 196.587 638.306 196.237C638.656 196.237 639.357 195.886 639.707 195.886C640.408 195.886 641.108 196.237 641.809 196.237C643.911 196.938 646.013 197.989 647.765 199.04" stroke="white" stroke-miterlimit="10" stroke-linecap="round" stroke-linejoin="round"/>
<path d="M642.86 201.142C641.108 201.142 639.006 201.142 637.254 200.091C636.904 199.74 636.554 199.74 636.203 199.39" stroke="white" stroke-miterlimit="10" stroke-linecap="round" stroke-linejoin="round"/>
<path d="M476.092 281.723C476.092 281.723 598.014 313.605 615.882 320.261" stroke="#1E1E1E" stroke-miterlimit="10" stroke-linecap="round" stroke-linejoin="round"/>
<path d="M603.269 361.252C603.269 361.252 564.73 349.691 530.746 325.867C496.762 302.043 471.537 281.723 471.537 281.723C471.537 281.723 511.477 296.788 536.002 304.495C560.176 312.203 602.218 336.728 602.218 336.728" stroke="#1E1E1E" stroke-miterlimit="10" stroke-linecap="round" stroke-linejoin="round"/>
<path d="M531.798 344.436C531.798 344.436 509.025 355.297 490.807 349.341C472.589 343.385 437.554 321.663 435.101 303.795" stroke="#1E1E1E" stroke-miterlimit="10" stroke-linecap="round" stroke-linejoin="round"/>
<path d="M513.228 325.867C513.228 325.867 473.638 324.465 461.025 331.472" stroke="#1E1E1E" stroke-miterlimit="10" stroke-linecap="round" stroke-linejoin="round"/>
<path d="M443.859 297.488C443.859 297.488 459.625 326.217 471.187 328.319" stroke="#1E1E1E" stroke-miterlimit="10" stroke-linecap="round" stroke-linejoin="round"/>
<path d="M482.399 346.538C483.45 352.494 483.1 359.851 480.647 365.457C478.895 369.311 476.793 372.814 474.341 375.967C466.983 386.828 458.575 398.39 445.962 402.594C445.262 380.171 450.517 356.698 464.531 339.18" stroke="#1E1E1E" stroke-miterlimit="10" stroke-linecap="round" stroke-linejoin="round"/>
<path d="M496.411 351.092C496.411 351.092 520.585 383.675 518.483 411.703C516.031 439.731 521.987 442.884 521.987 442.884C521.987 442.884 495.01 428.17 490.105 407.849C485.55 387.529 479.945 376.668 481.696 362.304" stroke="#1E1E1E" stroke-miterlimit="10" stroke-linecap="round" stroke-linejoin="round"/>
<path d="M535.651 297.488C535.651 297.488 605.371 244.585 624.991 240.381C624.991 240.381 642.859 227.418 655.472 228.119C668.084 228.819 667.384 225.316 667.384 225.316C667.384 225.316 670.186 228.469 671.237 234.775C672.289 241.082 675.792 260.001 672.639 276.467C669.135 292.934 668.084 321.312 675.792 333.224C683.5 345.136 679.646 370.712 661.778 374.566C643.91 378.42 648.114 380.171 648.114 380.171" stroke="#1E1E1E" stroke-miterlimit="10" stroke-linecap="round" stroke-linejoin="round"/>
<path d="M622.889 354.245C622.889 354.245 647.763 377.369 650.566 385.076C653.369 392.784 654.07 397.689 654.07 397.689C654.07 397.689 634.45 385.076 620.086 384.726C605.721 384.376 567.183 360.552 567.183 360.552C567.183 360.552 463.128 293.284 453.318 292.233" stroke="#1E1E1E" stroke-miterlimit="10" stroke-linecap="round" stroke-linejoin="round"/>
<path d="M456.122 396.638C458.575 405.397 461.728 414.156 464.881 422.564C475.041 423.265 485.201 422.214 495.011 419.411" stroke="white" stroke-miterlimit="10" stroke-linecap="round" stroke-linejoin="round"/>
<path d="M520.237 417.309C537.404 411.002 556.673 411.002 574.891 410.302C593.46 409.251 611.328 407.849 626.393 396.638" stroke="white" stroke-miterlimit="10" stroke-linecap="round" stroke-linejoin="round"/>
<path d="M428.094 133.874C425.641 134.925 424.59 134.225 422.838 134.575C422.488 134.575 422.138 135.276 421.787 135.626C421.087 136.327 420.036 135.976 418.985 135.976C417.583 135.976 416.182 136.677 415.131 137.378C412.328 138.779 409.525 139.83 406.372 140.181" stroke="white" stroke-miterlimit="10" stroke-linecap="round" stroke-linejoin="round"/>
<path d="M427.042 137.378C427.042 137.378 423.889 141.932 414.43 141.582" stroke="white" stroke-miterlimit="10" stroke-linecap="round" stroke-linejoin="round"/>
<path d="M395.511 137.377C394.81 134.575 394.46 131.421 392.708 129.319C391.307 127.568 389.555 126.517 387.453 125.466C386.051 124.765 384.299 124.064 382.898 123.013" stroke="white" stroke-miterlimit="10" stroke-linecap="round" stroke-linejoin="round"/>
<path d="M388.505 189.23C388.505 189.23 342.959 183.274 332.799 151.742" stroke="white" stroke-miterlimit="10" stroke-linecap="round" stroke-linejoin="round"/>
<path d="M400.067 185.025C400.067 185.025 413.03 185.025 409.176 155.946" stroke="white" stroke-miterlimit="10" stroke-linecap="round" stroke-linejoin="round"/>
<path d="M381.498 185.726C383.25 185.026 384.652 183.274 384.652 181.522C384.652 181.172 384.652 180.821 384.301 180.471C383.951 180.121 383.601 180.121 383.25 180.121C382.9 180.471 382.9 180.821 382.9 181.172C382.9 181.872 382.9 182.573 382.9 183.274C382.9 183.974 383.25 184.675 383.951 185.026C384.301 185.376 384.301 185.376 384.652 185.376C385.002 185.376 385.352 185.726 385.703 185.726" stroke="white" stroke-miterlimit="10" stroke-linecap="round" stroke-linejoin="round"/>
<path d="M376.942 184.325C376.592 183.624 376.241 182.923 375.891 182.223C375.541 181.522 375.19 180.821 375.19 180.121C375.19 179.42 375.19 178.369 375.891 178.019C375.891 178.019 376.241 177.668 376.592 177.668C376.942 177.668 376.942 178.019 377.292 178.019C377.292 178.369 377.292 178.369 377.292 178.719C377.292 179.07 377.292 179.42 377.292 179.77C377.292 180.121 377.292 180.471 377.292 180.821C377.292 181.172 376.942 181.172 376.942 181.522C375.891 182.573 374.84 183.274 373.439 183.274" stroke="white" stroke-miterlimit="10" stroke-linecap="round" stroke-linejoin="round"/>
<path d="M369.585 181.872C369.235 181.872 369.235 181.872 369.585 181.872ZM369.585 181.872C367.483 180.821 366.432 178.719 366.082 176.617C366.082 175.916 366.082 175.216 366.432 174.515C366.783 173.814 367.483 173.464 368.184 173.464H368.534C368.534 173.464 368.534 173.814 368.885 173.814C369.235 174.865 368.885 175.566 368.534 176.617C368.184 177.318 367.483 178.018 366.783 178.719C366.082 179.069 365.732 179.42 365.031 179.42C364.33 179.42 363.629 179.42 363.279 179.069" stroke="white" stroke-miterlimit="10" stroke-linecap="round" stroke-linejoin="round"/>
<path d="M359.074 177.318C357.322 175.566 356.622 172.413 358.023 169.961C358.373 169.61 358.724 168.91 359.074 168.91C359.425 168.91 360.125 169.26 360.125 169.61C360.476 170.661 360.125 171.712 359.425 172.413C358.724 173.114 357.673 173.464 356.622 173.814C355.571 174.165 354.169 174.165 353.469 173.114" stroke="white" stroke-miterlimit="10" stroke-linecap="round" stroke-linejoin="round"/>
<path d="M350.316 171.362C349.615 171.362 348.914 170.311 348.914 169.26C348.564 167.858 348.214 166.457 348.564 165.055C348.914 164.355 349.265 163.654 349.615 163.304C349.965 162.953 350.666 162.953 351.016 163.304H351.367V163.654C351.367 164.355 351.717 164.705 351.367 165.406C351.016 165.756 350.666 166.106 349.965 166.106C349.265 166.457 348.564 166.807 348.214 166.807C347.513 167.158 346.462 167.508 345.761 167.158C345.06 166.807 344.71 166.457 344.71 165.756" stroke="white" stroke-miterlimit="10" stroke-linecap="round" stroke-linejoin="round"/>
<path d="M341.206 162.953C341.206 162.252 340.856 161.552 340.856 160.851C340.856 159.8 341.206 158.399 341.907 157.698C342.257 156.997 342.958 156.647 343.659 156.297C344.009 156.297 344.359 155.946 344.71 155.946C345.06 155.946 345.41 155.946 345.761 156.297C345.761 156.647 345.761 156.997 345.41 157.348C345.06 157.698 344.71 157.698 344.359 158.048C343.308 158.399 342.257 159.099 340.856 159.099C340.505 159.099 339.805 159.45 339.454 159.099C339.104 158.749 338.403 158.749 338.053 158.399C338.053 158.399 338.053 158.399 338.403 158.048" stroke="white" stroke-miterlimit="10" stroke-linecap="round" stroke-linejoin="round"/>
<path d="M336.652 154.194C336.302 153.844 336.652 153.143 337.003 152.793C337.353 152.443 337.703 151.742 338.054 151.392C338.404 150.691 339.105 150.34 339.455 149.99C340.156 149.64 340.856 149.289 341.557 149.289C341.557 149.64 341.908 150.34 341.557 150.691C341.207 151.041 340.856 151.392 340.506 151.392C339.455 151.742 338.404 152.092 337.353 152.092C337.003 152.092 336.652 152.092 336.302 152.092C335.952 152.092 335.601 151.742 335.251 151.392C334.9 150.691 335.251 150.34 335.251 149.64" stroke="white" stroke-miterlimit="10" stroke-linecap="round" stroke-linejoin="round"/>
<path d="M334.55 146.137C334.2 145.086 334.55 144.035 335.601 143.334M335.601 143.334C335.952 142.983 336.652 142.983 337.003 142.633C337.353 142.633 338.054 142.283 338.404 142.283C338.755 142.283 339.105 142.283 339.105 142.283C339.455 142.283 339.455 142.633 339.806 142.633C339.806 142.983 339.806 143.334 339.455 143.334C339.105 143.334 338.755 143.684 338.404 143.684C337.353 143.684 336.302 143.684 335.601 143.334ZM335.601 143.334C335.251 142.983 335.251 142.983 334.901 142.633C334.55 141.932 333.85 141.582 333.499 140.881" stroke="white" stroke-miterlimit="10" stroke-linecap="round" stroke-linejoin="round"/>
<path d="M406.373 174.515C406.023 175.216 404.972 175.916 404.271 175.916C403.22 176.267 402.519 175.916 401.468 175.916C401.118 175.916 400.417 175.566 400.417 175.216C400.417 174.865 401.118 174.515 401.468 174.515C403.22 174.515 404.271 175.916 404.621 177.668C404.621 178.019 404.621 178.019 404.621 178.369C404.621 178.719 404.271 179.07 403.921 179.07C403.57 179.07 403.22 179.07 402.87 179.07V178.719" stroke="white" stroke-miterlimit="10" stroke-linecap="round" stroke-linejoin="round"/>
<path d="M406.373 166.107C406.723 166.107 406.723 166.457 407.073 166.807C407.073 167.508 406.373 168.559 405.672 168.909C404.971 169.26 403.92 169.26 403.22 169.26C402.869 169.26 402.519 169.26 402.519 169.26C402.169 169.26 402.169 168.909 402.169 168.559C402.169 168.209 402.869 167.858 403.22 167.858C404.271 167.858 405.672 168.209 406.723 168.559C407.073 168.559 407.424 168.909 407.774 169.26C408.124 169.61 408.125 169.96 408.125 170.311C408.125 170.661 407.424 171.011 407.073 170.661" stroke="white" stroke-miterlimit="10" stroke-linecap="round" stroke-linejoin="round"/>
<path d="M406.372 158.749C407.073 158.749 407.073 159.45 407.073 160.151C407.073 160.851 406.372 161.552 405.671 161.902C404.97 162.253 404.27 162.253 403.219 162.603C402.868 162.603 402.518 162.603 402.168 162.603C401.817 162.603 401.467 162.253 401.817 161.902C401.817 161.552 402.168 161.202 402.518 161.202C403.569 160.851 404.62 160.851 405.671 161.202C406.722 161.552 407.423 162.253 407.423 163.304" stroke="white" stroke-miterlimit="10" stroke-linecap="round" stroke-linejoin="round"/>
<path d="M306.523 337.428C303.37 333.925 303.02 327.969 305.472 324.115C305.822 323.414 306.173 323.064 306.873 323.064C307.574 323.064 308.275 324.115 308.275 324.816C308.275 326.918 306.173 328.67 304.071 329.02C301.969 329.721 299.516 329.721 297.764 328.319" stroke="white" stroke-miterlimit="10" stroke-linecap="round" stroke-linejoin="round"/>
<path d="M294.611 320.261C294.261 318.159 293.91 315.707 294.611 313.605C294.961 311.502 296.363 309.4 298.815 308.7C299.866 308.349 300.917 308.7 301.268 309.751C301.268 310.451 300.917 310.802 300.567 311.152C298.465 312.904 296.012 314.305 293.209 314.656C292.509 314.656 291.808 314.656 291.107 314.305C290.757 313.955 290.407 313.605 290.407 313.254C289.706 311.853 289.356 310.101 289.706 308.349" stroke="white" stroke-miterlimit="10" stroke-linecap="round" stroke-linejoin="round"/>
<path d="M289.004 297.839C289.354 296.087 289.705 293.985 290.756 292.584C291.106 291.883 291.456 290.832 292.157 290.482C292.858 290.131 293.909 289.781 294.61 290.482L294.96 290.832C294.96 291.182 294.61 291.533 294.259 291.533C292.157 292.584 290.055 292.584 287.603 292.584C287.252 292.584 286.552 292.584 286.201 292.233C285.851 291.883 285.851 291.533 285.851 291.182C285.5 290.131 285.5 289.08 285.15 288.379" stroke="white" stroke-miterlimit="10" stroke-linecap="round" stroke-linejoin="round"/>
<path d="M283.398 278.219C283.749 276.467 284.099 274.716 285.15 272.964C285.851 271.913 286.552 270.862 287.603 270.161C288.654 269.46 290.405 269.46 291.457 270.511C290.405 271.562 289.004 272.263 287.603 272.613C286.201 272.964 284.45 272.964 283.048 272.263C281.647 271.562 280.946 269.811 281.296 268.059" stroke="white" stroke-miterlimit="10" stroke-linecap="round" stroke-linejoin="round"/>
<path d="M279.545 258.949C280.246 256.847 280.946 254.395 282.348 252.643C283.749 250.891 285.851 249.49 288.304 249.84C288.654 249.84 289.005 249.84 289.005 250.191C289.355 250.891 288.654 251.592 288.304 251.592C285.851 252.643 283.049 252.994 280.947 251.592C278.494 250.541 277.093 247.738 277.443 245.286" stroke="white" stroke-miterlimit="10" stroke-linecap="round" stroke-linejoin="round"/>
<path d="M277.792 235.826C277.092 234.075 277.792 232.323 278.843 230.921C279.894 229.52 281.646 228.819 283.398 228.119C284.099 227.768 285.15 227.418 285.85 227.418C286.551 227.418 287.602 228.119 287.602 229.17C287.602 230.571 285.85 230.921 284.449 230.921C282.347 230.921 280.245 230.571 278.493 229.52C276.741 228.469 275.34 226.367 276.04 224.265" stroke="white" stroke-miterlimit="10" stroke-linecap="round" stroke-linejoin="round"/>
<path d="M278.493 216.557C277.442 214.806 278.493 212.353 280.245 211.302C281.996 210.251 284.099 210.601 286.201 211.302C285.5 212.703 284.099 213.404 282.697 213.054C281.296 212.703 279.894 211.652 279.544 210.251C279.194 208.85 278.843 207.448 278.493 205.696" stroke="white" stroke-miterlimit="10" stroke-linecap="round" stroke-linejoin="round"/>
<path d="M470.136 225.316C468.734 224.966 467.683 224.265 466.282 223.915" stroke="white" stroke-miterlimit="10" stroke-linecap="round" stroke-linejoin="round"/>
<path d="M426.693 231.622C427.393 232.673 428.444 233.374 429.846 233.724" stroke="white" stroke-miterlimit="10" stroke-linecap="round" stroke-linejoin="round"/>
<path d="M495.011 242.132C494.661 240.03 493.259 238.279 491.858 236.877" stroke="white" stroke-miterlimit="10" stroke-linecap="round" stroke-linejoin="round"/>
<path d="M499.565 254.745C500.266 252.643 499.916 250.541 498.514 248.789" stroke="white" stroke-miterlimit="10" stroke-linecap="round" stroke-linejoin="round"/>
<path d="M490.809 271.212C490.108 270.161 489.407 269.11 488.356 268.059" stroke="white" stroke-miterlimit="10" stroke-linecap="round" stroke-linejoin="round"/>
<path d="M463.83 274.715C464.531 273.314 465.232 271.562 465.232 269.811C465.582 268.759 465.582 267.358 465.232 266.307C464.882 265.256 463.83 264.205 462.779 263.855C462.429 263.855 462.079 263.855 461.728 263.504C461.378 263.154 461.378 262.803 461.378 262.453C461.378 260.701 461.378 259.3 460.677 257.548C459.977 256.147 458.575 254.745 456.823 255.096C456.123 255.096 455.072 255.446 454.721 254.745C454.721 254.395 454.721 254.395 454.721 254.045C454.721 250.541 451.568 247.038 447.714 247.388" stroke="white" stroke-miterlimit="10" stroke-linecap="round" stroke-linejoin="round"/>
<path d="M496.763 259.65C502.719 261.752 495.712 268.409 488.004 272.964C480.297 277.869 464.18 284.876 464.18 284.876C464.18 284.876 425.291 307.298 417.934 314.655C410.577 322.013 366.783 358.099 363.279 360.201" stroke="white" stroke-miterlimit="10" stroke-linecap="round" stroke-linejoin="round"/>
<path d="M310.376 129.32C311.427 130.721 312.478 132.123 313.529 133.874" stroke="white" stroke-miterlimit="10" stroke-linecap="round" stroke-linejoin="round"/>
<path d="M297.413 132.823C298.464 133.173 299.515 133.524 300.566 133.874" stroke="white" stroke-miterlimit="10" stroke-linecap="round" stroke-linejoin="round"/>
<path d="M287.251 138.779C287.602 139.48 288.302 140.18 289.354 140.881" stroke="white" stroke-miterlimit="10" stroke-linecap="round" stroke-linejoin="round"/>
<path d="M280.245 146.837C281.296 147.188 281.997 147.538 282.698 148.239" stroke="white" stroke-miterlimit="10" stroke-linecap="round" stroke-linejoin="round"/>
<path d="M672.29 244.235C664.582 241.082 655.123 242.133 648.466 247.388C643.561 251.242 639.707 257.548 640.057 263.855C640.408 270.161 645.313 276.467 651.619 277.168C655.123 277.518 658.976 276.467 660.728 273.664C662.48 270.862 661.429 266.307 658.276 264.906C659.677 266.657 659.327 269.81 657.225 270.862C655.123 272.613 651.619 271.562 649.867 269.46C648.116 267.358 647.415 264.555 647.064 261.752C646.714 260.351 646.714 259.3 647.064 257.899C647.415 256.497 648.816 255.096 649.867 254.395C656.524 249.49 666.334 249.49 672.64 254.745" stroke="#1E1E1E" stroke-miterlimit="10" stroke-linecap="round" stroke-linejoin="round"/>
<path d="M595.212 256.847C594.862 257.898 594.862 259.3 594.511 260.351C594.161 265.256 593.81 270.511 596.613 275.066C598.365 278.219 601.518 280.321 604.671 281.722C608.876 283.824 613.43 285.226 617.985 284.525C623.59 284.175 629.196 281.022 631.999 276.117C634.802 271.212 635.853 264.905 633.4 259.65C632.7 257.548 631.298 255.796 629.546 254.745C627.094 252.993 623.59 252.993 620.437 253.344C622.89 254.044 624.992 255.796 626.043 257.898C627.094 260 626.744 262.803 625.342 264.905C624.641 266.307 623.24 267.358 622.189 268.759C621.488 269.81 620.788 270.861 619.737 271.562C618.685 272.263 617.284 272.263 615.883 272.263C611.328 272.263 606.423 270.511 604.671 266.657C603.971 265.256 603.62 263.854 603.62 262.453C603.27 259.3 603.62 256.147 604.671 253.344C605.722 250.541 608.175 248.089 611.328 247.388" stroke="#1E1E1E" stroke-miterlimit="10" stroke-linecap="round" stroke-linejoin="round"/>
<path d="M591.709 311.503C593.811 311.853 596.263 311.152 598.015 309.751C599.767 308.349 601.168 306.247 602.219 304.496C603.27 302.744 604.321 300.992 604.321 298.89C604.321 297.839 603.971 297.138 603.621 296.087C601.869 291.883 599.416 288.029 595.913 285.226C592.409 282.774 587.154 281.723 583.3 284.175C579.446 286.628 578.045 292.584 581.198 295.737C579.446 293.635 580.497 290.131 582.95 288.73C585.402 287.679 588.555 288.73 589.957 291.182C591.358 293.635 591.358 296.437 589.957 298.89C588.555 301.342 586.453 303.094 584.001 304.145C579.096 306.247 573.841 305.897 568.585 305.196" stroke="#1E1E1E" stroke-miterlimit="10" stroke-linecap="round" stroke-linejoin="round"/>
<path d="M560.876 305.547C561.927 306.948 562.278 309.05 561.227 310.452C560.176 311.853 558.424 312.904 556.672 312.554" stroke="#1E1E1E" stroke-miterlimit="10" stroke-linecap="round" stroke-linejoin="round"/>
<path d="M544.761 300.641C545.812 302.393 545.462 304.846 543.71 305.897" stroke="#1E1E1E" stroke-miterlimit="10" stroke-linecap="round" stroke-linejoin="round"/>
<path d="M537.753 306.247C536.702 307.999 535.651 310.101 535.301 312.203C535.301 312.904 534.95 313.955 535.301 314.655C535.651 315.356 536.001 316.057 536.702 316.758C538.804 318.86 540.906 321.312 544.059 322.363C546.862 323.414 550.366 323.064 552.468 320.611C550.716 320.962 548.964 320.962 547.563 320.611C545.461 319.911 543.709 318.86 543.008 316.758C542.308 314.656 543.008 312.553 544.76 311.502C546.161 310.802 548.264 311.152 550.015 310.802" stroke="#1E1E1E" stroke-miterlimit="10" stroke-linecap="round" stroke-linejoin="round"/>
<path d="M503.069 306.597C504.12 306.597 504.47 307.999 504.821 309.05C505.171 310.802 505.171 312.553 505.521 314.305C505.521 315.356 505.521 316.407 505.171 317.108C504.821 318.159 503.77 318.86 502.719 318.509" stroke="#1E1E1E" stroke-miterlimit="10" stroke-linecap="round" stroke-linejoin="round"/>
<path d="M496.763 302.393C497.463 302.043 497.814 302.744 497.814 303.444C498.164 305.897 498.514 308.349 498.164 310.802C498.164 311.853 497.113 313.604 496.062 312.904" stroke="#1E1E1E" stroke-miterlimit="10" stroke-linecap="round" stroke-linejoin="round"/>
<path d="M478.544 326.217C477.493 325.166 476.442 324.115 476.092 322.714C475.041 320.612 475.391 317.809 476.793 315.707C478.194 313.605 480.997 312.904 483.449 313.955C480.296 311.152 474.69 311.502 471.537 314.305C468.384 317.458 467.683 322.363 469.435 326.568" stroke="#1E1E1E" stroke-miterlimit="10" stroke-linecap="round" stroke-linejoin="round"/>
<path d="M476.093 373.514C475.042 363.354 468.385 353.895 459.276 348.99" stroke="#1E1E1E" stroke-miterlimit="10" stroke-linecap="round" stroke-linejoin="round"/>
<path d="M470.838 378.77C471.889 375.967 471.538 372.814 470.487 370.011C469.436 367.208 467.684 364.756 465.933 362.303C464.531 360.201 463.13 358.449 462.079 356.347C461.728 355.646 461.378 355.296 460.677 354.946C459.626 354.245 457.875 354.595 457.174 353.544" stroke="#1E1E1E" stroke-miterlimit="10" stroke-linecap="round" stroke-linejoin="round"/>
<path d="M482.399 373.164C483.45 375.617 485.202 378.42 487.304 379.821C489.757 381.573 492.91 381.923 495.362 380.522C497.114 379.471 498.165 377.018 497.815 374.916C497.815 372.814 496.764 370.712 495.362 369.31C497.114 369.31 498.866 370.361 499.917 371.763C500.968 373.164 501.318 375.266 502.019 377.018C502.369 378.069 502.369 378.77 502.369 379.821C502.369 381.923 500.968 384.025 499.566 385.427C496.063 388.93 490.457 391.032 485.903 389.28" stroke="#1E1E1E" stroke-miterlimit="10" stroke-linecap="round" stroke-linejoin="round"/>
<path d="M516.033 99.8898C512.179 99.1891 508.675 97.087 505.172 94.9849C496.763 90.0799 488.355 84.8247 479.947 79.219C468.735 71.8617 466.984 57.8476 451.918 51.1909" stroke="white" stroke-miterlimit="10" stroke-linecap="round" stroke-linejoin="round"/>
<path d="M518.485 101.992C493.61 101.291 467.083 97.8403 445.362 85.578" stroke="white" stroke-miterlimit="10" stroke-linecap="round" stroke-linejoin="round"/>
<path d="M449.817 78.1683C454.021 80.9711 457.524 85.5257 458.926 90.781" stroke="white" stroke-miterlimit="10" stroke-linecap="round" stroke-linejoin="round"/>
<path d="M450.517 72.5625C450.867 72.2121 451.568 72.5625 451.918 72.9128C457.874 77.4674 462.079 84.1241 462.779 91.4815" stroke="white" stroke-miterlimit="10" stroke-linecap="round" stroke-linejoin="round"/>
<path d="M467.333 65.205C462.077 70.1099 463.479 75.0148 464.53 77.8176C465.581 80.6204 467.683 83.0729 470.136 85.175C470.836 85.8757 471.537 86.5764 472.238 86.9267C473.289 87.2771 474.34 87.6274 475.741 87.6274C479.245 87.6274 482.398 86.5764 485.201 84.4743" stroke="white" stroke-miterlimit="10" stroke-linecap="round" stroke-linejoin="round"/>
<path d="M482.748 81.3211C480.296 82.7226 477.493 83.0729 474.69 82.0218C472.238 81.3211 469.785 79.219 468.384 77.1169C467.333 75.3652 465.581 71.8617 469.084 68.7085" stroke="white" stroke-miterlimit="10" stroke-linecap="round" stroke-linejoin="round"/>
<path d="M500.968 99.8901C499.917 98.1383 498.866 96.3866 497.815 94.6348C496.764 92.883 495.362 90.7809 493.61 89.7299C492.559 89.3795 491.158 89.0292 490.107 89.0292C486.954 89.0292 483.801 89.0292 480.998 90.4306C478.195 91.832 475.742 94.6348 476.093 97.788" stroke="white" stroke-miterlimit="10" stroke-linecap="round" stroke-linejoin="round"/>
<path d="M479.947 97.4375C480.648 97.0871 480.998 96.3864 481.699 96.0361C483.45 94.6347 486.253 94.2843 488.355 94.6347C490.808 94.985 492.56 96.7368 493.961 98.8389" stroke="white" stroke-miterlimit="10" stroke-linecap="round" stroke-linejoin="round"/>
<path d="M461.028 57.8477C460.678 59.9498 456.123 64.154 454.021 64.154" stroke="white" stroke-miterlimit="10" stroke-linecap="round" stroke-linejoin="round"/>
<path d="M457.524 55.0453C457.875 57.8481 454.021 59.2495 452.97 59.9502" stroke="white" stroke-miterlimit="10" stroke-linecap="round" stroke-linejoin="round"/>
<path d="M349.966 181.172C345.762 182.223 341.908 184.675 338.054 186.777C335.601 188.179 333.499 189.931 331.397 191.682C329.645 193.784 328.244 196.587 328.244 199.04" stroke="white" stroke-miterlimit="10" stroke-linecap="round" stroke-linejoin="round"/>
<path d="M345.062 176.267C343.66 175.916 341.908 176.267 340.507 176.967C332.799 180.121 326.843 186.777 324.391 194.485" stroke="white" stroke-miterlimit="10" stroke-linecap="round" stroke-linejoin="round"/>
<path d="M347.863 181.522C345.411 180.121 342.958 178.719 340.506 177.668C341.207 179.77 341.907 181.872 342.608 183.624C339.805 182.923 337.002 181.872 334.2 181.172C334.9 183.274 335.251 185.376 335.951 187.478C333.499 187.478 331.397 187.128 329.295 186.077C329.645 188.179 329.995 189.931 329.995 192.033C328.594 192.383 327.193 192.383 325.441 192.033C326.141 193.784 326.842 195.536 327.893 197.288" stroke="white" stroke-miterlimit="10" stroke-linecap="round" stroke-linejoin="round"/>
<path d="M142.046 116.681C144.766 121.849 148.301 127.288 153.741 129.464C160.268 131.912 167.612 128.648 173.595 125.112C177.403 122.937 181.483 120.489 185.018 117.769C191.274 113.417 197.801 108.794 205.417 107.706C213.032 106.618 222.007 110.698 223.367 118.313" stroke="white" stroke-width="0.25" stroke-miterlimit="10" stroke-linecap="round" stroke-linejoin="round"/>
<path d="M203.785 124.568C203.785 130.824 207.865 136.535 213.304 139.799C218.744 143.063 224.999 143.879 231.255 143.879C241.862 143.879 252.469 140.615 261.444 134.904" stroke="white" stroke-width="0.25" stroke-miterlimit="10" stroke-linecap="round" stroke-linejoin="round"/>
<path d="M113.07 58.9637C110.622 61.1396 108.174 63.8593 107.358 66.8511C106.542 70.1148 107.63 73.9225 110.35 75.5544C113.886 77.4582 117.965 75.5544 121.501 73.9225C126.94 71.4747 132.652 69.2989 138.363 67.395C142.715 66.0351 147.339 65.2192 151.69 66.5791C156.042 67.939 159.034 73.1066 157.13 77.1862" stroke="white" stroke-width="0.25" stroke-miterlimit="10" stroke-linecap="round" stroke-linejoin="round"/>
<path d="M106.408 111.077C109.672 112.981 109.4 118.148 106.68 120.868C103.96 123.588 99.8803 124.404 96.3446 124.948C87.0974 126.58 77.8502 128.212 68.331 130.115C63.1634 130.931 57.4519 132.291 55.0041 136.915C52.5563 140.995 53.9162 146.434 57.4519 149.97C60.7156 153.233 65.6112 154.593 70.5068 154.593C75.1304 154.593 79.754 153.233 84.3777 152.146" stroke="white" stroke-width="0.25" stroke-miterlimit="10" stroke-linecap="round" stroke-linejoin="round"/>
<path d="M21.5494 153.505C17.7417 157.041 18.5577 163.297 21.8214 167.104C25.0851 170.912 30.2527 172.544 35.1483 173.632C47.6592 176.079 60.7141 174.448 73.4971 176.079C79.4806 176.895 87.0959 180.703 85.4641 186.415C84.9201 188.318 83.5602 189.95 83.2882 191.582C82.7443 195.934 87.6399 198.654 91.9915 199.741C115.11 205.725 140.675 202.733 161.618 191.31" stroke="white" stroke-width="0.25" stroke-miterlimit="10" stroke-linecap="round" stroke-linejoin="round"/>
<path d="M211.252 73.1066C216.692 72.8346 219.139 65.2193 216.42 60.3237C213.7 55.7001 207.988 53.5243 202.549 52.1644C182.151 46.9968 160.12 48.0847 139.994 54.8842C141.898 49.4446 149.513 46.4529 148.969 40.4694C148.425 35.8457 142.714 34.2139 138.09 33.398C119.324 30.9502 100.557 30.4062 81.7909 29.8622C70.6399 29.5903 59.2168 29.3183 48.6097 32.31C50.7855 30.1342 49.9696 26.0546 47.5218 24.1507C45.074 22.2469 41.8103 21.7029 38.8185 21.431C26.0356 20.343 12.7087 19.7991 0.46977 23.3348" stroke="white" stroke-width="0.25" stroke-miterlimit="10" stroke-linecap="round" stroke-linejoin="round"/>
<path d="M217.111 142.519C213.032 144.423 208.68 146.055 204.6 147.958C195.353 152.038 186.106 155.846 176.315 156.662C166.524 157.478 155.644 154.486 149.661 146.599" stroke="white" stroke-width="0.25" stroke-miterlimit="10" stroke-linecap="round" stroke-linejoin="round"/>
<path d="M145.299 198.382C150.195 211.709 162.434 220.412 170.865 229.931C168.689 231.019 165.969 231.291 163.522 230.747C159.986 235.371 159.714 242.17 163.25 247.066C164.337 248.426 165.425 249.785 166.513 251.145C169.233 255.769 167.873 261.752 166.241 266.92C177.392 268.008 187.184 276.711 189.359 287.59C190.175 290.854 190.175 294.662 192.079 297.381C193.711 300.101 196.703 301.733 199.151 303.637C208.67 310.708 214.653 322.675 214.381 334.642" stroke="white" stroke-miterlimit="10" stroke-linecap="round" stroke-linejoin="round"/>
<path d="M137.412 292.486C137.412 284.055 137.412 275.895 137.412 267.464C137.412 266.648 137.412 265.832 137.684 265.016C138.5 263.112 140.947 262.84 142.579 261.481C144.483 259.849 145.027 257.129 144.211 254.681C143.667 252.233 142.035 250.058 140.675 248.154C141.763 245.978 143.123 243.258 145.571 242.986C146.387 242.986 147.203 242.986 148.019 243.258C150.739 243.802 153.458 244.618 156.178 245.162C157.538 242.986 159.17 239.45 160.53 237.275" stroke="white" stroke-miterlimit="10" stroke-linecap="round" stroke-linejoin="round"/>
<path d="M224.989 289.766C224.445 286.503 221.725 283.511 218.733 282.423C215.198 281.335 211.39 282.423 208.126 280.519C204.59 278.615 203.231 273.448 205.678 270.184C201.871 268.008 196.703 268.008 192.895 270.456C193.167 267.464 191.536 264.472 189.088 262.569C186.64 260.937 183.104 260.665 180.384 261.753C179.025 262.297 177.665 263.113 176.305 262.841C174.129 262.297 173.313 259.849 172.497 257.945C171.681 256.041 169.777 253.865 167.874 254.681" stroke="white" stroke-miterlimit="10" stroke-linecap="round" stroke-linejoin="round"/>
<path d="M456.285 132.63C457.682 132.346 460.817 131.425 462.179 130.01" stroke="white" stroke-linecap="round"/>
<path d="M438.562 81.7633C440.453 82.8322 444.442 85.039 445.271 85.3152" stroke="white" stroke-linecap="round"/>
<path d="M488.443 94.5173C490.899 95.2296 493.005 96.6542 494.058 98.7912V100.572C489.145 99.8597 484.231 99.1474 479.318 98.0789L480.02 97.3666C480.722 97.0104 481.073 96.2981 481.774 95.9419C483.88 94.5173 486.337 94.1611 488.443 94.5173Z" fill="white"/>
<path d="M500.726 100.216C499.673 98.4351 498.62 96.6543 497.567 94.8735C496.514 93.0927 495.111 90.9557 493.356 89.8872C492.303 89.531 490.899 89.1749 489.846 89.1749C486.687 89.1749 483.529 89.1749 480.721 90.5995C477.913 92.0242 475.808 94.5173 475.808 97.7228C471.596 96.6543 467.385 95.5858 463.524 94.1612L463.173 92.0242C462.12 84.5447 457.909 77.4214 452.293 73.1475C451.942 72.7913 451.24 72.4351 450.889 72.7913L449.135 73.1475C448.784 70.6543 448.433 68.1612 446.678 65.668C446.678 65.668 451.24 65.668 453.346 70.6543C453.346 70.6543 453.697 67.805 452.995 64.2434H454.048C456.154 64.5995 460.716 59.9694 461.067 57.8324L457.909 54.6269L457.558 54.9831C457.909 57.8324 454.048 59.2571 452.995 59.9694L451.942 60.3255C451.24 58.5447 450.538 56.7639 449.135 55.6954C449.135 55.6954 449.135 55.6954 448.784 55.3392C448.784 55.3392 447.029 52.8461 450.889 53.9146C450.889 53.9146 451.24 52.4899 451.24 50.7091H451.942C467.034 57.4762 468.788 71.7228 480.019 79.2023C488.091 84.9009 496.514 90.2434 505.288 95.2297C508.798 97.3666 512.308 99.1475 516.168 100.216L518.625 102.353C513.01 102.353 507.043 101.997 501.428 101.641L500.726 100.216ZM482.476 81.3392C480.019 82.7639 477.212 83.1201 474.404 82.0516C471.596 80.9831 469.49 79.2023 468.087 77.0653C467.385 75.2844 465.63 71.7228 469.139 68.5173L467.034 64.9557C461.769 69.942 463.173 74.9283 464.226 77.7776C465.279 80.6269 467.385 83.1201 469.841 85.257C470.543 85.9694 471.245 86.6817 471.947 87.0379C473 87.394 474.053 87.7502 475.457 87.7502C478.966 87.7502 482.125 86.6817 484.933 84.5447L485.986 83.1201L482.476 81.3392Z" fill="white"/>
<path d="M448.784 77.4214L449.837 77.7776C454.048 80.6269 457.558 85.257 458.962 90.5995L459.312 92.0241C454.75 90.2433 450.538 88.1063 446.327 85.6132L445.625 84.5447C446.678 83.4762 448.082 80.983 448.784 77.4214Z" fill="white"/>
</svg>
