<svg width="487" height="547" viewBox="0 0 487 547" fill="none" xmlns="http://www.w3.org/2000/svg">
<path d="M408.295 421.854C408.295 420.883 408.295 420.883 407.324 419.912C407.324 418.942 407.324 418.942 407.324 418.942V416.03C408.295 411.176 407.324 405.352 404.412 400.498L405.383 399.528C406.353 398.557 407.324 397.586 408.295 396.615C416.06 386.908 423.826 378.172 420.914 363.611C420.914 363.611 419.943 362.641 419.943 361.67C419.943 360.699 418.972 360.699 418.972 359.729C418.972 359.729 419.943 359.729 419.943 358.758C419.943 349.051 419.943 347.109 418.002 338.373C417.031 336.432 416.06 334.49 413.148 334.49H412.177C412.177 329.637 410.236 324.783 408.295 320.9C407.324 317.988 406.353 316.047 405.383 313.135C404.412 311.193 403.441 308.281 402.47 305.369L401.5 304.398C399.558 301.486 397.617 298.574 393.734 297.603L392.763 291.779C393.734 285.955 395.675 273.336 386.939 265.57C378.203 257.804 366.554 261.687 359.759 267.511L358.789 268.482C356.847 269.453 355.876 270.423 354.906 272.365L353.935 271.394C352.964 266.541 348.111 261.687 346.169 259.746C338.404 252.951 319.96 252.951 312.195 260.716C304.429 268.482 303.458 282.072 306.37 290.808C303.458 293.72 307.341 299.545 308.312 302.457V303.427C309.283 304.398 310.253 306.34 312.195 306.34C312.195 306.34 312.195 306.34 313.165 306.34C314.136 306.34 314.136 306.34 315.107 305.369C315.107 305.369 315.107 305.369 315.107 306.34C316.077 311.193 315.107 319.93 309.283 321.871C308.312 318.959 308.312 317.017 307.341 315.076C304.429 309.252 298.605 303.428 291.81 300.515C286.956 298.574 282.103 297.603 277.249 299.545L276.278 298.574C273.366 296.633 270.454 294.691 266.571 292.75L265.601 291.779C266.571 290.808 267.542 288.867 268.513 287.896C274.337 277.218 278.22 263.629 271.425 252.951C267.542 246.156 259.776 242.273 252.011 242.273C250.069 242.273 248.128 242.273 246.187 243.244C240.362 244.214 236.479 247.126 234.538 251.98C231.626 258.775 228.714 264.599 230.655 272.365C230.655 277.218 230.655 282.072 231.626 287.896L229.685 289.838C229.685 289.838 229.685 289.838 229.685 290.808C228.714 291.779 228.714 292.75 227.743 294.691C226.772 295.662 226.772 296.633 225.802 297.603L224.831 298.574C221.919 300.515 219.007 301.486 216.095 302.457C213.183 303.428 210.27 305.369 207.358 306.34C203.475 308.281 197.651 311.193 194.739 317.017C194.739 316.047 193.768 315.076 192.798 314.105C192.798 314.105 192.798 314.105 191.827 314.105C195.71 309.252 198.622 302.457 199.593 294.691C205.417 290.808 209.3 284.984 212.212 278.189C212.212 277.218 213.183 276.248 214.153 275.277C217.065 270.423 220.948 264.599 219.007 259.746C217.065 254.892 212.212 253.921 207.358 253.921C206.388 253.921 205.417 253.921 204.446 252.951C201.534 252.951 199.593 251.98 196.68 251.98L195.71 250.039C193.768 247.126 189.886 244.214 186.003 243.244C178.237 241.302 174.354 246.156 169.501 251.009C168.53 251.98 167.559 252.951 167.559 252.951C167.559 252.951 167.559 252.951 167.559 253.921C164.647 254.892 161.735 254.892 158.823 255.863C151.057 257.804 144.262 260.716 140.379 265.57C135.526 271.394 132.614 279.16 132.614 284.984C132.614 292.75 135.526 299.545 140.379 304.398C145.233 309.252 151.057 310.222 156.881 312.164C157.852 312.164 158.823 313.135 160.764 313.135C159.794 314.105 159.794 315.076 158.823 315.076H157.852C153.969 317.017 150.087 318.959 146.204 320.9C140.379 322.842 135.526 325.754 130.672 329.637C122.907 336.432 115.141 384.967 117.082 398.557C117.082 405.352 117.082 424.766 118.053 436.414L119.024 438.356H121.936C134.555 436.414 149.116 434.473 154.94 434.473H156.881C166.589 435.444 186.003 437.385 190.856 425.737C193.768 420.883 184.061 415.059 175.325 410.205C172.413 408.264 170.471 407.293 168.53 405.352C167.559 403.41 166.589 402.44 165.618 400.498C164.647 397.586 164.647 395.645 165.618 394.674C167.559 392.733 172.413 392.733 177.266 394.674C181.149 396.615 184.061 398.557 186.973 400.498C192.798 403.41 197.651 406.322 204.446 410.205C209.3 412.147 214.153 417 217.065 420.883C219.977 423.795 221.919 427.678 223.86 429.619C227.743 435.444 230.655 440.297 239.392 445.151H240.362C241.333 445.151 244.245 445.151 247.157 445.151C254.923 446.121 268.513 447.092 281.132 447.092C286.956 447.092 290.839 447.092 295.693 447.092C317.048 447.092 325.785 446.121 336.462 445.151C348.111 444.18 360.73 442.239 391.793 442.239C391.793 444.18 392.763 446.121 394.705 446.121H395.675C400.529 446.121 409.265 438.356 411.207 436.414C413.148 434.473 415.09 432.532 415.09 430.59C410.236 425.737 410.236 424.766 408.295 421.854ZM399.558 383.996C398.588 383.996 398.588 383.996 398.588 383.025C398.588 381.084 398.588 380.113 398.588 378.172V374.289H399.558C401.5 374.289 402.47 374.289 403.441 374.289C404.412 376.231 404.412 379.143 403.441 380.113L402.47 381.084C402.47 383.025 401.5 383.996 399.558 383.996Z" fill="#1E1E1E"/>
<path d="M386.169 300.751C390.179 301.167 391.698 285.157 385.441 291.747" stroke="white" stroke-miterlimit="10" stroke-linecap="round"/>
<path d="M243.18 487.125C275.213 486.154 295.598 504.598 343.163 517.217C376.167 525.953 434.409 551.192 466.442 529.836C479.062 521.1 482.944 500.715 485.856 487.125" stroke="#1E1E1E" stroke-miterlimit="10" stroke-linecap="round" stroke-linejoin="round"/>
<path d="M309.186 124.079C318.893 159.995 315.981 162.907 324.717 186.204C333.454 210.472 344.131 221.149 365.487 232.798C376.165 241.534 379.077 250.271 383.93 262.89" stroke="#1E1E1E" stroke-miterlimit="10" stroke-linecap="square" stroke-linejoin="round"/>
<path d="M31.5616 390.051C14.0889 414.318 2.44043 437.615 1.46973 462.854C1.46973 471.59 5.35255 479.356 13.1182 483.239C20.8839 487.122 27.6788 490.034 35.4445 491.004C100.482 505.565 165.519 521.096 229.586 537.598C259.678 545.364 320.832 549.247 321.803 541.481C321.803 533.715 314.037 533.715 309.184 532.745C299.299 529.977 284.454 531.448 274.187 529.837C259.249 527.494 248.822 522.642 234.439 522.067" stroke="#1E1E1E" stroke-miterlimit="10" stroke-linecap="round" stroke-linejoin="round"/>
<path d="M237.354 213.386C198.526 223.093 162.917 228.783 142.532 248.197C133.796 256.933 71.3634 303.662 52.9199 342.49" stroke="#1E1E1E" stroke-miterlimit="10" stroke-linecap="round"/>
<path d="M286.063 215.154C288.128 218.596 291.845 226.719 290.193 231.675" stroke="black"/>
<path d="M313.915 145.092C306.427 165.661 306.427 176.881 291.453 189.036C276.478 201.191 253.08 204.931 238.105 192.776C216.579 175.011 207.22 160.987 196.924 131.067C193.181 120.782 184.757 106.758 181.014 95.5381" stroke="#1E1E1E" stroke-miterlimit="10" stroke-linecap="round" stroke-linejoin="round"/>
<path d="M290.517 76.8386C292.389 70.2938 302.684 62.814 309.236 72.1637C316.723 82.4485 321.403 115.173 306.428 113.303" stroke="#1E1E1E" stroke-miterlimit="10" stroke-linecap="round"/>
<path d="M224.535 111.433C229.97 118.673 217.288 153.063 230.876 153.968C237.218 153.968 237.218 152.158 241.747 150.348C245.371 149.443 248.994 150.348 251.712 147.633C254.43 144.918 252.618 140.393 248.994 139.488" stroke="#1E1E1E" stroke-miterlimit="10" stroke-linecap="round" stroke-linejoin="round"/>
<path d="M245.846 116.066C254.269 117.001 262.692 116.066 269.244 105.781" stroke="#1E1E1E" stroke-miterlimit="10" stroke-linecap="round" stroke-linejoin="round"/>
<path d="M215.811 123.859C211.142 128.813 204.491 125.374 202.828 124.514" stroke="#1E1E1E" stroke-miterlimit="10" stroke-linecap="round" stroke-linejoin="round"/>
<path d="M195.989 104.888C200.668 102.083 209.092 102.083 217.515 104.888" stroke="#1E1E1E" stroke-miterlimit="10" stroke-linecap="round" stroke-linejoin="round"/>
<path d="M234.362 101.148C238.106 97.4083 251.209 82.4487 269.927 90.8635" stroke="#1E1E1E" stroke-miterlimit="10" stroke-linecap="round" stroke-linejoin="round"/>
<path d="M196.925 126.392C185.694 88.0579 190.373 48.7888 211.9 41.309C221.259 37.5691 251.208 32.8942 261.504 55.3337C271.799 58.1386 282.094 64.6835 289.581 73.0983" stroke="#1E1E1E" stroke-miterlimit="10" stroke-linecap="round" stroke-linejoin="round"/>
<path d="M309.236 108.628C312.979 108.628 315.787 112.368 314.851 116.108C313.915 119.848 309.236 121.718 306.428 119.848" stroke="#1E1E1E" stroke-miterlimit="10" stroke-linecap="round" stroke-linejoin="round"/>
<path d="M296.133 82.4483C300.812 74.9685 306.428 79.6434 308.3 99.2779" stroke="#1E1E1E" stroke-miterlimit="10" stroke-linecap="round" stroke-linejoin="round"/>
<path d="M299.876 94.603C302.684 95.538 305.492 97.408 307.363 99.2779C310.171 103.953 303.62 104.888 301.748 101.148" stroke="#1E1E1E" stroke-miterlimit="10" stroke-linecap="round" stroke-linejoin="round"/>
<path d="M317.659 76.8384C324.211 84.3182 325.147 94.603 324.211 103.953C323.275 113.303 320.467 123.587 322.339 132.937C323.275 142.287 327.954 149.767 331.698 158.181C337.314 169.401 342.929 180.621 348.545 191.841C348.545 179.686 345.737 172.206 344.801 167.531" stroke="#1E1E1E" stroke-miterlimit="10" stroke-linecap="round" stroke-linejoin="round"/>
<path d="M216.579 224.566C207.22 218.021 204.412 205.866 203.476 195.581C201.604 178.752 200.668 163.792 195.053 146.962C189.437 132.003 182.886 116.108 180.078 100.213" stroke="#1E1E1E" stroke-miterlimit="10" stroke-linecap="round" stroke-linejoin="round"/>
<path d="M210.964 31.0249C211.9 25.4151 217.515 12.3254 222.195 8.58545" stroke="#1E1E1E" stroke-miterlimit="10" stroke-linecap="round" stroke-linejoin="round"/>
<path d="M237.355 213.384C254.828 243.476 290.744 252.213 316.953 239.593C327.631 233.769 336.367 225.033 337.338 212.414" stroke="#1E1E1E" stroke-miterlimit="10" stroke-linecap="round" stroke-linejoin="round"/>
<path d="M398.493 439.558C432.467 456.06 479.061 466.738 483.915 494.888" stroke="#1E1E1E" stroke-miterlimit="10"/>
<path d="M413.305 434.309C417.831 435.655 427.47 438.639 429.818 439.813" stroke="black"/>
<path d="M445.965 446.786C451.837 449.599 464.094 455.813 466.149 458.162" stroke="black"/>
<path d="M477.893 466.603C480.461 469.049 485.599 474.382 485.599 476.144" stroke="black"/>
<path d="M464.5 287.16C472.265 301.72 477.119 319.193 477.119 337.636C478.089 372.582 483.914 447.326 485.855 487.125" stroke="#1E1E1E" stroke-miterlimit="10" stroke-linecap="round" stroke-linejoin="round"/>
<path d="M239.293 213.386C243.176 209.503 246.088 203.679 247.059 198.825" stroke="#1E1E1E" stroke-miterlimit="10" stroke-linecap="round" stroke-linejoin="round"/>
<path d="M52.9215 342.487C45.1559 356.077 35.4488 370.638 24.771 383.257C37.3902 393.935 80.1013 428.88 91.7498 432.763C91.7498 432.763 113.747 410.446 117.63 403.651" stroke="#1E1E1E" stroke-miterlimit="10" stroke-linecap="round"/>
<path d="M32.1943 375.484C34.9162 377.965 40.8883 383.169 43.0015 384.129" stroke="black"/>
<path d="M55.4893 393.736C59.732 397.418 68.7458 404.975 70.8594 405.744" stroke="black"/>
<path d="M83.5879 415.11C88.1508 418.552 97.5649 425.485 98.7178 425.677" stroke="black"/>
<path d="M191.419 401.661C189.258 401.5 184.455 401.612 182.533 403.342" stroke="black"/>
<path d="M235.411 522.071C263.562 524.983 318.892 519.159 320.833 518.189C322.775 517.218 321.804 511.394 320.833 510.423" stroke="#1E1E1E" stroke-miterlimit="10" stroke-linecap="round" stroke-linejoin="round"/>
<path d="M85.9214 445.384C84.9507 445.384 82.0386 442.472 79.1265 439.56C81.0679 437.619 83.0093 434.707 85.9214 431.794" stroke="#1E1E1E" stroke-miterlimit="10" stroke-linecap="round" stroke-linejoin="round"/>
<path d="M305.305 504.595C282.008 507.507 256.77 502.653 236.385 494.888C234.443 493.917 230.561 491.976 230.561 489.064C242.209 487.122 254.828 481.298 265.506 478.386C269.389 477.415 275.213 472.562 274.242 468.679C273.272 465.767 270.725 462.045 265.506 462.855C245.121 467.708 230.561 472.562 207.264 469.649C194.644 471.591 169.406 481.298 159.699 478.386C141.256 474.503 124.753 466.737 107.281 458.001" stroke="#1E1E1E" stroke-miterlimit="10" stroke-linecap="round" stroke-linejoin="round"/>
<path d="M240.147 469.257C240.243 471.565 240.608 476.469 241.301 477.623" stroke="black"/>
<path d="M281.399 521.183C280.726 518.394 279.899 512.586 281.976 511.663" stroke="black"/>
<path d="M272.457 544.261C272.649 541.857 273.552 536.818 275.629 535.895" stroke="black"/>
<path d="M183.963 226.915C173.285 217.604 175.226 211.087 174.256 199.914C173.285 183.154 191.728 177.568 184.934 160.808C179.109 144.98 177.206 118.042 173.323 102.213C169.44 80.7987 165.399 66.696 176.076 47.1434C183.842 34.1083 193.67 17.4225 205.318 16.4914C214.055 6.24955 226.674 0.663086 238.322 0.663086C252.883 0.663086 275.209 6.24955 286.858 14.6292C328.598 44.4237 339.276 85.3911 340.247 96.564C345.1 131.945 380.046 145.911 383.928 156.153C389.753 169.188 396.548 167.326 407.225 175.706C421.786 186.879 414.991 209.224 431.493 217.604C445.083 225.053 471.292 259.503 463.526 279.986C461.585 286.504 457.702 291.159 452.849 293.952C456.731 287.435 426.64 248.33 395.577 241.812C401.401 251.123 412.079 270.675 402.372 291.159C400.43 265.089 388.782 239.019 364.514 225.053" stroke="#1E1E1E" stroke-miterlimit="10" stroke-linecap="round" stroke-linejoin="round"/>
<path d="M217.47 185.971C216.499 194.707 216.499 203.443 217.47 212.18" stroke="#1E1E1E" stroke-miterlimit="10" stroke-linecap="round" stroke-linejoin="round"/>
<path d="M233.47 172.32C234.44 171.35 234.44 170.379 235.411 169.408C237.353 166.496 239.294 166.496 244.148 166.496C246.089 166.496 247.06 165.525 249.972 165.525C255.796 164.555 264.532 163.584 272.298 160.672" stroke="#1E1E1E" stroke-miterlimit="10" stroke-linecap="round" stroke-linejoin="round"/>
<path d="M233.47 173.291C240.265 181.057 264.532 187.852 272.298 160.672C253.855 175.232 233.47 173.291 233.47 173.291Z" stroke="#1E1E1E" stroke-miterlimit="10" stroke-linecap="round" stroke-linejoin="round"/>
<path d="M414.991 333.751C414.991 325.014 414.991 314.336 414.02 307.542C433.434 307.542 461.585 316.278 475.175 320.161" stroke="#1E1E1E" stroke-miterlimit="10" stroke-linecap="square" stroke-linejoin="round"/>
<path d="M479.059 373.553C464.498 369.67 437.318 362.875 419.846 359.963" stroke="#1E1E1E" stroke-miterlimit="10" stroke-linecap="square" stroke-linejoin="round"/>
<path d="M149.989 477.415C147.077 490.034 139.311 520.126 158.725 525.95C161.638 526.921 165.52 525.95 167.462 524.008" stroke="#1E1E1E" stroke-miterlimit="10" stroke-linecap="round"/>
<path d="M270.358 465.77C270.358 467.711 271.329 470.623 269.388 472.564C266.476 474.506 260.651 475.477 259.681 475.477C257.739 474.506 257.739 468.682 258.71 466.74" stroke="#1E1E1E" stroke-miterlimit="10" stroke-linecap="round" stroke-linejoin="round"/>
<path d="M248.999 234.741C252.216 234.741 254.823 232.134 254.823 228.917C254.823 225.7 252.216 223.093 248.999 223.093C245.782 223.093 243.175 225.7 243.175 228.917C243.175 232.134 245.782 234.741 248.999 234.741Z" fill="#1E1E1E"/>
<path d="M276.182 248.33C279.399 248.33 282.006 245.723 282.006 242.506C282.006 239.289 279.399 236.682 276.182 236.682C272.965 236.682 270.358 239.289 270.358 242.506C270.358 245.723 272.965 248.33 276.182 248.33Z" fill="#1E1E1E"/>
<path d="M306.27 248.33C309.487 248.33 312.094 245.723 312.094 242.506C312.094 239.289 309.487 236.682 306.27 236.682C303.053 236.682 300.446 239.289 300.446 242.506C300.446 245.723 303.053 248.33 306.27 248.33Z" fill="#1E1E1E"/>
<path d="M329.571 235.713C332.787 235.713 335.395 233.106 335.395 229.889C335.395 226.673 332.787 224.065 329.571 224.065C326.354 224.065 323.747 226.673 323.747 229.889C323.747 233.106 326.354 235.713 329.571 235.713Z" fill="#1E1E1E"/>
<path d="M148.048 490.04C150.193 490.04 151.931 488.301 151.931 486.157C151.931 484.012 150.193 482.274 148.048 482.274C145.904 482.274 144.166 484.012 144.166 486.157C144.166 488.301 145.904 490.04 148.048 490.04Z" fill="#1E1E1E"/>
<path d="M146.105 507.51C148.249 507.51 149.988 505.771 149.988 503.627C149.988 501.483 148.249 499.744 146.105 499.744C143.961 499.744 142.222 501.483 142.222 503.627C142.222 505.771 143.961 507.51 146.105 507.51Z" fill="#1E1E1E"/>
<path d="M149.987 525.953C152.132 525.953 153.87 524.214 153.87 522.07C153.87 519.925 152.132 518.187 149.987 518.187C147.843 518.187 146.104 519.925 146.104 522.07C146.104 524.214 147.843 525.953 149.987 525.953Z" fill="#1E1E1E"/>
<path d="M317.922 510.423C315.98 510.423 312.098 510.423 311.127 511.394C310.156 513.335 310.156 515.276 311.127 517.218" stroke="#1E1E1E" stroke-miterlimit="10" stroke-linecap="round" stroke-linejoin="round"/>
<path d="M317.923 537.6C313.07 538.571 312.099 537.6 310.158 543.424" stroke="#1E1E1E" stroke-miterlimit="10" stroke-linecap="round" stroke-linejoin="round"/>
<path d="M148.05 442.473C148.05 442.473 137.373 444.415 124.753 445.385C110.193 446.356 95.6322 445.385 92.7201 445.385C81.0716 446.356 83.0131 458.004 92.7201 457.034C110.193 457.034 124.753 458.004 142.226 458.975C145.138 458.975 145.138 460.917 142.226 461.887C136.402 462.858 131.548 463.829 125.724 463.829" stroke="#1E1E1E" stroke-miterlimit="10" stroke-linejoin="round"/>
<path d="M389.757 437.618C324.72 438.588 339.28 444.413 279.096 443.442C261.624 443.442 241.239 441.5 238.327 441.5H237.356C225.708 433.735 224.737 427.911 216 417.233C212.118 411.408 207.264 407.526 202.411 405.584C191.733 399.76 184.938 395.877 175.231 391.024C164.553 385.199 158.058 394.125 167.765 405.774C175.531 411.598 194.286 420.012 190.403 425.836C184.579 438.456 162.612 431.793 153.875 430.823C143.197 429.852 109.223 437.618 100.486 437.618C90.7792 438.588 91.6547 443.326 95.378 445.754" stroke="#1E1E1E" stroke-miterlimit="10" stroke-linejoin="round"/>
<path d="M453.321 341.478L452.393 353.545L442.671 351.777V339.575V339.11L442.207 339.077L429.126 338.142L430.006 328.463L442.133 329.396L442.671 329.437V328.897V318.767L452.386 319.65L453.322 330.88L453.354 331.268L453.738 331.332L464.968 333.204V342.868L453.902 341.023L453.363 340.934L453.321 341.478Z" stroke="#1E1E1E"/>
<path d="M350.918 350.264C348.006 347.352 344.123 344.44 340.24 342.499C337.328 340.557 332.474 340.557 329.562 336.674C327.621 334.733 326.65 332.792 323.738 329.879C321.796 327.938 314.031 325.997 310.148 325.026" stroke="white" stroke-miterlimit="10" stroke-linecap="round"/>
<path d="M309.176 367.735C316.347 366.081 321.725 364.427 328.896 365.254" stroke="white" stroke-miterlimit="10" stroke-linecap="round"/>
<path d="M325.68 367.737C329.563 364.825 334.416 361.913 339.27 359.001C350.918 352.206 358.445 344.331 366.211 332.682" stroke="white" stroke-miterlimit="10" stroke-linecap="round"/>
<path d="M375.099 331.763C376.682 326.399 380.799 315.794 384.6 316.285" stroke="white" stroke-linecap="round" stroke-linejoin="round"/>
<path d="M374.792 372.219C374.792 369.818 375.16 364.649 376.631 363.178" stroke="white" stroke-linecap="round" stroke-linejoin="round"/>
<path d="M378.623 372.525C379.441 370.176 381.106 365.261 381.229 364.403" stroke="white" stroke-linecap="round" stroke-linejoin="round"/>
<path d="M346.289 345.861C346.289 344.022 346.504 340.253 347.362 339.885" stroke="white" stroke-linecap="round" stroke-linejoin="round"/>
<path d="M343.377 344.022C343.378 341.979 343.623 337.74 344.604 337.126" stroke="white" stroke-linecap="round" stroke-linejoin="round"/>
<path d="M326.647 393.947C328.588 393.947 332.471 394.918 334.413 393.947C348.003 390.065 355.768 377.445 363.534 365.797C367.417 359.002 373.241 352.207 380.036 346.383" stroke="white" stroke-miterlimit="10" stroke-linecap="round"/>
<path d="M309.176 322.113C315.001 320.172 315.971 311.436 315 305.611" stroke="white" stroke-miterlimit="10" stroke-linecap="round"/>
<path d="M314.633 305.439C312.692 307.38 309.178 304.639 308.208 302.698C307.237 300.756 302.383 292.991 306.266 291.049C308.207 290.079 312.09 292.02 313.061 292.991" stroke="white" stroke-miterlimit="10" stroke-linecap="round"/>
<path d="M313.058 292.991C314.999 287.167 319.853 283.284 323.735 279.401C325.677 277.46 327.618 276.489 330.53 273.577C332.472 269.694 332.472 263.87 330.53 260.958" stroke="white" stroke-miterlimit="10" stroke-linecap="round"/>
<path d="M306.316 290.95C303.305 281.243 304.308 268.624 312.337 260.858C320.367 253.093 339.436 253.093 346.461 259.888C349.472 262.8 353.487 267.653 354.49 271.536" stroke="white" stroke-miterlimit="10" stroke-linecap="round"/>
<path d="M332.168 264.633C333.139 267.545 337.992 270.457 339.934 272.398C342.846 274.34 346.729 279.193 349.641 281.135" stroke="white" stroke-miterlimit="10" stroke-linecap="round"/>
<path d="M322.765 317.258C326.648 321.141 332.472 324.053 339.267 324.053C341.209 324.053 345.091 323.082 347.033 322.111C349.945 319.199 350.673 313.921 354.556 309.067" stroke="white" stroke-miterlimit="10" stroke-linecap="round"/>
<path d="M324.25 439.955C334.919 443.156 346.655 439.955 356.257 437.821C367.993 435.688 386.13 431.42 397.866 429.286" stroke="white" stroke-miterlimit="10" stroke-linecap="round"/>
<path d="M359.38 267.777C350.643 273.602 349.166 284.973 351.877 291.874C352.848 299.639 352.858 310.467 360.624 313.379C370.331 316.291 381.009 310.467 384.892 301.731" stroke="white" stroke-miterlimit="10" stroke-linecap="round"/>
<path d="M362.093 293.396C362.548 294.842 363.085 298.118 361.597 299.655C359.738 301.576 363.271 302.873 363.828 302.196C364.696 301.143 366.865 301.638 366.307 300.771" stroke="white" stroke-linecap="round" stroke-linejoin="round"/>
<path d="M359.655 267.754C367.42 260.959 378.098 258.047 386.835 265.813C394.6 272.608 394.6 283.286 392.659 292.022C391.999 293.485 391.16 296.591 393.085 297.306" stroke="white" stroke-miterlimit="10" stroke-linecap="round"/>
<path d="M354.801 273.578C356.743 272.607 360.626 272.607 361.596 273.578C363.538 275.52 363.538 279.402 367.42 281.344C371.303 283.285 375.186 281.344 378.098 281.344C387.805 281.344 380.417 286.745 385.27 291.599" stroke="white" stroke-miterlimit="10" stroke-linecap="round"/>
<path d="M360.251 306.889C363.471 309.738 365.757 308.774 367.471 308.051" stroke="white" stroke-miterlimit="10" stroke-linecap="round"/>
<path d="M341.209 324.054C339.268 325.024 338.297 326.966 338.297 329.878C338.297 332.79 340.239 335.702 341.209 336.673" stroke="white" stroke-miterlimit="10" stroke-linecap="round"/>
<path d="M346.062 327.935C351.886 329.876 357.71 337.642 358.681 342.496" stroke="white" stroke-miterlimit="10" stroke-linecap="round"/>
<path d="M363.537 332.79C367.42 333.761 376.156 325.024 375.186 333.761C374.215 339.585 376.156 342.497 379.068 346.38" stroke="white" stroke-miterlimit="10" stroke-linecap="round"/>
<path d="M380.036 346.381C389.743 344.44 389.743 348.322 391.685 353.176C399.45 350.264 399.45 340.557 399.45 334.733C399.45 327.938 400.421 322.113 400.421 315.318" stroke="white" stroke-miterlimit="10" stroke-linecap="round"/>
<path d="M392.658 297.848C396.541 297.848 400.562 301.31 402.503 305.193C404.445 311.017 405.277 315.32 408.19 320.174C410.131 324.057 412.072 328.91 412.072 333.764" stroke="white" stroke-miterlimit="10" stroke-linecap="round"/>
<path d="M392.045 353.22C388.162 357.103 387.805 359.002 385.864 365.797C384.893 368.709 382.952 373.563 378.098 372.592C376.157 372.592 372.274 372.592 371.303 370.65C369.362 368.709 372.274 362.885 373.245 359.973C373.245 359.002 373.245 358.031 372.274 358.031C371.303 358.031 370.333 358.031 369.362 358.031" stroke="white" stroke-miterlimit="10" stroke-linecap="round"/>
<path d="M399.723 334.667C406.085 334.667 408.154 334.807 413.456 334.807C415.576 334.807 416.637 335.868 417.697 337.989C419.818 347.532 419.818 349.653 419.818 360.257" stroke="white" stroke-miterlimit="10" stroke-linecap="round"/>
<path d="M391.149 354.116C397.944 354.116 416.777 355.15 419.689 360.974C420.66 361.945 420.66 363.887 421.63 364.857C424.542 379.418 414.835 389.125 407.07 399.803" stroke="white" stroke-miterlimit="10" stroke-linecap="round"/>
<path d="M367.418 359.972C369.36 367.737 370.331 374.532 373.243 383.269C376.155 392.005 376.138 400.026 380.992 406.821" stroke="white" stroke-miterlimit="10" stroke-linecap="round"/>
<path d="M405.278 358.998C399.454 358.027 394.212 357.059 389.358 357.059" stroke="white" stroke-miterlimit="10" stroke-linecap="round"/>
<path d="M386.833 362.882C390.716 362.882 399.452 363.853 404.306 364.824" stroke="white" stroke-miterlimit="10" stroke-linecap="round"/>
<path d="M385.861 365.797C391.685 366.768 395.568 367.738 402.363 368.709C402.363 369.68 392.656 367.738 391.685 367.738C388.773 371.621 400.905 374.589 403.817 374.589C404.788 376.53 404.863 378.33 403.892 380.272L402.921 381.243C401.951 382.213 402.363 383.27 401.392 383.27" stroke="white" stroke-miterlimit="10" stroke-linecap="round"/>
<path d="M401.386 383.162C402.403 385.127 404.426 388.159 403.409 391.107C402.391 394.055 400.356 395.038 403.409 398.968C406.461 402.899 409.514 410.76 407.479 416.655C407.479 417.638 407.144 419.886 408.04 421.252" stroke="white" stroke-miterlimit="10" stroke-linecap="round"/>
<path d="M377.124 373.56C376.153 377.443 377.124 382.296 378.095 386.179C379.065 390.062 381.007 393.945 381.978 397.828C382.948 403.652 381.007 409.476 378.095 414.33C376.153 416.271 374.212 418.213 371.3 421.125C368.885 422.317 364.505 423.066 365.476 426.949C367.417 432.773 373.241 430.832 377.124 429.861C381.297 425.387 388.772 427.92 391.685 423.066C393.626 420.154 393.626 414.33 394.597 410.447C396.538 399.769 398.112 385.139 399.083 374.461" stroke="white" stroke-miterlimit="10" stroke-linecap="round"/>
<path d="M382.32 403.635C384.453 404.573 390.024 406.066 395.244 404.531" stroke="white" stroke-linecap="round" stroke-linejoin="round"/>
<path d="M382.192 399.924C384.538 401.161 390.535 402.97 395.756 400.308" stroke="white" stroke-linecap="round" stroke-linejoin="round"/>
<path d="M398.827 427.179C397.76 424.406 395.244 418.401 393.708 416.559" stroke="white" stroke-linecap="round" stroke-linejoin="round"/>
<path d="M395.116 418.094C399.296 417.241 407.86 414.742 408.679 411.568" stroke="white" stroke-linecap="round" stroke-linejoin="round"/>
<path d="M396.012 419.757C399.083 419.629 405.762 418.76 407.912 416.303" stroke="white" stroke-linecap="round" stroke-linejoin="round"/>
<path d="M399.091 427.453C397.15 433.277 392.296 437.16 392.296 442.013C393.267 452.691 406.857 440.072 410.74 436.189C413.652 434.248 416.564 429.394 412.681 426.482" stroke="white" stroke-miterlimit="10" stroke-linecap="round"/>
<path d="M346.061 327.935C343.149 329.876 339.762 337.866 340.733 342.72" stroke="white" stroke-miterlimit="10" stroke-linecap="round"/>
<path d="M348.977 347.354C349.947 347.354 350.918 341.529 350.918 340.559C350.918 341.529 350.918 342.5 350.918 342.5C350.918 344.441 352.859 344.441 353.83 343.471C354.801 342.5 354.801 339.588 355.772 336.676" stroke="white" stroke-miterlimit="10" stroke-linecap="round"/>
<path d="M350.915 318.228C356.739 320.169 358.68 327.935 363.534 331.818" stroke="white" stroke-miterlimit="10" stroke-linecap="round"/>
<path d="M338.863 292.18C339.834 296.063 340.804 298.975 343.716 301.887C343.716 302.857 342.746 303.828 340.804 304.799C338.863 305.77 336.921 304.799 335.951 303.828" stroke="white" stroke-miterlimit="10" stroke-linecap="round"/>
<path d="M306.264 366.767C306.264 358.031 308.206 349.294 309.177 340.558C310.147 331.822 309.289 321.769 307.347 314.974C304.435 308.179 297.528 302.7 290.733 299.788C285.363 297.487 280.198 297.562 276.84 299.52C262.852 301.479 256.706 317.011 253.846 329.88C252.876 335.705 252.803 335.97 255.715 341.794C256.686 344.706 250.231 348.302 252.648 355.646L253.67 361.41" stroke="white" stroke-miterlimit="10" stroke-linecap="round"/>
<path d="M285.881 359.973C300.442 359.002 304.324 339.588 302.383 327.94C300.442 318.232 289.764 313.379 281.998 307.555C281.027 310.467 276.174 313.379 273.262 315.32C270.35 317.262 267.438 321.145 266.467 325.027C264.525 332.793 264.525 341.529 266.467 347.354C268.408 353.178 275.203 359.002 281.027 359.973C283.94 359.973 284.91 359.973 285.881 359.973Z" stroke="white" stroke-miterlimit="10" stroke-linecap="round"/>
<path d="M297.255 353.659C294.343 364.336 315.001 370.649 320.825 374.532C324.708 376.473 326.65 380.356 326.65 385.21C326.65 394.917 326.65 403.653 325.679 413.36C324.708 423.067 323.556 436.765 323.556 446.472" stroke="white" stroke-miterlimit="10" stroke-linecap="round"/>
<path d="M270.358 354.138C267.446 361.904 252.885 361.904 247.061 362.875C237.354 364.816 232.5 371.611 229.588 381.318C226.676 394.908 222.812 417.241 222.812 430.831" stroke="white" stroke-miterlimit="10" stroke-linecap="round"/>
<path d="M261.613 360.943C261.613 363.855 261.613 367.738 263.554 369.68C265.496 373.563 271.32 377.445 276.173 377.445C286.851 378.416 297.529 374.533 304.324 366.768" stroke="white" stroke-miterlimit="10" stroke-linecap="round"/>
<path d="M243.177 386.169C243.177 393.935 243.177 400.73 242.207 408.496C241.236 414.32 239.295 418.203 238.324 423.056C237.353 427.91 239.035 441.412 240.976 445.295" stroke="white" stroke-miterlimit="10" stroke-linecap="round"/>
<path d="M310.148 397.828C309.177 404.623 307.236 411.418 306.265 418.213C305.295 425.979 304.719 440.052 304.719 447.817" stroke="white" stroke-miterlimit="10" stroke-linecap="round"/>
<path d="M310.148 400.741C314.031 397.829 322.701 396.03 326.583 392.147" stroke="white" stroke-miterlimit="10" stroke-linecap="round"/>
<path d="M229.58 382.051C233.462 388.846 238.323 389.084 242.205 393.938" stroke="white" stroke-miterlimit="10" stroke-linecap="round"/>
<path d="M292.921 347.777C292.057 348.641 287.738 346.914 286.874 346.914C285.146 346.914 281.691 346.914 279.963 347.777C279.099 347.777 277.371 349.505 276.507 348.641C282.554 352.961 288.602 351.233 292.921 347.777Z" stroke="white" stroke-miterlimit="10" stroke-linecap="round"/>
<path d="M287.266 337.077C289.207 338.048 288.81 340.21 286.869 340.21C285.91 340.21 285.792 342.005 284.902 342.111C283.09 342.328 282.578 340.993 281.927 340.342C279.791 340.224 279.989 339.05 281.039 337.072" stroke="white" stroke-miterlimit="10" stroke-linecap="round"/>
<path d="M287.389 327.85C286.608 328.41 285.223 330.336 285.926 333.554" stroke="white" stroke-linecap="round" stroke-linejoin="round"/>
<path d="M288.552 329.401C289.991 327.876 293.955 325.637 298.305 328.883" stroke="white" stroke-linecap="round" stroke-linejoin="round"/>
<path d="M280.063 329.214C278.636 327.701 274.703 325.48 270.387 328.7" stroke="white" stroke-linecap="round" stroke-linejoin="round"/>
<path d="M290.883 327.975C290.831 329.108 291.222 331.175 293.202 330.371C295.181 329.567 294.181 328.181 293.433 327.588" stroke="white" stroke-linecap="round" stroke-linejoin="round"/>
<path d="M273.786 327.872C273.735 328.997 274.123 331.047 276.087 330.249C278.051 329.452 277.058 328.076 276.317 327.488" stroke="white" stroke-linecap="round" stroke-linejoin="round"/>
<path d="M289.847 330.522C290.825 331.012 293.541 331.782 296.579 330.954" stroke="white" stroke-linecap="round" stroke-linejoin="round"/>
<path d="M271.671 330.327C272.642 330.812 275.337 331.577 278.351 330.755" stroke="white" stroke-linecap="round" stroke-linejoin="round"/>
<path d="M324.206 294.72C326.796 292.986 329.562 292.635 332.503 293.666" stroke="white" stroke-miterlimit="10" stroke-linecap="round"/>
<path d="M354.382 293.133C355.632 293.133 355.632 291.882 358.133 291.882" stroke="white" stroke-miterlimit="10" stroke-linecap="round"/>
<path d="M151.93 316.281C159.695 325.018 168.432 333.754 174.256 343.461C181.051 353.168 185.904 362.875 190.758 372.582C194.641 382.289 203.872 402.009 207.755 412.687" stroke="white" stroke-miterlimit="10" stroke-linecap="round"/>
<path d="M147.076 319.191C154.841 327.928 159.695 332.781 167.461 342.488C174.255 352.195 179.109 361.903 183.963 371.61C187.845 381.317 195.738 397.807 199.621 408.485" stroke="white" stroke-miterlimit="10" stroke-linecap="round"/>
<path d="M160.677 379.404C160.677 382.316 159.707 387.169 159.707 390.082C159.707 392.994 161.648 397.847 162.619 400.759" stroke="white" stroke-miterlimit="10" stroke-linecap="round"/>
<path d="M159.298 284.257C156.462 281.32 151.93 281.336 150.959 283.278C149.989 286.19 150.959 289.102 152.901 291.043C153.872 292.985 158.725 300.75 161.637 297.838" stroke="white" stroke-miterlimit="10" stroke-linecap="round"/>
<path d="M160.67 298.806C161.641 310.454 179.113 317.249 187.85 322.103" stroke="white" stroke-miterlimit="10" stroke-linecap="round"/>
<path d="M157.755 314.338C171.345 322.104 189.788 325.986 207.261 325.986" stroke="white" stroke-miterlimit="10" stroke-linecap="round"/>
<path d="M159.095 314.745C161.037 312.803 161.638 309.486 162.609 305.603" stroke="white" stroke-miterlimit="10" stroke-linecap="round"/>
<path d="M191.507 312.517C193.449 315.429 197.553 322.106 190.758 324.048" stroke="white" stroke-miterlimit="10" stroke-linecap="round"/>
<path d="M176.199 313.369C182.994 315.31 187.768 315.387 192.621 311.504C199.416 303.738 201.437 292.013 200.466 282.306C200.466 275.511 200.467 263.863 192.701 261.921C179.111 258.039 158.726 267.746 153.873 281.335" stroke="white" stroke-miterlimit="10" stroke-linecap="round"/>
<path d="M197.554 266.773C190.759 263.861 184.935 268.715 179.11 267.744C178.14 267.744 177.169 266.773 177.169 265.803C176.198 265.803 167.462 279.393 170.374 279.393C162.608 280.363 163.579 283.275 162.608 288.129" stroke="white" stroke-miterlimit="10" stroke-linecap="round"/>
<path d="M200.623 294.102C206.447 290.279 209.641 284.971 212.553 278.282C214.494 274.459 221.289 265.858 219.348 260.125C217.407 254.391 209.641 254.391 205.758 253.435C191.198 251.524 174.695 251.524 159.164 255.346C151.399 257.258 145.574 259.169 140.721 264.903C136.838 270.637 132.955 277.326 132.955 284.016C132.955 291.661 134.699 300.515 140.524 306.249C146.348 311.983 151.236 312.711 159.001 314.622" stroke="white" stroke-miterlimit="10" stroke-linecap="round"/>
<path d="M167.462 250.272C173.286 244.448 177.169 238.623 185.905 240.565C189.788 241.536 193.671 243.477 195.612 247.36" stroke="white" stroke-miterlimit="10" stroke-linecap="round"/>
<path d="M183.607 292.129C180.872 295.435 187.152 293.546 188.816 295.895C198.524 295.895 188.816 286.842 188.816 283.447" stroke="white" stroke-miterlimit="10" stroke-linecap="round"/>
<path d="M175.23 283.276C177.172 282.305 178.143 282.305 181.055 283.276" stroke="white" stroke-miterlimit="10" stroke-linecap="round"/>
<path d="M180.017 282.95C180.154 284.094 180.044 286.205 178.506 285.491C176.967 284.777 177.636 283.362 178.163 282.744" stroke="white" stroke-linecap="round" stroke-linejoin="round"/>
<path d="M176.034 285.216C177.178 285.445 179.742 285.834 180.841 285.56" stroke="white" stroke-linecap="round" stroke-linejoin="round"/>
<path d="M192.105 285.697C192.723 286.017 194.248 286.521 195.402 285.972" stroke="white" stroke-linecap="round" stroke-linejoin="round"/>
<path d="M182.627 301.631C183.314 301.265 184.866 300.574 185.58 300.738C186.473 300.944 186.473 301.425 187.984 301.013C189.193 300.683 190.502 301.059 191.006 301.288" stroke="white" stroke-linecap="round" stroke-linejoin="round"/>
<path d="M191.73 283.278C192.701 282.307 194.642 283.278 195.613 284.248" stroke="white" stroke-miterlimit="10" stroke-linecap="round"/>
<path d="M179.049 302.793C184.721 304.515 189.002 304.312 192.885 302.37" stroke="white" stroke-miterlimit="10" stroke-linecap="round"/>
<path d="M174.068 300.18C174.949 299.774 176.713 298.961 176.306 298.079C176.782 296.792 177.733 294.216 180.377 292.997" stroke="white" stroke-miterlimit="10" stroke-linecap="round"/>
<path d="M157.755 288.132C157.755 289.103 158.726 290.073 158.726 291.044" stroke="white" stroke-miterlimit="10" stroke-linecap="round"/>
<path d="M228.827 291.659C234.651 302.337 243.179 323.078 245.121 339.58C246.092 347.345 246.058 354.667 247.999 362.433" stroke="white" stroke-miterlimit="10" stroke-linecap="round"/>
<path d="M239.335 314.466C246.13 315.437 252.091 315.623 258.886 314.652" stroke="white" stroke-miterlimit="10" stroke-linecap="round"/>
<path d="M240.229 318.826C243.617 319.467 251.639 320.474 256.62 319.375" stroke="white" stroke-linecap="round" stroke-linejoin="round"/>
<path d="M241.694 322.672C244.777 323.252 251.858 324.118 255.521 322.946" stroke="white" stroke-linecap="round" stroke-linejoin="round"/>
<path d="M242.702 326.792C245.54 327.25 251.858 327.983 254.422 327.25" stroke="white" stroke-linecap="round" stroke-linejoin="round"/>
<path d="M243.617 330.455C245.662 330.821 250.54 331.316 253.689 330.363" stroke="white" stroke-linecap="round" stroke-linejoin="round"/>
<path d="M244.35 334.3C245.479 334.575 248.782 334.959 252.957 334.3" stroke="white" stroke-linecap="round" stroke-linejoin="round"/>
<path d="M245.082 338.513C247.158 338.848 251.858 339.3 254.056 338.421" stroke="white" stroke-linecap="round" stroke-linejoin="round"/>
<path d="M245.448 343.457C248.134 343.884 253.945 344.427 255.704 343.182" stroke="white" stroke-linecap="round" stroke-linejoin="round"/>
<path d="M246.089 347.761C247.738 348.157 251.382 348.841 252.774 348.401" stroke="white" stroke-linecap="round" stroke-linejoin="round"/>
<path d="M246.272 352.064C247.554 352.522 250.521 353.31 252.133 352.797" stroke="white" stroke-linecap="round" stroke-linejoin="round"/>
<path d="M247.005 356.826L252.774 357.192" stroke="white" stroke-linecap="round" stroke-linejoin="round"/>
<path d="M232.501 292.985C235.413 298.809 242.208 304.633 249.003 304.633C251.915 304.633 254.827 303.663 256.769 301.721C262.593 297.838 265.505 292.014 268.417 287.161C274.242 276.483 278.124 262.893 271.329 252.215C265.505 243.479 254.827 240.567 245.12 242.508C239.296 243.479 235.413 246.391 233.472 251.244C230.56 258.039 227.648 263.864 229.589 271.629C229.589 276.483 229.589 285.219 232.501 292.985Z" stroke="white" stroke-miterlimit="10" stroke-linecap="round"/>
<path d="M265.494 292.022C269.377 293.963 274.172 296.249 277.084 299.161" stroke="white" stroke-miterlimit="10" stroke-linecap="round"/>
<path d="M229.586 272.596C231.175 267.832 235.809 265.099 244.464 261.389C249.54 257.474 253.131 250.27 257.737 250.27M257.737 250.27C269.385 252.211 272.029 272.608 271.059 282.315M257.737 250.27C258.134 248.949 258.385 245.935 256.209 244.452" stroke="white" stroke-miterlimit="10" stroke-linecap="round"/>
<path d="M262.572 296.175C261.602 299.087 260.379 306.953 260.379 311.806" stroke="white" stroke-miterlimit="10" stroke-linecap="round"/>
<path d="M243.479 293.033C246.391 294.975 252.215 294.975 255.127 293.033" stroke="white" stroke-miterlimit="10" stroke-linecap="round"/>
<path d="M239.444 271.218C241.932 271.218 244.42 271.218 246.908 272.462" stroke="white" stroke-miterlimit="10" stroke-linecap="round"/>
<path d="M257.446 275.067C258.792 274.196 262.996 273.914 264.227 275.439" stroke="white" stroke-miterlimit="10" stroke-linecap="round"/>
<path d="M254.818 406.564C254.818 408.505 253.847 410.446 253.847 413.358C253.847 415.3 255.789 417.241 256.759 420.153C257.73 422.095 268.408 428.89 270.349 428.89C272.291 428.89 277.144 425.007 279.086 423.066C281.998 420.153 286.851 417.241 286.851 412.388C286.851 409.476 285.881 410.446 285.881 405.593C285.881 403.651 285.881 401.71 285.881 396.856C282.968 397.827 278.115 399.769 277.144 399.769C276.173 399.769 275.203 399.769 275.203 399.769C272.291 398.798 269.378 398.798 266.466 399.769C264.525 399.769 262.584 400.739 259.671 399.769C256.759 398.798 255.789 397.827 251.906 397.827C253.847 399.769 254.818 403.651 254.818 406.564Z" stroke="white" stroke-miterlimit="10" stroke-linecap="round"/>
<path d="M258.523 421.95C256.67 428.44 254.263 441.594 255.104 448.154" stroke="white" stroke-miterlimit="10" stroke-linecap="round"/>
<path d="M286.05 416.03C295.262 422.024 301.019 435.509 301.019 448.995" stroke="white" stroke-miterlimit="10" stroke-linecap="round"/>
<path d="M265.494 419.182C268.406 421.123 269.377 418.211 269.377 415.299C269.377 417.24 271.318 422.094 275.201 419.182" stroke="white" stroke-miterlimit="10" stroke-linecap="round"/>
<path d="M157.755 313.366C149.019 319.19 138.341 321.132 130.576 326.956C122.81 333.751 116.015 382.286 116.986 394.906C116.986 404.613 116.986 422.085 117.956 432.763" stroke="white" stroke-miterlimit="10" stroke-linecap="round"/>
<path d="M193.673 316.281C196.585 320.164 205.321 325.018 210.175 325.988C226.677 331.813 235.503 350.278 245.21 362.897" stroke="white" stroke-miterlimit="10" stroke-linecap="round"/>
<path d="M153.47 402.398C155.411 401.428 162.206 401.428 167.06 401.428" stroke="white" stroke-miterlimit="10" stroke-linecap="round"/>
<path d="M202.792 398.226C214.44 399.197 211.528 398.226 223.176 400.167" stroke="white" stroke-miterlimit="10" stroke-linecap="round"/>
<path d="M193.673 283.278C193.673 284.249 193.673 284.249 193.673 285.22C193.673 286.19 194.644 286.19 194.644 286.19C195.614 286.19 195.614 285.22 195.614 284.249" stroke="white" stroke-miterlimit="10" stroke-linecap="round"/>
<path d="M242.391 271.303C242.391 272.547 241.861 271.792 241.861 273.037C241.861 274.281 243.105 274.281 243.105 274.281C244.349 274.281 244.349 273.037 244.349 271.792" stroke="white" stroke-miterlimit="10" stroke-linecap="round"/>
<path d="M260.744 274.568C259.795 274.661 259.534 275.472 259.534 276.316C259.534 277.161 260.787 277.161 260.787 277.161C262.04 277.161 262.04 277.161 262.04 276.316C262.04 276.316 262.335 275.084 261.692 274.661" stroke="white" stroke-miterlimit="10" stroke-linecap="round"/>
<path d="M254.577 273.667C253.764 274.809 252.291 277.719 252.894 280.226C253.648 283.359 254.983 285.216 252.836 285.274C250.689 285.333 250.979 286.493 249.644 285.855C248.309 285.216 245.466 284.462 246.742 283.533" stroke="white" stroke-linecap="round" stroke-linejoin="round"/>
<path d="M356.375 292.18L355.769 292.939L355.924 294.303C356.683 294.908 357.288 294.149 357.134 292.785" stroke="white" stroke-miterlimit="10" stroke-linecap="round"/>
<path d="M179.109 392.966C179.109 392.966 177.168 396.849 173.285 397.82C169.402 398.791 166.49 395.878 166.49 395.878" stroke="#1E1E1E" stroke-miterlimit="10" stroke-linecap="round" stroke-linejoin="round"/>
<path d="M95.1265 440.341C98.3479 439.88 101.94 438.716 102.835 441.261C102.835 442.232 103.398 444.412 102.427 445.383" stroke="#1E1E1E" stroke-miterlimit="10" stroke-linecap="round" stroke-linejoin="round"/>
<path d="M87.3019 454.033C89.3733 454.838 92.8295 454.916 94.2059 453.803C94.2059 452.832 94.2059 449.596 94.2059 448.625C92.9786 448.318 89.6724 447.843 86.2666 448.395" stroke="#1E1E1E" stroke-miterlimit="10" stroke-linecap="round" stroke-linejoin="round"/>
<path d="M111.58 448.51C111.12 450.006 110.499 453.435 111.696 455.184" stroke="black"/>
<path d="M116.412 435.853C115.76 437.733 114.847 441.906 116.412 443.562" stroke="black"/>
<path d="M249.092 116.218C249.308 116.994 249.519 119.091 248.639 121.267C249.07 119.454 250.244 115.946 251.487 116.412C252.73 116.878 252.393 121.287 252.069 123.434C252.156 120.92 252.652 115.972 253.947 116.282C255.241 116.593 255.781 121.677 255.889 124.18C255.392 121.396 254.775 115.842 256.277 115.894C257.779 115.946 258.715 120.942 258.996 123.434C258.36 120.808 257.402 115.531 258.657 115.434C259.912 115.336 261.779 118.677 262.556 120.361C261.65 118.505 260.045 114.741 260.873 114.534C261.909 114.275 264.369 116.411 264.822 116.994C264.196 115.915 263.048 113.628 263.463 113.11" stroke="#1E1E1E" stroke-linecap="round" stroke-linejoin="round"/>
<path d="M203.548 125.126C203.193 126.014 202.28 127.876 201.47 128.229C202.383 127.665 204.328 126.331 204.799 125.507C205.387 124.477 205.387 127.42 204.431 129.848C204.995 128.254 206.285 125.316 206.932 126.316C207.58 127.317 207.104 130.118 206.785 131.393C207.08 129.676 207.874 126.346 208.698 126.758C209.522 127.17 209.238 129.775 208.993 131.025C209.091 129.48 209.581 126.464 210.759 126.758C211.936 127.052 212.132 129.235 212.083 130.29C211.985 128.843 212.083 125.89 213.26 125.654" stroke="#1E1E1E" stroke-linecap="round" stroke-linejoin="round"/>
<path d="M275.494 414.493C277.126 413.871 280.939 412.825 283.144 413.62" stroke="white" stroke-linecap="round" stroke-linejoin="round"/>
<path d="M265.207 415.607C263.493 415.114 259.493 414.261 257.207 414.793" stroke="white" stroke-linecap="round" stroke-linejoin="round"/>
<path d="M265.47 416.768C264.291 416.694 261.533 416.664 259.936 417.138" stroke="white" stroke-linecap="round" stroke-linejoin="round"/>
<path d="M275.269 415.437C276.8 415.323 280.204 415.272 281.568 415.984" stroke="white" stroke-linecap="round" stroke-linejoin="round"/>
<path d="M261.491 409.31C261.32 408.577 261.432 407.272 263.25 407.917C265.522 408.723 263.543 410.482 262.517 409.896" stroke="white" stroke-linecap="round" stroke-linejoin="round"/>
<path d="M274.897 409.552C274.873 408.941 275.146 407.749 276.436 407.866C278.048 408.013 277.389 410.725 276.143 410.139" stroke="white" stroke-linecap="round" stroke-linejoin="round"/>
<path d="M267.474 413.437C266.382 413.395 268.244 414.715 269.311 415.38C269.993 414.907 271.285 413.868 270.991 413.49C270.624 413.017 268.839 413.49 267.474 413.437Z" fill="white" stroke="white" stroke-linecap="round" stroke-linejoin="round"/>
<path d="M240.234 273.757C241.127 274.179 243.388 275.007 245.292 274.948" stroke="white" stroke-linecap="round" stroke-linejoin="round"/>
<path d="M258.023 277.192C259.361 277.503 262.378 278.017 263.739 277.581" stroke="white" stroke-linecap="round" stroke-linejoin="round"/>
</svg>
