<svg width="486" height="547" viewBox="0 0 486 547" fill="none" xmlns="http://www.w3.org/2000/svg">
    <g id="[export] illustration_10">
        <g id="natives">
            <g id="Group">
                <path id="Vector" d="M407.36 422.191C407.36 421.22 407.36 421.22 406.389 420.249C406.389 419.279 406.389 419.279 406.389 419.279V416.366C407.36 411.513 406.389 405.689 403.477 400.835L404.448 399.864C405.419 398.894 406.389 397.923 407.36 396.952C415.126 387.245 422.891 378.509 419.979 363.948C419.979 363.948 419.009 362.978 419.009 362.007C419.009 361.036 418.038 361.036 418.038 360.065C418.038 360.065 419.009 360.065 419.009 359.095C419.009 349.388 419.009 347.446 417.067 338.71C416.096 336.768 415.126 334.827 412.214 334.827H411.243C411.243 329.974 409.302 325.12 407.36 321.237C406.389 318.325 405.419 316.384 404.448 313.471C403.477 311.53 402.507 308.618 401.536 305.706L400.565 304.735C398.624 301.823 396.682 298.911 392.799 297.94L390.437 297.275L391.829 292.116C392.799 286.292 394.741 273.672 386.005 265.907C377.268 258.141 365.62 262.024 358.825 267.848L357.854 268.819C355.913 269.79 354.942 270.76 353.971 272.702L353 271.731C352.03 266.878 347.176 262.024 345.235 260.083C337.469 253.288 319.026 253.288 311.26 261.053C303.494 268.819 302.524 282.409 305.436 291.145C302.524 294.057 306.407 299.882 307.377 302.794V303.764C308.348 304.735 309.319 306.677 311.26 306.677C311.26 306.677 311.26 306.677 312.231 306.677C313.201 306.677 313.201 306.677 314.172 305.706C314.172 305.706 314.172 305.706 314.172 306.677C315.143 311.53 314.172 320.266 308.348 322.208C307.377 319.296 307.377 317.354 306.407 315.413C303.494 309.589 297.67 303.764 290.875 300.852C286.022 298.911 281.168 297.94 276.315 299.882L275.344 298.911C272.432 296.969 269.52 295.028 265.637 293.087L264.666 292.116C265.637 291.145 266.608 289.204 267.578 288.233C273.402 277.555 277.285 263.965 270.49 253.288C266.608 246.493 258.842 242.61 251.076 242.61C249.135 242.61 247.193 242.61 245.252 243.581C239.428 244.551 235.545 247.463 233.603 252.317C230.691 259.112 227.779 264.936 229.721 272.702C229.721 277.555 229.721 282.409 230.691 288.233L228.75 290.175C228.75 290.175 228.75 290.175 228.75 291.145C227.779 292.116 227.779 293.087 226.809 295.028C225.838 295.999 225.838 296.969 224.867 297.94L223.896 298.911C220.984 300.852 218.072 301.823 215.16 302.794C212.248 303.764 209.336 305.706 206.424 306.677C202.541 308.618 196.717 311.53 193.804 317.354C193.804 316.384 192.834 315.413 191.863 314.442C191.863 314.442 191.863 314.442 190.892 314.442C194.775 309.589 197.687 302.794 198.658 295.028C204.482 291.145 208.365 285.321 211.277 278.526C211.277 277.555 212.248 276.585 213.219 275.614C216.131 270.76 220.014 264.936 218.072 260.083C216.131 255.229 211.277 254.258 206.424 254.258C205.453 254.258 204.482 254.258 203.512 253.288C200.599 253.288 198.658 252.317 195.746 252.317L194.775 250.376C192.834 247.463 188.951 244.551 185.068 243.581C177.302 241.639 173.42 246.493 168.566 251.346C167.595 252.317 166.625 253.288 166.625 253.288C166.625 253.288 166.625 253.288 166.625 254.258C163.713 255.229 160.8 255.229 157.888 256.2C150.123 258.141 143.328 261.053 139.445 265.907C134.591 271.731 131.679 279.497 131.679 285.321C131.679 293.087 134.591 299.882 139.445 304.735C144.298 309.589 150.123 310.559 155.947 312.501C156.918 312.501 157.888 313.471 159.83 313.471C158.859 314.442 158.859 315.413 157.888 315.413H156.918C153.035 317.354 149.152 319.296 145.269 321.237C139.445 323.179 134.591 326.091 129.738 329.974C121.972 336.768 114.207 385.304 116.148 398.894C116.148 405.689 117.287 423.393 118.258 435.041L122.201 434.722L131.792 432.803C144.412 430.862 147.602 430.992 153.426 430.992L162.378 432.484C172.086 433.454 183.586 436.64 189.922 426.074C192.834 421.22 183.127 415.396 174.39 410.542C171.478 408.601 169.537 407.63 167.595 405.689C165.208 403.836 164.642 402.191 163.671 400.249C162.7 397.337 162.137 393.432 163.107 392.461C165.049 390.52 167.207 386.722 178.172 392.871C182.055 394.812 187.148 397.232 190.06 399.173C195.884 402.085 200.43 404.975 207.225 408.858C212.079 410.799 216.303 418.554 219.215 422.436C222.127 425.348 223.167 429.001 225.108 430.942C228.991 436.766 229.258 436.117 236.227 441.395L240.839 441.908C241.809 441.908 248.175 442.471 251.087 442.471C258.852 443.442 268.289 443.599 280.908 443.599C286.733 443.599 298.447 443.547 303.3 443.547C324.656 443.547 315.629 443.237 326.307 442.266C337.036 441.372 368.153 436.921 389.782 438.009C392.118 438.013 391.633 438.554 390.812 441.632C390.812 443.573 391.829 446.458 393.77 446.458H394.741C399.594 446.458 408.331 438.693 410.272 436.751C412.214 434.81 414.155 432.868 414.155 430.927C409.301 426.074 409.302 425.103 407.36 422.191ZM398.624 384.333C397.653 384.333 397.653 384.333 397.653 383.362C397.653 381.421 397.653 380.45 397.653 378.509V374.626H398.624C400.565 374.626 401.536 374.626 402.507 374.626C403.477 376.567 403.477 379.48 402.507 380.45L401.536 381.421C401.536 383.362 400.565 384.333 398.624 384.333Z" fill="#1E1E1E"/>
            </g>
            <path id="Vector_2" d="M349.983 350.601C347.071 347.689 343.188 344.777 339.305 342.836C336.393 340.894 331.54 340.894 328.628 337.011C326.686 335.07 325.715 333.128 322.803 330.216C320.862 328.275 313.096 326.334 309.213 325.363" stroke="white" stroke-miterlimit="10" stroke-linecap="round"/>
            <path id="Vector_3" d="M308.242 368.072C315.413 366.418 320.791 364.764 327.962 365.591" stroke="white" stroke-miterlimit="10" stroke-linecap="round"/>
            <path id="Vector_4" d="M324.745 368.074C328.628 365.162 333.481 362.25 338.335 359.338C349.983 352.543 357.51 344.668 365.276 333.019" stroke="white" stroke-miterlimit="10" stroke-linecap="round"/>
            <path id="Vector 170" d="M374.164 332.099C375.748 326.736 379.865 316.131 383.665 316.622" stroke="white" stroke-linecap="round" stroke-linejoin="round"/>
            <path id="Vector 171" d="M373.857 372.556C373.857 370.155 374.225 364.986 375.696 363.515" stroke="white" stroke-linecap="round" stroke-linejoin="round"/>
            <path id="Vector 172" d="M377.688 372.862C378.506 370.512 380.172 365.598 380.294 364.74" stroke="white" stroke-linecap="round" stroke-linejoin="round"/>
            <path id="Vector 173" d="M345.354 346.198C345.355 344.359 345.569 340.59 346.427 340.222" stroke="white" stroke-linecap="round" stroke-linejoin="round"/>
            <path id="Vector 174" d="M342.443 344.359C342.443 342.316 342.688 338.076 343.669 337.463" stroke="white" stroke-linecap="round" stroke-linejoin="round"/>
            <path id="Vector_5" d="M325.712 394.284C327.654 394.284 331.537 395.255 333.478 394.284C347.068 390.402 354.834 377.782 362.599 366.134C366.482 359.339 372.306 352.544 379.101 346.72" stroke="white" stroke-miterlimit="10" stroke-linecap="round"/>
            <path id="Vector_6" d="M308.242 322.45C314.066 320.509 315.037 311.772 314.066 305.948" stroke="white" stroke-miterlimit="10" stroke-linecap="round"/>
            <path id="Vector_7" d="M313.699 305.776C311.757 307.717 308.244 304.976 307.273 303.035C306.302 301.093 301.449 293.328 305.332 291.386C307.273 290.415 311.156 292.357 312.126 293.328" stroke="white" stroke-miterlimit="10" stroke-linecap="round"/>
            <path id="Vector_8" d="M312.123 293.328C314.064 287.504 318.918 283.621 322.801 279.738C324.742 277.797 326.684 276.826 329.596 273.914C331.537 270.031 331.537 264.207 329.596 261.295" stroke="white" stroke-miterlimit="10" stroke-linecap="round"/>
            <path id="Vector_9" d="M305.381 291.287C302.37 281.58 303.374 268.961 311.403 261.195C319.432 253.43 338.501 253.43 345.527 260.225C348.537 263.137 352.552 267.99 353.556 271.873" stroke="white" stroke-miterlimit="10" stroke-linecap="round"/>
            <path id="Vector_10" d="M331.233 264.97C332.204 267.882 337.058 270.794 338.999 272.735C341.911 274.677 345.794 279.53 348.706 281.472" stroke="white" stroke-miterlimit="10" stroke-linecap="round"/>
            <path id="Vector_11" d="M321.831 317.595C325.713 321.478 331.538 324.39 338.333 324.39C340.274 324.39 344.157 323.419 346.098 322.448C349.01 319.536 349.739 314.258 353.622 309.404" stroke="white" stroke-miterlimit="10" stroke-linecap="round"/>
            <path id="Vector_12" d="M323.315 440.292C333.984 443.493 345.72 440.292 355.322 438.158C367.058 436.024 385.195 431.757 396.931 429.623" stroke="white" stroke-miterlimit="10" stroke-linecap="round"/>
            <path id="Vector_13" d="M358.445 268.114C349.709 273.939 348.231 285.31 350.942 292.211C351.913 299.976 351.924 310.804 359.689 313.716C369.397 316.628 380.074 310.804 383.957 302.068" stroke="white" stroke-miterlimit="10" stroke-linecap="round"/>
            <path id="Vector 137" d="M361.158 293.733C361.613 295.179 362.15 298.455 360.663 299.992C358.803 301.913 362.336 303.21 362.893 302.533C363.761 301.48 365.93 301.975 365.373 301.108" stroke="white" stroke-linecap="round" stroke-linejoin="round"/>
            <path id="Vector 312" d="M365.913 292.087C366.882 292.475 369.155 293.206 370.493 293.032C371.831 292.857 372.262 293.88 372.311 294.413" stroke="white" stroke-linecap="round"/>
            <path id="Vector 313" d="M367.513 292.741C367.173 293.032 366.64 293.861 367.222 294.85C367.949 296.085 369.621 295.358 369.621 294.777C369.621 294.311 369.427 293.468 369.33 293.105" stroke="white" stroke-linecap="round"/>
            <path id="Vector_14" d="M358.72 268.091C366.486 261.296 377.164 258.384 385.9 266.15C393.666 272.945 393.666 283.622 391.724 292.359C391.064 293.822 389.506 297.261 391.431 297.976" stroke="white" stroke-miterlimit="10" stroke-linecap="round"/>
            <path id="Vector_15" d="M353.867 273.915C355.808 272.944 359.691 272.944 360.662 273.915C362.603 275.856 362.603 279.739 366.486 281.681C370.369 283.622 374.252 281.681 377.164 281.681C386.871 281.681 379.482 287.082 384.336 291.936" stroke="white" stroke-miterlimit="10" stroke-linecap="round"/>
            <path id="Vector_16" d="M359.317 307.226C362.537 310.075 364.822 309.111 366.536 308.388" stroke="white" stroke-miterlimit="10" stroke-linecap="round"/>
            <path id="Vector_17" d="M340.275 324.391C338.333 325.361 337.363 327.303 337.363 330.215C337.363 333.127 339.304 336.039 340.275 337.01" stroke="white" stroke-miterlimit="10" stroke-linecap="round"/>
            <path id="Vector_18" d="M345.127 328.272C350.951 330.213 356.775 337.979 357.746 342.833" stroke="white" stroke-miterlimit="10" stroke-linecap="round"/>
            <path id="Vector_19" d="M362.603 333.127C366.485 334.098 375.222 325.361 374.251 334.098C373.28 339.922 375.222 342.834 378.134 346.717" stroke="white" stroke-miterlimit="10" stroke-linecap="round"/>
            <path id="Vector_20" d="M379.102 346.718C388.809 344.776 388.809 348.659 390.75 353.513C398.516 350.601 398.516 340.894 398.516 335.069C398.516 328.274 399.486 322.45 399.486 315.655" stroke="white" stroke-miterlimit="10" stroke-linecap="round"/>
            <path id="Vector_21" d="M391.724 298.185C395.606 298.185 399.627 301.647 401.569 305.53C403.51 311.354 404.343 315.657 407.255 320.511C409.196 324.394 411.138 329.247 411.138 334.101" stroke="white" stroke-miterlimit="10" stroke-linecap="round"/>
            <path id="Vector_22" d="M391.111 353.557C387.228 357.44 386.871 359.339 384.929 366.134C383.959 369.046 382.017 373.899 377.164 372.929C375.222 372.929 371.339 372.929 370.369 370.987C368.427 369.046 371.339 363.222 372.31 360.31C372.31 359.339 372.31 358.368 371.339 358.368C370.369 358.368 369.398 358.368 368.427 358.368" stroke="white" stroke-miterlimit="10" stroke-linecap="round"/>
            <path id="Vector_23" d="M398.788 335.003C405.151 335.003 407.219 335.144 412.521 335.144C414.642 335.144 415.702 336.205 416.763 338.326C418.884 347.869 418.884 349.99 418.884 360.594" stroke="white" stroke-miterlimit="10" stroke-linecap="round"/>
            <path id="Vector_24" d="M390.215 354.453C397.01 354.453 415.842 355.487 418.754 361.311C419.725 362.282 419.725 364.223 420.696 365.194C423.608 379.755 413.901 389.462 406.135 400.14" stroke="white" stroke-miterlimit="10" stroke-linecap="round"/>
            <path id="Vector_25" d="M366.484 360.309C368.425 368.074 369.396 374.869 372.308 383.606C375.22 392.342 375.204 400.363 380.057 407.158" stroke="white" stroke-miterlimit="10" stroke-linecap="round"/>
            <path id="Vector_26" d="M404.343 359.335C398.519 358.364 393.277 357.396 388.423 357.396" stroke="white" stroke-miterlimit="10" stroke-linecap="round"/>
            <path id="Vector_27" d="M385.898 363.219C389.781 363.219 398.518 364.19 403.371 365.161" stroke="white" stroke-miterlimit="10" stroke-linecap="round"/>
            <path id="Vector_28" d="M384.926 366.134C390.751 367.104 394.633 368.075 401.428 369.046C401.428 370.017 391.721 368.075 390.75 368.075C387.838 371.958 399.97 374.926 402.883 374.926C403.853 376.867 403.928 378.667 402.958 380.609L401.987 381.579C401.016 382.55 401.428 383.607 400.458 383.607" stroke="white" stroke-miterlimit="10" stroke-linecap="round"/>
            <path id="Vector_29" d="M400.451 383.499C401.469 385.464 403.492 388.496 402.474 391.444C401.456 394.392 399.421 395.375 402.474 399.305C405.527 403.236 408.579 411.097 406.544 416.992C406.544 417.975 406.209 420.222 407.105 421.589" stroke="white" stroke-miterlimit="10" stroke-linecap="round"/>
            <path id="Vector_30" d="M376.189 373.897C375.219 377.78 376.189 382.633 377.16 386.516C378.131 390.399 380.072 394.282 381.043 398.165C382.014 403.989 380.072 409.813 377.16 414.667C375.219 416.608 373.277 418.55 370.365 421.462C367.951 422.653 363.57 423.403 364.541 427.286C366.482 433.11 372.307 431.169 376.189 430.198C380.362 425.724 387.838 428.257 390.75 423.403C392.691 420.491 392.691 414.667 393.662 410.784C395.604 400.106 397.177 385.476 398.148 374.798" stroke="white" stroke-miterlimit="10" stroke-linecap="round"/>
            <path id="Vector 129" d="M381.386 403.972C383.518 404.91 389.089 406.403 394.31 404.868" stroke="white" stroke-linecap="round" stroke-linejoin="round"/>
            <path id="Vector 130" d="M381.258 400.261C383.604 401.498 389.601 403.307 394.821 400.645" stroke="white" stroke-linecap="round" stroke-linejoin="round"/>
            <path id="Vector 131" d="M397.892 427.516C396.826 424.743 394.309 418.738 392.774 416.896" stroke="white" stroke-linecap="round" stroke-linejoin="round"/>
            <path id="Vector 132" d="M394.182 418.431C398.361 417.578 406.926 415.079 407.745 411.905" stroke="white" stroke-linecap="round" stroke-linejoin="round"/>
            <path id="Vector 133" d="M395.077 420.094C398.148 419.966 404.827 419.097 406.977 416.64" stroke="white" stroke-linecap="round" stroke-linejoin="round"/>
            <path id="Vector_31" d="M398.157 427.79C396.215 433.614 391.362 437.497 391.362 442.35C392.333 453.028 405.922 440.409 409.805 436.526C412.717 434.585 415.629 429.731 411.747 426.819" stroke="white" stroke-miterlimit="10" stroke-linecap="round"/>
            <path id="Vector_32" d="M345.126 328.272C342.214 330.213 338.828 338.203 339.798 343.057" stroke="white" stroke-miterlimit="10" stroke-linecap="round"/>
            <path id="Vector_33" d="M348.042 347.69C349.013 347.69 349.983 341.866 349.983 340.896C349.983 341.866 349.983 342.837 349.983 342.837C349.983 344.778 351.925 344.778 352.896 343.808C353.866 342.837 353.866 339.925 354.837 337.013" stroke="white" stroke-miterlimit="10" stroke-linecap="round"/>
            <path id="Vector_34" d="M349.98 318.565C355.804 320.506 357.746 328.272 362.599 332.155" stroke="white" stroke-miterlimit="10" stroke-linecap="round"/>
            <path id="Vector_35" d="M337.928 292.517C338.899 296.399 339.87 299.312 342.782 302.224C342.782 303.194 341.811 304.165 339.87 305.136C337.928 306.107 335.987 305.136 335.016 304.165" stroke="white" stroke-miterlimit="10" stroke-linecap="round"/>
            <path id="Vector_36" d="M305.33 367.104C305.33 358.368 307.271 349.631 308.242 340.895C309.213 332.159 308.354 322.106 306.413 315.311C303.5 308.516 296.594 303.037 289.799 300.125C284.428 297.824 279.263 297.899 275.906 299.857C261.918 301.816 255.772 317.348 252.912 330.217C251.941 336.041 251.869 336.307 254.781 342.131C255.751 345.043 249.296 348.639 251.713 355.983L252.736 361.747" stroke="white" stroke-miterlimit="10" stroke-linecap="round"/>
            <path id="Vector_37" d="M284.946 360.31C299.507 359.339 303.39 339.925 301.448 328.276C299.507 318.569 288.829 313.716 281.064 307.892C280.093 310.804 275.239 313.716 272.327 315.657C269.415 317.599 266.503 321.481 265.532 325.364C263.591 333.13 263.591 341.866 265.532 347.691C267.474 353.515 274.269 359.339 280.093 360.31C283.005 360.31 283.976 360.31 284.946 360.31Z" stroke="white" stroke-miterlimit="10" stroke-linecap="round"/>
            <path id="Vector_38" d="M296.321 353.996C293.409 364.673 314.067 370.986 319.891 374.869C323.774 376.81 325.715 380.693 325.715 385.547C325.715 395.254 325.715 403.99 324.744 413.697C323.774 423.404 322.621 437.102 322.621 446.809" stroke="white" stroke-miterlimit="10" stroke-linecap="round"/>
            <path id="Vector_39" d="M269.423 354.475C266.511 362.241 251.95 362.241 246.126 363.211C236.419 365.153 231.566 371.948 228.653 381.655C225.741 395.245 221.877 417.578 221.877 431.167" stroke="white" stroke-miterlimit="10" stroke-linecap="round"/>
            <path id="Vector_40" d="M260.678 361.28C260.678 364.192 260.678 368.075 262.62 370.017C264.561 373.899 270.385 377.782 275.239 377.782C285.917 378.753 296.594 374.87 303.389 367.105" stroke="white" stroke-miterlimit="10" stroke-linecap="round"/>
            <path id="Vector_41" d="M242.243 386.506C242.243 394.272 242.243 401.067 241.272 408.833C240.301 414.657 238.36 418.54 237.389 423.393C236.419 428.247 238.1 441.749 240.042 445.632" stroke="white" stroke-miterlimit="10" stroke-linecap="round"/>
            <path id="Vector_42" d="M309.213 398.165C308.243 404.96 306.301 411.755 305.331 418.55C304.36 426.316 303.785 440.389 303.785 448.154" stroke="white" stroke-miterlimit="10" stroke-linecap="round"/>
            <path id="Vector_43" d="M309.213 401.078C313.096 398.166 321.766 396.367 325.649 392.484" stroke="white" stroke-miterlimit="10" stroke-linecap="round"/>
            <path id="Vector_44" d="M228.645 382.388C232.528 389.183 237.388 389.421 241.271 394.275" stroke="white" stroke-miterlimit="10" stroke-linecap="round"/>
            <path id="Vector_45" d="M291.986 348.114C291.122 348.978 286.803 347.25 285.939 347.25C284.211 347.25 280.756 347.251 279.028 348.114C278.164 348.114 276.437 349.842 275.573 348.978C281.62 353.298 287.667 351.57 291.986 348.114Z" stroke="white" stroke-miterlimit="10" stroke-linecap="round"/>
            <path id="Vector_46" d="M286.331 337.414C288.272 338.385 287.875 340.547 285.934 340.547C284.975 340.547 284.857 342.342 283.968 342.448C282.156 342.665 281.644 341.33 280.993 340.679C278.856 340.561 279.055 339.387 280.104 337.409" stroke="white" stroke-miterlimit="10" stroke-linecap="round"/>
            <path id="Vector 118" d="M286.454 328.187C285.674 328.747 284.289 330.673 284.991 333.891" stroke="white" stroke-linecap="round" stroke-linejoin="round"/>
            <path id="Vector 119" d="M287.618 329.737C289.056 328.213 293.021 325.974 297.371 329.22" stroke="white" stroke-linecap="round" stroke-linejoin="round"/>
            <path id="Vector 122" d="M279.129 329.551C277.702 328.038 273.768 325.817 269.452 329.037" stroke="white" stroke-linecap="round" stroke-linejoin="round"/>
            <path id="Vector 120" d="M289.948 328.311C289.896 329.445 290.288 331.512 292.267 330.708C294.246 329.904 293.246 328.517 292.499 327.925" stroke="white" stroke-linecap="round" stroke-linejoin="round"/>
            <path id="Vector 123" d="M272.851 328.209C272.8 329.334 273.189 331.384 275.152 330.586C277.116 329.789 276.124 328.413 275.382 327.825" stroke="white" stroke-linecap="round" stroke-linejoin="round"/>
            <path id="Vector 121" d="M288.913 330.859C289.891 331.348 292.607 332.119 295.645 331.291" stroke="white" stroke-linecap="round" stroke-linejoin="round"/>
            <path id="Vector 124" d="M270.737 330.664C271.707 331.149 274.402 331.914 277.416 331.092" stroke="white" stroke-linecap="round" stroke-linejoin="round"/>
            <path id="Vector_47" d="M323.272 295.057C326.652 293.223 330.208 292.771 333.939 293.702" stroke="white" stroke-miterlimit="10" stroke-linecap="round"/>
            <path id="Vector 314" d="M325.007 296.792C325.485 296.447 326.367 295.984 327.502 295.679M332.041 295.631C331.329 295.447 330.635 295.367 329.977 295.36M327.502 295.679C327.251 296.33 327.02 297.747 328.104 298.212C329.459 298.793 331.075 296.445 329.977 295.36M327.502 295.679C328.235 295.483 329.073 295.352 329.977 295.36" stroke="white" stroke-linecap="round"/>
            <path id="Vector 315" d="M341.785 294.449C342.187 294.159 342.93 293.769 343.886 293.512M347.709 293.472C347.109 293.317 346.525 293.249 345.97 293.244M343.886 293.512C343.675 294.06 343.48 295.254 344.393 295.645C345.535 296.134 346.896 294.157 345.97 293.244M343.886 293.512C344.503 293.346 345.21 293.236 345.97 293.244" stroke="white" stroke-linecap="round"/>
            <path id="Vector 317" d="M335.52 313.741C336.395 313.222 338.424 312.288 339.531 312.702C340.915 313.218 341.63 311.401 343.093 311.654C344.262 311.856 345.082 312.367 345.346 312.598" stroke="white" stroke-linecap="round"/>
            <path id="Vector 318" d="M337.407 315.391C339.365 315.512 343.662 315.376 345.178 313.865" stroke="white" stroke-linecap="round"/>
            <path id="Vector_48" d="M340.447 291.864C343.037 290.13 345.803 289.778 348.744 290.81" stroke="white" stroke-miterlimit="10" stroke-linecap="round"/>
            <path id="Vector_49" d="M353.447 293.47C354.698 293.47 354.698 292.219 357.198 292.219" stroke="white" stroke-miterlimit="10" stroke-linecap="round"/>
            <path id="Vector_50" d="M150.995 316.618C158.761 325.355 167.497 334.091 173.321 343.798C180.116 353.505 184.97 363.212 189.823 372.919C193.706 382.626 202.937 402.346 206.82 413.024" stroke="white" stroke-miterlimit="10" stroke-linecap="round"/>
            <path id="Vector_51" d="M146.141 319.528C153.907 328.265 158.76 333.118 166.526 342.825C173.321 352.532 178.174 362.239 183.028 371.947C186.911 381.654 194.804 398.144 198.687 408.822" stroke="white" stroke-miterlimit="10" stroke-linecap="round"/>
            <path id="Vector_52" d="M159.743 379.741C159.743 382.653 158.772 387.506 158.772 390.419C158.772 393.331 160.713 398.184 161.684 401.096" stroke="white" stroke-miterlimit="10" stroke-linecap="round"/>
            <path id="Vector_53" d="M158.363 284.594C155.527 281.657 150.996 281.673 150.025 283.615C149.054 286.527 150.025 289.439 151.966 291.38C152.937 293.322 157.791 301.087 160.703 298.175" stroke="white" stroke-miterlimit="10" stroke-linecap="round"/>
            <path id="Vector_54" d="M159.735 299.143C160.706 310.791 178.179 317.586 186.915 322.44" stroke="white" stroke-miterlimit="10" stroke-linecap="round"/>
            <path id="Vector_55" d="M156.82 314.675C170.41 322.44 188.854 326.323 206.326 326.323" stroke="white" stroke-miterlimit="10" stroke-linecap="round"/>
            <path id="Vector_56" d="M158.161 315.082C160.102 313.14 160.704 309.823 161.674 305.94" stroke="white" stroke-miterlimit="10" stroke-linecap="round"/>
            <path id="Vector_57" d="M190.573 312.853C192.514 315.766 196.618 322.443 189.823 324.385" stroke="white" stroke-miterlimit="10" stroke-linecap="round"/>
            <path id="Vector_58" d="M175.264 313.706C182.059 315.647 186.833 315.723 191.687 311.841C198.482 304.075 200.503 292.35 199.532 282.643C199.532 275.848 199.532 264.2 191.766 262.258C178.176 258.375 157.792 268.082 152.938 281.672" stroke="white" stroke-miterlimit="10" stroke-linecap="round"/>
            <path id="Vector_59" d="M196.619 267.11C189.824 264.198 184 269.052 178.176 268.081C177.205 268.081 176.234 267.11 176.234 266.14C175.264 266.14 166.527 279.73 169.439 279.73C161.674 280.7 162.645 283.612 161.674 288.466" stroke="white" stroke-miterlimit="10" stroke-linecap="round"/>
            <path id="Vector_60" d="M199.688 294.439C205.513 290.616 208.706 285.308 211.618 278.619C213.56 274.796 220.355 266.195 218.413 260.462C216.472 254.728 208.706 254.728 204.824 253.772C190.263 251.861 173.761 251.861 158.23 255.683C150.464 257.595 144.64 259.506 139.786 265.24C135.903 270.974 132.021 277.663 132.021 284.353C132.021 291.998 133.765 300.852 139.589 306.586C145.413 312.32 150.301 313.048 158.067 314.959" stroke="white" stroke-miterlimit="10" stroke-linecap="round"/>
            <path id="Vector_61" d="M166.527 250.609C172.352 244.785 176.234 238.96 184.971 240.902C188.854 241.873 192.736 243.814 194.678 247.697" stroke="white" stroke-miterlimit="10" stroke-linecap="round"/>
            <path id="Vector_62" d="M182.672 292.466C179.938 295.772 186.217 293.883 187.882 296.231C197.589 296.231 187.882 287.179 187.882 283.784" stroke="white" stroke-miterlimit="10" stroke-linecap="round"/>
            <path id="Vector_63" d="M174.296 283.613C176.237 282.642 177.208 282.642 180.12 283.613" stroke="white" stroke-miterlimit="10" stroke-linecap="round"/>
            <path id="Vector 125" d="M179.082 283.287C179.22 284.431 179.109 286.542 177.571 285.828C176.033 285.114 176.701 283.699 177.228 283.081" stroke="white" stroke-linecap="round" stroke-linejoin="round"/>
            <path id="Vector 126" d="M175.099 285.553C176.244 285.782 178.808 286.171 179.907 285.896" stroke="white" stroke-linecap="round" stroke-linejoin="round"/>
            <path id="Vector 127" d="M191.17 286.034C191.789 286.354 193.314 286.858 194.467 286.309" stroke="white" stroke-linecap="round" stroke-linejoin="round"/>
            <path id="Vector 128" d="M181.692 301.968C182.379 301.602 183.931 300.911 184.646 301.075C185.539 301.281 185.539 301.762 187.05 301.35C188.258 301.02 189.568 301.396 190.072 301.625" stroke="white" stroke-linecap="round" stroke-linejoin="round"/>
            <path id="Vector_64" d="M190.795 283.614C191.766 282.644 193.708 283.614 194.678 284.585" stroke="white" stroke-miterlimit="10" stroke-linecap="round"/>
            <path id="Vector_65" d="M178.114 303.13C183.786 304.852 188.068 304.648 191.95 302.707" stroke="white" stroke-miterlimit="10" stroke-linecap="round"/>
            <path id="Vector_66" d="M173.133 300.517C174.015 300.11 175.778 299.298 175.372 298.416C175.847 297.128 176.798 294.553 179.443 293.334" stroke="white" stroke-miterlimit="10" stroke-linecap="round"/>
            <path id="Vector_67" d="M156.82 288.469C156.82 289.439 157.791 290.41 157.791 291.381" stroke="white" stroke-miterlimit="10" stroke-linecap="round"/>
            <path id="Vector_68" d="M227.892 291.996C233.716 302.674 242.245 323.415 244.186 339.917C245.157 347.682 245.123 355.004 247.065 362.77" stroke="white" stroke-miterlimit="10" stroke-linecap="round"/>
            <path id="Vector_69" d="M238.401 314.803C245.195 315.773 251.156 315.96 257.951 314.989" stroke="white" stroke-miterlimit="10" stroke-linecap="round"/>
            <path id="Vector 139" d="M239.295 319.163C242.683 319.804 250.704 320.811 255.685 319.712" stroke="white" stroke-linecap="round" stroke-linejoin="round"/>
            <path id="Vector 140" d="M240.76 323.009C243.842 323.589 250.923 324.455 254.586 323.283" stroke="white" stroke-linecap="round" stroke-linejoin="round"/>
            <path id="Vector 141" d="M241.767 327.129C244.606 327.587 250.923 328.319 253.487 327.587" stroke="white" stroke-linecap="round" stroke-linejoin="round"/>
            <path id="Vector 142" d="M242.683 330.792C244.728 331.158 249.605 331.653 252.755 330.7" stroke="white" stroke-linecap="round" stroke-linejoin="round"/>
            <path id="Vector 143" d="M243.415 334.637C244.545 334.912 247.847 335.296 252.022 334.637" stroke="white" stroke-linecap="round" stroke-linejoin="round"/>
            <path id="Vector 144" d="M244.147 338.85C246.223 339.185 250.924 339.637 253.121 338.758" stroke="white" stroke-linecap="round" stroke-linejoin="round"/>
            <path id="Vector 145" d="M244.514 343.794C247.2 344.221 253.011 344.764 254.769 343.519" stroke="white" stroke-linecap="round" stroke-linejoin="round"/>
            <path id="Vector 146" d="M245.155 348.098C246.803 348.494 250.448 349.178 251.839 348.738" stroke="white" stroke-linecap="round" stroke-linejoin="round"/>
            <path id="Vector 147" d="M245.338 352.401C246.62 352.859 249.587 353.647 251.198 353.134" stroke="white" stroke-linecap="round" stroke-linejoin="round"/>
            <path id="Vector 148" d="M246.07 357.163L251.839 357.529" stroke="white" stroke-linecap="round" stroke-linejoin="round"/>
            <path id="Vector_70" d="M231.567 293.322C234.479 299.146 241.274 304.97 248.069 304.97C250.981 304.97 253.893 303.999 255.834 302.058C261.659 298.175 264.571 292.351 267.483 287.497C273.307 276.82 277.19 263.23 270.395 252.552C264.571 243.816 253.893 240.903 244.186 242.845C238.362 243.816 234.479 246.728 232.537 251.581C229.625 258.376 226.713 264.2 228.654 271.966C228.654 276.82 228.654 285.556 231.567 293.322Z" stroke="white" stroke-miterlimit="10" stroke-linecap="round"/>
            <path id="Vector_71" d="M264.56 292.359C268.442 294.3 273.237 296.586 276.149 299.498" stroke="white" stroke-miterlimit="10" stroke-linecap="round"/>
            <path id="Vector_72" d="M228.652 272.933C230.24 268.169 234.875 265.435 243.529 261.726C248.606 257.811 252.196 250.607 256.802 250.607M256.802 250.607C268.451 252.548 271.095 272.945 270.124 282.652M256.802 250.607C257.2 249.286 257.45 246.272 255.274 244.789" stroke="white" stroke-miterlimit="10" stroke-linecap="round"/>
            <path id="Vector_73" d="M261.638 296.512C260.667 299.424 259.445 307.29 259.445 312.143" stroke="white" stroke-miterlimit="10" stroke-linecap="round"/>
            <path id="Vector_74" d="M242.544 293.37C245.456 295.312 251.28 295.312 254.192 293.37" stroke="white" stroke-miterlimit="10" stroke-linecap="round"/>
            <path id="Vector_75" d="M238.509 271.555C240.997 271.555 243.486 271.555 245.974 272.799" stroke="white" stroke-miterlimit="10" stroke-linecap="round"/>
            <path id="Vector_76" d="M256.512 275.404C257.858 274.533 262.062 274.251 263.292 275.776" stroke="white" stroke-miterlimit="10" stroke-linecap="round"/>
            <path id="Vector_77" d="M253.883 406.9C253.883 408.842 252.913 410.783 252.913 413.695C252.913 415.637 254.854 417.578 255.825 420.49C256.795 422.432 267.473 429.227 269.415 429.227C271.356 429.227 276.21 425.344 278.151 423.402C281.063 420.49 285.917 417.578 285.917 412.725C285.917 409.813 284.946 410.783 284.946 405.93C284.946 403.988 284.946 402.047 284.946 397.193C282.034 398.164 277.18 400.105 276.21 400.105C275.239 400.105 274.268 400.105 274.268 400.105C271.356 399.135 268.444 399.135 265.532 400.105C263.59 400.105 261.649 401.076 258.737 400.105C255.825 399.135 254.854 398.164 250.971 398.164C252.913 400.105 253.883 403.988 253.883 406.9Z" stroke="white" stroke-miterlimit="10" stroke-linecap="round"/>
            <path id="Vector_78" d="M257.588 422.287C255.735 428.777 253.328 441.931 254.169 448.491" stroke="white" stroke-miterlimit="10" stroke-linecap="round"/>
            <path id="Vector_79" d="M285.116 416.367C294.327 422.361 300.084 435.846 300.084 449.332" stroke="white" stroke-miterlimit="10" stroke-linecap="round"/>
            <path id="Vector_80" d="M264.56 419.519C267.472 421.46 268.442 418.548 268.442 415.636C268.442 417.577 270.384 422.431 274.267 419.519" stroke="white" stroke-miterlimit="10" stroke-linecap="round"/>
            <path id="Vector_81" d="M156.821 313.703C148.085 319.527 137.407 321.469 129.641 327.293C121.875 334.088 115.081 382.623 116.051 395.243C116.051 404.95 116.051 422.422 117.022 433.1" stroke="white" stroke-miterlimit="10" stroke-linecap="round"/>
            <path id="Vector_82" d="M192.738 316.618C195.65 320.501 204.387 325.355 209.24 326.325C225.742 332.149 234.569 350.615 244.276 363.234" stroke="white" stroke-miterlimit="10" stroke-linecap="round"/>
            <path id="Vector_83" d="M152.535 402.735C154.477 401.765 161.272 401.765 166.125 401.765" stroke="white" stroke-miterlimit="10" stroke-linecap="round"/>
            <path id="Vector_84" d="M201.857 398.563C213.505 399.534 210.593 398.563 222.242 400.504" stroke="white" stroke-miterlimit="10" stroke-linecap="round"/>
            <path id="Vector_85" d="M192.738 283.615C192.738 284.586 192.738 284.586 192.738 285.557C192.738 286.527 193.709 286.527 193.709 286.527C194.68 286.527 194.68 285.557 194.68 284.586" stroke="white" stroke-miterlimit="10" stroke-linecap="round"/>
            <path id="Vector_86" d="M241.457 271.64C241.457 272.884 240.926 272.129 240.926 273.373C240.926 274.618 242.17 274.618 242.17 274.618C243.414 274.618 243.414 273.373 243.414 272.129" stroke="white" stroke-miterlimit="10" stroke-linecap="round"/>
            <path id="Vector_87" d="M259.809 274.905C258.861 274.998 258.6 275.809 258.6 276.653C258.6 277.498 259.853 277.498 259.853 277.498C261.106 277.498 261.106 277.498 261.106 276.653C261.106 276.653 261.4 275.421 260.757 274.998" stroke="white" stroke-miterlimit="10" stroke-linecap="round"/>
            <path id="Vector 117" d="M253.642 274.004C252.83 275.146 251.356 278.055 251.959 280.562C252.714 283.696 254.049 285.553 251.901 285.611C249.754 285.669 250.044 286.83 248.71 286.192C247.375 285.553 244.531 284.799 245.808 283.87" stroke="white" stroke-linecap="round" stroke-linejoin="round"/>
            <path id="Vector_88" d="M355.44 292.517L354.835 293.276L354.989 294.64C355.748 295.245 356.353 294.486 356.199 293.122" stroke="white" stroke-miterlimit="10" stroke-linecap="round"/>
            <path id="Vector 112" d="M260.556 409.646C260.385 408.914 260.497 407.609 262.315 408.254C264.587 409.06 262.608 410.819 261.582 410.233" stroke="white" stroke-linecap="round" stroke-linejoin="round"/>
            <path id="Vector 113" d="M273.962 409.889C273.938 409.278 274.212 408.086 275.501 408.203C277.114 408.35 276.454 411.062 275.208 410.476" stroke="white" stroke-linecap="round" stroke-linejoin="round"/>
            <path id="Vector 114" d="M266.539 413.774C265.447 413.732 267.309 415.052 268.376 415.717C269.059 415.244 270.35 414.205 270.056 413.827C269.689 413.354 267.904 413.827 266.539 413.774Z" fill="white" stroke="white" stroke-linecap="round" stroke-linejoin="round"/>
            <path id="Vector 108" d="M274.56 414.83C276.191 414.208 280.004 413.162 282.209 413.957" stroke="white" stroke-linecap="round" stroke-linejoin="round"/>
            <path id="Vector 109" d="M264.272 415.944C262.558 415.451 258.558 414.598 256.272 415.13" stroke="white" stroke-linecap="round" stroke-linejoin="round"/>
            <path id="Vector 110" d="M264.535 417.105C263.356 417.031 260.599 417.001 259.001 417.474" stroke="white" stroke-linecap="round" stroke-linejoin="round"/>
            <path id="Vector 111" d="M274.334 415.774C275.866 415.66 279.269 415.609 280.634 416.321" stroke="white" stroke-linecap="round" stroke-linejoin="round"/>
            <path id="Vector 115" d="M239.3 274.094C240.192 274.516 242.454 275.344 244.358 275.285" stroke="white" stroke-linecap="round" stroke-linejoin="round"/>
            <path id="Vector_89" d="M385.234 301.088C389.244 301.504 390.764 285.494 384.506 292.084" stroke="white" stroke-miterlimit="10" stroke-linecap="round"/>
            <path id="Vector 116" d="M257.088 277.529C258.427 277.84 261.444 278.354 262.805 277.918" stroke="white" stroke-linecap="round" stroke-linejoin="round"/>
        </g>
        <g id="draw/nurse">
            <g id="Hand 2">
                <path id="Vector_90" d="M389.287 437.955C324.25 438.925 338.811 444.749 278.627 443.779C261.154 443.779 240.769 441.837 237.857 441.837H236.886C225.238 434.072 224.267 428.247 215.531 417.57C211.648 411.745 206.794 407.863 201.941 405.921C191.263 400.097 184.468 396.214 174.761 391.361C164.083 385.536 157.588 394.462 167.295 406.111C175.061 411.935 193.816 420.349 189.934 426.173C184.109 438.793 162.142 432.13 153.405 431.16C142.728 430.189 108.753 437.955 100.017 437.955C90.3095 438.925 91.1849 443.663 94.9082 446.091" stroke="#1E1E1E" stroke-miterlimit="10" stroke-linejoin="round"/>
                <path id="Vector_91" d="M147.581 442.81C147.581 442.81 136.903 444.751 124.284 445.722C109.723 446.693 95.1625 445.722 92.2504 445.722C80.6019 446.693 82.5433 458.341 92.2504 457.371C109.723 457.371 124.284 458.341 141.756 459.312C144.669 459.312 144.669 461.253 141.756 462.224C135.932 463.195 131.079 464.166 125.254 464.166" stroke="#1E1E1E" stroke-miterlimit="10" stroke-linejoin="round"/>
                <path id="Vector_92" d="M86.8322 454.37C88.9036 455.175 92.3598 455.253 93.7362 454.14C93.7362 453.169 93.7362 449.933 93.7362 448.962C92.5088 448.655 89.2027 448.18 85.7969 448.732" stroke="#1E1E1E" stroke-miterlimit="10" stroke-linecap="round" stroke-linejoin="round"/>
                <path id="Vector 247" d="M111.111 448.847C110.65 450.343 110.029 453.772 111.226 455.521" stroke="#1E1E1E"/>
                <path id="Vector_93" d="M94.6567 440.677C97.8782 440.217 101.47 439.053 102.366 441.598C102.366 442.569 102.928 444.749 101.958 445.72" stroke="#1E1E1E" stroke-miterlimit="10" stroke-linecap="round" stroke-linejoin="round"/>
                <path id="Vector 248" d="M115.943 436.19C115.291 438.069 114.378 442.243 115.943 443.899" stroke="#1E1E1E"/>
                <path id="Vector_94" d="M178.64 393.303C178.64 393.303 176.698 397.186 172.815 398.157C168.933 399.127 166.021 396.215 166.021 396.215" stroke="#1E1E1E" stroke-miterlimit="10" stroke-linecap="round" stroke-linejoin="round"/>
                <path id="Vector 246" d="M190.949 401.998C188.788 401.837 183.985 401.949 182.063 403.679" stroke="#1E1E1E"/>
                <path id="Vector_95" d="M242.71 487.462C274.743 486.491 295.128 504.935 342.693 517.554C375.697 526.29 433.939 551.529 465.973 530.173C478.592 521.437 482.475 501.052 485.387 487.462" stroke="#1E1E1E" stroke-miterlimit="10" stroke-linecap="round" stroke-linejoin="round"/>
            </g>
            <g id="Hand 1">
                <path id="Vector_96" d="M85.4517 445.721C84.481 445.721 81.5689 442.809 78.6567 439.897C80.5982 437.956 82.5396 435.043 85.4517 432.131" stroke="#1E1E1E" stroke-miterlimit="10" stroke-linecap="round" stroke-linejoin="round"/>
                <path id="Vector_97" d="M304.835 504.932C281.538 507.844 256.3 502.99 235.915 495.225C233.974 494.254 230.091 492.313 230.091 489.401C241.739 487.459 254.359 481.635 265.036 478.723C268.919 477.752 274.743 472.899 273.773 469.016C272.802 466.104 270.256 462.382 265.036 463.191C244.651 468.045 230.091 472.899 206.794 469.986C194.175 471.928 168.936 481.635 159.229 478.723C140.786 474.84 124.284 467.074 106.811 458.338" stroke="#1E1E1E" stroke-miterlimit="10" stroke-linecap="round" stroke-linejoin="round"/>
                <path id="Vector 250" d="M239.677 469.594C239.773 471.901 240.139 476.805 240.831 477.959" stroke="#1E1E1E"/>
                <path id="Vector_98" d="M269.889 466.106C269.889 468.048 270.859 470.96 268.918 472.901C266.006 474.843 260.182 475.814 259.211 475.814C257.269 474.843 257.269 469.019 258.24 467.077" stroke="#1E1E1E" stroke-miterlimit="10" stroke-linecap="round" stroke-linejoin="round"/>
                <path id="Vector_99" d="M234.941 522.408C263.092 525.32 318.422 519.496 320.364 518.525C322.305 517.555 321.334 511.73 320.364 510.76" stroke="#1E1E1E" stroke-miterlimit="10" stroke-linecap="round" stroke-linejoin="round"/>
                <path id="Vector 251" d="M280.929 521.52C280.256 518.731 279.429 512.923 281.507 512" stroke="#1E1E1E"/>
                <path id="Vector_100" d="M317.452 510.76C315.511 510.76 311.628 510.76 310.657 511.73C309.687 513.672 309.687 515.613 310.657 517.555" stroke="#1E1E1E" stroke-miterlimit="10" stroke-linecap="round" stroke-linejoin="round"/>
                <path id="Vector_101" d="M31.0919 390.388C13.6192 414.655 1.97071 437.952 1 463.191C1 471.927 4.88283 479.693 12.6485 483.576C20.4141 487.458 27.2091 490.371 34.9748 491.341C100.012 505.902 165.05 521.433 229.116 537.935C259.208 545.701 320.363 549.584 321.333 541.818C321.333 534.052 313.568 534.052 308.714 533.082C298.829 530.314 283.985 531.785 273.717 530.174C258.78 527.831 248.352 522.979 233.97 522.404" stroke="#1E1E1E" stroke-miterlimit="10" stroke-linecap="round" stroke-linejoin="round"/>
                <path id="Vector 252" d="M271.987 544.598C272.179 542.194 273.083 537.155 275.16 536.232" stroke="#1E1E1E"/>
                <path id="Vector_102" d="M317.454 537.937C312.6 538.908 311.629 537.937 309.688 543.761" stroke="#1E1E1E" stroke-miterlimit="10" stroke-linecap="round" stroke-linejoin="round"/>
            </g>
            <g id="Body">
                <path id="Vector_103" d="M52.4518 342.824C44.6861 356.414 34.9791 370.975 24.3013 383.594C36.9205 394.272 79.6316 429.217 91.2801 433.1C91.2801 433.1 113.277 410.783 117.16 403.988" stroke="#1E1E1E" stroke-miterlimit="10" stroke-linecap="round"/>
                <path id="Vector_104" d="M236.885 213.723C198.056 223.43 162.447 229.12 142.063 248.534C133.326 257.27 70.8936 303.998 52.4502 342.827" stroke="#1E1E1E" stroke-miterlimit="10" stroke-linecap="round"/>
                <path id="Vector_105" d="M238.824 213.723C242.707 209.84 245.619 204.016 246.589 199.162" stroke="#1E1E1E" stroke-miterlimit="10" stroke-linecap="round" stroke-linejoin="round"/>
                <path id="Vector_106" d="M398.023 439.895C431.998 456.397 478.592 467.075 483.445 495.225" stroke="#1E1E1E" stroke-miterlimit="10"/>
                <path id="Vector_107" d="M464.03 287.497C471.795 302.057 476.649 319.53 476.649 337.973C477.62 372.919 483.444 447.663 485.385 487.462" stroke="#1E1E1E" stroke-miterlimit="10" stroke-linecap="round" stroke-linejoin="round"/>
                <path id="Vector 240" d="M412.835 434.646C417.361 435.991 427 438.976 429.349 440.15" stroke="#1E1E1E"/>
                <path id="Vector 241" d="M445.496 447.123C451.367 449.936 463.624 456.15 465.679 458.499" stroke="#1E1E1E"/>
                <path id="Vector 242" d="M477.423 466.939C479.992 469.386 485.13 474.719 485.129 476.481" stroke="#1E1E1E"/>
                <path id="Vector 243" d="M31.7246 375.821C34.4465 378.302 40.4185 383.506 42.5317 384.466" stroke="#1E1E1E"/>
                <path id="Vector 244" d="M55.0195 394.073C59.2623 397.755 68.2761 405.312 70.3896 406.081" stroke="#1E1E1E"/>
                <path id="Vector 245" d="M83.1182 415.447C87.6811 418.889 97.0952 425.822 98.248 426.014" stroke="#1E1E1E"/>
                <path id="Vector 249" d="M285.593 215.491C287.658 218.933 291.376 227.056 289.724 232.012" stroke="#1E1E1E"/>
            </g>
            <g id="Head and ear">
                <path id="Vector_108" d="M313.445 145.429C305.958 165.998 305.958 177.218 290.983 189.373C276.008 201.528 252.61 205.267 237.635 193.113C216.109 175.348 206.75 161.323 196.455 131.404C192.711 121.119 184.288 107.095 180.544 95.875" stroke="#1E1E1E" stroke-miterlimit="10" stroke-linecap="round" stroke-linejoin="round"/>
                <path id="Vector_109" d="M290.047 77.1755C291.919 70.6307 302.214 63.1509 308.766 72.5007C316.253 82.7854 320.933 115.51 305.958 113.64" stroke="#1E1E1E" stroke-miterlimit="10" stroke-linecap="round"/>
                <path id="Vector_110" d="M295.663 82.7852C300.343 75.3054 305.958 79.9803 307.83 99.6148" stroke="#1E1E1E" stroke-miterlimit="10" stroke-linecap="round" stroke-linejoin="round"/>
                <path id="Vector_111" d="M299.406 94.9399C302.214 95.8749 305.022 97.7449 306.894 99.6148C309.701 104.29 303.15 105.225 301.278 101.485" stroke="#1E1E1E" stroke-miterlimit="10" stroke-linecap="round" stroke-linejoin="round"/>
            </g>
            <g id="Cross">
                <path id="Vector_112" d="M452.852 341.815L451.923 353.882L442.202 352.114V339.912V339.447L441.737 339.413L428.656 338.479L429.536 328.8L441.663 329.733L442.202 329.774V329.234V319.104L451.916 319.987L452.852 331.217L452.884 331.605L453.268 331.669L464.499 333.541V343.205L453.432 341.36L452.894 341.271L452.852 341.815Z" stroke="#1E1E1E"/>
                <path id="Vector_113" d="M414.521 334.088C414.521 325.351 414.521 314.673 413.55 307.878C432.964 307.878 461.115 316.615 474.705 320.498" stroke="#1E1E1E" stroke-miterlimit="10" stroke-linecap="square" stroke-linejoin="round"/>
                <path id="Vector_114" d="M478.589 373.89C464.028 370.007 436.849 363.212 419.376 360.3" stroke="#1E1E1E" stroke-miterlimit="10" stroke-linecap="square" stroke-linejoin="round"/>
            </g>
            <g id="Hair">
                <path id="Vector_115" d="M183.493 227.252C172.815 217.941 174.757 211.423 173.786 200.251C172.815 183.491 191.259 177.905 184.464 161.145C178.64 145.317 176.736 118.379 172.853 102.55C168.971 81.1356 164.929 67.0329 175.607 47.4803C183.372 34.4452 193.2 17.7594 204.849 16.8283C213.585 6.58646 226.204 1 237.853 1C252.413 1 274.74 6.58646 286.388 14.9662C328.128 44.7606 338.806 85.728 339.777 96.901C344.63 132.282 379.576 146.248 383.459 156.49C389.283 169.525 396.078 167.663 406.756 176.043C421.316 187.215 414.521 209.561 431.023 217.941C444.613 225.39 470.822 259.84 463.057 280.323C461.115 286.841 457.232 291.496 452.379 294.289C456.262 287.772 426.17 248.667 395.107 242.149C400.931 251.46 411.609 271.012 401.902 291.496C399.961 265.426 388.312 239.356 364.045 225.39" stroke="#1E1E1E" stroke-miterlimit="10" stroke-linecap="round" stroke-linejoin="round"/>
                <path id="Vector_116" d="M308.716 124.416C318.423 160.332 315.511 163.244 324.248 186.541C332.984 210.808 343.662 221.486 365.017 233.135C375.695 241.871 378.607 250.607 383.461 263.227" stroke="#1E1E1E" stroke-miterlimit="10" stroke-linecap="square" stroke-linejoin="round"/>
                <path id="Vector_117" d="M196.455 126.729C185.224 88.3948 189.904 49.1257 211.43 41.6459C220.789 37.906 250.739 33.2311 261.034 55.6706C271.329 58.4755 281.624 65.0204 289.112 73.4352" stroke="#1E1E1E" stroke-miterlimit="10" stroke-linecap="round" stroke-linejoin="round"/>
                <path id="Vector_118" d="M317.189 77.1753C323.741 84.6551 324.677 94.9399 323.741 104.29C322.805 113.639 319.997 123.924 321.869 133.274C322.805 142.624 327.485 150.104 331.228 158.518C336.844 169.738 342.459 180.958 348.075 192.178C348.075 180.023 345.267 172.543 344.331 167.868" stroke="#1E1E1E" stroke-miterlimit="10" stroke-linecap="round" stroke-linejoin="round"/>
                <path id="Vector_119" d="M216.109 224.902C206.75 218.358 203.942 206.203 203.006 195.918C201.135 179.088 200.199 164.129 194.583 147.299C188.968 132.34 182.416 116.445 179.608 100.55" stroke="#1E1E1E" stroke-miterlimit="10" stroke-linecap="round" stroke-linejoin="round"/>
                <path id="Vector_120" d="M210.494 31.3618C211.43 25.752 217.046 12.6623 221.725 8.92236" stroke="#1E1E1E" stroke-miterlimit="10" stroke-linecap="round" stroke-linejoin="round"/>
                <path id="Vector_121" d="M217 186.308C216.029 195.044 216.029 203.78 217 212.517" stroke="#1E1E1E" stroke-miterlimit="10" stroke-linecap="round" stroke-linejoin="round"/>
            </g>
            <g id="Face">
                <path id="Vector_122" d="M233.893 101.485C237.636 97.7452 250.739 82.7856 269.458 91.2004" stroke="#1E1E1E" stroke-miterlimit="10" stroke-linecap="round" stroke-linejoin="round"/>
                <path id="Vector_123" d="M195.519 105.225C200.199 102.42 208.622 102.42 217.045 105.225" stroke="#1E1E1E" stroke-miterlimit="10" stroke-linecap="round" stroke-linejoin="round"/>
                <path id="Vector_124" d="M224.065 111.77C229.501 119.01 216.818 153.4 230.406 154.305C236.748 154.305 236.748 152.495 241.277 150.685C244.901 149.78 248.525 150.685 251.242 147.97C253.96 145.255 252.148 140.73 248.525 139.825" stroke="#1E1E1E" stroke-miterlimit="10" stroke-linecap="round" stroke-linejoin="round"/>
                <path id="Vector_125" d="M233 172.657C233.971 171.687 233.971 170.716 234.941 169.745C236.883 166.833 238.824 166.833 243.678 166.833C245.619 166.833 246.59 165.862 249.502 165.862C255.326 164.892 264.063 163.921 271.828 161.009" stroke="#1E1E1E" stroke-miterlimit="10" stroke-linecap="round" stroke-linejoin="round"/>
                <path id="Vector_126" d="M233 173.628C239.795 181.394 264.063 188.189 271.828 161.009C253.385 175.569 233 173.628 233 173.628Z" stroke="#1E1E1E" stroke-miterlimit="10" stroke-linecap="round" stroke-linejoin="round"/>
                <path id="Vector_127" d="M245.376 116.403C253.799 117.338 262.223 116.403 268.774 106.118" stroke="#1E1E1E" stroke-miterlimit="10" stroke-linecap="round" stroke-linejoin="round"/>
                <path id="Vector 103" d="M248.622 116.555C248.838 117.331 249.049 119.428 248.169 121.604C248.6 119.791 249.774 116.283 251.017 116.749C252.26 117.215 251.923 121.624 251.6 123.77C251.686 121.257 252.182 116.308 253.477 116.619C254.772 116.93 255.311 122.014 255.419 124.517C254.923 121.733 254.306 116.179 255.807 116.231C257.309 116.283 258.246 121.279 258.526 123.77C257.89 121.145 256.933 115.868 258.188 115.77C259.442 115.673 261.31 119.014 262.087 120.697C261.18 118.842 259.575 115.078 260.403 114.871C261.439 114.612 263.899 116.748 264.352 117.331C263.726 116.252 262.579 113.965 262.993 113.447" stroke="#1E1E1E" stroke-linecap="round" stroke-linejoin="round"/>
                <path id="Vector_128" d="M215.341 124.196C210.672 129.15 204.021 125.711 202.359 124.851" stroke="#1E1E1E" stroke-miterlimit="10" stroke-linecap="round" stroke-linejoin="round"/>
                <path id="Vector 104" d="M203.078 125.463C202.723 126.351 201.81 128.213 201 128.566C201.913 128.002 203.858 126.668 204.329 125.844C204.917 124.814 204.917 127.757 203.961 130.185C204.525 128.591 205.815 125.653 206.463 126.653C207.11 127.654 206.634 130.455 206.316 131.73C206.61 130.013 207.404 126.683 208.229 127.095C209.053 127.507 208.768 130.112 208.523 131.362C208.621 129.817 209.112 126.8 210.289 127.095C211.466 127.389 211.662 129.572 211.613 130.627C211.515 129.18 211.613 126.227 212.79 125.991" stroke="#1E1E1E" stroke-linecap="round" stroke-linejoin="round"/>
                <path id="Vector_129" d="M308.766 108.965C312.509 108.965 315.317 112.705 314.381 116.445C313.445 120.185 308.766 122.055 305.958 120.185" stroke="#1E1E1E" stroke-miterlimit="10" stroke-linecap="round" stroke-linejoin="round"/>
            </g>
            <g id="Bracelet">
                <path id="Vector_130" d="M149.519 477.751C146.607 490.371 138.842 520.463 158.256 526.287C161.168 527.258 165.051 526.287 166.992 524.345" stroke="#1E1E1E" stroke-miterlimit="10" stroke-linecap="round"/>
                <path id="Vector_131" d="M150.961 486.494C150.961 488.362 149.447 489.876 147.579 489.876C145.71 489.876 144.196 488.362 144.196 486.494C144.196 484.625 145.71 483.111 147.579 483.111C149.447 483.111 150.961 484.625 150.961 486.494Z" stroke="black"/>
                <path id="Vector_132" d="M149.018 503.964C149.018 505.832 147.504 507.347 145.635 507.347C143.767 507.347 142.252 505.832 142.252 503.964C142.252 502.096 143.767 500.581 145.635 500.581C147.504 500.581 149.018 502.096 149.018 503.964Z" stroke="black"/>
                <path id="Vector_133" d="M152.9 522.406C152.9 524.275 151.386 525.789 149.518 525.789C147.649 525.789 146.135 524.275 146.135 522.406C146.135 520.538 147.649 519.023 149.518 519.023C151.386 519.023 152.9 520.538 152.9 522.406Z" stroke="black"/>
            </g>
            <g id="Necklace">
                <path id="Vector_134" d="M236.885 213.721C254.358 243.813 290.274 252.549 316.483 239.93C327.161 234.106 335.897 225.37 336.868 212.75" stroke="#1E1E1E" stroke-miterlimit="10" stroke-linecap="round" stroke-linejoin="round"/>
                <path id="Vector_135" d="M253.854 229.254C253.854 232.194 251.47 234.578 248.529 234.578C245.589 234.578 243.205 232.194 243.205 229.254C243.205 226.313 245.589 223.93 248.529 223.93C251.47 223.93 253.854 226.313 253.854 229.254Z" stroke="black"/>
                <path id="Vector_136" d="M281.037 242.843C281.037 245.783 278.653 248.167 275.712 248.167C272.772 248.167 270.388 245.783 270.388 242.843C270.388 239.902 272.772 237.519 275.712 237.519C278.653 237.519 281.037 239.902 281.037 242.843Z" stroke="black"/>
                <path id="Vector_137" d="M311.125 242.843C311.125 245.783 308.741 248.167 305.8 248.167C302.86 248.167 300.476 245.783 300.476 242.843C300.476 239.902 302.86 237.519 305.8 237.519C308.741 237.519 311.125 239.902 311.125 242.843Z" stroke="black"/>
                <path id="Vector_138" d="M334.425 230.226C334.425 233.167 332.042 235.55 329.101 235.55C326.161 235.55 323.777 233.167 323.777 230.226C323.777 227.286 326.161 224.902 329.101 224.902C332.042 224.902 334.425 227.286 334.425 230.226Z" stroke="black"/>
            </g>
        </g>
    </g>
</svg>
