<svg width="390" height="452" viewBox="0 0 390 452" fill="none" xmlns="http://www.w3.org/2000/svg">
<path d="M94.7298 207.523C163.067 211.42 200.113 193.317 200.113 193.317C202.186 139.728 185.418 96.7624 185.418 96.7624C123.357 96.4254 83.2545 109.692 83.2545 109.692C83.2545 109.692 82.2919 134.573 84.7861 159.661C87.6512 184.69 94.7298 207.523 94.7298 207.523Z" fill="#1E1E1E"/>
<path d="M162.299 33.1298C183.145 46.9115 184.837 52.7273 197.941 108.452C212.737 169.993 205.903 243.746 205.903 243.746C205.903 243.746 167.256 280.365 98.7841 258.99C98.7841 258.99 77.8446 182.836 75.736 155.403C73.6273 127.971 66.2487 55.7323 88.6213 43.4017L88.9922 43.3423C71.3373 51.8745 62.3174 62.0678 62.3174 62.0678C69.2766 74.6487 63.6268 117.779 69.5353 168.949C70.0696 172.288 70.5299 177.54 71.0049 180.507C71.0049 180.507 76.1242 191.1 77.2522 198.147C78.8406 210.447 75.0574 212.954 75.0574 212.954C75.8886 218.147 77.1354 225.936 77.9073 230.758C77.9073 230.758 85.697 239.021 87.9678 250.831C88.799 256.024 83.206 261.484 83.206 261.484L85.6402 276.691C85.6402 276.691 89.0678 281.468 90.418 282.774C94.9583 287.373 96.9022 292.387 96.9022 292.387C140.537 305.945 145.922 294.431 145.922 294.431L163.592 293.125C183.667 302.085 222.418 278.002 222.418 278.002C222.418 278.002 223.6 199.829 214.501 145.364C212.839 134.979 210.627 123.54 209.202 114.638C209.202 114.638 207.318 109.995 206.872 102.458C206.293 96.4638 207.005 91.4045 207.005 91.4045C205.09 72.3101 201.053 47.0883 201.053 47.0883C201.053 47.0883 186.972 37.5494 162.299 33.1298Z" fill="#1E1E1E"/>
<path d="M386.532 378.791C375.671 367.976 325.788 327.268 317.832 277.566C309.876 227.864 301.952 202.123 290.779 182.228C279.605 162.333 289.026 147.511 265.686 118.151C242.346 88.7914 239.764 86.9222 236.767 82.4566C232.301 75.9437 222.137 71.8644 215.105 80.2178C208.444 88.5119 203.816 97.6218 211.28 118.11C218.744 138.599 234.428 158.153 234.428 158.153C234.428 158.153 244.476 209.041 236.851 223.196C216.542 260.303 228.963 307.008 228.963 307.008" stroke="#1E1E1E" stroke-miterlimit="10" stroke-linecap="round" stroke-linejoin="round"/>
<path d="M248.028 98.1526C248.028 98.1526 246.605 108.271 236.056 106.536C225.507 104.801 219.823 85.9292 219.823 85.9292" stroke="#1E1E1E" stroke-miterlimit="10" stroke-linecap="round" stroke-linejoin="round"/>
<path d="M273.995 132.038C273.995 132.038 269.189 140.035 260.45 144.858" stroke="#1E1E1E" stroke-miterlimit="10" stroke-linecap="round" stroke-linejoin="round"/>
<path d="M66.7717 108.907C66.7717 108.907 36.6087 103.464 28.8197 104.711C21.0306 105.957 14.3249 111.596 19.2514 123.361C24.2373 135.497 59.0593 146.28 66.8337 147.318" stroke="#1E1E1E" stroke-miterlimit="10" stroke-linecap="round" stroke-linejoin="round"/>
<path d="M67.7538 148.312C67.7538 148.312 40.0103 160.361 34.3439 177.246C29.7456 191.296 51.5424 220.523 54.1834 222.763C57.2548 225.314 75.9483 218.518 77.0751 206.545C78.2018 194.572 72.7856 182.124 62.0727 167.481" stroke="#1E1E1E" stroke-miterlimit="10" stroke-linecap="round" stroke-linejoin="round"/>
<path d="M54.6279 220.789C54.8054 212.391 66.0508 201.842 66.0508 201.842C66.0508 201.842 62.2076 194.468 55.6053 193.623C47.0297 192.333 43.1285 203.609 43.8409 208.06" stroke="#1E1E1E" stroke-miterlimit="10" stroke-linecap="round" stroke-linejoin="round"/>
<path d="M214.026 142.398C214.026 142.398 226.727 155.201 231.044 156.032" stroke="#1E1E1E" stroke-miterlimit="10" stroke-linecap="round" stroke-linejoin="round"/>
<path d="M97.822 293.381C141.457 306.939 146.842 295.425 146.842 295.425L164.512 294.118C184.586 303.078 223.338 278.996 223.338 278.996C223.338 278.996 224.519 200.822 215.421 146.358C213.758 135.973 211.562 122.249 210.137 113.347" stroke="#1E1E1E" stroke-miterlimit="10" stroke-linecap="round" stroke-linejoin="round"/>
<path d="M83.6968 262.168L86.131 277.375" stroke="#1E1E1E" stroke-miterlimit="10" stroke-linecap="round" stroke-linejoin="round"/>
<path d="M75.5474 213.638C76.3786 218.83 77.6254 226.619 78.3972 231.441" stroke="#1E1E1E" stroke-miterlimit="10" stroke-linecap="round" stroke-linejoin="round"/>
<path d="M206.797 94.8621C204.882 75.7677 200.8 47.8901 200.8 47.8901C200.8 47.8901 174.434 28.1445 129.821 32.2425C85.2076 36.3404 62.7469 62.38 62.7469 62.38C69.7061 74.9609 64.0563 118.091 69.9647 169.262C70.4991 172.6 70.9594 177.852 71.4343 180.819" stroke="#1E1E1E" stroke-miterlimit="10" stroke-linecap="round" stroke-linejoin="round"/>
<path d="M125.878 290.412C125.878 290.412 127.881 295.798 146.471 295.485" stroke="#1E1E1E" stroke-miterlimit="10" stroke-linecap="round" stroke-linejoin="round"/>
<path d="M182.983 283.554C182.983 283.554 183.176 291.892 164.082 293.807" stroke="#1E1E1E" stroke-miterlimit="10" stroke-linecap="round" stroke-linejoin="round"/>
<path d="M102.417 189.591L185.976 179.259" stroke="white" stroke-miterlimit="10" stroke-linecap="round" stroke-linejoin="round"/>
<path d="M96.7563 113.237C96.7563 113.237 91.9352 123.519 94.1313 127.732C96.6389 131.515 101.654 129.572 103.033 126.307C104.294 122.301 96.7563 113.237 96.7563 113.237Z" fill="white"/>
<path d="M142.001 231.911L144.451 254.344C144.451 254.344 113.191 256.304 109.496 245.103C106.646 236.81 106.557 231.498 106.557 231.498C106.557 231.498 133.159 233.707 142.001 231.911Z" stroke="#1E1E1E" stroke-miterlimit="10" stroke-linecap="round" stroke-linejoin="round"/>
<path d="M156.896 229.907L159.346 252.34C159.346 252.34 190.131 247.412 191.318 235.81C192.237 227.293 191.346 221.73 191.346 221.73C191.346 221.73 166.036 229.966 156.896 229.907Z" stroke="#1E1E1E" stroke-miterlimit="10" stroke-linecap="round" stroke-linejoin="round"/>
<path d="M162.787 33.8127C183.574 47.2235 184.955 53.4696 198.37 108.764C213.167 170.305 206.332 244.058 206.332 244.058C206.332 244.058 167.685 280.677 99.2135 259.302C99.2135 259.302 78.274 183.148 76.1654 155.715C74.0567 128.283 66.6781 56.0443 89.0507 43.7137" stroke="#1E1E1E" stroke-miterlimit="10" stroke-linecap="round" stroke-linejoin="round"/>
<path d="M100.694 150.305C105.887 149.474 105.857 154.043 105.857 154.043L109.331 180.497L120.147 179.146L114.12 136.743L107.815 137.753C107.355 142.011 97.3257 145.899 97.3257 145.899L98.0975 150.721L100.694 150.305Z" fill="white"/>
<path d="M182.115 136.131C180.201 126.547 168.821 129.129 168.821 129.129C168.821 129.129 157.086 129.486 157.887 139.248C158.689 149.01 161.183 164.589 161.183 164.589C161.183 164.589 161.302 174.841 174.032 173.564L176.257 173.208C188.809 170.818 186.093 160.982 186.093 160.982C186.093 160.982 184.03 145.715 182.115 136.131ZM173.629 140.152C174.149 145.775 176.005 164.499 176.005 164.499C176.005 164.499 176.242 165.982 174.387 166.279C174.017 166.338 173.275 166.457 173.275 166.457C171.049 166.813 171.123 164.899 171.123 164.899C171.123 164.899 168.526 146.295 168.006 140.672C167.486 135.049 169.46 135.494 169.46 135.494L170.943 135.256C171.003 135.627 172.738 134.588 173.629 140.152Z" fill="white"/>
<path d="M124.683 136.195L127.325 157.455L137.77 156.164C137.77 156.164 136.865 152.885 139.09 152.529C141.316 152.173 141.434 152.915 141.969 156.253C142.503 159.591 143.616 168.923 143.616 168.923C143.616 168.923 144.344 171.089 141.688 171.134C139.032 171.178 139.166 169.635 138.75 167.039C138.334 164.443 137.919 161.846 137.919 161.846L127.785 162.708C127.785 162.708 128.335 173.271 131.659 175.022C134.611 176.831 143.617 178.433 150.442 173.537C150.442 173.537 154.284 171.4 153.527 164.293C152.77 157.187 151.449 151.312 151.449 151.312C151.449 151.312 150.499 145.377 144.876 145.897C139.253 146.416 137.146 147.514 136.583 148.746L135.455 141.699L148.867 139.932L148.109 132.825L124.683 136.195Z" fill="white"/>
<path d="M146.902 295.797L154.697 370.631C154.697 370.631 156.462 374.533 159.726 375.913L161.21 375.675L160.111 364.058L164.993 363.658L166.462 375.215L167.634 375.408C167.634 375.408 171.966 373.954 172.115 370.126L164.632 294.861" stroke="#1E1E1E" stroke-miterlimit="10" stroke-linecap="round" stroke-linejoin="round"/>
<path d="M158.36 357.872L153.015 305.469" stroke="#1E1E1E" stroke-miterlimit="10" stroke-linecap="round" stroke-linejoin="round"/>
<path d="M165.526 357.486L159.81 305.143" stroke="#1E1E1E" stroke-miterlimit="10" stroke-linecap="round" stroke-linejoin="round"/>
<path d="M81.4548 264.807C81.4548 264.807 82.8651 275.994 92.8062 285.815C106.739 299.182 85.8349 313.56 75.6716 309.48C65.8793 305.342 62.4811 295.995 57.3471 287.687C52.584 279.319 50.8022 258.682 50.8022 258.682" stroke="#1E1E1E" stroke-miterlimit="10" stroke-linecap="round" stroke-linejoin="round"/>
<path d="M71.0709 285.491L69.5725 288.013C64.4692 294.156 74.351 303.606 74.351 303.606C75.8933 294.23 85.4329 289.659 85.4329 289.659C85.4329 289.659 78.7112 278.562 71.0709 285.491Z" stroke="#1E1E1E" stroke-miterlimit="10" stroke-linecap="round" stroke-linejoin="round"/>
<path d="M58.7113 267.688C58.7113 267.688 66.3663 258.474 76.5142 255.328C76.5142 255.328 66.7212 241.679 61.6026 240.597C56.4839 239.514 44.8376 245.182 48.6661 254.841" stroke="#1E1E1E" stroke-miterlimit="10" stroke-linecap="round" stroke-linejoin="round"/>
<path d="M40.2951 202.542C40.2951 202.542 35.0437 212.513 33.2198 227.26C32.2411 235.406 48.6665 254.84 55.6403 265.136C58.6376 269.602 63.9344 271.797 69.0084 270.224C83.9188 265.936 94.6892 252.419 82.8635 237.954C67.2393 218.772 73.4407 214.736 73.4407 214.736" stroke="#1E1E1E" stroke-miterlimit="10" stroke-linecap="round" stroke-linejoin="round"/>
<path d="M170.821 359.681C185.629 371.386 203.953 383.67 221.891 388.787C234.174 392.401 247.617 405.082 260.331 421.017" stroke="#1E1E1E" stroke-miterlimit="10" stroke-linecap="round" stroke-linejoin="round"/>
<path d="M104.603 295.34C104.603 295.34 136.474 323.335 143.819 333.571C145.287 335.619 147.617 338.289 150.807 341.583" stroke="#1E1E1E" stroke-miterlimit="10" stroke-linecap="round" stroke-linejoin="round"/>
<path d="M34.284 186.385C34.284 186.385 34.7136 177.186 46.7161 173.743" stroke="#1E1E1E" stroke-miterlimit="10" stroke-linecap="round" stroke-linejoin="round"/>
<path d="M36.3797 235.124C36.3797 235.124 36.7353 227.839 46.8832 224.693" stroke="#1E1E1E" stroke-miterlimit="10" stroke-linecap="round" stroke-linejoin="round"/>
<path d="M61.7542 284.32C61.7542 284.32 62.1098 277.035 72.2577 273.889" stroke="#1E1E1E" stroke-miterlimit="10" stroke-linecap="round" stroke-linejoin="round"/>
<path d="M302.881 355.282C315.907 355.859 328.978 349.583 337.256 339.508" stroke="#1E1E1E" stroke-miterlimit="10" stroke-linecap="round" stroke-linejoin="round"/>
<path d="M270.27 125.406C267.229 127.795 266.087 132.543 262.556 134.249" stroke="#1E1E1E" stroke-miterlimit="10" stroke-linecap="round" stroke-linejoin="round"/>
<path d="M36.2296 191.4C36.808 187.884 38.9888 184.872 42.1488 183.225" stroke="#1E1E1E" stroke-miterlimit="10" stroke-linecap="round" stroke-linejoin="round"/>
<path d="M39.645 236.503C40.4609 234.47 42.4488 232.63 44.6149 231.903" stroke="#1E1E1E" stroke-miterlimit="10" stroke-linecap="round" stroke-linejoin="round"/>
<path d="M65.7746 283.295C67.7625 281.455 70.1808 279.927 72.6584 278.77" stroke="#1E1E1E" stroke-miterlimit="10" stroke-linecap="round" stroke-linejoin="round"/>
<path d="M3.2241 364.441C3.6224 364.371 3.926 364.328 4.13489 364.314C4.34445 364.279 4.51204 364.253 4.63764 364.236C4.78407 364.22 4.90933 364.214 5.01345 364.217C5.11756 364.22 5.25324 364.214 5.42049 364.199C5.58774 364.183 5.80738 364.159 6.07941 364.126C6.37226 364.094 6.78098 364.024 7.30555 363.915C7.51099 363.359 7.67746 362.718 7.80495 361.993C7.93311 361.247 8.04179 360.458 8.13098 359.627C8.22083 358.776 8.29054 357.902 8.34008 357.008C8.41045 356.114 8.47008 355.23 8.51896 354.356C8.56784 353.482 8.62613 352.64 8.69382 351.829C8.76219 350.997 8.84871 350.25 8.95337 349.586C8.93255 349.585 8.88049 349.584 8.7972 349.581C8.7354 349.558 8.69409 349.546 8.67327 349.546C8.236 349.532 7.80613 349.612 7.38366 349.786C6.98202 349.96 6.57971 350.156 6.17673 350.372C5.77442 350.568 5.36203 350.753 4.93957 350.927C4.53793 351.101 4.10806 351.181 3.64996 351.167L3.5621 350.007C3.58292 350.008 3.72027 349.95 3.97415 349.833C4.22803 349.716 4.54471 349.59 4.9242 349.457C5.32517 349.303 5.76812 349.14 6.25306 348.968C6.75948 348.776 7.25482 348.604 7.73909 348.453C8.22402 348.281 8.67705 348.128 9.09818 347.996C9.54013 347.864 9.91828 347.772 10.2326 347.72L9.7286 363.43C9.90999 363.624 10.177 363.747 10.5297 363.8C10.9038 363.833 11.289 363.845 11.6853 363.837C12.1024 363.83 12.5091 363.822 12.9054 363.814C13.3226 363.806 13.6759 363.838 13.9654 363.91L13.8931 365.19C13.0393 365.162 12.1947 365.177 11.3591 365.234C10.5235 365.29 9.68763 365.357 8.85138 365.435C8.03663 365.492 7.21146 365.549 6.37589 365.605C5.56113 365.663 4.74772 365.678 3.93563 365.652C3.70658 365.645 3.56483 365.515 3.51038 365.263C3.45593 365.011 3.3605 364.737 3.2241 364.441ZM15.8192 363.626C16.5608 363.9 17.3226 364.195 18.1045 364.512C18.9079 364.809 19.726 364.971 20.5589 364.997C21.0587 365.013 21.593 364.926 22.1619 364.736C22.7308 364.546 23.2499 364.281 23.7194 363.942C24.2097 363.603 24.6187 363.199 24.9464 362.731C25.2949 362.262 25.4778 361.757 25.4952 361.216C25.5152 360.591 25.3771 360.024 25.0808 359.514C24.7845 359.005 24.4022 358.576 23.934 358.227C23.4664 357.858 22.9337 357.57 22.3359 357.363C21.7589 357.157 21.1893 357.045 20.627 357.027C20.1689 357.012 19.7183 357.091 19.275 357.265C18.8532 357.418 18.431 357.581 18.0086 357.755C17.5868 357.909 17.1552 358.041 16.714 358.152C16.2935 358.263 15.8451 358.27 15.3689 358.171C15.2828 357.606 15.2051 357.103 15.1359 356.663C15.0673 356.202 15.0188 355.763 14.9906 355.345C14.9629 354.906 14.9451 354.489 14.9369 354.093C14.9295 353.675 14.9338 353.217 14.9498 352.717C14.9799 351.78 15.1692 351.078 15.5177 350.609C15.8877 350.121 16.3575 349.771 16.927 349.56C17.4966 349.349 18.1357 349.245 18.8443 349.247C19.5745 349.228 20.3143 349.231 21.064 349.255C21.1889 349.259 21.376 349.276 21.6252 349.305C21.8959 349.313 22.1558 349.332 22.405 349.361C22.6757 349.37 22.9044 349.387 23.0912 349.414C23.2994 349.421 23.4243 349.425 23.466 349.426L23.8067 350.5C23.2646 350.504 22.6605 350.495 21.9941 350.473C21.3486 350.453 20.7025 350.453 20.0556 350.474C19.4296 350.495 18.8234 350.549 18.237 350.634C17.6513 350.699 17.1677 350.829 16.7862 351.025L16.6129 356.429C17.2704 356.075 17.9223 355.898 18.5684 355.897C19.2153 355.877 19.8823 355.877 20.5694 355.899C21.2982 355.923 22.0337 356.061 22.776 356.314C23.5189 356.546 24.1853 356.891 24.7751 357.347C25.365 357.804 25.8473 358.361 26.2223 359.02C26.5979 359.657 26.772 360.402 26.7446 361.256C26.7245 361.881 26.5382 362.49 26.1857 363.083C25.8332 363.676 25.3782 364.214 24.8208 364.696C24.2848 365.158 23.6891 365.535 23.0336 365.827C22.3787 366.098 21.7494 366.224 21.1455 366.204C20.6666 366.189 20.1151 366.161 19.4911 366.12C18.8873 366.1 18.2851 366.029 17.6846 365.906C17.0841 365.782 16.5483 365.588 16.0774 365.322C15.6274 365.058 15.327 364.673 15.1765 364.168L15.8192 363.626ZM27.9552 358.606C27.9679 358.21 27.9933 357.742 28.0315 357.202C28.0905 356.662 28.171 356.101 28.273 355.521C28.3958 354.941 28.5495 354.373 28.7342 353.816C28.9396 353.26 29.1954 352.757 29.5016 352.309C29.8078 351.86 30.1735 351.507 30.5987 351.25C31.0245 350.971 31.5289 350.842 32.1119 350.86C33.2988 350.898 34.3326 351.161 35.2133 351.648C36.0946 352.114 36.8144 352.741 37.3728 353.53C37.9317 354.299 38.341 355.187 38.6004 356.196C38.8599 357.205 38.9719 358.261 38.9365 359.365C38.9218 359.823 38.8641 360.321 38.7634 360.86C38.6628 361.399 38.5097 361.946 38.3043 362.502C38.0995 363.038 37.843 363.561 37.5348 364.072C37.2481 364.563 36.911 365.001 36.5235 365.384C36.136 365.768 35.6883 366.077 35.1806 366.311C34.6735 366.524 34.118 366.62 33.5142 366.601C32.3897 366.565 31.4604 366.295 30.7262 365.792C30.0134 365.269 29.44 364.626 29.0059 363.861C28.5927 363.098 28.3071 362.255 28.1491 361.332C27.9917 360.389 27.9271 359.481 27.9552 358.606ZM29.2246 358.022C29.1985 358.834 29.1936 359.636 29.2099 360.429C29.2261 361.221 29.3492 361.934 29.579 362.566C29.8297 363.2 30.2089 363.723 30.7168 364.135C31.2455 364.548 31.9992 364.77 32.9778 364.802C33.8107 364.828 34.5234 364.705 35.1158 364.432C35.7088 364.139 36.1904 363.748 36.5604 363.259C36.9519 362.751 37.2315 362.155 37.3993 361.473C37.5886 360.77 37.696 360.023 37.7214 359.232C37.664 357.771 37.4012 356.543 36.9328 355.549C36.4645 354.554 35.8947 353.796 35.2236 353.274C34.5525 352.752 33.8428 352.458 33.0945 352.393C32.3463 352.327 31.6635 352.493 31.0463 352.89C30.4291 353.287 29.9399 353.917 29.5786 354.781C29.2181 355.624 29.1001 356.704 29.2246 358.022ZM51.4907 354.953C51.7405 354.961 52.0092 355.032 52.2967 355.166C52.5842 355.3 52.7845 355.557 52.8974 355.936C53.0867 355.233 53.3549 354.669 53.7021 354.242C54.0701 353.816 54.4754 353.527 54.918 353.374C55.3815 353.222 55.8517 353.185 56.3286 353.263C56.827 353.321 57.2804 353.481 57.6888 353.745C58.1181 354.008 58.4826 354.343 58.7822 354.749C59.1027 355.155 59.317 355.621 59.4253 356.145C59.675 355.507 59.996 354.923 60.3882 354.394C60.8018 353.844 61.2437 353.39 61.7138 353.029C62.2048 352.67 62.7025 352.425 63.2069 352.296C63.7321 352.167 64.2107 352.192 64.6426 352.373C65.0961 352.534 65.481 352.879 65.7975 353.411C66.1354 353.922 66.3619 354.659 66.4769 355.621C66.5099 355.893 66.5489 356.301 66.594 356.844C66.6398 357.367 66.6832 357.962 66.7243 358.631C66.7862 359.3 66.8468 360.01 66.906 360.762C66.9868 361.495 67.0477 362.195 67.0888 362.863C67.1507 363.532 67.2042 364.138 67.2493 364.682C67.2951 365.204 67.3348 365.591 67.3684 365.842C67.3617 366.051 67.344 366.279 67.3151 366.529C67.2863 366.778 67.2272 366.995 67.1379 367.179C67.0701 367.344 66.9519 367.455 66.7833 367.512C66.6362 367.549 66.4102 367.448 66.1052 367.209C66.1132 366.959 66.095 366.552 66.0506 365.988C66.0061 365.423 65.9644 364.776 65.9253 364.045C65.8869 363.294 65.8286 362.51 65.7506 361.695C65.694 360.859 65.6253 360.075 65.5446 359.343C65.4847 358.612 65.4325 357.964 65.3881 357.4C65.3437 356.835 65.2939 356.438 65.2388 356.207C64.9572 355.239 64.6454 354.562 64.3034 354.176C63.9823 353.79 63.6441 353.612 63.2887 353.643C62.9542 353.674 62.6245 353.882 62.2994 354.268C61.9744 354.653 61.6773 355.144 61.408 355.74C61.1388 356.336 60.8776 357.005 60.6245 357.747C60.3929 358.469 60.2029 359.193 60.0546 359.917C59.9271 360.643 59.8322 361.328 59.7699 361.972C59.7283 362.617 59.7529 363.149 59.8437 363.569L58.6175 363.779C58.7441 361.783 58.7237 360.146 58.5562 358.869C58.4102 357.572 58.1713 356.574 57.8393 355.875C57.5282 355.178 57.156 354.759 56.7228 354.62C56.2902 354.46 55.8502 354.53 55.4029 354.828C54.9764 355.127 54.5745 355.635 54.1972 356.353C53.8198 357.07 53.5207 357.946 53.2999 358.981C53.1006 359.996 53.0011 361.15 53.0013 362.442C53.0015 363.735 53.1757 365.127 53.5239 366.618L52.337 366.58C52.337 366.58 52.3121 366.381 52.2624 365.983C52.2334 365.586 52.187 365.084 52.1231 364.478C52.0806 363.851 52.0301 363.151 51.9716 362.378C51.9137 361.584 51.8558 360.79 51.7978 359.996C51.7406 359.182 51.682 358.408 51.6221 357.677C51.5629 356.925 51.5104 356.287 51.4646 355.765C51.4666 355.702 51.471 355.567 51.4776 355.359C51.485 355.13 51.4893 354.994 51.4907 354.953ZM63.5121 374.942C63.5302 374.38 63.6376 373.956 63.8343 373.671C64.0311 373.385 64.473 373.253 65.1602 373.275C65.0884 373.565 65.0061 373.854 64.9135 374.143C64.8 374.431 64.708 374.699 64.6376 374.947C64.5462 375.194 64.5087 375.391 64.5248 375.537C64.5201 375.683 64.5913 375.738 64.7384 375.701C65.3907 376.159 66.1095 376.495 66.8948 376.708C67.68 376.921 68.4578 377.039 69.2283 377.064C70.395 377.081 71.4022 376.873 72.2498 376.442C73.1182 376.011 73.8348 375.44 74.3996 374.729C74.9852 374.018 75.4391 373.188 75.7613 372.24C76.1037 371.313 76.3225 370.34 76.4177 369.322C76.5331 368.325 76.5447 367.314 76.4525 366.29C76.3603 365.266 76.1925 364.322 75.9492 363.46C75.5825 363.844 75.2048 364.249 74.8159 364.674C74.4479 365.1 74.05 365.484 73.6222 365.824C73.1951 366.144 72.7384 366.411 72.2521 366.624C71.7866 366.839 71.2624 366.937 70.6794 366.918C70.0755 366.898 69.6208 366.78 69.3151 366.561C69.0303 366.344 68.8415 366.056 68.7487 365.699C68.6566 365.321 68.6183 364.892 68.6336 364.413C68.6698 363.935 68.6966 363.425 68.714 362.884C68.73 362.384 68.7584 361.822 68.7993 361.198C68.861 360.575 68.9539 359.953 69.0781 359.331C69.2237 358.69 69.3999 358.07 69.6067 357.472C69.835 356.854 70.1233 356.311 70.4719 355.843C70.8211 355.354 71.2502 354.972 71.7593 354.696C72.2684 354.421 72.8665 354.294 73.5537 354.316C73.9909 354.33 74.4061 354.385 74.799 354.481C75.2135 354.557 75.5843 354.694 75.9114 354.892C76.2594 355.091 76.5533 355.35 76.7932 355.671C77.033 355.991 77.2181 356.393 77.3485 356.877C77.4018 357.816 77.4731 358.84 77.5627 359.947C77.6529 361.034 77.7206 362.172 77.7658 363.362C77.8117 364.531 77.8156 365.709 77.7775 366.895C77.7394 368.082 77.6194 369.225 77.4174 370.323C77.2362 371.422 76.9429 372.444 76.5373 373.39C76.152 374.358 75.6144 375.195 74.9247 375.902C74.2552 376.631 73.424 377.199 72.4313 377.605C71.438 378.031 70.2535 378.243 68.8779 378.241C68.2948 378.222 67.6819 378.161 67.0391 378.057C66.3956 377.974 65.8068 377.809 65.2728 377.562C64.7381 377.337 64.3108 377.01 63.991 376.583C63.6497 376.176 63.4901 375.629 63.5121 374.942ZM69.9008 362.922C69.8935 363.151 69.8747 363.411 69.8446 363.702C69.8144 363.993 69.8154 364.285 69.8477 364.577C69.88 364.87 69.9553 365.123 70.0736 365.335C70.2126 365.548 70.438 365.67 70.7497 365.701C71.2494 365.717 71.7112 365.617 72.135 365.401C72.5796 365.186 72.9749 364.886 73.3207 364.501C73.6874 364.117 74.0033 363.689 74.2686 363.219C74.5553 362.727 74.7903 362.224 74.9736 361.709C75.1777 361.195 75.3291 360.699 75.4277 360.223C75.5479 359.727 75.614 359.291 75.626 358.916C75.7011 358.522 75.7138 358.127 75.6641 357.729C75.6351 357.332 75.5319 356.975 75.3546 356.656C75.1772 356.338 74.9353 356.08 74.629 355.883C74.3233 355.664 73.9519 355.548 73.5146 355.534C73.0148 355.518 72.5729 355.65 72.1887 355.929C71.8052 356.188 71.4816 356.532 71.2177 356.961C70.9538 357.39 70.7399 357.884 70.5761 358.441C70.413 358.978 70.2808 359.526 70.1794 360.086C70.0996 360.625 70.0305 361.154 69.9722 361.674C69.9353 362.173 69.9115 362.589 69.9008 362.922ZM83.6225 351.356C83.6682 351.233 83.7246 351.099 83.7917 350.955C83.8595 350.791 83.9357 350.689 84.0204 350.65C84.1265 350.591 84.2403 350.615 84.3619 350.723C84.4842 350.811 84.6334 351.034 84.8094 351.394L79.1994 368.379L78.2924 367.412L83.6225 351.356ZM84.6342 363.676C84.6523 363.114 84.7657 362.503 84.9745 361.842C85.1839 361.161 85.4746 360.545 85.8467 359.994C86.2194 359.423 86.6616 358.957 87.1734 358.599C87.6851 358.24 88.2742 358.071 88.9405 358.093C89.4402 358.109 89.8758 358.175 90.2473 358.291C90.6403 358.387 90.9996 358.555 91.3255 358.794C91.6728 359.014 91.9872 359.285 92.2687 359.606C92.5716 359.908 92.8834 360.262 93.2038 360.668L93.5305 344.639C94.0994 344.449 94.4456 344.377 94.5692 344.422C94.7136 344.469 94.7808 344.648 94.7708 344.96C94.7695 345.002 94.7571 345.064 94.7336 345.147C94.7309 345.23 94.7292 345.282 94.7286 345.303C94.6951 345.698 94.6562 346.259 94.612 346.987C94.5886 347.716 94.5616 348.56 94.5308 349.517C94.5209 350.476 94.5083 351.518 94.4931 352.643C94.4785 353.747 94.4633 354.872 94.4473 356.018C94.4321 357.143 94.4168 358.268 94.4016 359.393C94.4078 360.498 94.3956 361.53 94.3649 362.488C94.3549 363.446 94.3276 364.3 94.2827 365.049C94.2593 365.778 94.2312 366.329 94.1983 366.703C93.9539 367.175 93.6195 367.529 93.195 367.765C92.7914 368.002 92.3481 368.176 91.8652 368.285C91.4037 368.375 90.9228 368.422 90.4224 368.427C89.922 368.431 89.4531 368.427 89.0159 368.413C87.6207 368.368 86.5302 367.927 85.7441 367.088C84.9588 366.23 84.5888 365.092 84.6342 363.676ZM85.9106 362.873C85.8939 363.393 85.9189 363.915 85.9855 364.439C86.0527 364.941 86.1841 365.393 86.3797 365.796C86.5752 366.198 86.8564 366.53 87.2232 366.792C87.5906 367.033 88.0659 367.163 88.6489 367.182C89.0029 367.193 89.4297 367.207 89.9295 367.223C90.4292 367.239 90.9098 367.202 91.3713 367.113C91.8334 367.002 92.2246 366.827 92.545 366.588C92.8653 366.348 93.0328 365.999 93.0475 365.541C93.0649 364.999 93.0013 364.382 92.8568 363.69C92.7337 362.977 92.5156 362.303 92.2025 361.668C91.9109 361.012 91.5222 360.458 91.0365 360.005C90.5723 359.531 90.007 359.284 89.3407 359.262C88.9034 359.248 88.4833 359.349 88.0803 359.566C87.6773 359.782 87.314 360.062 86.9903 360.406C86.6874 360.751 86.4353 361.139 86.2338 361.57C86.0324 362.001 85.9247 362.436 85.9106 362.873ZM96.4805 344.296C96.7707 344.347 97.0179 344.438 97.2221 344.57C97.4478 344.681 97.6185 344.885 97.734 345.18C97.7213 345.576 97.7141 346.128 97.7122 346.837C97.7318 347.525 97.7373 348.328 97.7287 349.245C97.741 350.162 97.7509 351.153 97.7585 352.216C97.766 353.279 97.7733 354.353 97.7802 355.437C97.7871 356.521 97.7839 357.595 97.7707 358.657C97.7782 359.721 97.7778 360.711 97.7692 361.628C97.7814 362.545 97.7866 363.358 97.7847 364.067C97.7828 364.775 97.7863 365.317 97.7951 365.693C97.7938 365.735 97.781 365.807 97.7568 365.911C97.7535 366.015 97.7391 366.139 97.7136 366.284C97.7089 366.43 97.6938 366.576 97.6683 366.721C97.6643 366.846 97.6613 366.939 97.6593 367.002C97.6345 367.126 97.619 367.282 97.613 367.469C97.6077 367.636 97.5815 367.802 97.5345 367.967C97.4875 368.132 97.4097 368.286 97.3009 368.428C97.2136 368.551 97.0655 368.619 96.8566 368.633L96.3466 367.96C96.3265 367.939 96.3076 367.552 96.29 366.801C96.2939 366.03 96.284 365.04 96.2603 363.83C96.258 362.6 96.2605 361.225 96.2676 359.703C96.2754 358.161 96.2731 356.608 96.2607 355.045C96.2692 353.481 96.2756 351.981 96.2801 350.543C96.2845 349.105 96.2931 347.865 96.3056 346.823C96.3083 346.74 96.3137 346.573 96.3217 346.323C96.3505 346.074 96.3689 345.824 96.377 345.575C96.4065 345.305 96.4249 345.055 96.4322 344.826C96.4611 344.577 96.4772 344.4 96.4805 344.296ZM2.31557 388.862C2.33094 388.383 2.39028 387.833 2.49361 387.211C2.59761 386.568 2.75367 385.927 2.96178 385.287C3.16989 384.648 3.41932 384.02 3.71005 383.404C4.02161 382.789 4.38288 382.248 4.79388 381.782C5.20554 381.295 5.67633 380.914 6.20625 380.639C6.73684 380.343 7.32488 380.206 7.97038 380.226C8.6367 380.248 9.24362 380.497 9.79114 380.973C10.3595 381.449 10.8298 382.059 11.202 382.8C11.5951 383.542 11.8814 384.364 12.0609 385.266C12.2404 386.168 12.2956 387.046 12.2266 387.898C12.1865 389.147 11.9113 390.254 11.401 391.217C10.8907 392.18 10.251 392.952 9.48202 393.532C8.73386 394.112 7.92957 394.493 7.06916 394.674C6.22958 394.855 5.43999 394.778 4.7004 394.441C3.98229 394.085 3.38773 393.451 2.91671 392.539C2.46652 391.629 2.26614 390.403 2.31557 388.862ZM3.46722 389.024C3.48894 390.296 3.67618 391.282 4.02894 391.981C4.3817 392.68 4.81469 393.153 5.32791 393.398C5.86262 393.624 6.44565 393.643 7.07701 393.455C7.70837 393.266 8.30309 392.921 8.86118 392.418C9.41994 391.893 9.89941 391.242 10.2996 390.463C10.7213 389.663 10.969 388.764 11.0427 387.766C11.1084 387.018 11.0693 386.287 10.9254 385.574C10.8024 384.861 10.6038 384.23 10.3296 383.679C10.077 383.108 9.74744 382.66 9.34101 382.334C8.95607 381.988 8.50331 381.807 7.98275 381.79C7.483 381.774 7.03131 381.885 6.62766 382.122C6.22402 382.359 5.8486 382.691 5.50141 383.117C5.17571 383.524 4.88965 383.994 4.64323 384.528C4.39682 385.062 4.18163 385.597 3.99768 386.133C3.83456 386.67 3.703 387.197 3.60301 387.715C3.5245 388.213 3.47924 388.649 3.46722 389.024ZM13.5376 394.787C13.5066 394.453 13.4804 393.973 13.4588 393.347C13.4586 392.7 13.4505 391.981 13.4342 391.189C13.4394 390.376 13.4457 389.532 13.4529 388.657C13.4601 387.781 13.466 386.948 13.4706 386.156C13.4751 385.364 13.4666 384.655 13.445 384.029C13.4449 383.383 13.419 382.892 13.3672 382.557C13.3678 382.536 13.3591 382.484 13.341 382.4C13.3436 382.316 13.3362 382.222 13.3187 382.118C13.3221 382.014 13.3248 381.93 13.3268 381.868C13.3294 381.784 13.3314 381.722 13.3328 381.68C13.6531 381.441 13.9161 381.366 14.1216 381.456C14.348 381.546 14.5294 381.74 14.6658 382.036C14.8029 382.311 14.896 382.658 14.9451 383.077C14.9942 383.495 15.0225 383.913 15.0299 384.33C15.0582 384.748 15.0667 385.134 15.0553 385.488C15.0446 385.821 15.037 386.06 15.0323 386.206C15.0853 385.853 15.1611 385.439 15.2598 384.963C15.3584 384.486 15.4991 384.001 15.6817 383.507C15.8643 383.012 16.0778 382.529 16.3222 382.058C16.5881 381.566 16.9041 381.138 17.2701 380.775C17.6361 380.411 18.0411 380.133 18.485 379.938C18.9498 379.745 19.473 379.678 20.0547 379.739C20.9696 379.81 21.7112 380.084 22.2795 380.56C22.8687 381.038 23.3175 381.667 23.6259 382.448C23.9552 383.23 24.1767 384.123 24.2904 385.127C24.4249 386.132 24.4949 387.197 24.5005 388.323C24.5269 389.45 24.511 390.595 24.4528 391.761C24.3952 392.905 24.3494 394.009 24.3153 395.071C24.1266 395.106 23.9368 395.173 23.7461 395.271C23.556 395.349 23.3988 395.375 23.2746 395.35C23.1496 395.346 23.0586 395.26 23.0015 395.091C22.9658 394.902 22.998 394.549 23.098 394.031C23.1309 393.657 23.1805 393.085 23.2468 392.316C23.3347 391.527 23.3836 390.653 23.3935 389.695C23.4242 388.737 23.4039 387.746 23.3325 386.722C23.2611 385.699 23.093 384.766 22.8282 383.923C22.5849 383.061 22.2113 382.361 21.7075 381.824C21.2043 381.266 20.5362 380.973 19.7033 380.947C18.8382 381.273 18.0985 381.917 17.484 382.877C16.8904 383.837 16.3956 384.968 15.9995 386.268C15.6243 387.569 15.3286 388.988 15.1126 390.523C14.9181 392.039 14.7871 393.525 14.7195 394.982C14.6785 394.96 14.5955 394.946 14.4706 394.942C14.3665 394.939 14.2416 394.935 14.0958 394.93C13.9715 394.906 13.8473 394.881 13.723 394.856C13.6195 394.832 13.5577 394.809 13.5376 394.787ZM36.7943 393.001C36.8324 391.814 37.1829 390.96 37.8458 390.44C38.5294 389.92 39.4023 389.677 40.4642 389.711C40.8807 389.724 41.2656 389.747 41.6189 389.779C41.993 389.812 42.3453 389.875 42.6758 389.969C43.0063 390.063 43.3251 390.199 43.632 390.375C43.9599 390.552 44.2958 390.803 44.6397 391.127C44.6417 391.064 44.6457 390.939 44.6517 390.752C44.6792 390.544 44.6967 390.326 44.704 390.097C44.7114 389.868 44.7181 389.66 44.7241 389.472C44.7307 389.264 44.7354 389.118 44.7381 389.035C44.7293 388.659 44.7342 388.18 44.753 387.597C44.7723 386.993 44.74 386.377 44.6559 385.749C44.5927 385.122 44.4243 384.523 44.1508 383.951C43.8981 383.38 43.4642 382.939 42.8488 382.627C42.4116 382.613 42.0032 382.673 41.6237 382.807C41.2442 382.941 40.8644 383.085 40.4842 383.239C40.1041 383.394 39.7243 383.538 39.3448 383.672C38.966 383.785 38.5579 383.834 38.1207 383.82C38.1374 383.299 38.3072 382.878 38.6302 382.554C38.9748 382.211 39.3791 381.953 39.8432 381.78C40.3073 381.608 40.7902 381.498 41.292 381.452C41.7937 381.405 42.232 381.388 42.6068 381.4C42.9796 381.475 43.3208 381.559 43.6305 381.652C43.961 381.746 44.2576 381.922 44.5203 382.181C44.8038 382.44 45.0517 382.833 45.264 383.361C45.4979 383.869 45.6834 384.584 45.8206 385.505C45.9786 386.428 46.0973 387.599 46.1769 389.019C46.2779 390.418 46.3373 392.14 46.3551 394.183C46.3881 394.455 46.2867 394.692 46.0509 394.893C45.8367 395.073 45.5398 395.23 45.1604 395.364C44.7815 395.477 44.351 395.578 43.8687 395.667C43.408 395.735 42.9375 395.783 42.4572 395.809C41.977 395.835 41.5179 395.852 41.0799 395.859C40.642 395.865 40.2772 395.864 39.9857 395.855C39.6109 395.843 39.2277 395.768 38.8361 395.63C38.4653 395.493 38.117 395.305 37.7912 395.065C37.4868 394.805 37.2359 394.505 37.0384 394.166C36.8623 393.806 36.781 393.417 36.7943 393.001ZM40.9249 390.945C39.8744 391.203 39.1343 391.534 38.7044 391.937C38.2753 392.319 38.0755 392.698 38.1052 393.074C38.1556 393.451 38.3945 393.803 38.8217 394.129C39.2496 394.435 39.7743 394.649 40.3956 394.774C41.0176 394.877 41.696 394.847 42.4308 394.683C43.1663 394.498 43.8765 394.124 44.5616 393.563C44.3311 392.951 44.0959 392.485 43.856 392.164C43.6169 391.823 43.3542 391.565 43.068 391.389C42.7818 391.213 42.4624 391.098 42.1098 391.045C41.7571 390.992 41.3622 390.959 40.9249 390.945ZM47.4889 395.877C47.4579 395.542 47.4316 395.062 47.41 394.436C47.4099 393.79 47.4017 393.07 47.3855 392.278C47.3907 391.465 47.3969 390.621 47.4042 389.746C47.4114 388.871 47.4173 388.037 47.4219 387.245C47.4264 386.453 47.4179 385.744 47.3963 385.118C47.3962 384.472 47.3702 383.981 47.3185 383.646C47.3191 383.625 47.3104 383.573 47.2922 383.489C47.2949 383.406 47.2875 383.312 47.27 383.207C47.2734 383.103 47.276 383.019 47.278 382.957C47.2807 382.874 47.2827 382.811 47.284 382.77C47.6044 382.53 47.8674 382.455 48.0729 382.545C48.2993 382.635 48.4807 382.829 48.6171 383.125C48.7542 383.4 48.8473 383.747 48.8964 384.166C48.9455 384.584 48.9738 385.002 48.9812 385.419C49.0095 385.837 49.018 386.223 49.0066 386.577C48.9959 386.91 48.9882 387.149 48.9836 387.295C49.0366 386.942 49.1124 386.528 49.211 386.052C49.3097 385.576 49.4503 385.09 49.6329 384.596C49.8156 384.101 50.0291 383.618 50.2735 383.147C50.5394 382.655 50.8553 382.228 51.2214 381.864C51.5874 381.501 51.9923 381.222 52.4363 381.028C52.9011 380.834 53.4243 380.768 54.006 380.828C54.9209 380.899 55.6625 381.173 56.2308 381.65C56.82 382.127 57.2688 382.756 57.5772 383.538C57.9065 384.319 58.128 385.212 58.2417 386.216C58.3762 387.221 58.4462 388.287 58.4518 389.412C58.4782 390.539 58.4623 391.685 58.404 392.85C58.3465 393.995 58.3007 395.098 58.2666 396.16C58.0778 396.195 57.8881 396.262 57.6974 396.36C57.5073 396.438 57.3501 396.464 57.2258 396.439C57.1009 396.435 57.0099 396.349 56.9528 396.18C56.9171 395.992 56.9493 395.638 57.0493 395.12C57.0821 394.746 57.1317 394.175 57.1981 393.405C57.286 392.616 57.3348 391.742 57.3447 390.784C57.3755 389.826 57.3552 388.835 57.2838 387.812C57.2124 386.788 57.0443 385.855 56.7795 385.013C56.5362 384.15 56.1626 383.45 55.6588 382.913C55.1556 382.355 54.4875 382.063 53.6546 382.036C52.7895 382.363 52.0498 383.006 51.4353 383.966C50.8417 384.926 50.3469 386.057 49.9508 387.357C49.5756 388.659 49.2799 390.077 49.0639 391.612C48.8694 393.128 48.7383 394.614 48.6708 396.071C48.6298 396.049 48.5468 396.036 48.4219 396.032C48.3178 396.028 48.1928 396.024 48.0471 396.02C47.9228 395.995 47.7985 395.97 47.6743 395.945C47.5708 395.921 47.509 395.898 47.4889 395.877ZM71.1136 389.443C71.1336 388.819 71.291 388.136 71.5857 387.395C71.8811 386.633 72.2683 385.937 72.7471 385.306C73.2474 384.655 73.796 384.12 74.3931 383.702C75.0117 383.263 75.6437 383.054 76.2892 383.075C76.6432 383.086 76.9844 383.17 77.3129 383.326C77.6622 383.484 77.989 383.692 78.2933 383.952C78.6191 384.192 78.902 384.472 79.1418 384.792C79.4032 385.092 79.6014 385.411 79.7364 385.749C79.8715 386.087 79.934 386.412 79.924 386.724C79.9348 387.037 79.8428 387.305 79.6481 387.529L73.0187 388.535C72.9347 388.553 72.8585 388.655 72.79 388.841C72.7222 389.005 72.6631 389.222 72.6128 389.491C72.5625 389.761 72.5111 390.061 72.4588 390.393C72.4279 390.705 72.3971 391.017 72.3663 391.328C72.3361 391.619 72.317 391.889 72.309 392.139C72.3016 392.368 72.296 392.545 72.2919 392.67C72.2732 393.253 72.3932 393.737 72.6519 394.12C72.9321 394.483 73.2878 394.766 73.719 394.967C74.1503 395.169 74.6356 395.309 75.175 395.389C75.7352 395.47 76.286 395.519 76.8274 395.536C77.3688 395.553 77.8796 395.549 78.3599 395.523C78.8401 395.496 79.2364 395.488 79.5487 395.498C79.5461 395.581 79.5118 395.674 79.446 395.776C79.3802 395.878 79.304 395.98 79.2174 396.082C79.1314 396.162 79.0454 396.243 78.9595 396.323C78.8742 396.383 78.8208 396.423 78.7993 396.443C78.6314 396.48 78.3691 396.534 78.0124 396.606C77.6773 396.658 77.3109 396.708 76.9132 396.758C76.5364 396.809 76.1808 396.849 75.8463 396.88C75.5118 396.911 75.2821 396.925 75.1571 396.921C74.5076 397.025 73.9457 396.996 73.4715 396.835C72.9973 396.674 72.5992 396.411 72.2774 396.047C71.9556 395.682 71.6986 395.246 71.5064 394.74C71.3149 394.213 71.1764 393.656 71.091 393.069C71.0056 392.483 70.9625 391.877 70.9617 391.252C70.9818 390.627 71.0324 390.024 71.1136 389.443ZM75.8138 384.248C75.6264 384.242 75.3732 384.338 75.0542 384.536C74.7567 384.714 74.4675 384.955 74.1868 385.258C73.9276 385.542 73.6986 385.858 73.4999 386.206C73.3226 386.534 73.2612 386.823 73.3156 387.075C73.855 387.155 74.4176 387.163 75.0033 387.098C75.589 387.034 76.1239 386.926 76.6082 386.774C77.0931 386.602 77.4955 386.407 77.8151 386.188C78.1355 385.948 78.2893 385.703 78.2765 385.452C78.2845 385.202 78.0937 384.977 77.7041 384.777C77.3359 384.557 76.7059 384.38 75.8138 384.248ZM81.0763 384.917C81.3262 384.925 81.5949 384.996 81.8824 385.13C82.1699 385.264 82.3701 385.521 82.483 385.9C82.6723 385.197 82.9406 384.633 83.2878 384.206C83.6558 383.78 84.0611 383.491 84.5037 383.338C84.9671 383.186 85.4373 383.149 85.9142 383.227C86.4126 383.285 86.8661 383.445 87.2745 383.709C87.7038 383.973 88.0682 384.307 88.3679 384.713C88.6883 385.119 88.9027 385.585 89.0109 386.109C89.2607 385.471 89.5816 384.887 89.9738 384.358C90.3875 383.808 90.8294 383.354 91.2995 382.994C91.7904 382.634 92.2881 382.39 92.7925 382.26C93.3178 382.131 93.7964 382.157 94.2283 382.337C94.6817 382.498 95.0667 382.843 95.3831 383.375C95.7211 383.886 95.9476 384.623 96.0626 385.585C96.0956 385.857 96.1346 386.265 96.1797 386.808C96.2255 387.331 96.2689 387.926 96.31 388.595C96.3719 389.264 96.4325 389.974 96.4917 390.727C96.5724 391.459 96.6334 392.159 96.6744 392.827C96.7364 393.496 96.7899 394.102 96.835 394.646C96.8807 395.168 96.9204 395.555 96.9541 395.806C96.9474 396.015 96.9296 396.243 96.9008 396.493C96.8719 396.742 96.8129 396.959 96.7236 397.143C96.6558 397.308 96.5376 397.419 96.369 397.476C96.2219 397.513 95.9958 397.412 95.6908 397.173C95.6989 396.923 95.6807 396.516 95.6362 395.952C95.5918 395.388 95.55 394.74 95.5109 394.009C95.4725 393.258 95.4143 392.474 95.3362 391.659C95.2797 390.823 95.211 390.039 95.1303 389.307C95.0704 388.576 95.0182 387.928 94.9738 387.364C94.9293 386.799 94.8796 386.402 94.8244 386.171C94.5428 385.203 94.231 384.526 93.8891 384.14C93.5679 383.754 93.2297 383.577 92.8744 383.607C92.5399 383.638 92.2101 383.846 91.8851 384.232C91.5601 384.617 91.2629 385.108 90.9937 385.704C90.7244 386.3 90.4633 386.969 90.2102 387.711C89.9786 388.433 89.7886 389.157 89.6403 389.881C89.5128 390.607 89.4179 391.292 89.3555 391.936C89.314 392.581 89.3386 393.113 89.4294 393.533L88.2032 393.744C88.3298 391.747 88.3094 390.11 88.1419 388.833C87.9959 387.536 87.7569 386.538 87.425 385.84C87.1139 385.142 86.7417 384.723 86.3084 384.584C85.8758 384.425 85.4359 384.494 84.9886 384.792C84.5621 385.091 84.1602 385.599 83.7828 386.317C83.4055 387.034 83.1064 387.91 82.8856 388.946C82.6863 389.961 82.5867 391.114 82.5869 392.407C82.5872 393.699 82.7614 395.091 83.1096 396.582L81.9227 396.544C81.9227 396.544 81.8978 396.345 81.848 395.947C81.8191 395.55 81.7726 395.048 81.7087 394.442C81.6663 393.815 81.6158 393.115 81.5572 392.342C81.4993 391.548 81.4414 390.754 81.3835 389.96C81.3263 389.146 81.2677 388.373 81.2078 387.641C81.1485 386.889 81.096 386.251 81.0503 385.729C81.0523 385.666 81.0566 385.531 81.0633 385.323C81.0706 385.094 81.075 384.958 81.0763 384.917ZM99.0607 389.59C98.9754 389.649 98.8603 389.666 98.7152 389.641C98.5701 389.615 98.4357 389.58 98.3121 389.534C98.1892 389.468 98.077 389.391 97.9756 389.305C97.8956 389.198 97.8576 389.082 97.8617 388.957C97.8844 388.249 98.1237 387.611 98.5797 387.042C99.0363 386.452 99.5941 385.959 100.253 385.563C100.912 385.147 101.61 384.836 102.346 384.63C103.083 384.403 103.754 384.3 104.357 384.319C105.315 384.35 106.174 384.544 106.934 384.902C107.715 385.24 108.367 385.698 108.891 386.278C109.435 386.858 109.841 387.528 110.108 388.287C110.396 389.047 110.527 389.853 110.5 390.707C110.486 391.79 110.204 392.771 109.655 393.65C109.126 394.529 108.435 395.278 107.582 395.897C106.749 396.496 105.818 396.945 104.787 397.246C103.777 397.526 102.785 397.609 101.809 397.494C101.826 398.245 101.788 399.099 101.695 400.054C101.601 401.031 101.484 402.09 101.343 403.232C101.202 404.374 101.028 405.578 100.821 406.842C100.634 408.129 100.435 409.446 100.225 410.794C100.224 410.815 100.162 410.823 100.037 410.819C99.9118 410.815 99.7771 410.79 99.6327 410.744C99.5085 410.719 99.3741 410.683 99.2297 410.637C99.1054 410.612 99.0325 410.61 99.0111 410.63C99.2123 408.906 99.3829 407.161 99.523 405.394C99.663 403.626 99.7514 401.847 99.788 400.056C99.824 398.285 99.7867 396.523 99.6763 394.768C99.5658 393.014 99.3606 391.288 99.0607 389.59ZM103.927 386.056C103.53 386.064 103.101 386.113 102.64 386.203C102.179 386.271 101.769 386.393 101.409 386.57C101.049 386.746 100.76 386.986 100.541 387.292C100.323 387.598 100.238 387.981 100.286 388.441C100.321 388.65 100.363 388.954 100.413 389.352C100.483 389.75 100.552 390.2 100.62 390.703C100.708 391.206 100.785 391.729 100.851 392.273C100.937 392.818 101.014 393.342 101.082 393.844C101.17 394.347 101.238 394.808 101.287 395.226C101.358 395.625 101.411 395.929 101.446 396.138C101.697 396.105 102.052 396.074 102.512 396.047C102.971 396.02 103.463 395.953 103.988 395.845C104.512 395.736 105.049 395.587 105.597 395.396C106.166 395.185 106.697 394.889 107.188 394.509C107.68 394.129 108.112 393.653 108.485 393.081C108.879 392.489 109.153 391.758 109.306 390.887C109.332 390.075 109.208 389.373 108.936 388.781C108.663 388.188 108.282 387.697 107.795 387.306C107.308 386.894 106.723 386.594 106.041 386.406C105.381 386.197 104.676 386.08 103.927 386.056ZM115.625 386.869C115.44 386.801 115.18 386.772 114.846 386.782C114.534 386.772 114.19 386.782 113.814 386.811C113.459 386.821 113.114 386.841 112.78 386.872C112.445 386.903 112.164 386.915 111.935 386.907C111.831 386.904 111.762 386.756 111.73 386.463C111.719 386.15 111.691 385.732 111.645 385.21L116.059 385.039C116.145 384.312 116.203 383.792 116.234 383.481C116.265 383.169 116.273 382.909 116.259 382.7C116.267 382.471 116.264 382.221 116.252 381.949C116.261 381.658 116.276 381.21 116.295 380.606C116.839 380.54 117.246 380.533 117.515 380.583C117.806 380.613 118.002 380.692 118.102 380.821C118.202 380.949 118.237 381.138 118.209 381.387C118.201 381.616 118.161 381.906 118.087 382.258C118.034 382.611 117.979 383.037 117.921 383.535C117.884 384.034 117.887 384.597 117.929 385.224L121.681 385.219L121.632 386.749C121.466 386.744 121.205 386.746 120.85 386.756C120.496 386.765 120.11 386.773 119.693 386.781C119.296 386.789 118.921 386.798 118.566 386.807C118.232 386.817 117.981 386.851 117.813 386.908C117.622 387.652 117.419 388.448 117.204 389.296C116.99 390.144 116.838 390.983 116.749 391.814C116.659 392.645 116.655 393.427 116.736 394.159C116.817 394.87 117.058 395.472 117.46 395.964C117.861 396.435 118.444 396.777 119.209 396.989C119.974 397.181 120.996 397.151 122.276 396.9C122.224 397.211 122.091 397.467 121.876 397.669C121.682 397.85 121.448 397.999 121.174 398.115C120.921 398.212 120.647 398.286 120.354 398.339C120.061 398.372 119.8 398.384 119.571 398.377C118.509 398.343 117.672 398.128 117.059 397.733C116.447 397.318 115.995 396.792 115.702 396.158C115.41 395.523 115.235 394.809 115.177 394.015C115.12 393.2 115.115 392.377 115.163 391.544C115.231 390.713 115.32 389.892 115.429 389.083C115.538 388.273 115.604 387.536 115.625 386.869ZM128.469 411.45C128.502 410.409 128.63 409.34 128.853 408.242C129.076 407.144 129.299 406.047 129.521 404.949C129.765 403.852 129.967 402.754 130.127 401.654C130.309 400.555 130.364 399.473 130.294 398.408L122.94 384.978C123.411 384.576 123.783 384.359 124.055 384.326C124.328 384.272 124.484 384.267 124.524 384.31C124.663 384.522 124.891 384.915 125.206 385.488C125.542 386.062 125.916 386.73 126.329 387.494C126.764 388.258 127.217 389.065 127.69 389.914C128.163 390.763 128.606 391.569 129.019 392.333C129.453 393.097 129.817 393.776 130.111 394.369C130.425 394.963 130.641 395.376 130.759 395.609L132.568 384.067L134.104 384.898L129.871 411.589L128.469 411.45ZM2.78271 421.081C3.15751 421.093 3.49875 421.177 3.80641 421.333C4.1349 421.489 4.4523 421.666 4.75863 421.864C5.06563 422.04 5.37296 422.206 5.68062 422.362C6.00977 422.498 6.36175 422.572 6.73656 422.584C7.17383 422.598 7.62386 422.539 8.08663 422.408C8.5709 422.257 9.01519 422.052 9.4195 421.794C9.82448 421.515 10.1583 421.182 10.4208 420.795C10.6841 420.386 10.8233 419.942 10.8387 419.464C10.8642 419.318 10.8699 419.141 10.8557 418.933C10.8624 418.724 10.8066 418.514 10.6884 418.302C10.5708 418.069 10.3693 417.854 10.0837 417.657C9.79891 417.44 9.37706 417.27 8.81819 417.148C8.28014 417.026 7.59466 416.952 6.76176 416.925C5.92952 416.878 4.89646 416.918 3.66258 417.045C3.35025 417.035 3.05099 416.942 2.76482 416.766C2.47931 416.569 2.22604 416.342 2.00501 416.085C1.78465 415.807 1.60626 415.52 1.46986 415.223C1.33412 414.906 1.27059 414.613 1.27927 414.342C1.30533 413.53 1.49295 412.879 1.84215 412.39C2.21283 411.881 2.67354 411.489 3.22428 411.215C3.77569 410.92 4.38656 410.721 5.05689 410.617C5.72723 410.514 6.40597 410.473 7.09311 410.495C7.40545 410.505 7.75877 410.537 8.15306 410.592C8.56885 410.626 8.94098 410.721 9.26947 410.878C9.61944 411.014 9.90428 411.231 10.124 411.53C10.3645 411.83 10.4764 412.24 10.4597 412.76C10.4067 413.113 10.3372 413.33 10.2513 413.41C10.1868 413.471 10.0833 413.447 9.94092 413.338C9.82 413.209 9.66917 413.037 9.48845 412.823C9.30772 412.609 9.08502 412.404 8.82034 412.208C8.57715 411.991 8.26982 411.825 7.89835 411.709C7.54771 411.594 7.14167 411.581 6.68023 411.67C6.20131 411.655 5.72072 411.691 5.23846 411.78C4.75686 411.848 4.31458 411.99 3.9116 412.206C3.52945 412.423 3.20709 412.726 2.94452 413.113C2.70278 413.502 2.57222 413.998 2.55285 414.602C2.54283 414.914 2.67116 415.137 2.93785 415.271C3.22603 415.384 3.59916 415.448 4.05726 415.463C4.53618 415.478 5.06749 415.485 5.65119 415.483C6.25639 415.46 6.87132 415.459 7.496 415.479C8.12068 415.499 8.72286 415.571 9.30256 415.694C9.88292 415.796 10.3871 415.999 10.815 416.305C11.2644 416.59 11.6057 416.997 11.8389 417.526C12.072 418.054 12.144 418.734 12.0548 419.565C12.0355 420.169 11.8401 420.736 11.4687 421.266C11.1182 421.797 10.6656 422.262 10.1108 422.661C9.57757 423.04 8.98451 423.333 8.33167 423.542C7.67882 423.75 7.05147 423.813 6.44961 423.731C6.20041 423.702 5.85884 423.629 5.42491 423.511C5.01246 423.373 4.60135 423.193 4.19158 422.971C3.80263 422.75 3.46707 422.489 3.18491 422.188C2.90341 421.867 2.76935 421.498 2.78271 421.081ZM17.0581 412.722C16.8727 412.654 16.6131 412.624 16.2792 412.635C15.9669 412.624 15.6227 412.634 15.2465 412.664C14.8919 412.673 14.5473 412.694 14.2128 412.725C13.8783 412.756 13.5965 412.767 13.3675 412.76C13.2634 412.757 13.1952 412.609 13.1629 412.316C13.1521 412.003 13.1238 411.585 13.078 411.062L17.492 410.891C17.5779 410.164 17.6362 409.645 17.667 409.334C17.6979 409.022 17.7062 408.762 17.6921 408.553C17.6994 408.324 17.697 408.073 17.6849 407.802C17.6943 407.511 17.7086 407.063 17.728 406.459C18.2721 406.393 18.6788 406.385 18.9481 406.436C19.239 406.466 19.4345 406.545 19.5346 406.673C19.6347 406.802 19.6703 406.99 19.6415 407.24C19.6341 407.469 19.5935 407.759 19.5197 408.111C19.4667 408.464 19.4114 408.889 19.3537 409.388C19.3168 409.887 19.3196 410.45 19.362 411.076L23.1141 411.072L23.065 412.602C22.8984 412.597 22.6378 412.599 22.2832 412.608C21.9285 412.618 21.5426 412.626 21.1255 412.634C20.7292 412.642 20.3537 412.651 19.9991 412.66C19.6653 412.67 19.414 412.704 19.2455 412.761C19.0548 413.505 18.8521 414.301 18.6373 415.149C18.4225 415.997 18.2705 416.836 18.1814 417.667C18.0922 418.498 18.0879 419.279 18.1687 420.011C18.2501 420.723 18.4913 421.324 18.8924 421.817C19.2942 422.288 19.8772 422.63 20.6417 422.842C21.4068 423.033 22.4291 423.004 23.7086 422.753C23.6569 423.064 23.5237 423.32 23.3088 423.522C23.1153 423.703 22.8813 423.852 22.6066 423.968C22.3534 424.064 22.08 424.139 21.7865 424.192C21.4936 424.224 21.2327 424.237 21.0036 424.229C19.9417 424.195 19.1044 423.981 18.4917 423.586C17.8797 423.17 17.4276 422.645 17.1353 422.011C16.843 421.376 16.6679 420.662 16.61 419.868C16.5527 419.053 16.5479 418.229 16.5954 417.397C16.6638 416.566 16.7527 415.745 16.862 414.936C16.9713 414.126 17.0367 413.388 17.0581 412.722ZM24.5613 418.591C24.5766 418.112 24.636 417.561 24.7393 416.939C24.8433 416.296 24.9994 415.655 25.2075 415.016C25.4156 414.376 25.665 413.749 25.9557 413.133C26.2673 412.517 26.6286 411.976 27.0396 411.51C27.4512 411.023 27.922 410.642 28.4519 410.367C28.9825 410.072 29.5706 409.934 30.2161 409.955C30.8824 409.976 31.4893 410.225 32.0368 410.701C32.6052 411.178 33.0755 411.787 33.4477 412.529C33.8408 413.271 34.1271 414.093 34.3066 414.995C34.4861 415.897 34.5413 416.774 34.4723 417.627C34.4322 418.876 34.157 419.982 33.6467 420.946C33.1364 421.909 32.4967 422.681 31.7277 423.26C30.9795 423.841 30.1753 424.221 29.3149 424.402C28.4753 424.584 27.6857 424.506 26.9461 424.17C26.228 423.813 25.6334 423.179 25.1624 422.268C24.7122 421.357 24.5118 420.132 24.5613 418.591ZM25.7129 418.753C25.7346 420.025 25.9219 421.011 26.2746 421.71C26.6274 422.409 27.0604 422.881 27.5736 423.127C28.1083 423.353 28.6913 423.371 29.3227 423.183C29.9541 422.995 30.5488 422.649 31.1069 422.146C31.6656 421.622 32.1451 420.97 32.5453 420.191C32.967 419.392 33.2147 418.493 33.2884 417.495C33.3541 416.747 33.315 416.016 33.1711 415.303C33.0481 414.59 32.8495 413.958 32.5753 413.407C32.3227 412.837 31.9931 412.388 31.5867 412.063C31.2018 411.717 30.749 411.535 30.2284 411.519C29.7287 411.503 29.277 411.613 28.8734 411.85C28.4697 412.088 28.0943 412.42 27.7471 412.846C27.4214 413.253 27.1353 413.723 26.8889 414.257C26.6425 414.791 26.4273 415.326 26.2434 415.862C26.0802 416.399 25.9487 416.926 25.8487 417.444C25.7702 417.942 25.7249 418.378 25.7129 418.753ZM35.7006 412.476C35.9504 412.484 36.2191 412.555 36.5066 412.689C36.7941 412.824 36.9943 413.08 37.1073 413.459C37.2966 412.756 37.5648 412.192 37.912 411.765C38.28 411.339 38.6853 411.05 39.1279 410.898C39.5914 410.746 40.0616 410.709 40.5385 410.786C41.0369 410.844 41.4903 411.005 41.8987 411.268C42.328 411.532 42.6924 411.866 42.9921 412.272C43.3126 412.678 43.5269 413.144 43.6351 413.668C43.8849 413.03 44.2059 412.447 44.598 411.917C45.0117 411.368 45.4536 410.913 45.9237 410.553C46.4147 410.193 46.9124 409.949 47.4168 409.819C47.942 409.69 48.4206 409.716 48.8525 409.896C49.306 410.057 49.6909 410.403 50.0074 410.934C50.3453 411.445 50.5718 412.182 50.6868 413.144C50.7198 413.416 50.7588 413.824 50.8039 414.367C50.8497 414.89 50.8931 415.485 50.9342 416.154C50.9961 416.823 51.0567 417.533 51.1159 418.286C51.1967 419.018 51.2576 419.718 51.2987 420.386C51.3606 421.055 51.4141 421.662 51.4592 422.205C51.505 422.728 51.5447 423.114 51.5783 423.366C51.5716 423.574 51.5539 423.803 51.525 424.052C51.4962 424.301 51.4371 424.518 51.3478 424.703C51.28 424.867 51.1618 424.978 50.9932 425.035C50.8461 425.072 50.6201 424.971 50.3151 424.732C50.3231 424.482 50.3049 424.075 50.2605 423.511C50.216 422.947 50.1743 422.299 50.1352 421.568C50.0968 420.817 50.0385 420.033 49.9605 419.218C49.9039 418.382 49.8352 417.598 49.7545 416.866C49.6946 416.135 49.6424 415.487 49.598 414.923C49.5536 414.359 49.5038 413.961 49.4487 413.73C49.1671 412.762 48.8553 412.085 48.5133 411.699C48.1922 411.313 47.8539 411.136 47.4986 411.166C47.1641 411.197 46.8344 411.405 46.5093 411.791C46.1843 412.177 45.8872 412.667 45.6179 413.263C45.3487 413.859 45.0875 414.528 44.8344 415.27C44.6028 415.992 44.4128 416.716 44.2645 417.441C44.137 418.166 44.0421 418.851 43.9797 419.495C43.9382 420.14 43.9628 420.672 44.0536 421.092L42.8274 421.303C42.954 419.306 42.9336 417.669 42.7661 416.392C42.6201 415.095 42.3812 414.097 42.0492 413.399C41.7381 412.701 41.3659 412.282 40.9327 412.144C40.5001 411.984 40.0601 412.053 39.6128 412.351C39.1863 412.65 38.7844 413.158 38.4071 413.876C38.0297 414.593 37.7306 415.47 37.5098 416.505C37.3105 417.52 37.2109 418.673 37.2112 419.966C37.2114 421.258 37.3856 422.65 37.7338 424.141L36.5469 424.103C36.5469 424.103 36.522 423.904 36.4723 423.506C36.4433 423.109 36.3969 422.608 36.333 422.001C36.2905 421.374 36.24 420.675 36.1815 419.901C36.1236 419.107 36.0656 418.314 36.0077 417.52C35.9505 416.705 35.8919 415.932 35.832 415.2C35.7728 414.448 35.7203 413.811 35.6745 413.288C35.6765 413.226 35.6809 413.09 35.6875 412.882C35.6949 412.653 35.6992 412.518 35.7006 412.476ZM52.4497 422.518C52.4877 421.331 52.8382 420.477 53.5011 419.957C54.1848 419.437 55.0576 419.194 56.1196 419.228C56.536 419.241 56.9209 419.264 57.2742 419.296C57.6483 419.329 58.0007 419.392 58.3312 419.486C58.6616 419.58 58.9804 419.716 59.2874 419.892C59.6152 420.07 59.9511 420.32 60.2951 420.644C60.2971 420.581 60.3011 420.456 60.3071 420.269C60.3346 420.061 60.352 419.843 60.3594 419.614C60.3667 419.385 60.3734 419.177 60.3794 418.989C60.3861 418.781 60.3908 418.635 60.3934 418.552C60.3846 418.177 60.3896 417.697 60.4083 417.114C60.4277 416.51 60.3953 415.895 60.3112 415.267C60.248 414.639 60.0796 414.04 59.8061 413.468C59.5535 412.897 59.1195 412.456 58.5042 412.144C58.0669 412.13 57.6585 412.19 57.279 412.324C56.8995 412.458 56.5197 412.602 56.1396 412.756C55.7594 412.911 55.3796 413.055 55.0001 413.189C54.6213 413.302 54.2133 413.351 53.776 413.337C53.7927 412.817 53.9626 412.395 54.2856 412.072C54.6301 411.728 55.0344 411.47 55.4985 411.298C55.9626 411.125 56.4456 411.015 56.9473 410.969C57.4491 410.922 57.8873 410.905 58.2621 410.917C58.6349 410.992 58.9762 411.076 59.2858 411.169C59.6163 411.263 59.9129 411.439 60.1756 411.698C60.4591 411.957 60.707 412.351 60.9194 412.879C61.1532 413.386 61.3387 414.101 61.4759 415.022C61.6339 415.945 61.7527 417.116 61.8322 418.536C61.9332 419.935 61.9926 421.657 62.0104 423.7C62.0434 423.972 61.942 424.209 61.7063 424.41C61.492 424.59 61.1952 424.748 60.8157 424.881C60.4369 424.994 60.0063 425.095 59.5241 425.184C59.0633 425.252 58.5928 425.3 58.1125 425.326C57.6323 425.352 57.1732 425.369 56.7352 425.376C56.2973 425.383 55.9326 425.381 55.6411 425.372C55.2662 425.36 54.883 425.285 54.4914 425.147C54.1206 425.011 53.7723 424.822 53.4465 424.582C53.1422 424.323 52.8912 424.023 52.6937 423.683C52.5176 423.323 52.4363 422.935 52.4497 422.518ZM56.5802 420.462C55.5297 420.72 54.7896 421.051 54.3598 421.454C53.9306 421.836 53.7309 422.215 53.7605 422.591C53.8109 422.968 54.0498 423.32 54.477 423.646C54.905 423.952 55.4296 424.167 56.0509 424.291C56.6729 424.394 57.3513 424.364 58.0861 424.2C58.8216 424.015 59.5319 423.642 60.2169 423.08C59.9864 422.468 59.7512 422.002 59.5114 421.682C59.2722 421.34 59.0095 421.082 58.7233 420.906C58.4372 420.73 58.1178 420.616 57.7651 420.563C57.4125 420.51 57.0175 420.476 56.5802 420.462ZM62.842 420.194C62.8668 419.423 63.0191 418.574 63.299 417.645C63.5789 416.716 63.9711 415.863 64.4754 415.087C64.9803 414.291 65.5955 413.633 66.3208 413.114C67.0462 412.596 67.8773 412.351 68.8144 412.381C69.2953 412.334 69.6788 412.399 69.965 412.575C70.2519 412.73 70.4628 412.976 70.5979 413.314C70.7538 413.653 70.8455 414.041 70.8731 414.48C70.9222 414.898 70.9395 415.336 70.9248 415.795C70.9316 416.233 70.9182 416.649 70.8847 417.044C70.8727 417.419 70.8835 417.732 70.9171 417.983L70.1362 417.958C70.1194 417.832 70.0871 417.539 70.0394 417.079C70.0131 416.599 69.9455 416.107 69.8366 415.603C69.7277 415.1 69.565 414.646 69.3487 414.243C69.1532 413.841 68.8576 413.633 68.4619 413.621C67.8789 413.602 67.3198 413.813 66.7845 414.255C66.2701 414.697 65.8151 415.235 65.4196 415.868C65.0241 416.502 64.7007 417.158 64.4497 417.838C64.1986 418.518 64.0657 419.087 64.051 419.545C64.0551 420.066 64.1096 420.641 64.2145 421.27C64.3201 421.878 64.5002 422.436 64.7548 422.944C65.0303 423.453 65.3921 423.871 65.8402 424.198C66.2883 424.525 66.8475 424.637 67.5178 424.534C68.0175 424.55 68.4998 424.461 68.9646 424.267C69.4293 424.074 69.884 423.87 70.3287 423.655C70.7733 423.44 71.2176 423.235 71.6615 423.041C72.1263 422.847 72.6086 422.758 73.1083 422.774C73.091 423.316 72.8778 423.788 72.4688 424.192C72.0605 424.575 71.5608 424.882 70.9697 425.113C70.3995 425.345 69.7896 425.513 69.1401 425.617C68.5114 425.722 67.9785 425.768 67.5412 425.754C66.8332 425.731 66.182 425.564 65.5875 425.253C65.0138 424.943 64.516 424.542 64.0941 424.049C63.6728 423.535 63.3476 422.951 63.1185 422.298C62.9108 421.624 62.8187 420.923 62.842 420.194ZM75.8517 404.509L76.3351 414.78C76.4848 414.66 76.6783 414.478 76.9153 414.236C77.1524 413.993 77.4304 413.773 77.7494 413.575C78.0691 413.356 78.4187 413.179 78.7982 413.046C79.1784 412.891 79.5867 412.831 80.0233 412.866C80.8744 412.977 81.5401 413.342 82.0205 413.962C82.5217 414.582 82.8832 415.334 83.105 416.217C83.3476 417.1 83.4939 418.063 83.5438 419.107C83.5943 420.13 83.5838 421.109 83.5121 422.045C83.4612 422.982 83.3824 423.813 83.2757 424.539C83.1899 425.266 83.1218 425.764 83.0715 426.033L81.952 425.841C81.9581 425.653 81.9674 425.362 81.9801 424.966C82.0143 424.551 82.0505 424.072 82.0887 423.532C82.1275 422.97 82.1566 422.387 82.176 421.783C82.1954 421.18 82.2134 420.617 82.2301 420.097C82.2683 419.556 82.2837 419.077 82.2762 418.66C82.2896 418.244 82.2885 417.952 82.273 417.785C82.3126 417.202 82.2161 416.636 81.9836 416.087C81.7511 415.537 81.4309 415.121 81.0232 414.837C80.6161 414.532 80.1193 414.422 79.533 414.507C78.9473 414.572 78.3095 414.958 77.6198 415.665C77.0088 416.521 76.5542 417.372 76.2561 418.217C75.9587 419.041 75.755 419.868 75.6449 420.698C75.5356 421.508 75.4773 422.35 75.4701 423.225C75.4635 424.08 75.4345 424.986 75.3829 425.943L74.1708 425.716C74.2406 425.489 74.2956 425.074 74.3358 424.471C74.3975 423.848 74.4524 423.109 74.5007 422.256C74.5495 421.382 74.591 420.415 74.6251 419.353C74.68 418.291 74.715 417.198 74.7303 416.073C74.767 414.928 74.7934 413.782 74.8093 412.636C74.8252 411.49 74.829 410.396 74.8208 409.354C74.8334 408.312 74.8329 407.353 74.8193 406.477C74.8265 405.602 74.8287 404.883 74.8259 404.32L75.8517 404.509ZM97.5417 414.522C97.7916 414.53 98.0002 414.527 98.1674 414.511C98.3555 414.496 98.5083 414.606 98.6259 414.839C98.6583 415.778 98.7005 416.738 98.7524 417.719C98.8049 418.68 98.8571 419.651 98.909 420.632C98.9609 421.613 98.9813 422.604 98.97 423.604C98.9803 424.584 98.9599 425.542 98.9091 426.479C98.9051 426.604 98.8715 426.675 98.8083 426.694C98.7445 426.734 98.6505 426.741 98.5262 426.717C98.4221 426.713 98.2871 426.698 98.1212 426.672C97.9754 426.668 97.8082 426.683 97.6195 426.719L97.5417 414.522ZM95.9095 408.873C95.9142 408.728 95.9296 408.572 95.9558 408.406C95.9826 408.219 96.0296 408.054 96.0968 407.91C96.1847 407.767 96.2824 407.645 96.3899 407.544C96.5182 407.444 96.6656 407.397 96.8322 407.402C97.0821 407.41 97.3316 407.429 97.5808 407.458C97.83 407.486 98.0678 407.546 98.2942 407.637C98.5212 407.707 98.7049 407.827 98.8454 407.998C98.9864 408.149 99.0523 408.37 99.0429 408.661C99.0269 409.161 98.8251 409.603 98.4376 409.986C98.0508 410.349 97.5867 410.522 97.0453 410.504C96.6289 410.491 96.3319 410.325 96.1546 410.007C95.9779 409.668 95.8962 409.29 95.9095 408.873ZM97.7161 409.088C97.6536 409.086 97.6207 409.137 97.6174 409.241C97.614 409.345 97.6436 409.398 97.7061 409.4C97.7894 409.403 97.8327 409.352 97.836 409.248C97.8394 409.144 97.7994 409.09 97.7161 409.088ZM101.419 424.246C101.794 424.258 102.136 424.341 102.443 424.497C102.772 424.654 103.089 424.831 103.395 425.028C103.702 425.205 104.01 425.371 104.317 425.527C104.647 425.662 104.999 425.736 105.373 425.748C105.811 425.762 106.261 425.704 106.723 425.573C107.208 425.421 107.652 425.217 108.056 424.959C108.461 424.68 108.795 424.347 109.058 423.959C109.321 423.551 109.46 423.107 109.475 422.628C109.501 422.483 109.507 422.306 109.493 422.097C109.499 421.889 109.443 421.679 109.325 421.466C109.208 421.233 109.006 421.018 108.721 420.822C108.436 420.604 108.014 420.434 107.455 420.312C106.917 420.191 106.231 420.116 105.399 420.09C104.566 420.042 103.533 420.082 102.299 420.209C101.987 420.199 101.688 420.106 101.402 419.93C101.116 419.733 100.863 419.506 100.642 419.249C100.421 418.971 100.243 418.684 100.107 418.388C99.9709 418.071 99.9073 417.777 99.916 417.506C99.9421 416.694 100.13 416.044 100.479 415.555C100.85 415.045 101.31 414.654 101.861 414.38C102.412 414.085 103.023 413.885 103.694 413.782C104.364 413.678 105.043 413.637 105.73 413.66C106.042 413.67 106.396 413.702 106.79 413.756C107.206 413.79 107.578 413.886 107.906 414.042C108.256 414.178 108.541 414.396 108.761 414.695C109.001 414.994 109.113 415.404 109.096 415.925C109.043 416.278 108.974 416.494 108.888 416.575C108.824 416.635 108.72 416.611 108.578 416.502C108.457 416.373 108.306 416.202 108.125 415.988C107.944 415.773 107.722 415.568 107.457 415.372C107.214 415.156 106.907 414.99 106.535 414.873C106.184 414.758 105.778 414.745 105.317 414.834C104.838 414.819 104.357 414.856 103.875 414.944C103.394 415.012 102.951 415.155 102.548 415.371C102.166 415.588 101.844 415.89 101.581 416.278C101.34 416.666 101.209 417.162 101.19 417.766C101.18 418.078 101.308 418.301 101.575 418.435C101.863 418.548 102.236 418.613 102.694 418.627C103.173 418.643 103.704 418.649 104.288 418.647C104.893 418.625 105.508 418.624 106.133 418.644C106.757 418.664 107.36 418.735 107.939 418.858C108.52 418.96 109.024 419.164 109.452 419.469C109.901 419.755 110.242 420.162 110.476 420.69C110.709 421.219 110.781 421.899 110.692 422.73C110.672 423.333 110.477 423.9 110.105 424.43C109.755 424.961 109.302 425.426 108.748 425.825C108.214 426.204 107.621 426.498 106.968 426.706C106.316 426.914 105.688 426.978 105.086 426.896C104.837 426.867 104.496 426.793 104.062 426.675C103.649 426.537 103.238 426.357 102.828 426.135C102.439 425.914 102.104 425.654 101.822 425.353C101.54 425.031 101.406 424.662 101.419 424.246ZM130.138 424.698C129.774 424.999 129.432 425.269 129.112 425.509C128.813 425.729 128.505 425.917 128.187 426.074C127.87 426.209 127.544 426.313 127.208 426.386C126.893 426.459 126.538 426.49 126.142 426.477C125.559 426.458 125.064 426.296 124.657 425.992C124.271 425.666 123.94 425.27 123.663 424.803C123.408 424.315 123.226 423.809 123.118 423.285C123.01 422.739 122.964 422.217 122.98 421.717C122.996 421.217 123.055 420.687 123.156 420.128C123.279 419.548 123.454 418.981 123.68 418.425C123.907 417.849 124.175 417.305 124.483 416.794C124.812 416.262 125.181 415.805 125.59 415.422C125.998 415.039 126.456 414.741 126.963 414.528C127.471 414.294 128.016 414.187 128.599 414.206C129.182 414.224 129.71 414.335 130.183 414.538C130.656 414.741 131.053 415.024 131.375 415.389C131.718 415.733 131.975 416.169 132.146 416.696C132.338 417.202 132.424 417.768 132.404 418.392C132.371 419.433 132.285 420.473 132.148 421.511C132.032 422.528 131.905 423.556 131.768 424.594C131.631 425.611 131.494 426.638 131.356 427.676C131.239 428.714 131.164 429.754 131.131 430.795C130.982 431.541 131.033 432.23 131.283 432.864C131.534 433.497 131.871 434.05 132.293 434.522C132.736 435.016 133.213 435.406 133.725 435.694C134.257 436.002 134.741 436.195 135.176 436.272C135.091 436.331 134.954 436.39 134.764 436.446C134.596 436.503 134.417 436.56 134.227 436.616C134.038 436.673 133.849 436.719 133.66 436.754C133.492 436.791 133.387 436.808 133.346 436.807C132.93 436.752 132.518 436.614 132.108 436.392C131.698 436.17 131.322 435.887 130.979 435.543C130.656 435.199 130.387 434.815 130.171 434.391C129.956 433.968 129.855 433.537 129.869 433.1L130.138 424.698ZM124.208 421.475C124.199 421.745 124.229 422.09 124.299 422.51C124.369 422.929 124.481 423.339 124.635 423.74C124.79 424.12 124.998 424.46 125.259 424.76C125.521 425.04 125.839 425.185 126.214 425.197C126.922 425.22 127.564 425.043 128.138 424.665C128.734 424.288 129.229 423.804 129.623 423.212C130.038 422.621 130.351 421.985 130.56 421.303C130.791 420.602 130.916 419.95 130.936 419.346C130.947 418.992 130.928 418.595 130.88 418.156C130.832 417.696 130.71 417.264 130.515 416.862C130.341 416.44 130.092 416.088 129.767 415.806C129.443 415.504 129.021 415.345 128.501 415.328C128.084 415.315 127.684 415.427 127.302 415.665C126.94 415.903 126.596 416.215 126.271 416.601C125.967 416.987 125.682 417.416 125.417 417.887C125.173 418.358 124.959 418.831 124.777 419.304C124.617 419.758 124.478 420.181 124.362 420.573C124.266 420.966 124.214 421.267 124.208 421.475ZM133.679 415.682C133.683 415.578 133.749 415.476 133.877 415.375C134.026 415.276 134.195 415.198 134.385 415.142C134.595 415.086 134.794 415.051 134.982 415.036C135.17 415.021 135.304 415.056 135.385 415.142C135.427 417.728 135.6 419.798 135.905 421.35C136.231 422.882 136.612 424.009 137.047 424.732C137.503 425.455 138.002 425.836 138.543 425.874C139.084 425.892 139.622 425.68 140.158 425.238C140.693 424.776 141.193 424.146 141.656 423.348C142.141 422.55 142.533 421.687 142.834 420.759C143.155 419.831 143.362 418.9 143.455 417.965C143.547 417.03 143.491 416.195 143.285 415.458L145.166 415.3C145.177 415.613 145.212 416.135 145.272 416.867C145.354 417.578 145.432 418.393 145.507 419.313C145.603 420.212 145.708 421.154 145.822 422.137C145.937 423.12 146.032 424.04 146.109 424.898C146.186 425.734 146.257 426.455 146.321 427.062C146.386 427.647 146.416 428.013 146.411 428.159L145.068 428.116L143.773 422.665C143.458 423.385 143.082 424.071 142.644 424.724C142.206 425.377 141.729 425.945 141.214 426.429C140.719 426.913 140.196 427.293 139.645 427.567C139.095 427.82 138.55 427.917 138.01 427.858C137.491 427.779 136.989 427.513 136.504 427.059C136.018 426.606 135.571 425.904 135.164 424.953C134.778 423.982 134.453 422.741 134.189 421.232C133.925 419.723 133.755 417.873 133.679 415.682ZM148.984 416.173C149.234 416.181 149.442 416.177 149.61 416.162C149.798 416.147 149.951 416.256 150.068 416.489C150.101 417.428 150.143 418.388 150.195 419.369C150.247 420.33 150.299 421.301 150.351 422.282C150.403 423.264 150.424 424.254 150.412 425.254C150.423 426.234 150.402 427.193 150.351 428.129C150.347 428.254 150.314 428.326 150.251 428.345C150.187 428.384 150.093 428.392 149.969 428.367C149.864 428.364 149.729 428.349 149.563 428.323C149.418 428.318 149.25 428.333 149.062 428.369L148.984 416.173ZM147.352 410.524C147.356 410.378 147.372 410.222 147.398 410.056C147.425 409.87 147.472 409.704 147.539 409.561C147.627 409.417 147.725 409.296 147.832 409.195C147.96 409.095 148.108 409.047 148.274 409.053C148.524 409.061 148.774 409.079 149.023 409.108C149.272 409.137 149.51 409.196 149.736 409.287C149.963 409.357 150.147 409.477 150.288 409.649C150.429 409.799 150.495 410.02 150.485 410.312C150.469 410.811 150.267 411.253 149.88 411.637C149.493 411.999 149.029 412.172 148.488 412.155C148.071 412.141 147.774 411.976 147.597 411.657C147.42 411.318 147.338 410.94 147.352 410.524ZM149.158 410.738C149.096 410.736 149.063 410.787 149.06 410.891C149.056 410.995 149.086 411.048 149.148 411.05C149.232 411.053 149.275 411.002 149.278 410.898C149.282 410.794 149.242 410.741 149.158 410.738ZM155.331 417.158C155.145 417.09 154.886 417.06 154.552 417.071C154.24 417.06 153.895 417.07 153.519 417.1C153.164 417.109 152.82 417.13 152.485 417.161C152.151 417.192 151.869 417.203 151.64 417.196C151.536 417.193 151.468 417.045 151.435 416.752C151.425 416.439 151.396 416.021 151.351 415.498L155.765 415.327C155.85 414.6 155.909 414.081 155.94 413.77C155.971 413.458 155.979 413.198 155.965 412.989C155.972 412.76 155.97 412.509 155.958 412.238C155.967 411.947 155.981 411.499 156.001 410.895C156.545 410.829 156.951 410.821 157.221 410.872C157.512 410.902 157.707 410.981 157.807 411.109C157.907 411.238 157.943 411.426 157.914 411.676C157.907 411.905 157.866 412.195 157.792 412.547C157.739 412.9 157.684 413.325 157.626 413.824C157.589 414.323 157.592 414.886 157.635 415.512L161.387 415.508L161.338 417.038C161.171 417.033 160.91 417.035 160.556 417.044C160.201 417.054 159.815 417.062 159.398 417.07C159.002 417.078 158.626 417.087 158.272 417.096C157.938 417.106 157.687 417.14 157.518 417.197C157.327 417.941 157.125 418.737 156.91 419.585C156.695 420.433 156.543 421.272 156.454 422.103C156.365 422.934 156.361 423.715 156.441 424.447C156.523 425.159 156.764 425.76 157.165 426.253C157.567 426.724 158.15 427.066 158.914 427.278C159.679 427.469 160.702 427.44 161.981 427.189C161.93 427.5 161.796 427.756 161.581 427.958C161.388 428.139 161.154 428.288 160.879 428.404C160.626 428.5 160.353 428.575 160.059 428.628C159.766 428.66 159.505 428.673 159.276 428.665C158.214 428.631 157.377 428.417 156.764 428.022C156.152 427.606 155.7 427.081 155.408 426.447C155.116 425.812 154.94 425.098 154.883 424.304C154.825 423.489 154.821 422.665 154.868 421.833C154.936 421.002 155.025 420.181 155.135 419.372C155.244 418.562 155.309 417.824 155.331 417.158ZM162.948 421.404C162.968 420.78 163.126 420.097 163.421 419.356C163.716 418.594 164.103 417.898 164.582 417.267C165.082 416.616 165.631 416.082 166.228 415.663C166.847 415.224 167.479 415.015 168.124 415.036C168.478 415.047 168.819 415.131 169.148 415.288C169.497 415.445 169.824 415.653 170.128 415.913C170.454 416.153 170.737 416.433 170.977 416.753C171.238 417.053 171.436 417.372 171.571 417.71C171.706 418.048 171.769 418.373 171.759 418.686C171.77 418.999 171.678 419.267 171.483 419.49L164.854 420.496C164.77 420.514 164.693 420.616 164.625 420.802C164.557 420.966 164.498 421.183 164.448 421.453C164.397 421.722 164.346 422.023 164.294 422.354C164.263 422.666 164.232 422.978 164.201 423.289C164.171 423.58 164.152 423.851 164.144 424.1C164.137 424.329 164.131 424.506 164.127 424.631C164.108 425.214 164.228 425.698 164.487 426.081C164.767 426.445 165.123 426.727 165.554 426.928C165.985 427.13 166.47 427.27 167.01 427.35C167.57 427.431 168.121 427.48 168.662 427.497C169.204 427.514 169.714 427.51 170.195 427.484C170.675 427.457 171.071 427.449 171.384 427.459C171.381 427.543 171.347 427.635 171.281 427.737C171.215 427.84 171.139 427.941 171.052 428.043C170.966 428.123 170.88 428.204 170.794 428.285C170.709 428.344 170.656 428.384 170.634 428.405C170.466 428.441 170.204 428.495 169.847 428.567C169.512 428.619 169.146 428.669 168.748 428.719C168.371 428.77 168.016 428.81 167.681 428.841C167.347 428.872 167.117 428.886 166.992 428.882C166.343 428.986 165.781 428.958 165.306 428.796C164.832 428.635 164.434 428.372 164.112 428.008C163.791 427.643 163.534 427.207 163.341 426.701C163.15 426.174 163.011 425.617 162.926 425.031C162.841 424.444 162.797 423.838 162.797 423.213C162.817 422.588 162.867 421.986 162.948 421.404ZM167.649 416.209C167.461 416.203 167.208 416.299 166.889 416.497C166.592 416.675 166.302 416.916 166.022 417.22C165.762 417.503 165.533 417.819 165.335 418.167C165.157 418.495 165.096 418.784 165.151 419.036C165.69 419.116 166.252 419.124 166.838 419.059C167.424 418.995 167.959 418.887 168.443 418.736C168.928 418.563 169.33 418.368 169.65 418.149C169.97 417.909 170.124 417.664 170.111 417.413C170.119 417.163 169.929 416.938 169.539 416.738C169.171 416.518 168.541 416.342 167.649 416.209ZM185.982 408.042L186.466 418.313C186.616 418.193 186.809 418.012 187.046 417.769C187.283 417.527 187.561 417.306 187.88 417.108C188.2 416.889 188.55 416.713 188.929 416.579C189.309 416.424 189.718 416.364 190.154 416.399C191.005 416.51 191.671 416.875 192.151 417.495C192.653 418.116 193.014 418.867 193.236 419.75C193.478 420.633 193.625 421.597 193.675 422.64C193.725 423.663 193.715 424.643 193.643 425.578C193.592 426.515 193.513 427.346 193.407 428.072C193.321 428.799 193.253 429.297 193.202 429.566L192.083 429.374C192.089 429.187 192.098 428.895 192.111 428.499C192.145 428.084 192.181 427.605 192.22 427.065C192.258 426.503 192.287 425.92 192.307 425.317C192.326 424.713 192.344 424.151 192.361 423.63C192.399 423.089 192.415 422.61 192.407 422.193C192.42 421.777 192.419 421.485 192.404 421.318C192.443 420.735 192.347 420.169 192.114 419.62C191.882 419.071 191.562 418.654 191.154 418.37C190.747 418.065 190.25 417.955 189.664 418.041C189.078 418.105 188.44 418.491 187.751 419.199C187.14 420.054 186.685 420.905 186.387 421.75C186.09 422.574 185.886 423.401 185.776 424.232C185.666 425.041 185.608 425.883 185.601 426.759C185.594 427.613 185.565 428.519 185.514 429.476L184.302 429.249C184.371 429.022 184.426 428.607 184.467 428.004C184.528 427.381 184.583 426.643 184.631 425.789C184.68 424.916 184.722 423.948 184.756 422.886C184.811 421.824 184.846 420.731 184.861 419.606C184.898 418.461 184.924 417.315 184.94 416.169C184.956 415.024 184.96 413.929 184.952 412.887C184.964 411.845 184.964 410.886 184.95 410.01C184.957 409.135 184.96 408.416 184.957 407.853L185.982 408.042ZM196.178 417.687C196.428 417.695 196.637 417.691 196.804 417.676C196.992 417.661 197.145 417.77 197.263 418.003C197.295 418.942 197.337 419.902 197.389 420.884C197.442 421.844 197.494 422.815 197.546 423.796C197.598 424.778 197.618 425.768 197.607 426.769C197.617 427.749 197.597 428.707 197.546 429.643C197.542 429.768 197.508 429.84 197.445 429.859C197.381 429.898 197.287 429.906 197.163 429.881C197.059 429.878 196.924 429.863 196.758 429.837C196.612 429.832 196.445 429.847 196.256 429.883L196.178 417.687ZM194.546 412.038C194.551 411.892 194.566 411.736 194.593 411.57C194.619 411.384 194.666 411.218 194.734 411.075C194.821 410.932 194.919 410.81 195.027 410.709C195.155 410.609 195.302 410.561 195.469 410.567C195.719 410.575 195.968 410.593 196.218 410.622C196.467 410.651 196.705 410.711 196.931 410.801C197.158 410.871 197.342 410.992 197.482 411.163C197.623 411.313 197.689 411.534 197.68 411.826C197.664 412.325 197.462 412.767 197.074 413.151C196.688 413.514 196.223 413.686 195.682 413.669C195.266 413.655 194.969 413.49 194.791 413.171C194.615 412.832 194.533 412.454 194.546 412.038ZM196.353 412.252C196.29 412.25 196.257 412.301 196.254 412.405C196.251 412.509 196.28 412.562 196.343 412.564C196.426 412.567 196.469 412.516 196.473 412.412C196.476 412.308 196.436 412.255 196.353 412.252ZM193.678 437.148C193.696 436.586 193.804 436.162 194 435.876C194.197 435.591 194.639 435.459 195.326 435.481C195.254 435.771 195.172 436.06 195.08 436.349C194.966 436.637 194.874 436.905 194.804 437.153C194.712 437.4 194.675 437.597 194.691 437.743C194.686 437.889 194.757 437.943 194.904 437.906C195.557 438.365 196.276 438.701 197.061 438.914C197.846 439.126 198.624 439.245 199.394 439.27C200.561 439.286 201.568 439.079 202.416 438.648C203.284 438.217 204.001 437.646 204.566 436.934C205.151 436.224 205.605 435.394 205.927 434.446C206.27 433.519 206.489 432.546 206.584 431.528C206.699 430.531 206.711 429.52 206.619 428.496C206.526 427.472 206.359 426.528 206.115 425.666C205.749 426.05 205.371 426.455 204.982 426.88C204.614 427.306 204.216 427.689 203.788 428.03C203.361 428.35 202.904 428.616 202.418 428.83C201.953 429.044 201.428 429.142 200.845 429.124C200.242 429.104 199.787 428.985 199.481 428.767C199.196 428.55 199.008 428.262 198.915 427.905C198.823 427.527 198.784 427.098 198.8 426.619C198.836 426.141 198.863 425.631 198.88 425.09C198.896 424.59 198.924 424.028 198.965 423.404C199.027 422.781 199.12 422.158 199.244 421.537C199.39 420.896 199.566 420.276 199.773 419.678C200.001 419.06 200.289 418.517 200.638 418.049C200.987 417.56 201.416 417.177 201.925 416.902C202.434 416.626 203.033 416.5 203.72 416.522C204.157 416.536 204.572 416.591 204.965 416.687C205.38 416.763 205.75 416.9 206.077 417.098C206.425 417.296 206.719 417.556 206.959 417.876C207.199 418.197 207.384 418.599 207.515 419.082C207.568 420.022 207.639 421.046 207.729 422.153C207.819 423.24 207.887 424.378 207.932 425.568C207.978 426.736 207.982 427.914 207.944 429.101C207.905 430.288 207.785 431.431 207.583 432.529C207.402 433.628 207.109 434.65 206.703 435.596C206.318 436.563 205.78 437.401 205.091 438.108C204.421 438.837 203.59 439.404 202.597 439.81C201.604 440.237 200.42 440.449 199.044 440.447C198.461 440.428 197.848 440.367 197.205 440.263C196.562 440.179 195.973 440.015 195.439 439.768C194.904 439.543 194.477 439.216 194.157 438.789C193.816 438.382 193.656 437.835 193.678 437.148ZM200.067 425.128C200.06 425.357 200.041 425.617 200.011 425.908C199.98 426.199 199.981 426.49 200.014 426.783C200.046 427.076 200.121 427.329 200.24 427.541C200.379 427.754 200.604 427.876 200.916 427.906C201.415 427.923 201.877 427.823 202.301 427.607C202.746 427.392 203.141 427.092 203.487 426.707C203.853 426.323 204.169 425.895 204.435 425.424C204.721 424.933 204.956 424.43 205.14 423.915C205.344 423.4 205.495 422.905 205.594 422.429C205.714 421.932 205.78 421.497 205.792 421.122C205.867 420.728 205.88 420.333 205.83 419.935C205.801 419.538 205.698 419.18 205.521 418.862C205.343 418.544 205.101 418.286 204.795 418.088C204.489 417.87 204.118 417.754 203.681 417.74C203.181 417.724 202.739 417.856 202.355 418.135C201.971 418.394 201.648 418.738 201.384 419.167C201.12 419.596 200.906 420.09 200.742 420.647C200.579 421.184 200.447 421.732 200.345 422.292C200.266 422.831 200.197 423.36 200.138 423.879C200.101 424.379 200.078 424.795 200.067 425.128ZM210.876 408.841L211.359 419.112C211.509 418.992 211.703 418.81 211.94 418.568C212.177 418.325 212.455 418.105 212.774 417.907C213.093 417.688 213.443 417.511 213.822 417.377C214.203 417.223 214.611 417.163 215.048 417.198C215.899 417.309 216.564 417.674 217.045 418.294C217.546 418.914 217.907 419.666 218.129 420.548C218.372 421.432 218.518 422.395 218.568 423.439C218.619 424.462 218.608 425.441 218.536 426.377C218.485 427.313 218.407 428.145 218.3 428.871C218.214 429.597 218.146 430.096 218.096 430.365L216.976 430.173C216.982 429.985 216.992 429.694 217.004 429.298C217.039 428.882 217.075 428.404 217.113 427.863C217.152 427.302 217.181 426.719 217.2 426.115C217.22 425.511 217.238 424.949 217.254 424.429C217.293 423.888 217.308 423.409 217.3 422.992C217.314 422.575 217.313 422.284 217.297 422.116C217.337 421.534 217.24 420.968 217.008 420.419C216.775 419.869 216.455 419.452 216.047 419.168C215.64 418.864 215.144 418.754 214.557 418.839C213.972 418.904 213.334 419.29 212.644 419.997C212.033 420.853 211.578 421.704 211.28 422.549C210.983 423.373 210.779 424.2 210.669 425.03C210.56 425.84 210.502 426.682 210.494 427.557C210.488 428.412 210.459 429.317 210.407 430.275L209.195 430.048C209.265 429.821 209.32 429.406 209.36 428.803C209.422 428.179 209.477 427.441 209.525 426.588C209.574 425.714 209.615 424.746 209.649 423.684C209.704 422.623 209.739 421.53 209.755 420.405C209.791 419.26 209.818 418.114 209.834 416.968C209.849 415.822 209.853 414.728 209.845 413.685C209.858 412.644 209.857 411.685 209.844 410.809C209.851 409.934 209.853 409.215 209.85 408.652L210.876 408.841Z" fill="#1E1E1E"/>
<path d="M132.915 280.61C132.648 280.538 132.374 280.695 132.301 280.961L131.12 285.304C131.048 285.57 131.205 285.845 131.472 285.917C131.738 285.99 132.013 285.832 132.085 285.566L133.135 281.706L136.995 282.756C137.261 282.828 137.536 282.671 137.608 282.404C137.681 282.138 137.524 281.863 137.257 281.791L132.915 280.61ZM110.912 354.769C119.083 350.246 130.001 341.134 136.21 328.465C142.434 315.765 143.911 299.523 133.218 280.844L132.35 281.341C142.872 299.721 141.396 315.612 135.312 328.024C129.214 340.467 118.467 349.445 110.428 353.894L110.912 354.769Z" fill="#D35357"/>
</svg>
