<svg width="513" height="706" viewBox="0 0 513 706" fill="none" xmlns="http://www.w3.org/2000/svg">
<path d="M447.037 386.079L448.004 385.172L457.462 403.203L461.494 384.729L462.494 384.761L458.396 406.235L457.622 406.991L447.037 386.079ZM464.451 394.891C464.701 394.899 464.909 394.896 465.077 394.88C465.265 394.865 465.417 394.975 465.535 395.208C465.567 396.147 465.61 397.107 465.661 398.088C465.714 399.049 465.766 400.02 465.818 401.001C465.87 401.982 465.89 402.973 465.879 403.973C465.889 404.953 465.869 405.911 465.818 406.848C465.814 406.973 465.78 407.044 465.717 407.063C465.653 407.103 465.559 407.11 465.435 407.085C465.331 407.082 465.196 407.067 465.03 407.041C464.884 407.037 464.717 407.052 464.528 407.088L464.451 394.891ZM462.819 389.243C462.824 389.097 462.839 388.941 462.865 388.775C462.892 388.588 462.939 388.423 463.006 388.279C463.094 388.136 463.192 388.014 463.299 387.913C463.428 387.813 463.575 387.766 463.742 387.771C463.991 387.779 464.241 387.798 464.49 387.827C464.739 387.855 464.977 387.915 465.204 388.006C465.431 388.076 465.614 388.196 465.755 388.367C465.896 388.518 465.962 388.739 465.952 389.03C465.936 389.53 465.734 389.972 465.347 390.355C464.96 390.718 464.496 390.891 463.955 390.873C463.538 390.86 463.241 390.694 463.064 390.376C462.887 390.037 462.805 389.659 462.819 389.243ZM464.625 389.457C464.563 389.455 464.53 389.506 464.527 389.61C464.523 389.714 464.553 389.767 464.615 389.769C464.699 389.772 464.742 389.721 464.745 389.617C464.749 389.513 464.709 389.459 464.625 389.457ZM467.774 406.285C467.768 405.847 467.737 405.179 467.682 404.281C467.649 403.363 467.609 402.34 467.562 401.213C467.516 400.065 467.471 398.855 467.429 397.582C467.386 396.309 467.341 395.109 467.294 393.982C467.268 392.835 467.239 391.813 467.205 390.915C467.172 389.997 467.152 389.319 467.145 388.881C467.13 388.693 467.12 388.369 467.114 387.911C467.129 387.432 467.135 386.932 467.131 386.41C467.127 385.868 467.122 385.368 467.116 384.909C467.132 384.43 467.142 384.097 467.148 383.91C467.44 383.919 467.698 383.99 467.923 384.122C468.149 384.234 468.33 384.427 468.467 384.702C468.495 385.141 468.517 385.767 468.532 386.58C468.569 387.374 468.602 388.292 468.631 389.335C468.66 390.378 468.687 391.494 468.711 392.683C468.757 393.873 468.792 395.051 468.817 396.219C468.883 396.117 468.948 396.026 469.013 395.944C469.078 395.863 469.122 395.812 469.143 395.792C469.38 395.55 469.66 395.267 469.983 394.944C470.306 394.621 470.64 394.287 470.985 393.944C471.35 393.601 471.705 393.269 472.048 392.946C472.414 392.604 472.736 392.301 473.016 392.039C473.316 391.757 473.563 391.536 473.756 391.375C473.949 391.215 474.066 391.135 474.108 391.136L475.275 391.768C474.911 392.069 474.494 392.42 474.022 392.822C473.551 393.224 473.089 393.657 472.636 394.122C472.184 394.566 471.741 395.042 471.308 395.549C470.897 396.036 470.558 396.525 470.292 397.017C470.291 397.038 470.279 397.09 470.256 397.172C470.254 397.235 470.252 397.287 470.251 397.328C470.25 397.349 470.248 397.401 470.246 397.485C470.264 397.548 470.274 397.59 470.273 397.611L477.218 406.244C477.217 406.265 477.216 406.306 477.214 406.369C477.233 406.432 477.242 406.484 477.24 406.526C477.228 406.922 477.01 407.217 476.587 407.412L469.067 398.166C469.047 398.145 469.017 398.112 468.976 398.069C468.957 398.006 468.928 397.943 468.889 397.879L469.038 403.949C469.034 404.053 469.028 404.251 469.019 404.543C469.03 404.835 469.03 405.158 469.019 405.512C469.029 405.846 469.029 406.169 469.019 406.481C469.03 406.773 469.034 406.972 469.031 407.076C468.76 407.067 468.512 407.007 468.286 406.895C468.061 406.763 467.891 406.56 467.774 406.285ZM478.266 404.777C478.304 403.59 478.654 402.736 479.317 402.215C480.001 401.695 480.874 401.452 481.936 401.486C482.352 401.5 482.737 401.522 483.09 401.555C483.465 401.587 483.817 401.651 484.147 401.745C484.478 401.839 484.797 401.974 485.104 402.151C485.431 402.328 485.767 402.578 486.111 402.902C486.113 402.84 486.117 402.715 486.123 402.527C486.151 402.32 486.168 402.101 486.176 401.872C486.183 401.643 486.19 401.435 486.196 401.248C486.202 401.039 486.207 400.894 486.21 400.81C486.201 400.435 486.206 399.956 486.225 399.373C486.244 398.769 486.212 398.153 486.128 397.525C486.064 396.897 485.896 396.298 485.623 395.726C485.37 395.155 484.936 394.714 484.321 394.403C483.883 394.389 483.475 394.449 483.095 394.582C482.716 394.716 482.336 394.86 481.956 395.015C481.576 395.169 481.196 395.314 480.816 395.447C480.438 395.56 480.03 395.61 479.592 395.596C479.609 395.075 479.779 394.653 480.102 394.33C480.447 393.987 480.851 393.729 481.315 393.556C481.779 393.383 482.262 393.274 482.764 393.227C483.265 393.181 483.704 393.164 484.079 393.176C484.451 393.25 484.793 393.334 485.102 393.427C485.433 393.521 485.729 393.698 485.992 393.956C486.276 394.215 486.523 394.609 486.736 395.137C486.97 395.644 487.155 396.359 487.292 397.281C487.45 398.203 487.569 399.374 487.648 400.794C487.749 402.194 487.809 403.915 487.827 405.958C487.859 406.231 487.758 406.467 487.522 406.668C487.308 406.849 487.011 407.006 486.632 407.14C486.253 407.252 485.822 407.353 485.34 407.442C484.879 407.511 484.409 407.558 483.929 407.584C483.448 407.611 482.989 407.627 482.551 407.634C482.113 407.641 481.749 407.64 481.457 407.63C481.082 407.618 480.699 407.543 480.307 407.406C479.937 407.269 479.588 407.081 479.263 406.841C478.958 406.581 478.707 406.281 478.51 405.941C478.334 405.581 478.252 405.193 478.266 404.777ZM482.396 402.72C481.346 402.979 480.606 403.309 480.176 403.712C479.747 404.095 479.547 404.474 479.577 404.85C479.627 405.227 479.866 405.578 480.293 405.905C480.721 406.21 481.246 406.425 481.867 406.549C482.489 406.652 483.167 406.622 483.902 406.458C484.638 406.273 485.348 405.9 486.033 405.338C485.803 404.726 485.567 404.26 485.328 403.94C485.088 403.599 484.826 403.34 484.539 403.164C484.253 402.988 483.934 402.874 483.581 402.821C483.229 402.768 482.834 402.734 482.396 402.72Z" fill="#88B1D5"/>
<path d="M430.965 364.136C430.751 364.311 430.72 364.626 430.895 364.84L433.745 368.322C433.92 368.536 434.235 368.567 434.448 368.392C434.662 368.218 434.693 367.903 434.519 367.689L431.985 364.593L435.081 362.06C435.295 361.885 435.326 361.57 435.151 361.356C434.976 361.143 434.661 361.111 434.448 361.286L430.965 364.136ZM457.554 384.027C456.396 378.05 449.512 365.842 431.331 364.025L431.232 365.02C448.921 366.788 455.488 378.621 456.572 384.217L457.554 384.027Z" fill="#88B1D5"/>
<path d="M105.677 614.511C105.682 614.345 105.691 614.053 105.705 613.637C105.719 613.2 105.734 612.742 105.749 612.263C105.764 611.784 105.779 611.336 105.792 610.92C105.827 610.483 105.847 610.181 105.852 610.015L106.696 610.042C106.696 610.042 106.699 610.261 106.706 610.699C106.713 611.116 106.716 611.689 106.713 612.419C106.732 613.128 106.747 613.973 106.757 614.953C106.768 615.912 106.776 616.944 106.782 618.049C106.81 619.134 106.826 620.26 106.83 621.427C106.856 622.574 106.872 623.7 106.878 624.805C106.906 625.89 106.925 626.922 106.935 627.902C106.945 628.882 106.96 629.737 106.978 630.468C106.977 630.488 106.975 630.561 106.971 630.686C106.967 630.79 106.953 630.925 106.926 631.091C106.922 631.237 106.907 631.372 106.882 631.496C106.878 631.621 106.875 631.715 106.873 631.777C106.867 631.965 106.852 632.121 106.827 632.245C106.824 632.349 106.779 632.441 106.693 632.522C106.628 632.603 106.501 632.672 106.311 632.729C106.143 632.765 105.913 632.799 105.62 632.832C105.608 632.56 105.594 632.018 105.578 631.204C105.564 630.37 105.543 629.39 105.517 628.263C105.511 627.138 105.508 625.918 105.509 624.605C105.509 623.292 105.509 622.01 105.507 620.759C105.527 619.509 105.544 618.332 105.558 617.228C105.573 616.124 105.612 615.218 105.677 614.511ZM113.784 623.964C113.213 622.924 112.61 622.206 111.977 621.811C111.344 621.395 110.725 621.187 110.121 621.189C109.537 621.191 108.99 621.35 108.48 621.667C107.969 621.985 107.552 622.326 107.228 622.69L107.27 621.379L116.039 610.216L117.226 610.254L110.326 619.663C110.678 619.758 111.099 619.948 111.59 620.235C112.082 620.501 112.561 620.808 113.03 621.157C113.498 621.505 113.913 621.883 114.275 622.291C114.659 622.678 114.907 623.051 115.021 623.409L117.726 632.657C117.601 632.653 117.475 632.67 117.349 632.707C117.243 632.746 117.127 632.784 117.001 632.821C116.896 632.839 116.792 632.835 116.689 632.811C116.606 632.788 116.546 632.723 116.507 632.618L113.784 623.964ZM119.078 630.449C119.116 629.262 119.467 628.408 120.13 627.888C120.814 627.368 121.686 627.125 122.748 627.159C123.165 627.172 123.55 627.195 123.903 627.227C124.277 627.26 124.629 627.323 124.96 627.417C125.29 627.511 125.609 627.646 125.916 627.823C126.244 628 126.58 628.251 126.924 628.574C126.926 628.512 126.93 628.387 126.936 628.2C126.963 627.992 126.981 627.774 126.988 627.545C126.995 627.316 127.002 627.107 127.008 626.92C127.015 626.712 127.02 626.566 127.022 626.483C127.013 626.107 127.018 625.628 127.037 625.045C127.057 624.441 127.024 623.825 126.94 623.197C126.877 622.57 126.709 621.97 126.435 621.399C126.182 620.828 125.748 620.387 125.133 620.075C124.696 620.061 124.288 620.121 123.908 620.255C123.529 620.389 123.149 620.533 122.769 620.687C122.388 620.842 122.009 620.986 121.629 621.12C121.25 621.233 120.842 621.282 120.405 621.268C120.422 620.747 120.592 620.326 120.915 620.002C121.259 619.659 121.663 619.401 122.128 619.228C122.592 619.056 123.075 618.946 123.576 618.9C124.078 618.853 124.516 618.836 124.891 618.848C125.264 618.923 125.605 619.006 125.915 619.1C126.245 619.194 126.542 619.37 126.805 619.628C127.088 619.888 127.336 620.281 127.548 620.809C127.782 621.317 127.968 622.032 128.105 622.953C128.263 623.875 128.382 625.046 128.461 626.466C128.562 627.866 128.621 629.588 128.639 631.631C128.672 631.903 128.571 632.139 128.335 632.34C128.121 632.521 127.824 632.678 127.444 632.812C127.066 632.925 126.635 633.026 126.153 633.115C125.692 633.183 125.221 633.231 124.741 633.257C124.261 633.283 123.802 633.3 123.364 633.307C122.926 633.313 122.561 633.312 122.27 633.303C121.895 633.291 121.512 633.216 121.12 633.078C120.749 632.941 120.401 632.753 120.075 632.513C119.771 632.253 119.52 631.954 119.322 631.614C119.146 631.254 119.065 630.865 119.078 630.449ZM123.209 628.393C122.158 628.651 121.418 628.982 120.989 629.385C120.559 629.767 120.36 630.146 120.389 630.522C120.44 630.899 120.678 631.251 121.106 631.577C121.534 631.883 122.058 632.097 122.68 632.222C123.302 632.325 123.98 632.294 124.715 632.13C125.45 631.946 126.161 631.572 126.846 631.011C126.615 630.399 126.38 629.933 126.14 629.612C125.901 629.271 125.638 629.013 125.352 628.837C125.066 628.661 124.747 628.546 124.394 628.493C124.041 628.44 123.646 628.407 123.209 628.393ZM129.503 621.278C129.756 621.182 129.976 621.168 130.161 621.237C130.346 621.305 130.499 621.425 130.618 621.595C130.738 621.766 130.825 621.967 130.88 622.198C130.936 622.408 130.982 622.618 131.017 622.828C131.302 622.378 131.699 622.026 132.207 621.771C132.737 621.497 133.295 621.327 133.881 621.262C134.467 621.177 135.051 621.175 135.632 621.256C136.214 621.316 136.699 621.457 137.088 621.678C137.498 621.878 137.781 622.159 137.936 622.518C138.092 622.856 138.038 623.251 137.773 623.701C137.242 623.371 136.677 623.103 136.08 622.896C135.503 622.69 134.932 622.609 134.368 622.654C133.803 622.698 133.276 622.9 132.785 623.259C132.295 623.598 131.881 624.158 131.543 624.939C131.205 625.721 130.974 626.766 130.848 628.075C130.744 629.364 130.786 630.981 130.974 632.925L129.787 632.887C129.787 632.887 129.771 632.72 129.74 632.385C129.731 632.031 129.714 631.572 129.691 631.008C129.688 630.445 129.667 629.819 129.626 629.13C129.607 628.442 129.587 627.743 129.568 627.033C129.549 626.324 129.53 625.646 129.509 624.999C129.509 624.332 129.496 623.759 129.47 623.278C129.472 623.216 129.466 623.091 129.451 622.902C129.457 622.715 129.463 622.517 129.47 622.309C129.477 622.08 129.484 621.872 129.49 621.684C129.496 621.497 129.5 621.362 129.503 621.278ZM140.246 621.685C140.495 621.693 140.704 621.689 140.871 621.674C141.059 621.659 141.212 621.768 141.33 622.001C141.362 622.94 141.404 623.9 141.456 624.882C141.509 625.842 141.561 626.813 141.613 627.795C141.665 628.776 141.685 629.767 141.674 630.767C141.684 631.747 141.663 632.705 141.613 633.641C141.609 633.766 141.575 633.838 141.512 633.857C141.448 633.897 141.354 633.904 141.23 633.879C141.126 633.876 140.991 633.861 140.825 633.835C140.679 633.83 140.512 633.846 140.323 633.881L140.246 621.685ZM138.613 616.036C138.618 615.89 138.634 615.735 138.66 615.569C138.687 615.382 138.734 615.217 138.801 615.073C138.889 614.93 138.986 614.808 139.094 614.707C139.222 614.607 139.37 614.56 139.536 614.565C139.786 614.573 140.036 614.591 140.285 614.62C140.534 614.649 140.772 614.709 140.998 614.799C141.225 614.869 141.409 614.99 141.549 615.161C141.69 615.311 141.756 615.532 141.747 615.824C141.731 616.324 141.529 616.765 141.142 617.149C140.755 617.512 140.291 617.685 139.749 617.667C139.333 617.654 139.036 617.488 138.858 617.17C138.682 616.83 138.6 616.453 138.613 616.036ZM140.42 616.25C140.358 616.248 140.325 616.299 140.321 616.404C140.318 616.508 140.348 616.561 140.41 616.563C140.493 616.565 140.537 616.515 140.54 616.411C140.543 616.307 140.503 616.253 140.42 616.25ZM142.86 633.744C142.829 633.409 142.803 632.929 142.781 632.303C142.781 631.657 142.773 630.938 142.757 630.145C142.762 629.332 142.768 628.488 142.775 627.613C142.783 626.738 142.789 625.904 142.793 625.112C142.798 624.32 142.789 623.611 142.768 622.985C142.768 622.339 142.742 621.849 142.69 621.513C142.69 621.493 142.682 621.44 142.664 621.356C142.666 621.273 142.659 621.179 142.641 621.074C142.645 620.97 142.647 620.887 142.649 620.824C142.652 620.741 142.654 620.678 142.655 620.637C142.976 620.397 143.239 620.322 143.444 620.412C143.671 620.503 143.852 620.696 143.988 620.992C144.126 621.268 144.219 621.614 144.268 622.033C144.317 622.451 144.345 622.869 144.353 623.286C144.381 623.704 144.389 624.09 144.378 624.444C144.367 624.777 144.359 625.017 144.355 625.162C144.408 624.81 144.484 624.395 144.582 623.919C144.681 623.443 144.822 622.957 145.004 622.463C145.187 621.969 145.4 621.486 145.645 621.014C145.911 620.522 146.227 620.095 146.593 619.731C146.959 619.368 147.364 619.089 147.808 618.895C148.273 618.701 148.796 618.635 149.377 618.695C150.292 618.766 151.034 619.04 151.602 619.517C152.191 619.994 152.64 620.623 152.949 621.404C153.278 622.186 153.499 623.079 153.613 624.083C153.747 625.088 153.817 626.153 153.823 627.279C153.849 628.406 153.833 629.552 153.775 630.717C153.718 631.862 153.672 632.965 153.638 634.027C153.449 634.062 153.259 634.129 153.068 634.227C152.878 634.305 152.721 634.331 152.597 634.306C152.472 634.302 152.381 634.216 152.324 634.047C152.288 633.858 152.32 633.505 152.42 632.987C152.453 632.613 152.503 632.041 152.569 631.272C152.657 630.483 152.706 629.609 152.716 628.651C152.747 627.693 152.726 626.702 152.655 625.678C152.584 624.655 152.416 623.722 152.151 622.88C151.908 622.017 151.534 621.317 151.03 620.78C150.527 620.222 149.859 619.93 149.026 619.903C148.161 620.23 147.421 620.873 146.807 621.833C146.213 622.794 145.718 623.924 145.322 625.225C144.947 626.526 144.651 627.944 144.435 629.48C144.24 630.995 144.109 632.481 144.042 633.938C144.001 633.916 143.918 633.903 143.793 633.899C143.689 633.895 143.564 633.891 143.418 633.887C143.294 633.862 143.17 633.837 143.045 633.812C142.942 633.788 142.88 633.765 142.86 633.744ZM154.623 631.588C154.661 630.401 155.011 629.548 155.674 629.027C156.358 628.507 157.231 628.264 158.293 628.298C158.709 628.311 159.094 628.334 159.447 628.366C159.821 628.399 160.174 628.462 160.504 628.556C160.835 628.65 161.153 628.786 161.46 628.962C161.788 629.14 162.124 629.39 162.468 629.714C162.47 629.651 162.474 629.526 162.48 629.339C162.508 629.131 162.525 628.913 162.532 628.684C162.54 628.455 162.546 628.247 162.552 628.059C162.559 627.851 162.564 627.705 162.566 627.622C162.558 627.247 162.563 626.767 162.581 626.184C162.601 625.58 162.568 624.964 162.484 624.336C162.421 623.709 162.253 623.11 161.979 622.538C161.727 621.967 161.293 621.526 160.677 621.214C160.24 621.2 159.832 621.26 159.452 621.394C159.073 621.528 158.693 621.672 158.313 621.827C157.933 621.981 157.553 622.125 157.173 622.259C156.795 622.372 156.386 622.421 155.949 622.407C155.966 621.887 156.136 621.465 156.459 621.142C156.803 620.798 157.208 620.54 157.672 620.368C158.136 620.195 158.619 620.085 159.121 620.039C159.622 619.993 160.061 619.975 160.435 619.987C160.808 620.062 161.149 620.146 161.459 620.239C161.79 620.333 162.086 620.509 162.349 620.768C162.632 621.027 162.88 621.421 163.093 621.948C163.326 622.456 163.512 623.171 163.649 624.092C163.807 625.015 163.926 626.186 164.005 627.606C164.106 629.005 164.166 630.727 164.183 632.77C164.216 633.042 164.115 633.279 163.879 633.48C163.665 633.66 163.368 633.818 162.989 633.951C162.61 634.064 162.179 634.165 161.697 634.254C161.236 634.322 160.766 634.37 160.285 634.396C159.805 634.422 159.346 634.439 158.908 634.446C158.47 634.453 158.105 634.451 157.814 634.442C157.439 634.43 157.056 634.355 156.664 634.218C156.293 634.081 155.945 633.892 155.619 633.653C155.315 633.393 155.064 633.093 154.867 632.753C154.691 632.393 154.609 632.005 154.623 631.588ZM158.753 629.532C157.703 629.79 156.963 630.121 156.533 630.524C156.104 630.906 155.904 631.285 155.933 631.662C155.984 632.038 156.223 632.39 156.65 632.716C157.078 633.022 157.602 633.237 158.224 633.361C158.846 633.464 159.524 633.434 160.259 633.27C160.995 633.085 161.705 632.712 162.39 632.15C162.159 631.538 161.924 631.072 161.684 630.752C161.445 630.41 161.182 630.152 160.896 629.976C160.61 629.8 160.291 629.686 159.938 629.633C159.585 629.58 159.19 629.546 158.753 629.532Z" fill="#88B1D5"/>
<path d="M191.719 587.003C191.933 587.178 191.964 587.493 191.789 587.707L188.939 591.19C188.765 591.403 188.45 591.435 188.236 591.26C188.022 591.085 187.991 590.77 188.166 590.556L190.699 587.461L187.603 584.927C187.389 584.753 187.358 584.438 187.533 584.224C187.708 584.01 188.023 583.979 188.236 584.154L191.719 587.003ZM165.13 606.894C166.288 600.918 173.172 588.709 191.353 586.893L191.452 587.888C173.763 589.655 167.196 601.488 166.112 607.084L165.13 606.894Z" fill="#88B1D5"/>
<path d="M251.258 470.567C251.258 470.567 255.478 516.283 250.48 541.775C250.48 541.775 275.971 545.273 278.47 549.272L279.97 539.275C274.972 537.776 270.473 535.777 265.475 532.778C265.975 517.783 267.887 497.551 269.887 477.558L251.258 470.567Z" fill="white"/>
<path d="M267.275 394.692L268.807 380.932L250.781 357.204L248.282 348.707C248.282 348.707 234.287 343.209 233.287 343.709C232.287 344.209 236.786 377.198 239.285 378.697C241.284 379.697 267.275 394.692 267.275 394.692Z" fill="white"/>
<path d="M192.802 268.735C192.802 268.735 192.802 334.212 187.304 362.703C181.805 391.193 176.807 509.652 183.805 540.142C183.805 540.142 169.81 538.142 162.312 546.639L169.31 429.18L147.317 422.182C151.816 404.688 162.812 378.197 165.311 360.204C167.81 330.714 161.812 303.223 174.808 283.73C177.807 278.732 187.304 274.233 193.302 267.735L192.802 268.735Z" fill="white"/>
<path d="M248.283 263.736C248.283 263.736 276.552 269.08 278.551 306.567L271.775 347.208L261.213 338.204C261.213 338.204 259.085 337.606 256.086 333.608C253.087 330.109 251.226 318.123 243.256 312.057C238.224 309.492 236.183 308.413 236.183 308.413C236.183 308.413 236.275 304.922 237.15 298.685C238.188 291.283 240.552 279.864 248.283 263.736Z" fill="white"/>
<path d="M236.285 307.221C237.785 288.728 237.785 289.228 247.281 263.736" stroke="#1E1E1E" stroke-miterlimit="10" stroke-linecap="round" stroke-linejoin="round"/>
<path d="M251.258 471.521C251.258 471.521 255.289 516.15 250.291 541.641C250.291 541.641 275.782 545.14 278.281 549.138C278.281 549.138 279.706 540.794 279.706 539.794" stroke="#1E1E1E" stroke-miterlimit="10" stroke-linecap="round" stroke-linejoin="round"/>
<path d="M275.272 350.707C271.773 343.71 261.777 334.713 261.777 334.713C261.777 334.713 261.508 339.287 259.436 348.166C257.364 357.046 253.779 359.704 253.779 359.704C253.779 359.704 267.275 377.698 270.773 384.696L275.272 350.707Z" fill="white"/>
<path d="M431.719 425.682C431.22 421.683 421.723 355.706 418.224 329.215L417.724 327.716C411.726 339.212 402.23 351.708 398.731 356.706V357.705C401.23 396.692 398.731 454.172 399.231 519.15C399.231 519.15 398.731 536.144 398.231 542.142C398.231 542.142 410.727 539.643 414.225 536.644L411.226 431.18C418.724 428.681 422.723 427.182 431.719 425.682Z" fill="white"/>
<path d="M394.233 316.719L394.319 318.386L410.827 287.952L410.041 285.987C404.043 260.496 391.234 241.745 386.735 237.746C380.737 232.748 371.241 227.75 370.741 227.25C371.74 227.75 385.736 236.747 394.233 316.719Z" fill="white"/>
<path d="M325.754 235.747L322.255 229.249C318.257 231.248 313.758 232.748 310.259 234.747C289.766 246.743 286.268 270.235 283.769 283.73C274.772 336.212 267.774 378.697 263.775 438.177L272.772 440.176C271.773 464.168 264.775 507.153 264.275 532.644C282.769 542.141 299.763 544.64 322.255 546.14C338.75 485.161 345.247 446.674 353.245 388.694C360.242 334.712 351.745 285.23 325.754 235.747ZM329.253 297.225L321.256 298.725C321.256 298.725 320.756 294.226 320.256 290.228L311.759 292.227C311.759 292.227 311.759 286.229 310.759 283.73L318.756 281.731C318.257 278.232 317.257 275.733 316.757 273.733L324.754 271.234C324.754 271.234 325.754 274.733 326.754 280.231L335.251 278.732C335.251 278.732 336.25 286.229 336.25 287.729L327.753 288.728C328.253 291.227 328.753 295.226 329.253 297.225Z" fill="white"/>
<path d="M227.29 341.71C226.29 357.205 230.788 370.7 233.787 385.695C236.286 397.691 237.786 409.687 238.786 422.182C239.785 434.178 238.286 446.174 239.285 458.17C239.785 461.169 240.285 464.668 242.284 466.667C243.284 467.667 244.784 468.166 246.283 468.666C251.781 471.165 263.277 476.164 268.775 478.163" stroke="white" stroke-miterlimit="10" stroke-linecap="round" stroke-linejoin="round"/>
<path d="M240.783 263.237C230.287 288.729 230.287 298.725 228.788 316.719" stroke="white" stroke-miterlimit="10" stroke-linecap="round" stroke-linejoin="round"/>
<path d="M242.784 400.69C245.283 410.686 246.283 420.683 247.283 430.679C248.282 438.677 247.782 451.672 252.781 458.17C255.78 462.169 260.778 464.168 265.276 465.168" stroke="white" stroke-miterlimit="10" stroke-linecap="round" stroke-linejoin="round"/>
<path d="M148.816 441.676C145.317 442.675 139.819 443.175 140.819 448.673C141.318 450.173 141.818 452.172 141.318 453.672C140.819 454.671 138.819 455.671 138.319 454.671C137.32 452.672 135.82 450.673 134.821 448.174C134.321 446.674 134.321 445.175 134.821 443.675C135.32 442.176 136.32 441.676 137.32 440.676C138.319 439.676 139.319 439.177 140.319 438.177C142.818 436.178 145.817 434.178 148.816 432.679C150.315 429.68 151.815 426.181 152.814 423.182" stroke="white" stroke-miterlimit="10" stroke-linecap="round" stroke-linejoin="round"/>
<path d="M142.819 455.671C142.319 456.67 142.319 457.17 141.819 458.17C141.319 460.169 142.819 463.168 145.318 463.168C146.317 463.168 147.317 462.169 147.817 461.169C148.317 460.169 148.817 459.17 148.817 458.17C149.316 456.67 149.316 455.171 149.316 453.172C149.316 452.172 149.316 451.172 149.316 450.173C148.817 448.173 146.317 447.174 144.818 449.173C143.818 450.673 143.818 452.172 143.318 453.671C143.318 454.171 143.318 455.171 142.819 455.671Z" stroke="white" stroke-miterlimit="10" stroke-linecap="round" stroke-linejoin="round"/>
<path d="M148.315 461.668C149.315 462.668 151.314 463.168 152.813 462.168C155.313 460.669 155.812 457.67 155.313 454.671C155.313 452.172 155.313 444.674 150.814 445.674C149.814 446.174 149.315 446.674 149.315 447.673" stroke="white" stroke-miterlimit="10" stroke-linecap="round" stroke-linejoin="round"/>
<path d="M154.813 459.17C156.813 462.669 159.812 457.171 160.311 455.171C160.811 452.672 160.811 449.173 158.312 447.674C157.312 447.174 154.313 446.174 154.313 449.173" stroke="white" stroke-miterlimit="10" stroke-linecap="round" stroke-linejoin="round"/>
<path d="M160.311 455.671C161.31 450.673 162.81 445.674 163.809 440.676C164.309 436.178 165.309 432.179 166.808 428.18" stroke="white" stroke-miterlimit="10" stroke-linecap="round" stroke-linejoin="round"/>
<path d="M137.819 460.669C138.319 461.169 139.819 461.668 140.318 461.169C140.818 460.669 141.318 460.169 141.818 459.169C142.318 457.17 140.318 455.171 138.819 455.67C136.32 456.67 136.32 459.169 137.819 460.669Z" stroke="white" stroke-miterlimit="10" stroke-linecap="round" stroke-linejoin="round"/>
<path d="M359.244 140.78C360.244 134.282 351.247 132.282 346.748 132.282C343.749 132.282 340.251 132.782 337.252 132.782C333.253 132.282 329.754 131.783 326.255 133.282C322.757 134.782 319.258 136.781 316.259 139.28C315.759 138.28 314.26 138.28 313.26 139.28C312.26 139.78 311.76 140.78 311.261 141.779C309.261 145.778 307.262 149.776 305.263 153.775C303.263 157.774 300.764 162.272 299.765 166.771C298.765 171.269 299.765 185.264 299.765 185.764C299.765 188.763 304.763 194.261 304.763 194.761C305.263 195.761 306.262 196.76 307.262 197.76C308.762 198.76 309.761 199.759 310.261 201.759C311.76 207.257 313.76 212.255 314.26 217.753C315.259 222.251 313.76 228.249 314.759 232.748" stroke="white" stroke-miterlimit="10" stroke-linecap="round" stroke-linejoin="round"/>
<path d="M365.241 219.752C364.242 216.253 365.241 208.756 367.241 205.757C368.74 203.258 371.739 203.258 374.738 202.758C376.737 202.258 379.736 201.259 380.736 199.259C382.735 196.26 378.237 194.261 379.236 191.262C379.736 190.262 380.736 189.763 380.736 188.763C381.236 187.263 380.236 185.264 378.737 184.764C379.236 184.264 379.236 182.765 379.736 182.265C379.236 181.265 378.237 180.266 377.737 178.766C377.237 177.267 377.737 176.767 378.737 175.767C379.736 174.768 380.236 174.768 381.236 173.768C382.735 171.269 375.238 166.77 373.738 165.271C369.74 161.772 371.739 160.273 369.74 155.274C366.741 148.777 363.242 142.279 356.744 138.28" stroke="white" stroke-miterlimit="10" stroke-linecap="round" stroke-linejoin="round"/>
<path d="M359.243 163.272C362.242 161.773 364.741 156.774 367.24 158.274" stroke="white" stroke-miterlimit="10" stroke-linecap="round" stroke-linejoin="round"/>
<path d="M342.748 177.266C337.25 168.269 330.753 169.269 328.253 173.267C325.754 178.266 329.753 183.764 337.75 186.263C340.749 187.263 346.247 191.761 346.247 187.263" stroke="white" stroke-miterlimit="10" stroke-linecap="round" stroke-linejoin="round"/>
<path d="M335.1 174.823C330.194 173.786 330.578 177.337 332.024 179.505C333.469 181.673 338.528 181.673 340.696 183.118" stroke="white" stroke-miterlimit="10" stroke-linecap="round" stroke-linejoin="round"/>
<path d="M368.739 171.769C371.738 173.268 373.238 176.267 373.738 178.766C374.237 183.265 371.238 186.763 370.239 189.762" stroke="white" stroke-miterlimit="10" stroke-linecap="round" stroke-linejoin="round"/>
<path d="M360.744 168.27C361.244 166.271 364.743 162.272 367.242 163.771" stroke="white" stroke-miterlimit="10" stroke-linecap="round" stroke-linejoin="round"/>
<path d="M373.738 186.763C376.737 187.263 378.236 185.763 379.236 185.264" stroke="white" stroke-miterlimit="10" stroke-linecap="round" stroke-linejoin="round"/>
<path d="M358.745 140.28C352.247 136.281 347.249 142.279 345.249 144.778C342.25 148.777 345.749 152.776 344.25 157.274C343.75 158.274 343.25 159.773 343.25 160.773C343.25 163.772 346.749 166.271 347.748 169.27C348.748 172.769 345.249 174.768 343.75 177.767" stroke="white" stroke-miterlimit="10" stroke-linecap="round" stroke-linejoin="round"/>
<path d="M366.981 167.888C367.527 167.538 367.487 166.5 366.891 165.571C366.295 164.641 365.369 164.171 364.823 164.521C364.277 164.871 364.317 165.909 364.913 166.839C365.509 167.768 366.434 168.238 366.981 167.888Z" stroke="white" stroke-miterlimit="10" stroke-linecap="round" stroke-linejoin="round"/>
<path d="M352.246 204.758C357.244 205.257 364.742 205.757 371.24 203.258" stroke="white" stroke-miterlimit="10" stroke-linecap="round" stroke-linejoin="round"/>
<path d="M342.75 274.734C351.247 300.225 373.24 320.218 386.735 331.214" stroke="white" stroke-miterlimit="10" stroke-linecap="round" stroke-linejoin="round"/>
<path d="M231.787 212.255C232.787 213.755 235.286 217.253 235.286 219.253C234.286 227.25 240.284 230.249 237.285 237.247C236.286 239.746 227.789 241.745 221.291 242.745C217.292 243.244 212.294 243.244 206.796 241.745" stroke="white" stroke-miterlimit="10" stroke-linecap="round" stroke-linejoin="round"/>
<path d="M207.796 186.763C207.796 186.763 214.794 188.763 221.792 197.26C228.789 205.757 226.79 204.257 226.79 207.256" stroke="white" stroke-miterlimit="10" stroke-linecap="round" stroke-linejoin="round"/>
<path d="M212.486 204.793C212.986 205.293 213.486 205.793 212.986 206.792C212.486 207.792 211.986 207.792 210.986 207.292C210.487 207.292 209.987 206.293 209.987 205.793" stroke="white" stroke-miterlimit="10" stroke-linecap="round" stroke-linejoin="round"/>
<path d="M215.793 206.256C214.293 205.256 212.794 203.757 211.294 203.757C209.795 203.757 208.295 205.256 207.296 206.256L206.796 206.756" stroke="white" stroke-miterlimit="10" stroke-linecap="round" stroke-linejoin="round"/>
<path d="M223.292 199.259C222.292 200.259 221.792 202.258 222.792 203.258C223.292 204.757 224.291 205.757 225.791 206.756C227.29 207.756 228.29 208.256 229.79 208.756C230.789 209.256 232.289 210.255 232.289 211.755C232.289 213.254 230.789 213.754 230.289 214.754" stroke="white" stroke-miterlimit="10" stroke-linecap="round" stroke-linejoin="round"/>
<path d="M207.795 186.264C204.296 185.264 200.298 186.264 197.799 188.263C195.3 190.762 193.3 194.261 193.8 197.76C193.8 200.259 194.8 202.758 193.3 204.757C192.301 206.257 190.801 206.756 189.302 208.256C187.802 209.755 187.302 212.255 187.302 214.254C187.302 216.253 188.302 218.252 188.802 220.752C184.803 218.752 177.306 216.253 175.306 222.751C173.807 228.749 180.805 234.747 185.803 236.746C186.802 237.246 188.302 237.246 189.302 237.246C190.301 236.746 191.301 235.746 190.801 234.247" stroke="white" stroke-miterlimit="10" stroke-linecap="round" stroke-linejoin="round"/>
<path d="M227.288 215.753V215.253C226.288 215.253 225.289 216.253 224.789 216.253C223.289 216.753 221.79 216.253 220.79 215.253C219.791 214.253 219.791 212.254 220.79 211.254" stroke="white" stroke-miterlimit="10" stroke-linecap="round" stroke-linejoin="round"/>
<path d="M191.303 234.247C195.801 243.244 199.8 240.245 199.3 245.743C198.8 249.242 199.3 250.242 198.3 257.739C196.301 269.735 180.306 275.233 175.808 282.231C162.812 301.724 168.81 329.214 166.311 358.704C163.812 376.698 152.816 403.189 148.317 420.683L170.31 427.68" stroke="white" stroke-miterlimit="10" stroke-linecap="round" stroke-linejoin="round"/>
<path d="M230.789 241.744C229.29 248.742 229.29 255.74 229.29 262.737C229.29 267.236 225.791 271.734 221.792 273.733C213.795 277.232 205.298 273.234 198.3 269.235" stroke="white" stroke-miterlimit="10" stroke-linecap="round" stroke-linejoin="round"/>
<path d="M224.29 227.249C226.289 226.249 226.289 226.249 227.789 225.749C228.788 225.249 229.788 224.75 230.788 224.75C231.787 224.75 232.787 224.75 233.787 223.75" stroke="white" stroke-miterlimit="10" stroke-linecap="round" stroke-linejoin="round"/>
<path d="M217.757 214.119C220.74 210.862 220.022 205.35 216.154 201.808C212.286 198.266 206.732 198.035 203.75 201.293C200.767 204.55 201.485 210.062 205.353 213.604C209.221 217.146 214.775 217.376 217.757 214.119Z" stroke="white" stroke-miterlimit="10" stroke-linecap="round" stroke-linejoin="round"/>
<path d="M221.791 200.259C221.291 196.26 223.791 193.761 227.289 194.761C230.788 195.76 234.287 199.759 234.787 203.758C235.287 207.756 232.787 210.255 229.289 209.256" stroke="white" stroke-miterlimit="10" stroke-linecap="round" stroke-linejoin="round"/>
<path d="M180.307 227.249C179.307 225.749 179.807 223.75 181.306 223.25C182.806 222.751 184.805 223.75 184.805 225.25C184.305 226.249 183.805 226.749 183.805 227.749C183.805 228.748 183.805 229.748 184.805 230.248C185.805 230.748 186.804 230.748 187.804 231.248" stroke="white" stroke-miterlimit="10" stroke-linecap="round" stroke-linejoin="round"/>
<path d="M217.793 201.758C218.793 201.258 221.292 200.758 222.292 200.259" stroke="white" stroke-miterlimit="10" stroke-linecap="round" stroke-linejoin="round"/>
<path d="M204.297 185.263C193.801 177.766 181.305 185.263 173.807 193.76C170.309 197.759 166.81 202.757 165.81 208.255C164.311 216.253 167.81 224.25 167.81 232.247C167.81 249.741 152.815 261.737 172.308 288.728" stroke="white" stroke-miterlimit="10" stroke-linecap="round" stroke-linejoin="round"/>
<path d="M234.787 324.716C233.787 324.716 233.287 326.216 233.787 327.215" stroke="white" stroke-miterlimit="10" stroke-linecap="round" stroke-linejoin="round"/>
<path d="M232.788 331.213C232.788 331.713 232.788 332.213 232.788 332.213C232.788 332.713 232.788 331.213 232.788 331.213Z" stroke="white" stroke-miterlimit="10" stroke-linecap="round" stroke-linejoin="round"/>
<path d="M251.78 358.704C250.781 358.204 249.781 355.705 249.281 350.707" stroke="#1E1E1E" stroke-miterlimit="10" stroke-linecap="round" stroke-linejoin="round"/>
<path d="M382.736 643.106C381.236 648.105 382.236 652.103 383.736 655.102" stroke="white" stroke-miterlimit="10" stroke-linecap="round" stroke-linejoin="round"/>
<path d="M363.243 642.606C363.743 647.104 363.243 651.103 362.743 655.102" stroke="white" stroke-miterlimit="10" stroke-linecap="round" stroke-linejoin="round"/>
<path d="M358.245 681.094C358.245 672.097 359.745 663.1 362.244 654.603C361.244 657.102 365.743 665.099 369.241 663.1C371.241 662.1 373.74 661.1 374.739 659.601C376.239 657.602 375.239 654.603 378.738 654.103C381.237 653.603 383.236 655.103 385.236 656.602C386.735 658.102 387.735 660.601 389.234 662.6C394.733 671.597 403.23 674.596 411.227 681.094C416.725 685.592 413.726 688.091 408.228 689.591C402.23 691.09 396.232 692.59 390.234 691.09C386.735 690.091 383.736 688.591 380.737 687.092C374.739 684.093 364.743 682.093 358.245 681.094Z" stroke="white" stroke-miterlimit="10" stroke-linecap="round" stroke-linejoin="round"/>
<path d="M339.25 656.602C339.25 658.601 339.75 661.1 340.25 663.099" stroke="white" stroke-miterlimit="10" stroke-linecap="round" stroke-linejoin="round"/>
<path d="M323.258 653.103C323.757 658.101 323.258 663.1 321.258 668.098C320.259 671.097 320.259 674.096 319.759 676.595C319.259 680.594 318.759 685.092 318.259 689.091C321.758 691.09 322.758 696.588 325.257 700.087C327.256 702.586 330.255 703.586 333.254 704.086C338.752 705.085 344.25 705.085 349.748 704.086C350.748 704.086 351.748 703.586 352.248 703.086C352.747 702.586 353.247 701.586 353.247 701.087C354.247 698.088 354.247 694.589 353.247 691.09C351.748 686.592 347.749 683.093 345.25 678.594C343.251 675.095 342.251 671.097 341.251 667.598C340.752 666.099 340.252 664.099 338.752 663.599C338.252 663.1 337.253 663.1 336.253 663.1C334.254 663.1 331.755 663.1 330.255 664.099C328.256 665.099 327.256 667.598 327.756 669.098C325.757 670.597 323.258 671.597 321.258 672.596" stroke="white" stroke-miterlimit="10" stroke-linecap="round" stroke-linejoin="round"/>
<path d="M194.3 623.613C195.3 631.61 196.3 636.108 196.799 644.106" stroke="white" stroke-miterlimit="10" stroke-linecap="round" stroke-linejoin="round"/>
<path d="M214.293 621.614C214.293 629.611 214.793 635.609 215.293 643.606" stroke="white" stroke-miterlimit="10" stroke-linecap="round" stroke-linejoin="round"/>
<path d="M222.292 671.096C221.792 662.099 219.792 653.102 216.793 644.605C217.793 647.104 213.795 655.102 210.296 653.102C208.296 652.103 205.797 651.603 204.798 650.103C203.298 648.104 203.798 645.105 200.299 644.605C197.8 644.105 195.801 645.605 194.301 647.604C192.802 649.603 191.802 651.603 190.802 653.602C185.804 662.599 177.307 666.098 169.81 673.095C164.312 678.094 167.311 680.093 172.809 681.093C178.807 682.592 185.304 683.592 190.802 681.592C194.301 680.593 197.3 678.593 200.299 677.094C206.297 675.095 215.794 672.596 222.292 671.096Z" stroke="white" stroke-miterlimit="10" stroke-linecap="round" stroke-linejoin="round"/>
<path d="M181.805 664.599C183.304 665.099 185.303 665.099 187.303 665.099" stroke="white" stroke-miterlimit="10" stroke-linecap="round" stroke-linejoin="round"/>
<path d="M184.804 662.1C186.804 662.1 188.303 662.1 190.302 661.6" stroke="white" stroke-miterlimit="10" stroke-linecap="round" stroke-linejoin="round"/>
<path d="M187.303 659.1C189.302 659.1 191.801 658.601 193.801 658.601" stroke="white" stroke-miterlimit="10" stroke-linecap="round" stroke-linejoin="round"/>
<path d="M190.302 655.102C192.801 655.102 194.801 655.102 197.3 655.102" stroke="white" stroke-miterlimit="10" stroke-linecap="round" stroke-linejoin="round"/>
<path d="M193.302 649.104C196.301 650.104 198.8 651.104 201.299 652.603" stroke="white" stroke-miterlimit="10" stroke-linecap="round" stroke-linejoin="round"/>
<path d="M244.283 630.111C244.283 636.608 244.283 643.106 242.284 649.104" stroke="white" stroke-miterlimit="10" stroke-linecap="round" stroke-linejoin="round"/>
<path d="M260.778 629.611C260.278 632.11 260.278 632.11 260.278 634.61C259.278 641.107 258.779 648.105 261.278 654.103C262.277 657.102 262.277 660.101 262.777 662.6C263.277 666.599 263.777 671.097 264.277 675.096C260.778 677.095 259.778 682.593 256.779 685.592C254.78 687.591 251.781 689.091 248.782 689.591C243.284 690.59 237.786 690.59 232.288 689.091C231.288 689.091 230.288 688.591 229.789 688.091C229.289 687.591 228.789 686.592 228.789 686.092C227.789 683.093 227.789 679.594 229.289 676.095C231.288 671.597 235.287 668.098 237.286 664.099C239.285 660.601 240.285 656.602 241.285 653.103C241.785 651.604 242.284 649.604 244.284 649.105C245.283 648.605 245.783 648.605 246.783 648.605C248.782 648.605 251.281 648.605 252.781 649.604C254.78 650.604 255.78 653.103 254.78 655.103C256.779 656.602 258.779 658.102 261.278 658.601" stroke="white" stroke-miterlimit="10" stroke-linecap="round" stroke-linejoin="round"/>
<path d="M240.786 655.602C245.284 654.602 250.782 656.102 254.281 659.1" stroke="white" stroke-miterlimit="10" stroke-linecap="round" stroke-linejoin="round"/>
<path d="M237.286 670.097C240.785 670.597 243.784 671.096 247.283 672.096" stroke="white" stroke-miterlimit="10" stroke-linecap="round" stroke-linejoin="round"/>
<path d="M240.286 669.597C242.785 669.097 244.784 668.597 247.283 668.597C244.784 666.598 242.785 665.099 240.286 663.099C243.784 661.6 247.283 661.1 250.782 661.6C247.283 659.101 245.284 658.601 240.785 656.602" stroke="white" stroke-miterlimit="10" stroke-linecap="round" stroke-linejoin="round"/>
<path d="M339.751 188.762C339.751 188.762 340.751 202.258 332.253 209.755C323.756 217.252 325.256 219.252 325.256 219.252" stroke="white" stroke-miterlimit="10" stroke-linecap="round" stroke-linejoin="round"/>
<path d="M273.273 440.676C272.274 464.668 265.276 507.653 264.776 533.144C283.27 542.641 300.264 545.14 322.756 546.64C339.251 485.661 345.748 447.174 353.746 389.194C361.243 334.712 352.246 285.23 326.255 235.747L322.257 229.249" stroke="#1E1E1E" stroke-miterlimit="10" stroke-linecap="round" stroke-linejoin="round"/>
<path d="M376.237 230.248C379.736 232.248 383.234 234.247 386.733 237.746C391.232 241.744 404.227 261.737 410.225 287.229" stroke="white" stroke-miterlimit="10" stroke-linecap="round" stroke-linejoin="round"/>
<path d="M365.242 219.752C366.242 224.751 370.74 227.25 376.238 230.749" stroke="white" stroke-miterlimit="10" stroke-linecap="round" stroke-linejoin="round"/>
<path d="M281.77 303.223C283.269 295.725 284.269 288.728 285.768 281.23C288.267 267.235 289.767 247.242 310.26 235.246C316.258 231.748 324.255 229.248 330.253 226.249C339.75 221.251 336.671 212.421 335.671 205.924" stroke="white" stroke-miterlimit="10" stroke-linecap="round" stroke-linejoin="round"/>
<path d="M318.258 317.218C311.76 361.703 301.763 408.187 296.765 449.173C284.769 445.674 276.272 441.676 264.276 438.177C267.775 386.694 272.274 342.71 279.771 299.225" stroke="#1E1E1E" stroke-miterlimit="10" stroke-linecap="round" stroke-linejoin="round"/>
<path d="M370.741 227.25C370.741 227.25 385.736 233.748 394.733 316.719" stroke="white" stroke-miterlimit="10" stroke-linecap="round" stroke-linejoin="round"/>
<path d="M335.252 252.24C335.252 252.24 360.244 254.739 369.741 252.74C378.737 250.741 381.237 248.741 381.237 248.741" stroke="white" stroke-miterlimit="10" stroke-linecap="round" stroke-linejoin="round"/>
<path d="M296.265 544.141C296.265 544.141 289.268 627.112 289.268 649.604C289.268 649.604 319.757 648.605 325.255 654.602C330.753 660.6 350.247 653.603 354.245 653.103C354.245 653.103 374.238 487.66 374.238 438.177" stroke="white" stroke-miterlimit="10" stroke-linecap="round" stroke-linejoin="round"/>
<path d="M404.729 540.141C404.729 540.141 398.231 622.613 394.732 644.605C394.732 644.605 380.237 642.106 373.739 643.606C367.242 645.105 357.245 640.107 357.245 640.107" stroke="white" stroke-miterlimit="10" stroke-linecap="round" stroke-linejoin="round"/>
<path d="M123.326 509.652C123.826 508.152 124.825 501.155 124.825 501.155L116.328 500.155C116.828 494.657 117.328 491.158 117.328 491.158H108.831C108.831 493.157 108.831 495.656 108.331 499.655L99.834 499.155C99.834 502.154 98.3345 507.652 98.3345 507.652L106.832 508.652C106.332 512.651 105.332 517.149 105.332 517.149L113.329 518.149C113.829 516.149 114.329 512.151 114.829 509.652H123.326Z" fill="white"/>
<path d="M467.707 540.641L467.207 551.138C467.207 551.138 462.209 558.635 444.715 560.134C427.221 561.634 417.724 555.636 416.225 552.137C414.725 548.638 415.725 540.141 415.725 540.141L467.707 540.641Z" stroke="white" stroke-miterlimit="10" stroke-linecap="round" stroke-linejoin="round"/>
<path d="M417.724 453.172H413.226" stroke="white" stroke-miterlimit="10" stroke-linecap="round" stroke-linejoin="round"/>
<path d="M439.716 443.175L450.213 444.175C450.213 444.175 455.211 446.174 452.212 454.671L441.216 453.672" stroke="white" stroke-miterlimit="10" stroke-linecap="round" stroke-linejoin="round"/>
<path d="M398.729 612.616C402.228 638.607 404.227 653.602 404.227 653.602C404.227 653.602 403.727 659.6 409.725 659.1C415.723 658.601 420.222 659.1 420.721 663.099C421.221 667.098 422.721 668.097 432.717 667.597C443.214 667.098 491.697 669.597 491.697 669.597C491.697 669.597 493.696 668.597 494.196 664.598C494.696 660.6 497.195 661.1 504.193 660.1C511.19 659.1 512.69 655.102 511.69 643.606C510.69 632.11 499.194 544.14 498.695 540.141" stroke="white" stroke-miterlimit="10" stroke-linecap="round" stroke-linejoin="round"/>
<path d="M477.203 541.641C477.203 541.641 488.699 539.642 490.199 551.638" stroke="white" stroke-miterlimit="10" stroke-linecap="round" stroke-linejoin="round"/>
<path d="M498.696 539.641C498.696 539.641 495.197 528.645 482.701 528.645C472.205 528.645 433.218 527.146 414.725 528.145" stroke="white" stroke-miterlimit="10" stroke-linecap="round" stroke-linejoin="round"/>
<path d="M458.211 549.638L448.215 455.17" stroke="white" stroke-miterlimit="10" stroke-linecap="round" stroke-linejoin="round"/>
<path d="M425.721 549.139L414.225 454.171" stroke="white" stroke-miterlimit="10" stroke-linecap="round" stroke-linejoin="round"/>
<path d="M494.197 587.126L500.695 638.108" stroke="white" stroke-miterlimit="10" stroke-linecap="round" stroke-linejoin="round"/>
<path d="M428.72 427.68C428.72 427.68 427.721 431.679 437.217 437.177C439.716 438.676 442.216 450.672 440.716 454.171C439.217 457.67 434.718 456.67 434.218 456.17" stroke="white" stroke-miterlimit="10" stroke-linecap="round" stroke-linejoin="round"/>
<path d="M416.224 429.18C416.224 429.18 417.724 436.177 414.225 436.677" stroke="white" stroke-miterlimit="10" stroke-linecap="round" stroke-linejoin="round"/>
<path d="M412.226 443.674C412.226 443.674 417.724 442.675 418.224 446.673C418.723 450.672 416.724 453.671 419.723 456.67C421.722 459.169 427.22 457.67 427.22 457.67C432.219 458.669 433.718 455.17 433.718 455.17" stroke="white" stroke-miterlimit="10" stroke-linecap="round" stroke-linejoin="round"/>
<path d="M409.727 659.101C409.727 659.101 404.229 664.599 410.227 672.596L420.224 673.096C420.224 673.096 422.723 672.596 422.223 666.098" stroke="white" stroke-miterlimit="10" stroke-linecap="round" stroke-linejoin="round"/>
<path d="M497.196 662.1C497.196 662.1 492.698 671.097 497.696 674.096C499.695 675.595 501.694 674.096 503.194 673.596C505.693 673.096 507.692 673.096 507.692 673.096L508.192 672.596C511.691 665.099 507.692 660.1 507.692 660.1" stroke="white" stroke-miterlimit="10" stroke-linecap="round" stroke-linejoin="round"/>
<path d="M417.723 660.1C417.723 660.1 413.225 666.598 419.222 671.596" stroke="white" stroke-miterlimit="10" stroke-linecap="round" stroke-linejoin="round"/>
<path d="M423.224 256.74C423.224 256.74 425.223 235.748 424.224 228.75C423.224 221.752 426.723 224.251 427.723 225.251C428.722 226.251 430.222 233.248 429.722 242.245" stroke="white" stroke-miterlimit="10" stroke-linecap="round" stroke-linejoin="round"/>
<path d="M418.226 276.233C418.226 276.233 420.225 267.236 417.726 262.738C415.726 258.239 417.226 252.241 415.227 244.744C413.727 239.746 418.725 240.745 420.725 245.744C421.724 248.243 423.224 252.741 423.224 252.741" stroke="white" stroke-miterlimit="10" stroke-linecap="round" stroke-linejoin="round"/>
<path d="M429.223 250.742C429.223 250.742 431.222 231.748 430.723 222.252C430.723 222.252 434.221 221.252 435.721 226.25C437.22 231.248 436.721 251.242 436.221 253.241" stroke="white" stroke-miterlimit="10" stroke-linecap="round" stroke-linejoin="round"/>
<path d="M435.721 252.741C435.721 252.741 440.219 234.747 439.719 228.749C439.719 227.25 443.718 228.249 444.218 232.748C444.718 236.747 442.219 254.74 441.219 258.739C441.219 258.739 444.718 248.742 445.717 244.744C446.717 240.745 450.216 245.244 449.716 248.742C449.216 252.241 446.217 262.738 443.218 270.735C441.219 276.233 433.222 278.232 431.722 283.73" stroke="white" stroke-miterlimit="10" stroke-linecap="round" stroke-linejoin="round"/>
<path d="M421.221 548.139C421.221 548.139 424.72 551.638 430.218 548.639" stroke="white" stroke-miterlimit="10" stroke-linecap="round" stroke-linejoin="round"/>
<path d="M453.213 549.138C453.213 549.138 457.211 552.137 462.21 548.638" stroke="white" stroke-miterlimit="10" stroke-linecap="round" stroke-linejoin="round"/>
<path d="M193.302 268.235C193.302 268.235 193.302 333.713 187.803 362.203C182.305 390.693 177.307 509.152 184.305 539.642C184.305 539.642 170.309 537.643 162.812 546.14C162.812 546.14 168.31 417.684 175.308 384.195" stroke="white" stroke-miterlimit="10" stroke-linecap="round" stroke-linejoin="round"/>
<path d="M260.778 334.212C260.778 334.212 267.276 339.711 271.775 345.209" stroke="#1E1E1E" stroke-miterlimit="10" stroke-linecap="round" stroke-linejoin="round"/>
<path d="M252.281 358.704C252.281 358.704 262.277 371.699 267.276 379.696" stroke="#1E1E1E" stroke-miterlimit="10" stroke-linecap="round" stroke-linejoin="round"/>
<path d="M174.308 540.141C174.308 540.141 180.805 605.119 183.305 620.114C183.305 620.114 193.801 628.611 219.792 620.114C219.792 620.114 236.286 636.108 267.276 628.611L272.774 546.639" stroke="white" stroke-miterlimit="10" stroke-linecap="round" stroke-linejoin="round"/>
<path d="M200.799 410.687C200.799 410.687 214.794 414.185 220.792 411.686" stroke="white" stroke-miterlimit="10" stroke-linecap="round" stroke-linejoin="round"/>
<path d="M219.793 620.114L213.295 453.671" stroke="white" stroke-miterlimit="10" stroke-linecap="round" stroke-linejoin="round"/>
<path d="M191.801 218.752L201.298 205.757" stroke="white" stroke-miterlimit="10" stroke-linecap="round" stroke-linejoin="round"/>
<path d="M358.743 393.192C358.743 393.192 381.235 396.191 393.231 392.692" stroke="white" stroke-miterlimit="10" stroke-linecap="round" stroke-linejoin="round"/>
<path d="M135.32 453.172C135.32 453.172 126.323 450.173 125.324 460.669C124.324 471.166 123.824 476.164 123.824 476.164" stroke="white" stroke-miterlimit="10" stroke-linecap="round" stroke-linejoin="round"/>
<path d="M128.822 474.164L130.822 458.67C130.822 458.67 131.821 457.17 135.82 458.17" stroke="white" stroke-miterlimit="10" stroke-linecap="round" stroke-linejoin="round"/>
<path d="M158.314 459.17C158.314 459.17 163.812 457.67 163.312 463.168C162.812 468.167 161.313 479.163 161.313 479.163" stroke="white" stroke-miterlimit="10" stroke-linecap="round" stroke-linejoin="round"/>
<path d="M160.813 454.671C160.813 454.671 166.811 453.671 167.311 458.17" stroke="white" stroke-miterlimit="10" stroke-linecap="round" stroke-linejoin="round"/>
<path d="M165.81 480.162L96.3337 476.163C96.3337 476.163 85.8374 472.665 84.3379 490.158C83.3382 507.652 76.8405 542.64 81.8387 550.638C86.837 558.635 140.818 557.635 151.815 557.635C162.811 557.635 175.806 559.635 175.806 559.635" stroke="white" stroke-miterlimit="10" stroke-linecap="round" stroke-linejoin="round"/>
<path d="M418.204 329.37C421.703 355.861 430.7 421.838 431.699 425.837C422.202 427.336 418.704 428.836 411.706 430.835" stroke="white" stroke-miterlimit="10" stroke-linecap="round" stroke-linejoin="round"/>
<path d="M383.736 337.211C393.733 321.717 409.227 288.728 417.224 277.732C428.72 281.23 425.222 281.73 435.718 287.228C428.221 309.721 404.729 364.702 387.235 363.702C382.736 363.702 374.739 360.203 357.245 344.209" stroke="white" stroke-miterlimit="10" stroke-linecap="round" stroke-linejoin="round"/>
<path d="M411.69 432.945C410.19 400.956 408.691 368.968 406.691 350.474" stroke="#1E1E1E" stroke-miterlimit="10" stroke-linecap="round" stroke-linejoin="round"/>
<path d="M399.73 357.205C402.229 396.192 399.73 453.672 400.23 518.65C400.23 518.65 399.73 535.644 399.23 541.642" stroke="white" stroke-miterlimit="10" stroke-linecap="round" stroke-linejoin="round"/>
<path d="M238.286 309.221C234.787 307.722 232.788 310.221 234.787 313.22C236.286 315.719 238.786 317.219 240.285 319.718C233.787 317.718 232.288 317.219 229.789 316.719C228.789 316.719 228.289 316.219 227.289 316.219C222.291 316.219 220.792 320.717 223.791 322.217C225.79 323.217 227.289 324.216 229.789 325.216" stroke="white" stroke-miterlimit="10" stroke-linecap="round" stroke-linejoin="round"/>
<path d="M259.882 337.761C255.883 334.762 254.384 330.764 252.884 326.765C250.385 319.768 245.887 312.27 238.389 309.271" stroke="white" stroke-miterlimit="10" stroke-linecap="round" stroke-linejoin="round"/>
<path d="M223.291 323.217C221.791 324.716 220.792 325.716 222.291 327.715C223.791 329.714 226.29 330.714 228.789 330.714" stroke="white" stroke-miterlimit="10" stroke-linecap="round" stroke-linejoin="round"/>
<path d="M222.791 329.714C221.291 331.214 220.792 333.213 222.291 334.713C223.791 336.212 226.29 336.712 227.789 337.212" stroke="white" stroke-miterlimit="10" stroke-linecap="round" stroke-linejoin="round"/>
<path d="M223.789 335.712C222.79 340.211 226.788 340.71 229.787 341.71C233.286 342.71 237.285 344.209 240.784 345.209C243.283 346.209 245.782 346.708 248.281 348.208C250.28 349.707 253.779 353.206 255.279 354.706" stroke="white" stroke-miterlimit="10" stroke-linecap="round" stroke-linejoin="round"/>
<path d="M260.778 334.212C263.277 339.211 256.279 361.703 252.281 358.704" stroke="#1E1E1E" stroke-miterlimit="10" stroke-linecap="round" stroke-linejoin="round"/>
<path d="M402.479 305.425C401.979 295.928 401.479 291.929 398.98 280.933" stroke="#1E1E1E" stroke-miterlimit="10" stroke-linecap="round" stroke-linejoin="round"/>
<path d="M363.992 169.002C365.095 168.942 367.507 168.605 368.325 167.738" stroke="white" stroke-width="0.75" stroke-linecap="round"/>
<path d="M209.922 208.684C210.802 208.882 213.106 208.947 215.282 207.622" stroke="white" stroke-width="0.75" stroke-linecap="round"/>
<path d="M369.577 73.4246C369.577 73.4246 448.829 53.6116 456.107 50.7812C463.385 47.9507 479.559 41.0768 479.963 36.2247C480.368 31.3725 462.172 29.7551 456.916 29.7551C451.659 29.7551 394.242 43.0986 394.242 43.0986" stroke="white" stroke-width="0.5" stroke-miterlimit="10" stroke-linecap="round" stroke-linejoin="round"/>
<path d="M387.368 41.077C363.512 31.777 329.951 22.0727 307.712 10.751C307.712 10.751 302.051 3.06842 301.647 1.04668L298.008 0.642334C298.008 0.642334 302.455 11.964 304.881 13.9858C307.308 16.0075 337.229 38.2466 337.229 38.2466C337.229 38.2466 335.207 39.4596 334.803 41.4813C334.803 43.5031 341.273 41.4813 341.273 41.4813L355.02 52.3987C355.02 52.3987 324.694 60.89 321.055 61.6987C317.416 62.103 313.777 63.7204 309.329 58.4639C304.881 53.2074 293.964 40.2683 293.964 40.2683L287.495 43.5031L293.155 63.7204L270.916 55.2291L268.49 56.0378L291.134 74.6378C291.134 74.6378 290.729 76.2551 292.347 77.0638C293.964 78.2769 295.986 79.0856 295.986 79.0856L306.903 90.4073L309.734 89.5986V80.2986C309.734 80.2986 328.334 83.5334 340.06 79.8943C351.786 76.2552 368.768 72.2117 372.003 73.0204C375.642 73.8291 383.729 75.4465 385.751 77.8725C387.772 80.703 391.816 85.9595 391.816 85.9595C391.816 85.9595 388.581 87.9812 389.39 88.7899C390.199 89.5986 394.646 89.5986 395.455 88.7899L404.351 101.729L402.733 109.007H404.351C404.351 109.007 408.394 101.729 411.225 99.3029L408.798 80.2986C408.798 80.2986 414.055 79.8943 417.29 77.8725C421.333 75.0421 417.694 68.9769 415.672 68.5726C413.651 68.1682 414.864 67.3595 406.777 70.1899L405.968 63.3161" stroke="white" stroke-width="0.5" stroke-miterlimit="10" stroke-linecap="round" stroke-linejoin="round"/>
<path d="M390.197 41.0769C390.197 41.0769 394.24 41.4812 394.24 48.3551" stroke="white" stroke-width="0.5" stroke-miterlimit="10" stroke-linecap="round" stroke-linejoin="round"/>
<path d="M412.841 72.2114C412.841 74.6375 414.054 76.6592 416.48 77.4679" stroke="white" stroke-width="0.5" stroke-miterlimit="10" stroke-linecap="round" stroke-linejoin="round"/>
<path d="M387.772 43.9072C387.772 46.3333 388.985 48.355 391.412 49.1637" stroke="white" stroke-width="0.5" stroke-miterlimit="10" stroke-linecap="round" stroke-linejoin="round"/>
<path d="M389.793 40.6724C386.963 41.0767 384.537 41.8854 382.111 43.0984C380.089 43.9071 378.067 44.7158 376.045 45.5245C375.237 45.9289 374.428 46.3332 373.619 46.7376C372.811 47.1419 372.406 47.9506 372.406 49.1636C372.406 50.3767 373.215 50.781 374.024 50.781" stroke="white" stroke-width="0.5" stroke-miterlimit="10" stroke-linecap="round" stroke-linejoin="round"/>
<path d="M281.025 87.1721C193.282 109.411 105.539 131.65 17.7954 153.485" stroke="white" stroke-width="0.5" stroke-miterlimit="10" stroke-linecap="round" stroke-linejoin="round"/>
<path d="M273.746 83.9382C181.555 90.8121 90.1726 105.369 0.812012 128.416" stroke="white" stroke-width="0.5" stroke-miterlimit="10" stroke-linecap="round" stroke-linejoin="round"/>
</svg>
