<svg width="506" height="735" viewBox="0 0 506 735" fill="none" xmlns="http://www.w3.org/2000/svg">
    <g id="[export] illustration_4">
        <g id="Vika and Karina Arrive">
            <g id="Group 381">
                <path id="Vector" d="M249.935 504.598C249.935 504.598 254.059 549.275 249.174 574.187C249.174 574.187 274.086 577.607 276.529 581.515L277.994 571.745C273.109 570.28 268.713 568.326 263.828 565.395C264.317 550.741 266.186 530.968 268.14 511.43L249.935 504.598Z" fill="white"/>
                <path id="Vector_2" d="M265.588 430.446L267.084 417L249.468 393.811L247.026 385.507C247.026 385.507 233.349 380.134 232.372 380.622C231.395 381.111 235.791 413.35 238.233 414.815C240.187 415.792 265.588 430.446 265.588 430.446Z" fill="white"/>
                <path id="Vector_3" d="M192.806 307.352C192.806 307.352 192.806 371.341 187.433 399.184C182.06 427.027 177.175 542.795 184.014 572.592C184.014 572.592 170.337 570.638 163.01 578.942L169.848 464.151L148.355 457.312C152.752 440.216 163.498 414.327 165.94 396.742C168.383 367.922 162.521 341.056 175.221 322.006C178.152 317.121 187.433 312.725 193.295 306.375L192.806 307.352Z" fill="white"/>
                <path id="Vector_4" d="M247.027 302.467C247.027 302.467 274.654 307.689 276.608 344.324L269.985 384.041L259.663 375.242C259.663 375.242 257.584 374.658 254.653 370.75C251.722 367.331 249.903 355.617 242.115 349.689C237.197 347.182 235.202 346.128 235.202 346.128C235.202 346.128 235.292 342.717 236.147 336.621C237.162 329.387 239.471 318.228 247.027 302.467Z" fill="white"/>
                <path id="Vector_5" d="M235.302 344.964C236.767 326.89 236.767 327.379 246.048 302.467" stroke="#1E1E1E" stroke-miterlimit="10" stroke-linecap="round" stroke-linejoin="round"/>
                <path id="Vector_6" d="M249.935 505.529C249.935 505.529 253.874 549.144 248.99 574.056C248.99 574.056 273.902 577.476 276.344 581.384C276.344 581.384 277.736 573.229 277.736 572.252" stroke="#1E1E1E" stroke-miterlimit="10" stroke-linecap="round" stroke-linejoin="round"/>
                <g id="Group">
                    <path id="Vector_7" d="M273.403 387.462C269.983 380.623 260.214 371.831 260.214 371.831C260.214 371.831 259.952 376.301 257.927 384.978C255.902 393.656 252.398 396.254 252.398 396.254C252.398 396.254 265.587 413.839 269.006 420.678L273.403 387.462Z" fill="white"/>
                </g>
                <g id="Group_2">
                    <path id="Vector_8" d="M426.296 460.733C425.807 456.825 416.527 392.347 413.107 366.458L412.619 364.992C406.757 376.227 397.476 388.439 394.057 393.324V394.301C396.499 432.401 394.057 488.576 394.545 552.077C394.545 552.077 394.057 568.685 393.568 574.547C393.568 574.547 405.78 572.104 409.199 569.173L406.269 466.106C413.596 463.664 417.503 462.198 426.296 460.733Z" fill="white"/>
                    <path id="Vector_9" d="M389.661 354.246L389.745 355.875L405.878 326.132L405.11 324.212C399.248 299.3 386.73 280.975 382.334 277.067C376.472 272.183 367.191 267.298 366.703 266.809C367.68 267.298 381.357 276.09 389.661 354.246Z" fill="white"/>
                </g>
                <path id="Vector_10" d="M322.738 275.113L319.319 268.763C315.411 270.717 311.015 272.182 307.595 274.136C287.568 285.859 284.149 308.817 281.706 322.006C272.914 373.296 266.075 414.816 262.167 472.944L270.96 474.898C269.983 498.344 263.144 540.353 262.656 565.265C280.729 574.546 297.337 576.988 319.319 578.453C335.438 518.86 341.788 481.248 349.604 424.585C356.442 371.83 348.138 323.471 322.738 275.113ZM326.157 335.195L318.342 336.66C318.342 336.66 317.853 332.264 317.365 328.356L309.061 330.31C309.061 330.31 309.061 324.448 308.084 322.006L315.899 320.052C315.411 316.633 314.434 314.191 313.945 312.237L321.761 309.794C321.761 309.794 322.738 313.214 323.715 318.587L332.019 317.121C332.019 317.121 332.996 324.448 332.996 325.914L324.692 326.891C325.18 329.333 325.669 333.241 326.157 335.195Z" fill="white"/>
                <path id="Vector_11" d="M226.511 378.668C225.534 393.811 229.93 407 232.861 421.654C235.303 433.377 236.769 445.101 237.746 457.312C238.723 469.036 237.257 480.759 238.234 492.482C238.723 495.413 239.211 498.832 241.165 500.786C242.142 501.763 243.607 502.252 245.073 502.74C250.446 505.183 261.681 510.067 267.054 512.021" stroke="white" stroke-miterlimit="10" stroke-linecap="round" stroke-linejoin="round"/>
                <path id="Vector_12" d="M239.698 301.979C229.44 326.891 229.44 336.66 227.975 354.245" stroke="white" stroke-miterlimit="10" stroke-linecap="round" stroke-linejoin="round"/>
                <path id="Vector_13" d="M241.653 436.308C244.096 446.078 245.073 455.847 246.05 465.616C247.026 473.432 246.538 486.132 251.423 492.482C254.354 496.39 259.238 498.344 263.635 499.321" stroke="white" stroke-miterlimit="10" stroke-linecap="round" stroke-linejoin="round"/>
                <g id="Group_3">
                    <path id="Vector_14" d="M149.82 476.363C146.401 477.34 141.027 477.828 142.004 483.202C142.493 484.667 142.981 486.621 142.493 488.086C142.004 489.063 140.05 490.04 139.562 489.063C138.585 487.109 137.12 485.155 136.143 482.713C135.654 481.248 135.654 479.782 136.143 478.317C136.631 476.851 137.608 476.363 138.585 475.386C139.562 474.409 140.539 473.921 141.516 472.944C143.958 470.99 146.889 469.036 149.82 467.571C151.285 464.64 152.751 461.22 153.728 458.29" stroke="white" stroke-miterlimit="10" stroke-linecap="round" stroke-linejoin="round"/>
                    <path id="Vector_15" d="M143.959 490.04C143.471 491.017 143.471 491.506 142.982 492.483C142.494 494.436 143.959 497.367 146.402 497.367C147.379 497.367 148.355 496.39 148.844 495.413C149.332 494.436 149.821 493.459 149.821 492.483C150.309 491.017 150.309 489.552 150.309 487.598C150.309 486.621 150.309 485.644 150.309 484.667C149.821 482.713 147.379 481.736 145.913 483.69C144.936 485.155 144.936 486.621 144.448 488.086C144.448 488.575 144.448 489.552 143.959 490.04Z" stroke="white" stroke-miterlimit="10" stroke-linecap="round" stroke-linejoin="round"/>
                    <path id="Vector_16" d="M149.331 495.901C150.308 496.878 152.261 497.367 153.727 496.39C156.169 494.924 156.658 491.994 156.169 489.063C156.169 486.62 156.169 479.293 151.773 480.27C150.796 480.759 150.308 481.247 150.308 482.224" stroke="white" stroke-miterlimit="10" stroke-linecap="round" stroke-linejoin="round"/>
                    <path id="Vector_17" d="M155.681 493.46C157.635 496.879 160.566 491.506 161.055 489.552C161.543 487.11 161.543 483.69 159.101 482.225C158.124 481.737 155.193 480.76 155.193 483.69" stroke="white" stroke-miterlimit="10" stroke-linecap="round" stroke-linejoin="round"/>
                    <path id="Vector_18" d="M161.054 490.04C162.031 485.156 163.496 480.271 164.473 475.386C164.961 470.99 165.938 467.082 167.404 463.174" stroke="white" stroke-miterlimit="10" stroke-linecap="round" stroke-linejoin="round"/>
                    <path id="Vector_19" d="M139.073 494.924C139.562 495.413 141.027 495.901 141.516 495.413C142.004 494.924 142.493 494.436 142.981 493.459C143.47 491.505 141.516 489.551 140.05 490.04C137.608 491.017 137.608 493.459 139.073 494.924Z" stroke="white" stroke-miterlimit="10" stroke-linecap="round" stroke-linejoin="round"/>
                </g>
                <path id="Vector_20" d="M355.467 182.304C356.444 175.953 347.652 174 343.255 174C340.324 174 336.905 174.488 333.974 174.488C330.067 174 326.647 173.511 323.228 174.976C319.809 176.442 316.389 178.396 313.459 180.838C312.97 179.861 311.505 179.861 310.528 180.838C309.551 181.327 309.062 182.304 308.574 183.28C306.62 187.188 304.666 191.096 302.712 195.004C300.758 198.912 298.316 203.308 297.339 207.704C296.362 212.1 297.339 225.777 297.339 226.266C297.339 229.197 302.224 234.57 302.224 235.058C302.712 236.035 303.689 237.012 304.666 237.989C306.131 238.966 307.108 239.943 307.597 241.897C309.062 247.27 311.016 252.155 311.505 257.528C312.482 261.924 311.016 267.786 311.993 272.182" stroke="white" stroke-miterlimit="10" stroke-linecap="round" stroke-linejoin="round"/>
                <path id="Vector_21" d="M361.328 259.482C360.351 256.063 361.328 248.736 363.282 245.805C364.747 243.362 367.678 243.362 370.609 242.874C372.563 242.385 375.494 241.408 376.471 239.455C378.424 236.524 374.028 234.57 375.005 231.639C375.494 230.662 376.471 230.174 376.471 229.197C376.959 227.731 375.982 225.777 374.517 225.289C375.005 224.8 375.005 223.335 375.494 222.847C375.005 221.87 374.028 220.893 373.54 219.427C373.051 217.962 373.54 217.473 374.517 216.496C375.494 215.519 375.982 215.519 376.959 214.543C378.424 212.1 371.097 207.704 369.632 206.239C365.724 202.819 367.678 201.354 365.724 196.469C362.793 190.119 359.374 183.769 353.024 179.861" stroke="white" stroke-miterlimit="10" stroke-linecap="round" stroke-linejoin="round"/>
                <path id="Vector_22" d="M355.466 204.285C358.397 202.82 360.839 197.935 363.282 199.4" stroke="white" stroke-miterlimit="10" stroke-linecap="round" stroke-linejoin="round"/>
                <path id="Vector_23" d="M339.346 217.961C333.973 209.168 327.623 210.145 325.18 214.053C322.738 218.938 326.646 224.311 334.461 226.753C337.392 227.73 342.765 232.127 342.765 227.73" stroke="white" stroke-miterlimit="10" stroke-linecap="round" stroke-linejoin="round"/>
                <path id="Vector_24" d="M331.871 215.574C327.077 214.56 327.453 218.03 328.865 220.149C330.278 222.267 335.221 222.267 337.34 223.68" stroke="white" stroke-miterlimit="10" stroke-linecap="round" stroke-linejoin="round"/>
                <path id="Vector_25" d="M364.747 212.588C367.677 214.054 369.143 216.985 369.631 219.427C370.12 223.823 367.189 227.243 366.212 230.173" stroke="white" stroke-miterlimit="10" stroke-linecap="round" stroke-linejoin="round"/>
                <path id="Vector_26" d="M356.933 209.169C357.422 207.215 360.841 203.308 363.283 204.773" stroke="white" stroke-miterlimit="10" stroke-linecap="round" stroke-linejoin="round"/>
                <path id="Vector_27" d="M369.631 227.242C372.562 227.731 374.028 226.265 375.005 225.777" stroke="white" stroke-miterlimit="10" stroke-linecap="round" stroke-linejoin="round"/>
                <path id="Vector_28" d="M354.979 181.815C348.629 177.907 343.744 183.769 341.79 186.211C338.859 190.119 342.279 194.027 340.813 198.423C340.325 199.4 339.836 200.866 339.836 201.842C339.836 204.773 343.256 207.216 344.233 210.146C345.21 213.566 341.79 215.52 340.325 218.45" stroke="white" stroke-miterlimit="10" stroke-linecap="round" stroke-linejoin="round"/>
                <path id="Vector_29" d="M363.028 208.796C363.562 208.454 363.522 207.44 362.94 206.532C362.358 205.623 361.453 205.164 360.919 205.506C360.385 205.848 360.425 206.862 361.007 207.771C361.589 208.679 362.494 209.138 363.028 208.796Z" stroke="white" stroke-miterlimit="10" stroke-linecap="round" stroke-linejoin="round"/>
                <path id="Vector_30" d="M348.628 244.828C353.513 245.316 360.84 245.805 367.19 243.362" stroke="white" stroke-miterlimit="10" stroke-linecap="round" stroke-linejoin="round"/>
                <path id="Vector_31" d="M339.348 313.214C347.652 338.126 369.144 357.665 382.333 368.411" stroke="white" stroke-miterlimit="10" stroke-linecap="round" stroke-linejoin="round"/>
                <path id="Vector_32" d="M230.906 252.155C231.883 253.62 234.326 257.04 234.326 258.994C233.349 266.809 239.21 269.74 236.28 276.579C235.303 279.021 226.999 280.975 220.649 281.952C216.741 282.44 211.856 282.44 206.483 280.975" stroke="white" stroke-miterlimit="10" stroke-linecap="round" stroke-linejoin="round"/>
                <path id="Vector_33" d="M207.46 227.243C207.46 227.243 214.299 229.197 221.138 237.501C227.976 245.805 226.022 244.339 226.022 247.27" stroke="white" stroke-miterlimit="10" stroke-linecap="round" stroke-linejoin="round"/>
                <path id="Vector_34" d="M212.044 244.863C212.533 245.351 213.021 245.84 212.533 246.817C212.044 247.794 211.555 247.794 210.578 247.306C210.09 247.306 209.601 246.329 209.601 245.84" stroke="white" stroke-miterlimit="10" stroke-linecap="round" stroke-linejoin="round"/>
                <path id="Vector_35" d="M215.275 246.292C213.81 245.315 212.345 243.85 210.879 243.85C209.414 243.85 207.948 245.315 206.971 246.292L206.483 246.781" stroke="white" stroke-miterlimit="10" stroke-linecap="round" stroke-linejoin="round"/>
                <path id="Vector_36" d="M222.604 239.454C221.627 240.431 221.139 242.385 222.116 243.362C222.604 244.828 223.581 245.804 225.046 246.781C226.512 247.758 227.489 248.247 228.954 248.735C229.931 249.224 231.396 250.201 231.396 251.666C231.396 253.132 229.931 253.62 229.443 254.597" stroke="white" stroke-miterlimit="10" stroke-linecap="round" stroke-linejoin="round"/>
                <path id="Vector_37" d="M207.459 226.754C204.04 225.777 200.132 226.754 197.69 228.708C195.247 231.15 193.293 234.57 193.782 237.989C193.782 240.431 194.759 242.874 193.293 244.828C192.316 246.293 190.851 246.781 189.386 248.247C187.92 249.712 187.432 252.155 187.432 254.108C187.432 256.062 188.409 258.016 188.897 260.459C184.989 258.505 177.662 256.062 175.708 262.413C174.243 268.274 181.082 274.136 185.966 276.09C186.943 276.578 188.409 276.578 189.386 276.578C190.363 276.09 191.34 275.113 190.851 273.647" stroke="white" stroke-miterlimit="10" stroke-linecap="round" stroke-linejoin="round"/>
                <path id="Vector_38" d="M226.509 255.573V255.085C225.532 255.085 224.555 256.062 224.067 256.062C222.601 256.55 221.136 256.062 220.159 255.085C219.182 254.108 219.182 252.154 220.159 251.177" stroke="white" stroke-miterlimit="10" stroke-linecap="round" stroke-linejoin="round"/>
                <path id="Vector_39" d="M191.342 273.647C195.738 282.44 199.646 279.509 199.157 284.882C198.669 288.301 199.157 289.278 198.18 296.605C196.226 308.329 180.595 313.702 176.199 320.54C163.499 339.591 169.36 366.457 166.918 395.277C164.476 412.862 153.729 438.751 149.333 455.847L170.826 462.686" stroke="white" stroke-miterlimit="10" stroke-linecap="round" stroke-linejoin="round"/>
                <path id="Vector_40" d="M229.931 280.974C228.465 287.813 228.465 294.652 228.465 301.49C228.465 305.886 225.046 310.283 221.138 312.237C213.323 315.656 205.019 311.748 198.18 307.84" stroke="white" stroke-miterlimit="10" stroke-linecap="round" stroke-linejoin="round"/>
                <path id="Vector_41" d="M223.579 266.808C225.533 265.831 225.533 265.831 226.998 265.343C227.975 264.854 228.952 264.366 229.929 264.366C230.906 264.366 231.883 264.366 232.86 263.389" stroke="white" stroke-miterlimit="10" stroke-linecap="round" stroke-linejoin="round"/>
                <path id="Vector_42" d="M217.195 253.976C220.11 250.793 219.409 245.406 215.628 241.945C211.848 238.484 206.421 238.258 203.506 241.442C200.591 244.625 201.293 250.012 205.073 253.473C208.853 256.934 214.28 257.16 217.195 253.976Z" stroke="white" stroke-miterlimit="10" stroke-linecap="round" stroke-linejoin="round"/>
                <path id="Vector_43" d="M221.137 240.431C220.649 236.524 223.091 234.081 226.511 235.058C229.93 236.035 233.349 239.943 233.838 243.851C234.326 247.758 231.884 250.201 228.465 249.224" stroke="white" stroke-miterlimit="10" stroke-linecap="round" stroke-linejoin="round"/>
                <path id="Vector_44" d="M180.595 266.808C179.618 265.343 180.107 263.389 181.572 262.901C183.038 262.412 184.991 263.389 184.991 264.854C184.503 265.831 184.014 266.32 184.014 267.297C184.014 268.274 184.014 269.251 184.991 269.739C185.968 270.228 186.945 270.228 187.922 270.716" stroke="white" stroke-miterlimit="10" stroke-linecap="round" stroke-linejoin="round"/>
                <path id="Vector_45" d="M217.23 241.897C218.207 241.408 220.65 240.92 221.627 240.431" stroke="white" stroke-miterlimit="10" stroke-linecap="round" stroke-linejoin="round"/>
                <path id="Vector_46" d="M204.041 225.777C193.783 218.449 181.571 225.777 174.244 234.081C170.824 237.988 167.405 242.873 166.428 248.246C164.963 256.062 168.382 263.877 168.382 271.693C168.382 288.789 153.728 300.513 172.778 326.89" stroke="white" stroke-miterlimit="10" stroke-linecap="round" stroke-linejoin="round"/>
                <path id="Vector_47" d="M233.838 362.061C232.861 362.061 232.372 363.527 232.861 364.504" stroke="white" stroke-miterlimit="10" stroke-linecap="round" stroke-linejoin="round"/>
                <path id="Vector_48" d="M231.884 368.41C231.884 368.899 231.884 369.387 231.884 369.387C231.884 369.876 231.884 368.41 231.884 368.41Z" stroke="white" stroke-miterlimit="10" stroke-linecap="round" stroke-linejoin="round"/>
                <path id="Vector_49" d="M250.445 395.277C249.468 394.788 248.491 392.346 248.003 387.461" stroke="#1E1E1E" stroke-miterlimit="10" stroke-linecap="round" stroke-linejoin="round"/>
                <path id="Vector_50" d="M378.425 673.217C376.96 678.102 377.937 682.01 379.402 684.94" stroke="white" stroke-miterlimit="10" stroke-linecap="round" stroke-linejoin="round"/>
                <path id="Vector_51" d="M359.375 672.728C359.864 677.124 359.375 681.032 358.887 684.94" stroke="white" stroke-miterlimit="10" stroke-linecap="round" stroke-linejoin="round"/>
                <path id="Vector_52" d="M354.491 710.341C354.491 701.548 355.956 692.756 358.398 684.452C357.422 686.894 361.818 694.71 365.237 692.756C367.191 691.779 369.633 690.802 370.61 689.337C372.076 687.383 371.099 684.452 374.518 683.963C376.96 683.475 378.914 684.94 380.868 686.406C382.334 687.871 383.311 690.314 384.776 692.267C390.149 701.06 398.453 703.991 406.269 710.341C411.642 714.737 408.711 717.179 403.338 718.645C397.476 720.11 391.615 721.576 385.753 720.11C382.334 719.133 379.403 717.668 376.472 716.203C370.61 713.272 360.841 711.318 354.491 710.341Z" stroke="white" stroke-miterlimit="10" stroke-linecap="round" stroke-linejoin="round"/>
                <path id="Vector_53" d="M335.928 686.406C335.928 688.359 336.416 690.802 336.905 692.756" stroke="white" stroke-miterlimit="10" stroke-linecap="round" stroke-linejoin="round"/>
                <path id="Vector_54" d="M320.298 682.986C320.787 687.871 320.298 692.756 318.344 697.64C317.367 700.571 317.367 703.502 316.879 705.945C316.391 709.852 315.902 714.249 315.414 718.156C318.833 720.11 319.81 725.483 322.252 728.903C324.206 731.345 327.137 732.322 330.068 732.81C335.441 733.787 340.814 733.787 346.187 732.81C347.164 732.81 348.141 732.322 348.63 731.833C349.118 731.345 349.607 730.368 349.607 729.88C350.584 726.949 350.584 723.529 349.607 720.11C348.141 715.714 344.233 712.295 341.791 707.898C339.837 704.479 338.86 700.571 337.883 697.152C337.395 695.687 336.906 693.733 335.441 693.244C334.952 692.756 333.975 692.756 332.999 692.756C331.045 692.756 328.602 692.756 327.137 693.733C325.183 694.71 324.206 697.152 324.695 698.617C322.741 700.083 320.298 701.06 318.344 702.037" stroke="white" stroke-miterlimit="10" stroke-linecap="round" stroke-linejoin="round"/>
                <path id="Vector_55" d="M194.271 654.166C195.248 661.982 196.225 666.378 196.713 674.193" stroke="white" stroke-miterlimit="10" stroke-linecap="round" stroke-linejoin="round"/>
                <path id="Vector_56" d="M213.81 652.212C213.81 660.028 214.298 665.89 214.787 673.705" stroke="white" stroke-miterlimit="10" stroke-linecap="round" stroke-linejoin="round"/>
                <path id="Vector_57" d="M221.626 700.571C221.138 691.778 219.184 682.986 216.253 674.682C217.23 677.124 213.322 684.94 209.903 682.986C207.949 682.009 205.507 681.52 204.53 680.055C203.064 678.101 203.553 675.17 200.133 674.682C197.691 674.193 195.737 675.659 194.272 677.613C192.806 679.567 191.829 681.52 190.852 683.474C185.968 692.267 177.664 695.686 170.337 702.525C164.963 707.409 167.894 709.363 173.267 710.34C179.129 711.806 185.479 712.783 190.852 710.829C194.272 709.852 197.203 707.898 200.133 706.432C205.995 704.479 215.276 702.036 221.626 700.571Z" stroke="white" stroke-miterlimit="10" stroke-linecap="round" stroke-linejoin="round"/>
                <path id="Vector_58" d="M182.059 694.222C183.524 694.71 185.478 694.71 187.432 694.71" stroke="white" stroke-miterlimit="10" stroke-linecap="round" stroke-linejoin="round"/>
                <path id="Vector_59" d="M184.991 691.779C186.945 691.779 188.41 691.779 190.364 691.29" stroke="white" stroke-miterlimit="10" stroke-linecap="round" stroke-linejoin="round"/>
                <path id="Vector_60" d="M187.433 688.848C189.387 688.848 191.829 688.359 193.783 688.359" stroke="white" stroke-miterlimit="10" stroke-linecap="round" stroke-linejoin="round"/>
                <path id="Vector_61" d="M190.364 684.94C192.806 684.94 194.76 684.94 197.202 684.94" stroke="white" stroke-miterlimit="10" stroke-linecap="round" stroke-linejoin="round"/>
                <path id="Vector_62" d="M193.295 679.079C196.226 680.056 198.668 681.032 201.11 682.498" stroke="white" stroke-miterlimit="10" stroke-linecap="round" stroke-linejoin="round"/>
                <path id="Vector_63" d="M243.118 660.516C243.118 666.866 243.118 673.217 241.165 679.078" stroke="white" stroke-miterlimit="10" stroke-linecap="round" stroke-linejoin="round"/>
                <path id="Vector_64" d="M259.238 660.029C258.75 662.471 258.75 662.471 258.75 664.913C257.773 671.263 257.285 678.102 259.727 683.964C260.704 686.895 260.704 689.825 261.192 692.268C261.681 696.175 262.169 700.572 262.658 704.479C259.238 706.433 258.261 711.807 255.331 714.737C253.377 716.691 250.446 718.157 247.515 718.645C242.142 719.622 236.769 719.622 231.396 718.157C230.419 718.157 229.442 717.668 228.953 717.18C228.465 716.691 227.976 715.714 227.976 715.226C226.999 712.295 226.999 708.876 228.465 705.456C230.419 701.06 234.326 697.641 236.28 693.733C238.234 690.314 239.211 686.406 240.188 682.987C240.677 681.521 241.165 679.567 243.119 679.079C244.096 678.591 244.584 678.59 245.561 678.59C247.515 678.59 249.957 678.59 251.423 679.567C253.377 680.544 254.354 682.987 253.377 684.941C255.331 686.406 257.285 687.871 259.727 688.36" stroke="white" stroke-miterlimit="10" stroke-linecap="round" stroke-linejoin="round"/>
                <path id="Vector_65" d="M239.7 685.428C244.096 684.451 249.47 685.917 252.889 688.848" stroke="white" stroke-miterlimit="10" stroke-linecap="round" stroke-linejoin="round"/>
                <path id="Vector_66" d="M236.28 699.594C239.7 700.082 242.63 700.571 246.05 701.548" stroke="white" stroke-miterlimit="10" stroke-linecap="round" stroke-linejoin="round"/>
                <path id="Vector_67" d="M239.211 699.106C241.654 698.617 243.608 698.129 246.05 698.129C243.608 696.175 241.654 694.709 239.211 692.756C242.631 691.29 246.05 690.802 249.469 691.29C246.05 688.848 244.096 688.359 239.7 686.406" stroke="white" stroke-miterlimit="10" stroke-linecap="round" stroke-linejoin="round"/>
                <path id="Vector_68" d="M336.417 229.196C336.417 229.196 337.394 242.385 329.09 249.712C320.786 257.039 322.251 258.993 322.251 258.993" stroke="white" stroke-miterlimit="10" stroke-linecap="round" stroke-linejoin="round"/>
                <path id="Vector_69" d="M271.45 475.386C270.473 498.833 263.634 540.841 263.146 565.753C281.219 575.034 297.827 577.477 319.809 578.942C335.928 519.348 342.278 481.736 350.094 425.073C357.421 371.83 348.628 323.471 323.228 275.113L319.32 268.763" stroke="#1E1E1E" stroke-miterlimit="10" stroke-linecap="round" stroke-linejoin="round"/>
                <path id="Vector_70" d="M372.074 269.74C375.493 271.693 378.912 273.647 382.332 277.067C386.728 280.974 399.428 300.513 405.29 325.425" stroke="white" stroke-miterlimit="10" stroke-linecap="round" stroke-linejoin="round"/>
                <path id="Vector_71" d="M361.329 259.482C362.306 264.367 366.702 266.809 372.075 270.228" stroke="white" stroke-miterlimit="10" stroke-linecap="round" stroke-linejoin="round"/>
                <path id="Vector_72" d="M279.753 341.056C281.218 333.729 282.195 326.89 283.661 319.563C286.103 305.886 287.568 286.347 307.596 274.624C313.457 271.204 321.273 268.762 327.135 265.831C336.416 260.947 333.407 252.317 332.43 245.967" stroke="white" stroke-miterlimit="10" stroke-linecap="round" stroke-linejoin="round"/>
                <path id="Vector_73" d="M315.412 354.733C309.062 398.207 299.293 443.635 294.408 483.69C282.685 480.271 274.381 476.363 262.657 472.943C266.077 422.631 270.473 379.645 277.8 337.148" stroke="#1E1E1E" stroke-miterlimit="10" stroke-linecap="round" stroke-linejoin="round"/>
                <path id="Vector_74" d="M366.703 266.809C366.703 266.809 381.357 273.159 390.15 354.246" stroke="white" stroke-miterlimit="10" stroke-linecap="round" stroke-linejoin="round"/>
                <path id="Vector_75" d="M332.021 291.232C332.021 291.232 356.444 293.674 365.725 291.72C374.518 289.766 376.96 287.812 376.96 287.812" stroke="white" stroke-miterlimit="10" stroke-linecap="round" stroke-linejoin="round"/>
                <path id="Vector_76" d="M293.919 576.5C293.919 576.5 287.081 657.586 287.081 679.567C287.081 679.567 316.877 678.59 322.25 684.452C327.624 690.314 346.674 683.475 350.582 682.986C350.582 682.986 370.121 521.302 370.121 472.944" stroke="white" stroke-miterlimit="10" stroke-linecap="round" stroke-linejoin="round"/>
                <path id="Vector_77" d="M399.918 572.591C399.918 572.591 393.568 653.189 390.149 674.682C390.149 674.682 375.983 672.239 369.633 673.705C363.283 675.17 353.514 670.286 353.514 670.286" stroke="white" stroke-miterlimit="10" stroke-linecap="round" stroke-linejoin="round"/>
                <path id="Vector_78" d="M124.909 542.794C125.398 541.329 126.375 534.49 126.375 534.49L118.071 533.513C118.559 528.14 119.048 524.721 119.048 524.721H110.744C110.744 526.675 110.744 529.117 110.255 533.025L101.951 532.537C101.951 535.467 100.486 540.841 100.486 540.841L108.79 541.817C108.301 545.725 107.324 550.121 107.324 550.121L115.14 551.098C115.628 549.144 116.117 545.237 116.605 542.794H124.909Z" fill="white"/>
                <path id="Vector_79" d="M461.466 573.08L460.977 583.338C460.977 583.338 456.093 590.665 438.996 592.13C421.9 593.596 412.619 587.734 411.153 584.315C409.688 580.895 410.665 572.591 410.665 572.591L461.466 573.08Z" stroke="white" stroke-miterlimit="10" stroke-linecap="round" stroke-linejoin="round"/>
                <path id="Vector_80" d="M412.619 487.598H408.223" stroke="white" stroke-miterlimit="10" stroke-linecap="round" stroke-linejoin="round"/>
                <path id="Vector_81" d="M434.111 477.828L444.369 478.805C444.369 478.805 449.253 480.759 446.323 489.063L435.576 488.086" stroke="white" stroke-miterlimit="10" stroke-linecap="round" stroke-linejoin="round"/>
                <path id="Vector_82" d="M394.055 643.42C397.474 668.82 399.428 683.474 399.428 683.474C399.428 683.474 398.939 689.336 404.801 688.847C410.663 688.359 415.059 688.847 415.547 692.755C416.036 696.663 417.501 697.64 427.271 697.151C437.529 696.663 484.91 699.105 484.91 699.105C484.91 699.105 486.864 698.128 487.353 694.221C487.841 690.313 490.284 690.801 497.122 689.824C503.961 688.847 505.426 684.94 504.449 673.705C503.472 662.47 492.237 576.499 491.749 572.591" stroke="white" stroke-miterlimit="10" stroke-linecap="round" stroke-linejoin="round"/>
                <path id="Vector_83" d="M470.747 574.057C470.747 574.057 481.981 572.103 483.447 583.827" stroke="white" stroke-miterlimit="10" stroke-linecap="round" stroke-linejoin="round"/>
                <path id="Vector_84" d="M491.75 572.103C491.75 572.103 488.331 561.357 476.119 561.357C465.861 561.357 427.76 559.891 409.687 560.868" stroke="white" stroke-miterlimit="10" stroke-linecap="round" stroke-linejoin="round"/>
                <path id="Vector_85" d="M452.186 581.872L442.417 489.551" stroke="white" stroke-miterlimit="10" stroke-linecap="round" stroke-linejoin="round"/>
                <path id="Vector_86" d="M420.434 581.384L409.199 488.575" stroke="white" stroke-miterlimit="10" stroke-linecap="round" stroke-linejoin="round"/>
                <path id="Vector_87" d="M487.354 618.509L493.704 668.333" stroke="white" stroke-miterlimit="10" stroke-linecap="round" stroke-linejoin="round"/>
                <path id="Vector_88" d="M423.365 462.685C423.365 462.685 422.388 466.593 431.669 471.966C434.111 473.432 436.553 485.155 435.088 488.574C433.622 491.994 429.226 491.017 428.738 490.528" stroke="white" stroke-miterlimit="10" stroke-linecap="round" stroke-linejoin="round"/>
                <path id="Vector_89" d="M411.153 464.151C411.153 464.151 412.618 470.989 409.199 471.478" stroke="white" stroke-miterlimit="10" stroke-linecap="round" stroke-linejoin="round"/>
                <path id="Vector_90" d="M407.245 478.316C407.245 478.316 412.618 477.339 413.106 481.247C413.595 485.155 411.641 488.085 414.572 491.016C416.526 493.459 421.899 491.993 421.899 491.993C426.783 492.97 428.249 489.551 428.249 489.551" stroke="white" stroke-miterlimit="10" stroke-linecap="round" stroke-linejoin="round"/>
                <path id="Vector_91" d="M404.803 688.848C404.803 688.848 399.43 694.221 405.292 702.036L415.061 702.525C415.061 702.525 417.504 702.036 417.015 695.686" stroke="white" stroke-miterlimit="10" stroke-linecap="round" stroke-linejoin="round"/>
                <path id="Vector_92" d="M490.285 691.779C490.285 691.779 485.888 700.571 490.773 703.502C492.727 704.967 494.681 703.502 496.146 703.013C498.589 702.525 500.542 702.525 500.542 702.525L501.031 702.036C504.45 694.709 500.542 689.825 500.542 689.825" stroke="white" stroke-miterlimit="10" stroke-linecap="round" stroke-linejoin="round"/>
                <path id="Vector_93" d="M412.617 689.825C412.617 689.825 408.221 696.175 414.083 701.06" stroke="white" stroke-miterlimit="10" stroke-linecap="round" stroke-linejoin="round"/>
                <g id="Group_4">
                    <path id="Vector_94" d="M417.994 295.629C417.994 295.629 419.948 275.114 418.971 268.275C417.994 261.436 421.413 263.879 422.39 264.856C423.367 265.833 424.832 272.671 424.344 281.464" stroke="white" stroke-miterlimit="10" stroke-linecap="round" stroke-linejoin="round"/>
                    <path id="Vector_95" d="M413.109 314.679C413.109 314.679 415.062 305.887 412.62 301.491C410.666 297.094 412.132 291.233 410.178 283.906C408.712 279.021 413.597 279.998 415.551 284.883C416.528 287.325 417.993 291.721 417.993 291.721" stroke="white" stroke-miterlimit="10" stroke-linecap="round" stroke-linejoin="round"/>
                    <path id="Vector_96" d="M423.856 289.767C423.856 289.767 425.81 271.205 425.321 261.924C425.321 261.924 428.741 260.947 430.206 265.832C431.672 270.717 431.183 290.256 430.695 292.209" stroke="white" stroke-miterlimit="10" stroke-linecap="round" stroke-linejoin="round"/>
                    <path id="Vector_97" d="M430.206 291.721C430.206 291.721 434.602 274.136 434.114 268.275C434.114 266.809 438.022 267.786 438.51 272.182C438.999 276.09 436.556 293.675 435.579 297.583C435.579 297.583 438.999 287.813 439.976 283.906C440.952 279.998 444.372 284.394 443.883 287.813C443.395 291.233 440.464 301.491 437.533 309.306C435.579 314.679 427.764 316.633 426.298 322.006" stroke="white" stroke-miterlimit="10" stroke-linecap="round" stroke-linejoin="round"/>
                </g>
                <path id="Vector_98" d="M416.036 580.407C416.036 580.407 419.455 583.827 424.829 580.896" stroke="white" stroke-miterlimit="10" stroke-linecap="round" stroke-linejoin="round"/>
                <path id="Vector_99" d="M447.3 581.384C447.3 581.384 451.208 584.314 456.093 580.895" stroke="white" stroke-miterlimit="10" stroke-linecap="round" stroke-linejoin="round"/>
                <path id="Vector_100" d="M193.295 306.863C193.295 306.863 193.295 370.853 187.922 398.696C182.548 426.539 177.664 542.306 184.502 572.103C184.502 572.103 170.825 570.149 163.498 578.453C163.498 578.453 168.871 452.916 175.71 420.189" stroke="white" stroke-miterlimit="10" stroke-linecap="round" stroke-linejoin="round"/>
                <path id="Vector_101" d="M259.239 371.341C259.239 371.341 265.589 376.715 269.985 382.088" stroke="#1E1E1E" stroke-miterlimit="10" stroke-linecap="round" stroke-linejoin="round"/>
                <path id="Vector_102" d="M250.934 395.276C250.934 395.276 260.704 407.976 265.588 415.792" stroke="#1E1E1E" stroke-miterlimit="10" stroke-linecap="round" stroke-linejoin="round"/>
                <path id="Vector_103" d="M174.732 572.591C174.732 572.591 181.083 636.093 183.525 650.747C183.525 650.747 193.783 659.051 219.183 650.747C219.183 650.747 235.303 666.378 265.588 659.051L270.961 578.941" stroke="white" stroke-miterlimit="10" stroke-linecap="round" stroke-linejoin="round"/>
                <path id="Vector_104" d="M200.622 446.078C200.622 446.078 214.299 449.497 220.161 447.055" stroke="white" stroke-miterlimit="10" stroke-linecap="round" stroke-linejoin="round"/>
                <path id="Vector_105" d="M219.185 650.747L212.834 488.086" stroke="white" stroke-miterlimit="10" stroke-linecap="round" stroke-linejoin="round"/>
                <path id="Vector_106" d="M191.829 258.505L201.11 245.805" stroke="white" stroke-miterlimit="10" stroke-linecap="round" stroke-linejoin="round"/>
                <path id="Vector_107" d="M354.978 428.981C354.978 428.981 376.959 431.912 388.682 428.492" stroke="white" stroke-miterlimit="10" stroke-linecap="round" stroke-linejoin="round"/>
                <path id="Vector_108" d="M136.631 487.598C136.631 487.598 127.838 484.667 126.861 494.925C125.884 505.183 125.396 510.067 125.396 510.067" stroke="white" stroke-miterlimit="10" stroke-linecap="round" stroke-linejoin="round"/>
                <path id="Vector_109" d="M130.28 508.113L132.234 492.971C132.234 492.971 133.211 491.505 137.119 492.482" stroke="white" stroke-miterlimit="10" stroke-linecap="round" stroke-linejoin="round"/>
                <path id="Vector_110" d="M159.103 493.459C159.103 493.459 164.476 491.994 163.987 497.367C163.499 502.252 162.033 512.998 162.033 512.998" stroke="white" stroke-miterlimit="10" stroke-linecap="round" stroke-linejoin="round"/>
                <path id="Vector_111" d="M161.545 489.063C161.545 489.063 167.407 488.086 167.895 492.482" stroke="white" stroke-miterlimit="10" stroke-linecap="round" stroke-linejoin="round"/>
                <path id="Vector_112" d="M166.428 513.975L98.5303 510.067C98.5303 510.067 88.2724 506.648 86.807 523.744C85.83 540.841 79.4799 575.034 84.3646 582.849C89.2493 590.665 142.004 589.688 152.751 589.688C163.497 589.688 176.197 591.642 176.197 591.642" stroke="white" stroke-miterlimit="10" stroke-linecap="round" stroke-linejoin="round"/>
                <path id="Vector_113" d="M413.087 366.609C416.507 392.498 425.299 456.976 426.276 460.884C416.995 462.35 413.576 463.815 406.737 465.769" stroke="white" stroke-miterlimit="10" stroke-linecap="round" stroke-linejoin="round"/>
                <path id="Vector_114" d="M379.403 374.272C389.172 359.129 404.315 326.89 412.13 316.144C423.365 319.563 419.946 320.052 430.204 325.425C422.877 347.406 399.918 401.138 382.822 400.161C378.426 400.161 370.61 396.742 353.514 381.111" stroke="white" stroke-miterlimit="10" stroke-linecap="round" stroke-linejoin="round"/>
                <path id="Vector_115" d="M406.721 467.831C405.256 436.569 403.79 405.307 401.836 387.233" stroke="#1E1E1E" stroke-miterlimit="10" stroke-linecap="round" stroke-linejoin="round"/>
                <path id="Vector_116" d="M395.033 393.812C397.475 431.912 395.033 488.086 395.521 551.588C395.521 551.588 395.033 568.196 394.544 574.057" stroke="white" stroke-miterlimit="10" stroke-linecap="round" stroke-linejoin="round"/>
                <g id="Group_5">
                    <path id="Vector_117" d="M237.257 346.918C233.838 345.453 231.884 347.895 233.838 350.826C235.303 353.268 237.745 354.734 239.211 357.176C232.861 355.222 231.395 354.734 228.953 354.245C227.976 354.245 227.487 353.757 226.51 353.757C221.626 353.757 220.16 358.153 223.091 359.618C225.045 360.595 226.51 361.572 228.953 362.549" stroke="white" stroke-miterlimit="10" stroke-linecap="round" stroke-linejoin="round"/>
                    <path id="Vector_118" d="M258.362 374.81C254.454 371.879 252.989 367.971 251.524 364.063C249.081 357.225 244.685 349.898 237.358 346.967" stroke="white" stroke-miterlimit="10" stroke-linecap="round" stroke-linejoin="round"/>
                    <path id="Vector_119" d="M222.603 360.595C221.137 362.061 220.16 363.038 221.626 364.991C223.091 366.945 225.534 367.922 227.976 367.922" stroke="white" stroke-miterlimit="10" stroke-linecap="round" stroke-linejoin="round"/>
                    <path id="Vector_120" d="M222.115 366.946C220.649 368.411 220.161 370.365 221.626 371.83C223.091 373.296 225.534 373.784 226.999 374.273" stroke="white" stroke-miterlimit="10" stroke-linecap="round" stroke-linejoin="round"/>
                    <path id="Vector_121" d="M223.09 372.807C222.113 377.203 226.021 377.692 228.952 378.669C232.371 379.646 236.279 381.111 239.698 382.088C242.14 383.065 244.583 383.553 247.025 385.019C248.979 386.484 252.398 389.904 253.864 391.369" stroke="white" stroke-miterlimit="10" stroke-linecap="round" stroke-linejoin="round"/>
                </g>
                <path id="Vector_122" d="M259.238 371.341C261.68 376.226 254.842 398.207 250.934 395.276" stroke="#1E1E1E" stroke-miterlimit="10" stroke-linecap="round" stroke-linejoin="round"/>
                <path id="Vector_123" d="M397.72 343.208C397.231 333.927 396.743 330.019 394.3 319.273" stroke="#1E1E1E" stroke-miterlimit="10" stroke-linecap="round" stroke-linejoin="round"/>
                <path id="Vector 67" d="M360.107 209.885C361.185 209.826 363.542 209.496 364.342 208.649" stroke="white" stroke-width="0.75" stroke-linecap="round"/>
                <path id="Vector 68" d="M209.538 248.665C210.398 248.858 212.65 248.922 214.776 247.626" stroke="white" stroke-width="0.75" stroke-linecap="round"/>
            </g>
            <g id="Group_6">
                <path id="Vector_124" d="M321.397 64.3396C321.397 64.3396 390.355 47.1003 396.687 44.6375C403.02 42.1748 417.093 36.1938 417.445 31.9719C417.797 27.7501 401.965 26.3428 397.391 26.3428C392.817 26.3428 342.859 37.9529 342.859 37.9529" stroke="white" stroke-width="0.5" stroke-miterlimit="10" stroke-linecap="round" stroke-linejoin="round"/>
                <path id="Vector_125" d="M336.878 36.1937C316.12 28.1018 286.919 19.658 267.569 9.80703C267.569 9.80703 262.643 3.12241 262.291 1.3633L259.125 1.01147C259.125 1.01147 262.995 10.8625 265.106 12.6216C267.217 14.3807 293.252 33.7309 293.252 33.7309C293.252 33.7309 291.493 34.7864 291.141 36.5455C291.141 38.3046 296.77 36.5455 296.77 36.5455L308.732 46.0447C308.732 46.0447 282.345 53.433 279.179 54.1366C276.012 54.4884 272.846 55.8957 268.976 51.322C265.106 46.7484 255.607 35.49 255.607 35.49L249.978 38.3046L254.903 55.8957L235.553 48.5075L233.442 49.2111L253.144 65.3949C253.144 65.3949 252.792 66.8022 254.199 67.5059C255.607 68.5613 257.366 69.265 257.366 69.265L266.865 79.116L269.328 78.4123V70.3204C269.328 70.3204 285.512 73.135 295.714 69.9686C305.917 66.8022 320.694 63.284 323.508 63.9876C326.675 64.6913 333.711 66.0986 335.47 68.2095C337.229 70.6723 340.748 75.2459 340.748 75.2459C340.748 75.2459 337.933 77.0051 338.637 77.7087C339.34 78.4123 343.21 78.4123 343.914 77.7087L351.654 88.967L350.247 95.2998H351.654C351.654 95.2998 355.172 88.967 357.635 86.8561L355.524 70.3204C355.524 70.3204 360.098 69.9686 362.912 68.2095C366.431 65.7467 363.264 60.4694 361.505 60.1176C359.746 59.7658 360.801 59.0621 353.765 61.5249L353.061 55.5439" stroke="white" stroke-width="0.5" stroke-miterlimit="10" stroke-linecap="round" stroke-linejoin="round"/>
                <path id="Vector_126" d="M339.338 36.1938C339.338 36.1938 342.857 36.5457 342.857 42.5266" stroke="white" stroke-width="0.5" stroke-miterlimit="10" stroke-linecap="round" stroke-linejoin="round"/>
                <path id="Vector_127" d="M359.042 63.2837C359.042 65.3946 360.097 67.1537 362.208 67.8574" stroke="white" stroke-width="0.5" stroke-miterlimit="10" stroke-linecap="round" stroke-linejoin="round"/>
                <path id="Vector_128" d="M337.229 38.6565C337.229 40.7674 338.285 42.5265 340.396 43.2302" stroke="white" stroke-width="0.5" stroke-miterlimit="10" stroke-linecap="round" stroke-linejoin="round"/>
                <path id="Vector_129" d="M338.988 35.8418C336.525 36.1936 334.414 36.8973 332.303 37.9527C330.544 38.6564 328.785 39.36 327.026 40.0637C326.322 40.4155 325.618 40.7673 324.915 41.1191C324.211 41.471 323.859 42.1746 323.859 43.2301C323.859 44.2855 324.563 44.6374 325.267 44.6374" stroke="white" stroke-width="0.5" stroke-miterlimit="10" stroke-linecap="round" stroke-linejoin="round"/>
                <path id="Vector_130" d="M244.348 76.3013C168.003 95.6515 91.6574 115.002 15.312 134" stroke="white" stroke-width="0.5" stroke-miterlimit="10" stroke-linecap="round" stroke-linejoin="round"/>
                <path id="Vector_131" d="M238.015 73.4873C157.8 79.4683 78.2879 92.1339 0.535156 112.188" stroke="white" stroke-width="0.5" stroke-miterlimit="10" stroke-linecap="round" stroke-linejoin="round"/>
            </g>
        </g>
        <g id="Comment Vika">
            <path id="Vika" d="M441.273 411.149L442.24 410.242L451.698 428.273L455.73 409.799L456.73 409.831L452.632 431.304L451.857 432.061L441.273 411.149ZM458.687 419.961C458.937 419.969 459.145 419.965 459.312 419.95C459.5 419.935 459.653 420.044 459.771 420.277C459.803 421.216 459.845 422.176 459.897 423.158C459.95 424.118 460.002 425.089 460.054 426.07C460.106 427.052 460.126 428.043 460.115 429.043C460.125 430.023 460.105 430.981 460.054 431.917C460.05 432.042 460.016 432.114 459.953 432.133C459.889 432.172 459.795 432.18 459.671 432.155C459.567 432.152 459.432 432.137 459.266 432.111C459.12 432.106 458.953 432.122 458.764 432.157L458.687 419.961ZM457.055 414.312C457.059 414.166 457.075 414.01 457.101 413.845C457.128 413.658 457.175 413.493 457.242 413.349C457.33 413.206 457.428 413.084 457.535 412.983C457.663 412.883 457.811 412.836 457.977 412.841C458.227 412.849 458.477 412.867 458.726 412.896C458.975 412.925 459.213 412.985 459.439 413.075C459.666 413.145 459.85 413.266 459.991 413.437C460.132 413.587 460.197 413.808 460.188 414.1C460.172 414.6 459.97 415.041 459.583 415.425C459.196 415.788 458.732 415.96 458.19 415.943C457.774 415.93 457.477 415.764 457.3 415.446C457.123 415.106 457.041 414.729 457.055 414.312ZM458.861 414.526C458.799 414.524 458.766 414.575 458.763 414.679C458.759 414.784 458.789 414.837 458.851 414.839C458.935 414.841 458.978 414.791 458.981 414.686C458.985 414.582 458.945 414.529 458.861 414.526ZM462.01 431.355C462.004 430.917 461.973 430.249 461.918 429.351C461.885 428.432 461.845 427.41 461.798 426.283C461.751 425.135 461.707 423.924 461.664 422.652C461.622 421.379 461.577 420.179 461.53 419.052C461.504 417.904 461.474 416.882 461.441 415.985C461.408 415.067 461.388 414.388 461.381 413.951C461.366 413.762 461.356 413.439 461.35 412.98C461.365 412.501 461.371 412.001 461.367 411.48C461.363 410.938 461.358 410.438 461.352 409.979C461.368 409.5 461.378 409.167 461.384 408.979C461.676 408.989 461.934 409.059 462.159 409.192C462.385 409.303 462.566 409.497 462.703 409.772C462.731 410.211 462.752 410.837 462.768 411.65C462.805 412.443 462.838 413.361 462.867 414.405C462.896 415.448 462.923 416.564 462.947 417.753C462.992 418.942 463.028 420.121 463.053 421.289C463.118 421.187 463.184 421.095 463.249 421.014C463.314 420.933 463.358 420.882 463.379 420.862C463.616 420.619 463.896 420.336 464.219 420.013C464.542 419.69 464.876 419.357 465.221 419.014C465.586 418.671 465.94 418.338 466.284 418.016C466.65 417.673 466.972 417.371 467.251 417.109C467.552 416.827 467.799 416.605 467.992 416.445C468.185 416.284 468.302 416.205 468.343 416.206L469.511 416.837C469.147 417.138 468.73 417.49 468.258 417.892C467.787 418.293 467.325 418.727 466.872 419.192C466.42 419.636 465.977 420.111 465.544 420.619C465.132 421.106 464.794 421.595 464.528 422.087C464.527 422.108 464.515 422.159 464.492 422.242C464.49 422.304 464.488 422.356 464.487 422.398C464.486 422.419 464.484 422.471 464.481 422.554C464.5 422.617 464.509 422.659 464.509 422.68L471.454 431.313C471.453 431.334 471.452 431.376 471.45 431.438C471.469 431.501 471.478 431.554 471.476 431.595C471.463 431.991 471.246 432.286 470.822 432.481L463.303 423.236C463.283 423.214 463.252 423.182 463.212 423.139C463.193 423.076 463.164 423.012 463.124 422.948L463.273 429.019C463.27 429.123 463.264 429.321 463.254 429.612C463.266 429.904 463.266 430.228 463.254 430.582C463.265 430.915 463.265 431.238 463.255 431.551C463.266 431.843 463.27 432.041 463.267 432.145C462.996 432.137 462.748 432.077 462.522 431.965C462.297 431.833 462.127 431.629 462.01 431.355ZM472.502 429.846C472.54 428.659 472.89 427.805 473.553 427.285C474.237 426.765 475.11 426.522 476.172 426.556C476.588 426.569 476.973 426.592 477.326 426.624C477.7 426.657 478.053 426.72 478.383 426.814C478.714 426.908 479.032 427.044 479.339 427.22C479.667 427.397 480.003 427.648 480.347 427.972C480.349 427.909 480.353 427.784 480.359 427.597C480.387 427.389 480.404 427.171 480.411 426.942C480.419 426.713 480.425 426.505 480.431 426.317C480.438 426.109 480.443 425.963 480.445 425.88C480.437 425.504 480.442 425.025 480.46 424.442C480.48 423.838 480.447 423.222 480.363 422.594C480.3 421.967 480.132 421.368 479.858 420.796C479.606 420.225 479.172 419.784 478.556 419.472C478.119 419.458 477.711 419.518 477.331 419.652C476.952 419.786 476.572 419.93 476.192 420.084C475.812 420.239 475.432 420.383 475.052 420.517C474.674 420.63 474.265 420.679 473.828 420.665C473.845 420.145 474.015 419.723 474.338 419.4C474.682 419.056 475.087 418.798 475.551 418.626C476.015 418.453 476.498 418.343 477 418.297C477.501 418.25 477.94 418.233 478.314 418.245C478.687 418.32 479.028 418.404 479.338 418.497C479.669 418.591 479.965 418.767 480.228 419.026C480.511 419.285 480.759 419.678 480.972 420.206C481.205 420.714 481.391 421.429 481.528 422.35C481.686 423.272 481.805 424.444 481.884 425.863C481.985 427.263 482.045 428.985 482.062 431.028C482.095 431.3 481.994 431.537 481.758 431.737C481.544 431.918 481.247 432.075 480.868 432.209C480.489 432.322 480.058 432.423 479.576 432.512C479.115 432.58 478.645 432.628 478.164 432.654C477.684 432.68 477.225 432.697 476.787 432.704C476.349 432.71 475.984 432.709 475.693 432.7C475.318 432.688 474.935 432.613 474.543 432.475C474.172 432.338 473.824 432.15 473.498 431.91C473.194 431.651 472.943 431.351 472.746 431.011C472.57 430.651 472.488 430.263 472.502 429.846ZM476.632 427.79C475.582 428.048 474.842 428.379 474.412 428.782C473.983 429.164 473.783 429.543 473.812 429.919C473.863 430.296 474.102 430.648 474.529 430.974C474.957 431.28 475.481 431.495 476.103 431.619C476.725 431.722 477.403 431.692 478.138 431.528C478.874 431.343 479.584 430.969 480.269 430.408C480.038 429.796 479.803 429.33 479.563 429.009C479.324 428.668 479.061 428.41 478.775 428.234C478.489 428.058 478.17 427.943 477.817 427.89C477.464 427.837 477.069 427.804 476.632 427.79Z" fill="#88B1D5"/>
            <path id="draw:reverse/mask" d="M441.522 410.238L452.162 431.518L456.354 409.109C457.294 410.426 459.191 413.849 459.255 417.008C459.32 420.168 459.282 428.589 459.255 432.404L462.56 431.518L461.915 409.109L468.928 416.363L463.608 421.683L471.024 431.84L472.959 430.631C475.565 431.356 480.745 432.34 480.616 430.47C480.455 428.132 476.908 425.23 473.362 428.535C473.174 425.391 473.491 419.088 476.263 419.023C479.73 418.943 481.261 419.749 480.939 427.326" stroke="#1E1E1E" stroke-width="4" stroke-linecap="round"/>
            <g id="draw/arrow">
                <path id="Vector 41" d="M451.064 409.153C449.968 403.498 443.396 391.751 425.868 390" stroke="#88B1D5"/>
                <path id="Vector 303" d="M429.327 387.491L425.48 389.907L428.264 393.683" stroke="#88B1D5" stroke-linecap="round"/>
            </g>
        </g>
        <g id="Comment Karina">
            <path id="Karina" d="M107.681 634.44C107.686 634.274 107.695 633.982 107.709 633.566C107.723 633.129 107.737 632.671 107.753 632.192C107.768 631.713 107.783 631.265 107.796 630.849C107.831 630.412 107.851 630.11 107.856 629.944L108.7 629.971C108.7 629.971 108.703 630.19 108.71 630.628C108.717 631.045 108.72 631.618 108.717 632.348C108.736 633.057 108.751 633.902 108.761 634.882C108.772 635.841 108.78 636.873 108.786 637.978C108.814 639.062 108.83 640.189 108.834 641.356C108.86 642.503 108.876 643.629 108.882 644.734C108.91 645.819 108.929 646.851 108.939 647.831C108.949 648.811 108.963 649.666 108.982 650.397C108.981 650.417 108.979 650.49 108.975 650.615C108.971 650.719 108.957 650.854 108.93 651.02C108.926 651.166 108.911 651.301 108.886 651.425C108.882 651.55 108.879 651.644 108.877 651.706C108.871 651.894 108.856 652.05 108.831 652.174C108.827 652.278 108.783 652.37 108.697 652.451C108.632 652.532 108.504 652.601 108.315 652.658C108.147 652.694 107.917 652.728 107.624 652.761C107.612 652.489 107.598 651.947 107.582 651.133C107.567 650.299 107.547 649.319 107.52 648.192C107.515 647.067 107.512 645.847 107.513 644.534C107.513 643.221 107.513 641.939 107.511 640.688C107.531 639.438 107.548 638.261 107.562 637.157C107.577 636.053 107.616 635.147 107.681 634.44ZM115.788 643.893C115.217 642.853 114.614 642.135 113.981 641.74C113.348 641.323 112.729 641.116 112.125 641.118C111.541 641.12 110.994 641.279 110.484 641.596C109.973 641.914 109.556 642.255 109.231 642.619L109.274 641.308L118.043 630.145L119.229 630.183L112.33 639.592C112.681 639.687 113.103 639.877 113.594 640.164C114.085 640.43 114.565 640.737 115.034 641.086C115.502 641.434 115.917 641.812 116.279 642.22C116.663 642.607 116.911 642.98 117.025 643.338L119.729 652.586C119.605 652.582 119.479 652.599 119.353 652.636C119.247 652.675 119.131 652.712 119.005 652.75C118.9 652.768 118.796 652.764 118.693 652.74C118.61 652.717 118.55 652.652 118.511 652.547L115.788 643.893ZM121.082 650.378C121.12 649.191 121.471 648.337 122.134 647.817C122.817 647.297 123.69 647.054 124.752 647.088C125.169 647.101 125.554 647.124 125.907 647.156C126.281 647.189 126.633 647.252 126.964 647.346C127.294 647.44 127.613 647.575 127.92 647.752C128.248 647.929 128.584 648.18 128.928 648.503C128.93 648.441 128.934 648.316 128.94 648.129C128.967 647.921 128.985 647.703 128.992 647.474C128.999 647.245 129.006 647.036 129.012 646.849C129.019 646.641 129.023 646.495 129.026 646.412C129.017 646.036 129.022 645.557 129.041 644.974C129.06 644.37 129.028 643.754 128.944 643.126C128.881 642.499 128.712 641.899 128.439 641.328C128.186 640.757 127.752 640.316 127.137 640.004C126.7 639.99 126.291 640.05 125.912 640.184C125.532 640.317 125.153 640.462 124.772 640.616C124.392 640.771 124.012 640.915 123.633 641.049C123.254 641.162 122.846 641.211 122.409 641.197C122.426 640.676 122.595 640.255 122.918 639.931C123.263 639.588 123.667 639.33 124.131 639.157C124.596 638.985 125.078 638.875 125.58 638.829C126.082 638.782 126.52 638.765 126.895 638.777C127.268 638.851 127.609 638.935 127.919 639.029C128.249 639.123 128.546 639.299 128.809 639.557C129.092 639.817 129.34 640.21 129.552 640.738C129.786 641.246 129.972 641.961 130.109 642.882C130.267 643.804 130.385 644.975 130.465 646.395C130.566 647.795 130.625 649.517 130.643 651.56C130.676 651.832 130.575 652.068 130.339 652.269C130.125 652.45 129.828 652.607 129.448 652.741C129.069 652.854 128.639 652.955 128.157 653.043C127.696 653.112 127.225 653.16 126.745 653.186C126.265 653.212 125.806 653.229 125.368 653.235C124.93 653.242 124.565 653.241 124.274 653.232C123.899 653.22 123.516 653.145 123.124 653.007C122.753 652.87 122.405 652.682 122.079 652.442C121.775 652.182 121.524 651.882 121.326 651.543C121.15 651.183 121.069 650.794 121.082 650.378ZM125.213 648.322C124.162 648.58 123.422 648.911 122.992 649.314C122.563 649.696 122.363 650.075 122.393 650.451C122.444 650.828 122.682 651.18 123.11 651.506C123.538 651.812 124.062 652.026 124.683 652.15C125.305 652.254 125.984 652.223 126.719 652.059C127.454 651.875 128.164 651.501 128.849 650.94C128.619 650.328 128.384 649.862 128.144 649.541C127.905 649.2 127.642 648.942 127.356 648.766C127.07 648.59 126.75 648.475 126.398 648.422C126.045 648.369 125.65 648.336 125.213 648.322ZM131.507 641.207C131.76 641.111 131.979 641.097 132.165 641.166C132.35 641.234 132.503 641.354 132.622 641.524C132.742 641.695 132.829 641.896 132.884 642.127C132.94 642.337 132.986 642.547 133.021 642.757C133.306 642.307 133.703 641.955 134.211 641.7C134.741 641.426 135.299 641.256 135.885 641.191C136.471 641.106 137.055 641.104 137.636 641.185C138.218 641.245 138.703 641.386 139.092 641.607C139.502 641.807 139.785 642.087 139.94 642.447C140.096 642.785 140.042 643.18 139.777 643.63C139.246 643.3 138.681 643.032 138.083 642.825C137.506 642.619 136.936 642.538 136.372 642.583C135.807 642.627 135.28 642.829 134.789 643.188C134.299 643.527 133.885 644.087 133.547 644.868C133.209 645.649 132.977 646.695 132.852 648.004C132.748 649.293 132.79 650.91 132.978 652.854L131.791 652.816C131.791 652.816 131.775 652.649 131.744 652.314C131.735 651.96 131.718 651.501 131.695 650.937C131.692 650.374 131.67 649.748 131.63 649.059C131.61 648.37 131.591 647.672 131.572 646.962C131.553 646.253 131.533 645.575 131.513 644.928C131.513 644.261 131.5 643.687 131.474 643.207C131.476 643.145 131.47 643.019 131.455 642.831C131.461 642.644 131.467 642.446 131.474 642.238C131.481 642.009 131.488 641.801 131.494 641.613C131.5 641.426 131.504 641.291 131.507 641.207ZM142.249 641.614C142.499 641.622 142.708 641.618 142.875 641.603C143.063 641.588 143.216 641.697 143.334 641.93C143.366 642.869 143.408 643.829 143.46 644.811C143.512 645.771 143.565 646.742 143.617 647.724C143.668 648.705 143.689 649.696 143.677 650.696C143.688 651.676 143.667 652.634 143.616 653.57C143.612 653.695 143.579 653.767 143.516 653.786C143.452 653.826 143.358 653.833 143.234 653.808C143.129 653.805 142.994 653.79 142.829 653.764C142.683 653.759 142.516 653.775 142.327 653.81L142.249 641.614ZM140.617 635.965C140.622 635.819 140.637 635.664 140.664 635.498C140.691 635.311 140.737 635.146 140.805 635.002C140.893 634.859 140.99 634.737 141.098 634.636C141.226 634.536 141.373 634.489 141.54 634.494C141.79 634.502 142.039 634.52 142.289 634.549C142.538 634.578 142.776 634.638 143.002 634.728C143.229 634.798 143.413 634.919 143.553 635.09C143.694 635.24 143.76 635.461 143.751 635.753C143.735 636.253 143.533 636.694 143.145 637.078C142.759 637.441 142.295 637.613 141.753 637.596C141.337 637.583 141.04 637.417 140.862 637.099C140.686 636.759 140.604 636.382 140.617 635.965ZM142.424 636.179C142.361 636.177 142.329 636.228 142.325 636.333C142.322 636.437 142.351 636.49 142.414 636.492C142.497 636.494 142.541 636.444 142.544 636.34C142.547 636.235 142.507 636.182 142.424 636.179ZM144.864 653.673C144.833 653.338 144.807 652.858 144.785 652.232C144.785 651.586 144.777 650.866 144.76 650.074C144.766 649.261 144.772 648.417 144.779 647.542C144.786 646.667 144.792 645.833 144.797 645.041C144.802 644.249 144.793 643.54 144.772 642.914C144.771 642.268 144.745 641.777 144.694 641.442C144.694 641.421 144.686 641.369 144.667 641.285C144.67 641.202 144.663 641.108 144.645 641.003C144.649 640.899 144.651 640.816 144.653 640.753C144.656 640.67 144.658 640.607 144.659 640.566C144.98 640.326 145.243 640.251 145.448 640.341C145.675 640.432 145.856 640.625 145.992 640.921C146.129 641.197 146.222 641.543 146.272 641.962C146.321 642.38 146.349 642.798 146.356 643.215C146.385 643.633 146.393 644.019 146.382 644.373C146.371 644.706 146.363 644.946 146.359 645.091C146.412 644.739 146.488 644.324 146.586 643.848C146.685 643.372 146.826 642.886 147.008 642.392C147.191 641.898 147.404 641.415 147.649 640.943C147.915 640.451 148.231 640.024 148.597 639.66C148.963 639.297 149.368 639.018 149.812 638.824C150.276 638.63 150.8 638.564 151.381 638.624C152.296 638.695 153.038 638.969 153.606 639.446C154.195 639.923 154.644 640.552 154.952 641.333C155.282 642.115 155.503 643.008 155.617 644.012C155.751 645.017 155.821 646.082 155.827 647.208C155.853 648.335 155.837 649.481 155.779 650.646C155.721 651.79 155.676 652.894 155.641 653.956C155.453 653.991 155.263 654.058 155.072 654.156C154.882 654.234 154.725 654.26 154.601 654.235C154.476 654.231 154.385 654.145 154.328 653.976C154.292 653.787 154.324 653.434 154.424 652.916C154.457 652.542 154.507 651.97 154.573 651.201C154.661 650.412 154.71 649.538 154.72 648.58C154.751 647.622 154.73 646.631 154.659 645.607C154.588 644.584 154.42 643.651 154.155 642.809C153.911 641.946 153.538 641.246 153.034 640.709C152.531 640.151 151.863 639.859 151.03 639.832C150.165 640.159 149.425 640.802 148.811 641.762C148.217 642.723 147.722 643.853 147.326 645.154C146.951 646.455 146.655 647.873 146.439 649.409C146.244 650.924 146.113 652.41 146.046 653.867C146.005 653.845 145.922 653.832 145.797 653.828C145.693 653.824 145.568 653.82 145.422 653.816C145.298 653.791 145.173 653.766 145.049 653.741C144.946 653.717 144.884 653.694 144.864 653.673ZM156.627 651.517C156.665 650.33 157.015 649.477 157.678 648.956C158.362 648.436 159.235 648.193 160.297 648.227C160.713 648.24 161.098 648.263 161.451 648.295C161.825 648.328 162.178 648.391 162.508 648.485C162.839 648.579 163.157 648.715 163.464 648.891C163.792 649.068 164.128 649.319 164.472 649.643C164.474 649.58 164.478 649.455 164.484 649.268C164.512 649.06 164.529 648.842 164.536 648.613C164.544 648.384 164.55 648.176 164.556 647.988C164.563 647.78 164.568 647.634 164.57 647.551C164.562 647.176 164.567 646.696 164.585 646.113C164.605 645.509 164.572 644.893 164.488 644.265C164.425 643.638 164.257 643.039 163.983 642.467C163.731 641.896 163.297 641.455 162.681 641.143C162.244 641.129 161.836 641.189 161.456 641.323C161.077 641.457 160.697 641.601 160.317 641.755C159.937 641.91 159.557 642.054 159.177 642.188C158.798 642.301 158.39 642.35 157.953 642.336C157.97 641.816 158.14 641.394 158.463 641.071C158.807 640.727 159.212 640.469 159.676 640.297C160.14 640.124 160.623 640.014 161.124 639.968C161.626 639.921 162.065 639.904 162.439 639.916C162.812 639.991 163.153 640.075 163.463 640.168C163.794 640.262 164.09 640.438 164.353 640.697C164.636 640.956 164.884 641.35 165.096 641.877C165.33 642.385 165.516 643.1 165.653 644.021C165.811 644.944 165.93 646.115 166.009 647.535C166.11 648.934 166.169 650.656 166.187 652.699C166.22 652.971 166.119 653.208 165.883 653.409C165.669 653.589 165.372 653.747 164.992 653.88C164.614 653.993 164.183 654.094 163.701 654.183C163.24 654.251 162.77 654.299 162.289 654.325C161.809 654.351 161.35 654.368 160.912 654.375C160.474 654.382 160.109 654.38 159.818 654.371C159.443 654.359 159.06 654.284 158.668 654.147C158.297 654.01 157.949 653.821 157.623 653.582C157.319 653.322 157.068 653.022 156.871 652.682C156.694 652.322 156.613 651.934 156.627 651.517ZM160.757 649.461C159.707 649.719 158.966 650.05 158.537 650.453C158.107 650.835 157.908 651.214 157.937 651.591C157.988 651.967 158.227 652.319 158.654 652.645C159.082 652.951 159.606 653.166 160.228 653.29C160.85 653.393 161.528 653.363 162.263 653.199C162.998 653.014 163.709 652.641 164.394 652.079C164.163 651.467 163.928 651.001 163.688 650.681C163.449 650.339 163.186 650.081 162.9 649.905C162.614 649.729 162.295 649.615 161.942 649.562C161.589 649.509 161.194 649.475 160.757 649.461Z" fill="#88B1D5"/>
            <g id="draw/arrow_2">
                <path id="Vector 42" d="M166.243 626.957C167.339 621.302 173.912 609.554 191.439 607.803" stroke="#88B1D5"/>
                <path id="Vector 303_2" d="M188.688 610.859L192.102 607.861L188.752 604.577" stroke="#88B1D5" stroke-linecap="round"/>
            </g>
            <path id="draw:reverse/mask_2" d="M108.344 629.95L108.062 653.336C108.125 650.172 108.497 642.317 109.494 641.55C110.491 640.783 116.46 633.136 119.08 629.781L111.507 640.591C112.945 640.304 115.994 640.745 116.684 644.81C117.374 648.875 118.634 651.68 119.177 652.575C120.391 649.827 123.932 645.231 128.38 648.836L122.916 641.071C123.235 640.495 124.45 639.364 126.751 639.441C129.627 639.537 129.627 643.276 129.627 645.193C129.627 646.727 129.691 650.37 129.723 652C127.102 652.767 121.842 653.38 121.765 649.699C121.478 654.78 123.184 662.469 132.311 652.575L131.934 640.564L132.886 644.234C134.037 642.637 136.989 640.131 139.597 642.892C142.205 645.653 142.731 652.041 142.699 654.406L142.761 642.029C141.898 639.76 140.402 635.184 141.323 635.031C142.473 634.839 143.815 635.894 142.953 636.661C142.262 637.274 144.135 639.856 145.158 641.071L145.441 654.473C145.888 649.807 147.343 639.326 149.951 639.633C153.211 640.016 154.649 639.729 155.032 645.097C155.339 649.392 154.968 652.511 154.745 653.534L157.333 651.616C157.525 652.831 159.174 654.857 164.236 653.246C164.587 653.086 165.329 652.498 165.482 651.425C165.674 650.082 165.578 642.029 163.756 641.262C161.935 640.495 160.401 640.016 158.675 642.125L157.525 650.849C158.324 649.188 160.842 646.861 164.523 650.849" stroke="#1E1E1E" stroke-width="4" stroke-linecap="round"/>
        </g>
    </g>
</svg>
