<svg width="145" height="134" viewBox="0 0 145 134" fill="none" xmlns="http://www.w3.org/2000/svg">
    <g id="[export] illustration_7">
        <g id="Alcohol">
            <path id="Vector" d="M114.525 91.7468C107.087 95.1867 110.52 97.4799 108.804 107.226C107.087 116.399 96.2157 119.839 91.0662 121.559C85.9166 123.279 88.7775 131.879 88.7775 131.879C69.3235 135.892 61.8852 130.159 61.8852 130.159C61.8852 130.159 61.8852 129.585 61.8852 123.852C61.8852 118.692 59.5965 119.266 51.586 114.679C42.4312 110.093 42.4312 100.346 43.0034 96.3333C43.5755 92.3201 39.5703 90.0269 39.5703 90.0269C39.5703 90.0269 52.1582 92.8934 76.1896 94.6133C100.221 96.3333 114.525 91.7468 114.525 91.7468Z" fill="white" stroke="white" stroke-miterlimit="10" stroke-linecap="round" stroke-linejoin="round"/>
            <path id="Vector_2" d="M49.8691 89.4537C51.5857 86.0138 53.8744 83.7206 57.3074 82.574C59.024 82.0007 61.3127 81.4273 63.6014 82.0007C65.8901 82.574 67.6066 84.2939 69.3231 86.0138C71.0397 87.7338 71.6118 90.027 72.7562 92.3203" stroke="white" stroke-miterlimit="10" stroke-linecap="round" stroke-linejoin="round"/>
            <path id="Vector_3" d="M75.6172 92.8927C77.9059 89.4528 81.9111 87.7329 85.9164 87.7329C89.9216 87.7329 93.9268 89.4528 96.2155 92.3194" stroke="white" stroke-miterlimit="10" stroke-linecap="round" stroke-linejoin="round"/>
            <path id="Vector_4" d="M69.3228 83.1473C70.4671 83.1473 71.0393 82.0007 71.6115 80.8541C72.1836 79.7074 72.1836 78.5608 72.7558 77.9875C73.328 76.8409 75.0445 76.2676 76.1889 76.2676C77.3332 76.2676 79.0498 76.8409 80.1941 77.4142C83.6272 79.1341 86.488 82.0007 87.6324 85.4406" stroke="white" stroke-miterlimit="10" stroke-linecap="round" stroke-linejoin="round"/>
            <path id="Vector_5" d="M107.659 92.8936C107.087 90.6003 106.515 88.3071 105.371 86.0138C104.226 83.7206 102.51 82.0006 100.221 80.854C96.2159 79.1341 91.6385 80.854 87.6333 82.574" stroke="white" stroke-miterlimit="10" stroke-linecap="round" stroke-linejoin="round"/>
            <path id="Vector_6" d="M0.661621 73.9741C1.80597 80.2805 1.80597 87.1603 2.95033 93.4667C4.09468 99.7731 5.81121 106.653 10.3886 111.813C14.966 116.972 21.26 117.546 28.6983 118.119" stroke="white" stroke-miterlimit="10" stroke-linecap="round" stroke-linejoin="round"/>
            <path id="Vector_7" d="M14.9653 115.826C14.9653 118.119 14.9653 120.985 15.5375 123.279C15.5375 124.425 15.5375 125.572 16.1097 126.145C23.548 131.305 37.8524 128.439 40.1411 128.439C42.4298 128.439 45.2907 127.865 46.435 126.145C47.0072 124.999 47.0072 123.852 47.0072 123.279C47.0072 120.985 47.0072 118.119 47.5794 115.826" stroke="white" stroke-miterlimit="10" stroke-linecap="round" stroke-linejoin="round"/>
            <path id="Vector_8" d="M49.2962 113.534C44.1466 116.974 35.564 118.12 29.27 118.12" stroke="white" stroke-miterlimit="10" stroke-linecap="round" stroke-linejoin="round"/>
            <path id="Vector_9" d="M51.0132 99.1997C51.0132 105.506 55.0184 112.386 61.3124 114.679" stroke="#1E1E1E" stroke-miterlimit="10" stroke-linecap="round" stroke-linejoin="round"/>
            <path id="Vector_10" d="M65.3175 100.347C64.1732 105.506 64.7454 110.666 66.4619 115.253" stroke="#1E1E1E" stroke-miterlimit="10" stroke-linecap="round" stroke-linejoin="round"/>
            <path id="Vector_11" d="M77.3335 101.494C77.9057 106.653 77.9057 111.813 77.9057 116.973" stroke="#1E1E1E" stroke-miterlimit="10" stroke-linecap="round" stroke-linejoin="round"/>
            <path id="Vector_12" d="M92.21 102.64C92.21 108.373 90.4935 114.106 86.4883 118.119" stroke="#1E1E1E" stroke-miterlimit="10" stroke-linecap="round" stroke-linejoin="round"/>
            <path id="Vector_13" d="M104.226 101.494C103.081 107.227 99.6481 112.96 94.4985 116.4" stroke="#1E1E1E" stroke-miterlimit="10" stroke-linecap="round" stroke-linejoin="round"/>
            <path id="Vector_14" d="M61.8853 120.413C71.0401 120.986 79.6227 121.56 88.7775 122.133" stroke="#1E1E1E" stroke-miterlimit="10" stroke-linecap="round" stroke-linejoin="round"/>
            <path id="Vector_15" d="M67.6069 121.559C66.4625 124.425 65.3182 127.292 64.1738 130.158" stroke="#1E1E1E" stroke-miterlimit="10" stroke-linecap="round" stroke-linejoin="round"/>
            <path id="Vector_16" d="M68.1782 121.559C69.8948 125.572 71.6113 129.012 72.7556 133.025C73.3278 129.585 74.4722 126.145 76.1887 122.705C77.9052 125.572 79.6217 129.012 81.3383 131.878C82.4826 129.012 83.627 126.145 85.3435 122.705" stroke="#1E1E1E" stroke-miterlimit="10" stroke-linecap="round" stroke-linejoin="round"/>
            <path id="Vector_17" d="M0.661621 72.8276C18.9713 76.8408 37.8531 77.4141 56.7349 74.5476C56.1627 76.8408 56.1627 80.2807 55.5905 82.0006" stroke="white" stroke-miterlimit="10" stroke-linecap="round" stroke-linejoin="round"/>
            <path id="draw/steam" d="M19.874 69.8491C22.6185 67.5708 24.4481 64.3811 24.9055 61.1914C24.9055 59.8244 24.9055 58.4574 24.4481 57.0903C23.9907 55.7233 22.6185 54.3563 21.2463 53.445C17.587 50.711 12.5555 49.7996 8.43879 47.5213C4.32211 45.2429 0.20542 41.1419 0.66283 36.5852C1.12024 33.8511 2.49247 31.5728 4.77952 29.7501C7.06656 27.9274 9.81102 27.4717 12.0981 26.5604C32.6815 21.0923 55.552 27.4717 74.7632 18.814C77.5076 17.447 80.2521 16.08 82.0817 13.8016C83.9114 11.5233 85.2836 8.33357 84.3688 5.59954C83.9114 2.86552 81.1669 0.13149 77.965 0.587161" stroke="white" stroke-width="0.5" stroke-miterlimit="10" stroke-linecap="round" stroke-linejoin="round"/>
            <path id="Vector_18" d="M29.27 74.5478C32.7031 69.9613 35.564 64.8015 36.7083 59.0684C42.4301 61.9349 45.8631 68.8147 44.7188 74.5478" stroke="white" stroke-miterlimit="10" stroke-linecap="round" stroke-linejoin="round"/>
            <path id="Vector_19" d="M46.4365 74.5473C48.7252 71.1074 52.1583 68.2409 56.1635 67.0942C54.447 68.8142 53.3026 71.6807 53.8748 73.974" stroke="white" stroke-miterlimit="10" stroke-linecap="round" stroke-linejoin="round"/>
            <path id="Vector_20" d="M36.7085 75.121C38.9972 70.5345 39.5694 64.8014 37.2807 59.6416" stroke="white" stroke-miterlimit="10" stroke-linecap="round" stroke-linejoin="round"/>
            <path id="Vector_21" d="M38.9971 69.9616C40.1414 69.3883 41.2858 68.815 42.4301 68.2417" stroke="white" stroke-miterlimit="10" stroke-linecap="round" stroke-linejoin="round"/>
        </g>
        <g id="Comment alco">
            <g id="Aguardiente">
                <path d="M62.403 40.6456C62.9877 40.6552 63.4906 40.8374 63.9116 41.1922C64.3486 41.5314 64.7205 41.988 65.0272 42.5622C65.3497 43.1366 65.6154 43.797 65.8244 44.5435C66.0335 45.2899 66.2023 46.0752 66.331 46.8994C66.4599 47.7078 66.557 48.5314 66.6222 49.3703C66.6877 50.1934 66.7302 50.9688 66.7498 51.6963C66.7694 52.4238 66.7744 53.0799 66.7648 53.6647C66.7709 54.2497 66.7713 54.7081 66.7658 55.04L66.1969 55.0306L65.3785 50.0138C65.3008 49.9334 65.1198 49.883 64.8356 49.8625C64.5672 49.8423 64.2431 49.8449 63.8633 49.8702C63.4993 49.8958 63.0955 49.9366 62.6519 49.9925C62.2244 50.0329 61.8129 50.0656 61.4172 50.0907C61.0377 50.1003 60.6899 50.1024 60.3738 50.0972C60.0579 50.0762 59.8297 50.0171 59.689 49.9199L59.6065 54.9219L58.3975 54.902C58.3983 54.8546 58.3997 54.7677 58.4018 54.6412C58.42 54.4993 58.4302 54.3572 58.4326 54.2149C58.4349 54.0727 58.445 53.9385 58.4629 53.8123C58.4808 53.6861 58.4901 53.5993 58.4909 53.5519C58.6009 52.6368 58.6872 51.7135 58.75 50.7818C58.8289 49.8346 58.9151 48.9191 59.0087 48.0354C59.1023 47.1517 59.219 46.3078 59.3587 45.5039C59.5143 44.7003 59.7238 43.9765 59.9874 43.3327C60.2512 42.6731 60.5765 42.1173 60.9634 41.6652C61.3505 41.1973 61.8304 40.8575 62.403 40.6456ZM62.7643 41.7423C62.3534 41.7356 62.0032 41.88 61.7138 42.1756C61.4404 42.4556 61.2129 42.8313 61.0312 43.3025C60.8498 43.758 60.707 44.2694 60.6028 44.8368C60.4986 45.4042 60.4261 45.9642 60.3854 46.5168C60.3449 47.0536 60.3129 47.5589 60.2893 48.0328C60.2817 48.4911 60.2758 48.8467 60.2717 49.0996C61.0461 49.1124 61.8372 49.0701 62.645 48.9728C63.4531 48.8596 64.2138 48.7457 64.9271 48.631C64.9439 48.568 64.9535 48.4654 64.9559 48.3232C64.974 48.1812 64.9845 48.0233 64.9874 47.8495C65.0061 47.6759 65.0167 47.5101 65.0193 47.352C65.0377 47.1942 65.0473 47.0916 65.0481 47.0442C65.0567 46.5227 65.0333 46.0243 64.9779 45.5492C64.9383 45.0743 64.8352 44.6141 64.6687 44.1687C64.5182 43.7078 64.2882 43.2772 63.9786 42.8769C63.6849 42.4768 63.2801 42.0986 62.7643 41.7423Z" fill="#88B1D5"/>
                <path d="M63.9632 61.0643C63.9702 60.6375 64.0467 60.3147 64.1926 60.0958C64.3385 59.8769 64.6722 59.7717 65.1937 59.7804C65.1427 60.0008 65.0837 60.2212 65.0168 60.4414C64.9342 60.6613 64.8676 60.8658 64.817 61.0546C64.7507 61.2432 64.7245 61.393 64.7385 61.5039C64.7366 61.6145 64.7913 61.6549 64.9025 61.6251C65.4027 61.9654 65.9519 62.2116 66.5502 62.3637C67.1484 62.5158 67.7399 62.5967 68.3246 62.6064C69.2099 62.6052 69.9715 62.4359 70.6094 62.0987C71.2631 61.7617 71.8 61.32 72.22 60.7736C72.6558 60.2275 72.9904 59.5928 73.2236 58.8694C73.4724 58.1622 73.6269 57.4217 73.6871 56.6481C73.7628 55.8905 73.7597 55.1238 73.6776 54.3478C73.5956 53.5718 73.4572 52.8582 73.2624 52.2068C72.9888 52.5027 72.707 52.8142 72.417 53.1414C72.1429 53.4688 71.8456 53.7643 71.525 54.0277C71.2048 54.2754 70.8615 54.4832 70.4951 54.651C70.1446 54.8191 69.748 54.8995 69.3055 54.8922C68.8472 54.8847 68.5008 54.7999 68.2663 54.638C68.0477 54.4763 67.9011 54.2604 67.8265 53.9905C67.7521 53.7047 67.718 53.38 67.724 53.0165C67.7458 52.6533 67.7601 52.2662 67.7668 51.8553C67.7731 51.476 67.788 51.0494 67.8117 50.5756C67.8511 50.102 67.9142 49.6288 68.0011 49.1559C68.104 48.6676 68.2303 48.1954 68.3801 47.7394C68.546 47.2679 68.7583 46.8525 69.0172 46.4932C69.2763 46.118 69.5974 45.823 69.9803 45.608C70.3633 45.393 70.8155 45.2898 71.3371 45.2984C71.6689 45.3039 71.9845 45.3407 72.2837 45.4088C72.599 45.4615 72.8819 45.561 73.1325 45.7074C73.3988 45.8541 73.6248 46.0475 73.8106 46.2877C73.9963 46.5279 74.1415 46.8306 74.2461 47.1959C74.2976 47.9082 74.3639 48.6839 74.4449 49.5231C74.5261 50.3465 74.591 51.2091 74.6393 52.111C74.6879 52.997 74.7048 53.8905 74.6899 54.7913C74.6751 55.6922 74.5975 56.5604 74.4573 57.3959C74.3328 58.2317 74.1224 59.0107 73.8259 59.733C73.545 60.4714 73.1471 61.113 72.6323 61.6578C72.1329 62.2187 71.5091 62.6589 70.7609 62.9785C70.0123 63.314 69.1163 63.4889 68.0727 63.5033C67.6302 63.496 67.1645 63.4567 66.6756 63.3854C66.1864 63.3299 65.7378 63.2119 65.3298 63.0312C64.9215 62.8664 64.5935 62.6239 64.3459 62.3036C64.0822 61.9989 63.9546 61.5858 63.9632 61.0643ZM68.6677 51.8702C68.6648 52.044 68.6537 52.2415 68.6342 52.4625C68.6147 52.6835 68.619 52.9048 68.647 53.1266C68.6749 53.3484 68.735 53.5391 68.8272 53.6987C68.9352 53.8586 69.1077 53.9484 69.3445 53.9681C69.7238 53.9743 70.0729 53.8931 70.3918 53.7245C70.7266 53.5561 71.0229 53.3239 71.2807 53.0278C71.5543 52.7319 71.789 52.4038 71.9846 52.0435C72.1963 51.6675 72.3686 51.2831 72.5016 50.8901C72.6503 50.4973 72.7593 50.1197 72.8285 49.7573C72.9138 49.3793 72.9588 49.048 72.9635 48.7635C73.0159 48.464 73.0208 48.1638 72.9784 47.8627C72.9517 47.5619 72.8692 47.2918 72.7309 47.0524C72.5926 46.813 72.406 46.6202 72.1713 46.4741C71.9369 46.3121 71.6537 46.2284 71.3218 46.2229C70.9425 46.2167 70.6088 46.3218 70.3207 46.5384C70.0328 46.7391 69.7913 47.0039 69.5962 47.3327C69.4011 47.6614 69.2447 48.0382 69.127 48.4631C69.0096 48.8722 68.9158 49.2896 68.8455 49.7153C68.7913 50.1254 68.7452 50.5277 68.707 50.9223C68.685 51.3014 68.6719 51.6173 68.6677 51.8702Z" fill="#88B1D5"/>
                <path d="M75.5866 46.4355C75.5879 46.3565 75.6366 46.2783 75.7327 46.2008C75.8447 46.1236 75.9721 46.0625 76.1152 46.0174C76.274 45.9726 76.4246 45.9435 76.5671 45.93C76.7096 45.9166 76.812 45.942 76.8741 46.0062C76.9366 47.9675 77.0926 49.5351 77.342 50.7091C77.6074 51.8675 77.9096 52.7182 78.2484 53.2613C78.603 53.8046 78.9857 54.0876 79.3963 54.1102C79.8072 54.1169 80.2131 53.9497 80.6139 53.6086C81.015 53.2516 81.3866 52.7676 81.7286 52.1568C82.0865 51.5461 82.374 50.8869 82.5912 50.1791C82.8242 49.4716 82.9703 48.7626 83.0294 48.0522C83.0886 47.3418 83.0358 46.7086 82.871 46.1526L84.2962 46.0101C84.308 46.2474 84.341 46.6432 84.3951 47.1974C84.4653 47.736 84.5341 48.3537 84.6017 49.0504C84.6853 49.7315 84.7763 50.4444 84.8747 51.189C84.9731 51.9336 85.0564 52.6306 85.1248 53.2798C85.1933 53.9133 85.2555 54.4597 85.3111 54.9191C85.367 55.3627 85.3941 55.6397 85.3923 55.7504L84.3729 55.7336L83.3264 51.614C83.096 52.1635 82.8186 52.6885 82.4941 53.189C82.1697 53.6895 81.8147 54.1263 81.4292 54.4994C81.0594 54.8727 80.6673 55.1666 80.2527 55.3811C79.8384 55.5797 79.4261 55.6599 79.0157 55.6215C78.6214 55.5676 78.2373 55.3715 77.8635 55.0334C77.4896 54.6952 77.1426 54.1678 76.8225 53.4512C76.5184 52.719 76.2572 51.782 76.0389 50.6401C75.8206 49.4983 75.6698 48.0968 75.5866 46.4355Z" fill="#88B1D5"/>
                <path d="M85.9467 53.7677C85.9615 52.8668 86.2173 52.215 86.714 51.8122C87.2265 51.4096 87.8858 51.215 88.6918 51.2282C89.0079 51.2335 89.3001 51.2462 89.5685 51.2664C89.8527 51.2869 90.1208 51.3309 90.3726 51.3982C90.6244 51.4656 90.8678 51.5645 91.1028 51.6948C91.3536 51.8254 91.6113 52.0115 91.8761 52.253C91.8769 52.2056 91.8784 52.1108 91.8808 51.9685C91.8992 51.8107 91.9098 51.6449 91.9127 51.4711C91.9156 51.2972 91.9182 51.1392 91.9205 50.997C91.9231 50.8389 91.925 50.7283 91.926 50.6651C91.9149 50.3803 91.913 50.0167 91.9203 49.5742C91.9278 49.1159 91.896 48.649 91.8248 48.1736C91.7694 47.6984 91.6346 47.2456 91.4204 46.8153C91.222 46.3852 90.8875 46.0556 90.4171 45.8265C90.0852 45.821 89.7761 45.8713 89.4898 45.9772C89.2035 46.0831 88.917 46.197 88.6305 46.3187C88.3439 46.4405 88.0575 46.5543 87.7712 46.6602C87.4852 46.7504 87.1762 46.7927 86.8443 46.7872C86.8508 46.3921 86.9747 46.0701 87.2159 45.8211C87.4732 45.5566 87.7769 45.3561 88.1269 45.2196C88.477 45.0831 88.842 44.9943 89.2221 44.9531C89.6022 44.912 89.9345 44.8937 90.2189 44.8984C90.5026 44.9505 90.7625 45.0102 90.9985 45.0773C91.2503 45.1447 91.4774 45.2749 91.6797 45.4679C91.8979 45.6612 92.0906 45.9569 92.2579 46.3548C92.4413 46.7373 92.5905 47.2772 92.7055 47.9747C92.8362 48.6724 92.9402 49.5594 93.0173 50.6356C93.1104 51.6963 93.1759 53.0016 93.2135 54.5515C93.2417 54.7574 93.1676 54.938 92.9912 55.0932C92.8308 55.2328 92.6074 55.3556 92.3211 55.4615C92.0351 55.5517 91.7097 55.6333 91.3449 55.7063C90.9961 55.7638 90.6398 55.8053 90.2758 55.8309C89.9117 55.8565 89.5637 55.8745 89.2315 55.8848C88.8994 55.8952 88.6227 55.8985 88.4014 55.8949C88.1169 55.8902 87.8253 55.8379 87.5266 55.7382C87.2437 55.6386 86.9772 55.4999 86.7272 55.3219C86.4933 55.1283 86.2994 54.9038 86.1455 54.6483C86.0077 54.3773 85.9414 54.0837 85.9467 53.7677ZM89.0558 52.159C88.262 52.3673 87.7044 52.6268 87.3831 52.9377C87.0621 53.2328 86.915 53.5228 86.9419 53.8078C86.9846 54.093 87.17 54.3569 87.498 54.5995C87.8262 54.8262 88.2267 54.983 88.6996 55.0698C89.1726 55.1409 89.6869 55.1098 90.2424 54.9767C90.7982 54.8278 91.3326 54.5363 91.8456 54.1021C91.6635 53.6406 91.4796 53.2898 91.2939 53.0496C91.1084 52.7936 90.906 52.6006 90.6869 52.4705C90.4677 52.3404 90.224 52.2574 89.9559 52.2213C89.6877 52.1853 89.3877 52.1645 89.0558 52.159Z" fill="#88B1D5"/>
                <path d="M93.7463 46.6876C93.9373 46.6118 94.1035 46.5987 94.245 46.6484C94.3864 46.6982 94.5035 46.7871 94.5963 46.9151C94.689 47.0431 94.7576 47.1944 94.8022 47.369C94.847 47.5278 94.8839 47.6865 94.9129 47.8451C95.1241 47.5008 95.421 47.229 95.8037 47.0298C96.2025 46.8151 96.6236 46.6798 97.0672 46.6239C97.511 46.5521 97.9538 46.5436 98.3955 46.5983C98.8375 46.6372 99.2073 46.7382 99.505 46.9012C99.8187 47.0486 100.037 47.2577 100.159 47.5285C100.281 47.7835 100.244 48.0832 100.049 48.4278C99.6419 48.1839 99.2104 47.9871 98.7545 47.8373C98.3143 47.6878 97.8805 47.6332 97.453 47.6736C97.0255 47.714 96.6276 47.8734 96.2595 48.1519C95.8915 48.4145 95.5841 48.8442 95.3371 49.4408C95.0901 50.0375 94.9268 50.8331 94.8472 51.8277C94.7836 52.8068 94.8345 54.0328 94.9999 55.5057L94.0991 55.4909C94.0991 55.4909 94.0854 55.3642 94.058 55.1108C94.0466 54.8419 94.0286 54.4938 94.004 54.0665C93.9953 53.6396 93.9715 53.1649 93.9327 52.6426C93.9097 52.1205 93.8868 51.5906 93.864 51.0527C93.8413 50.5149 93.8182 50.0007 93.7946 49.5103C93.7872 49.0043 93.7706 48.5693 93.745 48.2052C93.7458 48.1578 93.7395 48.0629 93.726 47.9204C93.7284 47.7781 93.7308 47.628 93.7334 47.47C93.7363 47.2961 93.7389 47.1381 93.7413 46.9958C93.7436 46.8536 93.7453 46.7509 93.7463 46.6876Z" fill="#88B1D5"/>
                <path d="M99.2883 52.6052C99.2953 52.1784 99.3741 51.7134 99.5247 51.21C99.6756 50.6908 99.8888 50.2201 100.165 49.7978C100.441 49.3597 100.77 49.0016 101.154 48.7233C101.538 48.4451 101.983 48.3102 102.489 48.3185C102.868 48.3248 103.2 48.3698 103.483 48.4535C103.782 48.5217 104.057 48.6447 104.307 48.8228C104.573 48.9852 104.814 49.1868 105.032 49.4275C105.265 49.6527 105.506 49.9175 105.754 50.222L105.812 38.0583C106.241 37.9073 106.503 37.8484 106.598 37.8816C106.708 37.915 106.761 38.0503 106.757 38.2873C106.756 38.3189 106.748 38.3662 106.731 38.4292C106.73 38.4924 106.729 38.5319 106.729 38.5477C106.708 38.8477 106.685 39.2742 106.66 39.827C106.651 40.3802 106.641 41.0203 106.629 41.7473C106.632 42.4745 106.635 43.265 106.637 44.1187C106.639 44.9565 106.641 45.8102 106.642 46.6797C106.644 47.5334 106.646 48.3871 106.647 49.2408C106.665 50.0789 106.668 50.8615 106.656 51.5885C106.66 52.3157 106.649 52.9637 106.624 53.5324C106.615 54.0855 106.6 54.5042 106.58 54.7884C106.4 55.1491 106.15 55.4216 105.831 55.606C105.528 55.7907 105.193 55.9275 104.828 56.0163C104.479 56.0896 104.115 56.131 103.735 56.1406C103.356 56.1501 103 56.1521 102.668 56.1467C101.609 56.1292 100.777 55.8072 100.171 55.1807C99.5647 54.5383 99.2706 53.6798 99.2883 52.6052ZM100.247 51.9807C100.241 52.3758 100.266 52.7715 100.322 53.1676C100.379 53.5479 100.484 53.8896 100.637 54.1924C100.791 54.4953 101.008 54.7439 101.289 54.9383C101.571 55.1168 101.933 55.2097 102.375 55.217C102.644 55.2215 102.968 55.2268 103.347 55.2331C103.727 55.2393 104.091 55.2058 104.44 55.1325C104.789 55.0434 105.084 54.906 105.324 54.7203C105.564 54.5345 105.687 54.2678 105.693 53.9201C105.7 53.5092 105.644 53.042 105.526 52.5183C105.424 51.9792 105.251 51.4704 105.006 50.9922C104.777 50.4983 104.476 50.0823 104.102 49.7442C103.744 49.3905 103.312 49.2095 102.806 49.2011C102.475 49.1957 102.157 49.2774 101.854 49.4463C101.551 49.6152 101.278 49.832 101.037 50.0967C100.811 50.3618 100.625 50.659 100.477 50.9886C100.329 51.3181 100.253 51.6488 100.247 51.9807Z" fill="#88B1D5"/>
                <path d="M108.439 46.9939C108.629 46.997 108.787 46.9917 108.914 46.978C109.056 46.9646 109.173 47.0455 109.265 47.221C109.301 47.9329 109.344 48.6608 109.395 49.4047C109.446 50.1327 109.498 50.8686 109.549 51.6125C109.6 52.3563 109.627 53.1077 109.63 53.8665C109.649 54.6098 109.645 55.337 109.618 56.0479C109.616 56.1427 109.591 56.1976 109.544 56.2127C109.496 56.2435 109.425 56.2502 109.33 56.2328C109.251 56.2315 109.148 56.2219 109.022 56.2041C108.912 56.2022 108.785 56.2159 108.642 56.2452L108.439 46.9939ZM107.134 42.7278C107.136 42.6172 107.146 42.4988 107.164 42.3726C107.182 42.2306 107.216 42.1047 107.265 41.9949C107.33 41.8853 107.402 41.7916 107.483 41.7139C107.579 41.6365 107.69 41.5988 107.817 41.6009C108.006 41.604 108.196 41.615 108.385 41.634C108.575 41.6529 108.756 41.6954 108.929 41.7615C109.102 41.8118 109.242 41.901 109.351 42.0293C109.46 42.1417 109.512 42.3086 109.509 42.5299C109.502 42.9092 109.355 43.2466 109.065 43.5422C108.776 43.822 108.426 43.9585 108.015 43.9517C107.699 43.9465 107.472 43.8242 107.333 43.5848C107.195 43.3295 107.129 43.0439 107.134 42.7278ZM108.507 42.869C108.46 42.8682 108.435 42.9074 108.434 42.9864C108.433 43.0654 108.456 43.1053 108.503 43.1061C108.566 43.1071 108.599 43.0681 108.6 42.9891C108.601 42.9101 108.57 42.8701 108.507 42.869Z" fill="#88B1D5"/>
                <path d="M110.465 50.6554C110.473 50.1812 110.585 49.6614 110.799 49.0958C111.015 48.5145 111.3 47.9817 111.656 47.4975C112.028 46.9978 112.437 46.5856 112.885 46.261C113.35 45.9209 113.827 45.7549 114.316 45.7629C114.585 45.7674 114.845 45.827 115.096 45.9418C115.363 46.0568 115.613 46.2112 115.847 46.4047C116.097 46.5827 116.315 46.7918 116.501 47.032C116.703 47.2567 116.857 47.4963 116.963 47.751C117.07 48.0057 117.121 48.2516 117.117 48.4887C117.129 48.726 117.062 48.9304 116.917 49.1019L111.9 49.9439C111.836 49.9587 111.78 50.0368 111.73 50.1783C111.681 50.3039 111.638 50.4692 111.603 50.6741C111.568 50.8791 111.533 51.1077 111.497 51.3601C111.477 51.5969 111.458 51.8337 111.438 52.0705C111.419 52.2915 111.407 52.4968 111.404 52.6864C111.401 52.8603 111.399 52.9946 111.397 53.0894C111.39 53.532 111.487 53.8971 111.688 54.185C111.905 54.4573 112.178 54.6673 112.507 54.8151C112.837 54.9628 113.207 55.0637 113.617 55.1179C114.043 55.1724 114.461 55.203 114.872 55.2098C115.283 55.2165 115.67 55.2071 116.034 55.1815C116.398 55.1559 116.699 55.145 116.936 55.1489C116.935 55.2122 116.91 55.2829 116.861 55.3611C116.813 55.4394 116.756 55.5175 116.692 55.5955C116.627 55.6576 116.563 55.7198 116.499 55.782C116.435 55.8283 116.395 55.8593 116.379 55.8748C116.252 55.9044 116.053 55.9485 115.784 56.0073C115.53 56.0506 115.253 56.0934 114.952 56.1359C114.666 56.1786 114.397 56.2137 114.144 56.2411C113.89 56.2685 113.716 56.2815 113.621 56.2799C113.13 56.3667 112.703 56.3517 112.342 56.2351C111.98 56.1185 111.675 55.9237 111.426 55.6509C111.178 55.378 110.978 55.0507 110.826 54.6688C110.675 54.2711 110.563 53.8503 110.491 53.4065C110.419 52.9627 110.38 52.5035 110.372 52.0292C110.379 51.555 110.411 51.0971 110.465 50.6554ZM113.97 46.6583C113.827 46.656 113.636 46.7319 113.397 46.886C113.173 47.0246 112.957 47.2107 112.747 47.4444C112.554 47.6625 112.384 47.9047 112.237 48.1711C112.107 48.4218 112.064 48.6424 112.108 48.8329C112.518 48.8871 112.945 48.8862 113.388 48.8303C113.832 48.7744 114.237 48.6862 114.602 48.5658C114.968 48.4295 115.271 48.2764 115.511 48.1065C115.751 47.9207 115.865 47.7329 115.852 47.543C115.855 47.3534 115.708 47.1849 115.41 47.0377C115.128 46.875 114.648 46.7485 113.97 46.6583Z" fill="#88B1D5"/>
                <path d="M118.175 56.2365C118.147 55.9831 118.122 55.619 118.098 55.1444C118.09 54.6542 118.076 54.1086 118.054 53.5075C118.048 52.8909 118.043 52.2505 118.038 51.5865C118.033 50.9225 118.028 50.29 118.022 49.6892C118.016 49.0884 118.001 48.5507 117.977 48.076C117.97 47.5858 117.944 47.2139 117.901 46.9603C117.901 46.9445 117.894 46.9048 117.879 46.8414C117.88 46.7781 117.874 46.7069 117.859 46.6276C117.86 46.5486 117.861 46.4854 117.862 46.438C117.863 46.3747 117.864 46.3273 117.865 46.2957C118.105 46.11 118.303 46.05 118.46 46.1158C118.633 46.1819 118.773 46.3265 118.88 46.5496C118.987 46.7569 119.062 47.0189 119.104 47.3358C119.146 47.6527 119.173 47.9693 119.183 48.2856C119.21 48.6022 119.221 48.8949 119.216 49.1635C119.212 49.4164 119.209 49.5982 119.207 49.7088C119.243 49.4406 119.296 49.1253 119.365 48.7629C119.434 48.4004 119.535 48.0306 119.668 47.6534C119.801 47.2762 119.957 46.9072 120.137 46.5466C120.333 46.1704 120.567 45.8423 120.841 45.5623C121.114 45.2822 121.418 45.0659 121.753 44.9134C122.103 44.7611 122.499 44.7044 122.941 44.7433C123.636 44.7864 124.202 44.9854 124.638 45.3404C125.091 45.6956 125.439 46.1677 125.682 46.7566C125.941 47.3458 126.12 48.0206 126.218 48.7811C126.332 49.5417 126.397 50.3491 126.415 51.203C126.448 52.0572 126.45 52.9267 126.419 53.8115C126.389 54.6804 126.368 55.5179 126.354 56.3239C126.212 56.3532 126.068 56.4062 125.925 56.4828C125.782 56.5437 125.663 56.5655 125.568 56.5481C125.473 56.5465 125.403 56.4821 125.358 56.3549C125.329 56.2122 125.349 55.9438 125.419 55.5497C125.439 55.2655 125.47 54.8313 125.511 54.247C125.568 53.6473 125.595 52.9837 125.591 52.2565C125.603 51.5295 125.576 50.7781 125.51 50.0024C125.444 49.2267 125.305 48.521 125.094 47.8852C124.9 47.2338 124.608 46.7073 124.219 46.3057C123.831 45.8883 123.321 45.6743 122.689 45.6639C122.036 45.9219 121.483 46.4186 121.028 47.1541C120.589 47.8899 120.227 48.7534 119.942 49.7446C119.673 50.7361 119.465 51.8156 119.319 52.983C119.19 54.1349 119.108 55.2638 119.074 56.3698C119.042 56.3535 118.979 56.3446 118.884 56.343C118.805 56.3417 118.711 56.3401 118.6 56.3383C118.505 56.3209 118.411 56.3036 118.316 56.2862C118.238 56.2691 118.19 56.2525 118.175 56.2365Z" fill="#88B1D5"/>
                <path d="M130.097 47.944C129.955 47.8942 129.758 47.8751 129.505 47.8868C129.268 47.8829 129.007 47.8944 128.722 47.9213C128.453 47.9326 128.192 47.9521 127.938 47.9795C127.685 48.0069 127.471 48.0192 127.298 48.0163C127.219 48.015 127.165 47.9035 127.137 47.6817C127.125 47.4444 127.099 47.1278 127.058 46.7319L130.404 46.55C130.461 45.9976 130.499 45.603 130.519 45.3662C130.538 45.1294 130.542 44.9319 130.529 44.7736C130.531 44.5997 130.527 44.4099 130.514 44.2042C130.518 43.983 130.523 43.6432 130.531 43.1849C130.943 43.1284 131.251 43.1177 131.456 43.1527C131.677 43.1722 131.827 43.2299 131.904 43.3261C131.981 43.4222 132.011 43.565 131.992 43.7544C131.989 43.9282 131.962 44.1491 131.91 44.417C131.874 44.6851 131.837 45.0086 131.799 45.3873C131.777 45.7664 131.786 46.1934 131.825 46.6683L134.671 46.6204L134.652 47.782C134.526 47.7799 134.328 47.7845 134.059 47.7959C133.79 47.8073 133.498 47.8183 133.181 47.8288C132.881 47.8397 132.596 47.8508 132.327 47.8622C132.074 47.8738 131.884 47.9023 131.757 47.9476C131.621 48.5145 131.476 49.1207 131.324 49.7664C131.171 50.412 131.065 51.0505 131.007 51.6819C130.95 52.3132 130.956 52.9062 131.025 53.4606C131.096 53.9993 131.286 54.4529 131.596 54.8216C131.906 55.1746 132.353 55.4269 132.935 55.5788C133.518 55.7149 134.293 55.6803 135.261 55.4749C135.225 55.7115 135.127 55.9074 134.966 56.0629C134.822 56.2028 134.646 56.3184 134.439 56.4099C134.248 56.4858 134.041 56.5456 133.819 56.5893C133.598 56.6173 133.4 56.6299 133.226 56.627C132.42 56.6137 131.782 56.4609 131.313 56.1686C130.844 55.8605 130.494 55.4674 130.265 54.9894C130.036 54.5114 129.895 53.9715 129.841 53.3699C129.788 52.7525 129.775 52.1279 129.801 51.496C129.843 50.8643 129.901 50.2409 129.974 49.6255C130.048 49.0102 130.088 48.4497 130.097 47.944Z" fill="#88B1D5"/>
                <path d="M135.926 51.0753C135.934 50.6012 136.045 50.0814 136.26 49.5158C136.475 48.9344 136.76 48.4017 137.116 47.9175C137.488 47.4177 137.898 47.0056 138.346 46.681C138.81 46.3408 139.287 46.1748 139.777 46.1829C140.046 46.1873 140.305 46.2469 140.557 46.3617C140.823 46.4768 141.074 46.6311 141.308 46.8247C141.558 47.0027 141.776 47.2118 141.961 47.452C142.163 47.6766 142.317 47.9163 142.424 48.171C142.53 48.4257 142.581 48.6716 142.578 48.9086C142.589 49.1459 142.523 49.3504 142.378 49.5219L137.36 50.3639C137.297 50.3787 137.24 50.4568 137.191 50.5982C137.141 50.7239 137.099 50.8892 137.064 51.0941C137.029 51.299 136.993 51.5277 136.958 51.78C136.938 52.0168 136.918 52.2536 136.899 52.4904C136.879 52.7114 136.868 52.9167 136.865 53.1064C136.862 53.2802 136.86 53.4146 136.858 53.5094C136.851 53.9519 136.947 54.3171 137.148 54.605C137.365 54.8773 137.638 55.0873 137.968 55.235C138.297 55.3827 138.667 55.4837 139.077 55.5379C139.503 55.5923 139.922 55.6229 140.333 55.6297C140.743 55.6365 141.131 55.6271 141.495 55.6015C141.859 55.5758 142.159 55.565 142.397 55.5689C142.395 55.6321 142.371 55.7028 142.322 55.7811C142.273 55.8593 142.217 55.9374 142.152 56.0154C142.088 56.0776 142.023 56.1398 141.959 56.2019C141.895 56.2483 141.855 56.2793 141.839 56.2948C141.712 56.3243 141.514 56.3685 141.244 56.4273C140.99 56.4705 140.713 56.5134 140.412 56.5558C140.127 56.5985 139.857 56.6336 139.604 56.6611C139.351 56.6885 139.177 56.7014 139.082 56.6999C138.59 56.7866 138.164 56.7717 137.802 56.655C137.44 56.5384 137.135 56.3437 136.887 56.0708C136.638 55.798 136.438 55.4706 136.287 55.0887C136.135 54.691 136.023 54.2702 135.952 53.8264C135.88 53.3826 135.84 52.9235 135.832 52.4491C135.84 51.975 135.871 51.5171 135.926 51.0753ZM139.43 47.0783C139.288 47.0759 139.097 47.1518 138.857 47.3059C138.634 47.4445 138.417 47.6307 138.208 47.8643C138.015 48.0825 137.845 48.3247 137.698 48.591C137.567 48.8418 137.524 49.0624 137.568 49.2528C137.979 49.307 138.405 49.3062 138.849 49.2502C139.293 49.1943 139.697 49.1061 140.063 48.9857C140.429 48.8495 140.731 48.6964 140.971 48.5264C141.212 48.3407 141.325 48.1529 141.313 47.963C141.316 47.7733 141.168 47.6049 140.87 47.4577C140.589 47.295 140.108 47.1685 139.43 47.0783Z" fill="#88B1D5"/>
            </g>
            <g id="draw/arrow">
                <path id="Vector 175" d="M56.8031 43.5107C50.5976 38.1571 37.0329 32.7227 32.418 53.8143" stroke="#88B1D5" stroke-linecap="round" stroke-linejoin="round"/>
                <path id="Vector 303" d="M30.8971 51.4897L32.3759 54.2436L35.0974 52.5086" stroke="#88B1D5" stroke-linecap="round"/>
            </g>
            <path id="draw:reverse/mask" d="M58.7827 55.1319C58.991 51.7491 59.595 44.6607 60.3442 43.3702C61.2808 41.7569 61.8012 40.1956 63.6227 41.4967C65.0799 42.5376 65.4789 46.6145 65.4963 48.5228L60.0317 49.2514L65.7045 49.1994L66.2769 54.4558C65.5483 56.0691 64.1223 59.6497 64.2473 61.0653C64.4034 62.8348 68.4107 63.7195 70.7527 62.3664C73.0946 61.0132 74.4478 57.7345 73.8753 54.2996C73.4173 51.5517 73.0946 51.1423 72.9905 51.2811C72.4528 52.2353 71.0545 54.0915 69.7639 53.8833C68.1505 53.6231 67.9944 53.4149 68.3066 51.0209C68.6189 48.6269 68.2026 46.5972 69.8679 45.8166C71.5333 45.0359 72.9905 45.7125 73.1467 46.5972C73.2716 47.305 73.8926 50.8821 74.1875 52.5822L76.2693 46.2329C76.2866 47.4646 76.4462 50.2611 76.9458 51.5934C77.5704 53.2588 77.5704 54.5078 79.1837 54.5078C80.7971 54.5078 81.4216 53.3108 81.9941 52.6343C82.5665 51.9577 83.6594 49.4596 83.6594 48.3667C83.6594 47.4924 83.5901 46.3023 83.5554 45.8166L84.7877 55.5808L86.73 46.5972C86.9555 46.1635 87.7501 45.2857 89.124 45.2441C90.8414 45.192 91.8823 45.5043 92.1425 47.3258C92.3507 48.783 92.1946 51.6454 92.0905 52.8945C91.6047 52.3046 90.3731 51.1874 89.3322 51.4373C88.0311 51.7495 86.9382 51.3852 86.678 52.6343C86.4177 53.8833 86.1575 54.5599 87.1464 54.8201C88.1352 55.0803 89.6965 55.7569 90.8414 55.2364C91.7574 54.8201 92.4027 54.3343 92.6109 54.1435L94.4324 55.0282L94.2763 46.8054L95.057 48.1065C95.5427 47.5513 96.8264 46.5452 98.0755 46.9615C99.3245 47.3779 100.192 47.5513 100.469 47.586L106.09 37.958L105.934 51.6972C105.656 51.0033 104.872 49.4905 103.956 48.9909C102.811 48.3664 101.666 48.2103 100.886 49.1991C100.105 50.1879 99.3245 50.8645 99.5847 53.2585C99.845 55.6525 102.083 55.3402 103.436 55.4443C104.789 55.5484 105.83 55.6004 106.09 52.5299C106.298 50.0734 108.05 53.6922 108.901 55.8086L108.692 46.8572C108.12 45.105 107.246 41.7257 108.328 42.2253C109.411 42.7249 110.826 46.3194 111.399 48.0541C111.711 47.1694 112.679 45.4728 114.053 45.7642C115.77 46.1285 117.123 47.4296 116.447 48.4705C115.906 49.3032 113.099 49.2685 111.763 49.1471C111.416 49.1991 110.701 49.6883 110.618 51.2288C110.514 53.1544 110.982 55.2361 111.867 55.2361C112.752 55.2361 114.469 55.9647 116.655 55.1841C118.404 54.5596 118.633 55.3402 118.529 55.8086L118.216 46.0245L119.049 51.0727C119.361 48.9042 120.485 44.6609 122.484 45.0356C124.982 45.504 125.19 45.9724 125.398 46.9092C125.565 47.6586 125.641 53.085 125.658 55.7045C128.07 56.7107 133.09 58.4628 133.881 57.422C134.672 56.3811 134.94 55.7045 134.974 55.4964C134.159 55.7913 132.289 56.1001 131.331 54.9759C130.134 53.5708 129.926 51.437 130.186 50.4481C130.394 49.6571 130.898 45.3652 131.123 43.3182L130.238 42.3814L127.064 47.2215L135.807 46.9092L136.952 48.3664C137.299 47.5164 138.367 45.9204 139.866 46.3367C141.74 46.8572 142.052 48.0541 141.896 48.6266C141.771 49.0846 138.825 49.5114 137.368 49.6675C137.021 49.3552 136.296 49.1679 136.171 50.9165C136.015 53.1024 136.067 55.1841 137.056 55.6004C138.045 56.0168 141.688 56.3811 142.885 55.4964" stroke="#1E1E1E" stroke-width="4" stroke-linejoin="round"/>
        </g>
    </g>
</svg>
