<svg width="399" height="452" viewBox="0 0 399 452" fill="none" xmlns="http://www.w3.org/2000/svg">
    <g id="[export] illustration_9">
        <g id="Clinics first trial">
            <path id="Vector" d="M103.295 207.86C171.632 211.757 208.678 193.654 208.678 193.654C210.751 140.065 193.983 97.0993 193.983 97.0993C131.922 96.7623 91.82 110.029 91.82 110.029C91.82 110.029 90.8573 134.91 93.3515 159.998C96.2167 185.027 103.295 207.86 103.295 207.86Z" fill="#1E1E1E"/>
            <path id="Vector_2" d="M170.864 33.4667C191.71 47.2484 193.402 53.0642 206.507 108.789C221.303 170.33 214.468 244.083 214.468 244.083C214.468 244.083 175.822 280.702 107.35 259.327C107.35 259.327 86.4101 183.173 84.3014 155.74C82.1928 128.308 74.8141 56.0692 97.1867 43.7386L97.5576 43.6792C79.9028 52.2114 70.8829 62.4047 70.8829 62.4047C77.8421 74.9856 72.1923 118.116 78.1007 169.286C78.635 172.625 79.0953 177.877 79.5703 180.844C79.5703 180.844 84.6896 191.437 85.8177 198.484C87.406 210.783 83.6229 213.291 83.6229 213.291C84.4541 218.484 85.7009 226.273 86.4727 231.095C86.4727 231.095 94.2624 239.358 96.5332 251.168C97.3644 256.36 91.7714 261.821 91.7714 261.821L94.2056 277.028C94.2056 277.028 97.6332 281.805 98.9834 283.111C103.524 287.71 105.468 292.724 105.468 292.724C149.103 306.282 154.488 294.768 154.488 294.768L172.158 293.462C192.232 302.421 230.983 278.339 230.983 278.339C230.983 278.339 232.165 200.165 223.067 145.701C221.404 135.316 219.193 123.877 217.768 114.975C217.768 114.975 215.883 110.332 215.438 102.795C214.859 96.8007 215.57 91.7414 215.57 91.7414C213.655 72.647 209.618 47.4252 209.618 47.4252C209.618 47.4252 195.538 37.8863 170.864 33.4667Z" fill="#1E1E1E"/>
            <path id="Vector_3" d="M395.097 379.128C384.236 368.313 334.353 327.605 326.397 277.903C318.442 228.201 310.517 202.46 299.344 182.565C288.171 162.67 297.591 147.848 274.251 118.488C250.911 89.1284 248.33 87.2591 245.332 82.7936C240.866 76.2806 230.703 72.2013 223.671 80.5547C217.01 88.8488 212.382 97.9587 219.846 118.447C227.31 138.936 242.993 158.49 242.993 158.49C242.993 158.49 253.041 209.378 245.416 223.533C225.107 260.64 237.529 307.345 237.529 307.345" stroke="#1E1E1E" stroke-miterlimit="10" stroke-linecap="round" stroke-linejoin="round"/>
            <path id="Vector_4" d="M256.594 98.4895C256.594 98.4895 255.17 108.608 244.621 106.873C234.072 105.138 228.389 86.2661 228.389 86.2661" stroke="#1E1E1E" stroke-miterlimit="10" stroke-linecap="round" stroke-linejoin="round"/>
            <path id="Vector_5" d="M282.561 132.375C282.561 132.375 277.754 140.372 269.016 145.195" stroke="#1E1E1E" stroke-miterlimit="10" stroke-linecap="round" stroke-linejoin="round"/>
            <path id="Vector_6" d="M75.3372 109.244C75.3372 109.244 45.1742 103.801 37.3851 105.048C29.596 106.294 22.8903 111.933 27.8168 123.698C32.8027 135.834 67.6247 146.617 75.3991 147.655" stroke="#1E1E1E" stroke-miterlimit="10" stroke-linecap="round" stroke-linejoin="round"/>
            <path id="Vector_7" d="M76.3192 148.649C76.3192 148.649 48.5757 160.698 42.9094 177.583C38.311 191.633 60.1078 220.859 62.7489 223.1C65.8202 225.651 84.5137 218.855 85.6405 206.882C86.7672 194.909 81.3511 182.461 70.6381 167.818" stroke="#1E1E1E" stroke-miterlimit="10" stroke-linecap="round" stroke-linejoin="round"/>
            <path id="Vector_8" d="M63.1934 221.126C63.3708 212.728 74.6162 202.179 74.6162 202.179C74.6162 202.179 70.773 194.805 64.1707 193.96C55.5951 192.67 51.6939 203.946 52.4064 208.397" stroke="#1E1E1E" stroke-miterlimit="10" stroke-linecap="round" stroke-linejoin="round"/>
            <path id="Vector_9" d="M222.591 142.735C222.591 142.735 235.292 155.538 239.61 156.368" stroke="#1E1E1E" stroke-miterlimit="10" stroke-linecap="round" stroke-linejoin="round"/>
            <path id="Vector_10" d="M106.387 293.718C150.022 307.276 155.407 295.762 155.407 295.762L173.078 294.455C193.152 303.415 231.903 279.333 231.903 279.333C231.903 279.333 233.085 201.159 223.986 146.695C222.324 136.31 220.127 122.586 218.702 113.684" stroke="#1E1E1E" stroke-miterlimit="10" stroke-linecap="round" stroke-linejoin="round"/>
            <path id="Vector_11" d="M92.2622 262.505L94.6964 277.712" stroke="#1E1E1E" stroke-miterlimit="10" stroke-linecap="round" stroke-linejoin="round"/>
            <path id="Vector_12" d="M84.1128 213.975C84.944 219.167 86.1908 226.956 86.9626 231.778" stroke="#1E1E1E" stroke-miterlimit="10" stroke-linecap="round" stroke-linejoin="round"/>
            <path id="Vector_13" d="M215.362 95.199C213.447 76.1046 209.365 48.2271 209.365 48.2271C209.365 48.2271 182.999 28.4815 138.386 32.5794C93.773 36.6773 71.3123 62.7169 71.3123 62.7169C78.2715 75.2978 72.6217 118.428 78.5302 169.599C79.0645 172.937 79.5248 178.189 79.9998 181.156" stroke="#1E1E1E" stroke-miterlimit="10" stroke-linecap="round" stroke-linejoin="round"/>
            <path id="Vector_14" d="M134.443 290.749C134.443 290.749 136.447 296.135 155.037 295.822" stroke="#1E1E1E" stroke-miterlimit="10" stroke-linecap="round" stroke-linejoin="round"/>
            <path id="Vector_15" d="M191.548 283.891C191.548 283.891 191.742 292.229 172.647 294.144" stroke="#1E1E1E" stroke-miterlimit="10" stroke-linecap="round" stroke-linejoin="round"/>
            <path id="Vector_16" d="M110.983 189.928L194.541 179.596" stroke="white" stroke-miterlimit="10" stroke-linecap="round" stroke-linejoin="round"/>
            <path id="Vector_17" d="M105.322 113.574C105.322 113.574 100.501 123.856 102.697 128.069C105.204 131.852 110.219 129.908 111.599 126.644C112.859 122.638 105.322 113.574 105.322 113.574Z" fill="white"/>
            <path id="Vector_18" d="M150.567 232.248L153.016 254.681C153.016 254.681 121.756 256.641 118.061 245.44C115.212 237.147 115.122 231.835 115.122 231.835C115.122 231.835 141.724 234.044 150.567 232.248Z" stroke="#1E1E1E" stroke-miterlimit="10" stroke-linecap="round" stroke-linejoin="round"/>
            <path id="Vector_19" d="M165.462 230.244L167.911 252.677C167.911 252.677 198.697 247.749 199.883 236.147C200.802 227.63 199.912 222.067 199.912 222.067C199.912 222.067 174.601 230.303 165.462 230.244Z" stroke="#1E1E1E" stroke-miterlimit="10" stroke-linecap="round" stroke-linejoin="round"/>
            <path id="Vector_20" d="M171.353 34.1496C192.14 47.5604 193.52 53.8065 206.936 109.101C221.732 170.642 214.897 244.395 214.897 244.395C214.897 244.395 176.251 281.014 107.779 259.639C107.779 259.639 86.8395 183.485 84.7308 156.052C82.6222 128.62 75.2435 56.3812 97.6161 44.0506" stroke="#1E1E1E" stroke-miterlimit="10" stroke-linecap="round" stroke-linejoin="round"/>
            <path id="Vector_21" d="M109.259 150.642C114.452 149.811 114.423 154.38 114.423 154.38L117.896 180.834L128.712 179.483L122.685 137.08L116.38 138.09C115.92 142.348 105.891 146.236 105.891 146.236L106.663 151.057L109.259 150.642Z" fill="white"/>
            <path id="Vector_22" d="M190.681 136.468C188.766 126.883 177.387 129.466 177.387 129.466C177.387 129.466 165.651 129.823 166.453 139.585C167.255 149.347 169.748 164.926 169.748 164.926C169.748 164.926 169.868 175.178 182.597 173.901L184.823 173.544C197.374 171.155 194.659 161.319 194.659 161.319C194.659 161.319 192.595 146.052 190.681 136.468ZM182.194 140.489C182.714 146.112 184.57 164.835 184.57 164.835C184.57 164.835 184.807 166.319 182.953 166.616C182.582 166.675 181.84 166.794 181.84 166.794C179.615 167.15 179.689 165.236 179.689 165.236C179.689 165.236 177.091 146.632 176.571 141.009C176.052 135.386 178.025 135.831 178.025 135.831L179.509 135.593C179.568 135.964 181.304 134.925 182.194 140.489Z" fill="white"/>
            <path id="Vector_23" d="M133.248 136.532L135.891 157.792L146.335 156.501C146.335 156.501 145.43 153.222 147.656 152.866C149.881 152.51 150 153.251 150.534 156.59C151.068 159.928 152.182 169.26 152.182 169.26C152.182 169.26 152.909 171.426 150.253 171.471C147.598 171.515 147.731 169.972 147.315 167.376C146.9 164.78 146.484 162.183 146.484 162.183L136.351 163.044C136.351 163.044 136.901 173.608 140.224 175.359C143.177 177.168 152.183 178.77 159.007 173.874C159.007 173.874 162.849 171.737 162.092 164.63C161.335 157.524 160.014 151.648 160.014 151.648C160.014 151.648 159.064 145.714 153.441 146.234C147.818 146.753 145.712 147.851 145.148 149.083L144.02 142.035L157.432 140.269L156.675 133.162L133.248 136.532Z" fill="white"/>
            <path id="Vector_24" d="M155.468 296.134L163.262 370.968C163.262 370.968 165.028 374.87 168.292 376.25L169.776 376.012L168.677 364.395L173.558 363.994L175.028 375.552L176.2 375.745C176.2 375.745 180.532 374.291 180.68 370.463L173.197 295.198" stroke="#1E1E1E" stroke-miterlimit="10" stroke-linecap="round" stroke-linejoin="round"/>
            <path id="Vector_25" d="M166.925 358.208L161.581 305.806" stroke="#1E1E1E" stroke-miterlimit="10" stroke-linecap="round" stroke-linejoin="round"/>
            <path id="Vector_26" d="M174.091 357.823L168.376 305.48" stroke="#1E1E1E" stroke-miterlimit="10" stroke-linecap="round" stroke-linejoin="round"/>
            <path id="Vector_27" d="M90.0203 265.144C90.0203 265.144 91.4305 276.331 101.372 286.152C115.304 299.519 94.4003 313.897 84.2371 309.817C74.4447 305.678 71.0465 296.332 65.9125 288.024C61.1494 279.656 59.3676 259.019 59.3676 259.019" stroke="#1E1E1E" stroke-miterlimit="10" stroke-linecap="round" stroke-linejoin="round"/>
            <path id="Vector_28" d="M79.6363 285.828L78.138 288.35C73.0346 294.493 82.9164 303.943 82.9164 303.943C84.4588 294.566 93.9983 289.996 93.9983 289.996C93.9983 289.996 87.2766 278.899 79.6363 285.828Z" stroke="#1E1E1E" stroke-miterlimit="10" stroke-linecap="round" stroke-linejoin="round"/>
            <path id="Vector_29" d="M67.2767 268.025C67.2767 268.025 74.9317 258.811 85.0797 255.665C85.0797 255.665 75.2866 242.016 70.168 240.934C65.0493 239.851 53.403 245.519 57.2315 255.178" stroke="#1E1E1E" stroke-miterlimit="10" stroke-linecap="round" stroke-linejoin="round"/>
            <path id="Vector_30" d="M48.8606 202.879C48.8606 202.879 43.6091 212.85 41.7852 227.597C40.8066 235.743 57.2319 255.177 64.2058 265.473C67.203 269.939 72.4998 272.134 77.5738 270.561C92.4842 266.273 103.255 252.756 91.4289 238.291C75.8048 219.108 82.0061 215.073 82.0061 215.073" stroke="#1E1E1E" stroke-miterlimit="10" stroke-linecap="round" stroke-linejoin="round"/>
            <path id="Vector_31" d="M179.387 360.018C194.194 371.723 212.518 384.006 230.456 389.124C242.74 392.738 256.183 405.419 268.896 421.354" stroke="#1E1E1E" stroke-miterlimit="10" stroke-linecap="round" stroke-linejoin="round"/>
            <path id="Vector_32" d="M113.168 295.677C113.168 295.677 145.039 323.672 152.384 333.908C153.853 335.956 156.182 338.626 159.372 341.919" stroke="#1E1E1E" stroke-miterlimit="10" stroke-linecap="round" stroke-linejoin="round"/>
            <path id="Vector_33" d="M42.8494 186.722C42.8494 186.722 43.279 177.523 55.2815 174.08" stroke="#1E1E1E" stroke-miterlimit="10" stroke-linecap="round" stroke-linejoin="round"/>
            <path id="Vector_34" d="M44.9451 235.461C44.9451 235.461 45.3007 228.176 55.4487 225.03" stroke="#1E1E1E" stroke-miterlimit="10" stroke-linecap="round" stroke-linejoin="round"/>
            <path id="Vector_35" d="M70.3196 284.657C70.3196 284.657 70.6752 277.372 80.8232 274.226" stroke="#1E1E1E" stroke-miterlimit="10" stroke-linecap="round" stroke-linejoin="round"/>
            <path id="Vector_36" d="M311.446 355.619C324.473 356.196 337.543 349.92 345.821 339.845" stroke="#1E1E1E" stroke-miterlimit="10" stroke-linecap="round" stroke-linejoin="round"/>
            <path id="Vector_37" d="M278.836 125.743C275.795 128.132 274.652 132.88 271.122 134.586" stroke="#1E1E1E" stroke-miterlimit="10" stroke-linecap="round" stroke-linejoin="round"/>
            <path id="Vector_38" d="M44.795 191.737C45.3734 188.221 47.5542 185.209 50.7143 183.562" stroke="#1E1E1E" stroke-miterlimit="10" stroke-linecap="round" stroke-linejoin="round"/>
            <path id="Vector_39" d="M48.2104 236.839C49.0263 234.807 51.0142 232.967 53.1803 232.24" stroke="#1E1E1E" stroke-miterlimit="10" stroke-linecap="round" stroke-linejoin="round"/>
            <path id="Vector_40" d="M74.34 283.632C76.328 281.792 78.7462 280.264 81.2238 279.107" stroke="#1E1E1E" stroke-miterlimit="10" stroke-linecap="round" stroke-linejoin="round"/>
        </g>
        <g id="Comment diabetes">
            <path id="150 mg/dl&#226;&#128;&#168;on an empty&#226;&#128;&#168;stomach is quite high" d="M11.7895 364.778C12.1878 364.707 12.4914 364.665 12.7003 364.651C12.9099 364.616 13.0775 364.59 13.2031 364.573C13.3495 364.557 13.4748 364.551 13.5789 364.554C13.683 364.557 13.8187 364.551 13.9859 364.536C14.1532 364.52 14.3728 364.496 14.6448 364.463C14.9377 364.431 15.3464 364.361 15.871 364.252C16.0764 363.696 16.2429 363.055 16.3704 362.33C16.4985 361.584 16.6072 360.795 16.6964 359.964C16.7863 359.112 16.856 358.239 16.9055 357.345C16.9759 356.45 17.0355 355.567 17.0844 354.693C17.1333 353.819 17.1916 352.976 17.2593 352.166C17.3276 351.334 17.4141 350.587 17.5188 349.923C17.498 349.922 17.4459 349.921 17.3626 349.918C17.3008 349.895 17.2595 349.883 17.2387 349.883C16.8014 349.869 16.3716 349.949 15.9491 350.123C15.5474 350.297 15.1451 350.493 14.7422 350.709C14.3399 350.905 13.9275 351.09 13.505 351.264C13.1034 351.438 12.6735 351.518 12.2154 351.504L12.1275 350.344C12.1484 350.345 12.2857 350.286 12.5396 350.17C12.7935 350.053 13.1101 349.927 13.4896 349.794C13.8906 349.64 14.3336 349.477 14.8185 349.305C15.3249 349.113 15.8203 348.941 16.3045 348.79C16.7894 348.618 17.2425 348.465 17.6636 348.333C18.1056 348.201 18.4837 348.109 18.7981 348.057L18.294 363.767C18.4754 363.961 18.7424 364.084 19.0951 364.137C19.4692 364.17 19.8544 364.182 20.2507 364.174C20.6679 364.167 21.0746 364.159 21.4709 364.151C21.888 364.143 22.2413 364.175 22.5308 364.247L22.4585 365.527C21.6048 365.499 20.7601 365.514 19.9245 365.571C19.089 365.627 18.2531 365.694 17.4168 365.771C16.6021 365.829 15.7769 365.886 14.9413 365.942C14.1266 365.999 13.3131 366.015 12.5011 365.989C12.272 365.982 12.1303 365.852 12.0758 365.6C12.0214 365.348 11.9259 365.074 11.7895 364.778ZM24.3846 363.963C25.1262 364.237 25.888 364.532 26.6699 364.849C27.4733 365.146 28.2915 365.307 29.1244 365.334C29.6241 365.35 30.1584 365.263 30.7273 365.073C31.2962 364.883 31.8154 364.618 32.2848 364.279C32.7751 363.94 33.1841 363.536 33.5118 363.067C33.8603 362.599 34.0433 362.094 34.0606 361.553C34.0807 360.928 33.9425 360.361 33.6462 359.851C33.3499 359.342 32.9677 358.912 32.4994 358.564C32.0319 358.195 31.4992 357.906 30.9013 357.7C30.3243 357.494 29.7547 357.382 29.1925 357.363C28.7344 357.349 28.2837 357.428 27.8404 357.602C27.4186 357.755 26.9965 357.918 26.574 358.092C26.1522 358.246 25.7207 358.378 25.2794 358.489C24.8589 358.6 24.4106 358.607 23.9343 358.508C23.8482 357.942 23.7706 357.44 23.7013 357C23.6327 356.539 23.5843 356.1 23.556 355.682C23.5284 355.243 23.5105 354.826 23.5024 354.43C23.4949 354.012 23.4992 353.554 23.5152 353.054C23.5453 352.117 23.7346 351.415 24.0831 350.946C24.4531 350.458 24.9229 350.108 25.4925 349.897C26.062 349.686 26.7011 349.582 27.4098 349.584C28.1399 349.565 28.8798 349.568 29.6294 349.592C29.7543 349.596 29.9414 349.613 30.1906 349.642C30.4613 349.65 30.7212 349.669 30.9704 349.698C31.2411 349.706 31.4698 349.724 31.6566 349.751C31.8648 349.758 31.9897 349.762 32.0314 349.763L32.3721 350.837C31.8301 350.841 31.2259 350.832 30.5596 350.81C29.9141 350.789 29.2679 350.79 28.621 350.811C27.995 350.832 27.3888 350.886 26.8025 350.971C26.2168 351.036 25.7332 351.166 25.3517 351.362L25.1783 356.766C25.8359 356.412 26.4877 356.235 27.1339 356.234C27.7807 356.213 28.4477 356.214 29.1348 356.236C29.8636 356.259 30.5992 356.398 31.3414 356.651C32.0844 356.883 32.7507 357.228 33.3406 357.684C33.9304 358.141 34.4128 358.698 34.7877 359.356C35.1633 359.994 35.3374 360.739 35.31 361.593C35.29 362.218 35.1037 362.827 34.7511 363.42C34.3986 364.013 33.9436 364.551 33.3862 365.033C32.8503 365.495 32.2545 365.872 31.599 366.164C30.9442 366.435 30.3148 366.56 29.711 366.541C29.232 366.526 28.6806 366.498 28.0566 366.457C27.4527 366.437 26.8505 366.366 26.25 366.242C25.6495 366.119 25.1138 365.925 24.6429 365.659C24.1928 365.395 23.8925 365.01 23.7419 364.505L24.3846 363.963ZM36.5206 358.943C36.5333 358.547 36.5587 358.079 36.5969 357.539C36.6559 356.998 36.7364 356.438 36.8384 355.858C36.9612 355.278 37.115 354.71 37.2996 354.153C37.505 353.597 37.7609 353.094 38.0671 352.646C38.3733 352.197 38.739 351.844 39.1641 351.587C39.5899 351.308 40.0943 351.179 40.6773 351.197C41.8642 351.235 42.898 351.498 43.7787 351.985C44.66 352.451 45.3799 353.078 45.9382 353.867C46.4972 354.636 46.9064 355.524 47.1658 356.533C47.4253 357.542 47.5373 358.598 47.5019 359.702C47.4872 360.16 47.4295 360.658 47.3289 361.197C47.2282 361.736 47.0752 362.283 46.8697 362.839C46.665 363.375 46.4085 363.898 46.1002 364.409C45.8135 364.9 45.4764 365.338 45.0889 365.721C44.7014 366.105 44.2538 366.414 43.746 366.647C43.2389 366.86 42.6835 366.957 42.0796 366.938C40.9552 366.902 40.0258 366.632 39.2916 366.129C38.5788 365.606 38.0054 364.962 37.5714 364.198C37.1581 363.435 36.8725 362.592 36.7145 361.669C36.5572 360.726 36.4925 359.818 36.5206 358.943ZM37.79 358.358C37.7639 359.171 37.759 359.973 37.7753 360.765C37.7916 361.558 37.9146 362.271 38.1444 362.903C38.3951 363.537 38.7744 364.06 39.2822 364.472C39.8109 364.885 40.5646 365.107 41.5433 365.139C42.3762 365.165 43.0888 365.042 43.6812 364.769C44.2743 364.476 44.7558 364.085 45.1258 363.596C45.5173 363.088 45.797 362.492 45.9648 361.81C46.1541 361.107 46.2614 360.36 46.2868 359.569C46.2294 358.108 45.9666 356.88 45.4982 355.886C45.0299 354.891 44.4602 354.133 43.7891 353.611C43.1179 353.089 42.4082 352.795 41.66 352.73C40.9117 352.664 40.2289 352.83 39.6117 353.227C38.9945 353.624 38.5053 354.254 38.1441 355.118C37.7835 355.961 37.6655 357.041 37.79 358.358ZM60.0561 355.29C60.306 355.298 60.5747 355.369 60.8622 355.503C61.1497 355.637 61.3499 355.894 61.4628 356.273C61.6521 355.57 61.9203 355.005 62.2675 354.579C62.6355 354.153 63.0408 353.864 63.4835 353.711C63.9469 353.559 64.4171 353.522 64.894 353.6C65.3924 353.658 65.8458 353.818 66.2543 354.081C66.6835 354.345 67.048 354.68 67.3476 355.086C67.6681 355.492 67.8824 355.958 67.9907 356.482C68.2404 355.844 68.5614 355.26 68.9536 354.731C69.3673 354.181 69.8091 353.726 70.2793 353.366C70.7702 353.007 71.2679 352.762 71.7723 352.633C72.2976 352.504 72.7761 352.529 73.2081 352.71C73.6615 352.87 74.0464 353.216 74.3629 353.748C74.7008 354.259 74.9273 354.995 75.0424 355.958C75.0753 356.23 75.1144 356.638 75.1595 357.181C75.2052 357.704 75.2487 358.299 75.2897 358.967C75.3517 359.636 75.4122 360.347 75.4715 361.099C75.5522 361.831 75.6131 362.532 75.6542 363.2C75.7161 363.869 75.7696 364.475 75.8147 365.019C75.8605 365.541 75.9002 365.928 75.9338 366.179C75.9271 366.388 75.9094 366.616 75.8805 366.865C75.8517 367.115 75.7926 367.332 75.7033 367.516C75.6355 367.681 75.5173 367.792 75.3487 367.849C75.2016 367.886 74.9756 367.785 74.6706 367.546C74.6786 367.296 74.6604 366.889 74.616 366.325C74.5716 365.76 74.5298 365.113 74.4907 364.382C74.4523 363.63 74.3941 362.847 74.316 362.032C74.2594 361.196 74.1908 360.412 74.11 359.68C74.0501 358.949 73.998 358.301 73.9535 357.736C73.9091 357.172 73.8593 356.775 73.8042 356.544C73.5226 355.576 73.2108 354.899 72.8688 354.513C72.5477 354.127 72.2095 353.949 71.8542 353.98C71.5197 354.011 71.1899 354.219 70.8649 354.605C70.5398 354.99 70.2427 355.481 69.9735 356.077C69.7042 356.673 69.443 357.342 69.1899 358.084C68.9583 358.806 68.7684 359.529 68.6201 360.254C68.4926 360.98 68.3976 361.664 68.3353 362.309C68.2938 362.953 68.3184 363.486 68.4091 363.906L67.183 364.116C67.3096 362.119 67.2891 360.483 67.1217 359.206C66.9757 357.909 66.7367 356.911 66.4048 356.212C66.0937 355.515 65.7215 355.096 65.2882 354.957C64.8556 354.797 64.4156 354.867 63.9684 355.165C63.5419 355.464 63.14 355.972 62.7626 356.69C62.3852 357.407 62.0861 358.283 61.8653 359.318C61.666 360.333 61.5665 361.487 61.5667 362.779C61.5669 364.072 61.7412 365.463 62.0894 366.955L60.9025 366.916C60.9025 366.916 60.8776 366.718 60.8278 366.32C60.7988 365.923 60.7524 365.421 60.6885 364.815C60.6461 364.188 60.5956 363.488 60.537 362.715C60.4791 361.921 60.4212 361.127 60.3633 360.333C60.306 359.519 60.2475 358.745 60.1876 358.014C60.1283 357.262 60.0758 356.624 60.03 356.102C60.032 356.039 60.0364 355.904 60.0431 355.696C60.0504 355.467 60.0548 355.331 60.0561 355.29ZM72.0776 375.279C72.0956 374.717 72.203 374.293 72.3997 374.007C72.5965 373.722 73.0385 373.59 73.7256 373.612C73.6538 373.902 73.5716 374.191 73.4789 374.48C73.3654 374.768 73.2735 375.036 73.203 375.284C73.1117 375.531 73.0741 375.728 73.0902 375.874C73.0856 376.02 73.1568 376.074 73.3039 376.038C73.9562 376.496 74.6749 376.832 75.4602 377.045C76.2454 377.257 77.0233 377.376 77.7937 377.401C78.9604 377.418 79.9676 377.21 80.8152 376.779C81.6836 376.348 82.4002 375.777 82.965 375.066C83.5506 374.355 84.0045 373.525 84.3268 372.577C84.6692 371.65 84.888 370.677 84.9832 369.659C85.0985 368.662 85.1101 367.651 85.0179 366.627C84.9257 365.603 84.7579 364.659 84.5146 363.797C84.148 364.181 83.7702 364.586 83.3814 365.011C83.0133 365.437 82.6154 365.82 82.1876 366.161C81.7605 366.481 81.3038 366.748 80.8175 366.961C80.3521 367.176 79.8278 367.273 79.2448 367.255C78.6409 367.235 78.1862 367.117 77.8805 366.898C77.5957 366.681 77.4069 366.393 77.3141 366.036C77.222 365.658 77.1837 365.229 77.199 364.75C77.2352 364.272 77.262 363.762 77.2794 363.221C77.2954 362.721 77.3239 362.159 77.3647 361.535C77.4264 360.912 77.5193 360.29 77.6435 359.668C77.7891 359.027 77.9653 358.407 78.1721 357.809C78.4004 357.191 78.6888 356.648 79.0373 356.18C79.3865 355.691 79.8156 355.309 80.3247 355.033C80.8338 354.758 81.432 354.631 82.1191 354.653C82.5564 354.667 82.9715 354.722 83.3645 354.818C83.7789 354.894 84.1497 355.031 84.4768 355.229C84.8248 355.428 85.1187 355.687 85.3586 356.008C85.5984 356.328 85.7836 356.73 85.914 357.213C85.9672 358.153 86.0386 359.177 86.1281 360.284C86.2183 361.371 86.286 362.509 86.3312 363.699C86.3771 364.868 86.381 366.045 86.3429 367.232C86.3048 368.419 86.1848 369.562 85.9828 370.66C85.8017 371.759 85.5083 372.781 85.1028 373.727C84.7174 374.694 84.1798 375.532 83.4901 376.239C82.8206 376.968 81.9895 377.536 80.9968 377.941C80.0034 378.368 78.8189 378.58 77.4433 378.578C76.8603 378.559 76.2473 378.498 75.6045 378.394C74.961 378.311 74.3722 378.146 73.8382 377.899C73.3035 377.674 72.8762 377.347 72.5564 376.92C72.2151 376.513 72.0555 375.966 72.0776 375.279ZM78.4663 363.259C78.4589 363.488 78.4402 363.748 78.41 364.039C78.3798 364.33 78.3809 364.622 78.4132 364.914C78.4455 365.207 78.5207 365.46 78.639 365.672C78.7781 365.885 79.0034 366.007 79.3151 366.038C79.8149 366.054 80.2766 365.954 80.7004 365.738C81.145 365.523 81.5403 365.223 81.8861 364.838C82.2528 364.454 82.5688 364.026 82.834 363.555C83.1207 363.064 83.3557 362.561 83.539 362.046C83.7431 361.531 83.8945 361.036 83.9932 360.56C84.1133 360.063 84.1794 359.628 84.1914 359.253C84.2666 358.859 84.2793 358.464 84.2295 358.066C84.2005 357.669 84.0974 357.311 83.92 356.993C83.7426 356.675 83.5008 356.417 83.1944 356.219C82.8888 356.001 82.5173 355.885 82.08 355.871C81.5803 355.855 81.1383 355.987 80.7542 356.266C80.3707 356.525 80.047 356.869 79.7831 357.298C79.5192 357.727 79.3053 358.221 79.1415 358.778C78.9784 359.315 78.8462 359.863 78.7449 360.423C78.665 360.962 78.5959 361.491 78.5376 362.011C78.5007 362.51 78.477 362.926 78.4663 363.259ZM92.1879 351.693C92.2336 351.569 92.29 351.436 92.3571 351.292C92.4249 351.127 92.5012 351.026 92.5858 350.987C92.6919 350.928 92.8058 350.952 92.9274 351.06C93.0496 351.147 93.1988 351.371 93.3748 351.731L87.7648 368.716L86.8579 367.749L92.1879 351.693ZM93.1997 364.013C93.2177 363.451 93.3311 362.84 93.5399 362.179C93.7493 361.498 94.0401 360.882 94.4121 360.331C94.7848 359.76 95.227 359.294 95.7388 358.936C96.2505 358.577 96.8396 358.408 97.5059 358.43C98.0057 358.446 98.4413 358.512 98.8127 358.628C99.2057 358.724 99.5651 358.892 99.8909 359.131C100.238 359.351 100.553 359.622 100.834 359.943C101.137 360.245 101.449 360.599 101.769 361.005L102.096 344.976C102.665 344.786 103.011 344.714 103.135 344.759C103.279 344.806 103.346 344.985 103.336 345.297C103.335 345.339 103.323 345.401 103.299 345.484C103.296 345.567 103.295 345.619 103.294 345.64C103.26 346.035 103.222 346.596 103.177 347.324C103.154 348.053 103.127 348.897 103.096 349.854C103.086 350.813 103.074 351.855 103.059 352.98C103.044 354.084 103.029 355.209 103.013 356.355C102.998 357.48 102.982 358.605 102.967 359.73C102.973 360.835 102.961 361.867 102.93 362.824C102.92 363.783 102.893 364.637 102.848 365.386C102.825 366.114 102.797 366.666 102.764 367.04C102.519 367.512 102.185 367.866 101.76 368.102C101.357 368.339 100.914 368.513 100.431 368.622C99.9692 368.712 99.4882 368.759 98.9878 368.764C98.4874 368.768 98.0186 368.764 97.5813 368.75C96.1862 368.705 95.0956 368.264 94.3096 367.425C93.5242 366.566 93.1542 365.429 93.1997 364.013ZM94.4761 363.21C94.4594 363.73 94.4843 364.252 94.5509 364.776C94.6182 365.278 94.7496 365.73 94.9451 366.133C95.1406 366.535 95.4218 366.867 95.7886 367.129C96.156 367.37 96.6313 367.5 97.2143 367.519C97.5683 367.53 97.9952 367.544 98.4949 367.56C98.9947 367.576 99.4753 367.539 99.9367 367.45C100.399 367.339 100.79 367.164 101.11 366.924C101.431 366.685 101.598 366.336 101.613 365.878C101.63 365.336 101.567 364.719 101.422 364.027C101.299 363.314 101.081 362.64 100.768 362.005C100.476 361.349 100.088 360.795 99.6019 360.341C99.1377 359.868 98.5724 359.621 97.9061 359.599C97.4688 359.585 97.0487 359.686 96.6457 359.903C96.2428 360.119 95.8794 360.399 95.5557 360.743C95.2529 361.088 95.0007 361.476 94.7993 361.907C94.5978 362.338 94.4901 362.773 94.4761 363.21ZM105.046 344.633C105.336 344.684 105.583 344.775 105.788 344.907C106.013 345.018 106.184 345.222 106.299 345.517C106.287 345.913 106.279 346.465 106.278 347.174C106.297 347.862 106.303 348.665 106.294 349.582C106.306 350.499 106.316 351.49 106.324 352.553C106.331 353.616 106.339 354.69 106.346 355.774C106.353 356.858 106.349 357.932 106.336 358.994C106.344 360.057 106.343 361.048 106.335 361.964C106.347 362.882 106.352 363.695 106.35 364.404C106.348 365.112 106.352 365.654 106.361 366.03C106.359 366.071 106.346 366.144 106.322 366.247C106.319 366.352 106.305 366.476 106.279 366.621C106.274 366.767 106.259 366.912 106.234 367.058C106.23 367.182 106.227 367.276 106.225 367.339C106.2 367.463 106.184 367.619 106.178 367.806C106.173 367.973 106.147 368.139 106.1 368.304C106.053 368.469 105.975 368.623 105.866 368.765C105.779 368.888 105.631 368.956 105.422 368.97L104.912 368.297C104.892 368.276 104.873 367.889 104.855 367.138C104.859 366.367 104.849 365.377 104.826 364.167C104.823 362.937 104.826 361.562 104.833 360.04C104.841 358.498 104.839 356.945 104.826 355.381C104.835 353.818 104.841 352.318 104.846 350.88C104.85 349.442 104.858 348.202 104.871 347.16C104.874 347.077 104.879 346.91 104.887 346.66C104.916 346.411 104.934 346.161 104.942 345.912C104.972 345.642 104.99 345.392 104.998 345.163C105.027 344.914 105.043 344.737 105.046 344.633ZM10.881 389.199C10.8964 388.72 10.9557 388.17 11.059 387.548C11.163 386.905 11.3191 386.264 11.5272 385.624C11.7353 384.985 11.9847 384.357 12.2755 383.741C12.587 383.126 12.9483 382.585 13.3593 382.119C13.771 381.631 14.2418 381.251 14.7717 380.976C15.3023 380.68 15.8903 380.543 16.5358 380.563C17.2021 380.585 17.8091 380.833 18.3566 381.31C18.9249 381.786 19.3952 382.396 19.7674 383.137C20.1605 383.879 20.4468 384.701 20.6263 385.603C20.8058 386.505 20.861 387.383 20.792 388.235C20.7519 389.484 20.4767 390.591 19.9664 391.554C19.4561 392.517 18.8164 393.289 18.0475 393.869C17.2993 394.449 16.495 394.83 15.6346 395.011C14.795 395.192 14.0054 395.115 13.2658 394.778C12.5477 394.422 11.9532 393.788 11.4821 392.876C11.0319 391.966 10.8316 390.74 10.881 389.199ZM12.0326 389.361C12.0544 390.633 12.2416 391.619 12.5944 392.318C12.9471 393.017 13.3801 393.49 13.8933 393.735C14.428 393.961 15.0111 393.98 15.6424 393.791C16.2738 393.603 16.8685 393.258 17.4266 392.754C17.9854 392.23 18.4648 391.579 18.865 390.8C19.2867 390 19.5344 389.101 19.6081 388.103C19.6738 387.355 19.6347 386.624 19.4909 385.911C19.3678 385.198 19.1692 384.567 18.8951 384.016C18.6424 383.445 18.3129 382.997 17.9064 382.671C17.5215 382.325 17.0687 382.144 16.5482 382.127C16.0484 382.111 15.5967 382.222 15.1931 382.459C14.7894 382.696 14.414 383.028 14.0668 383.454C13.7411 383.861 13.4551 384.331 13.2087 384.865C12.9622 385.399 12.7471 385.934 12.5631 386.47C12.4 387.007 12.2684 387.534 12.1684 388.052C12.0899 388.55 12.0447 388.986 12.0326 389.361ZM22.103 395.124C22.0721 394.79 22.0458 394.31 22.0242 393.684C22.0241 393.037 22.0159 392.318 21.9996 391.525C22.0048 390.713 22.0111 389.869 22.0183 388.993C22.0256 388.118 22.0314 387.285 22.036 386.493C22.0406 385.701 22.0321 384.992 22.0104 384.366C22.0103 383.72 21.9844 383.229 21.9326 382.894C21.9333 382.873 21.9245 382.821 21.9064 382.737C21.9091 382.653 21.9017 382.559 21.8842 382.455C21.8875 382.35 21.8902 382.267 21.8922 382.205C21.8949 382.121 21.8969 382.059 21.8982 382.017C22.2186 381.777 22.4815 381.702 22.6871 381.792C22.9134 381.883 23.0948 382.077 23.2312 382.373C23.3683 382.648 23.4614 382.995 23.5105 383.413C23.5596 383.832 23.5879 384.25 23.5954 384.667C23.6236 385.085 23.6321 385.47 23.6208 385.824C23.6101 386.158 23.6024 386.397 23.5977 386.543C23.6507 386.19 23.7265 385.776 23.8252 385.3C23.9238 384.823 24.0645 384.338 24.2471 383.844C24.4297 383.349 24.6432 382.866 24.8876 382.395C25.1535 381.903 25.4695 381.475 25.8355 381.112C26.2015 380.748 26.6065 380.47 27.0505 380.275C27.5152 380.082 28.0385 380.015 28.6202 380.076C29.535 380.147 30.2766 380.421 30.845 380.897C31.4341 381.375 31.8829 382.004 32.1914 382.785C32.5206 383.567 32.7421 384.46 32.8558 385.464C32.9903 386.469 33.0604 387.534 33.0659 388.66C33.0923 389.786 33.0764 390.932 33.0182 392.098C32.9606 393.242 32.9148 394.346 32.8807 395.408C32.692 395.443 32.5023 395.51 32.3115 395.608C32.1214 395.685 31.9643 395.712 31.84 395.687C31.7151 395.683 31.624 395.597 31.5669 395.428C31.5313 395.239 31.5635 394.886 31.6634 394.368C31.6963 393.994 31.7459 393.422 31.8123 392.653C31.9001 391.864 31.949 390.99 31.9589 390.031C31.9896 389.074 31.9693 388.083 31.8979 387.059C31.8265 386.036 31.6584 385.103 31.3937 384.26C31.1503 383.398 30.7768 382.698 30.2729 382.161C29.7697 381.603 29.1017 381.31 28.2687 381.284C27.4037 381.61 26.6639 382.254 26.0495 383.214C25.4559 384.174 24.961 385.305 24.565 386.605C24.1897 387.906 23.8941 389.325 23.6781 390.86C23.4835 392.376 23.3525 393.862 23.2849 395.319C23.2439 395.296 23.161 395.283 23.036 395.279C22.9319 395.276 22.807 395.272 22.6612 395.267C22.537 395.242 22.4127 395.218 22.2884 395.193C22.185 395.169 22.1232 395.146 22.103 395.124ZM45.3598 393.338C45.3978 392.151 45.7483 391.297 46.4112 390.777C47.0949 390.257 47.9677 390.014 49.0297 390.048C49.4461 390.061 49.831 390.084 50.1843 390.116C50.5584 390.149 50.9108 390.212 51.2413 390.306C51.5717 390.4 51.8905 390.535 52.1975 390.712C52.5253 390.889 52.8612 391.14 53.2052 391.463C53.2072 391.401 53.2112 391.276 53.2172 391.089C53.2447 390.881 53.2621 390.663 53.2695 390.434C53.2768 390.205 53.2835 389.997 53.2895 389.809C53.2962 389.601 53.3008 389.455 53.3035 389.372C53.2947 388.996 53.2997 388.517 53.3184 387.934C53.3378 387.33 53.3054 386.714 53.2213 386.086C53.1581 385.459 52.9897 384.859 52.7162 384.288C52.4636 383.717 52.0296 383.276 51.4143 382.964C50.977 382.95 50.5686 383.01 50.1891 383.144C49.8096 383.277 49.4298 383.422 49.0497 383.576C48.6695 383.731 48.2897 383.875 47.9102 384.009C47.5314 384.122 47.1234 384.171 46.6861 384.157C46.7028 383.636 46.8726 383.215 47.1957 382.891C47.5402 382.548 47.9445 382.29 48.4086 382.117C48.8727 381.945 49.3557 381.835 49.8574 381.789C50.3592 381.742 50.7974 381.725 51.1722 381.737C51.545 381.812 51.8863 381.895 52.1959 381.989C52.5264 382.083 52.823 382.259 53.0857 382.518C53.3692 382.777 53.6171 383.17 53.8295 383.698C54.0633 384.206 54.2488 384.921 54.386 385.842C54.544 386.764 54.6628 387.936 54.7423 389.355C54.8433 390.755 54.9027 392.477 54.9205 394.52C54.9535 394.792 54.8521 395.029 54.6164 395.229C54.4021 395.41 54.1053 395.567 53.7258 395.701C53.347 395.814 52.9164 395.915 52.4342 396.004C51.9734 396.072 51.5029 396.12 51.0226 396.146C50.5424 396.172 50.0833 396.189 49.6453 396.196C49.2074 396.202 48.8427 396.201 48.5511 396.192C48.1763 396.18 47.7931 396.105 47.4015 395.967C47.0307 395.83 46.6824 395.642 46.3566 395.402C46.0523 395.142 45.8013 394.842 45.6038 394.503C45.4277 394.143 45.3464 393.754 45.3598 393.338ZM49.4903 391.282C48.4398 391.54 47.6997 391.871 47.2699 392.274C46.8407 392.656 46.641 393.035 46.6706 393.411C46.721 393.788 46.9599 394.14 47.3871 394.466C47.8151 394.772 48.3397 394.986 48.961 395.111C49.583 395.214 50.2614 395.184 50.9962 395.019C51.7317 394.835 52.442 394.461 53.127 393.9C52.8965 393.288 52.6613 392.822 52.4215 392.501C52.1823 392.16 51.9196 391.902 51.6334 391.726C51.3473 391.55 51.0279 391.435 50.6752 391.382C50.3226 391.329 49.9276 391.296 49.4903 391.282ZM56.0543 396.214C56.0233 395.879 55.9971 395.399 55.9755 394.773C55.9754 394.127 55.9672 393.407 55.9509 392.615C55.9561 391.802 55.9624 390.958 55.9696 390.083C55.9768 389.207 55.9827 388.374 55.9873 387.582C55.9919 386.79 55.9833 386.081 55.9617 385.455C55.9616 384.809 55.9357 384.318 55.8839 383.983C55.8846 383.962 55.8758 383.91 55.8577 383.826C55.8603 383.743 55.8529 383.649 55.8355 383.544C55.8388 383.44 55.8415 383.356 55.8435 383.294C55.8461 383.211 55.8481 383.148 55.8495 383.106C56.1698 382.867 56.4328 382.792 56.6383 382.882C56.8647 382.972 57.0461 383.166 57.1825 383.462C57.3196 383.737 57.4127 384.084 57.4618 384.503C57.5109 384.921 57.5392 385.339 57.5466 385.756C57.5749 386.174 57.5834 386.56 57.572 386.914C57.5613 387.247 57.5537 387.486 57.549 387.632C57.602 387.279 57.6778 386.865 57.7765 386.389C57.8751 385.912 58.0158 385.427 58.1984 384.933C58.381 384.438 58.5945 383.955 58.8389 383.484C59.1048 382.992 59.4208 382.564 59.7868 382.201C60.1528 381.838 60.5578 381.559 61.0017 381.365C61.4665 381.171 61.9897 381.104 62.5714 381.165C63.4863 381.236 64.2279 381.51 64.7962 381.987C65.3854 382.464 65.8342 383.093 66.1426 383.874C66.4719 384.656 66.6934 385.549 66.8071 386.553C66.9416 387.558 67.0116 388.623 67.0172 389.749C67.0436 390.876 67.0277 392.022 66.9695 393.187C66.9119 394.332 66.8661 395.435 66.832 396.497C66.6433 396.532 66.4535 396.599 66.2628 396.697C66.0727 396.775 65.9155 396.801 65.7913 396.776C65.6663 396.772 65.5753 396.686 65.5182 396.517C65.4826 396.328 65.5147 395.975 65.6147 395.457C65.6476 395.083 65.6972 394.511 65.7635 393.742C65.8514 392.953 65.9003 392.079 65.9102 391.121C65.9409 390.163 65.9206 389.172 65.8492 388.148C65.7778 387.125 65.6097 386.192 65.3449 385.35C65.1016 384.487 64.728 383.787 64.2242 383.25C63.721 382.692 63.0529 382.4 62.22 382.373C61.3549 382.699 60.6152 383.343 60.0008 384.303C59.4071 385.263 58.9123 386.394 58.5162 387.694C58.141 388.995 57.8454 390.414 57.6293 391.949C57.4348 393.465 57.3038 394.951 57.2362 396.408C57.1952 396.386 57.1123 396.373 56.9873 396.369C56.8832 396.365 56.7583 396.361 56.6125 396.357C56.4882 396.332 56.364 396.307 56.2397 396.282C56.1363 396.258 56.0745 396.235 56.0543 396.214ZM79.679 389.78C79.699 389.156 79.8564 388.473 80.1512 387.732C80.4466 386.97 80.8337 386.274 81.3125 385.643C81.8128 384.992 82.3615 384.457 82.9585 384.039C83.5771 383.6 84.2091 383.391 84.8546 383.412C85.2086 383.423 85.5498 383.507 85.8783 383.663C86.2276 383.821 86.5544 384.029 86.8588 384.289C87.1846 384.529 87.4674 384.809 87.7073 385.129C87.9686 385.429 88.1668 385.748 88.3019 386.086C88.4369 386.424 88.4995 386.749 88.4894 387.061C88.5003 387.374 88.4083 387.642 88.2135 387.865L81.5841 388.872C81.5001 388.89 81.4239 388.992 81.3554 389.177C81.2876 389.342 81.2285 389.559 81.1782 389.828C81.1279 390.098 81.0766 390.398 81.0242 390.73C80.9934 391.042 80.9625 391.353 80.9317 391.665C80.9015 391.956 80.8824 392.226 80.8744 392.476C80.8671 392.705 80.8614 392.882 80.8574 393.007C80.8387 393.59 80.9586 394.074 81.2173 394.457C81.4975 394.82 81.8532 395.103 82.2845 395.304C82.7157 395.506 83.201 395.646 83.7404 395.726C84.3006 395.807 84.8514 395.855 85.3928 395.873C85.9342 395.89 86.445 395.886 86.9253 395.859C87.4055 395.833 87.8018 395.825 88.1142 395.835C88.1115 395.918 88.0773 396.011 88.0115 396.113C87.9456 396.215 87.8694 396.317 87.7828 396.419C87.6968 396.499 87.6109 396.58 87.5249 396.66C87.4396 396.72 87.3862 396.76 87.3647 396.78C87.1968 396.817 86.9345 396.871 86.5779 396.943C86.2427 396.994 85.8763 397.045 85.4787 397.095C85.1019 397.145 84.7462 397.186 84.4117 397.217C84.0772 397.248 83.8475 397.262 83.7226 397.258C83.073 397.362 82.5112 397.333 82.0369 397.172C81.5627 397.011 81.1647 396.748 80.8429 396.383C80.521 396.019 80.264 395.583 80.0719 395.077C79.8803 394.55 79.7419 393.993 79.6565 393.406C79.571 392.82 79.528 392.214 79.5272 391.589C79.5472 390.964 79.5978 390.361 79.679 389.78ZM84.3793 384.585C84.1919 384.579 83.9386 384.675 83.6196 384.873C83.3221 385.051 83.033 385.292 82.7523 385.595C82.493 385.879 82.264 386.195 82.0653 386.543C81.888 386.87 81.8266 387.16 81.8811 387.412C82.4204 387.492 82.983 387.5 83.5687 387.435C84.1544 387.37 84.6894 387.263 85.1736 387.111C85.6586 386.939 86.0609 386.744 86.3806 386.525C86.7009 386.285 86.8547 386.04 86.8419 385.789C86.8499 385.539 86.6591 385.314 86.2695 385.114C85.9014 384.894 85.2713 384.717 84.3793 384.585ZM89.6418 385.254C89.8916 385.262 90.1603 385.333 90.4478 385.467C90.7353 385.601 90.9355 385.858 91.0485 386.237C91.2378 385.534 91.506 384.97 91.8532 384.543C92.2212 384.117 92.6265 383.828 93.0691 383.675C93.5326 383.523 94.0028 383.486 94.4797 383.564C94.9781 383.622 95.4315 383.782 95.8399 384.046C96.2692 384.309 96.6336 384.644 96.9333 385.05C97.2538 385.456 97.4681 385.922 97.5763 386.446C97.8261 385.808 98.1471 385.224 98.5392 384.695C98.9529 384.145 99.3948 383.691 99.8649 383.33C100.356 382.971 100.854 382.726 101.358 382.597C101.883 382.468 102.362 382.493 102.794 382.674C103.247 382.834 103.632 383.18 103.949 383.712C104.287 384.223 104.513 384.96 104.628 385.922C104.661 386.194 104.7 386.602 104.745 387.145C104.791 387.668 104.834 388.263 104.875 388.932C104.937 389.6 104.998 390.311 105.057 391.063C105.138 391.796 105.199 392.496 105.24 393.164C105.302 393.833 105.355 394.439 105.4 394.983C105.446 395.505 105.486 395.892 105.519 396.143C105.513 396.352 105.495 396.58 105.466 396.83C105.437 397.079 105.378 397.296 105.289 397.48C105.221 397.645 105.103 397.756 104.934 397.813C104.787 397.85 104.561 397.749 104.256 397.51C104.264 397.26 104.246 396.853 104.202 396.289C104.157 395.724 104.115 395.077 104.076 394.346C104.038 393.595 103.98 392.811 103.902 391.996C103.845 391.16 103.776 390.376 103.696 389.644C103.636 388.913 103.584 388.265 103.539 387.701C103.495 387.136 103.445 386.739 103.39 386.508C103.108 385.54 102.796 384.863 102.455 384.477C102.133 384.091 101.795 383.913 101.44 383.944C101.105 383.975 100.776 384.183 100.451 384.569C100.125 384.954 99.8284 385.445 99.5591 386.041C99.2899 386.637 99.0287 387.306 98.7756 388.048C98.544 388.77 98.354 389.494 98.2057 390.218C98.0782 390.944 97.9833 391.629 97.9209 392.273C97.8794 392.918 97.904 393.45 97.9948 393.87L96.7686 394.08C96.8952 392.083 96.8748 390.447 96.7073 389.17C96.5613 387.873 96.3224 386.875 95.9904 386.176C95.6793 385.479 95.3071 385.06 94.8739 384.921C94.4413 384.761 94.0013 384.831 93.554 385.129C93.1275 385.428 92.7256 385.936 92.3483 386.654C91.9709 387.371 91.6718 388.247 91.451 389.282C91.2517 390.297 91.1521 391.451 91.1524 392.743C91.1526 394.036 91.3268 395.427 91.675 396.919L90.4881 396.881C90.4881 396.881 90.4632 396.682 90.4135 396.284C90.3845 395.887 90.3381 395.385 90.2742 394.779C90.2317 394.152 90.1812 393.452 90.1227 392.679C90.0648 391.885 90.0068 391.091 89.9489 390.297C89.8917 389.483 89.8331 388.709 89.7732 387.978C89.714 387.226 89.6615 386.588 89.6157 386.066C89.6177 386.003 89.6221 385.868 89.6287 385.66C89.6361 385.431 89.6404 385.295 89.6418 385.254ZM107.626 389.926C107.541 389.986 107.426 390.003 107.281 389.978C107.136 389.952 107.001 389.917 106.878 389.871C106.755 389.805 106.642 389.728 106.541 389.642C106.461 389.535 106.423 389.419 106.427 389.294C106.45 388.586 106.689 387.947 107.145 387.378C107.602 386.789 108.16 386.296 108.818 385.9C109.478 385.484 110.176 385.172 110.912 384.967C111.649 384.74 112.319 384.637 112.923 384.656C113.881 384.687 114.74 384.881 115.499 385.239C116.281 385.577 116.933 386.035 117.456 386.615C118 387.195 118.406 387.865 118.674 388.624C118.962 389.383 119.092 390.19 119.065 391.044C119.051 392.127 118.769 393.108 118.22 393.987C117.692 394.866 117.001 395.615 116.147 396.234C115.315 396.833 114.383 397.282 113.352 397.583C112.343 397.863 111.35 397.946 110.374 397.831C110.392 398.582 110.354 399.435 110.261 400.391C110.167 401.368 110.049 402.427 109.909 403.569C109.768 404.711 109.594 405.914 109.386 407.179C109.199 408.466 109.001 409.783 108.791 411.131C108.79 411.152 108.727 411.16 108.602 411.156C108.477 411.152 108.343 411.127 108.198 411.081C108.074 411.056 107.94 411.02 107.795 410.974C107.671 410.949 107.598 410.947 107.576 410.967C107.778 409.243 107.948 407.498 108.088 405.731C108.228 403.963 108.317 402.184 108.353 400.393C108.389 398.622 108.352 396.86 108.242 395.105C108.131 393.351 107.926 391.624 107.626 389.926ZM112.492 386.393C112.096 386.401 111.667 386.45 111.205 386.539C110.745 386.608 110.334 386.73 109.974 386.906C109.614 387.083 109.325 387.323 109.107 387.629C108.889 387.935 108.803 388.318 108.851 388.778C108.886 388.987 108.928 389.291 108.978 389.688C109.049 390.087 109.118 390.537 109.185 391.04C109.273 391.543 109.35 392.066 109.416 392.61C109.503 393.155 109.58 393.679 109.647 394.181C109.735 394.684 109.804 395.145 109.853 395.563C109.923 395.962 109.976 396.265 110.011 396.475C110.262 396.441 110.618 396.411 111.077 396.384C111.537 396.357 112.029 396.29 112.553 396.181C113.078 396.073 113.614 395.924 114.162 395.733C114.732 395.522 115.262 395.226 115.754 394.846C116.245 394.466 116.678 393.99 117.05 393.418C117.444 392.826 117.718 392.095 117.871 391.224C117.897 390.412 117.774 389.71 117.501 389.118C117.228 388.525 116.848 388.034 116.36 387.643C115.873 387.231 115.289 386.931 114.607 386.742C113.947 386.534 113.242 386.417 112.492 386.393ZM124.191 387.206C124.005 387.138 123.746 387.109 123.412 387.119C123.099 387.109 122.755 387.118 122.379 387.148C122.024 387.158 121.68 387.178 121.345 387.209C121.011 387.24 120.729 387.251 120.5 387.244C120.396 387.241 120.328 387.093 120.295 386.8C120.285 386.487 120.256 386.069 120.211 385.546L124.625 385.375C124.71 384.649 124.769 384.129 124.8 383.818C124.83 383.506 124.839 383.246 124.825 383.037C124.832 382.808 124.83 382.558 124.817 382.286C124.827 381.995 124.841 381.547 124.861 380.943C125.405 380.877 125.811 380.87 126.081 380.92C126.372 380.95 126.567 381.029 126.667 381.158C126.767 381.286 126.803 381.475 126.774 381.724C126.767 381.953 126.726 382.243 126.652 382.595C126.599 382.948 126.544 383.373 126.486 383.872C126.449 384.371 126.452 384.934 126.495 385.56L130.247 385.556L130.198 387.086C130.031 387.081 129.77 387.083 129.416 387.092C129.061 387.102 128.675 387.11 128.258 387.118C127.862 387.126 127.486 387.135 127.132 387.144C126.798 387.154 126.547 387.188 126.378 387.245C126.187 387.989 125.985 388.785 125.77 389.633C125.555 390.481 125.403 391.32 125.314 392.151C125.225 392.982 125.221 393.763 125.301 394.496C125.383 395.207 125.624 395.809 126.025 396.301C126.427 396.772 127.01 397.114 127.774 397.326C128.539 397.518 129.562 397.488 130.841 397.237C130.79 397.548 130.656 397.804 130.441 398.006C130.248 398.187 130.014 398.336 129.739 398.452C129.486 398.549 129.213 398.623 128.919 398.676C128.626 398.709 128.365 398.721 128.136 398.714C127.074 398.68 126.237 398.465 125.624 398.07C125.012 397.655 124.56 397.129 124.268 396.495C123.976 395.86 123.8 395.146 123.743 394.352C123.685 393.537 123.68 392.714 123.728 391.881C123.796 391.05 123.885 390.229 123.995 389.42C124.104 388.61 124.169 387.873 124.191 387.206ZM137.034 411.787C137.067 410.746 137.196 409.676 137.418 408.579C137.641 407.481 137.864 406.384 138.087 405.286C138.33 404.189 138.532 403.091 138.693 401.991C138.874 400.892 138.93 399.81 138.859 398.745L131.505 385.315C131.977 384.913 132.348 384.696 132.62 384.663C132.893 384.609 133.05 384.604 133.09 384.646C133.229 384.859 133.456 385.252 133.771 385.825C134.107 386.399 134.482 387.067 134.895 387.831C135.329 388.595 135.782 389.402 136.255 390.251C136.729 391.1 137.172 391.906 137.585 392.67C138.019 393.434 138.383 394.113 138.676 394.706C138.991 395.3 139.207 395.713 139.324 395.946L141.133 384.404L142.67 385.235L138.437 411.926L137.034 411.787ZM11.3481 421.418C11.7229 421.43 12.0642 421.514 12.3718 421.67C12.7003 421.826 13.0177 422.003 13.3241 422.201C13.6311 422.377 13.9384 422.543 14.246 422.699C14.5752 422.835 14.9272 422.909 15.302 422.921C15.7393 422.935 16.1893 422.876 16.6521 422.745C17.1363 422.594 17.5806 422.389 17.9849 422.131C18.3899 421.852 18.7237 421.519 18.9862 421.132C19.2495 420.723 19.3888 420.279 19.4041 419.8C19.4296 419.655 19.4353 419.478 19.4212 419.27C19.4279 419.061 19.3721 418.851 19.2538 418.639C19.1362 418.406 18.9347 418.191 18.6492 417.994C18.3643 417.777 17.9425 417.607 17.3836 417.485C16.8456 417.363 16.1601 417.289 15.3272 417.262C14.495 417.215 13.4619 417.254 12.228 417.382C11.9157 417.372 11.6164 417.279 11.3302 417.103C11.0447 416.906 10.7915 416.679 10.5704 416.422C10.3501 416.144 10.1717 415.857 10.0353 415.56C9.89955 415.243 9.83602 414.95 9.8447 414.679C9.87076 413.867 10.0584 413.216 10.4076 412.727C10.7783 412.218 11.239 411.826 11.7897 411.552C12.3411 411.257 12.952 411.058 13.6223 410.954C14.2927 410.851 14.9714 410.81 15.6585 410.832C15.9709 410.842 16.3242 410.874 16.7185 410.929C17.1343 410.963 17.5064 411.058 17.8349 411.215C18.1849 411.351 18.4697 411.568 18.6894 411.867C18.9299 412.167 19.0418 412.577 19.0251 413.097C18.9721 413.45 18.9027 413.667 18.8167 413.747C18.7522 413.808 18.6488 413.784 18.5064 413.675C18.3854 413.546 18.2346 413.374 18.0539 413.16C17.8732 412.946 17.6505 412.741 17.3858 412.545C17.1426 412.328 16.8352 412.162 16.4638 412.046C16.1131 411.93 15.7071 411.917 15.2457 412.007C14.7667 411.992 14.2861 412.028 13.8039 412.117C13.3223 412.185 12.88 412.327 12.477 412.543C12.0949 412.76 11.7725 413.063 11.51 413.45C11.2682 413.839 11.1377 414.335 11.1183 414.939C11.1083 415.251 11.2366 415.474 11.5033 415.607C11.7915 415.721 12.1646 415.785 12.6227 415.8C13.1016 415.815 13.6329 415.822 14.2166 415.82C14.8218 415.797 15.4368 415.796 16.0614 415.816C16.6861 415.836 17.2883 415.908 17.868 416.031C18.4483 416.133 18.9525 416.336 19.3804 416.642C19.8298 416.927 20.1711 417.334 20.4043 417.863C20.6375 418.391 20.7095 419.071 20.6203 419.902C20.6009 420.506 20.4055 421.073 20.0342 421.603C19.6836 422.134 19.231 422.598 18.6763 422.998C18.143 423.376 17.5499 423.67 16.8971 423.878C16.2442 424.087 15.6169 424.15 15.015 424.068C14.7658 424.039 14.4243 423.966 13.9903 423.848C13.5779 423.709 13.1668 423.529 12.757 423.308C12.3681 423.087 12.0325 422.826 11.7503 422.525C11.4688 422.204 11.3348 421.834 11.3481 421.418ZM25.6235 413.059C25.4381 412.99 25.1785 412.961 24.8447 412.971C24.5323 412.961 24.1881 412.971 23.8119 413.001C23.4573 413.01 23.1127 413.031 22.7782 413.061C22.4437 413.092 22.1619 413.104 21.9329 413.097C21.8288 413.094 21.7606 412.945 21.7283 412.653C21.7175 412.34 21.6892 411.922 21.6434 411.399L26.0574 411.228C26.1433 410.501 26.2016 409.982 26.2325 409.67C26.2633 409.359 26.2717 409.099 26.2575 408.89C26.2649 408.661 26.2625 408.41 26.2503 408.139C26.2597 407.847 26.2741 407.4 26.2934 406.796C26.8375 406.73 27.2442 406.722 27.5136 406.773C27.8044 406.803 27.9999 406.882 28.1 407.01C28.2001 407.139 28.2357 407.327 28.2069 407.576C28.1995 407.806 28.1589 408.096 28.0851 408.448C28.0321 408.801 27.9768 409.226 27.9191 409.725C27.8823 410.224 27.885 410.787 27.9275 411.413L31.6795 411.409L31.6304 412.939C31.4639 412.934 31.2032 412.936 30.8486 412.945C30.4939 412.955 30.1081 412.963 29.6909 412.971C29.2946 412.979 28.9192 412.987 28.5645 412.997C28.2307 413.007 27.9795 413.041 27.8109 413.098C27.6203 413.842 27.4175 414.638 27.2028 415.486C26.988 416.334 26.836 417.173 26.7468 418.004C26.6576 418.835 26.6534 419.616 26.7341 420.348C26.8155 421.06 27.0567 421.661 27.4578 422.154C27.8596 422.625 28.4427 422.967 29.2071 423.179C29.9722 423.37 30.9945 423.341 32.274 423.09C32.2224 423.401 32.0891 423.657 31.8742 423.859C31.6808 424.04 31.4467 424.189 31.172 424.305C30.9188 424.401 30.6454 424.476 30.3519 424.529C30.0591 424.561 29.7981 424.574 29.5691 424.566C28.5071 424.532 27.6698 424.318 27.0571 423.923C26.4452 423.507 25.993 422.982 25.7007 422.347C25.4084 421.713 25.2333 420.998 25.1754 420.204C25.1182 419.39 25.1133 418.566 25.1609 417.734C25.2292 416.902 25.3181 416.082 25.4274 415.273C25.5368 414.463 25.6021 413.725 25.6235 413.059ZM33.1267 418.928C33.1421 418.449 33.2014 417.898 33.3047 417.276C33.4087 416.633 33.5648 415.992 33.7729 415.353C33.981 414.713 34.2304 414.085 34.5212 413.469C34.8327 412.854 35.194 412.313 35.605 411.847C36.0167 411.36 36.4875 410.979 37.0174 410.704C37.548 410.409 38.136 410.271 38.7815 410.292C39.4478 410.313 40.0547 410.562 40.6023 411.038C41.1706 411.515 41.6409 412.124 42.0131 412.866C42.4062 413.608 42.6925 414.43 42.872 415.332C43.0515 416.234 43.1067 417.111 43.0377 417.964C42.9976 419.213 42.7224 420.319 42.2121 421.283C41.7018 422.246 41.0621 423.017 40.2931 423.597C39.545 424.178 38.7407 424.558 37.8803 424.739C37.0407 424.921 36.2511 424.843 35.5115 424.507C34.7934 424.15 34.1989 423.516 33.7278 422.605C33.2776 421.694 33.0773 420.468 33.1267 418.928ZM34.2783 419.09C34.3001 420.362 34.4873 421.347 34.8401 422.047C35.1928 422.746 35.6258 423.218 36.139 423.464C36.6737 423.69 37.2568 423.708 37.8881 423.52C38.5195 423.332 39.1142 422.986 39.6723 422.483C40.2311 421.959 40.7105 421.307 41.1107 420.528C41.5324 419.729 41.7801 418.83 41.8538 417.832C41.9195 417.084 41.8804 416.353 41.7366 415.639C41.6135 414.927 41.4149 414.295 41.1408 413.744C40.8881 413.173 40.5586 412.725 40.1521 412.399C39.7672 412.054 39.3144 411.872 38.7939 411.856C38.2941 411.84 37.8424 411.95 37.4388 412.187C37.0351 412.425 36.6597 412.756 36.3125 413.183C35.9868 413.589 35.7008 414.06 35.4544 414.594C35.2079 415.128 34.9928 415.663 34.8088 416.199C34.6457 416.736 34.5141 417.263 34.4141 417.781C34.3356 418.278 34.2904 418.715 34.2783 419.09ZM44.266 412.813C44.5159 412.821 44.7845 412.892 45.0721 413.026C45.3596 413.161 45.5598 413.417 45.6727 413.796C45.862 413.093 46.1302 412.529 46.4774 412.102C46.8454 411.676 47.2507 411.387 47.6934 411.234C48.1568 411.083 48.627 411.046 49.1039 411.123C49.6023 411.181 50.0557 411.341 50.4642 411.605C50.8934 411.869 51.2579 412.203 51.5575 412.609C51.878 413.015 52.0923 413.481 52.2006 414.005C52.4503 413.367 52.7713 412.783 53.1635 412.254C53.5771 411.705 54.019 411.25 54.4892 410.89C54.9801 410.53 55.4778 410.286 55.9822 410.156C56.5074 410.027 56.986 410.053 57.418 410.233C57.8714 410.394 58.2563 410.74 58.5728 411.271C58.9107 411.782 59.1372 412.519 59.2523 413.481C59.2852 413.753 59.3243 414.161 59.3694 414.704C59.4151 415.227 59.4585 415.822 59.4996 416.491C59.5616 417.16 59.6221 417.87 59.6814 418.623C59.7621 419.355 59.823 420.055 59.8641 420.723C59.926 421.392 59.9795 421.999 60.0246 422.542C60.0704 423.064 60.1101 423.451 60.1437 423.703C60.137 423.911 60.1193 424.139 60.0904 424.389C60.0616 424.638 60.0025 424.855 59.9132 425.04C59.8454 425.204 59.7272 425.315 59.5586 425.372C59.4115 425.409 59.1855 425.308 58.8805 425.069C58.8885 424.819 58.8703 424.412 58.8259 423.848C58.7815 423.284 58.7397 422.636 58.7006 421.905C58.6622 421.154 58.6039 420.37 58.5259 419.555C58.4693 418.719 58.4007 417.935 58.3199 417.203C58.26 416.472 58.2079 415.824 58.1634 415.26C58.119 414.696 58.0692 414.298 58.0141 414.067C57.7325 413.099 57.4207 412.422 57.0787 412.036C56.7576 411.65 56.4194 411.473 56.0641 411.503C55.7296 411.534 55.3998 411.742 55.0748 412.128C54.7497 412.513 54.4526 413.004 54.1833 413.6C53.9141 414.196 53.6529 414.865 53.3998 415.607C53.1682 416.329 52.9783 417.053 52.8299 417.777C52.7025 418.503 52.6075 419.188 52.5452 419.832C52.5036 420.477 52.5283 421.009 52.619 421.429L51.3929 421.64C51.5195 419.643 51.499 418.006 51.3316 416.729C51.1856 415.432 50.9466 414.434 50.6147 413.736C50.3035 413.038 49.9314 412.619 49.4981 412.48C49.0655 412.321 48.6255 412.39 48.1782 412.688C47.7518 412.987 47.3499 413.495 46.9725 414.213C46.5951 414.93 46.296 415.807 46.0752 416.842C45.8759 417.857 45.7764 419.01 45.7766 420.303C45.7768 421.595 45.951 422.987 46.2992 424.478L45.1124 424.44C45.1124 424.44 45.0875 424.241 45.0377 423.843C45.0087 423.446 44.9623 422.945 44.8984 422.338C44.856 421.711 44.8055 421.011 44.7469 420.238C44.689 419.444 44.6311 418.65 44.5732 417.857C44.5159 417.042 44.4574 416.269 44.3974 415.537C44.3382 414.785 44.2857 414.147 44.2399 413.625C44.2419 413.562 44.2463 413.427 44.253 413.219C44.2603 412.99 44.2647 412.854 44.266 412.813ZM61.0151 422.855C61.0532 421.668 61.4036 420.814 62.0665 420.294C62.7502 419.774 63.623 419.531 64.685 419.565C65.1014 419.578 65.4863 419.601 65.8396 419.633C66.2138 419.666 66.5661 419.729 66.8966 419.823C67.2271 419.917 67.5458 420.053 67.8528 420.229C68.1806 420.406 68.5165 420.657 68.8605 420.981C68.8625 420.918 68.8665 420.793 68.8725 420.606C68.9 420.398 68.9174 420.18 68.9248 419.951C68.9321 419.722 68.9388 419.514 68.9448 419.326C68.9515 419.118 68.9562 418.972 68.9589 418.889C68.9501 418.514 68.955 418.034 68.9737 417.451C68.9931 416.847 68.9607 416.231 68.8767 415.603C68.8134 414.976 68.645 414.377 68.3716 413.805C68.1189 413.234 67.6849 412.793 67.0696 412.481C66.6323 412.467 66.2239 412.527 65.8445 412.661C65.465 412.795 65.0852 412.939 64.705 413.093C64.3249 413.248 63.945 413.392 63.5656 413.526C63.1867 413.639 62.7787 413.688 62.3414 413.674C62.3581 413.154 62.528 412.732 62.851 412.409C63.1955 412.065 63.5998 411.807 64.0639 411.635C64.5281 411.462 65.011 411.352 65.5127 411.306C66.0145 411.259 66.4528 411.242 66.8276 411.254C67.2004 411.329 67.5416 411.413 67.8513 411.506C68.1818 411.6 68.4783 411.776 68.741 412.035C69.0245 412.294 69.2724 412.688 69.4848 413.215C69.7186 413.723 69.9041 414.438 70.0413 415.359C70.1993 416.282 70.3181 417.453 70.3976 418.873C70.4986 420.272 70.558 421.994 70.5759 424.037C70.6088 424.309 70.5074 424.546 70.2717 424.747C70.0575 424.927 69.7606 425.085 69.3811 425.218C69.0023 425.331 68.5718 425.432 68.0895 425.521C67.6287 425.589 67.1582 425.637 66.678 425.663C66.1977 425.689 65.7386 425.706 65.3007 425.713C64.8627 425.719 64.498 425.718 64.2065 425.709C63.8317 425.697 63.4485 425.622 63.0568 425.484C62.686 425.347 62.3377 425.159 62.0119 424.919C61.7076 424.659 61.4567 424.36 61.2591 424.02C61.0831 423.66 61.0017 423.272 61.0151 422.855ZM65.1456 420.799C64.0952 421.057 63.355 421.388 62.9252 421.791C62.4961 422.173 62.2963 422.552 62.3259 422.928C62.3764 423.305 62.6152 423.657 63.0425 423.983C63.4704 424.289 63.995 424.504 64.6164 424.628C65.2384 424.731 65.9168 424.701 66.6516 424.537C67.387 424.352 68.0973 423.979 68.7823 423.417C68.5518 422.805 68.3167 422.339 68.0768 422.019C67.8376 421.677 67.5749 421.419 67.2888 421.243C67.0026 421.067 66.6832 420.952 66.3305 420.899C65.9779 420.846 65.5829 420.813 65.1456 420.799ZM71.4075 420.531C71.4322 419.76 71.5845 418.911 71.8644 417.982C72.1444 417.053 72.5365 416.2 73.0408 415.424C73.5458 414.628 74.1609 413.97 74.8863 413.451C75.6116 412.933 76.4428 412.688 77.3798 412.718C77.8607 412.671 78.2443 412.736 78.5304 412.912C78.8173 413.067 79.0282 413.313 79.1633 413.651C79.3192 413.99 79.411 414.378 79.4386 414.817C79.4877 415.235 79.5049 415.673 79.4902 416.132C79.497 416.569 79.4836 416.986 79.4501 417.381C79.4381 417.756 79.4489 418.069 79.4825 418.32L78.7017 418.295C78.6849 418.169 78.6526 417.876 78.6048 417.416C78.5785 416.936 78.5109 416.444 78.402 415.94C78.2931 415.437 78.1305 414.983 77.9141 414.58C77.7186 414.178 77.423 413.97 77.0274 413.958C76.4443 413.939 75.8852 414.15 75.3499 414.592C74.8355 415.034 74.3805 415.572 73.985 416.205C73.5895 416.839 73.2662 417.495 73.0151 418.175C72.764 418.855 72.6311 419.424 72.6164 419.882C72.6205 420.403 72.675 420.978 72.7799 421.607C72.8855 422.215 73.0656 422.773 73.3203 423.281C73.5957 423.79 73.9575 424.208 74.4056 424.535C74.8537 424.862 75.4129 424.974 76.0832 424.871C76.583 424.887 77.0652 424.798 77.53 424.604C77.9948 424.411 78.4495 424.206 78.8941 423.991C79.3387 423.776 79.783 423.572 80.227 423.378C80.6917 423.184 81.174 423.095 81.6738 423.111C81.6564 423.653 81.4432 424.125 81.0342 424.529C80.6259 424.912 80.1262 425.219 79.5352 425.45C78.9649 425.682 78.3551 425.85 77.7056 425.954C77.0769 426.059 76.5439 426.105 76.1066 426.091C75.3986 426.068 74.7474 425.901 74.1529 425.59C73.5792 425.28 73.0814 424.878 72.6595 424.385C72.2383 423.872 71.9131 423.288 71.6839 422.635C71.4762 421.961 71.3841 421.26 71.4075 420.531ZM84.4171 404.846L84.9005 415.117C85.0503 414.997 85.2437 414.815 85.4807 414.573C85.7178 414.33 85.9959 414.11 86.3149 413.912C86.6346 413.693 86.9841 413.516 87.3636 413.383C87.7438 413.228 88.1522 413.168 88.5888 413.203C89.4398 413.314 90.1055 413.679 90.5859 414.299C91.0871 414.919 91.4486 415.671 91.6704 416.554C91.9131 417.437 92.0593 418.4 92.1092 419.444C92.1598 420.467 92.1492 421.446 92.0775 422.382C92.0266 423.318 91.9478 424.15 91.8412 424.876C91.7553 425.603 91.6872 426.101 91.6369 426.37L90.5175 426.178C90.5235 425.99 90.5328 425.699 90.5455 425.303C90.5797 424.887 90.6159 424.409 90.6541 423.868C90.693 423.307 90.7221 422.724 90.7414 422.12C90.7608 421.517 90.7788 420.954 90.7956 420.434C90.8337 419.893 90.8491 419.414 90.8416 418.997C90.855 418.581 90.8539 418.289 90.8385 418.121C90.878 417.539 90.7815 416.973 90.549 416.424C90.3165 415.874 89.9964 415.458 89.5886 415.174C89.1815 414.869 88.6848 414.759 88.0984 414.844C87.5127 414.909 86.875 415.295 86.1853 416.002C85.5742 416.858 85.1196 417.709 84.8215 418.554C84.5241 419.378 84.3204 420.205 84.2104 421.035C84.101 421.845 84.0427 422.687 84.0355 423.562C84.0289 424.417 83.9999 425.323 83.9483 426.28L82.7362 426.053C82.806 425.826 82.861 425.411 82.9012 424.808C82.9629 424.185 83.0179 423.446 83.0661 422.593C83.115 421.719 83.1564 420.751 83.1905 419.689C83.2454 418.628 83.2805 417.535 83.2957 416.41C83.3325 415.265 83.3588 414.119 83.3747 412.973C83.3906 411.827 83.3945 410.733 83.3862 409.691C83.3988 408.649 83.3983 407.69 83.3847 406.814C83.3919 405.939 83.3942 405.22 83.3914 404.657L84.4171 404.846ZM106.107 414.859C106.357 414.867 106.566 414.864 106.733 414.848C106.921 414.833 107.074 414.942 107.191 415.176C107.224 416.115 107.266 417.075 107.318 418.056C107.37 419.017 107.423 419.987 107.474 420.969C107.526 421.95 107.547 422.941 107.535 423.941C107.546 424.921 107.525 425.879 107.474 426.816C107.47 426.941 107.437 427.012 107.374 427.031C107.31 427.071 107.216 427.078 107.092 427.053C106.988 427.05 106.853 427.035 106.687 427.009C106.541 427.004 106.374 427.02 106.185 427.056L106.107 414.859ZM104.475 409.21C104.48 409.065 104.495 408.909 104.521 408.743C104.548 408.556 104.595 408.391 104.662 408.247C104.75 408.104 104.848 407.982 104.955 407.881C105.084 407.781 105.231 407.734 105.398 407.739C105.647 407.747 105.897 407.766 106.146 407.794C106.395 407.823 106.633 407.883 106.86 407.974C107.087 408.043 107.27 408.164 107.411 408.335C107.552 408.486 107.618 408.707 107.608 408.998C107.592 409.498 107.391 409.94 107.003 410.323C106.616 410.686 106.152 410.859 105.611 410.841C105.194 410.828 104.897 410.662 104.72 410.344C104.543 410.005 104.462 409.627 104.475 409.21ZM106.282 409.425C106.219 409.423 106.186 409.474 106.183 409.578C106.179 409.682 106.209 409.735 106.272 409.737C106.355 409.74 106.398 409.689 106.401 409.585C106.405 409.481 106.365 409.427 106.282 409.425ZM109.985 424.582C110.36 424.594 110.701 424.678 111.009 424.834C111.337 424.991 111.654 425.168 111.961 425.365C112.268 425.542 112.575 425.708 112.883 425.863C113.212 425.999 113.564 426.073 113.939 426.085C114.376 426.099 114.826 426.04 115.289 425.909C115.773 425.758 116.217 425.554 116.622 425.296C117.027 425.017 117.36 424.684 117.623 424.296C117.886 423.888 118.026 423.444 118.041 422.965C118.066 422.82 118.072 422.643 118.058 422.434C118.065 422.226 118.009 422.015 117.891 421.803C117.773 421.57 117.571 421.355 117.286 421.159C117.001 420.941 116.579 420.771 116.02 420.649C115.482 420.527 114.797 420.453 113.964 420.427C113.132 420.379 112.099 420.419 110.865 420.546C110.552 420.536 110.253 420.443 109.967 420.267C109.681 420.07 109.428 419.843 109.207 419.586C108.987 419.308 108.808 419.021 108.672 418.725C108.536 418.408 108.473 418.114 108.481 417.843C108.508 417.031 108.695 416.381 109.044 415.892C109.415 415.382 109.876 414.991 110.426 414.717C110.978 414.422 111.589 414.222 112.259 414.119C112.929 414.015 113.608 413.974 114.295 413.996C114.608 414.006 114.961 414.039 115.355 414.093C115.771 414.127 116.143 414.222 116.472 414.379C116.822 414.515 117.106 414.733 117.326 415.032C117.567 415.331 117.679 415.741 117.662 416.262C117.609 416.614 117.539 416.831 117.453 416.912C117.389 416.972 117.286 416.948 117.143 416.839C117.022 416.71 116.871 416.539 116.691 416.324C116.51 416.11 116.287 415.905 116.023 415.709C115.779 415.493 115.472 415.327 115.101 415.21C114.75 415.095 114.344 415.082 113.882 415.171C113.403 415.156 112.923 415.193 112.441 415.281C111.959 415.349 111.517 415.491 111.114 415.708C110.732 415.925 110.409 416.227 110.147 416.615C109.905 417.003 109.774 417.499 109.755 418.103C109.745 418.415 109.873 418.638 110.14 418.772C110.428 418.885 110.801 418.949 111.259 418.964C111.738 418.98 112.27 418.986 112.853 418.984C113.459 418.962 114.074 418.961 114.698 418.981C115.323 419.001 115.925 419.072 116.505 419.195C117.085 419.297 117.589 419.501 118.017 419.806C118.467 420.092 118.808 420.499 119.041 421.027C119.274 421.556 119.346 422.236 119.257 423.066C119.238 423.67 119.042 424.237 118.671 424.767C118.32 425.298 117.868 425.763 117.313 426.162C116.78 426.541 116.187 426.835 115.534 427.043C114.881 427.251 114.254 427.314 113.652 427.233C113.403 427.204 113.061 427.13 112.627 427.012C112.215 426.874 111.804 426.694 111.394 426.472C111.005 426.251 110.669 425.991 110.387 425.69C110.106 425.368 109.972 424.999 109.985 424.582ZM138.704 425.035C138.34 425.336 137.998 425.606 137.677 425.846C137.378 426.066 137.07 426.254 136.753 426.41C136.436 426.546 136.109 426.65 135.773 426.723C135.458 426.796 135.103 426.826 134.707 426.814C134.124 426.795 133.629 426.633 133.222 426.328C132.836 426.003 132.505 425.607 132.228 425.14C131.973 424.652 131.791 424.146 131.683 423.621C131.576 423.076 131.53 422.553 131.546 422.054C131.562 421.554 131.621 421.024 131.722 420.465C131.845 419.885 132.019 419.317 132.245 418.762C132.472 418.186 132.74 417.642 133.048 417.131C133.378 416.599 133.747 416.142 134.155 415.759C134.564 415.376 135.021 415.078 135.528 414.865C136.036 414.631 136.582 414.524 137.165 414.543C137.748 414.561 138.276 414.672 138.748 414.875C139.221 415.078 139.619 415.361 139.941 415.726C140.284 416.07 140.541 416.506 140.712 417.033C140.904 417.539 140.99 418.105 140.97 418.729C140.936 419.77 140.851 420.81 140.713 421.848C140.597 422.865 140.471 423.893 140.333 424.931C140.196 425.948 140.059 426.975 139.922 428.013C139.805 429.051 139.73 430.091 139.696 431.132C139.547 431.878 139.598 432.567 139.849 433.201C140.1 433.834 140.436 434.387 140.859 434.859C141.301 435.353 141.779 435.743 142.291 436.03C142.823 436.339 143.306 436.532 143.742 436.609C143.656 436.668 143.519 436.726 143.33 436.783C143.161 436.84 142.982 436.897 142.793 436.953C142.603 437.01 142.414 437.056 142.225 437.091C142.057 437.128 141.953 437.145 141.911 437.144C141.496 437.089 141.083 436.951 140.674 436.729C140.264 436.507 139.887 436.224 139.544 435.88C139.222 435.536 138.953 435.152 138.737 434.728C138.521 434.305 138.42 433.874 138.434 433.437L138.704 425.035ZM132.773 421.812C132.764 422.082 132.795 422.427 132.865 422.846C132.935 423.266 133.047 423.676 133.201 424.077C133.355 424.457 133.563 424.797 133.824 425.097C134.086 425.376 134.405 425.522 134.78 425.534C135.488 425.557 136.129 425.379 136.704 425.002C137.3 424.625 137.795 424.141 138.189 423.549C138.604 422.958 138.916 422.321 139.125 421.64C139.356 420.939 139.482 420.286 139.501 419.683C139.512 419.329 139.494 418.932 139.445 418.493C139.398 418.033 139.276 417.601 139.08 417.199C138.906 416.777 138.657 416.425 138.333 416.143C138.009 415.841 137.587 415.682 137.066 415.665C136.65 415.652 136.25 415.764 135.867 416.002C135.505 416.24 135.162 416.552 134.837 416.938C134.532 417.324 134.248 417.753 133.982 418.224C133.738 418.695 133.525 419.168 133.343 419.641C133.182 420.095 133.044 420.518 132.927 420.91C132.831 421.303 132.78 421.603 132.773 421.812ZM142.245 416.019C142.248 415.915 142.314 415.812 142.442 415.712C142.591 415.613 142.761 415.535 142.95 415.479C143.16 415.423 143.359 415.387 143.547 415.373C143.736 415.358 143.87 415.393 143.95 415.479C143.993 418.065 144.166 420.134 144.47 421.687C144.797 423.219 145.177 424.346 145.613 425.069C146.069 425.792 146.567 426.173 147.108 426.211C147.649 426.228 148.188 426.016 148.723 425.575C149.259 425.113 149.759 424.483 150.222 423.685C150.706 422.887 151.098 422.024 151.399 421.096C151.721 420.168 151.928 419.237 152.02 418.302C152.113 417.367 152.056 416.531 151.851 415.795L153.732 415.637C153.743 415.95 153.778 416.472 153.838 417.204C153.919 417.915 153.997 418.73 154.072 419.65C154.168 420.549 154.273 421.491 154.388 422.474C154.502 423.457 154.598 424.377 154.674 425.234C154.752 426.071 154.823 426.792 154.886 427.399C154.951 427.984 154.981 428.35 154.976 428.496L153.633 428.453L152.339 423.002C152.024 423.722 151.647 424.408 151.209 425.061C150.772 425.714 150.295 426.282 149.779 426.766C149.284 427.25 148.761 427.629 148.211 427.904C147.66 428.157 147.115 428.254 146.575 428.195C146.057 428.116 145.555 427.85 145.069 427.396C144.583 426.943 144.137 426.241 143.73 425.29C143.344 424.319 143.019 423.078 142.755 421.569C142.49 420.06 142.32 418.21 142.245 416.019ZM157.549 416.51C157.799 416.518 158.008 416.514 158.175 416.498C158.363 416.484 158.516 416.593 158.634 416.826C158.666 417.765 158.708 418.725 158.76 419.706C158.813 420.667 158.865 421.638 158.917 422.619C158.969 423.6 158.989 424.591 158.978 425.591C158.988 426.571 158.968 427.53 158.917 428.466C158.913 428.591 158.879 428.663 158.816 428.682C158.752 428.721 158.658 428.729 158.534 428.704C158.43 428.7 158.295 428.686 158.129 428.66C157.983 428.655 157.816 428.67 157.627 428.706L157.549 416.51ZM155.917 410.861C155.922 410.715 155.937 410.559 155.964 410.393C155.99 410.206 156.037 410.041 156.104 409.897C156.192 409.754 156.29 409.632 156.398 409.532C156.526 409.432 156.673 409.384 156.84 409.39C157.09 409.398 157.339 409.416 157.589 409.445C157.838 409.474 158.076 409.533 158.302 409.624C158.529 409.694 158.713 409.814 158.853 409.986C158.994 410.136 159.06 410.357 159.051 410.649C159.035 411.148 158.833 411.59 158.445 411.974C158.059 412.336 157.594 412.509 157.053 412.492C156.637 412.478 156.34 412.312 156.162 411.994C155.986 411.655 155.904 411.277 155.917 410.861ZM157.724 411.075C157.661 411.073 157.628 411.124 157.625 411.228C157.622 411.332 157.651 411.385 157.714 411.387C157.797 411.39 157.84 411.339 157.844 411.235C157.847 411.131 157.807 411.078 157.724 411.075ZM163.896 417.495C163.711 417.426 163.451 417.397 163.117 417.407C162.805 417.397 162.461 417.407 162.085 417.437C161.73 417.446 161.385 417.467 161.051 417.497C160.716 417.528 160.435 417.54 160.206 417.533C160.101 417.53 160.033 417.381 160.001 417.089C159.99 416.776 159.962 416.358 159.916 415.835L164.33 415.664C164.416 414.937 164.474 414.418 164.505 414.106C164.536 413.795 164.544 413.535 164.53 413.326C164.537 413.097 164.535 412.846 164.523 412.575C164.532 412.283 164.547 411.836 164.566 411.232C165.11 411.166 165.517 411.158 165.786 411.209C166.077 411.239 166.272 411.318 166.373 411.446C166.473 411.575 166.508 411.763 166.479 412.012C166.472 412.242 166.432 412.532 166.358 412.884C166.305 413.237 166.249 413.662 166.192 414.161C166.155 414.66 166.158 415.223 166.2 415.849L169.952 415.845L169.903 417.375C169.736 417.37 169.476 417.372 169.121 417.381C168.767 417.391 168.381 417.399 167.964 417.407C167.567 417.415 167.192 417.423 166.837 417.433C166.503 417.443 166.252 417.477 166.083 417.534C165.893 418.278 165.69 419.074 165.475 419.922C165.261 420.77 165.109 421.609 165.019 422.44C164.93 423.271 164.926 424.052 165.007 424.784C165.088 425.496 165.329 426.097 165.73 426.59C166.132 427.061 166.715 427.403 167.48 427.615C168.245 427.806 169.267 427.777 170.547 427.526C170.495 427.837 170.362 428.093 170.147 428.295C169.953 428.476 169.719 428.625 169.445 428.741C169.191 428.837 168.918 428.912 168.625 428.965C168.332 428.997 168.071 429.01 167.842 429.002C166.78 428.968 165.942 428.754 165.33 428.359C164.718 427.943 164.266 427.418 163.973 426.783C163.681 426.149 163.506 425.434 163.448 424.64C163.391 423.826 163.386 423.002 163.433 422.17C163.502 421.338 163.591 420.518 163.7 419.709C163.809 418.899 163.875 418.161 163.896 417.495ZM171.514 421.741C171.534 421.117 171.691 420.434 171.986 419.693C172.281 418.931 172.669 418.235 173.147 417.604C173.648 416.953 174.196 416.418 174.793 416C175.412 415.561 176.044 415.352 176.689 415.373C177.043 415.384 177.385 415.468 177.713 415.625C178.063 415.782 178.389 415.99 178.694 416.25C179.019 416.49 179.302 416.77 179.542 417.09C179.803 417.39 180.002 417.709 180.137 418.047C180.272 418.385 180.334 418.71 180.324 419.022C180.335 419.336 180.243 419.604 180.048 419.827L173.419 420.833C173.335 420.851 173.259 420.953 173.19 421.139C173.123 421.303 173.063 421.52 173.013 421.789C172.963 422.059 172.911 422.359 172.859 422.691C172.828 423.003 172.797 423.315 172.767 423.626C172.736 423.917 172.717 424.187 172.709 424.437C172.702 424.666 172.696 424.843 172.692 424.968C172.674 425.551 172.794 426.035 173.052 426.418C173.332 426.781 173.688 427.064 174.119 427.265C174.551 427.467 175.036 427.607 175.575 427.687C176.136 427.768 176.686 427.817 177.228 427.834C177.769 427.851 178.28 427.847 178.76 427.821C179.24 427.794 179.637 427.786 179.949 427.796C179.946 427.88 179.912 427.972 179.846 428.074C179.781 428.176 179.704 428.278 179.618 428.38C179.532 428.46 179.446 428.541 179.36 428.622C179.275 428.681 179.221 428.721 179.2 428.741C179.032 428.778 178.769 428.832 178.413 428.904C178.078 428.956 177.711 429.006 177.314 429.056C176.937 429.107 176.581 429.147 176.247 429.178C175.912 429.209 175.682 429.223 175.557 429.219C174.908 429.323 174.346 429.294 173.872 429.133C173.398 428.972 173 428.709 172.678 428.345C172.356 427.98 172.099 427.544 171.907 427.038C171.715 426.511 171.577 425.954 171.491 425.368C171.406 424.781 171.363 424.175 171.362 423.55C171.382 422.925 171.433 422.322 171.514 421.741ZM176.214 416.546C176.027 416.54 175.774 416.636 175.455 416.834C175.157 417.012 174.868 417.253 174.587 417.557C174.328 417.84 174.099 418.156 173.9 418.504C173.723 418.832 173.661 419.121 173.716 419.373C174.255 419.453 174.818 419.461 175.404 419.396C175.989 419.332 176.524 419.224 177.009 419.072C177.493 418.9 177.896 418.705 178.215 418.486C178.536 418.246 178.69 418.001 178.677 417.75C178.685 417.5 178.494 417.275 178.104 417.075C177.736 416.855 177.106 416.679 176.214 416.546ZM194.548 408.379L195.031 418.65C195.181 418.53 195.375 418.348 195.612 418.106C195.849 417.863 196.127 417.643 196.446 417.445C196.765 417.226 197.115 417.049 197.494 416.916C197.875 416.761 198.283 416.701 198.72 416.736C199.571 416.847 200.236 417.212 200.717 417.832C201.218 418.453 201.579 419.204 201.801 420.087C202.044 420.97 202.19 421.933 202.24 422.977C202.291 424 202.28 424.98 202.208 425.915C202.157 426.852 202.079 427.683 201.972 428.409C201.886 429.136 201.818 429.634 201.768 429.903L200.648 429.711C200.654 429.524 200.664 429.232 200.676 428.836C200.711 428.421 200.747 427.942 200.785 427.402C200.824 426.84 200.853 426.257 200.872 425.654C200.892 425.05 200.91 424.487 200.926 423.967C200.965 423.426 200.98 422.947 200.972 422.53C200.986 422.114 200.985 421.822 200.969 421.655C201.009 421.072 200.912 420.506 200.68 419.957C200.447 419.408 200.127 418.991 199.719 418.707C199.312 418.402 198.816 418.292 198.229 418.378C197.644 418.442 197.006 418.828 196.316 419.536C195.705 420.391 195.25 421.242 194.952 422.087C194.655 422.911 194.451 423.738 194.341 424.569C194.232 425.378 194.174 426.22 194.166 427.095C194.16 427.95 194.131 428.856 194.079 429.813L192.867 429.586C192.937 429.359 192.992 428.944 193.032 428.341C193.094 427.718 193.149 426.979 193.197 426.126C193.246 425.253 193.287 424.285 193.321 423.223C193.376 422.161 193.411 421.068 193.427 419.943C193.463 418.798 193.49 417.652 193.506 416.506C193.521 415.36 193.525 414.266 193.517 413.224C193.53 412.182 193.529 411.223 193.516 410.347C193.523 409.472 193.525 408.753 193.522 408.19L194.548 408.379ZM204.744 418.024C204.994 418.032 205.202 418.028 205.37 418.013C205.558 417.998 205.711 418.107 205.828 418.34C205.86 419.279 205.903 420.239 205.955 421.22C206.007 422.181 206.059 423.152 206.111 424.133C206.163 425.115 206.183 426.105 206.172 427.105C206.182 428.085 206.162 429.044 206.111 429.98C206.107 430.105 206.074 430.177 206.011 430.196C205.947 430.235 205.853 430.243 205.728 430.218C205.624 430.214 205.489 430.2 205.323 430.174C205.178 430.169 205.01 430.184 204.822 430.22L204.744 418.024ZM203.112 412.375C203.116 412.229 203.132 412.073 203.158 411.907C203.185 411.721 203.232 411.555 203.299 411.412C203.387 411.268 203.485 411.146 203.592 411.046C203.72 410.946 203.868 410.898 204.034 410.904C204.284 410.912 204.534 410.93 204.783 410.959C205.032 410.988 205.27 411.047 205.496 411.138C205.723 411.208 205.907 411.328 206.048 411.5C206.189 411.65 206.254 411.871 206.245 412.163C206.229 412.662 206.027 413.104 205.64 413.488C205.253 413.85 204.789 414.023 204.248 414.006C203.831 413.992 203.534 413.827 203.357 413.508C203.18 413.169 203.098 412.791 203.112 412.375ZM204.918 412.589C204.856 412.587 204.823 412.638 204.82 412.742C204.816 412.846 204.846 412.899 204.908 412.901C204.992 412.904 205.035 412.853 205.038 412.749C205.042 412.645 205.002 412.592 204.918 412.589ZM202.244 437.485C202.262 436.923 202.369 436.499 202.566 436.213C202.763 435.928 203.205 435.796 203.892 435.818C203.82 436.108 203.738 436.397 203.645 436.686C203.531 436.974 203.44 437.242 203.369 437.49C203.278 437.737 203.24 437.934 203.256 438.08C203.252 438.226 203.323 438.28 203.47 438.243C204.122 438.702 204.841 439.038 205.626 439.25C206.411 439.463 207.189 439.582 207.96 439.607C209.127 439.623 210.134 439.416 210.981 438.985C211.85 438.554 212.566 437.983 213.131 437.271C213.717 436.561 214.171 435.731 214.493 434.782C214.835 433.855 215.054 432.883 215.149 431.865C215.265 430.868 215.276 429.857 215.184 428.833C215.092 427.808 214.924 426.865 214.681 426.003C214.314 426.387 213.936 426.792 213.547 427.217C213.179 427.643 212.781 428.026 212.354 428.367C211.927 428.687 211.47 428.953 210.984 429.167C210.518 429.381 209.994 429.479 209.411 429.461C208.807 429.441 208.352 429.322 208.047 429.104C207.762 428.887 207.573 428.599 207.48 428.242C207.388 427.864 207.35 427.435 207.365 426.956C207.401 426.478 207.428 425.968 207.445 425.427C207.461 424.927 207.49 424.365 207.531 423.741C207.592 423.118 207.685 422.495 207.81 421.874C207.955 421.233 208.131 420.613 208.338 420.015C208.566 419.397 208.855 418.854 209.203 418.386C209.553 417.897 209.982 417.514 210.491 417.239C211 416.963 211.598 416.837 212.285 416.859C212.722 416.873 213.138 416.928 213.531 417.024C213.945 417.1 214.316 417.237 214.643 417.435C214.991 417.633 215.285 417.893 215.525 418.213C215.764 418.534 215.95 418.936 216.08 419.419C216.133 420.359 216.205 421.383 216.294 422.49C216.384 423.577 216.452 424.715 216.497 425.905C216.543 427.073 216.547 428.251 216.509 429.438C216.471 430.625 216.351 431.768 216.149 432.866C215.968 433.965 215.674 434.987 215.269 435.933C214.883 436.9 214.346 437.738 213.656 438.445C212.987 439.174 212.156 439.741 211.163 440.147C210.169 440.574 208.985 440.786 207.609 440.784C207.026 440.765 206.413 440.704 205.771 440.6C205.127 440.516 204.538 440.352 204.004 440.105C203.47 439.88 203.042 439.553 202.722 439.126C202.381 438.719 202.222 438.172 202.244 437.485ZM208.632 425.465C208.625 425.694 208.606 425.954 208.576 426.245C208.546 426.535 208.547 426.827 208.579 427.12C208.612 427.413 208.687 427.666 208.805 427.878C208.944 428.091 209.169 428.213 209.481 428.243C209.981 428.259 210.443 428.16 210.866 427.944C211.311 427.729 211.706 427.429 212.052 427.044C212.419 426.66 212.735 426.232 213 425.761C213.287 425.27 213.522 424.767 213.705 424.252C213.909 423.737 214.061 423.242 214.159 422.766C214.279 422.269 214.345 421.834 214.357 421.459C214.433 421.065 214.445 420.67 214.396 420.272C214.367 419.875 214.263 419.517 214.086 419.199C213.909 418.881 213.667 418.623 213.36 418.425C213.055 418.207 212.683 418.091 212.246 418.077C211.746 418.061 211.304 418.193 210.92 418.472C210.537 418.731 210.213 419.075 209.949 419.504C209.685 419.933 209.471 420.427 209.308 420.984C209.144 421.521 209.012 422.069 208.911 422.628C208.831 423.168 208.762 423.697 208.704 424.216C208.667 424.715 208.643 425.132 208.632 425.465ZM219.441 409.178L219.925 419.449C220.075 419.328 220.268 419.147 220.505 418.905C220.742 418.662 221.02 418.442 221.339 418.243C221.659 418.024 222.008 417.848 222.388 417.714C222.768 417.56 223.176 417.5 223.613 417.535C224.464 417.645 225.13 418.011 225.61 418.631C226.111 419.251 226.473 420.003 226.695 420.885C226.937 421.769 227.084 422.732 227.133 423.776C227.184 424.799 227.173 425.778 227.102 426.714C227.051 427.65 226.972 428.481 226.865 429.208C226.78 429.934 226.711 430.432 226.661 430.702L225.542 430.51C225.548 430.322 225.557 430.031 225.57 429.635C225.604 429.219 225.64 428.741 225.678 428.2C225.717 427.639 225.746 427.056 225.766 426.452C225.785 425.848 225.803 425.286 225.82 424.766C225.858 424.225 225.873 423.746 225.866 423.329C225.879 422.912 225.878 422.62 225.863 422.453C225.902 421.871 225.806 421.305 225.573 420.756C225.341 420.206 225.021 419.789 224.613 419.505C224.206 419.2 223.709 419.091 223.123 419.176C222.537 419.241 221.899 419.627 221.21 420.334C220.598 421.19 220.144 422.04 219.846 422.885C219.548 423.71 219.345 424.537 219.235 425.367C219.125 426.177 219.067 427.019 219.06 427.894C219.053 428.749 219.024 429.654 218.973 430.611L217.761 430.385C217.83 430.158 217.885 429.743 217.926 429.14C217.987 428.516 218.042 427.778 218.09 426.925C218.139 426.051 218.181 425.083 218.215 424.021C218.27 422.96 218.305 421.867 218.32 420.742C218.357 419.596 218.383 418.451 218.399 417.305C218.415 416.159 218.419 415.065 218.411 414.022C218.423 412.981 218.423 412.022 218.409 411.146C218.416 410.271 218.418 409.552 218.416 408.989L219.441 409.178Z" fill="#1E1E1E"/>
            <g id="draw/arrow">
                <path id="Vector 46" d="M119.235 354.668C135.446 345.696 162.564 318.487 141.349 281.429" stroke="#D35357"/>
                <path id="Vector 303" d="M145.353 282.392L141.018 281.03L139.95 285.598" stroke="#D35357" stroke-linecap="round"/>
            </g>
            <path id="draw:reverse/mask" d="M12.5095 350.763L19.2566 347.453C18.3341 353.295 18.7202 363.923 12.6739 364.966C10.2379 365.386 19.9739 364.774 24.791 364.364C26.7383 365.081 31.0019 366.147 32.4777 364.671C34.3225 362.826 33.5235 356.835 29.9791 357.46C27.1436 357.96 25.0447 358.086 24.3498 358.086L24.9752 351.622C26.5737 350.997 30.3127 349.871 32.481 350.371C34.6493 350.872 37.2763 352.109 38.3188 352.665C37.7628 356.487 37.2346 364.465 39.5697 365.8C42.4887 367.468 47.4925 362.255 47.4925 359.128C47.4925 356.626 43.4616 353.638 41.4462 352.456L60.2106 351.205L61.0445 366.842C61.6005 362.533 63.2546 354.082 65.4229 354.75C67.5912 355.417 68.1333 361.56 68.1333 364.549C69.2452 360.031 70.8435 350.288 72.5114 352.456C74.1794 354.625 75.5 363.784 75.4305 367.468C74.5271 368.858 72.8452 372.18 73.3456 374.348C73.9711 377.058 73.9711 378.935 77.724 378.309C81.4768 377.684 85.0212 374.765 84.8127 372.889C84.6459 371.387 86.0143 364.842 86.2923 362.201C85.8058 363.313 83.4784 366.425 81.4768 366.425C78.9749 366.425 76.473 362.881 77.9325 359.128C79.3919 355.375 81.8938 354.541 83.1448 354.958C84.1456 355.292 84.5347 359.128 84.6042 361.004L92.3185 350.788L88.3571 367.676L93.9864 363.923C94.8899 365.661 97.4057 368.719 100.241 367.051C103.786 364.966 102.118 361.004 100.241 360.379C98.7401 359.879 96.2798 360.031 95.2374 360.17L103.16 343.7L102.743 359.754L106.155 343.708L105.871 369.97C108.928 365.452 114.836 355 114.002 349.329C112.959 342.24 106.704 336.611 90.442 340.572C74.1796 344.533 60.2106 347.035 56.2492 344.534C52.2878 342.032 24.1413 339.947 16.6355 341.406C9.12977 342.866 3.70895 350.371 3.70895 355.167C3.70895 359.962 1.20679 379.977 4.54268 381.228L16.7647 381.026C15.3296 381.962 12.3095 384.545 11.7105 387.39C10.9618 390.947 11.3362 393.38 13.2081 393.942C15.08 394.504 17.7006 394.691 18.8238 392.632C19.7223 390.984 19.3229 385.331 19.011 382.711L22.3804 381.213L22.7071 396.335C23.4558 391.78 25.0759 380.989 27.6217 380.839C30.8039 380.652 31.9271 380.839 32.4887 383.647C32.9379 385.893 33.0502 392.07 33.0502 394.878L46.1535 392.819C46.9023 393.755 48.924 395.552 51.0205 395.252C53.6411 394.878 54.3899 393.755 52.8924 392.257C51.6944 391.059 48.7742 390.76 47.4639 390.76C46.9023 388.202 46.3782 382.973 48.7742 382.523C51.7692 381.962 53.0796 383.272 53.2668 384.957C53.4165 386.305 53.7035 389.512 53.8283 390.947L56.449 382.711L56.8625 396.794C57.7361 390.929 60.4174 378.929 64.311 381.775C68.2045 384.62 67.306 392.445 66.3701 396.001C71.9234 398.06 83.5541 401.654 85.6507 399.558C87.7472 397.461 87.6474 395.939 87.3354 395.44C86.0874 395.814 83.2172 396.338 81.7197 395.44C79.8478 394.316 80.035 387.203 82.6556 385.144C85.2763 383.085 87.3354 383.834 87.5226 384.957C87.6723 385.855 87.3354 387.203 87.1482 387.765L83.03 388.514C83.342 390.011 84.5275 392.781 86.7738 391.883C89.0201 390.984 90.0026 385.919 90.2522 384.235L91.0792 397.311C91.516 392.632 92.8388 383.459 94.6358 384.208C96.4328 384.957 97.2565 391.259 97.4436 394.316C97.6932 390.385 98.6042 382.636 100.252 383.085C102.311 383.647 104.182 385.144 104.37 388.888C104.519 391.883 104.587 396.939 104.65 398.249L107.926 387.203C109.237 386.205 112.494 384.583 115.04 386.08C118.222 387.952 118.783 390.385 118.035 392.445C117.286 394.504 114.104 397.311 111.67 397.311C109.723 397.311 109.237 392.944 109.237 390.76C108.8 392.944 108.039 397.985 108.488 400.681C108.937 403.376 108.55 408.169 108.301 410.228L129.828 397.686C127.893 397.436 124.1 396.226 124.399 393.38C124.699 390.535 125.023 387.578 125.148 386.454L120.842 386.267L126.084 379.716L126.458 384.957C127.768 385.394 130.763 386.118 132.261 385.519L139.374 396.75L141.433 384.957C143.18 389.2 146.076 398.098 143.68 399.745C141.284 401.392 139.437 400.556 138.813 399.932L137.69 410.976L162.195 401.643L198.496 400.951L221.659 405.446L232.031 422.04L228.228 437.598L209.213 446.932L187.778 446.587L170.838 437.252L153.206 438.981L131.08 441.055L90.2845 436.561H31.5116L10.0768 427.226L10.9179 421.954C11.2175 422.493 12.5718 423.464 15.5918 423.033C19.3669 422.493 20.7841 419.016 18.9941 417.345C17.5622 416.009 13.8629 415.913 12.1923 416.033C11.5161 415.158 10.641 413.216 12.5503 412.453C14.9369 411.498 16.3689 411.021 17.6815 411.975C18.7316 412.739 19.2328 413.566 19.3521 413.885L21.9774 412.453H26.154L27.1086 407.441L31.6432 412.095L28.1826 412.333C27.4666 413.964 26.0824 417.56 26.2733 418.897C26.512 420.567 25.438 424.147 29.1372 424.028C32.0966 423.932 33.5525 422.397 33.9105 421.641C33.9105 419.732 34.173 415.508 35.2231 413.885C36.5357 411.856 37.729 410.424 39.2803 411.14C40.8316 411.856 41.7863 414.72 42.0249 416.271C42.2636 417.823 41.1896 422.834 37.9677 424.028C35.3902 424.982 34.6662 424.187 34.6264 423.67C37.729 425.698 44.3161 429.135 45.8435 426.653C47.371 424.171 45.764 416.868 44.7696 413.527C46.3208 412.413 49.6621 410.52 50.6168 411.856C51.5714 413.193 51.5714 418.698 51.4521 421.283C52.7249 417.226 55.6764 409.469 57.2993 410.901C58.9222 412.333 59.5665 421.124 59.6859 425.34L62.0725 423.55C62.6294 424.107 64.292 425.197 66.4877 425.102C69.2323 424.982 70.0676 424.028 69.3517 422.715C68.6357 421.403 65.6524 419.851 63.7431 420.448C62.2157 420.925 61.1974 421.522 60.8792 421.76C60.9587 418.936 61.7384 413.216 64.2204 412.93C67.323 412.572 68.039 411.617 68.6357 413.765C69.113 415.484 67.7208 417.186 66.965 417.823L69.471 420.09C69.6699 416.987 70.712 410.639 73.2896 410.066C76.5115 409.35 79.1368 409.231 80.2107 413.169C81.0699 416.319 79.7732 417.982 79.0174 418.419C78.4208 415.675 76.4638 411.331 73.4089 415.913C69.5903 421.641 72.9316 425.102 74.0055 425.221C75.0795 425.34 79.7334 424.744 81.404 423.67C82.7405 422.811 83.0766 425.034 83.0775 426.253L84.0946 425.872L83.9725 404.069L85.6203 415.573C86.5103 414.662 88.5954 413.081 89.8159 414.048C91.3416 415.255 92.6766 424.537 91.0874 426.507C89.816 428.084 100.288 415.333 105.682 408.76L106.555 427.09L110.221 424.995C111.036 425.606 113.119 426.706 114.935 426.217C117.204 425.606 118.426 424.821 118.339 422.726C118.251 420.631 115.72 419.671 113.713 419.758C111.705 419.846 108.039 418.187 109.348 416.441C110.658 414.696 115.109 414.085 116.244 414.87C117.152 415.499 118.542 417.402 119.124 418.274C124.623 424.792 136.983 437.582 142.429 436.604C141.149 434.917 138.729 431.123 139.287 429.447C139.846 427.771 139.985 424.559 139.985 423.162C138.56 424.53 135.394 427.02 134.137 426.043C132.566 424.821 131.606 420.98 133.264 418.973C134.923 416.965 135.708 414.259 137.629 415.132C139.549 416.005 139.985 419.147 139.985 420.195C139.985 421.033 142.197 417.343 143.302 415.394C143.128 417.489 143.023 422.185 144.001 424.21C145.223 426.741 146.357 427.788 147.579 427.352C148.801 426.916 151.507 423.861 151.856 422.639C152.135 421.661 152.729 416.412 153.049 414.638L154.3 429.185L158.403 430.32L156.802 408.894L160.497 416.616L163.465 415.83L165.647 410.419L166.607 416.267L170.535 416.529C168.615 417.14 164.739 418.641 164.6 419.758C164.425 421.155 163.814 424.21 164.687 426.043C165.56 427.876 168.353 428.836 169.75 428.487C171.146 428.138 170.535 433.724 175.685 431.891C179.805 430.424 180.195 428.429 179.875 427.614C178.682 427.905 175.825 428.207 173.939 427.09C171.583 425.694 171.757 420.98 172.543 419.235C173.328 417.489 174.463 415.918 175.772 415.743C177.081 415.569 179.089 415.743 179.264 416.965C179.403 417.943 178.856 419.06 178.565 419.496L174.288 420.195C174.288 421.824 175.283 424.856 179.264 423.948C183.244 423.04 190.756 413.328 194.015 408.586L193.408 429.877C194.31 426.066 196.389 417.576 198.204 417.925C200.474 418.362 202.22 422.29 202.045 424.297C201.905 425.903 201.347 428.749 201.085 429.971L205.449 430.145L204.663 412.514L214.621 414.561C213.457 414.328 210.686 417.663 209.639 419.06C208.329 420.806 207.98 422.901 207.893 424.821C207.806 426.741 207.457 428.138 208.94 428.574C210.424 429.01 212.868 427.701 213.567 426.828C214.125 426.13 214.692 419.204 215.157 416.935C215.128 420.543 215.522 430.267 215.312 431.454C215.05 432.938 215.225 436.43 214.265 437.128C213.305 437.826 209.726 439.834 207.544 439.746C205.362 439.659 203.005 437.041 203.441 436.168C203.878 435.295 200.648 440.794 203.18 442.016C205.711 443.238 209.028 442.19 211.646 441.405C213.741 440.776 216.709 439.048 217.931 438.263L219.063 408.511L220.811 419.409C221.422 418.973 222.958 418.24 224.215 418.798C225.786 419.496 225.874 421.504 226.223 423.25C226.502 424.646 226.281 428.603 226.136 430.407" stroke="white" stroke-width="4" stroke-linecap="round"/>
        </g>
    </g>
</svg>
